<svg width="14" height="10" viewBox="0 0 14 10" fill="none" xmlns="http://www.w3.org/2000/svg">
<path fill-rule="evenodd" clip-rule="evenodd" d="M11 5C11 7.20914 9.20914 9 7 9C4.79086 9 3 7.20914 3 5C3 2.79086 4.79086 1 7 1C9.20914 1 11 2.79086 11 5ZM2.02469 4.5H0.5C0.223858 4.5 0 4.72386 0 5C0 5.27614 0.223858 5.5 0.5 5.5H2.02469C2.27555 8.02666 4.40733 10 7 10C9.59288 10 11.7248 8.02635 11.9754 5.4994C11.9835 5.49979 11.9917 5.5 12 5.5L13.5 5.49998C13.7762 5.49997 14 5.27611 14 4.99997C14 4.72382 13.7761 4.49997 13.5 4.49998L12 4.5C11.9917 4.5 11.9835 4.50021 11.9754 4.5006C11.7248 1.97365 9.59288 0 7 0C4.40733 0 2.27555 1.97334 2.02469 4.5Z" fill="#7A859E"/>
</svg>
