<svg width="16" height="16" fill="none" xmlns="http://www.w3.org/2000/svg"><path fill-rule="evenodd" clip-rule="evenodd" d="M12.7 15.3c-1.4-.1-4.3-2.2-7.1-5.2-2.9-3-4.8-6-4.8-7.3-.3 0-.5 0-.6.2-.9.7 1.2 4.2 4.6 7.8 3.4 3.5 6.8 5.8 7.7 5l.2-.5Z" fill="#7A859E"/><path fill-rule="evenodd" clip-rule="evenodd" d="m11.7 15.2 3.2-2.8.7.8-3.2 2.7-.7-.7ZM.2 3 3.3.3l.8.7L.9 3.8.2 3Zm.7 2.1 2.5-2 .7.7-2.5 2-.7-.7ZM2 7l2.4-2 .7.8-2.4 2-.7-.7Zm1.7 1.8 2.3-2 .8.7-2.4 2-.7-.7Z" fill="#7A859E"/><path fill-rule="evenodd" clip-rule="evenodd" d="M14.9 12.4Zm0 0V12c0-.4-.2-1-.5-1.7-.6-1.4-1.9-3.1-3.5-4.8a27 27 0 0 0-4.7-3.8c-.7-.4-1.3-.6-1.7-.7H4v.5c0 .4.2 1 .5 1.6a21.6 21.6 0 0 0 8.3 8.7l1.6.6h.5ZM4 1Zm0 0Zm11 11.5ZM7.2 8.7c3.4 3.5 7.2 5.5 8.4 4.5 1.2-1.1-.5-4.9-4-8.4C8.4 1.2 4.7-.8 3.4.3c-1.2 1 .5 4.8 4 8.4Z" fill="#7A859E"/></svg>
