<svg xmlns="http://www.w3.org/2000/svg" width="15" height="19" viewBox="0 0 15 19" fill="none">
  <path
    d="M10.0973 2.24964C10.3469 2.38971 10.4355 2.70532 10.2953 2.95456L8.72514 5.74429C8.58486 5.99354 8.2688 6.08203 8.0192 5.94196C7.7696 5.80188 7.68097 5.48627 7.82125 5.23703L9.39137 2.4473C9.53165 2.19806 9.84772 2.10956 10.0973 2.24964Z"
    fill="#7A859E" />
  <path
    d="M5.01739 0.0113786C5.29747 -0.0479608 5.5727 0.130662 5.63213 0.410344C5.91625 1.74756 5.90299 3.11681 5.5906 4.41777L5.56149 4.53898C5.49473 4.81701 5.2149 4.98835 4.93647 4.92169C4.65804 4.85502 4.48645 4.5756 4.55321 4.29757L4.58231 4.17636C4.85777 3.0292 4.87083 1.81591 4.61785 0.625231C4.55842 0.345549 4.7373 0.0707181 5.01739 0.0113786Z"
    fill="#7A859E" />
  <path
    d="M14.6532 6.25702C14.9233 6.1623 15.0654 5.86682 14.9706 5.59706C14.8757 5.3273 14.5798 5.18541 14.3097 5.28014C13.018 5.73304 11.8536 6.45626 10.9031 7.39912L10.8146 7.48697C10.6114 7.68847 10.6103 8.01624 10.8121 8.21908C11.0139 8.42191 11.3422 8.42299 11.5453 8.2215L11.6339 8.13365C12.472 7.30225 13.5031 6.66029 14.6532 6.25702Z"
    fill="#7A859E" />
  <path fill-rule="evenodd" clip-rule="evenodd"
    d="M1.80196 7.25576C5.09404 7.64162 8.09858 9.31519 10.1569 11.9096L10.2048 11.9699C10.2064 11.972 10.2068 11.9735 10.2068 11.9735L10.207 11.978L10.2055 11.9823C10.2055 11.9823 10.2047 11.9836 10.2026 11.9852L6.78114 14.3956C5.38466 12.8606 3.52847 11.8145 1.48717 11.4153L1.79844 7.25866L1.79862 7.25736M1.40923 12.456L1.03863 17.4049C1.00595 17.8412 1.49646 18.1187 1.85449 17.8665L5.92668 14.9976C4.71862 13.7087 3.14171 12.8206 1.40923 12.456ZM1.79862 7.25736L1.79958 7.25646L1.80079 7.25568L1.80196 7.25576M10.9696 11.2667C8.74086 8.45742 5.48752 6.64526 1.92283 6.22746C1.33526 6.15859 0.808578 6.59235 0.764462 7.18146L0.00465303 17.3277C-0.0933687 18.6366 1.37814 19.4692 2.45223 18.7125L10.8003 12.8312C11.2917 12.485 11.3909 11.7977 11.0175 11.327L10.9696 11.2667Z"
    fill="#7A859E" />
</svg>