<!--{
  "category": "Action"
}-->
<svg width="7" height="7" viewBox="0 0 7 7" fill="none" xmlns="http://www.w3.org/2000/svg">
<path fill-rule="evenodd" clip-rule="evenodd" d="M0.14547 5.14774C-0.0497921 5.343 -0.0497921 5.65959 0.14547 5.85485C0.340732 6.05011 0.657315 6.05011 0.852577 5.85485L3.00009 3.70733L5.14814 5.85537C5.3434 6.05064 5.65998 6.05064 5.85524 5.85537C6.05051 5.66011 6.05051 5.34353 5.85524 5.14827L3.7072 3.00022L5.85485 0.852577C6.05011 0.657315 6.05011 0.340732 5.85485 0.14547C5.65959 -0.0497921 5.343 -0.049792 5.14774 0.14547L3.00009 2.29312L0.852973 0.145995C0.657711 -0.0492671 0.341128 -0.0492671 0.145866 0.145995C-0.0493962 0.341257 -0.0493962 0.65784 0.145866 0.853102L2.29299 3.00022L0.14547 5.14774Z" fill="#FF5B5B"/>
</svg>
