<!--{
  "category": "Action"
}-->
<svg xmlns="http://www.w3.org/2000/svg" width="12" height="12" viewBox="0 0 12 12" fill="none">
  <path
    d="M9.14343 2.14744C9.33872 1.95251 9.65531 1.95229 9.85046 2.14744C10.0454 2.3426 10.0453 2.65924 9.85046 2.85447L6.70593 5.999L9.85242 9.14548C10.0473 9.34077 10.0476 9.65737 9.85242 9.85252C9.65727 10.0477 9.34067 10.0474 9.14539 9.85252L5.9989 6.70603L2.85437 9.85056C2.65915 10.0456 2.34256 10.0456 2.14734 9.85056C1.95213 9.65536 1.95224 9.33881 2.14734 9.14353L5.29187 5.999L2.14929 2.85642C1.95403 2.66116 1.95404 2.34465 2.14929 2.14939C2.34455 1.95413 2.66106 1.95413 2.85632 2.14939L5.9989 5.29197L9.14343 2.14744Z"
    fill="#7A859E" />
</svg>