<!--{
  "category": "Social"
}-->
<svg width="20" height="14" fill="none" xmlns="http://www.w3.org/2000/svg"><path d="M8.88 6.87a1.8 1.8 0 0 1-1.85 1.75 1.8 1.8 0 0 1-1.85-1.75c0-.97.83-1.75 1.85-1.75a1.8 1.8 0 0 1 1.85 1.75Zm4.09 1.75a1.8 1.8 0 0 0 1.85-1.75 1.8 1.8 0 0 0-1.85-1.76 1.8 1.8 0 0 0-1.85 1.76c0 .97.83 1.75 1.85 1.75Z" fill="#7A859E"/><path fill-rule="evenodd" clip-rule="evenodd" d="M7.44 11.8c-.67-.17-1.08-.34-1.08-.34s.08.5-.07 1.05c-.12.45-.4.94-1.01 1.24-1.36.68-4.78 0-4.78-2.5 0-2.48 1.18-8.38 2.37-9.56A8 8 0 0 1 5.97.07c.23-.07.47-.05.69.03.62.22 2.02.67 3.36.68 1.35.02 2.6-.45 3.15-.68.18-.08.39-.12.59-.09.65.11 2.22.49 3.4 1.68 1.52 1.55 2.35 7.08 2.34 9.57-.01 2.5-3.5 3.01-4.76 2.5-.6-.25-.9-.79-1.04-1.28-.16-.53-.14-1.02-.14-1.02s-.4.16-1.05.31a10.49 10.49 0 0 1-5.07.02Zm5.72-1.27 1.52-.58-.07 1.55a1.16 1.16 0 0 0 0 .18c.02.13.04.3.09.48.1.4.27.6.46.67a3.52 3.52 0 0 0 2.05-.13c.79-.29 1.23-.76 1.23-1.45a25.39 25.39 0 0 0-1.27-7.43 4.41 4.41 0 0 0-.78-1.44A5.29 5.29 0 0 0 13.6 1c-.59.26-2.01.8-3.6.78a12.2 12.2 0 0 1-3.73-.76 7 7 0 0 0-2.64 1.36c-.12.12-.36.51-.64 1.27-.26.7-.5 1.6-.72 2.54a25.2 25.2 0 0 0-.71 5.06c0 .71.45 1.21 1.22 1.5.38.16.8.23 1.2.24.4 0 .67-.07.8-.13.3-.15.45-.4.51-.7a1.79 1.79 0 0 0 .02-.55L5 9.82l1.77.72a2.63 2.63 0 0 0 .21.08l.67.2a9.4 9.4 0 0 0 5.46-.27l.05-.01Z" fill="#7A859E"/></svg>
