<svg xmlns="http://www.w3.org/2000/svg" width="12" height="12" viewBox="0 0 12 12" fill="none">
  <path fill-rule="evenodd" clip-rule="evenodd"
    d="M11.3224 2.34079C11.5373 2.16752 11.5604 1.86504 11.3741 1.66519C11.1879 1.46535 10.8627 1.44381 10.6479 1.61709L8.41857 3.41528C7.57023 2.86871 6.70792 2.49854 6.00001 2.49854C4.57928 2.49854 2.53664 3.98951 1.23327 5.40508C0.922041 5.7431 0.92204 6.25688 1.23327 6.5949C1.67171 7.07108 2.1938 7.55579 2.74773 7.98941L0.677572 9.65921C0.462748 9.83248 0.439596 10.135 0.62586 10.3348C0.812125 10.5347 1.13727 10.5562 1.35209 10.3829L3.58145 8.5847C4.42978 9.13127 5.2921 9.50144 6.00001 9.50144C7.42073 9.50144 9.46337 8.01046 10.7667 6.5949C11.078 6.25688 11.078 5.7431 10.7667 5.40508C10.3283 4.9289 9.80622 4.44419 9.25229 4.01057L11.3224 2.34079ZM6.85511 4.67638C6.60686 4.52854 6.31393 4.44318 6.00021 4.44318C5.10397 4.44318 4.37742 5.13991 4.37742 5.99938C4.37742 6.20484 4.41894 6.40099 4.49437 6.58056L6.85511 4.67638ZM5.14596 7.32276L7.50634 5.41887C7.58159 5.59825 7.62301 5.79418 7.62301 5.99938C7.62301 6.85884 6.89646 7.55558 6.00021 7.55558C5.68677 7.55558 5.39408 7.47036 5.14596 7.32276Z"
    fill="#F3F4FA" />
</svg>