<svg xmlns="http://www.w3.org/2000/svg" width="10" height="8" viewBox="0 0 10 8" fill="none">
  <path fill-rule="evenodd" clip-rule="evenodd"
    d="M0.233421 3.40459C1.53679 1.98903 3.57943 0.498047 5.00016 0.498047C6.42089 0.498047 8.46353 1.98903 9.7669 3.40459C10.0781 3.74261 10.0781 4.25639 9.76689 4.59441C8.46353 6.00997 6.42089 7.50095 5.00016 7.50095C3.57943 7.50095 1.53679 6.00997 0.233421 4.59441C-0.077807 4.25639 -0.0778068 3.74261 0.233421 3.40459ZM5.00037 5.55509C5.89661 5.55509 6.62316 4.85836 6.62316 3.99889C6.62316 3.13942 5.89661 2.44269 5.00037 2.44269C4.10412 2.44269 3.37757 3.13942 3.37757 3.99889C3.37757 4.85836 4.10412 5.55509 5.00037 5.55509Z"
    fill="#DCF6EF" />
</svg>