<svg xmlns="http://www.w3.org/2000/svg" width="12" height="12" viewBox="0 0 12 12" fill="none">
  <path fill-rule="evenodd" clip-rule="evenodd"
    d="M1.23318 5.40508C2.53655 3.98951 4.57919 2.49854 5.99991 2.49854C7.42064 2.49854 9.46328 3.98951 10.7667 5.40508C11.0779 5.7431 11.0779 6.25688 10.7667 6.5949C9.46328 8.01046 7.42064 9.50144 5.99991 9.50144C4.57919 9.50144 2.53655 8.01046 1.23318 6.5949C0.921949 6.25688 0.921949 5.7431 1.23318 5.40508ZM6.00012 7.55558C6.89637 7.55558 7.62292 6.85884 7.62292 5.99938C7.62292 5.13991 6.89637 4.44318 6.00012 4.44318C5.10388 4.44318 4.37733 5.13991 4.37733 5.99938C4.37733 6.85884 5.10388 7.55558 6.00012 7.55558Z"
    fill="#DCF6EF" />
</svg>