<svg width="18" height="16" fill="none" xmlns="http://www.w3.org/2000/svg"><path fill-rule="evenodd" clip-rule="evenodd" d="M10.9 5.36V4.4a3.4 3.4 0 0 0-6.8 0v.96a3.4 3.4 0 0 0 6.8 0ZM7.5 0a4.4 4.4 0 0 0-4.4 4.4v.96c0 1.08.38 2.07 1.03 2.84a89.9 89.9 0 0 0-2.25.95c-.37.17-.72.34-.92.46-.44.3-.68.78-.81 1.34a8.85 8.85 0 0 0-.14 2.1 1 1 0 0 0 1 .98h9.5c0-.34.02-.68.08-1H1.01a7.9 7.9 0 0 1 .11-1.86c.1-.43.25-.62.39-.72.12-.08.4-.22.78-.39a44.38 44.38 0 0 1 2.66-1.11 4.38 4.38 0 0 0 5.06.02 98.33 98.33 0 0 1 2.41 1c.32-.24.66-.45 1.03-.62l-.43-.2a45.42 45.42 0 0 0-2.18-.93 4.38 4.38 0 0 0 1.06-2.86V4.4A4.4 4.4 0 0 0 7.5 0Zm10.36 12.38a.5.5 0 1 0-.72-.7l-2.96 3.09-.96-1.05a.5.5 0 0 0-.74.68l1.32 1.44a.5.5 0 0 0 .73 0l3.33-3.46Z" fill="#505573"/></svg>