<svg width="16" height="16" viewBox="0 0 16 16" fill="none" xmlns="http://www.w3.org/2000/svg">
<path fill-rule="evenodd" clip-rule="evenodd" d="M8 15C9.50148 15 10.8926 14.5273 12.0325 13.7225C11.4683 13.1693 10.9513 12.4266 10.6799 11.4452C10.5591 11.0103 10.0364 8.73924 11.6169 6.79126C12.4563 5.75737 13.4764 5.27297 14.3522 5.05507C13.7674 3.79576 12.8192 2.73949 11.6422 2.02098C10.81 2.558 9.84797 3.31809 9.34363 4.20179C9.03047 4.75066 8.85132 5.32099 8.8497 5.32661C8.6828 5.85833 8.60231 6.46382 8.60231 7.17934C8.60231 9.69905 8.35162 10.3014 7.54865 10.9422C7.10079 11.2999 6.50158 11.4781 5.90899 11.4781C5.3058 11.4781 4.7099 11.2926 4.28997 10.9226C3.55418 10.2733 3.57572 9.35525 3.59305 8.6171L3.59309 8.61537C3.60299 8.21826 3.61359 7.76704 3.47228 7.64396C3.45205 7.62594 3.0564 7.2895 1.00941 8.36609C1.19983 12.0619 4.2568 15 8 15ZM1.0877 6.88887C1.62007 3.55092 4.51213 1 8 1C8.81239 1 9.59245 1.13839 10.3179 1.39288C9.54318 1.97834 8.76698 2.72947 8.27349 3.59296C7.88963 4.2641 7.68089 4.93605 7.67346 4.96161C7.46969 5.61229 7.37104 6.33755 7.37104 7.17941C7.37104 9.50886 7.14843 9.68681 6.78126 9.9803L6.78092 9.98058C6.34778 10.3252 5.48813 10.3358 5.10839 10.0002C4.82152 9.7483 4.81175 9.3192 4.8273 8.64394C4.84367 7.97526 4.86101 7.21706 4.28243 6.71502C3.64042 6.15754 2.64968 6.17604 1.0877 6.88887ZM15 8C15 9.921 14.2262 11.6613 12.9733 12.9261C12.5138 12.4948 12.0868 11.9062 11.8684 11.1171C11.8109 10.9127 11.3499 9.07566 12.5752 7.56592L12.5752 7.56712C13.2434 6.74346 14.0831 6.38575 14.7757 6.23548C14.9221 6.79918 15 7.39049 15 8ZM8 16C12.4183 16 16 12.4183 16 8C16 3.58172 12.4183 0 8 0C3.58172 0 0 3.58172 0 8C0 12.4183 3.58172 16 8 16Z" fill="#7A859E"/>
</svg>
