<!--{
  "category": "Social"
}-->
<svg width="16" height="16" viewBox="0 0 16 16" fill="none" xmlns="http://www.w3.org/2000/svg">
<path fill-rule="evenodd" clip-rule="evenodd" d="M15.68 8.18226C15.68 7.61499 15.6291 7.06953 15.5345 6.5459H8V9.64044H12.3055C12.12 10.6404 11.5564 11.4877 10.7091 12.055V14.0623H13.2945C14.8073 12.6695 15.68 10.6186 15.68 8.18226Z" fill="#4285F4"/>
<path fill-rule="evenodd" clip-rule="evenodd" d="M7.9987 16.0005C10.1587 16.0005 11.9696 15.2841 13.2932 14.0623L10.7078 12.0551C9.99143 12.5351 9.07506 12.8187 7.9987 12.8187C5.91506 12.8187 4.15143 11.4114 3.52234 9.52051H0.849609V11.5932C2.16597 14.2078 4.87143 16.0005 7.9987 16.0005Z" fill="#34A853"/>
<path fill-rule="evenodd" clip-rule="evenodd" d="M3.52364 9.51995C3.36364 9.03995 3.27273 8.52723 3.27273 7.99995C3.27273 7.47268 3.36364 6.95995 3.52364 6.47995V4.40723H0.850909C0.309091 5.48723 0 6.70904 0 7.99995C0 9.29086 0.309091 10.5127 0.850909 11.5927L3.52364 9.51995Z" fill="#FBBC05"/>
<path fill-rule="evenodd" clip-rule="evenodd" d="M7.9987 3.18182C9.17325 3.18182 10.2278 3.58545 11.0569 4.37818L13.3514 2.08364C11.966 0.792727 10.1551 0 7.9987 0C4.87143 0 2.16597 1.79273 0.849609 4.40727L3.52234 6.48C4.15143 4.58909 5.91506 3.18182 7.9987 3.18182Z" fill="#EA4335"/>
</svg>
