<svg width="17" height="17" viewBox="0 0 17 17" fill="none" xmlns="http://www.w3.org/2000/svg">
<path fill-rule="evenodd" clip-rule="evenodd" d="M1.50098 1.94922H6.50098V6.94922H1.50098L1.50098 1.94922ZM0.500977 1.94922C0.500977 1.39693 0.948692 0.949219 1.50098 0.949219H6.50098C7.05326 0.949219 7.50098 1.39693 7.50098 1.94922V6.94922C7.50098 7.5015 7.05326 7.94922 6.50098 7.94922H1.50098C0.948692 7.94922 0.500977 7.5015 0.500977 6.94922V1.94922ZM10.501 1.94922H15.501V6.94922H10.501V1.94922ZM9.50098 1.94922C9.50098 1.39693 9.94869 0.949219 10.501 0.949219H15.501C16.0533 0.949219 16.501 1.39693 16.501 1.94922V6.94922C16.501 7.5015 16.0533 7.94922 15.501 7.94922H10.501C9.94869 7.94922 9.50098 7.5015 9.50098 6.94922V1.94922ZM15.501 10.9492H10.501V15.9492H15.501V10.9492ZM10.501 9.94922C9.94869 9.94922 9.50098 10.3969 9.50098 10.9492V15.9492C9.50098 16.5015 9.94869 16.9492 10.501 16.9492H15.501C16.0533 16.9492 16.501 16.5015 16.501 15.9492V10.9492C16.501 10.3969 16.0533 9.94922 15.501 9.94922H10.501ZM1.50098 10.9492H6.50098V15.9492H1.50098L1.50098 10.9492ZM0.500977 10.9492C0.500977 10.3969 0.948692 9.94922 1.50098 9.94922H6.50098C7.05326 9.94922 7.50098 10.3969 7.50098 10.9492V15.9492C7.50098 16.5015 7.05326 16.9492 6.50098 16.9492H1.50098C0.948692 16.9492 0.500977 16.5015 0.500977 15.9492V10.9492Z" fill="#7A859E"/>
</svg>
