<svg width="16" height="22" viewBox="0 0 16 22" fill="none" xmlns="http://www.w3.org/2000/svg">
<path fill-rule="evenodd" clip-rule="evenodd" d="M11.8416 12.3082C11.8647 12.2871 11.8888 12.2669 11.9141 12.2477C13.2137 11.2628 14 9.82978 14 8.26399C14 5.45873 11.4209 3 7.99981 3C4.57866 3 1.99969 5.45874 2 8.26388V8.26399C2 9.82978 2.78626 11.2628 4.08595 12.2477C4.1112 12.2669 4.13534 12.287 4.15834 12.3082C5.13782 13.0874 5.6075 14.1842 5.83843 15.1469H10.1615C10.3925 14.1842 10.8623 13.0873 11.8416 12.3082ZM12.52 13.0473L12.5181 13.0488C12.2437 13.2576 12.0166 13.5024 11.8284 13.7689C11.3612 14.4307 11.1347 15.2266 11.0249 15.9372C10.9643 16.4824 10.9645 17.0322 10.9648 17.58C10.9648 17.6121 10.9648 17.6442 10.9648 17.6763C10.9648 19.1205 8.94673 20 7.99991 20C7.0531 20 5.03504 19.1205 5.03504 17.6763C5.03504 17.6437 5.03505 17.6111 5.03507 17.5786C5.03531 17.0325 5.03555 16.4845 4.97552 15.941C4.86602 15.2293 4.63963 14.4319 4.1716 13.7689C3.98346 13.5024 3.75628 13.2576 3.48194 13.0488L3.47996 13.0473L3.47653 13.0447H3.48194L3.4785 13.0421L3.47653 13.0406C3.20926 12.8376 2.95914 12.6171 2.72847 12.381C1.65304 11.2803 1 9.84111 1 8.26399C0.999613 4.80488 4.13376 2 7.99981 2C11.8658 2 15 4.80488 15 8.26399C15 9.84111 14.347 11.2803 13.2715 12.381C13.0409 12.6171 12.7907 12.8376 12.5235 13.0406L12.5215 13.0421L12.5181 13.0447H12.5235L12.52 13.0473ZM7.80047 5.18847C7.8443 5.46111 7.65881 5.71766 7.38616 5.76149C6.02958 5.97955 5.0854 7.03188 4.77678 8.15635C4.70369 8.42265 4.42857 8.57927 4.16227 8.50619C3.89598 8.4331 3.73935 8.15798 3.81244 7.89168C4.20754 6.45211 5.42345 5.06415 7.22746 4.77416C7.5001 4.73033 7.75665 4.91583 7.80047 5.18847Z" fill="#8358FF"/>
</svg>
