<!--{
  "category": "Queries"
}-->
<svg width="16" height="16" viewBox="0 0 16 16" fill="none" xmlns="http://www.w3.org/2000/svg">
<path d="M2.5 3.5C2.5 3.22386 2.72386 3 3 3H8C8.27614 3 8.5 3.22386 8.5 3.5C8.5 3.77614 8.27614 4 8 4H3C2.72386 4 2.5 3.77614 2.5 3.5Z" fill="#7A809A"/>
<path fill-rule="evenodd" clip-rule="evenodd" d="M0 1C0 0.447715 0.447715 0 1 0H15C15.5523 0 16 0.447715 16 1V6C16 6.55228 15.5523 7 15 7H1C0.447715 7 0 6.55228 0 6V1ZM1 1H15V6H1V1Z" fill="#7A809A"/>
<path d="M3 12C2.72386 12 2.5 12.2239 2.5 12.5C2.5 12.7761 2.72386 13 3 13H8C8.27614 13 8.5 12.7761 8.5 12.5C8.5 12.2239 8.27614 12 8 12H3Z" fill="#7A809A"/>
<path fill-rule="evenodd" clip-rule="evenodd" d="M0 10C0 9.44771 0.447715 9 1 9H15C15.5523 9 16 9.44772 16 10V15C16 15.5523 15.5523 16 15 16H1C0.447715 16 0 15.5523 0 15V10ZM1 10H15V15H1V10Z" fill="#7A809A"/>
</svg>
