<!--{
  "category": "Action"
}-->
<svg width="12" height="12" viewBox="0 0 12 12" fill="none" xmlns="http://www.w3.org/2000/svg">
<path fill-rule="evenodd" clip-rule="evenodd" d="M6.28499 0.758943C3.3557 0.630351 0.883175 2.8773 0.75521 5.76969C0.627249 8.66198 2.89161 11.1167 5.8208 11.2453C8.48041 11.3621 10.7647 9.51975 11.2574 7.01471C11.2973 6.8115 11.4945 6.67916 11.6977 6.71913C11.9009 6.7591 12.0333 6.95624 11.9933 7.15946C11.429 10.0282 8.81819 12.1276 5.7879 11.9946C2.45161 11.8482 -0.140652 9.04955 0.0059219 5.73654C0.152491 2.42365 2.98169 -0.136811 6.31789 0.00964426C8.69728 0.114097 10.6966 1.56677 11.5957 3.5918C11.6798 3.78109 11.5945 4.00268 11.4052 4.08672C11.2159 4.17077 10.9943 4.08546 10.9103 3.89616C10.1233 2.12391 8.37212 0.850566 6.28499 0.758943Z" fill="#7A859E"/>
<path fill-rule="evenodd" clip-rule="evenodd" d="M11.6253 -0.000488281C11.8325 -0.000488281 12.0003 0.16741 12.0003 0.374522V4.12778C12.0003 4.33489 11.8325 4.50279 11.6253 4.50279H7.87208C7.66497 4.50279 7.49707 4.33489 7.49707 4.12778C7.49707 3.92067 7.66497 3.75277 7.87208 3.75277H11.2503V0.374522C11.2503 0.16741 11.4182 -0.000488281 11.6253 -0.000488281Z" fill="#7A859E"/>
</svg>
