<svg width="13" height="12" viewBox="0 0 13 12" fill="none" xmlns="http://www.w3.org/2000/svg">
<path d="M3.42411 11.8777L4.28226 11.0186C4.44632 10.8544 4.44632 10.5765 4.28226 10.4122C4.1182 10.248 3.84057 10.248 3.67651 10.4122L2.81836 11.2713C2.6543 11.4355 2.6543 11.7135 2.81836 11.8777C2.99503 12.0419 3.26005 12.0419 3.42411 11.8777Z" fill="white"/>
<path d="M3.18549 9.93269C3.34955 9.76846 3.34955 9.49053 3.18549 9.3263C3.02143 9.16207 2.7438 9.16207 2.57974 9.3263L1.21679 10.6907C1.05274 10.8549 1.05274 11.1328 1.21679 11.2971C1.38085 11.4613 1.65849 11.4613 1.82255 11.2971L3.18549 9.93269Z" fill="white"/>
<path d="M2.08695 8.83308C2.25101 8.66885 2.25101 8.39092 2.08695 8.22669C1.92289 8.06246 1.64525 8.06246 1.48119 8.22669L0.623044 9.08574C0.458985 9.24998 0.458985 9.5279 0.623044 9.69214C0.787102 9.85637 1.06474 9.85637 1.2288 9.69214L2.08695 8.83308Z" fill="white"/>
<path d="M5.12966 9.84363L5.50826 9.46463C5.91209 10.0331 6.25283 10.6648 6.49261 11.3217C6.59357 11.587 6.92168 11.6754 7.14884 11.4986L8.68846 10.1847C9.35732 9.61623 9.60971 8.68138 9.30684 7.86022L9.20588 7.64546L11.0358 5.81365C11.793 5.05566 12.2473 4.05764 12.3356 2.99645L12.4997 0.886717C12.5375 0.381391 12.1211 -0.0355036 11.6163 0.00239591L9.50876 0.166627C8.44869 0.242426 7.45172 0.709853 6.69452 1.46784L4.86464 3.29965L4.63749 3.22385C3.80457 2.92066 2.88332 3.17332 2.31543 3.84288L1.00296 5.37149C0.813666 5.58625 0.902005 5.92735 1.17964 6.02841C1.8485 6.26844 2.46687 6.5969 3.03476 7.0138L2.65617 7.39279C2.51735 7.53176 2.51735 7.75916 2.65617 7.91075L4.61225 9.84363C4.76368 9.98259 4.99084 9.98259 5.12966 9.84363ZM7.52744 4.97986C7.04788 4.4998 7.04788 3.72918 7.52744 3.24912C8.00699 2.76906 8.7768 2.76906 9.25636 3.24912C9.73591 3.72918 9.73591 4.4998 9.25636 4.97986C8.7768 5.45992 8.00699 5.45992 7.52744 4.97986Z" fill="white"/>
</svg>
