<svg xmlns="http://www.w3.org/2000/svg" width="16" height="20" viewBox="0 0 16 20" fill="none">
  <path
    d="M8.00102 17.6503C8.27708 17.6503 8.5009 17.8608 8.50101 18.1202V19.5301C8.50101 19.7896 8.27714 20 8.00102 20C7.72489 20 7.50103 19.7896 7.50103 19.5301V18.1202C7.50114 17.8608 7.72495 17.6503 8.00102 17.6503ZM10.3584 17.8632C10.5844 17.7146 10.8962 17.7658 11.0547 17.978L11.915 19.1335C12.0733 19.3461 12.019 19.6391 11.7929 19.788C11.5668 19.9368 11.2551 19.8847 11.0966 19.6723L10.2363 18.5177C10.0781 18.3052 10.1326 18.0122 10.3584 17.8632ZM4.95324 17.978C5.11165 17.7656 5.42339 17.7136 5.64951 17.8623C5.87552 18.0112 5.9298 18.3042 5.77158 18.5168L4.91125 19.6714C4.75286 19.884 4.44117 19.9359 4.21497 19.7871C3.98907 19.6381 3.9346 19.3451 4.09291 19.1326L4.95324 17.978ZM6.71491 2.63493C7.62833 1.7291 8.54437 1.84976 9.28614 2.63493C10.0287 3.42076 13.3193 6.01802 11.8564 11.1755L13.6864 11.9759C13.9657 12.1567 13.9933 12.473 13.9999 12.7827V16.3669C14.0068 16.7023 13.6523 16.9344 13.3193 16.8314L10.9326 16.1338C10.6132 16.676 10.0139 17.0377 9.29689 17.0379L6.43758 17.0342C5.80076 16.9926 5.23979 16.6444 4.91906 16.1604L2.65934 16.8213C2.32603 16.8803 2.00892 16.6614 2.00213 16.3467V12.7634C1.99586 12.47 1.99272 12.2259 2.15545 12.0484L4.14369 11.1755C2.72583 5.2565 5.80109 3.54115 6.71491 2.63493ZM8.03422 2.83502C7.9098 2.83081 7.67136 2.87825 7.32623 3.22052C6.73202 3.8099 5.9385 4.27779 5.30967 5.4197C4.72035 6.49009 4.30794 8.18444 4.97863 10.9846L5.14171 11.6657L2.85758 12.6239C2.86227 13.7136 2.85856 14.8036 2.85856 15.8933L4.67102 15.36L5.28917 15.1783L5.63877 15.707C5.83277 15.9995 6.18547 16.2026 6.56648 16.2026H9.29689C9.70509 16.2024 10.022 16.0023 10.1894 15.718L10.5273 15.1434L11.1787 15.3334L13.1435 15.9071L13.1347 12.6515L10.8349 11.6427L11.0312 10.9525C11.7018 8.58817 11.2766 6.86379 10.6357 5.6464C9.97261 4.38708 9.09422 3.66492 8.6553 3.20033C8.38227 2.91146 8.16808 2.83988 8.03422 2.83502ZM8.00297 6.47614C8.94929 6.49701 9.71494 7.26237 9.71289 8.18518C9.71072 9.10789 8.94141 9.8389 7.99516 9.81804C7.04903 9.79696 6.28319 9.03168 6.28524 8.109C6.28751 7.1864 7.05681 6.45532 8.00297 6.47614ZM8.00102 7.31231C7.5281 7.30201 7.14389 7.66713 7.14264 8.12828C7.14183 8.5894 7.52424 8.97218 7.99711 8.9828C8.47021 8.99321 8.85439 8.62724 8.85549 8.16591C8.85634 7.70467 8.47402 7.32279 8.00102 7.31231Z"
    fill="#7A859E" />
</svg>