<svg xmlns="http://www.w3.org/2000/svg" width="20" height="20" viewBox="0 0 20 20" fill="none">
  <path fill-rule="evenodd" clip-rule="evenodd"
    d="M2 8.53432C2 4.92552 4.92552 2 8.53432 2C12.1431 2 15.0686 4.92552 15.0686 8.53432C15.0686 12.1431 12.1431 15.0686 8.53432 15.0686C4.92552 15.0686 2 12.1431 2 8.53432ZM8.53432 1C4.37323 1 1 4.37323 1 8.53432C1 12.6954 4.37323 16.0686 8.53432 16.0686C10.4351 16.0686 12.1714 15.3648 13.4969 14.2036L18.1469 18.8535C18.3422 19.0488 18.6588 19.0488 18.854 18.8535C19.0493 18.6583 19.0493 18.3417 18.854 18.1464L14.204 13.4964C15.365 12.1709 16.0686 10.4348 16.0686 8.53432C16.0686 4.37323 12.6954 1 8.53432 1Z"
    fill="#7A859E" />
</svg>