<svg xmlns="http://www.w3.org/2000/svg" width="12" height="12" viewBox="0 0 12 12" fill="none">
  <path fill-rule="evenodd" clip-rule="evenodd"
    d="M1 5.05242C1 2.81433 2.81433 1 5.05242 1C7.29052 1 9.10485 2.81433 9.10485 5.05242C9.10485 7.29052 7.29052 9.10485 5.05242 9.10485C2.81433 9.10485 1 7.29052 1 5.05242ZM5.05242 0C2.26205 0 0 2.26205 0 5.05242C0 7.8428 2.26205 10.1048 5.05242 10.1048C6.26754 10.1048 7.38247 9.67589 8.25404 8.96115L11.1473 11.8544C11.3426 12.0497 11.6591 12.0497 11.8544 11.8544C12.0497 11.6591 12.0497 11.3426 11.8544 11.1473L8.96115 8.25404C9.67589 7.38247 10.1048 6.26754 10.1048 5.05242C10.1048 2.26205 7.8428 0 5.05242 0Z"
    fill="#7A859E" />
</svg>