<svg xmlns="http://www.w3.org/2000/svg" width="16" height="16" viewBox="0 0 16 16" fill="none">
  <path fill-rule="evenodd" clip-rule="evenodd"
    d="M6.88086 1C10.1281 1.00034 12.7604 3.63273 12.7607 6.87988C12.7607 8.32337 12.239 9.64451 11.376 10.668L14.8564 14.1484L14.9209 14.2266C15.049 14.4206 15.0271 14.6846 14.8564 14.8555C14.6856 15.0263 14.4216 15.0481 14.2275 14.9199L14.1494 14.8555L10.6689 11.375C9.64563 12.2386 8.32471 12.7606 6.88086 12.7607C3.63313 12.7607 1 10.1275 1 6.87988C1.00031 3.63252 3.63332 1 6.88086 1ZM6.88086 2C4.18556 2 2.00031 4.18486 2 6.87988C2 9.57517 4.18537 11.7607 6.88086 11.7607C9.57606 11.7604 11.7607 9.57496 11.7607 6.87988C11.7604 4.18507 9.57587 2.00034 6.88086 2Z"
    fill="#7A859E" />
</svg>