<!--{
  "category": "Action"
}-->
<svg width="14" height="14" viewBox="0 0 14 14" fill="none" xmlns="http://www.w3.org/2000/svg">
  <path fill-rule="evenodd" clip-rule="evenodd"
    d="M0.14105 13.8551C-0.0538721 13.6595 -0.0533218 13.343 0.142281 13.148L4.09284 9.21119L1.17961 9.2112C0.903468 9.2112 0.67961 8.98734 0.679609 8.7112C0.679609 8.43505 0.903465 8.2112 1.17961 8.2112L5.2864 8.21119C5.419 8.21119 5.54618 8.26386 5.63995 8.35763C5.73372 8.4514 5.7864 8.57858 5.7864 8.71119V12.8209C5.7864 13.0971 5.56254 13.3209 5.2864 13.3209C5.01025 13.3209 4.7864 13.0971 4.7864 12.8209V9.9318L0.848156 13.8564C0.652554 14.0513 0.335972 14.0507 0.14105 13.8551ZM13.8542 0.14478C14.0491 0.340382 14.0485 0.656963 13.8529 0.851886L9.90237 4.78873L12.8156 4.78872C13.0917 4.78872 13.3156 5.01258 13.3156 5.28872C13.3156 5.56486 13.0918 5.78872 12.8156 5.78872L8.70882 5.78873C8.57621 5.78873 8.44904 5.73605 8.35527 5.64228C8.2615 5.54852 8.20882 5.42134 8.20882 5.28873L8.20882 1.179C8.20882 0.902855 8.43268 0.678997 8.70882 0.678997C8.98496 0.678997 9.20882 0.902855 9.20882 1.179L9.20882 4.06811L13.1471 0.14355C13.3427 -0.0513725 13.6592 -0.0508213 13.8542 0.14478Z"
    fill="#7A859E" />
</svg>