<svg xmlns="http://www.w3.org/2000/svg" width="16" height="16" viewBox="0 0 16 16" fill="none">
  <path fill-rule="evenodd" clip-rule="evenodd"
    d="M7.00049 3.5C7.00049 3.22386 7.22435 3 7.50049 3H12.4936C12.7697 3 12.9936 3.22386 12.9936 3.5C12.9936 3.77614 12.7697 4 12.4936 4H7.50049C7.22435 4 7.00049 3.77614 7.00049 3.5ZM7.50446 7.50218C7.22831 7.50218 7.00446 7.72603 7.00446 8.00218C7.00446 8.27832 7.22831 8.50218 7.50446 8.50218H12.4976C12.7737 8.50218 12.9976 8.27832 12.9976 8.00218C12.9976 7.72603 12.7737 7.50218 12.4976 7.50218H7.50446ZM7.50446 11.9997C7.22831 11.9997 7.00446 12.2236 7.00446 12.4997C7.00446 12.7759 7.22831 12.9997 7.50446 12.9997H12.4976C12.7737 12.9997 12.9976 12.7759 12.9976 12.4997C12.9976 12.2236 12.7737 11.9997 12.4976 11.9997H7.50446ZM4.81286 5.88977C5.02732 5.71581 5.06017 5.40094 4.88622 5.18647C4.71227 4.97201 4.39739 4.93916 4.18293 5.11311L1.18699 7.54308C1.07178 7.63652 1.00401 7.7763 1.002 7.92463C0.999991 8.07296 1.06395 8.21453 1.17659 8.31106L4.17253 10.8786C4.38221 11.0583 4.69785 11.0339 4.87755 10.8243C5.05724 10.6146 5.03293 10.2989 4.82326 10.1193L2.28266 7.94197L4.81286 5.88977Z"
    fill="#7A859E" />
</svg>