<svg width="14" height="14" viewBox="0 0 14 14" fill="none" xmlns="http://www.w3.org/2000/svg">
  <path
    d="M5 8C6.47747 8 7.72533 9.07741 7.95996 10.5107H14L13.999 11.5107H7.94629C7.68645 12.9322 6.46891 14 5 14C3.52623 14 2.2811 12.9279 2.04199 11.5H0V10.5H2.04297C2.28057 9.09168 3.50288 8 5 8ZM5 9C3.88825 9 3 9.90458 3 11C3 12.1118 3.90458 13 5 13C6.07645 13 6.9756 12.1263 6.99902 10.9902C6.99374 9.88305 6.0922 9 5 9ZM9 0C10.5098 0 11.7796 1.12516 11.9736 2.60547H14V3.60547H11.9297C11.6342 4.97958 10.4362 6 9 6C7.56268 6 6.34184 4.9805 6.06055 3.60547H0V2.60547H6.02734C6.22022 1.14654 7.4657 2.65799e-08 9 0ZM9 1C7.88825 1 7 1.90458 7 3C7 4.11175 7.90458 5 9 5C10.0765 5 10.9756 4.12634 10.999 2.99023C10.9937 1.88305 10.0922 1 9 1Z"
    fill="#7A859E" />
</svg>