<!--{
  "category": "Social"
}-->
<svg width="20" height="20" viewBox="0 0 20 20" fill="none" xmlns="http://www.w3.org/2000/svg">
  <path fill-rule="evenodd" clip-rule="evenodd"
    d="M8.78003 10.526C9.41609 9.90413 10.2288 9.09935 11.0317 8.27614C10.7233 8.47 10.4132 8.6655 10.1067 8.85926C9.08605 9.50453 8.11815 10.1219 7.4053 10.5781C7.04892 10.8061 6.7564 10.9938 6.55303 11.1244L5.89182 11.55C4.53888 11.1385 3.1717 10.7688 1.83638 10.2981L1.64072 10.2006C1.08988 9.83616 0.949924 9.21369 1.0146 8.7436C1.07026 8.33902 1.30923 7.83746 1.80534 7.60248C1.90673 7.5376 2.01598 7.48027 2.10454 7.43523C2.25553 7.35844 2.4433 7.27005 2.65763 7.17331C3.08751 6.97926 3.6537 6.73838 4.30774 6.4681C5.61744 5.92688 7.3047 5.25738 9.01302 4.58979C12.431 3.25411 15.9511 1.91915 16.7438 1.61907C17.2435 1.4299 17.8141 1.45497 18.2831 1.78219C18.7605 2.11535 19 2.66911 19 3.25213C19 3.52773 18.9461 3.93959 18.8765 4.3806C18.803 4.84576 18.6993 5.41804 18.5766 6.05286C18.3311 7.32366 18.0047 8.87132 17.6796 10.3662C17.3543 11.8622 17.0291 13.3106 16.7853 14.3847C16.6634 14.9218 16.5618 15.3655 16.4906 15.6751L16.3588 16.2332C16.1553 16.8791 15.6711 17.3401 15.0638 17.4683C14.4856 17.5903 13.9234 17.3534 13.4675 16.9581C12.6466 16.2462 11.7276 15.6511 10.8656 14.9949C10.5085 15.3179 10.0567 15.7542 9.56038 16.2791C9.36458 16.4862 9.17549 16.6582 8.98984 16.788C8.81184 16.9125 8.58341 17.0364 8.31557 17.0736C8.01208 17.1157 7.69621 17.0386 7.44201 16.8193C7.21872 16.6267 7.11796 16.3886 7.07092 16.2398C7.03366 16.1219 7.01915 15.9976 7.02822 15.8739L7.31672 11.937L7.60302 11.6646L7.66751 11.6029C7.7241 11.5488 7.80717 11.4692 7.9126 11.3677C8.12349 11.1647 8.42366 10.8744 8.78003 10.526ZM5.76059 10.5255L5.75683 10.5267C5.3197 10.3939 3.14589 9.76433 2.12763 9.40535C1.76607 9.16614 1.88121 8.55715 2.22891 8.44126C2.98768 7.83939 15.4703 3.10435 17.0541 2.50483C17.5528 2.31606 18.0932 2.56916 18.0932 3.25213C18.0932 4.75182 15.4971 15.9397 15.4971 15.9397C15.2807 16.6264 14.5622 16.6868 14.0791 16.2611C13.7575 15.9776 13.209 15.5742 12.5836 15.1142C12.0273 14.7051 11.4102 14.2512 10.838 13.7973C10.1279 14.3606 9.49596 15.0213 8.86191 15.6723C8.72421 15.8137 8.60608 15.9174 8.50474 15.9908C8.20845 16.2056 7.91522 16.1802 7.94616 15.7581L8.19368 12.3805L15.2346 4.95798C15.2346 4.95798 6.58117 9.99702 5.76059 10.5255Z"
    fill="#7A859E" />
</svg>