<!--{
  "category": "Action"
}-->
<svg xmlns="http://www.w3.org/2000/svg" width="15" height="16" fill="none"><path fill="#7A859E" fill-rule="evenodd" d="m1.825 1.828-1.687 4.9a2.585 2.585 0 0 0 .298 2.258c.81 1.212 2.312 1.379 3.703 1.417a44.095 44.095 0 0 0 .824.015l.176.004v.032a4.954 4.954 0 0 1-.353 1.705c-.388 1.106-.347 2.04.119 2.765A2.51 2.51 0 0 0 6.667 16c.311 0 .604-.05.865-.232.24-.167.448-.438.493-.733.017-.12.032-.24.047-.36.064-.511.129-1.03.358-1.493l1.447-2.92c.086-.186.612-.375 1.128-.53V10a1 1 0 0 0 1 .999H14a1 1 0 0 0 1-1V1a1 1 0 0 0-1-1h-2a1 1 0 0 0-.997.932A9.75 9.75 0 0 1 10.21.58C9.615.293 9.011.002 8.32 0H4.468C3.309-.002 2.205.718 1.825 1.828Zm4.314 8.615.02-.996-.996-.025-.48-.009c-.686-.01-1.326-.021-1.928-.138-.708-.138-1.187-.395-1.487-.845a1.585 1.585 0 0 1-.184-1.377l1.687-4.9v-.001c.23-.67.927-1.153 1.695-1.152h3.852c.42.002.818.172 1.433.468l.081.04c.32.154.717.345 1.167.476v6.707c-.139.04-.288.083-.436.13a6.56 6.56 0 0 0-.758.281 2.441 2.441 0 0 0-.384.216 1.346 1.346 0 0 0-.443.506l-1.444 2.914c-.313.633-.402 1.37-.464 1.878-.011.092-.021.176-.032.25a.275.275 0 0 1-.077.08c-.023.017-.073.046-.23.053a1.508 1.508 0 0 1-.989-.622c-.24-.377-.334-.958-.018-1.87.26-.659.4-1.357.415-2.064ZM12.001 1H14v9h-1.995L12 1Z" clip-rule="evenodd"/></svg>
