<svg width="32" height="26" viewBox="0 0 32 26" fill="none" xmlns="http://www.w3.org/2000/svg">
<path d="M18.9053 19.1494C19.1684 19.0391 19.4748 19.1545 19.5898 19.4072C19.7046 19.6601 19.5851 19.9548 19.3223 20.0654C18.3452 20.4753 17.2661 20.7031 16.1338 20.7031C15.0015 20.7031 13.9224 20.4753 12.9453 20.0654C12.6824 19.9548 12.563 19.6602 12.6777 19.4072C12.7928 19.1545 13.0992 19.0391 13.3623 19.1494C14.2105 19.5051 15.1475 19.7031 16.1338 19.7031C17.1201 19.7031 18.0571 19.5052 18.9053 19.1494Z" fill="#2F354D"/>
<path d="M7 7.82422C8.93269 7.82466 10.499 9.38592 10.499 11.3115C10.499 11.5946 10.2685 11.8242 9.98438 11.8242C9.70051 11.8239 9.46973 11.5944 9.46973 11.3115C9.46971 9.95202 8.36448 8.84908 7 8.84863C5.63515 8.84863 4.52834 9.95175 4.52832 11.3115C4.52832 11.5945 4.29768 11.8241 4.01367 11.8242C3.72956 11.8242 3.49902 11.5946 3.49902 11.3115C3.49904 9.38564 5.06693 7.82422 7 7.82422Z" fill="#2F354D"/>
<path d="M25.002 7.82422C26.9346 7.82466 28.501 9.38592 28.501 11.3115C28.501 11.5946 28.2704 11.8242 27.9863 11.8242C27.7025 11.8239 27.4717 11.5944 27.4717 11.3115C27.4717 9.95202 26.3664 8.84908 25.002 8.84863C23.6371 8.84863 22.5303 9.95175 22.5303 11.3115C22.5303 11.5945 22.2996 11.8241 22.0156 11.8242C21.7315 11.8242 21.501 11.5946 21.501 11.3115C21.501 9.38564 23.0689 7.82422 25.002 7.82422Z" fill="#2F354D"/>
<path fill-rule="evenodd" clip-rule="evenodd" d="M15.9775 0C20.1458 0.000115611 23.8503 1.59357 25.7314 4.03711C29.2542 4.40235 32.001 7.38066 32.001 11C32.001 13.4223 30.7703 15.5568 28.9004 16.8135C28.02 22.0583 22.5165 26 15.999 26C9.4808 25.9999 3.97598 22.0573 3.09668 16.8115C1.22843 15.5545 -0.000976562 13.421 -0.000976562 11C-0.000976562 7.39676 2.72152 4.42969 6.22168 4.04297L6.25488 3.99609L6.26562 3.97949L6.27734 3.96484C8.17426 1.56439 11.844 0 15.9775 0ZM15.9775 1.06348C12.4533 1.06348 9.40805 2.27004 7.63965 4.03027C11.2053 4.35384 13.999 7.35001 13.999 11C13.999 14.866 10.865 18 6.99902 18C6.02842 18 5.10399 17.8024 4.26367 17.4453C5.44795 21.7429 10.1965 25.0361 15.999 25.0361C21.8007 25.0361 26.5461 21.743 27.7314 17.4463C26.8923 17.8022 25.9699 18 25.001 18C21.135 18 18.001 14.866 18.001 11C18.001 7.36499 20.7717 4.37726 24.3164 4.0332C22.55 2.2736 19.5083 1.06358 15.9775 1.06348ZM6.99902 5C3.68531 5 0.999023 7.68629 0.999023 11C0.999023 14.3137 3.68531 17 6.99902 17C10.3127 17 12.999 14.3137 12.999 11C12.999 7.68629 10.3127 5 6.99902 5ZM25.001 5C21.6873 5 19.001 7.68629 19.001 11C19.001 14.3137 21.6873 17 25.001 17C28.3147 17 31.001 14.3137 31.001 11C31.001 7.68629 28.3147 5 25.001 5Z" fill="#2F354D"/>
</svg>
