<?xml version="1.0" encoding="utf-8"?><svg xmlns="http://www.w3.org/2000/svg" xmlns:xlink="http://www.w3.org/1999/xlink"><symbol fill="none" viewBox="0 0 220 158" id="0"><g clip-path="url(#aa)"><path d="M211 52.602c-44.285 35.603-74.638 34.6-103-3.51 22.889-40.117 52.212-45.25 103 3.51z" fill="#fff"/><ellipse cx="153" cy="49" rx="33" ry="36" fill="#E7EAF3"/><path d="M148.5 83.005c24-4.505 33.961-8.078 37.328-31.318-2.04-7.072-18.579-10.381-25.967-1.381-5.967 7.269-24.074-1.28-24.074-1.28-4.869-7.869-14.065-5.17-15.959-.849.937 16.66 5.052 24.969 28.672 34.828z" fill="#D2D6E7"/><path d="M149.948 18.692C168 20 182.178 29.312 212.132 51.848 191.498 15.167 172.514 3.001 157.469 3.5c-6.956 2.966-7.106 6.289-7.394 12.671-.036.792-.074 1.63-.127 2.521zm83.135 99.276a84.502 84.502 0 015.441 8.432l1.191 36.815c-20.513 2.514-48.263 3.724-79.756 4.189 0 0-118.51 1.746-122.202-10.919.416-1.05.884-2.218 1.391-3.486 3.084-7.704 7.65-19.107 11.063-30.136.47-1.518.919-3.029 1.339-4.525 2.06-6.208 3.831-12.452 3.654-20.045-.092-3.946-.651-5.727-1.87-7.11-1.5-1.7-3.385-2.096-7.792-3.025h-.001c-1.02-.215-2.177-.458-3.494-.753a158.876 158.876 0 01-7.444-2.167c-3.681-1.16-7.405-2.355-11.945-4.749-.405-.213-1.534-.704-3.053-1.356l-1.463-.626-.019-.008-.005-.002c-1.234-.528-2.634-1.126-4.102-1.762-4.2-1.818-8.927-3.924-11.87-5.51-.97-.522-1.418-1.302-1.43-1.928a1.21 1.21 0 01.291-.83c.205-.238.542-.456 1.06-.578 1.498-.354 3.448-.244 5.633.183 2.176.426 4.539 1.156 6.842 2.001 4.607 1.691 8.929 3.826 10.962 4.846a.5.5 0 10.45-.894c-2.038-1.022-6.403-3.178-11.065-4.89-2.332-.856-4.75-1.605-6.996-2.044-2.036-.398-3.971-.55-5.588-.27a1.76 1.76 0 01-.21-.132.868.868 0 01-.192-.201c-.05-.507.057-.885.253-1.179.254-.378.706-.69 1.374-.92 1.348-.463 3.355-.524 5.549-.351 4.366.342 9.176 1.576 10.16 1.906a178.77 178.77 0 0111.608 4.358.5.5 0 10.386-.923 179.721 179.721 0 00-11.674-4.383c-1.043-.35-5.84-1.578-10.255-1.943l.108-.183c.192-.327.375-.64.611-.923 1.185-.71 2.703-.91 4.383-.81 2.222.133 4.59.78 6.586 1.325l.002.001c.31.085.61.167.899.244 1.503.402 2.427.768 4.1 1.431.84.333 1.87.741 3.256 1.267 1.383.522 3.408 1.286 5.893 2.206a.5.5 0 10.349-.938 874.917 874.917 0 01-5.886-2.203c-1.334-.505-2.345-.906-3.183-1.238-1.716-.68-2.71-1.074-4.27-1.491-.28-.075-.575-.156-.881-.24-1.7-.465-3.764-1.03-5.787-1.27 1.344-.494 3.754-1.231 6.39-1.288 4.853 1.136 8.573 2.416 11.891 3.558 4.763 1.639 8.695 2.992 13.957 3.22 0 0 1.719.075 1.87-.495.702-2.632-2.6-5.774-5.619-8.646-1.896-1.804-3.68-3.502-4.29-4.9-.627-1.438-2.005-6.504 2.005-5.503 1.639.361 3.116 1.822 3.644 2.344.086.085.147.145.179.171 2.311 1.898 4.598 3.433 6.846 4.943 4.924 3.305 9.663 6.487 14.07 13.079.724 1.081 1.273 2.007 1.888 3.044a99.985 99.985 0 004.065 6.38c.45.654.826 1.19 1.157 1.66v.002l.003.003v.001c.888 1.263 1.45 2.063 2.24 3.46.822 1.451 2.647 4.722 3.572 8.597.613 2.561.55 4.212.368 9.025l-.028.73c-.186 4.939-.284 8.355-.36 10.965-.148 5.128-.206 7.151-.66 11.521a189.86 189.86 0 01-.85 6.944 60.557 60.557 0 0110.203-16.699c2.609-3.032 8.122-8.841 16.836-13.723 1.51-.847 7.445-4.09 15.815-6.283 6.443-1.688 12.137-2.18 15.815-2.48 2.506-.205 4.613-.291 6.122-.33l-.51-4.134c.142-.034.392-.098.737-.187 1.11-.286 3.197-.823 5.795-1.396-.738-2.2-.575-4.306.237-7.503 19.241 2.971 34.133-5.56 62.759-23.466-15.292 18.498-26.039 27.754-37.429 31.872.049.084.095.17.138.257 0 0 .243 3.151.413 4.887 6.945 0 11.611.867 16.985 1.866 1.667.31 3.401.632 5.293.945 4.603 1.243 10.424 2.862 17.005 6.944 5.044 3.128 8.479 6.428 10.544 8.432 4.21 4.089 6.913 7.751 8.503 9.92z" fill="#FFCB47"/><path d="M147.931 61.473c6.638 0 12.02-6.716 12.02-15 0-8.285-5.382-15-12.02-15s-12.019 6.715-12.019 15c0 8.284 5.381 15 12.019 15z" fill="#505573"/><path fill-rule="evenodd" clip-rule="evenodd" d="M212.022 51.94c-8.576-16.316-19.285-33.919-35.669-43.41-11.594-6.718-22.511-6.536-32.104-2.602-9.57 3.923-17.798 11.566-24.099 19.74-5.287 6.859-9.941 14.644-12.565 22.942a.98.98 0 00.057.732c7.315 14.793 17.933 29.784 33.709 36.308v3.538a87.983 87.983 0 00-5.146.275c-3.678.3-9.403.793-15.885 2.488-8.419 2.201-14.39 5.458-15.916 6.312-8.773 4.907-14.325 10.744-16.953 13.794-4.247 4.927-7.232 9.482-9.194 13.395l.108-.967c.95-8.556 1.622-17.2 1.713-24.327.046-3.564-.053-6.758-.337-9.378-.282-2.602-.751-4.7-1.484-6.024-2.132-3.857-3.454-5.789-5.328-8.513l-.08-.116c-1.857-2.7-4.274-6.214-8.564-13.151l-.021-.035-.027-.03c-2.433-2.802-5.457-5.162-8.593-7.334a200.936 200.936 0 00-4.502-2.999l-.243-.159c-1.562-1.02-3.096-2.025-4.552-3.049-2.121-2.201-3.834-3.338-5.156-3.633-.68-.152-1.293-.088-1.793.214-.496.3-.808.792-.974 1.355-.326 1.105-.136 2.612.446 4.113a11.57 11.57 0 003.025 4.37c3.641 3.258 5.45 5.582 6.273 7.53.238.562.117 1.092-.21 1.48-.335.397-.897.654-1.545.596-3.862-.345-8.899-1.794-16.415-4.321-2.529-.85-5.31-1.78-8.008-2.089-2.423-.276-4.828-.057-6.952 1.203.592.057 1.19.145 1.784.253 1.555-.578 3.264-.667 5.055-.462 2.573.294 5.253 1.186 7.802 2.043 7.502 2.522 12.647 4.012 16.644 4.37.966.086 1.85-.296 2.4-.948.557-.66.76-1.587.368-2.515-.912-2.154-2.854-4.598-6.527-7.885a10.571 10.571 0 01-2.76-3.987c-.542-1.398-.657-2.66-.419-3.468.117-.395.305-.645.532-.782.225-.136.559-.205 1.056-.094 1.026.229 2.577 1.19 4.685 3.384l.033.035.04.028c1.484 1.045 3.045 2.068 4.62 3.096l.24.158c1.498.978 3.006 1.962 4.483 2.985 3.1 2.147 6.033 4.442 8.38 7.137 4.29 6.934 6.711 10.455 8.57 13.158l.08.115c1.866 2.714 3.167 4.615 5.277 8.43.63 1.14 1.085 3.066 1.364 5.649.278 2.564.377 5.715.331 9.257-.09 7.083-.757 15.691-1.706 24.23-.949 8.537-2.178 16.995-3.39 23.772-.605 3.39-1.206 6.355-1.765 8.698-.562 2.358-1.072 4.044-1.487 4.906l.903.434c.468-.971.998-2.756 1.559-5.109.564-2.367 1.169-5.353 1.777-8.753 1.015-5.679 2.042-12.528 2.906-19.615 1.777-4.363 5.058-9.874 10.337-15.999 2.584-2.998 8.047-8.744 16.683-13.574 1.491-.834 7.378-4.046 15.681-6.217 6.392-1.671 12.042-2.158 15.713-2.458a90.26 90.26 0 015.578-.285l.488-.013v-4.113a39.993 39.993 0 0013.448 2.676c5.824.14 11.776-.977 17.77-3.332l.019.252.103 1.271c.082 1.002.185 2.224.271 3.094l.044.451h.454c13.129 0 27.758 2.705 38.978 9.652 10.246 6.343 18.384 16.072 24.291 26.528l.931-.319a257.917 257.917 0 01-1.356-10.531l-.996.107c.214 1.989.533 4.729.993 8.022-5.841-9.707-13.644-18.658-23.335-24.657-11.302-6.998-25.928-9.739-39.05-9.8a262.382 262.382 0 01-.329-3.896l-.04-.515-.001-.002-.153.011c15.483-6.37 27.564-18.964 37.538-32.057a.992.992 0 00.089-1.064zm-81.714-26.894a45.97 45.97 0 00-3.874 2.826c-3.61 5.709-5.726 12.63-5.726 20.093 0 5.678 1.225 11.041 3.399 15.796 11.246 8.872 21.677 12.576 32.587 12.242 6.803-.208 13.815-1.984 21.352-5.087 4.822-6.182 7.734-14.193 7.734-22.95 0-5.764-1.261-11.204-3.498-16.012l.055-.025a161.04 161.04 0 00-3.189-1.932c-9.661-5.7-18.26-9.284-26.244-10.272-7.966-.985-15.346.61-22.596 5.321zm-20.431 20.17c5.321-7.78 10.533-13.727 15.798-18.017l.032-.05.017.01a47.09 47.09 0 014.038-2.951c7.447-4.84 15.064-6.49 23.265-5.475 8.181 1.012 16.918 4.673 26.631 10.403 9.226 5.442 19.365 12.77 30.779 21.518-11.864-22.11-23.583-34.885-34.586-41.26-11.31-6.552-21.9-6.363-31.222-2.541-9.347 3.832-17.444 11.33-23.685 19.425-5.008 6.496-8.797 13.347-11.067 18.938zm9.83 2.75c0-6.596 1.611-12.785 4.431-18.126-4.98 4.51-9.964 10.586-15.09 18.417a.992.992 0 00.093 1.208c4.607 5.105 9.018 9.402 13.304 12.952-1.762-4.433-2.738-9.319-2.738-14.452zm-9.568 4.07c4.535 4.877 8.898 8.98 13.158 12.36l.001.002h.001c11.45 9.083 22.154 12.95 33.426 12.605 6.879-.21 13.946-1.99 21.498-5.079l.45-.185c9.416-3.906 19.59-9.828 31.092-17.264-17.714 22.532-36.524 33.67-53.939 33.25-17.19-.413-33.231-12.097-45.687-35.688zm99.993 1.232c-11.161 7.227-21.206 12.939-30.268 16.878 4.341-6.147 6.918-13.839 6.918-22.18 0-5.4-1.08-10.529-3.02-15.141 7.966 5.054 16.833 11.462 26.433 18.816a.996.996 0 01-.063 1.627z" fill="#505573"/><path d="M15.275 61.219c-.205-.024-.41-.044-.613-.06l.237.32c.124-.091.25-.178.376-.26zm142.44-57.594c-4.853 3.51-7.01 9.449-7.819 14.848C133.351 19.446 126.192 25 108.665 47c7.511-18 24.516-43.375 49.05-43.375z" fill="#505573"/><path d="M154.632 89.987h.001v-.003c.043-.502.087-1.025.123-1.591a15.4 15.4 0 00-1.961-.429c-.552-.091-1.15-.19-2.145-.448-2.735-3.6-1.566-11.27-1.566-11.27-17.148-3.745-24.281-10.628-39.918-25.746 8.647 18.913 20.952 30.52 33.446 35.1-.32.03-.585.113-.791.26-.459.327-.753 1.235 0 3.797-8.539-.21-19.815.85-31.474 5.944-6.68 2.917-11.174 6.142-12.69 7.265-3.165 2.342-14.23 10.74-20.137 25.261l-6.34 33.697-9.975-1.006c.32-2.105.908-5.426 1.635-9.533 3.343-18.884 9.629-54.394 6.389-64.765-4.308-13.787-27.845-32.594-27.26-30.937.63.572 1.41 1.324 2.386 2.374.904.972 1.17 1.331 1.41 1.657.227.306.432.583 1.128 1.315.238.25 2.57 4.48.973 4.98-2.603.809-6.473-.522-8.327-1.273-1.11-.45-5.487-1.842-9.338-2.97a54.203 54.203 0 01-2.309-.752c-2.538-.87-5.207-1.783-8.073-1.471a28.056 28.056 0 00-4.245.802c1.985.248 4 .8 5.667 1.257.306.083.6.164.88.239 1.558.417 2.55.81 4.263 1.49.837.333 1.847.733 3.178 1.239 1.38.522 3.4 1.284 5.878 2.203a.5.5 0 11-.348.938 874.42 874.42 0 01-5.884-2.206 208.51 208.51 0 01-3.253-1.267c-1.67-.663-2.592-1.03-4.093-1.431-.289-.077-.589-.16-.897-.244h-.003c-1.993-.546-4.358-1.193-6.576-1.325-2.327-.139-4.342.296-5.59 1.877l.35.026c4.448.35 9.332 1.601 10.385 1.956a179.259 179.259 0 0111.657 4.382.5.5 0 11-.385.923 178.33 178.33 0 00-11.592-4.358c-.982-.33-5.785-1.564-10.144-1.906-2.191-.173-4.196-.112-5.541.352-.667.23-1.118.54-1.372.919-.243.364-.35.859-.187 1.567l.002.01c1.678-.365 3.738-.22 5.914.205 2.243.44 4.657 1.188 6.985 2.044 4.656 1.712 9.013 3.868 11.05 4.89a.5.5 0 11-.45.894c-2.03-1.02-6.346-3.155-10.946-4.846-2.3-.845-4.66-1.575-6.832-2-2.182-.428-4.129-.538-5.625-.184-.517.122-.854.34-1.058.579a1.21 1.21 0 00-.292.83c.013.625.46 1.405 1.429 1.928 2.939 1.585 7.659 3.691 11.852 5.51 1.466.635 2.865 1.233 4.097 1.761l.005.002.019.008 1.46.626c1.517.652 2.644 1.143 3.049 1.356 4.533 2.394 8.252 3.589 11.927 4.749 6.436 2.031 10.161 2.87 12.533 3.378l.572.122c1.96.415 3.012.638 4.044 1.348l.017.012.017.014c2.397 1.974 3.238 5.156 3.11 8.13-.015.34-.031.673-.049 1.002a37.3 37.3 0 01-.171 3.639c-.184 1.993-.511 4.133-.951 6.375-.531 3.006-1.03 4.67-1.03 4.67l-.044.148a158.54 158.54 0 01-2.462 8.787c-3.41 11.029-7.967 22.432-11.047 30.136l-.142.356c-.978 2.604-1.807 4.746-2.279 5.769 8.202 4.561 44.02 13.385 74.184 1.694 5.518-2.138 9.794-3.796 14.045-7.925 7.77-7.55 9.409-17.488 10.94-26.774 1.537-9.323 2.966-17.989 10.38-22.923 3.537-2.355 7.224-3.051 9.476-3.302-1.471-5.134-1.292-7.238-1.064-9.907z" fill="#505573"/><path d="M80.729 51.917L56.982 46.91 89.958 30.4l-9.23 21.518z" fill="#E7EAF3"/><path d="M78.474 47.433L58.804 6.62l28.908 18.97-9.238 21.843zM90.231 30.51L80.5 52.5l8.897 15.4.834-37.39z" fill="#E7EAF3"/><path fill-rule="evenodd" clip-rule="evenodd" d="M58.335 5.103c-.478 6.233-1.122 12.45-1.784 18.667v.004c-.63 5.922-1.262 11.853-1.72 17.834l-.033.428 7.119 1.624-1.774.882a510.447 510.447 0 00-4.348 2.189l33.596 22.372 1.407-39.51-5.144 2.522a807.426 807.426 0 012.782-6.75l-30.1-20.262zm26.753 28.404c-.388.957-.775 1.91-1.16 2.863l-.047.114a1009.451 1009.451 0 01-4.405 10.754l-.163.39-15.882-3.623-5.14 2.589L80.6 51.276l8.657-19.814-4.17 2.045zm-2.14 2.605c-1.297 3.201-2.593 6.4-3.975 9.72L60.055 7.469l27.137 18.267a1042.18 1042.18 0 00-4.197 10.26l-.048.117zm-1.496 15.725l8.216-18.804-1.18 33.135-7.036-14.331z" fill="#505573"/><path d="M21.476 34.459L16 15.593l23.448 17.048-17.972 1.818z" fill="#E7EAF3"/><path d="M24 31c6.433-12.25 11.41-19.21 21-30l-2.93 28L24 31zm16.533 1.93l-19.212 1.498-7.788 11.502 27-13z" fill="#E7EAF3"/><path fill-rule="evenodd" clip-rule="evenodd" d="M45.49.377l-2.77 29.327a407.15 407.15 0 00-5.326.62l3.577 2.544-28.48 14.51 2.926-32.706a443.46 443.46 0 013.55 2.47l-1.404-5.017c4.533-2.08 9.156-3.941 13.784-5.79l.006-.003c4.749-1.899 9.485-3.82 14.137-5.955zM33.012 30.874c.965-.122 1.93-.245 2.896-.366l2.682 1.908-16.777 1.561-5.084-17.162 2.67 1.868 3.744 13.378c3.272-.357 6.539-.765 9.804-1.179l.065-.008zm-8.443.007l6.913-9.79L44.234 3.03 41.8 28.783c-3.008.333-5.961.708-8.91 1.082l-.068.008c-2.739.348-5.475.694-8.254 1.008zm-2.843 4.125l15.679-1.459-22.764 11.597 7.085-10.138z" fill="#505573"/><path fill-rule="evenodd" clip-rule="evenodd" d="M140.041 95.296a.504.504 0 01.657-.256c6.389 2.688 11.208 3.99 15.826 3.98 4.614-.008 9.079-1.326 14.761-3.973a.505.505 0 01.667.232.486.486 0 01-.237.652c-5.746 2.677-10.366 4.059-15.189 4.069-4.818.009-9.784-1.351-16.223-4.061a.485.485 0 01-.262-.643z" fill="#FFCB47"/><path fill-rule="evenodd" clip-rule="evenodd" d="M171.951 95.28a.485.485 0 01-.236.651c-6.162 2.871-11.027 4.251-16.235 4.05a.494.494 0 01-.48-.509.496.496 0 01.52-.47c4.979.194 9.674-1.117 15.765-3.954a.504.504 0 01.666.231z" fill="#505573"/><path fill-rule="evenodd" clip-rule="evenodd" d="M67.668 92.492c-.725 1.142-1.451 2.78-2.199 4.842a.497.497 0 01-.642.302.514.514 0 01-.296-.656c.756-2.086 1.513-3.806 2.298-5.044.77-1.214 1.642-2.086 2.671-2.243 1.07-.163 2.067.472 3.001 1.648.943 1.187 1.92 3.042 2.961 5.621a.515.515 0 01-.271.667.496.496 0 01-.653-.277c-1.03-2.55-1.963-4.297-2.813-5.368-.86-1.082-1.54-1.362-2.077-1.28-.577.088-1.24.62-1.98 1.788z" fill="#FFCB47"/><path fill-rule="evenodd" clip-rule="evenodd" d="M69.667 90.115a.5.5 0 01.585-.405c.915.179 1.767.92 2.592 2.089.835 1.183 1.7 2.89 2.619 5.163a.515.515 0 01-.272.667.496.496 0 01-.653-.277c-.905-2.242-1.737-3.866-2.506-4.956-.78-1.105-1.437-1.58-1.968-1.683a.51.51 0 01-.397-.597z" fill="#505573"/></g><defs><clipPath id="aa"><path fill="#fff" d="M0 0h220v158H0z"/></clipPath></defs></symbol></svg>