<?xml version="1.0" encoding="utf-8"?><svg xmlns="http://www.w3.org/2000/svg" xmlns:xlink="http://www.w3.org/1999/xlink"><symbol fill="none" viewBox="0 0 128 98" id="0"><path d="M0 12A12 12 0 0112 0h98a12 12 0 0112 12v54a12 12 0 01-12 12H12A12 12 0 010 66V12z" fill="var(--athens,#F7F8FB)"/><path fill-rule="evenodd" clip-rule="evenodd" d="M107 82.2h9c5.8 0 10.5-4.7 10.5-10.5V16c0-5.8-4.7-10.5-10.5-10.5H16C10.2 5.5 5.5 10.2 5.5 16v55.7c0 5.8 4.7 10.5 10.5 10.5h64.6c3 0 5.8 1 8.1 2.7l14.1 10.6 4.3-13.3zM103.7 98L87.8 86.1a12 12 0 00-7.2-2.4H16a12 12 0 01-12-12V16A12 12 0 0116 4h100a12 12 0 0112 12v55.7a12 12 0 01-12 12h-7.8L103.6 98z" fill="var(--waterloo,#7A859E)"/><path fill-rule="evenodd" clip-rule="evenodd" d="M41 46a3 3 0 11-6 0 3 3 0 016 0zm28 0a3 3 0 11-6 0 3 3 0 016 0zm25 3a3 3 0 100-6 3 3 0 000 6z" fill="var(--waterloo,#7A859E)"/></symbol></svg>