<?xml version="1.0" encoding="utf-8"?><svg xmlns="http://www.w3.org/2000/svg" xmlns:xlink="http://www.w3.org/1999/xlink"><symbol fill="none" viewBox="0 0 40 40" id="0"><rect width="40" height="40" rx="6" fill="#EDF8F5"/><path fill-rule="evenodd" clip-rule="evenodd" d="M28.6 13.397c-.523 2.78-4.018 3.188-5.445 6.496-2.308 5.349 6.812 5.046 5.147 7.555-2.766 4.166-15.873-.555-17.162-6.665-.67-3.18 1.147-5.17 3.711-7.079 4.12-3.07 14.704-5.386 13.75-.307z" fill="#B0EBDB"/><path fill-rule="evenodd" clip-rule="evenodd" d="M21.429 9.42l1.215-2.403c.475.075.932.24 1.347.481l-.571 2.663-1.991-.74zm-.454.899l-2.535 5.015c-.358.707-.63 1.454-.813 2.225l-2.207 9.35 1.571.599 4.238-8.597c.367-.749.643-1.536.818-2.348l1.16-5.414-2.232-.83zm3.18 1.182l-1.13 5.272a11.177 11.177 0 01-.899 2.579l-4.39 8.906v2.14a.742.742 0 01-.349.631l-.003.002a9.932 9.932 0 00-2.73 2.48l-.679-.195.128.097.4.3c-.383.51-1.225.238-1.193-.428l.005-.124v-.004a11.127 11.127 0 00-.508-3.85.761.761 0 01.154-.747l.004-.004 1.41-1.576 2.279-9.652c.201-.845.5-1.666.893-2.445l4.261-8.43V6.45a.828.828 0 01.825-.447l.015.002.015.002.02.004a4.883 4.883 0 011.954.709.81.81 0 01.36.855v.002l-.63 2.935 1.213.451a1.417 1.417 0 01.838 1.821v.002l-3.584 9.633a.5.5 0 01-.937-.348l3.583-9.633a.417.417 0 00-.244-.536l-.003-.001-1.078-.401zM14.103 33.413l.4.3.151-.201-.55-.1zm2.634-4.928l-1.762-.675-1.177 1.314a12.15 12.15 0 01.523 3.21 10.954 10.954 0 012.416-2.078v-1.77z" fill="#393F56"/></symbol></svg>