<?xml version="1.0" encoding="utf-8"?><svg xmlns="http://www.w3.org/2000/svg" xmlns:xlink="http://www.w3.org/1999/xlink"><symbol fill="none" viewBox="0 0 461 227" id="0"><path d="M344.6 184.4C-31.7 250-84.4 37 128.6 42c18.3 1.7 37.1.3 54-5C362-19 461 40 429.2 125.3c-10.8 29-45.5 49.2-84.5 59.1z" fill="var(--athens,#F7F8FB)"/><path d="M189 84.5a17.5 17.5 0 11-35 0 17.5 17.5 0 0135 0z" fill="var(--whale,#FCFDFE)"/><path fill-rule="evenodd" clip-rule="evenodd" d="M174 100.8l-2.5.2a16.5 16.5 0 01-4.7-32.3c18.7 2 14.6 28 7.3 32.1zm15-16.3a17.5 17.5 0 11-35 0 17.5 17.5 0 0135 0z" fill="var(--mystic,#D2D6E7)"/><path d="M118 49a30 30 0 11-60 0 30 30 0 0160 0z" fill="var(--whale,#FCFDFE)"/><path fill-rule="evenodd" clip-rule="evenodd" d="M118 49a30 30 0 11-60 0 30 30 0 0160 0zM96.3 76.8a29 29 0 01-17-55.5c32.2 3 36.8 40.5 17 55.5z" fill="var(--mystic,#D2D6E7)"/><path d="M348 118.9l-.8.1c-.2-1.7-.7-3-1.2-4.7 6-1.1 52.8-6.4 29.6 4.2 0 0-.9-.5-1.6-.2 0-.2-.4-.7-.8-.9-.3-.2-.8-.4-1.5-.5-1.3-.3-3.2-.4-5.5-.3-4.6.2-10.8 1-18.2 2.3zm-152 29.6l10-2.7V141c-14 3.3-14.5 4-25.3 9-2 2.5.5 2.8 6 3l1-.6c.3-.3.9-.8 1.8-1.3a31 31 0 016.4-2.6z" fill="var(--mystic,#D2D6E7)"/><path d="M355 147a75 75 0 11-150 0 75 75 0 01150 0z" fill="var(--whale,#FCFDFE)"/><path d="M273 222c61.7-32.3 50.4-142-14-147.4a77.5 77.5 0 0145 1.4 75 75 0 0150 83c-5 27.5-28 64.8-81 63z" fill="var(--mystic,#D2D6E7)"/><path d="M284.4 162.5c95.4-17.7 173-43.5 170.5-56.4-1.7-9.7-50-8.9-112.1-1l5.6 9.8c44.1-6 46 .2-2.5 11.5a1160 1160 0 01-141.5 25.1c-25.5 3.6-38.4-.5 1.9-10.5l.2-10.5C78 162 88.5 183 162.4 178.4c31-.7 91.3-10.2 122-15.9z" fill="var(--whale,#FCFDFE)"/><path fill-rule="evenodd" clip-rule="evenodd" d="M279.5 72a74.5 74.5 0 00-74.3 79.9h-1l-.2-5.4a75.5 75.5 0 01147.8-21.8l-1 .3a74.5 74.5 0 00-71.3-53zm0 149c41 0 74.2-33 74.5-74h1a75.5 75.5 0 01-146 26.8l1-.4a74.5 74.5 0 0069.5 47.6z" fill="var(--mystic,#D2D6E7)"/><path d="M421.4 99c-20-.1-47.8 2-80.2 6.2l-1.2.2-.1-1 1.2-.2c32.4-4.2 60.3-6.3 80.3-6.2 10 0 18.1.7 23.8 2 2.8.6 5.1 1.4 6.8 2.4 1.6 1 2.7 2.2 3 3.6.3 1.9-.8 3.9-2.8 5.9-2.1 2-5.3 4.1-9.4 6.4-8.3 4.5-20.5 9.4-35.8 14.5a959.3 959.3 0 01-121.3 29.8c-48 9-92 14.4-124.2 16a236 236 0 01-38.7-.7 45 45 0 01-11-2.5c-2.7-1.2-4.4-2.6-4.7-4.5-.3-1.4.2-2.9 1.3-4.3 1-1.5 2.7-3 5-4.6 4.4-3.1 11.2-6.5 20-10a560 560 0 0172.9-22.3v1a557.8 557.8 0 00-72.6 22.2 97.9 97.9 0 00-19.7 10 21 21 0 00-4.8 4.3 5 5 0 00-1.2 3.5c.3 1.4 1.6 2.6 4.2 3.7 2.5 1.1 6.1 2 10.8 2.5 9.2 1.2 22.4 1.4 38.5.6 32.2-1.5 76-7 124-15.9s90.7-19.6 121.2-29.8c15.3-5 27.4-10 35.6-14.4 4.1-2.2 7.2-4.3 9.2-6.2 2-2 2.7-3.6 2.5-5-.2-1-1-2-2.5-3a27 27 0 00-6.5-2.2c-5.6-1.3-13.6-2-23.6-2z" fill="var(--mystic,#D2D6E7)"/><path fill-rule="evenodd" clip-rule="evenodd" d="M403.1 104c-14.8.2-35.7 2-60.2 5.2l-.1-1c24.5-3.2 45.4-5 60.3-5.2 7.5 0 13.4.2 17.6 1 2.1.3 3.8.8 5 1.4 1.2.6 2 1.3 2.3 2.3a3 3 0 01-.6 2.2c-.4.7-1.1 1.4-2 2a42 42 0 01-8.1 4.7c-7.1 3.3-17.6 7-30.6 11-26.1 7.8-62.5 16.3-103.1 23.8a964.5 964.5 0 01-114 15.2c-11 .6-19.8.6-26 0a31 31 0 01-7.4-1.6c-1.7-.6-3-1.5-3.2-2.7-.1-1 .3-2 1-3 .9-1 2-2 3.7-3 3.2-2 8.1-4.3 14.4-6.7a474.7 474.7 0 0153.3-15.8v1a499 499 0 00-53 15.7c-6.2 2.5-11 4.7-14.2 6.7a15 15 0 00-3.4 2.8c-.7.8-.9 1.5-.8 2 .2.8.9 1.5 2.6 2.1 1.6.6 4 1.1 7 1.4 6.2.6 15 .7 26 0a962 962 0 00113.8-15 1031 1031 0 00103-24c13-3.8 23.4-7.5 30.5-10.8a41 41 0 007.9-4.5c.8-.7 1.4-1.3 1.8-1.9.4-.5.4-1 .4-1.4-.1-.5-.6-1.1-1.7-1.6-1.1-.6-2.7-1-4.7-1.4-4.1-.7-10-1-17.5-.9z" fill="var(--mystic,#D2D6E7)"/><path d="M371.6 113c-6 .2-14.8.9-25.5 2.1v-1c10.6-1.2 19.4-2 25.5-2a47.5 47.5 0 019.3.7c.5.2 1 .5 1 1 .2.6 0 1-.4 1.4l-1.5 1a38 38 0 01-5.7 2.6c-5 1.9-12.2 4-21.1 6.4-18 4.7-43 10.2-70.7 15.3-27.8 5.1-53 9-71.5 11-9.2 1-16.8 1.5-22 1.5-2.7 0-4.8 0-6.2-.3l-1.8-.5c-.5-.3-.9-.6-1-1 0-.5.1-1 .4-1.3l1.2-1.1a26 26 0 014.7-2.4 154 154 0 0118.5-6l-.1 1c-8 2.2-14 4.2-18 5.9-2 .9-3.6 1.6-4.5 2.3a3 3 0 00-1 .9l-.2.4s0 .2.4.3c.3.2.8.4 1.5.5 1.4.2 3.4.3 6 .3 5.3 0 12.8-.6 22-1.6 18.4-2 43.7-5.8 71.4-10.9a955 955 0 0070.6-15.3c9-2.3 16.2-4.5 21-6.3a37 37 0 006.9-3.4l.2-.4s0-.2-.5-.4a46.6 46.6 0 00-8.9-.7z" fill="var(--mystic,#D2D6E7)"/><path fill-rule="evenodd" clip-rule="evenodd" d="M69 108v30l-13-10.2L69 108zm-12 25l12 9v10l-12-19z" fill="var(--whale,#FCFDFE)"/><path fill-rule="evenodd" clip-rule="evenodd" d="M83 128l-14.1-21c-4.8 6.7-9.1 13.8-13.9 20.5l13.8 10.8A4698.7 4698.7 0 0183 128zm-14.7 8.6l-11.9-9.3c4.1-5.8 7.8-12 12-17.8v27.1z" fill="var(--mystic,#D2D6E7)"/><path fill-rule="evenodd" clip-rule="evenodd" d="M68.8 153l13.5-22-13.5 10-13.7-10 13.7 22zm-10-18l9.5 7v8.2L58.8 135z" fill="var(--mystic,#D2D6E7)"/><path fill-rule="evenodd" clip-rule="evenodd" d="M350.5 6l.5 38-17-12.7L350.5 6zM336 39l15 11v13l-15-24z" fill="var(--whale,#FCFDFE)"/><path fill-rule="evenodd" clip-rule="evenodd" d="M369 31.8L350.8 5c-6.2 8.6-11.6 17.6-17.8 26.2l17.8 13.9L369 31.8zm-18.7 11.6l-16-12.4c5.6-7.7 10.5-15.8 16-23.6v36z" fill="var(--mystic,#D2D6E7)"/><path fill-rule="evenodd" clip-rule="evenodd" d="M350.8 64l17-27.6-17 12.7-17.3-12.7L350.8 64zm-13.7-23.7l13.2 9.7v11.3l-13.2-21z" fill="var(--mystic,#D2D6E7)"/></symbol></svg>