<svg width="280" height="241" fill="none" xmlns="http://www.w3.org/2000/svg"><g clip-path="url(#a)"><path d="M81.807 84.412c-37.751 24.789-61.273 24.006-74.78 49.896-2.193 4.207-9.858 18.895-5.92 34.927 6.58 26.803 40.952 38.491 58.89 44.594 6.016 2.045 126.639 41.191 190.688-29.314 7.786-8.572 28.451-32.005 29.289-66.423.769-31.684-15.414-66.358-46.426-83.887-40.665-22.986-83.542-3.33-92.852.936-28.469 13.047-21.109 24.464-58.889 49.271Z" fill="#1C1F31"/><path d="M73.905 231.004c-33.855-12.347-42.233-42.506-39.112-62.042l35.572-12.659 7.021 9.377.153-.321c5.757-12.11 8.481-17.843 18.172-30.231 9.776-12.497 15.713-18.692 30.047-28.641 0 0 46.928-.611 76.601-.977l24.443 17.967c25.928 32.282 29.456 74.304 10.422 109.469l-55.928.25-78.315-20.396c-10.917 8.678-16.43 12.245-29.076 18.204Z" fill="#68DBF4"/><path d="m155.4 177.091-2.497 23.912-48.678 6.876-4.392-31.488c19.777-6.878 31.819-6.509 55.567.7Z" fill="#26C953"/><path d="M127.316 165.212c4.906-17.928 4.929-29.544 31.828-34.852 3.432 18.442-10.141 33.445-31.828 34.852Z" fill="#5275FF"/><path d="M117.33 148.177c-18.021-4.414-24.766-11.592-28.886-33.68 7.83.35 12.168 1.838 19.525 4.767l19.815 20.786c1.977 5.622 1.951 8.417 2.028 13.44l-2.808 11.409c-1.094-8.008-3.768-11.964-9.674-16.722Z" fill="#5275FF"/><path d="M219.99 57.045c0 17.123-7.896 32.053-19.659 42.51-.156 1.25 2.185 3.75 2.185 5.313-9.204 6.997-24.731 13.441-37.134 13.441-14.312 0-27.012-7.742-37.289-17.66-11.996-11.58-20.022-23.775-20.507-43.92C107.588 24.857 132.802 0 163.822 0c31.021 0 56.168 25.54 56.168 57.045Z" fill="#1C1F31"/><path d="m63.19 136.732 7.02 19.26c-5.929 20.63-24.65 22.937-36.976 10.903l1.56-24.693-4.057-3.438-2.028-2.501-1.56-2.5-1.248-2.97-2.653-10.471-2.652-11.409-2.184-5.157-4.057-9.378-1.56-4.532-.312-3.282c-.002-5.001 1.09-7.029 5.305-4.689l2.185 5.47 2.808 4.689 1.248 2.344 1.56 4.376 3.433 4.22-.78-4.845-2.652-8.283-2.185-7.19-2.652-10.158c1.68-4.337 3.32-4.894 7.02-3.438l3.59 11.409 3.12 7.344 4.524 8.91s-2.63-9.158-4.056-16.254l-1.872-12.504c1.926-3.793 3.679-4.072 7.489-2.5l3.588 13.284 1.56 4.845.78 4.22c1.052 5.891 1.78 8.34 4.525 11.408L49.149 67.34c3.037-2.95 4.951-2.901 8.581-.313l2.808 33.602 2.653 8.908.936-3.125c.492-3.62 4.899-11.507 6.553-12.503 3.778-1.339 8.269 2.97 5.929 6.72-2.34 3.752-3.876 11.623-2.704 12.896l-2.423 3.641-8.291 19.566ZM146.115 231.975l32.995 3.411c6.709-10.315 10.453-24.537-2.341-40.791-8.803 4.231-15.638 5.704-28.473 7.525-6.024-5.137-13.439-5.797-28.318-6.9l-14.666 11.722-3.542 1.732c-1.717 5.157-1.051 6.375.244 9.223-2.015.57-3.061 7.44.334 10.3-.176 3.45.537 4.919 2.497 7.189-.527 1.772-.189 2.863 1.248 4.845 15.424 2.181 24.251-.186 40.022-8.256Z" fill="#5275FF"/><path d="m202.67 105.666-2.497-5.158c11.516-12.219 18.393-23.877 19.362-42.324-19.191 24.068-46.196 16.537-93.472 8.254 0 0-10.646.158-15.326 9.222 2.698 9.791 7.527 15.474 17.354 26.099l-2.028 5.001c37.792 17.478 53.326 14.432 76.607-1.094Z" fill="#26C953"/><path d="m105.625 111.598 5.616-3.907c5.149-1.093 24.34 19.849 23.404 28.601l-5.773 4.219c-9.05-3.907-23.871-21.254-23.247-28.913Z" fill="#FFCB47"/><path d="M63.716 106.202c.032.624.094 3.296-1.87 5.613-2.473 2.919-6.094 2.826-6.542 2.807" stroke="#1C1F31" stroke-width=".97" stroke-miterlimit="10" stroke-linecap="round"/><path d="m63.091 109.632-2.804-9.043-2.804-33.68c-.221-.252-1.67-1.858-4.05-1.87-2.655-.016-4.198 1.96-4.363 2.182a1367.474 1367.474 0 0 1 1.87 31.808 6.855 6.855 0 0 1-3.428 3.431" stroke="#1C1F31" stroke-width=".97" stroke-miterlimit="10" stroke-linecap="round"/><path d="M50.635 99.342c-2.293-3.692-3.271-6.83-3.739-9.044-.324-1.534-.377-2.507-.934-4.99-.723-3.211-1.521-5.513-1.87-6.548-.916-2.72-2.197-6.935-3.739-13.41-.165-.102-2.546-1.509-4.985-.311-1.71.839-2.35 2.42-2.493 2.806.85 5.052 1.59 9.374 2.181 12.786.795 4.584.932 5.31 1.246 6.549 1.044 4.107 1.945 5.644 2.493 9.043.402 2.505.383 4.591.312 5.926" stroke="#1C1F31" stroke-width=".97" stroke-miterlimit="10"/><path d="M29.13 104.956a30.01 30.01 0 0 0-.934-6.55c-.68-2.61-1.259-3.745-2.805-8.42 0 0-.704-2.126-1.557-4.989a145.19 145.19 0 0 1-3.116-12.473c.286-2.018 1.657-3.624 3.427-4.054 1.704-.415 3.113.427 3.428.623a139.312 139.312 0 0 0 5.297 15.28c2.006 4.856 3.976 9.225 6.073 13.098" stroke="#1C1F31" stroke-width=".97" stroke-miterlimit="10"/><path d="M26.64 105.892a109.445 109.445 0 0 1 11.528-3.43c4.384-1.045 8.31-1.734 11.994-2.183M53.126 113.064a60.664 60.664 0 0 0-11.217 19.958" stroke="#1C1F31" stroke-width=".97" stroke-miterlimit="10" stroke-linecap="round"/><path d="M69.95 155.474c-1.13 8.254-7 15.106-14.956 17.463-7.833 2.32-16.351-.115-21.81-6.237.52-8.211 1.037-16.425 1.558-24.636-1.624-1.091-3.898-2.878-5.92-5.613-2.59-3.502-3.63-7.787-5.609-16.216-1.514-6.452-1.77-9.071-3.739-14.033a703.52 703.52 0 0 0-2.181-4.989c-3.568-8.136-4.365-9.91-4.674-12.786-.137-1.276-.685-6.365 1.558-7.485.907-.452 1.941-.09 2.181 0 2.699 1.033 2.023 5.077 5.297 9.668.293.411.72.966 1.246 1.87 1.184 2.031 1.664 3.724 1.87 4.367.514 1.596 1.639 3.835 4.362 6.548" stroke="#1C1F31" stroke-width=".97" stroke-miterlimit="10"/><path d="M34.744 168.262c-.648 4.871-2.14 20.787 7.478 37.109 10.606 18 27.447 24.137 31.782 25.572a93.553 93.553 0 0 0 16.825-9.044 93.107 93.107 0 0 0 9.971-7.796" stroke="#1C1F31" stroke-width=".97" stroke-miterlimit="10"/><path d="M69.95 155.475a101.896 101.896 0 0 1 18.694 33.368M177.857 195.81c3.995-1.519 10.409-3.039 17.974-1.667 13.438 2.439 24.54 13.625 29.289 28.69" stroke="#1C1F31" stroke-width=".97" stroke-miterlimit="10" stroke-linecap="round"/><path d="M225.118 123.979a49.27 49.27 0 0 0-8.101 9.979c-4.596 7.5-5.963 14.335-6.855 19.022-3.464 18.212-5.714 34.519-6.854 43.347" stroke="#1C1F31" stroke-width=".97" stroke-miterlimit="10" stroke-linecap="round"/><path d="m105.162 206.617 14.644-11.85c3.269.234 6.812.536 10.594.935 5.733.602 7.192.914 8.413 1.248 2.627.717 6.004 2.048 9.659 4.677a91.474 91.474 0 0 0 28.042-7.172c1.558 1.712 8.715 9.945 8.413 22.453-.324 13.481-9.064 21.689-10.594 23.076a87.565 87.565 0 0 0-15.579-5.925 87.326 87.326 0 0 0-12.775-2.494 70.222 70.222 0 0 1-4.05 2.182c-4.593 2.286-13.563 6.63-25.238 6.861-2.58.05-6.229-.081-10.594-.935a6.415 6.415 0 0 1-1.558-4.678 11.56 11.56 0 0 1-2.493-7.173c-.483-.57-1.636-2.092-1.869-4.365-.303-2.96 1.174-5.093 1.558-5.614a11.642 11.642 0 0 1-.935-3.742 11.922 11.922 0 0 1 .935-5.613 62.894 62.894 0 0 1 8.412-4.054 63.682 63.682 0 0 1 16.514-4.054" stroke="#1C1F31" stroke-width=".97" stroke-miterlimit="10"/><path d="M111.077 204.122a12.47 12.47 0 0 0-1.246 4.054c-.38 3.003.443 5.392.935 6.549a8.943 8.943 0 0 0-1.247 4.366c-.052 2.928 1.384 4.974 1.87 5.613a16.661 16.661 0 0 0 1.558 8.108 8.434 8.434 0 0 0 .623 4.054 8.501 8.501 0 0 0 3.116 3.742" stroke="#1C1F31" stroke-width=".97" stroke-miterlimit="10"/><path d="M101.733 217.843c3.013-1.039 6.023-2.08 9.036-3.118M101.733 227.821c3.219-1.038 6.441-2.079 9.659-3.118M104.536 234.683l8.412-1.871" stroke="#1C1F31" stroke-width=".97" stroke-miterlimit="10"/><path d="m69.951 155.475-6.855-19.023 8.413-19.646c.726-1.145 1.455-2.286 2.181-3.431a21.722 21.722 0 0 1 .312-5.925c1.071-5.538 3.736-7.35 2.804-10.29-.695-2.193-3.063-3.99-4.986-3.743-1.012.131-1.916.83-3.738 3.742a46.46 46.46 0 0 0-4.363 9.044 8.778 8.778 0 0 1 1.87 2.183 8.866 8.866 0 0 1 1.246 4.054" stroke="#1C1F31" stroke-width=".97" stroke-miterlimit="10" stroke-linecap="round"/><path d="M95.646 135.027a152.084 152.084 0 0 0-18.526 30.115M178.07 236.243c9.158 2.286 23.403 4.497 40.194 1.559a94.908 94.908 0 0 0 18.695-5.301c4.633-8.208 11.809-23.619 12.464-43.97 1.103-34.416-17.234-58.459-22.746-65.176l-24.303-18.087c-.832-1.663-1.661-3.328-2.493-4.99 4.518-4.166 12.89-13.063 17.109-26.968 2.209-7.282 2.521-13.572 2.521-16.69 0-31.001-25.111-56.133-56.085-56.133-30.975 0-56.085 25.132-56.085 56.133 0 7.824 2.418 16.347 2.521 16.69 4.399 14.528 13.348 23.71 18.043 27.904-.642 1.578-1.28 3.159-1.922 4.737a91.66 91.66 0 0 0-4.241 3.177 91.88 91.88 0 0 0-2.873 2.377" stroke="#1C1F31" stroke-width=".97" stroke-miterlimit="10"/><path d="M202.371 105.267c-4.159 3.25-19.022 14.036-40.571 13.478-18.623-.48-31.532-9.159-36.078-12.542M103.91 207.241l-4.05-30.873a81.19 81.19 0 0 1 26.484-4.677 81.197 81.197 0 0 1 28.666 4.989l-2.181 24.324" stroke="#1C1F31" stroke-width=".97" stroke-miterlimit="10"/><path d="m195.52 109.945 25.238 18.71a113.535 113.535 0 0 1 7.166 14.034c5.961 13.989 7.593 25.64 8.413 31.808 2.926 22.007-.262 41.36-3.116 53.326" stroke="#1C1F31" stroke-width=".97" stroke-miterlimit="10"/><path d="M199.26 138.324a60.919 60.919 0 0 0-32.093-2.495c-.52 13.097-1.037 26.195-1.558 39.293M168.097 179.486a54.795 54.795 0 0 0 15.891 2.494 54.678 54.678 0 0 0 13.398-1.559M200.813 143.625c-.414 8.42-.832 16.84-1.246 25.26" stroke="#1C1F31" stroke-width=".97" stroke-miterlimit="10" stroke-linecap="round"/><path d="M192.895 150.662a2.423 2.423 0 0 0 2.422-2.424 2.423 2.423 0 0 0-2.422-2.425 2.423 2.423 0 0 0-2.422 2.425 2.423 2.423 0 0 0 2.422 2.424ZM192.391 161.253a2.423 2.423 0 1 0 0-4.847 2.423 2.423 0 0 0 0 4.847ZM110.808 107.328c-2.013 1.497 1.577 9.15 8.02 17.096 6.441 7.942 13.292 13.169 15.305 11.672" stroke="#1C1F31" stroke-width=".97" stroke-miterlimit="10"/><path d="M129.127 139.622c-2.012 1.497-8.864-3.727-15.304-11.673-6.441-7.942-10.033-15.595-8.021-17.095l4.799-3.471c2.013-1.497 8.864 3.727 15.305 11.673 6.44 7.942 10.033 15.595 8.02 17.095l-4.799 3.471ZM112.671 126.257l4.683-3.518M110.601 123.348l4.683-3.518M124.163 97.472c2.801-2.355 7.207-5.364 13.086-6.55 14.348-2.887 23.11 7.993 42.687 10.292 7.811.916 14.654.152 19.941-.936M151.275 59.739c.271.49.751 1.154 1.558 1.559 1.548.783 3.673.296 5.297-1.247M128.218 50.695c4.941 1.191 8.226 3.153 10.282 4.678 4.334 3.218 5.278 6.05 9.659 9.355 3.627 2.738 7.26 4.026 9.659 4.678M163.739 69.405c2.633-.034 8.353-.468 14.333-4.054 6.954-4.17 10.117-10.12 11.217-12.474" stroke="#1C1F31" stroke-width=".97" stroke-miterlimit="10"/><path d="M119.494 51.632a42.762 42.762 0 0 0 4.674 7.172 42.75 42.75 0 0 0 7.789 7.484" stroke="#1C1F31" stroke-width=".97" stroke-miterlimit="10" stroke-linecap="round"/><path d="M126.347 171.689a74.974 74.974 0 0 1 2.804-15.28c.935-3.181 2.477-8.442 4.986-12.474 6.434-10.341 19.576-13.188 24.926-14.033.592 3.574 1.053 9.904-1.869 16.528-4.739 10.74-16.383 17.744-29.912 18.399M126.971 165.452c-.312-3.48-1.321-8.682-4.986-13.098-5.39-6.495-12.323-6.215-18.695-9.979-5.455-3.224-11.996-10.294-14.956-27.754a40.875 40.875 0 0 1 19.63 4.678" stroke="#1C1F31" stroke-width=".97" stroke-miterlimit="10"/><path d="M127.907 139.881a38.615 38.615 0 0 1 1.246 16.527M95.643 135.129a152.111 152.111 0 0 0-18.527 30.115M178.066 236.243c9.158 2.286 23.403 4.497 40.194 1.559a94.908 94.908 0 0 0 18.695-5.301c4.634-8.208 11.809-23.619 12.464-43.97 1.103-34.416-17.234-58.459-22.746-65.176l-24.303-18.087c-.832-1.663-1.661-3.328-2.493-4.99 4.518-4.166 12.89-13.063 17.109-26.968 2.209-7.282 2.521-13.572 2.521-16.69 0-31.001-25.111-56.133-56.085-56.133-30.975 0-56.085 25.132-56.085 56.133 0 7.824 2.418 16.347 2.521 16.69 4.399 14.528 13.348 23.71 18.043 27.904-.641 1.578-1.28 3.159-1.922 4.737a92.2 92.2 0 0 0-4.241 3.177 91.88 91.88 0 0 0-2.873 2.377" stroke="#1C1F31" stroke-width=".97" stroke-miterlimit="10"/><path d="M128.078 133.805c.602.555 1.471 1.362 2.87 1.942a8.692 8.692 0 0 0 2.854.646l-4.845 3.583a12.163 12.163 0 0 1-2.184-.63c-1.225-.483-2.032-1.038-3.381-2.021-4.25-3.099-4.481-3.598-4.583-4.063-.331-1.491.645-2.75.779-2.913 1.096-1.369 2.773-1.465 3.041-1.475 2.1 1.881 3.86 3.465 5.449 4.931ZM68.082 161.402c-2.047-5.654-4.623-9.799-6.543-12.474-2.639-3.674-5.044-6.942-9.347-8.732-2.007-.836-5.235-2.18-7.478-.936-.34.188-1.459.88-3.116 1.248-.698.156-1.935.427-2.181 0-.284-.493.832-1.75 1.87-2.495a7.187 7.187 0 0 1 3.115-1.247c4.571-.668 7.547 1.868 10.906 1.247.825-.153 2.713-.689 6.231-5.613 3.281-4.596 7.163-13.566 11.993-19.179-2.702 6.549-7.733 16.684-10.435 23.233 2.284 6.446 4.571 12.888 6.855 19.334l-1.87 5.614ZM119.796 57.712c.218-.094-.552-1.803-.312-2.495.767-2.22 7.924-2.142 13.714-.468 2.52.73 6.795 2.389 11.217 6.549a32.476 32.476 0 0 0-3.428-3.742c-1.29-1.204-3.125-2.894-5.92-4.366-.654-.343-3.577-1.843-7.789-2.495-4.44-.686-6.88.094-8.102.624-1.012.44-1.617.889-1.869 1.559-.667 1.778 2.08 5.005 2.489 4.834ZM126.343 171.69c1.583.34 4.568 1.225 7.167 3.742 2.826 2.735 3.633 5.894 4.362 8.732.635 2.479 1.427 7.001.311 12.785.705.169 1.434.375 2.181.624a27.988 27.988 0 0 1 7.79 4.054l4.674-.624 2.181-24.324a80.145 80.145 0 0 0-10.594-3.118 80.248 80.248 0 0 0-18.072-1.871ZM145.629 231.248c1.87-1.248 4.391-2.177 6.26-3.424 9.868.833 19.733 1.662 29.6 2.495a25.556 25.556 0 0 1-2.804 4.989 25.418 25.418 0 0 1-4.362 4.678 79.694 79.694 0 0 0-16.202-6.237c-4.328-1.141-8.977-2.124-12.492-2.501Z" fill="#1C1F31"/><path d="M183.675 224.082c1.2.371 3.163.954 5.609 1.559 10.027 2.485 36.153 8.965 49.23-3.43 4.007-3.799 5.736-8.374 6.232-8.108.71.38-3.453 9.579-7.478 18.087a96.732 96.732 0 0 1-27.108 6.548 96.945 96.945 0 0 1-32.405-2.494 24.611 24.611 0 0 0 4.363-6.861 24.555 24.555 0 0 0 1.557-5.301ZM65.273 226.887a66.15 66.15 0 0 0 13.398-9.044c14.501-12.636 19.795-28.502 21.811-36.486l3.427 25.572-2.492 1.559s-.247 2.098-.857 5.769c-3.032 2.703-6.73 5.439-10.984 8.264a97.452 97.452 0 0 1-15.579 8.42 81.248 81.248 0 0 1-8.724-4.054ZM107.65 144.249c-.299-.006.028 5.947-1.558 14.969-.987 5.628-3.097 14.594-4.209 16.091-.044.059-.234.302-.153.436.215.359 2.203-.427 4.051-1.247a104.376 104.376 0 0 0 2.181-15.904c.458-7.672.003-14.339-.312-14.345ZM127.904 101.214a65.254 65.254 0 0 0 19.629 8.731c12.143 3.134 22.466 2.031 28.354.936l2.182 5.925c-5.244 1.366-15.536 3.299-28.043.624-11.796-2.523-20.053-7.968-24.303-11.227l2.181-4.989ZM181.802 109.322l2.181 5.925 6.855-2.807c-.726-1.768-1.455-3.533-2.181-5.301-2.284.726-4.571 1.456-6.855 2.183Z" fill="#1C1F31"/><path d="M70.997 119.593c-2.665 5.583-4.362 9.467-7.417 16.858 4.51 11.541 6.448 17.852 6.448 17.852" stroke="#5275FF" stroke-width=".97" stroke-linecap="round"/><path d="M110.314 73.086c-.065-.215-1.041-3.651-1.759-8.114M212.719 28.33a55.886 55.886 0 0 1 7.496 27.13" stroke="#FFCB47" stroke-width=".97" stroke-miterlimit="10" stroke-linecap="round"/><path d="M99.55 215.232c-1.938 1.939-2.907 2.909-5.087 4.364" stroke="#5275FF" stroke-width=".97" stroke-linecap="round"/><path d="M125.041 105.41a.485.485 0 0 0 .852.464l-.852-.464Zm2.907-5.334-2.907 5.334.852.464 2.906-5.334-.851-.464Z" fill="#26C953"/><g style="mix-blend-mode:screen" opacity=".3" filter="url(#b)"><path d="M157.135 128.271c0 19.327-15.331 34.994-34.242 34.994-18.912 0-34.243-15.667-34.243-34.994 0-19.327 15.331-34.994 34.243-34.994 18.911 0 34.242 15.667 34.242 34.994Z" fill="#FFCB47"/></g><path d="M158.736 52.554c-4.112.02-5.342-.512-13.09-1.727 0 0-21.276-2.088-25.213 2.22-.972 1.464.057 2.973 1.421 5.089l.017.025c3.262 5.063 4.898 7.6 7.547 10.26 1.066 1.073 5.841 5.733 13.71 8.88 10.195 2.64 15.652 3.16 24.279 2.336 3.418 2.384 5.413 3.535 9.201 4.635 2.179.976 11.622 2.684 11.622-1.22 0-2.927-10.394-3.374-9.685-6.482a27.025 27.025 0 0 0 5.716-3.475c11.25-8.933 15.322-26.732 9.458-40.242-2.397-5.533-5.976-9.216-8.368-11.304a9.553 9.553 0 0 1 2.905-1.952c5.124-2.186 9.655 1.005 10.87 1.493-1.884-4.953-6.032-8.162-10.87-8.323-5.177-.176-8.62 3.356-9.191 3.966-5.521-2.78-11.521-2.264-14.659.898-1.758 1.77-2.232 3.986-2.363 5.372.431-.25 7.187-3.977 13.24-.898 6.886 3.505 6.248 12.442 6.145 13.877v.004c-.431 6-4.242 11.29-8.983 13.88-4.397 2.406-8.358 2.66-13.709 2.688Z" fill="#FFCB47"/><path d="M136.126 73.671c-1.941 1.747-3.699 2.644-4.983 3.132-1.06.405-2.106.664-2.179 1.254-.101.795 1.642 1.625 2.179 1.883 3.991 1.898 11.55-.429 15.569-1.883" stroke="#1C1F31" stroke-width=".97" stroke-miterlimit="10"/><path d="M153.249 58.935c.271.493.751 1.161 1.555 1.566 1.549.786 3.67.298 5.293-1.254" stroke="#1C1F31" stroke-width=".97" stroke-miterlimit="10" stroke-linecap="round"/><path d="M130.208 49.846c4.94 1.195 8.218 3.171 10.277 4.703 4.329 3.235 5.273 6.08 9.651 9.407 3.622 2.752 7.254 4.045 9.651 4.703" stroke="#1C1F31" stroke-width=".97" stroke-miterlimit="10"/><path d="M127.719 50.631c1.695 3.342 4.77 8.748 11.836 13.95a41.473 41.473 0 0 0 16.189 7.21" stroke="#1C1F31" stroke-width=".97" stroke-miterlimit="10" stroke-linecap="round"/><path d="M159.783 68.655c2.828 7.343 7.302 10.85 9.341 12.227 7.313 4.927 17.748 5.669 18.993 3.137.324-.659.063-1.625-.31-2.196-.862-1.317-2.625-1-5.293-1.878a14.718 14.718 0 0 1-3.738-1.878c-.257-1.118-.824-2.67-2.18-3.762-1.007-.81-2.135-1.074-4.358-1.566-3.38-.752-3.68-.235-4.668-.942-1.831-1.307-1.124-3.313-3.114-4.386-.388-.21-1.53-.742-2.804-.312-1.114.36-1.69 1.249-1.869 1.556Z" stroke="#1C1F31" stroke-width=".97" stroke-miterlimit="10"/><path d="M166.945 79.628c-3.709.435-23.752 2.938-40.217-13.407M166.191 69.392c7.749-.488 17.434-2.927 25.182-13.66" stroke="#1C1F31" stroke-width=".97" stroke-miterlimit="10" stroke-linecap="round"/><path d="M198.395 20.357c-.121.2-2.287-1.395-6.476-1.22-2.765.117-5.124 1.001-6.838 2.44.77.683 2.281 2.152 3.39 3.416 5.303 6.05 6.523 12.392 6.838 13.66 1.297 5.27.954 9.807.484 12.685-2.286-13.722-9.262-25.126-15.073-29.517.423-1.708 3.21-4.685 7.022-5.612 5.646-1.37 10.828 3.865 10.653 4.148Z" fill="#1C1F31"/><path d="M198.153 20.114c-5.569-1.952-7.614-1.81-13.075 1.464 11.865 11.465 12.591 27.322 8.717 35.372" stroke="#FFCB47" stroke-width=".97" stroke-linecap="round"/><path d="M123.092 51.828c1.093 2.125 3.084 5.112 5.155 7.698a42.737 42.737 0 0 0 7.784 7.523M137.9 68.615c.725.523 1.454 1.044 2.179 1.567" stroke="#1C1F31" stroke-width=".97" stroke-miterlimit="10" stroke-linecap="round"/><path d="M120.531 53.716c.766-2.232 7.919-2.153 13.704-.47 2.519.734 6.79 2.401 11.208 6.583a32.519 32.519 0 0 0-3.425-3.762c-1.288-1.21-3.122-2.909-5.915-4.388-.654-.345-3.574-1.853-7.784-2.508-10.095-1.569-8.266 5.933-7.788 4.545ZM135.456 73.783c3.528 1.464 7.059 2.925 10.586 4.389a34.808 34.808 0 0 1-5.915 1.88c-2.261.502-4.119.675-5.916.628-3.636-.094-4.599-1.013-4.982-1.568-.161-.235-.386-.567-.311-.94.184-.918 1.952-.925 3.736-1.88.763-.408 1.797-1.136 2.802-2.509Z" fill="#1C1F31"/><path d="M121.676 56.463c-.408.173-2.534-3.31-1.868-5.097.252-.674.856-1.126 1.868-1.568 1.221-.532 3.658-1.316 8.095-.627 4.21.656 7.13 2.163 7.784 2.508 2.793 1.48 3.775 2.233 6.922 4.185" stroke="#FFCB47" stroke-width=".97"/></g><defs><clipPath id="a"><path fill="#fff" d="M0 0h280v241H0z"/></clipPath><filter id="b" x="70.705" y="75.331" width="104.376" height="105.879" filterUnits="userSpaceOnUse" color-interpolation-filters="sRGB"><feFlood flood-opacity="0" result="BackgroundImageFix"/><feBlend in="SourceGraphic" in2="BackgroundImageFix" result="shape"/><feGaussianBlur stdDeviation="8.973" result="effect1_foregroundBlur_2266_9267"/></filter></defs></svg>