<svg width="353" height="123" fill="none" xmlns="http://www.w3.org/2000/svg"><path d="M25.8 55.4A98.7 98.7 0 0 1 1 .5c21 7.5 35.2 17 50.3 34 .5 1 .4 1.8-.5 2.4l-2.5 2 3.5 6c.5.9-.2 2-1 2.5L37.6 58.1c-.8.6-1.6.4-2.4-.2l-5-4c-1.5 1.5-3 2.5-4.4 1.5Z" fill="#D2D6E7"/><path d="M4 17.8c.2.6.5 1 1 .8 6.8-1.8 9.6-4 12.4-10.2.2-.6 0-.9-.5-1L2.2.6C1.5.4.4 1.3.5 2l3.6 15.7Z" fill="#FFCB47"/><path d="M60 28.2c-7.9-.6-12.4 3-12.4 3-4.2-4.9-5-5.5-12.9-11.8A23.8 23.8 0 0 1 60 28.2ZM5 19.9S14.3 43.2 38 47c1.1 1.7 6.5 4.2 7.5 4.5l-7.7 6.4a2 2 0 0 1-2.6 0L30 53.5l-2.3 2.3a2 2 0 0 1-3-.3l-2.4-3.2c-1 1-5 5.9-5 12.3-6-9-10.3-16.2-4.7-27.2C9 31 8.8 29.4 5 19.9Z" fill="#505573"/><path d="M23.8 19.3a5.5 5.5 0 1 1-8.5 7 5.5 5.5 0 0 1 8.5-7Z" fill="#fff" stroke="#505573"/><path fill-rule="evenodd" clip-rule="evenodd" d="M51 37c1-.7 1-2 .3-2.8l-2.6-2.8a15 15 0 0 1 3.1-1.6c2.2-.8 5.3-1.6 8.8-1l1.4.1-1-1a35.6 35.6 0 0 0-11.5-8.6 21.3 21.3 0 0 0-14.4-.6C25.3 10.8 14.5 4.7 2.6.1A2 2 0 0 0 0 2.3a124 124 0 0 0 12.3 35.2l-.2.3c-2.6 5.3-2.9 10-1.8 14.4 1.2 4.4 3.7 8.5 6.7 12.6l.8 1.2v-1.4a17.4 17.4 0 0 1 4.7-11.2l2.4 3c.7.9 2 1 2.8.3l2.5-2.1 4.7 4c1 .7 2.3.7 3.2 0l13-11c1-.8 1.2-2 .6-3.1l-3-5.3h-.1l2.5-2.2ZM2.3 1A121 121 0 0 1 50.6 35c.3.4.3 1-.1 1.4L27 55.9a1 1 0 0 1-1.4 0A119.3 119.3 0 0 1 1 2a1 1 0 0 1 1.2-1ZM22 52.7c-3.4-4.4-6.4-9.1-9-14-2.4 5-2.6 9.3-1.6 13.4 1 3.8 3 7.4 5.7 11.1a18.7 18.7 0 0 1 4.9-10.5Zm26.8-22.4-.7.4a129 129 0 0 0-12-11.1 20 20 0 0 1 13.1.8c3.7 1.5 7 4.1 10.2 7.3a18.8 18.8 0 0 0-10.6 2.6Zm-.9 9.6L31 53.9l4.7 3.9c.5.5 1.3.5 1.9 0l13-11c.6-.4.7-1.2.4-1.8l-3-5.2Z" fill="#505573"/><path d="M20.6 50.7a.5.5 0 0 0 .8-.6l-.8.6Zm-5.6-10a.5.5 0 1 0-.9.6l.9-.6Zm6.4 9.4c-2.3-3-4.5-6.2-6.4-9.4l-.9.6c2 3.2 4.2 6.3 6.5 9.4l.8-.6Z" fill="#D2D6E7"/><path d="M47 56.1c-1.3 2 24 10 27.5 22a17 17 0 0 1-3.2 14.4c-2.8 3.5-7 6-6.7 8.7 1 15.6 114 35.4 209.4 7 47-13.9 79.5-51 79-52-.6-1.2-43 34.9-100.5 45-71 12.6-148.5 6.4-150.4-7.9-.7-5.4 8.1-9.1 6-14.8-2.3-6.5-6.8-10.6-28.1-18-14.8-5.1-32.1-5.5-33-4.4Z" fill="#FFCB47"/></svg>