<svg width="452" height="237" viewBox="0 0 452 237" fill="none" xmlns="http://www.w3.org/2000/svg">
<g clip-path="url(#clip0_26444_109694)">
<path fill-rule="evenodd" clip-rule="evenodd" d="M217 376C300.099 376 368 300.872 368 207.5C368 114.128 300.099 39 217 39C133.901 39 66 114.128 66 207.5C66 300.872 133.901 376 217 376ZM217 379C302.052 379 371 302.217 371 207.5C371 112.783 302.052 36 217 36C131.948 36 63 112.783 63 207.5C63 302.217 131.948 379 217 379Z" fill="#D2D6E7"/>
<path fill-rule="evenodd" clip-rule="evenodd" d="M217 342C287.404 342 345 278.505 345 199.5C345 120.495 287.404 57 217 57C146.596 57 89 120.495 89 199.5C89 278.505 146.596 342 217 342ZM217 345C289.349 345 348 279.857 348 199.5C348 119.143 289.349 54 217 54C144.651 54 86 119.143 86 199.5C86 279.857 144.651 345 217 345Z" fill="#D2D6E7"/>
<path d="M169.498 23.0743C139.012 77.2621 216.978 129.443 253.466 76.7606C274.957 42.6421 236.359 -12.1056 190.872 4.81796C182.521 7.92511 174.77 16.2761 169.498 23.0743Z" fill="#14C393"/>
<path fill-rule="evenodd" clip-rule="evenodd" d="M244.675 18.1258C263.639 38.0333 265.22 67.3233 248.205 83.5467C247.966 83.7754 247.718 83.9985 247.47 84.2215C247.044 84.6051 246.618 84.9882 246.236 85.3971C242.301 89.6142 237.64 92.7819 232.577 94.9637C224.949 98.7924 216.935 99.8492 208.153 98.3383C200.817 97.4975 193.624 95.0962 187.323 91.2812C183.556 89.0002 180.062 86.2271 176.986 82.998C158.348 63.4322 156.813 33.4579 173.966 17.099L176.357 14.7534C176.855 14.2649 177.337 13.7452 177.822 13.223C178.379 12.6221 178.94 12.0181 179.53 11.4551C196.545 -4.76834 225.711 -1.78177 244.675 18.1258ZM185.664 89.0439C182.794 87.0991 180.116 84.8502 177.701 82.3158C176.282 80.8253 174.963 79.2745 173.747 77.6743L179.755 73.0958C180.791 74.388 181.893 75.6498 183.061 76.876C185.021 78.9333 187.09 80.8099 189.243 82.5033C186.007 82.7519 183.962 86.1175 185.664 89.0439ZM243.96 18.8079C262.651 38.4294 264.042 67.0806 247.524 82.831C231.005 98.5814 202.468 95.8154 183.776 76.1939C180.177 72.415 177.219 68.3013 174.906 64.0093L174.911 64.0059L174.891 63.9808C165.215 45.9929 166.882 24.8812 180.212 12.1708C196.73 -3.57966 225.268 -0.813607 243.96 18.8079ZM173.456 19.0062C165.71 31.7626 165.887 48.7814 173.646 63.732L167.972 68.1927C159.896 51.1907 161.577 31.4537 173.456 19.0062ZM174.121 64.627L168.419 69.11C169.753 71.7846 171.331 74.3861 173.151 76.8749L179.138 72.3125C177.227 69.8438 175.554 67.2701 174.121 64.627Z" fill="#181B2B"/>
<path d="M229 96.1698C227.253 96.8919 225.357 97.4075 223.479 97.7721M219.498 98.5581C209.416 100.029 198.541 97.7838 189 91.9961" stroke="#14C393" stroke-linecap="round"/>
<path d="M199.433 58L205.391 56.3746C207.674 55.7518 208.587 54.0279 208.046 52.1108C207.63 50.6319 206.183 49.6109 204.808 49.7696C205.873 49.2234 206.606 47.9224 206.174 46.3887C205.674 44.6176 204.018 43.6341 201.809 44.2366L196 45.8215L199.433 58ZM199.313 50.4824L198.309 46.9219L201.91 45.9396C203.153 45.6004 204.061 46.1981 204.344 47.2023C204.627 48.2066 204.157 49.1608 202.913 49.5L199.313 50.4824ZM200.836 55.8869L199.766 52.0891L203.459 51.0815C204.832 50.7068 205.785 51.3908 206.068 52.395C206.402 53.5818 205.829 54.5248 204.53 54.8792L200.836 55.8869Z" fill="white"/>
<path d="M210.297 49.9042C211.141 52.8986 213.446 54.4129 216.917 53.466C220.388 52.5191 221.558 50.0763 220.704 47.0453L218.619 39.6506L216.744 40.162L218.819 47.5202C219.405 49.6017 218.631 51.2485 216.459 51.841C214.287 52.4334 212.742 51.4195 212.156 49.3381L210.081 41.9799L208.207 42.4913L210.297 49.9042Z" fill="white"/>
<path d="M228.752 50.0013L230.608 49.495L229.171 44.4008L232 36L229.847 36.5874L227.78 43.0108L222.609 38.5622L220.474 39.1445L227.315 44.9072L228.752 50.0013Z" fill="white"/>
<path d="M403.833 133.973C412.685 166.47 393.516 199.99 361.019 208.841C328.522 217.693 295.003 198.524 286.151 166.027C277.3 133.53 296.468 100.01 328.965 91.1589C361.462 82.3075 394.982 101.476 403.833 133.973Z" fill="#181B2B"/>
<path fill-rule="evenodd" clip-rule="evenodd" d="M372.709 96.2642C372.838 96.022 373.139 95.9296 373.382 96.0577C376.112 97.4972 378.732 99.1408 381.218 100.974C381.439 101.137 381.485 101.448 381.322 101.668C381.158 101.888 380.846 101.935 380.626 101.772C378.18 99.9679 375.602 98.3509 372.916 96.9346C372.673 96.8065 372.581 96.5064 372.709 96.2642ZM384.267 104.024C384.447 103.817 384.762 103.795 384.969 103.975C393.794 111.62 400.522 121.865 403.825 133.952C412.709 166.458 393.471 199.987 360.856 208.84C328.24 217.694 294.599 198.521 285.715 166.015C284.921 163.108 284.351 160.192 283.996 157.287C283.963 157.015 284.157 156.767 284.43 156.734C284.703 156.701 284.951 156.895 284.984 157.167C285.333 160.025 285.894 162.893 286.676 165.754C295.415 197.731 328.509 216.593 360.594 207.883C392.679 199.173 411.604 166.19 402.865 134.213C399.615 122.321 392.997 112.244 384.316 104.724C384.109 104.544 384.087 104.231 384.267 104.024Z" fill="#8358FF"/>
<path d="M395.071 131.181C402.979 160.215 385.853 190.163 356.819 198.071C327.785 205.979 297.837 188.853 289.929 159.819C282.021 130.785 299.147 100.837 328.181 92.9289C357.215 85.0206 387.163 102.147 395.071 131.181Z" fill="#8358FF"/>
<path d="M400.828 126.04C414.476 123.181 425.871 121.252 433.959 120.441C438.006 120.035 441.202 119.912 443.43 120.085C444.548 120.172 445.39 120.331 445.965 120.549C446.557 120.774 446.749 121.014 446.796 121.183C446.837 121.334 446.81 121.595 446.509 122.018C446.214 122.434 445.708 122.925 444.973 123.488C443.507 124.61 441.229 125.937 438.213 127.436C432.189 130.429 423.305 134.06 412.295 138.048C412.034 138.142 411.899 138.43 411.994 138.691C412.088 138.952 412.375 139.087 412.635 138.993C423.658 135 432.583 131.354 438.658 128.336C441.692 126.829 444.038 125.467 445.581 124.286C446.35 123.698 446.946 123.135 447.325 122.601C447.7 122.075 447.921 121.493 447.762 120.915C447.585 120.276 447.009 119.871 446.32 119.61C445.615 119.342 444.663 119.173 443.508 119.083C441.191 118.903 437.925 119.034 433.859 119.441C425.72 120.258 414.284 122.195 400.623 125.056C400.352 125.113 400.178 125.379 400.235 125.651C400.291 125.922 400.557 126.096 400.828 126.04Z" fill="#8358FF"/>
<path d="M284.668 158.107C284.93 158.017 285.069 157.732 284.979 157.469C284.889 157.207 284.604 157.067 284.342 157.157C270.66 161.865 259.421 166.221 251.711 169.818C247.859 171.615 244.867 173.232 242.888 174.617C241.902 175.308 241.141 175.96 240.652 176.566C240.176 177.157 239.872 177.814 240.053 178.467C240.219 179.071 240.743 179.464 241.373 179.724C242.014 179.989 242.874 180.163 243.913 180.265C245.997 180.469 248.929 180.394 252.581 180.071C259.892 179.424 270.184 177.771 282.559 175.278C282.831 175.224 283.006 174.959 282.952 174.687C282.897 174.415 282.633 174.239 282.362 174.293C270 176.783 259.749 178.428 252.492 179.07C248.86 179.392 246.001 179.46 244.011 179.265C243.012 179.167 242.264 179.006 241.754 178.795C241.233 178.58 241.062 178.358 241.019 178.2C240.971 178.027 241.016 177.712 241.431 177.197C241.834 176.698 242.506 176.11 243.462 175.441C245.369 174.106 248.298 172.518 252.134 170.729C259.798 167.154 270.999 162.811 284.668 158.107Z" fill="#8358FF"/>
<path d="M439.684 131.84C442.957 131.589 445.524 131.566 447.31 131.777C448.205 131.883 448.873 132.045 449.326 132.247C449.787 132.453 449.94 132.659 449.982 132.808C450.023 132.96 449.996 133.224 449.69 133.651C449.39 134.07 448.878 134.566 448.133 135.133C446.649 136.263 444.345 137.602 441.295 139.113C435.202 142.131 426.222 145.792 415.1 149.811C414.839 149.905 414.704 150.193 414.798 150.454C414.892 150.715 415.179 150.85 415.44 150.756C426.575 146.732 435.596 143.056 441.739 140.014C444.807 138.494 447.179 137.122 448.74 135.932C449.518 135.34 450.121 134.773 450.505 134.236C450.883 133.707 451.108 133.122 450.948 132.541C450.79 131.97 450.313 131.587 449.734 131.329C449.148 131.067 448.366 130.891 447.427 130.78C445.544 130.557 442.901 130.586 439.608 130.839C439.332 130.86 439.125 131.101 439.146 131.378C439.167 131.654 439.408 131.861 439.684 131.84Z" fill="#8358FF"/>
<path d="M250.726 184.631C250.97 184.5 251.063 184.196 250.933 183.951C250.803 183.706 250.5 183.613 250.256 183.743C247.896 185 246.079 186.142 244.889 187.147C244.295 187.647 243.834 188.134 243.544 188.603C243.254 189.072 243.098 189.584 243.238 190.093C243.399 190.676 243.895 191.063 244.494 191.322C245.101 191.585 245.913 191.761 246.891 191.869C248.852 192.084 251.607 192.038 255.039 191.758C261.911 191.198 271.595 189.694 283.278 187.395C283.55 187.342 283.727 187.078 283.673 186.805C283.62 186.533 283.357 186.356 283.085 186.409C271.415 188.705 261.774 190.201 254.958 190.757C251.545 191.035 248.865 191.075 247 190.87C246.065 190.767 245.366 190.606 244.891 190.4C244.407 190.19 244.247 189.978 244.204 189.825C244.168 189.692 244.183 189.476 244.395 189.133C244.607 188.791 244.979 188.384 245.534 187.915C246.643 186.979 248.387 185.877 250.726 184.631Z" fill="#8358FF"/>
<path d="M327.388 157.435L329.283 156.889L325.779 143.736L323.884 144.283L325.355 149.804L318.365 151.822L316.894 146.301L315 146.848L318.504 160L320.398 159.453L318.833 153.577L325.823 151.559L327.388 157.435Z" fill="white"/>
<path d="M330.181 149.558C331.221 153.462 334.589 155.611 338.359 154.523C342.128 153.435 343.951 149.787 342.911 145.883C341.871 141.979 338.503 139.829 334.734 140.918C330.964 142.006 329.141 145.654 330.181 149.558ZM340.96 146.446C341.727 149.325 340.562 151.997 337.891 152.768C335.182 153.55 332.899 151.873 332.132 148.995C331.36 146.096 332.492 143.455 335.201 142.673C337.872 141.902 340.188 143.548 340.96 146.446Z" fill="white"/>
<path d="M347.325 151.68L354.959 149.476L354.496 147.741L348.757 149.398L345.715 137.981L343.821 138.528L347.325 151.68Z" fill="white"/>
<path d="M357.415 148.767L361.924 147.466C365.864 146.328 367.743 142.813 366.729 139.007C365.72 135.222 362.36 133.176 358.42 134.314L353.912 135.615L357.415 148.767ZM358.847 146.485L356.268 136.803L358.882 136.049C361.856 135.19 364.058 136.869 364.778 139.571C365.487 142.233 364.379 144.888 361.462 145.731L358.847 146.485Z" fill="white"/>
<path d="M54.2505 181.195C54.6357 180.976 54.5861 180.401 54.1648 180.264C15.4455 167.655 -21.2021 54.5641 112.055 25.7902C112.615 25.6693 112.948 26.436 112.452 26.7205C55.3156 59.4503 61.781 93.6041 82.5294 113.131C105.465 134.716 145.578 133.773 163.366 159.745C164.554 161.479 165.625 163.208 166.556 164.908C179.789 189.077 175.872 221.867 154.887 239.761C111.558 276.71 30.773 246.646 7.21875 181.173C28.356 190.312 38.6478 190.049 54.2505 181.195Z" fill="#FD9317"/>
<path fill-rule="evenodd" clip-rule="evenodd" d="M116.399 265.614C67.6102 269.663 17.1383 241.681 2.02129 191.509C1.98858 191.401 1.99364 191.283 2.03596 191.178L6.05535 181.189C6.1369 180.986 6.32479 180.863 6.52302 180.864C18.0273 185.51 23.5796 187.634 32.8513 187.595C35.409 187.584 37.8799 187.282 40.361 186.692C-4.3066 161.414 -22.1775 55.5125 96.655 28.9558C101.539 27.5136 112.125 25.0249 112.125 25.0249C112.682 24.9045 113.119 25.2396 113.287 25.6309C113.458 26.0282 113.391 26.5874 112.878 26.8815C84.3198 43.2579 71.7761 59.9238 68.879 74.8296C65.9848 89.7206 72.6895 103.014 83.0002 112.727C93.2802 122.412 107.037 127.543 120.78 132.668C122.273 133.225 123.765 133.782 125.253 134.344C140.388 140.065 155.034 146.384 164.042 159.55C165.241 161.301 166.323 163.048 167.264 164.77C174.028 177.137 176.357 191.745 174.249 205.506C173.279 234.946 151.898 262.667 116.399 265.614ZM112.337 26.0039C112.343 26.0027 112.348 26.0024 112.348 26.0024C112.348 26.0024 112.352 26.0052 112.355 26.0085C112.358 26.0121 112.361 26.0166 112.363 26.0215C83.7006 42.4611 70.8706 59.3245 67.8942 74.6388C64.9143 89.9706 71.8394 103.59 82.3118 113.456C92.7488 123.289 106.704 128.491 120.415 133.602C121.914 134.161 123.41 134.719 124.898 135.281C140.051 141.009 154.404 147.239 163.214 160.115C164.396 161.842 165.46 163.561 166.384 165.25C179.541 189.306 175.624 221.917 154.809 239.685C133.288 258.056 102.418 259.804 73.9308 248.738C45.7666 237.798 20.014 214.356 8.08848 182.237C18.164 186.519 25.8201 188.626 32.8555 188.596C40.1518 188.566 46.723 186.238 54.5778 181.776C55.3255 181.351 55.2537 180.209 54.3996 179.931C44.8745 176.826 35.3922 167.492 28.6151 154.695C21.846 141.912 17.8165 125.744 19.1383 109.079C20.4595 92.4206 27.1266 75.2589 41.7614 60.4624C56.3999 45.6622 79.0367 33.2019 112.337 26.0039Z" fill="#181B2B"/>
<path d="M5.75054 181.036C6.00718 181.14 6.13152 181.432 6.02826 181.688L2.05676 191.326C17.1224 241.346 67.3856 269.654 116.064 265.612C143.476 263.336 162.414 246.201 169.953 224.943C170.033 224.719 170.132 224.478 170.346 224.375C170.676 224.215 170.956 224.481 170.997 224.814C171.012 224.937 170.974 225.059 170.932 225.176C163.295 246.824 144.033 264.296 116.147 266.611C67.0731 270.686 16.2656 242.532 1.04262 191.989C0.977212 191.772 0.987097 191.537 1.07223 191.326L5.09887 181.314C5.20213 181.057 5.49389 180.933 5.75054 181.036Z" fill="#FD9317"/>
<path fill-rule="evenodd" clip-rule="evenodd" d="M76.9737 34.339C77.0611 34.6003 76.9234 34.884 76.6662 34.9728C31.3457 50.6087 11.6111 80.1437 7.71983 109.354C3.82229 138.611 15.8071 167.585 34.0181 182.107C34.2318 182.278 34.269 182.592 34.1012 182.809C33.9335 183.026 33.6242 183.064 33.4106 182.893C14.9015 168.133 2.80482 138.797 6.74496 109.22C10.6914 79.5957 30.7136 49.7715 76.3498 34.0267C76.607 33.9379 76.8864 34.0778 76.9737 34.339Z" fill="#FD9317"/>
<path d="M84.9303 208L91.7507 206.137C94.3642 205.423 95.4096 203.447 94.7908 201.25C94.3136 199.555 92.6569 198.385 91.0836 198.567C92.3031 197.941 93.1417 196.45 92.6467 194.692C92.0752 192.662 90.1789 191.535 87.6505 192.225L81 194.042L84.9303 208ZM84.7923 199.384L83.6433 195.303L87.7653 194.177C89.1889 193.788 90.2284 194.473 90.5525 195.624C90.8766 196.775 90.3379 197.869 88.9143 198.258L84.7923 199.384ZM86.5365 205.578L85.3109 201.225L89.5391 200.07C91.1114 199.641 92.2017 200.425 92.5258 201.576C92.9088 202.936 92.2521 204.017 90.7647 204.423L86.5365 205.578Z" fill="white"/>
<path d="M97.3667 198.721C98.3331 202.153 100.973 203.889 104.946 202.803C108.919 201.718 110.259 198.918 109.281 195.444L106.894 186.969L104.748 187.555L107.123 195.989C107.795 198.374 106.907 200.262 104.421 200.941C101.936 201.62 100.167 200.458 99.495 198.072L97.1204 189.639L94.9744 190.225L97.3667 198.721Z" fill="white"/>
<path d="M122.574 197.718L125.038 197.045L119.832 192.45C121.573 191.726 122.917 189.917 122.21 187.406C121.485 184.832 119.153 183.621 116.455 184.358L110.484 185.988L114.415 199.947L116.539 199.366L115.025 193.988L117.681 193.263L122.574 197.718ZM120.021 188.003C120.434 189.468 119.606 190.754 118.076 191.172L114.506 192.147L113.128 187.25L116.697 186.275C118.227 185.857 119.609 186.539 120.021 188.003Z" fill="white"/>
<path d="M137.939 193.521L140 192.958L136.07 179L133.945 179.58L136.891 190.044L126.232 181.687L124.044 182.285L127.974 196.243L130.099 195.663L127.082 184.948L137.939 193.521Z" fill="white"/>
</g>
<defs>
<clipPath id="clip0_26444_109694">
<rect width="452" height="237" fill="white"/>
</clipPath>
</defs>
</svg>
