<svg xmlns="http://www.w3.org/2000/svg" width="16" height="16" fill="none"><path fill="#4285F4" fill-rule="evenodd" d="M15.68 8.182q-.001-.85-.146-1.636H8V9.64h4.306a3.68 3.68 0 0 1-1.597 2.415v2.007h2.585c1.513-1.392 2.386-3.443 2.386-5.88" clip-rule="evenodd"/><path fill="#34A853" fill-rule="evenodd" d="M7.999 16c2.16 0 3.97-.716 5.294-1.938l-2.585-2.007c-.717.48-1.633.764-2.71.764-2.083 0-3.847-1.408-4.476-3.298H.85v2.072A8 8 0 0 0 7.999 16" clip-rule="evenodd"/><path fill="#FBBC05" fill-rule="evenodd" d="M3.524 9.52c-.16-.48-.251-.993-.251-1.52s.09-1.04.25-1.52V4.407H.852A8 8 0 0 0 0 8c0 1.29.31 2.513.85 3.593z" clip-rule="evenodd"/><path fill="#EA4335" fill-rule="evenodd" d="M7.999 3.182c1.174 0 2.229.403 3.058 1.196l2.294-2.294C11.966.793 10.155 0 8 0a8 8 0 0 0-7.15 4.407L3.523 6.48C4.152 4.59 5.915 3.182 8 3.182" clip-rule="evenodd"/></svg>