<svg xmlns="http://www.w3.org/2000/svg" width="18" height="16" fill="none"><path fill="#F6851B" fill-rule="evenodd" d="m0 2.565.575 2.762-.365.27.541.413-.413.325.542.494-.339.244.779.913-1.178 3.669 1.097 3.743 3.837-1.056.745.609L7.33 16h2.592l1.516-1.05.745-.608 3.837 1.056 1.104-3.743-1.192-3.669.785-.913-.338-.244.541-.494-.42-.325.542-.413-.358-.27.575-2.762L16.399 0 10.91 2.05H6.35L.853 0z" clip-rule="evenodd"/><path fill="#E2761B" d="M16.4 0 9.664 5.002 10.91 2.05z"/><path fill="#E4761B" d="m.853 0 6.68 5.05-1.184-3zM13.976 11.594l-1.793 2.748 3.837 1.056 1.103-3.743zM.142 11.655l1.097 3.743 3.837-1.056-1.793-2.748z"/><path fill="#E4761B" d="M4.86 6.951 3.79 8.569l3.81.169-.135-4.095zM12.393 6.951l-2.64-2.355-.088 4.142 3.804-.17zM5.076 14.342l2.288-1.117-1.976-1.543zM9.888 13.225l2.295 1.117-.319-2.66z"/><path fill="#D7C1B3" d="m12.183 14.342-2.295-1.117.183 1.496-.02.63zM5.076 14.342l2.132 1.008-.013-.63.169-1.495z"/><path fill="#233447" d="m7.242 10.694-1.908-.562 1.346-.616zM10.01 10.694l.562-1.178 1.354.616z"/><path fill="#CD6116" d="m5.076 14.342.325-2.748-2.118.06zM11.858 11.594l.325 2.748 1.793-2.687zM13.469 8.568l-3.804.17.352 1.956.562-1.178 1.353.616zM5.333 10.132l1.354-.616.555 1.178.359-1.956-3.811-.17z"/><path fill="#E4751F" d="m3.79 8.568 1.597 3.114-.054-1.55zM11.932 10.132l-.067 1.55 1.604-3.114zM7.6 8.738l-.358 1.956.447 2.308.101-3.04zM9.665 8.738l-.183 1.218.082 3.046.453-2.308z"/><path fill="#F6851B" d="M10.017 10.694 9.563 13l.325.224 1.977-1.543.067-1.55zM5.334 10.132l.054 1.55 1.976 1.543.325-.223-.447-2.308z"/><path fill="#C0AD9E" d="m10.05 15.35.021-.63-.17-.148h-2.55l-.156.149.013.63-2.132-1.01.745.61L7.33 16h2.592l1.516-1.05.745-.608z"/><path fill="#161616" d="m9.889 13.225-.325-.223H7.689l-.325.223-.17 1.496.156-.15h2.552l.17.15z"/><path fill="#763D16" d="m16.683 5.327.576-2.762L16.399 0 9.89 4.832l2.503 2.119 3.54 1.035.785-.913-.338-.244.541-.494-.42-.325.542-.413zM0 2.565l.575 2.762-.365.27.541.413-.413.325.542.494-.339.244.779.913 3.54-1.035 2.504-2.119L.853 0z"/><path fill="#F6851B" d="m15.932 7.987-3.54-1.036L13.47 8.57l-1.604 3.113 2.111-.027h3.148zM4.86 6.951 1.32 7.987.142 11.655h3.14l2.105.027L3.79 8.57zM9.665 8.738l.223-3.905 1.03-2.782h-4.57l1.016 2.782.237 3.905.081 1.232.007 3.032h1.875l.013-3.032z"/></svg>