<svg xmlns="http://www.w3.org/2000/svg" width="32" height="32" viewBox="0 0 32 32" fill="none">
  <g clip-path="url(#clip0_3595_2659)">
    <path d="M32 16C32 24.8366 24.8366 32 16 32C7.16344 32 0 24.8366 0 16C0 7.16344 7.16344 0 16 0C24.8366 0 32 7.16344 32 16Z" fill="white"/>
    <path d="M8.23212 15.9998C8.23212 16.9326 7.46377 17.6887 6.51596 17.6887C5.56815 17.6887 4.7998 16.9326 4.7998 15.9998C4.7998 15.0671 5.56815 14.3109 6.51596 14.3109C7.46377 14.3109 8.23212 15.0671 8.23212 15.9998Z" fill="#181B2B"/>
    <path d="M25.4836 17.6887C26.4315 17.6887 27.1998 16.9326 27.1998 15.9998C27.1998 15.0671 26.4315 14.3109 25.4836 14.3109C24.5358 14.3109 23.7675 15.0671 23.7675 15.9998C23.7675 16.9326 24.5358 17.6887 25.4836 17.6887Z" fill="#181B2B"/>
    <path d="M19.427 9.61276C17.9858 8.85812 16.3807 8.61933 15.0295 8.93638C13.6534 9.25927 12.4594 10.2029 12.2373 11.7788C12.053 13.0857 12.4475 14.1079 13.132 14.9163C13.7702 15.6701 14.6549 16.2268 15.4042 16.6884C16.2102 17.1848 16.8786 17.5829 17.3733 18.0655C17.8278 18.5089 18.0711 18.9646 18.0711 19.573C18.0711 20.2559 17.8618 20.6083 17.641 20.8093C17.3973 21.0312 17.0055 21.1891 16.4524 21.228C15.3127 21.3081 13.9229 20.8499 13.1547 20.2645L11.935 21.8169C13.0792 22.6888 14.9509 23.3014 16.5944 23.1858C17.433 23.1268 18.3133 22.8702 18.9938 22.2507C19.6972 21.6105 20.0642 20.6949 20.0642 19.573C20.0642 18.3143 19.5061 17.3834 18.776 16.6712C18.0862 15.9981 17.1871 15.4714 16.4611 15.0242C15.6785 14.5422 15.0668 14.1365 14.6627 13.6593C14.3049 13.2367 14.1112 12.7595 14.2114 12.0487C14.2939 11.4636 14.7066 11.0299 15.4914 10.8457C16.3011 10.6558 17.4112 10.7802 18.4914 11.3458L19.427 9.61276Z" fill="#181B2B"/>
    <path fill-rule="evenodd" clip-rule="evenodd" d="M16 30.8333C24.1922 30.8333 30.8333 24.1922 30.8333 16C30.8333 7.80778 24.1922 1.16667 16 1.16667C7.80778 1.16667 1.16667 7.80778 1.16667 16C1.16667 24.1922 7.80778 30.8333 16 30.8333ZM32 16C32 24.8366 24.8366 32 16 32C7.16344 32 0 24.8366 0 16C0 7.16344 7.16344 0 16 0C24.8366 0 32 7.16344 32 16Z" fill="#D2D6E7"/>
  </g>
  <defs>
    <clipPath id="clip0_3595_2659">
      <rect width="32" height="32" fill="white"/>
    </clipPath>
  </defs>
</svg>
