<svg xmlns="http://www.w3.org/2000/svg" width="30" height="28" fill="none"><path fill="#FFDA00" d="M16.042 28h-2.084C6.252 28 0 21.792 0 14.14v-.28C0 6.208 6.252 0 13.958 0h2.084C23.748 0 30 6.208 30 13.86v.28C30 21.792 23.748 28 16.042 28"/><path fill="#fff" d="M1.887 10.799c-.043 0-.087 0-.13-.022a.48.48 0 0 1-.326-.582c1.172-4.009 4.255-7.22 8.206-8.622a.46.46 0 0 1 .586.28.456.456 0 0 1-.282.582c-3.67 1.294-6.534 4.29-7.62 7.997a.42.42 0 0 1-.434.367"/><path fill="#FCB813" d="M22.185 1.4c3.364 2.523 5.557 6.554 5.557 11.059v.28c0 7.652-6.252 13.86-13.958 13.86H11.7a14.34 14.34 0 0 1-6.143-1.401 14.04 14.04 0 0 0 8.4 2.802h2.084C23.748 28 30 21.792 30 14.14v-.28c0-5.475-3.192-10.196-7.815-12.46"/><path fill="#3D3813" d="M9.508 8.687h-.022c-.846 0-1.52.668-1.52 1.509v1.185c0 .841.674 1.51 1.52 1.51h.022c.847 0 1.52-.669 1.52-1.51v-1.185c0-.82-.695-1.509-1.52-1.509M20.535 8.687h-.021c-.847 0-1.52.668-1.52 1.509v1.185c0 .841.673 1.51 1.52 1.51h.021c.847 0 1.52-.669 1.52-1.51v-1.185c0-.82-.695-1.509-1.52-1.509M21.75 18.732H8.247a.683.683 0 0 1-.694-.69c0-.388.304-.69.694-.69H21.75c.39 0 .694.302.694.69s-.304.69-.694.69"/></svg>