<svg xmlns="http://www.w3.org/2000/svg" width="30" height="28" fill="none"><path fill="#FFDA00" d="M16.042 28h-2.084C6.252 28 0 21.792 0 14.14v-.28C0 6.208 6.252 0 13.958 0h2.084C23.748 0 30 6.208 30 13.86v.28C30 21.792 23.748 28 16.042 28"/><path fill="#fff" d="M1.887 10.799c-.043 0-.087 0-.13-.022a.48.48 0 0 1-.326-.582c1.172-4.009 4.255-7.22 8.206-8.622a.46.46 0 0 1 .586.28.456.456 0 0 1-.282.582c-3.67 1.294-6.534 4.29-7.62 7.997a.42.42 0 0 1-.434.367"/><path fill="#FCB813" d="M22.185 1.4c3.364 2.523 5.557 6.554 5.557 11.059v.28c0 7.652-6.252 13.86-13.958 13.86H11.7a14.34 14.34 0 0 1-6.143-1.401 14.04 14.04 0 0 0 8.4 2.802h2.084C23.748 28 30 21.792 30 14.14v-.28c0-5.475-3.192-10.196-7.815-12.46"/><path fill="#3D3813" d="M20.883 13.407c-1.52 0-2.713-1.185-2.713-2.651v-.41c0-.387.304-.69.695-.69s.694.303.694.69v.41c0 .711.565 1.272 1.281 1.272.738 0 1.324-.56 1.324-1.272v-.41c0-.387.304-.69.695-.69s.694.303.694.69v.41c0 1.444-1.194 2.651-2.67 2.651M9.16 13.407c-1.519 0-2.713-1.185-2.713-2.651v-.41c0-.387.304-.69.695-.69s.695.303.695.69v.41c0 .711.564 1.272 1.28 1.272.738 0 1.324-.56 1.324-1.272v-.41c0-.387.304-.69.695-.69s.695.303.695.69v.41c.021 1.444-1.172 2.651-2.67 2.651M21.012 20.865a.68.68 0 0 1-.652-.43c-.043-.13-1.324-2.975-5.361-2.975-4.038 0-5.319 2.845-5.362 2.974a.704.704 0 0 1-.912.367.695.695 0 0 1-.369-.906c.065-.15 1.65-3.836 6.664-3.836 5.015 0 6.6 3.664 6.665 3.836.152.345-.022.755-.391.906a.8.8 0 0 1-.282.064"/></svg>