<svg width="16" height="16" fill="none" xmlns="http://www.w3.org/2000/svg"><mask id="a" width="16" height="16" x="0" y="0" maskUnits="userSpaceOnUse"><circle cx="8" cy="8" r="8" fill="#fff"/></mask><circle cx="8" cy="8" r="7" fill="#DDE2F2"/><mask id="b" width="14" height="14" x="1" y="1" maskUnits="userSpaceOnUse"><path fill="#7C83A2" fill-rule="evenodd" d="M8 15A7 7 0 108 1a7 7 0 000 14zm0 0c-3.4 0-6.1-3.1-6.1-7S4.6 1 8 1c3.4 0 6.1 3.1 6.1 7s-2.7 7-6.1 7z" clip-rule="evenodd"/></mask><g mask="url(#a)"><g mask="url(#b)"><path fill="#7C83A2" d="M1 1h7v14H1z"/></g><g><animateTransform attributeName="transform" type="translate" from="0 -20" to="0 5" begin="-2.3s" dur="4s" repeatCount="indefinite"/><path fill="#9FAAC4" d="M6.58 12.97a.39.39 0 100-.78.39.39 0 000 .78z"/><path fill="#2F354D" d="M6.58 12a.58.58 0 100 1.16.58.58 0 000-1.16zm0 .78a.2.2 0 110-.4.2.2 0 010 .4z"/></g><circle cx="15" cy="8" r="1.6" stroke="#2F354D" stroke-width=".8"><animateTransform attributeName="transform" type="translate" from="0 -7" to="0 7" begin="-2s" dur="4s" repeatCount="indefinite"/></circle><circle cx="2" cy="11" r="1.6" stroke="#2F354D" stroke-width=".8"><animateTransform attributeName="transform" type="translate" from="0 -13" to="0 4" begin="-2s" dur="4s" repeatCount="indefinite"/></circle><path fill="#9FAAC4" stroke="#2F354D" stroke-width=".8" d="M5.8 6.8a1 1 0 100-2 1 1 0 000 2z"><animateTransform attributeName="transform" type="translate" from="0 -15" to="0 10" begin="-2s" dur="4s" repeatCount="indefinite"/></path><path fill="#9FAAC4" stroke="#2F354D" stroke-width=".8" d="M7.5 17.4a.9.9 0 100-1.8.9.9 0 000 1.8z"><animateTransform attributeName="transform" type="translate" from="0 -22" to="0 3" begin="-3.8s" dur="4s" repeatCount="indefinite"/></path><path fill="#9FAAC4" stroke="#2F354D" stroke-width=".8" d="M9.9 11.2a1.3 1.3 0 100-2.6 1.3 1.3 0 000 2.6z"><animateTransform attributeName="transform" type="translate" from="0 -17" to="0 8" begin="-3.4s" dur="4s" repeatCount="indefinite"/></path><path fill="#9FAAC4" stroke="#2F354D" stroke-width=".8" d="M10.35 4.1a1.75 1.75 0 100-3.5 1.75 1.75 0 000 3.5z"><animateTransform attributeName="transform" type="translate" from="0 -2" to="0 23" begin="-3.4s" dur="4s" repeatCount="indefinite"/></path><circle cx="8" cy="8" r="7.5" stroke="#2F354D"/></g></svg>
