<?xml version="1.0" encoding="utf-8"?><svg xmlns="http://www.w3.org/2000/svg" xmlns:xlink="http://www.w3.org/1999/xlink"><symbol viewBox="0 0 16 16" id="0"><path fill-rule="evenodd" d="M7.05 9.7a.5.5 0 0 0 .58-.81 3.25 3.25 0 0 1-.32-5.04l2.13-1.97a3.32 3.32 0 0 1 4.67.16 3.25 3.25 0 0 1-.16 4.62l-2.12 1.97a.5.5 0 0 0 .68.73l2.12-1.96a4.25 4.25 0 0 0 .21-6.04 4.32 4.32 0 0 0-6.08-.21L6.64 3.12a4.25 4.25 0 0 0 .41 6.58m1.9-3.4a.5.5 0 0 0-.58.81 3.25 3.25 0 0 1 .32 5.04l-2.13 1.97a3.32 3.32 0 0 1-4.67-.16 3.25 3.25 0 0 1 .16-4.62l2.12-1.97a.5.5 0 0 0-.68-.73L1.37 8.6a4.25 4.25 0 0 0-.21 6.04 4.32 4.32 0 0 0 6.08.21l2.12-1.97a4.25 4.25 0 0 0-.41-6.58" clip-rule="evenodd"/></symbol></svg>