<svg xmlns="http://www.w3.org/2000/svg" width="17" height="18" fill="none"><path fill="var(--porcelain,#E7EAF3)" fill-rule="evenodd" d="M5.94 2.058a7.638 7.638 0 0 0 7.838 13.111l-.904-1.437a.75.75 0 1 1 1.27-.8l1.294 2.058c.08.127.117.27.115.409a.75.75 0 0 1-.32.622A9.138 9.138 0 1 1 5.858.383.75.75 0 0 1 6.21.3a.75.75 0 0 1 .66.373l1.376 2.364a.75.75 0 0 1-1.297.755z" clip-rule="evenodd"/><path fill="var(--black,#2F354D)" fill-rule="evenodd" d="M14.893 8.331a4.565 4.565 0 0 1-8.025 2.98l3.488-2.23a.75.75 0 1 0-.807-1.263l-3.46 2.21a4.566 4.566 0 1 1 8.805-1.698Zm1.5 0a6.065 6.065 0 1 1-12.13 0 6.065 6.065 0 0 1 12.13 0" clip-rule="evenodd"/></svg>