<svg xmlns="http://www.w3.org/2000/svg" width="19" height="18" fill="none"><path fill="var(--porcelain,#E7EAF3)" fill-rule="evenodd" d="M11.35 1.25a.75.75 0 0 1 .96-.44 8.73 8.73 0 0 1 0 16.38.75.75 0 1 1-.52-1.4 7.23 7.23 0 0 0 0-13.58.75.75 0 0 1-.44-.96m-4.08 0a.75.75 0 0 1-.44.96 7.23 7.23 0 0 0 0 13.57.75.75 0 1 1-.52 1.41 8.73 8.73 0 0 1 0-16.38c.4-.15.82.05.96.44" clip-rule="evenodd"/><path fill="var(--black,#2F354D)" fill-rule="evenodd" d="M6.09 6.4a.75.75 0 0 0 0 1.5h6.16a.75.75 0 0 0 0-1.5zm0 4.12a.75.75 0 1 0 0 1.5h6.16a.75.75 0 0 0 0-1.5z" clip-rule="evenodd"/></svg>