<svg width="24" height="24" viewBox="0 0 24 24" fill="none" xmlns="http://www.w3.org/2000/svg">
<path fill-rule="evenodd" clip-rule="evenodd" d="M8.39785 5.91779C8.62855 5.76603 8.69256 5.45599 8.54081 5.22528C8.38905 4.99458 8.07901 4.93057 7.8483 5.08232C5.53221 6.60579 4 9.1305 4 12.0019C4 14.8705 5.52928 17.3931 7.84165 18.917C8.07223 19.069 8.38233 19.0053 8.53428 18.7747C8.68624 18.5441 8.6225 18.234 8.39193 18.0821C6.33035 16.7234 5 14.4999 5 12.0019C5 9.50146 6.3329 7.27606 8.39785 5.91779ZM16.1523 5.08232C15.9216 4.93057 15.6116 4.99458 15.4598 5.22528C15.3081 5.45599 15.3721 5.76603 15.6028 5.91779C17.6677 7.27606 19.0006 9.50146 19.0006 12.0019C19.0006 14.4999 17.6703 16.7234 15.6087 18.0821C15.3781 18.234 15.3144 18.5441 15.4664 18.7747C15.6183 19.0053 15.9284 19.069 16.159 18.917C18.4714 17.3931 20.0006 14.8705 20.0006 12.0019C20.0006 9.1305 18.4684 6.60579 16.1523 5.08232ZM14.2146 11.9998C14.2146 13.2527 13.2129 14.2496 12.0002 14.2496C10.7875 14.2496 9.78577 13.2527 9.78577 11.9998C9.78577 10.7468 10.7875 9.74988 12.0002 9.74988C13.2129 9.74988 14.2146 10.7468 14.2146 11.9998ZM15.2146 11.9998C15.2146 13.7946 13.7755 15.2496 12.0002 15.2496C10.2249 15.2496 8.78577 13.7946 8.78577 11.9998C8.78577 10.2049 10.2249 8.74988 12.0002 8.74988C13.7755 8.74988 15.2146 10.2049 15.2146 11.9998Z" fill="#FF6363"/>
</svg>
