<svg width="24" height="24" viewBox="0 0 24 24" fill="none" xmlns="http://www.w3.org/2000/svg">
<path fill-rule="evenodd" clip-rule="evenodd" d="M5 4.49854C5 4.22239 4.77614 3.99854 4.5 3.99854C4.22386 3.99854 4 4.22239 4 4.49854V19.1968C4 19.6251 4.34045 19.9992 4.79306 19.9992H19.5006C19.7768 19.9992 20.0006 19.7753 20.0006 19.4992C20.0006 19.223 19.7768 18.9992 19.5006 18.9992H5V4.49854ZM19.4705 5.17727C19.5738 4.92118 19.45 4.62982 19.1939 4.5265C18.9378 4.42317 18.6465 4.547 18.5432 4.80308L15.7231 11.7922L10.3006 9.47785C10.0535 9.37241 9.76735 9.48098 9.6524 9.72373L6.68489 15.9906C6.56671 16.2402 6.67322 16.5383 6.9228 16.6565C7.17238 16.7747 7.4705 16.6682 7.58868 16.4186L10.3504 10.5864L15.7996 12.9121C15.9232 12.9649 16.0627 12.9657 16.1869 12.9144C16.311 12.863 16.4093 12.7639 16.4596 12.6394L19.4705 5.17727Z" fill="#14C393"/>
</svg>
