<!--{
  "category": "Action"
}-->
<svg width="20" height="20" viewBox="0 0 20 20" fill="none" xmlns="http://www.w3.org/2000/svg">
  <path fill-rule="evenodd" clip-rule="evenodd"
    d="M12.1458 7.85294C11.9509 7.65734 11.9515 7.34076 12.1471 7.14584L18.314 1.00037L13.5 1.00038C13.2239 1.00038 13 0.776524 13 0.500381C13 0.224239 13.2239 0.000380921 13.5 0.000380468L19.5 0.000366211C19.6326 0.000365746 19.7598 0.0530439 19.8536 0.146812C19.9473 0.240581 20 0.367758 20 0.500366V6.50467C20 6.78081 19.7761 7.00467 19.5 7.00467C19.2239 7.00467 19 6.78081 19 6.50467V1.72847L12.8529 7.85417C12.6573 8.0491 12.3408 8.04855 12.1458 7.85294ZM7.85417 12.1471C8.04909 12.3427 8.04854 12.6593 7.85294 12.8542L1.68605 18.9996L6.5 18.9996C6.77614 18.9996 7 19.2235 7 19.4996C7 19.7758 6.77614 19.9996 6.5 19.9996L0.5 19.9996C0.367393 19.9996 0.240216 19.947 0.146447 19.8532C0.0526786 19.7594 0 19.6323 0 19.4996V13.4953C0 13.2192 0.223858 12.9953 0.5 12.9953C0.776142 12.9953 1 13.2192 1 13.4953V18.2715L7.14706 12.1458C7.34266 11.9509 7.65925 11.9515 7.85417 12.1471Z"
    fill="#505573" />
</svg>