<svg width="32" height="32" viewBox="0 0 32 32" fill="none" xmlns="http://www.w3.org/2000/svg">
<path fill-rule="evenodd" clip-rule="evenodd" d="M10.5 10.0008C10.2239 10.0008 10 10.2247 10 10.5008V21.4992C10 21.7754 10.2239 21.9992 10.5 21.9992H21.4697C21.7458 21.9992 21.9697 21.7754 21.9697 21.4992V16.8859C21.9697 16.6097 21.7458 16.3859 21.4697 16.3859C21.1935 16.3859 20.9697 16.6097 20.9697 16.8859V20.9992H11V11.0008H15.1261C15.4022 11.0008 15.6261 10.7769 15.6261 10.5008C15.6261 10.2247 15.4022 10.0008 15.1261 10.0008H10.5ZM17.9631 10.0008C17.687 10.0008 17.4631 10.2247 17.4631 10.5008C17.4631 10.7769 17.687 11.0008 17.9631 11.0008H20.2994L14.0715 17.1829C13.8755 17.3774 13.8743 17.694 14.0689 17.89C14.2634 18.086 14.58 18.0871 14.776 17.8926L20.9697 11.7444V14.1692C20.9697 14.4453 21.1935 14.6692 21.4697 14.6692C21.7458 14.6692 21.9697 14.4453 21.9697 14.1692V10.6863C22.0348 10.5095 21.9968 10.3032 21.8554 10.1607C21.8009 10.1059 21.7369 10.0663 21.6687 10.042C21.6077 10.0155 21.5404 10.0008 21.4697 10.0008H17.9631Z" fill="#7A859E"/>
</svg>
