<svg width="32" height="32" viewBox="0 0 32 32" fill="none" xmlns="http://www.w3.org/2000/svg">
<path d="M0 6C0 2.68629 2.68629 0 6 0H26C29.3137 0 32 2.68629 32 6V26C32 29.3137 29.3137 32 26 32H6C2.68629 32 0 29.3137 0 26V6Z" fill="#FFF3E4"/>
<path fill-rule="evenodd" clip-rule="evenodd" d="M10 9H22V19.8788H10V9ZM10 20.8788H22V23H10V20.8788ZM9 9C9 8.44772 9.44772 8 10 8H22C22.5523 8 23 8.44772 23 9V23C23 23.5523 22.5523 24 22 24H10C9.44772 24 9 23.5523 9 23V9ZM12.7004 12.0422C12.4243 12.0422 12.2004 12.266 12.2004 12.5422C12.2004 12.8183 12.4243 13.0422 12.7004 13.0422H19.5833C19.8595 13.0422 20.0833 12.8183 20.0833 12.5422C20.0833 12.266 19.8595 12.0422 19.5833 12.0422H12.7004ZM12.7004 16.1785C12.4243 16.1785 12.2004 16.4023 12.2004 16.6785C12.2004 16.9546 12.4243 17.1785 12.7004 17.1785H17.0933C17.3694 17.1785 17.5933 16.9546 17.5933 16.6785C17.5933 16.4023 17.3694 16.1785 17.0933 16.1785H12.7004Z" fill="#FFAD4D"/>
</svg>
