<svg width="27" height="24" fill="none" xmlns="http://www.w3.org/2000/svg"><path fill-rule="evenodd" clip-rule="evenodd" d="M.5 3.85l.86 4.14-.55.4.82.63L1 9.5l.81.74-.5.37 1.16 1.37-1.77 5.5 1.65 5.62L8.1 21.5l1.12.92L11.5 24h3.9l2.27-1.57 1.11-.92 5.76 1.59 1.66-5.62-1.8-5.5 1.19-1.37-.51-.37.81-.74-.63-.48.81-.62-.53-.41.86-4.14L25.09 0l-8.22 3.08h-6.85L1.78 0 .5 3.85z" fill="#F6851B"/><path d="M25.1 0L15 7.5l1.87-4.42L25.1 0z" fill="#E2761B"/><path d="M1.78 0L11.8 7.57l-1.78-4.5L1.78 0zM21.46 17.4l-2.69 4.11 5.76 1.59 1.66-5.62-4.73-.09zM.71 17.48l1.65 5.62L8.1 21.5 5.42 17.4l-4.7.1z" fill="#E4761B"/><path d="M7.79 10.43l-1.6 2.42 5.71.26-.2-6.15-3.91 3.47zM19.09 10.43l-3.96-3.54-.13 6.22 5.7-.26-1.61-2.42zM8.11 21.51l3.44-1.67-2.97-2.32-.47 4zM15.33 19.84l3.44 1.67-.47-3.99-2.97 2.32z" fill="#E4761B"/><path d="M18.77 21.51l-3.44-1.67.28 2.24-.03.95 3.2-1.52zM8.11 21.51l3.2 1.52-.02-.95.26-2.24L8.1 21.5z" fill="#D7C1B3"/><path d="M11.36 16.04L8.5 15.2l2.02-.93.84 1.77zM15.52 16.04l.84-1.77 2.03.93-2.87.84z" fill="#233447"/><path d="M8.11 21.51l.5-4.12-3.19.1 2.7 4.02zM18.29 17.4l.48 4.11 2.7-4.03-3.18-.09zM20.7 12.85l-5.7.26.53 2.93.84-1.77 2.03.93 2.3-2.35zM8.5 15.2l2.03-.93.83 1.77.54-2.93-5.71-.26L8.5 15.2z" fill="#CD6116"/><path d="M6.19 12.85l2.4 4.67-.09-2.32-2.31-2.35zM18.4 15.2l-.1 2.32 2.4-4.67-2.3 2.35zM11.9 13.1l-.54 2.94.67 3.46.16-4.56-.29-1.83zM15 13.1l-.28 1.83.13 4.57.68-3.46-.53-2.93z" fill="#E4751F"/><path d="M15.53 16.04l-.68 3.46.48.34 2.97-2.32.1-2.32-2.87.84zM8.5 15.2l.08 2.32 2.97 2.32.48-.34-.67-3.46-2.86-.84z" fill="#F6851B"/><path d="M15.58 23.03l.03-.95-.26-.22h-3.82l-.24.22.02.95-3.2-1.52 1.12.92L11.5 24h3.9l2.27-1.57 1.11-.92-3.2 1.52z" fill="#C0AD9E"/><path d="M15.33 19.84l-.48-.34h-2.82l-.48.34-.26 2.24.24-.22h3.82l.26.22-.28-2.24z" fill="#161616"/><path d="M25.53 7.99l.86-4.14L25.09 0l-9.76 7.25 3.76 3.18 5.3 1.55 1.19-1.37-.51-.37.81-.74-.63-.48.81-.62-.53-.41zM.5 3.85l.86 4.14-.55.4.82.63L1 9.5l.81.74-.5.37 1.16 1.37 5.3-1.55 3.77-3.18L1.78 0 .5 3.85z" fill="#763D16"/><path d="M24.4 11.98l-5.31-1.55 1.61 2.42-2.4 4.67 3.16-.04h4.73l-1.8-5.5zM7.79 10.43l-5.31 1.55-1.77 5.5h4.71l3.16.04-2.4-4.67 1.61-2.42zM15 13.1l.33-5.85 1.55-4.17h-6.86l1.53 4.17.35 5.86.12 1.84.01 4.55h2.82l.02-4.55.13-1.84z" fill="#F6851B"/></svg>
