<svg width="32" height="32" viewBox="0 0 32 32" fill="none" xmlns="http://www.w3.org/2000/svg">
<path d="M0 6C0 2.68629 2.68629 0 6 0H26C29.3137 0 32 2.68629 32 6V26C32 29.3137 29.3137 32 26 32H6C2.68629 32 0 29.3137 0 26V6Z" fill="#ECF0FE"/>
<path fill-rule="evenodd" clip-rule="evenodd" d="M13.3132 7.99927C12.4847 7.99927 11.8132 8.67084 11.8132 9.49927V15.9956L11.8039 15.9956H9.00049C8.4482 15.9956 8.00049 16.4433 8.00049 16.9956V21.5839C8.00049 22.8986 9.05682 23.9666 10.367 23.9854V24.0008H20.4994C22.4324 24.0008 23.9994 22.4338 23.9994 20.5008V9.49927C23.9994 8.67084 23.3278 7.99927 22.4994 7.99927H13.3132ZM12.3417 23.0008H20.4994C21.8801 23.0008 22.9994 21.8815 22.9994 20.5008V9.49927C22.9994 9.22313 22.7755 8.99927 22.4994 8.99927H13.3132C13.037 8.99927 12.8132 9.22312 12.8132 9.49927V21.8009H12.7942C12.7543 22.2472 12.5922 22.6584 12.3417 23.0008ZM9.00049 16.9956H11.8039L11.8039 21.5839C11.8039 22.3581 11.1763 22.9856 10.4022 22.9856C9.62806 22.9856 9.00049 22.3581 9.00049 21.5839V16.9956ZM14.9458 11.9115C14.9458 11.6354 15.1697 11.4115 15.4458 11.4115H20.5451C20.8213 11.4115 21.0451 11.6354 21.0451 11.9115C21.0451 12.1876 20.8213 12.4115 20.5451 12.4115H15.4458C15.1697 12.4115 14.9458 12.1876 14.9458 11.9115ZM15.4458 14.3024C15.1697 14.3024 14.9458 14.5262 14.9458 14.8024C14.9458 15.0785 15.1697 15.3024 15.4458 15.3024H20.5451C20.8213 15.3024 21.0451 15.0785 21.0451 14.8024C21.0451 14.5262 20.8213 14.3024 20.5451 14.3024H15.4458ZM14.9458 17.5875C14.9458 17.3114 15.1697 17.0875 15.4458 17.0875H20.5451C20.8213 17.0875 21.0451 17.3114 21.0451 17.5875C21.0451 17.8637 20.8213 18.0875 20.5451 18.0875H15.4458C15.1697 18.0875 14.9458 17.8637 14.9458 17.5875ZM15.4458 20.0136C15.1697 20.0136 14.9458 20.2375 14.9458 20.5136C14.9458 20.7898 15.1697 21.0136 15.4458 21.0136H17.3704C17.6466 21.0136 17.8704 20.7898 17.8704 20.5136C17.8704 20.2375 17.6466 20.0136 17.3704 20.0136H15.4458Z" fill="#5275FF"/>
</svg>
