<!--{
  "category": "Arrow"
}-->
<svg width="10" height="5" viewBox="0 0 10 5" fill="none" xmlns="http://www.w3.org/2000/svg">
<path fill-rule="evenodd" clip-rule="evenodd" d="M0.5 1.99915C0.223858 1.99915 9.71706e-08 2.223 1.09241e-07 2.49915C1.21312e-07 2.77529 0.223858 2.99915 0.5 2.99915L8.14616 2.99915L6.83942 4.11906C6.62975 4.29875 6.60545 4.6144 6.78515 4.82408C6.96484 5.03375 7.28049 5.05805 7.49017 4.87836L9.82305 2.87901C9.93389 2.78402 9.99768 2.64533 9.99768 2.49936C9.99768 2.35338 9.93389 2.2147 9.82305 2.11971L7.49017 0.120359C7.28049 -0.0593383 6.96484 -0.0350367 6.78515 0.174638C6.60545 0.384313 6.62975 0.699961 6.83942 0.879659L8.14567 1.99915L0.5 1.99915Z" fill="#14C393"/>
</svg>
