<svg width="24" height="24" viewBox="0 0 24 24" fill="none" xmlns="http://www.w3.org/2000/svg">
<path fill-rule="evenodd" clip-rule="evenodd" d="M9.85775 5H5.00061L5.00061 9.85714L9.85775 9.85714L9.85775 5ZM5.00061 4C4.44833 4 4.00061 4.44771 4.00061 5V9.85714C4.00061 10.4094 4.44833 10.8571 5.00061 10.8571H9.85775C10.41 10.8571 10.8578 10.4094 10.8578 9.85714V5C10.8578 4.44772 10.41 4 9.85775 4H5.00061ZM19.0006 5H14.1435L14.1435 9.85714L19.0006 9.85714L19.0006 5ZM14.1435 4C13.5912 4 13.1435 4.44771 13.1435 5V9.85714C13.1435 10.4094 13.5912 10.8571 14.1435 10.8571H19.0006C19.5529 10.8571 20.0006 10.4094 20.0006 9.85714V5C20.0006 4.44772 19.5529 4 19.0006 4H14.1435ZM4 16.5C4 16.2239 4.22386 16 4.5 16H19.5C19.7761 16 20 16.2239 20 16.5C20 16.7761 19.7761 17 19.5 17H4.5C4.22386 17 4 16.7761 4 16.5ZM4.5 13C4.22386 13 4 13.2239 4 13.5C4 13.7761 4.22386 14 4.5 14H19.5C19.7761 14 20 13.7761 20 13.5C20 13.2239 19.7761 13 19.5 13H4.5ZM4 19.5C4 19.2239 4.22386 19 4.5 19H19.5C19.7761 19 20 19.2239 20 19.5C20 19.7761 19.7761 20 19.5 20H4.5C4.22386 20 4 19.7761 4 19.5Z" fill="#5275FF"/>
</svg>
