<svg width="40" height="40" viewBox="0 0 40 40" fill="none" xmlns="http://www.w3.org/2000/svg">
<path fill-rule="evenodd" clip-rule="evenodd" d="M24.2454 16.5C25.2119 16.5 25.9954 15.7165 25.9954 14.75C25.9954 13.7835 25.2119 13 24.2454 13C23.2789 13 22.4954 13.7835 22.4954 14.75C22.4954 15.7165 23.2789 16.5 24.2454 16.5ZM24.2454 17.5C25.7642 17.5 26.9954 16.2688 26.9954 14.75C26.9954 13.2312 25.7642 12 24.2454 12C22.7266 12 21.4954 13.2312 21.4954 14.75C21.4954 15.079 21.5532 15.3944 21.6591 15.6868L17.9624 18.1524C17.4615 17.4752 16.657 17.0361 15.75 17.0361C14.2312 17.0361 13 18.2673 13 19.7861C13 21.3049 14.2312 22.5361 15.75 22.5361C16.358 22.5361 16.9199 22.3388 17.3752 22.0047L21.5618 24.5612C21.5057 24.78 21.4759 25.0094 21.4759 25.2457C21.4759 26.7645 22.7071 27.9957 24.2259 27.9957C25.7447 27.9957 26.9759 26.7645 26.9759 25.2457C26.9759 23.7269 25.7447 22.4957 24.2259 22.4957C23.3025 22.4957 22.4854 22.9508 21.9867 23.6489L18.0727 21.259C18.3433 20.8332 18.5 20.3279 18.5 19.7861C18.5 19.5349 18.4663 19.2916 18.4032 19.0604L22.1666 16.5504C22.6708 17.1321 23.4152 17.5 24.2454 17.5ZM15.75 18.0361C16.31 18.0361 16.8085 18.2991 17.1288 18.7083L17.1128 18.7191L17.3481 19.072C17.4457 19.29 17.5 19.5317 17.5 19.7861C17.5 20.7526 16.7165 21.5361 15.75 21.5361C14.7835 21.5361 14 20.7526 14 19.7861C14 18.8196 14.7835 18.0361 15.75 18.0361ZM25.9759 25.2457C25.9759 26.2122 25.1924 26.9957 24.2259 26.9957C23.2594 26.9957 22.4759 26.2122 22.4759 25.2457C22.4759 24.2792 23.2594 23.4957 24.2259 23.4957C25.1924 23.4957 25.9759 24.2792 25.9759 25.2457Z" fill="#7A859E"/>
</svg>
