<svg width="32" height="32" viewBox="0 0 32 32" fill="none" xmlns="http://www.w3.org/2000/svg">
<path d="M0 6C0 2.68629 2.68629 0 6 0H26C29.3137 0 32 2.68629 32 6V26C32 29.3137 29.3137 32 26 32H6C2.68629 32 0 29.3137 0 26V6Z" fill="#F5F4FF"/>
<path fill-rule="evenodd" clip-rule="evenodd" d="M20.938 20.7065C20.979 20.5374 21.0634 20.3819 21.1829 20.2554C22.3159 19.056 23 17.4692 23 15.7312C23 12.0456 19.8985 9 16 9C12.1015 9 9 12.0456 9 15.7312C9 19.4908 12.1661 22.7578 15.9224 22.4654C16.1499 22.4477 16.4511 22.3761 16.7518 22.289C16.9326 22.2366 17.1223 22.1727 17.2947 22.1245L17.2972 22.1237C17.318 22.1177 17.4465 22.0802 17.5819 22.0727C17.7146 22.0654 17.8239 22.0875 17.8409 22.0909C18.0069 22.1243 18.1557 22.1786 18.3602 22.2493C18.5866 22.3275 18.8769 22.4319 19.1662 22.5372C19.6691 22.7202 20.1822 22.9112 20.3806 22.9852C20.3857 22.9756 20.391 22.9625 20.3952 22.9451L20.938 20.7065ZM21.9099 20.9421L21.367 23.1808C21.2231 23.7744 20.6691 24.1228 20.1353 23.96C20.1224 23.956 20.1111 23.952 20.0984 23.9473C19.8823 23.8665 17.7369 23.0657 17.6371 23.0712C17.5319 23.077 16.6695 23.4103 16 23.4624C11.5926 23.8055 8 20.001 8 15.7312C8 11.4614 11.5817 8 16 8C20.4183 8 24 11.4614 24 15.7312C24 17.7388 23.2082 19.5677 21.9099 20.9421ZM12 14.0002C12 13.7241 12.2239 13.5002 12.5 13.5002H19.4998C19.7759 13.5002 20 13.7241 20 14.0002C20 14.2764 19.7761 14.5002 19.4999 14.5002H12.5C12.2239 14.5002 12 14.2764 12 14.0002ZM12.5 17.4998C12.2239 17.4998 12 17.7236 12 17.9998C12 18.2759 12.2239 18.4998 12.5 18.4998H19.5C19.7761 18.4998 20 18.2759 20 17.9998C20 17.7236 19.7761 17.4998 19.5 17.4998H12.5Z" fill="#8358FF"/>
</svg>
