<svg width="12" height="12" viewBox="0 0 12 12" fill="none" xmlns="http://www.w3.org/2000/svg">
  <path
    d="M6.43087 0.834631L6.2596 0.198926C6.18819 -0.0663087 5.81181 -0.0663087 5.7404 0.198926L5.56913 0.834631C4.94738 3.14389 3.14389 4.94738 0.83463 5.56913L0.198926 5.7404C-0.0663087 5.81181 -0.0663087 6.18819 0.198926 6.2596L0.83463 6.43087C3.14389 7.05262 4.94738 8.85665 5.56913 11.1654L5.7404 11.8011C5.81181 12.0663 6.18819 12.0663 6.2596 11.8011L6.43087 11.1654C7.05262 8.85611 8.85611 7.05262 11.1654 6.43087L11.8011 6.2596C12.0663 6.18819 12.0663 5.81181 11.8011 5.7404L11.1654 5.56913C8.85611 4.94738 7.05262 3.14389 6.43087 0.834631Z"
    fill="#FBB80D" />
</svg>