<svg width="37" height="12" viewBox="0 0 37 12" fill="none" xmlns="http://www.w3.org/2000/svg">
<path d="M1 5.5L4.75 10L11.5 2.5" stroke="white" stroke-linecap="round" stroke-linejoin="round"/>
<path fill-rule="evenodd" clip-rule="evenodd" d="M36.393 0.14778C36.5513 0.326562 36.5317 0.597158 36.3491 0.752172L33.2083 3.41868C34.1142 4.13145 34.9496 4.97368 35.5386 5.74089L35.7362 5.99833L35.5386 6.25576C34.854 7.14761 33.8363 8.14082 32.762 8.91423C31.7074 9.67348 30.5134 10.2828 29.4879 10.2828C28.5542 10.2828 27.4808 9.77763 26.5 9.11407L23.2242 11.8953C23.0416 12.0503 22.7653 12.031 22.607 11.8522C22.4487 11.6734 22.4683 11.4028 22.6509 11.2478L25.7821 8.58944C24.8706 7.87424 24.0294 7.02709 23.4373 6.25576L23.2397 5.99833L23.4373 5.74089C24.1219 4.84904 25.1395 3.85583 26.2138 3.08242C27.2685 2.32317 28.4624 1.71381 29.4879 1.71381C30.4267 1.71381 31.5065 2.2244 32.4915 2.89317L35.7758 0.104744C35.9584 -0.0502697 36.2347 -0.0310019 36.393 0.14778ZM29.4879 2.57072C30.1129 2.57072 30.9365 2.91041 31.8071 3.4742L30.8295 4.30419C30.4586 4.02323 29.9931 3.85607 29.4879 3.85607C28.2784 3.85607 27.2963 4.8143 27.2963 5.99833C27.2963 6.38468 27.4008 6.747 27.5838 7.05982L26.455 8.01811C25.6529 7.40494 24.9014 6.67582 24.342 5.99832C24.9654 5.24329 25.8275 4.42413 26.7322 3.77281C27.7606 3.03249 28.7593 2.57072 29.4879 2.57072ZM32.5356 3.98985L31.4014 4.95281C31.5786 5.26197 31.6796 5.61853 31.6796 5.99833C31.6796 7.18235 30.6974 8.14058 29.4879 8.14058C28.9895 8.14058 28.5297 7.97786 28.1613 7.70366L27.1847 8.53276C28.0494 9.09038 28.8668 9.42594 29.4879 9.42594C30.2165 9.42594 31.2153 8.96416 32.2436 8.22384C33.1484 7.57252 34.0105 6.75336 34.6339 5.99832C34.0779 5.32499 33.3321 4.60066 32.5356 3.98985Z" fill="#E7EAF3"/>
</svg>
