<svg width="41" height="20" viewBox="0 0 41 20" fill="none" xmlns="http://www.w3.org/2000/svg">
<path fill-rule="evenodd" clip-rule="evenodd" d="M39.9081 3.17246C40.089 3.3811 40.0665 3.69688 39.8579 3.87778L36.2689 6.98957C37.3041 7.82138 38.2587 8.80425 38.9317 9.69958L39.1575 10L38.9317 10.3004C38.1494 11.3412 36.9865 12.5003 35.7589 13.4028C34.5538 14.2889 33.1895 15 32.0176 15C30.9506 15 29.7241 14.4104 28.6034 13.6361L24.8601 16.8817C24.6515 17.0626 24.3357 17.0401 24.1548 16.8315C23.9739 16.6228 23.9964 16.307 24.205 16.1261L27.783 13.0238C26.7414 12.1892 25.7802 11.2006 25.1036 10.3004L24.8777 10L25.1036 9.69958C25.8859 8.6588 27.0487 7.49973 28.2763 6.59717C29.4815 5.71112 30.8458 5.00001 32.0176 5.00001C33.0903 5.00001 34.3242 5.59586 35.4498 6.3763L39.2028 3.12224C39.4114 2.94134 39.7272 2.96382 39.9081 3.17246ZM32.0176 6.00001C32.7317 6.00001 33.6729 6.39643 34.6677 7.05436L33.5506 8.02296C33.1268 7.69508 32.5949 7.50001 32.0176 7.50001C30.6355 7.50001 29.5132 8.61825 29.5132 10C29.5132 10.4509 29.6327 10.8737 29.8417 11.2388L28.552 12.3571C27.6354 11.6415 26.7766 10.7906 26.1374 10C26.8497 9.11889 27.8349 8.16293 28.8687 7.40285C30.0438 6.53889 31.185 6.00001 32.0176 6.00001ZM35.5002 7.65613L34.2041 8.7799C34.4066 9.14069 34.5221 9.55679 34.5221 10C34.5221 11.3818 33.3997 12.5 32.0176 12.5C31.4481 12.5 30.9226 12.3101 30.5017 11.9901L29.3858 12.9577C30.3739 13.6084 31.3079 14 32.0176 14C32.8502 14 33.9915 13.4611 35.1666 12.5972C36.2004 11.8371 37.1855 10.8811 37.8979 10C37.2626 9.21423 36.4104 8.36894 35.5002 7.65613Z" fill="#E7EAF3"/>
<path fill-rule="evenodd" clip-rule="evenodd" d="M14.3345 6.12836C14.5397 6.31309 14.5564 6.62923 14.3717 6.83449L7.62166 14.3345C7.52462 14.4423 7.38553 14.5027 7.24049 14.4999C7.09546 14.4971 6.95877 14.4315 6.8659 14.3201L3.1159 9.82009C2.93912 9.60796 2.96778 9.29267 3.17992 9.11589C3.39206 8.93911 3.70734 8.96777 3.88412 9.17991L7.26455 13.2364L13.6284 6.16552C13.8131 5.96027 14.1292 5.94363 14.3345 6.12836Z" fill="white"/>
</svg>
