<svg width="24" height="24" viewBox="0 0 24 24" fill="none" xmlns="http://www.w3.org/2000/svg">
<rect width="24" height="24" rx="12" fill="#ECF0FE"/>
<path d="M14.6785 18.9246C19.0805 17.3544 17.4233 10.1838 15.766 9.13703C15.6452 9.69533 15.072 10.7282 13.7462 10.3932C14.1606 8.25773 12.6806 5.38126 11.5711 5.0022C11.3959 5.71658 11.2072 7.20185 8.46375 9.97448C3.50968 14.9812 9.47775 19.6404 9.62692 18.9246C9.77975 18.1913 9.52033 17.7619 10.7698 16.4368C11.5905 15.5664 11.8622 14.6582 12.086 13.9099L12.089 13.9C13.9534 14.8421 14.6785 17.8778 14.6785 18.9246Z" fill="#7A859E"/>
<path d="M14.6785 18.9246C19.0805 17.3544 17.4233 10.1838 15.766 9.13703C15.6452 9.69533 15.072 10.7282 13.7462 10.3932C14.1606 8.25773 12.6806 5.38126 11.5711 5.0022C11.3959 5.71658 11.2072 7.20185 8.46375 9.97448C3.50968 14.9812 9.47775 19.6404 9.62692 18.9246C9.77975 18.1913 9.52033 17.7619 10.7698 16.4368C11.5905 15.5664 11.8622 14.6582 12.086 13.9099L12.089 13.9C13.9534 14.8421 14.6785 17.8778 14.6785 18.9246Z" fill="#5275FF"/>
</svg>
