<svg width="24" height="24" viewBox="0 0 24 24" fill="none" xmlns="http://www.w3.org/2000/svg">
<path fill-rule="evenodd" clip-rule="evenodd" d="M6.73445 4C5.85849 4 5.15833 4.28379 4.67951 4.75948C4.27393 5.16241 4.05237 5.6788 4.00824 6.20729L4.00696 6.22329C4.00038 6.30917 3.99847 6.39534 4.00121 6.48137C4.00219 6.51203 4.00375 6.54264 4.00589 6.57318C4.00564 7.69575 4.00431 10.0364 4.00298 12.1864L4.00095 15.3426L4.00029 16.3408L4.0001 16.6165L4.00005 16.6887L4.00004 16.7072L4.00003 16.7118L4.00003 16.713L4.00003 16.7133L4.50003 16.7137L4.00003 16.7134V16.7137C4.00003 17.8639 4.18706 18.7674 4.86747 19.3353C5.51755 19.8779 6.49474 19.9996 7.71269 19.9996H19.4884C19.7644 19.9996 19.9882 19.776 19.9884 19.5001L19.9996 8.43135C19.9997 8.29865 19.9471 8.17135 19.8533 8.07747C19.7595 7.98359 19.6323 7.93085 19.4996 7.93085H6.85985C5.63277 7.93085 5.06841 7.20685 5.00589 6.5327L5.00593 6.27685C5.03388 5.97676 5.16055 5.69118 5.38429 5.46891C5.64736 5.20756 6.07962 5 6.73445 5H15.2548V6.18465C15.2548 6.46079 15.4787 6.68465 15.7548 6.68465C16.0309 6.68465 16.2548 6.46079 16.2548 6.18465V4.5C16.2548 4.22386 16.0309 4 15.7548 4H6.73445ZM5.00298 12.187L5.00516 8.37121C5.47436 8.71605 6.09891 8.93085 6.85985 8.93085H18.9991L18.9889 18.9996H7.71269C6.48135 18.9996 5.85222 18.8547 5.50829 18.5676C5.1947 18.3059 5.00003 17.8163 5.00003 16.7137L5.00003 16.7137L5.00003 16.7125L5.00004 16.7078L5.00005 16.6894L5.0001 16.6172L5.00029 16.3415L5.00095 15.3432L5.00298 12.187ZM15.8987 14.2307C15.8987 15.0032 15.2614 15.6503 14.4494 15.6503C13.6375 15.6503 13.0002 15.0032 13.0002 14.2307C13.0002 13.4581 13.6375 12.8111 14.4494 12.8111C15.2614 12.8111 15.8987 13.4581 15.8987 14.2307ZM16.8987 14.2307C16.8987 15.567 15.8021 16.6503 14.4494 16.6503C13.0967 16.6503 12.0002 15.567 12.0002 14.2307C12.0002 12.8944 13.0967 11.8111 14.4494 11.8111C15.8021 11.8111 16.8987 12.8944 16.8987 14.2307Z" fill="#8358FF"/>
</svg>
