<svg width="24" height="24" viewBox="0 0 24 24" fill="none" xmlns="http://www.w3.org/2000/svg">
<path fill-rule="evenodd" clip-rule="evenodd" d="M18.9993 6.2761V10.9451H16.4485L16.4462 6.2761C16.4462 5.59644 16.9774 5.04084 17.6472 5.00175C18.3696 4.9811 18.9993 5.53472 18.9993 6.2761ZM17.6218 4.00175H6.40002C5.10434 4.00175 4.00073 5.02618 4.00073 6.3185V18.5878C4.00073 19.1096 4.29639 19.5669 4.75144 19.8208C5.21919 20.0818 5.89199 20.0677 6.32145 19.7253L10.2256 16.6126L14.155 19.7262C14.3811 19.9054 14.7025 19.9837 14.9858 19.9837C15.7695 19.9837 16.4485 19.3324 16.4485 18.538V11.9451H19.6993C19.865 11.9451 19.9993 11.8108 19.9993 11.6451V6.2761C19.9993 4.99601 18.8988 3.94604 17.6218 4.00175ZM15.836 5.00175H6.40002C5.61429 5.00175 5.00073 5.61987 5.00073 6.3185V18.5878C5.00073 18.9526 5.44804 19.085 5.72178 18.9245L9.91292 15.583C10.0948 15.4379 10.3528 15.4376 10.5351 15.5821L14.752 18.9235C15.0395 19.0875 15.4485 18.8845 15.4485 18.538L15.4462 6.2761C15.4462 5.80396 15.5899 5.36539 15.836 5.00175Z" fill="#FFAD4D"/>
</svg>
