<svg width="21" height="20" viewBox="0 0 21 20" fill="none" xmlns="http://www.w3.org/2000/svg">
<path fill-rule="evenodd" clip-rule="evenodd" d="M20.0014 2.96012V8.47843C20.0014 9.03071 19.5537 9.47843 19.0014 9.47843H16.0821V2.96012C16.0821 1.84385 17.0027 1.01709 18.0795 1.01709V1.00085C19.1444 1.02099 20.0014 1.89048 20.0014 2.96012ZM3.83057 0.0170898C2.28277 0.0170898 0.998047 1.27471 0.998047 2.81806L1.01886 18.3432C1.01898 18.9434 1.3486 19.4814 1.87658 19.7852C2.4136 20.0942 3.19783 20.0794 3.68965 19.675L8.23277 15.9395C8.41686 15.7882 8.68218 15.7878 8.86672 15.9386L13.4402 19.676C13.9216 20.0693 14.7187 20.0771 15.2328 19.7464C15.76 19.4374 16.0779 18.8997 16.0779 18.2802V10.4784H16.0821H19.0014C20.1059 10.4784 21.0014 9.583 21.0014 8.47843V2.96012C21.0014 1.32556 19.6763 0.000488281 18.0417 0.000488281C13.306 0.000488281 8.56735 0.0170898 3.83057 0.0170898ZM15.8092 1.01709H3.83057C2.82228 1.01709 1.99822 1.83962 1.99805 2.81774L2.01886 18.3425C2.01886 18.8849 2.64549 19.1509 3.07749 18.8837L7.59767 15.1671C8.14991 14.713 8.94588 14.7118 9.49949 15.1642L14.05 18.8829C14.5001 19.1566 15.0779 18.7918 15.0779 18.2802L15.0821 2.96012C15.0821 2.21652 15.3563 1.53697 15.8092 1.01709Z" fill="#505573"/>
</svg>
