<svg width="24" height="22" fill="none" xmlns="http://www.w3.org/2000/svg"><path fill-rule="evenodd" clip-rule="evenodd" d="M1 1h22v3H1V1zM0 5V1c0-.6.4-1 1-1h22c.6 0 1 .4 1 1v20c0 .6-.4 1-1 1H1a1 1 0 01-1-1V5zm23 0v16H1V5h22z" fill="#9FAAC4"/><path fill-rule="evenodd" clip-rule="evenodd" d="M10.7 17c-.3-.1-.4-.5-.3-.7l2.3-7c0-.2.3-.4.6-.3.3.1.4.5.3.7l-2.3 7c0 .2-.3.4-.6.3zm4.5-7.8c-.2.2-.3.5 0 .7l2.6 3.1-2.7 3.1a.5.5 0 10.8.7l3-3.5v-.6l-3-3.5a.5.5 0 00-.7 0zm-6.3.7a.5.5 0 10-.8-.7l-3 3.5v.6l3 3.5A.5.5 0 109 16L6.2 13l2.7-3.1z" fill="#4E5472"/></svg>
