<svg width="27" height="24" fill="none" xmlns="http://www.w3.org/2000/svg"><path fill-rule="evenodd" clip-rule="evenodd" d="M7 1v8h2V1H7zm-.5-1c-.3 0-.5.2-.5.5v9c0 .3.2.5.5.5h3c.3 0 .5-.2.5-.5v-9c0-.3-.2-.5-.5-.5h-3zM21 1.8h-2v7.3h2V1.8zM18.5 1c-.3 0-.5.2-.5.5v8.1c0 .3.2.5.5.5h3c.3 0 .5-.2.5-.5V1.4c0-.3-.2-.5-.5-.5h-3zM13 9.1V5.5h2V9h-2zM12 5c0-.3.2-.5.5-.5h3c.3 0 .5.2.5.5v4.5c0 .3-.2.5-.5.5h-3c-.3 0-.5-.2-.5-.5V5z" fill="#4E5472"/><path fill-rule="evenodd" clip-rule="evenodd" d="M0 13c0-.3.2-.5.5-.5h5.4c.2 0 .5.2.5.5v.6H9l4.4 1.4h3.2c.6 0 1 .2 1.3.5.3.3.4.7.4 1l-.1.5a89.8 89.8 0 014.8-1.2c1.4-.3 2.4.1 2.8 1 .3.8 0 1.8-1 2.1l-10.2 5h-.3l-6.8-2H6.4v.5c0 .2-.3.5-.5.5H.5a.5.5 0 01-.5-.5V13zm6.4 8h1.4l6.7 2 10-5c.5-.1.6-.5.5-.8-.2-.3-.6-.7-1.7-.4a128.2 128.2 0 00-9.4 2.3c-1 .1-1.9 0-3.2-.1a.5.5 0 01.1-1c1.3.2 2.2.2 3 .1.9 0 1.8-.3 3-.7.2 0 .3-.1.4-.3l.2-.6-.1-.3c-.1 0-.2-.2-.6-.2h-3.3-.1l-4.4-1.4H6.4V21zm-1 .9H1v-8.4h4.4v8.4z" fill="#9FAAC4"/></svg>
