<svg width="25" height="24" fill="none" xmlns="http://www.w3.org/2000/svg"><path fill-rule="evenodd" clip-rule="evenodd" d="M23.5 12a11 11 0 11-22 0 11 11 0 0122 0zm1 0a12 12 0 11-24 0 12 12 0 0124 0zm-12-7.5a7.5 7.5 0 00-4.4 13.6.5.5 0 01-.6.8A8.5 8.5 0 1121 12a.5.5 0 01-1 0c0-4.1-3.4-7.5-7.5-7.5zm-2.3 10.8c.2-.2.2-.5 0-.7a3.5 3.5 0 012.3-6.1A3.5 3.5 0 0116 12a.5.5 0 001 0 4.5 4.5 0 00-4.5-4.5 4.5 4.5 0 00-3 7.9c.2.2.5.1.7 0z" fill="#9FAAC4"/><path d="M7 6.8A7.5 7.5 0 0120 12a.5.5 0 001 0 8.5 8.5 0 00-17-1 1.5 1.5 0 101 .1 7.4 7.4 0 012-4.3z" fill="#4E5472"/><path d="M17 12a.5.5 0 11-1 0 3.5 3.5 0 00-3.5-3.5 1.5 1.5 0 11-.4-1h.4A4.5 4.5 0 0117 12z" fill="#4E5472"/><path fill-rule="evenodd" clip-rule="evenodd" d="M12.5 12.5c0-.3.2-.5.5-.5h11a.5.5 0 110 1H13a.5.5 0 01-.5-.5z" fill="#9FAAC4"/></svg>
