<svg width="30" height="28" viewBox="0 0 30 28" fill="none" xmlns="http://www.w3.org/2000/svg">
  <path
    d="M16.042 28H13.958C6.25181 28 0 21.7921 0 14.1401V13.8599C0 6.20785 6.25181 0 13.958 0H16.042C23.7482 0 30 6.20785 30 13.8599V14.1401C30 21.7921 23.7482 28 16.042 28Z"
    fill="#B0EBDB" />
  <path
    d="M22.1847 1.40112C25.7682 4.08708 27.7419 8.29249 27.7419 12.7391C27.7419 20.3911 21.4901 26.599 13.7838 26.599H11.6999C9.50744 26.599 7.4235 26.0816 5.55664 25.1979C7.90107 26.9438 10.8099 28 13.9575 28H16.0414C23.7477 28 29.9995 21.7922 29.9995 14.1402C29.9995 8.75529 27.0622 3.7886 22.1847 1.40112Z"
    fill="#6CC5AE" />
  <path
    d="M9.50804 8.68677H9.48633C8.63973 8.68677 7.9668 9.35497 7.9668 10.1956V12.4373H11.0276V10.1956C11.0276 9.37653 10.3329 8.68677 9.50804 8.68677Z"
    fill="#31826D" />
  <path
    d="M20.5354 8.68677H20.5137C19.6671 8.68677 18.9941 9.35497 18.9941 10.1956V12.4373H22.0549V10.1956C22.0549 9.37653 21.3603 8.68677 20.5354 8.68677Z"
    fill="#31826D" />
  <path
    d="M6.73004 16.5111C6.66491 16.3602 7.44639 22.4387 15.0007 22.6758C22.5549 22.4603 23.3364 16.3602 23.2713 16.5111C17.8444 17.8044 12.1787 17.8044 6.73004 16.5111Z"
    fill="#31826D" />
  <path
    d="M15.0004 18.7742C18.4302 18.688 20.7312 17.8042 22.2507 16.748C17.475 17.7396 12.5257 17.7396 7.75 16.748C9.26954 17.8042 11.5705 18.688 15.0004 18.7742Z"
    fill="white" />
  <path
    d="M20.2965 21.1024C18.9723 20.3911 17.1054 19.9385 14.9998 19.9385C12.9159 19.9385 11.0273 20.3911 9.70312 21.1024C10.9188 21.9431 12.6337 22.5897 14.9998 22.676C17.3659 22.6113 19.0591 21.9647 20.2965 21.1024Z"
    fill="#DCF6EF" />

</svg>