<svg width="30" height="28" viewBox="0 0 30 28" fill="none" xmlns="http://www.w3.org/2000/svg">
  <path
    d="M16.042 28H13.958C6.25181 28 0 21.7921 0 14.1401V13.8599C0 6.20785 6.25181 0 13.958 0H16.042C23.7482 0 30 6.20785 30 13.8599V14.1401C30 21.7921 23.7482 28 16.042 28Z"
    fill="#FFDA00" />
  <path
    d="M1.887 10.7987C1.84359 10.7987 1.80017 10.7987 1.75676 10.7772C1.51797 10.7125 1.36602 10.4539 1.43114 10.1952C2.60335 6.18596 5.68584 2.97426 9.63664 1.57319C9.87543 1.48697 10.1359 1.6163 10.2227 1.8534C10.3096 2.09051 10.1793 2.34917 9.94055 2.43539C6.27195 3.72869 3.40654 6.72484 2.32116 10.4323C2.27774 10.6694 2.10408 10.7987 1.887 10.7987Z"
    fill="white" />
  <path
    d="M22.1847 1.40088C25.5494 3.92282 27.7419 7.95361 27.7419 12.4586V12.7388C27.7419 20.3909 21.4901 26.5987 13.7838 26.5987H11.6999C9.50744 26.5987 7.4235 26.0814 5.55664 25.1976C7.90107 26.9436 10.8099 27.9998 13.9575 27.9998H16.0414C23.7477 27.9998 29.9995 21.792 29.9995 14.1399V13.8597C29.9995 8.38471 26.8084 3.66416 22.1847 1.40088Z"
    fill="#FCB813" />
  <path
    d="M9.50804 8.68701H9.48633C8.63973 8.68701 7.9668 9.35522 7.9668 10.1959V12.4376H11.0276V10.1959C11.0276 9.37677 10.3329 8.68701 9.50804 8.68701Z"
    fill="#3D3813" />
  <path
    d="M20.5354 8.68701H20.5137C19.6671 8.68701 18.9941 9.35522 18.9941 10.1959V12.4376H22.0549V10.1959C22.0549 9.37677 21.3603 8.68701 20.5354 8.68701Z"
    fill="#3D3813" />
  <path
    d="M6.73004 16.5111C6.66491 16.3602 7.44639 22.4387 15.0007 22.6758C22.5549 22.4603 23.3364 16.3602 23.2713 16.5111C17.8444 17.8044 12.1787 17.8044 6.73004 16.5111Z"
    fill="#3D3813" />
  <path
    d="M15.0004 18.7742C18.4302 18.688 20.7312 17.8042 22.2507 16.748C17.475 17.7396 12.5257 17.7396 7.75 16.748C9.26954 17.8042 11.5705 18.688 15.0004 18.7742Z"
    fill="white" />
  <path
    d="M20.2965 21.1024C18.9723 20.3911 17.1054 19.9385 14.9998 19.9385C12.9159 19.9385 11.0273 20.3911 9.70312 21.1024C10.9188 21.9431 12.6337 22.5897 14.9998 22.676C17.3659 22.6113 19.0591 21.9647 20.2965 21.1024Z"
    fill="#D05628" />
</svg>