<svg width="30" height="28" viewBox="0 0 30 28" fill="none" xmlns="http://www.w3.org/2000/svg">
  <path
    d="M16.042 28H13.958C6.25181 28 0 21.7921 0 14.1401C0 6.44347 6.17276 0 13.958 0H16.042C23.8272 0 30 6.44347 30 14.1401C30 21.7921 23.7482 28 16.042 28Z"
    fill="#FFCB47" />
  <path
    d="M22.1847 1.40112C25.7682 4.08708 27.7419 8.29249 27.7419 12.7391C27.7419 20.3911 21.4901 26.599 13.7838 26.599H11.6999C9.50744 26.599 7.4235 26.0816 5.55664 25.1979C7.90107 26.9438 10.8099 28 13.9575 28H16.0414C23.7477 28 29.9995 21.7922 29.9995 14.1402C29.9995 8.75529 27.0622 3.7886 22.1847 1.40112Z"
    fill="#F5921C" />
  <path
    d="M9.50804 8.68677H9.48633C8.63973 8.68677 7.9668 9.35497 7.9668 10.1956V11.3811C7.9668 12.2218 8.63973 12.89 9.48633 12.89H9.50804C10.3546 12.89 11.0276 12.2218 11.0276 11.3811V10.1956C11.0276 9.37653 10.3329 8.68677 9.50804 8.68677Z"
    fill="#665143" />
  <path
    d="M20.5354 8.68677H20.5137C19.6671 8.68677 18.9941 9.35497 18.9941 10.1956V11.3811C18.9941 12.2218 19.6671 12.89 20.5137 12.89H20.5354C21.382 12.89 22.0549 12.2218 22.0549 11.3811V10.1956C22.0549 9.37653 21.3603 8.68677 20.5354 8.68677Z"
    fill="#665143" />
  <path
    d="M21.7495 18.7313H8.24738C7.85664 18.7313 7.55273 18.4296 7.55273 18.0416C7.55273 17.6536 7.85664 17.3518 8.24738 17.3518H21.7495C22.1403 17.3518 22.4442 17.6536 22.4442 18.0416C22.4442 18.4296 22.1403 18.7313 21.7495 18.7313Z"
    fill="#665143" />
</svg>