<svg width="30" height="28" viewBox="0 0 30 28" fill="none" xmlns="http://www.w3.org/2000/svg">
  <path
    d="M16.042 28H13.958C6.25181 28 0 21.7921 0 14.1401V13.8599C0 6.20785 6.25181 0 13.958 0H16.042C23.7482 0 30 6.20785 30 13.8599V14.1401C30 21.7921 23.7482 28 16.042 28Z"
    fill="#FFDA00" />
  <path
    d="M1.887 10.7987C1.84359 10.7987 1.80017 10.7987 1.75676 10.7772C1.51797 10.7125 1.36602 10.4539 1.43114 10.1952C2.60335 6.18596 5.68584 2.97426 9.63664 1.57319C9.87543 1.48697 10.1359 1.6163 10.2227 1.8534C10.3096 2.09051 10.1793 2.34917 9.94055 2.43539C6.27195 3.72869 3.40654 6.72484 2.32116 10.4323C2.27774 10.6694 2.10408 10.7987 1.887 10.7987Z"
    fill="white" />
  <path
    d="M22.1847 1.40088C25.5494 3.92282 27.7419 7.95361 27.7419 12.4586V12.7388C27.7419 20.3909 21.4901 26.5987 13.7838 26.5987H11.6999C9.50744 26.5987 7.4235 26.0814 5.55664 25.1976C7.90107 26.9436 10.8099 27.9998 13.9575 27.9998H16.0414C23.7477 27.9998 29.9995 21.792 29.9995 14.1399V13.8597C29.9995 8.38471 26.8084 3.66416 22.1847 1.40088Z"
    fill="#FCB813" />
  <path
    d="M9.50804 8.68701H9.48633C8.63973 8.68701 7.9668 9.35522 7.9668 10.1959V11.3814C7.9668 12.222 8.63973 12.8902 9.48633 12.8902H9.50804C10.3546 12.8902 11.0276 12.222 11.0276 11.3814V10.1959C11.0276 9.37677 10.3329 8.68701 9.50804 8.68701Z"
    fill="#3D3813" />
  <path
    d="M20.5354 8.68701H20.5137C19.6671 8.68701 18.9941 9.35522 18.9941 10.1959V11.3814C18.9941 12.222 19.6671 12.8902 20.5137 12.8902H20.5354C21.382 12.8902 22.0549 12.222 22.0549 11.3814V10.1959C22.0549 9.37677 21.3603 8.68701 20.5354 8.68701Z"
    fill="#3D3813" />
  <path
    d="M21.7495 18.7316H8.24738C7.85664 18.7316 7.55273 18.4298 7.55273 18.0418C7.55273 17.6538 7.85664 17.3521 8.24738 17.3521H21.7495C22.1403 17.3521 22.4442 17.6538 22.4442 18.0418C22.4442 18.4298 22.1403 18.7316 21.7495 18.7316Z"
    fill="#3D3813" />
</svg>