<svg width="30" height="28" viewBox="0 0 30 28" fill="none" xmlns="http://www.w3.org/2000/svg">
  <path
    d="M16.042 28H13.958C6.25181 28 0 21.7921 0 14.1401V13.8599C0 6.20785 6.25181 0 13.958 0H16.042C23.7482 0 30 6.20785 30 13.8599V14.1401C30 21.7921 23.7482 28 16.042 28Z"
    fill="#FFADAD" />
  <path
    d="M22.1847 1.40112C25.5494 3.92306 27.7419 7.95386 27.7419 12.4589V12.7391C27.7419 20.3911 21.4901 26.599 13.7838 26.599H11.6999C9.50744 26.599 7.4235 26.0816 5.55664 25.1979C7.90107 26.9438 10.8099 28 13.9575 28H16.0414C23.7477 28 29.9995 21.7922 29.9995 14.1402V13.8599C29.9995 8.38496 26.8084 3.6644 22.1847 1.40112Z"
    fill="#FF6363" />
  <path
    d="M20.8834 13.4073C19.3638 13.4073 18.1699 12.2218 18.1699 10.756V10.3465C18.1699 9.95851 18.4738 9.65674 18.8646 9.65674C19.2553 9.65674 19.5592 9.95851 19.5592 10.3465V10.756C19.5592 11.4674 20.1236 12.0278 20.84 12.0278C21.578 12.0278 22.1641 11.4674 22.1641 10.756V10.3465C22.1641 9.95851 22.468 9.65674 22.8588 9.65674C23.2495 9.65674 23.5534 9.95851 23.5534 10.3465V10.756C23.5534 12.2002 22.3595 13.4073 20.8834 13.4073Z"
    fill="#934853" />
  <path
    d="M9.16072 13.4073C7.64119 13.4073 6.44727 12.2218 6.44727 10.756V10.3465C6.44727 9.95851 6.75117 9.65674 7.14191 9.65674C7.53265 9.65674 7.83656 9.95851 7.83656 10.3465V10.756C7.83656 11.4674 8.40096 12.0278 9.11731 12.0278C9.85537 12.0278 10.4415 11.4674 10.4415 10.756V10.3465C10.4415 9.95851 10.7454 9.65674 11.1361 9.65674C11.5269 9.65674 11.8308 9.95851 11.8308 10.3465V10.756C11.8525 12.2002 10.6586 13.4073 9.16072 13.4073Z"
    fill="#934853" />
  <path
    d="M21.0116 20.8654C20.7294 20.8654 20.469 20.7145 20.3604 20.4343C20.317 20.3049 19.0362 17.4597 14.9986 17.4597C10.961 17.4597 9.68024 20.3049 9.63683 20.4343C9.48487 20.7791 9.07243 20.9516 8.7251 20.8007C8.37778 20.6498 8.20412 20.2403 8.35607 19.8954C8.4212 19.7445 10.0059 16.0586 15.0203 16.0586C20.0348 16.0586 21.6195 19.723 21.6846 19.8954C21.8365 20.2403 21.6629 20.6498 21.2938 20.8007C21.1853 20.8438 21.0985 20.8654 21.0116 20.8654Z"
    fill="#934853" />
</svg>