<svg width="25" height="24" fill="none" xmlns="http://www.w3.org/2000/svg"><path fill-rule="evenodd" clip-rule="evenodd" d="M23.5 12a11 11 0 1 1-22 0 11 11 0 0 1 22 0zm1 0a12 12 0 1 1-24 0 12 12 0 0 1 24 0zm-12-7.5a7.5 7.5 0 0 0-4.4 13.6.5.5 0 0 1-.6.8A8.5 8.5 0 1 1 21 12a.5.5 0 0 1-1 0c0-4.1-3.4-7.5-7.5-7.5zm-2.3 10.8c.2-.2.2-.5 0-.7a3.5 3.5 0 0 1 2.3-6.1A3.5 3.5 0 0 1 16 12a.5.5 0 0 0 1 0 4.5 4.5 0 0 0-4.5-4.5 4.5 4.5 0 0 0-3 7.9c.2.2.5.1.7 0z" fill="var(--product-color-2, #9FAAC4)"/><path d="M7 6.8A7.5 7.5 0 0 1 20 12a.5.5 0 0 0 1 0 8.5 8.5 0 0 0-17-1 1.5 1.5 0 1 0 1 .1 7.4 7.4 0 0 1 2-4.3z" fill="var(--product-color-1, #4E5472)"/><path d="M17 12a.5.5 0 1 1-1 0 3.5 3.5 0 0 0-3.5-3.5 1.5 1.5 0 1 1-.4-1h.4A4.5 4.5 0 0 1 17 12z" fill="var(--product-color-1, #4E5472)"/><path fill-rule="evenodd" clip-rule="evenodd" d="M12.5 12.5c0-.3.2-.5.5-.5h11a.5.5 0 1 1 0 1H13a.5.5 0 0 1-.5-.5z" fill="var(--product-color-2, #9FAAC4)"/></svg>