<?xml version="1.0" encoding="utf-8"?><svg xmlns="http://www.w3.org/2000/svg" xmlns:xlink="http://www.w3.org/1999/xlink"><symbol viewBox="0 0 16 14" id="0"><path d="M.73 0a.73.73 0 100 1.45h14.54a.73.73 0 100-1.45H.73zm0 4.06a.73.73 0 100 1.45h14.54a.73.73 0 100-1.45H.73zm0 8.49a.73.73 0 100 1.45h5.82a.73.73 0 100-1.45H.73zm11.63-5.81c.4 0 .73.33.73.73v2.18h2.18a.73.73 0 110 1.45H13.1v2.17a.73.73 0 01-1.45 0V11.1h-2.2a.73.73 0 110-1.45h2.19V7.47c0-.4.32-.73.72-.73zM.73 8.27a.73.73 0 100 1.46h5.82a.73.73 0 100-1.46H.73z"/></symbol></svg>