<?xml version="1.0" encoding="utf-8"?><svg xmlns="http://www.w3.org/2000/svg" xmlns:xlink="http://www.w3.org/1999/xlink"><symbol viewBox="0 0 16 16" id="0"><path fill-rule="evenodd" clip-rule="evenodd" d="M3.5 5.7C3.5 3.1 5.5 1 8 1c2.6 0 4.5 2 4.5 4.7v3.8c0 .6.2 1 .5 1.5H3.2c.2-.4.3-.9.3-1.5V5.7zm10 3.8c0 .9.7 1.5 1.5 1.5h.5a.5.5 0 110 1H.5a.5.5 0 010-1h1c.2 0 .5-.1.7-.3.1-.2.3-.5.3-1.2V5.7C2.5 2.6 4.8 0 8 0s5.5 2.6 5.5 5.7v3.8zM6 13a.5.5 0 00-1 0 3 3 0 106 0 .5.5 0 00-1 0 2 2 0 11-4 0z"/></symbol></svg>