<?xml version="1.0" encoding="utf-8"?><svg xmlns="http://www.w3.org/2000/svg" xmlns:xlink="http://www.w3.org/1999/xlink"><symbol viewBox="0 0 16 16" id="0"><path fill-rule="evenodd" clip-rule="evenodd" d="M6.42.757A1 1 0 017.39 0h1.22a1 1 0 01.97.757l.338 1.355 1.008.336.956-.637a1 1 0 011.261.125l.92.92a1 1 0 01.126 1.262L13.6 5l.72 1.08.995.332A1 1 0 0116 7.36v1.28a1 1 0 01-.684.948l-.995.332L13.6 11l.588.882a1 1 0 01-.125 1.261l-.92.92a1 1 0 01-1.262.126l-.956-.637-1.008.335-.338 1.355a1 1 0 01-.97.758H7.39a1 1 0 01-.97-.758l-.338-1.355-1.008-.335-.956.637a1 1 0 01-1.261-.125l-.92-.92a1 1 0 01-.126-1.262l.637-.956-.336-1.008L.757 9.58A1 1 0 010 8.61V7.39a1 1 0 01.757-.97l1.355-.338.336-1.008-.637-.956a1 1 0 01.125-1.261l.92-.92a1 1 0 011.262-.126l.956.637 1.008-.336L6.42.757zM8.61 1H7.39l-.338 1.355a1 1 0 01-.654.706l-1.008.336a1 1 0 01-.87-.117l-.956-.637-.92.92.636.956a1 1 0 01.117.871l-.336 1.008a1 1 0 01-.706.654L1 7.39v1.22l1.355.338a1 1 0 01.706.654l.336 1.008a1 1 0 01-.117.87l-.637.956.92.92.956-.636a1 1 0 01.871-.117l1.008.336a1 1 0 01.654.706L7.39 15h1.22l.338-1.355a1 1 0 01.654-.706l1.008-.336a1 1 0 01.87.117l.956.637.92-.92-.587-.882a1 1 0 010-1.11l.72-1.08a1 1 0 01.516-.394L15 8.64V7.36l-.995-.331a1 1 0 01-.516-.394l-.72-1.08a1 1 0 010-1.11l.588-.881-.92-.92-.956.636a1 1 0 01-.871.117l-1.008-.336a1 1 0 01-.654-.706L8.61 1zM8 5.5a2.5 2.5 0 100 5 2.5 2.5 0 000-5zM4.5 8a3.5 3.5 0 117 0 3.5 3.5 0 01-7 0z"/></symbol></svg>