<?xml version="1.0" encoding="utf-8"?><svg xmlns="http://www.w3.org/2000/svg" xmlns:xlink="http://www.w3.org/1999/xlink"><symbol viewBox="0 0 16 16" id="0"><path fill-rule="evenodd" clip-rule="evenodd" d="M12.7 15.3c-1.4-.1-4.3-2.2-7.1-5.2-2.9-3-4.8-6-4.8-7.3-.3 0-.5 0-.6.2-.9.7 1.2 4.2 4.6 7.8 3.4 3.5 6.8 5.8 7.7 5l.2-.5z"/><path fill-rule="evenodd" clip-rule="evenodd" d="M11.7 15.2l3.2-2.8.7.8-3.2 2.7-.7-.7zM.2 3L3.3.3l.8.7L.9 3.8.2 3zm.7 2.1l2.5-2 .7.7-2.5 2-.7-.7zM2 7l2.4-2 .7.8-2.4 2-.7-.7zm1.7 1.8l2.3-2 .8.7-2.4 2-.7-.7z"/><path fill-rule="evenodd" clip-rule="evenodd" d="M14.9 12.4zm0 0V12c0-.4-.2-1-.5-1.7-.6-1.4-1.9-3.1-3.5-4.8a27 27 0 00-4.7-3.8c-.7-.4-1.3-.6-1.7-.7H4v.5c0 .4.2 1 .5 1.6a21.6 21.6 0 008.3 8.7l1.6.6h.5zM4 1zm0 0zm11 11.5zM7.2 8.7c3.4 3.5 7.2 5.5 8.4 4.5 1.2-1.1-.5-4.9-4-8.4C8.4 1.2 4.7-.8 3.4.3c-1.2 1 .5 4.8 4 8.4z"/></symbol></svg>