<?xml version="1.0" encoding="utf-8"?><svg xmlns="http://www.w3.org/2000/svg" xmlns:xlink="http://www.w3.org/1999/xlink"><symbol viewBox="0 0 15 19" id="0"><path d="M10.097 2.25c.25.14.338.455.198.705l-1.57 2.79a.519.519 0 01-.904-.508l1.57-2.79a.519.519 0 01.706-.197zM5.017.011a.52.52 0 01.615.4 9.082 9.082 0 01-.041 4.007l-.03.121a.518.518 0 01-1.008-.241l.03-.122a8.048 8.048 0 00.035-3.55.518.518 0 01.4-.615zm9.636 6.246a.518.518 0 10-.343-.977 9.11 9.11 0 00-3.407 2.12l-.088.087a.517.517 0 10.73.735l.089-.088a8.072 8.072 0 013.02-1.877z"/><path fill-rule="evenodd" clip-rule="evenodd" d="M1.802 7.256a12.526 12.526 0 018.355 4.654l.048.06.002.003v.005l-.002.004s0 .002-.002.003l-3.422 2.41a9.665 9.665 0 00-5.294-2.98l.311-4.156v-.002m-.389 5.199l-.37 4.949a.518.518 0 00.815.461l4.073-2.868a8.627 8.627 0 00-4.518-2.542zm.39-5.199l.002-.001h.001m9.168 4.01a13.563 13.563 0 00-9.047-5.039 1.04 1.04 0 00-1.159.954l-.76 10.147c-.097 1.309 1.374 2.141 2.448 1.384l8.348-5.88c.492-.347.59-1.034.217-1.505l-.047-.06z"/></symbol></svg>