<?xml version="1.0" encoding="utf-8"?><svg xmlns="http://www.w3.org/2000/svg" xmlns:xlink="http://www.w3.org/1999/xlink"><symbol viewBox="0 0 12 12" id="0"><path fill-rule="evenodd" clip-rule="evenodd" d="M1 1h3v3H1V1zM0 1a1 1 0 011-1h3a1 1 0 011 1v3a1 1 0 01-1 1H1a1 1 0 01-1-1V1zm8 0h3v3H8V1zM7 1a1 1 0 011-1h3a1 1 0 011 1v3a1 1 0 01-1 1H8a1 1 0 01-1-1V1zm4 7H8v3h3V8zM8 7a1 1 0 00-1 1v3a1 1 0 001 1h3a1 1 0 001-1V8a1 1 0 00-1-1H8zM1 8h3v3H1V8zM0 8a1 1 0 011-1h3a1 1 0 011 1v3a1 1 0 01-1 1H1a1 1 0 01-1-1V8z"/></symbol></svg>