<?xml version="1.0" encoding="utf-8"?><svg xmlns="http://www.w3.org/2000/svg" xmlns:xlink="http://www.w3.org/1999/xlink"><symbol viewBox="0 0 12 12" id="0"><path fill-rule="evenodd" clip-rule="evenodd" d="M3.072.5a.5.5 0 01.5-.5h4.856a.5.5 0 01.5.5V2a.5.5 0 01-.032.175H11.5a.5.5 0 110 1h-.969a.498.498 0 01.066.248V10.5a1.5 1.5 0 01-1.5 1.5h-6.26a1.5 1.5 0 01-1.5-1.5V3.423c0-.09.024-.175.066-.248h-.9a.5.5 0 010-1h2.602A.499.499 0 013.072 2V.5zM2.27 3.175a.498.498 0 01.066.248V10.5a.5.5 0 00.5.5h6.26a.5.5 0 00.5-.5V3.423c0-.09.025-.175.067-.248H2.27zM7.928 2c0 .061.01.12.03.175H4.042A.5.5 0 004.072 2V1h3.856v1z"/></symbol></svg>