<?xml version="1.0" encoding="utf-8"?><svg xmlns="http://www.w3.org/2000/svg" xmlns:xlink="http://www.w3.org/1999/xlink"><symbol viewBox="0 0 20 15" id="0"><path fill-rule="evenodd" clip-rule="evenodd" d="M13.63 13.497c.514.642 1.13 1.387 1.13 1.387A6.258 6.258 0 0020 12.28a22.93 22.93 0 00-2.466-9.983A8.467 8.467 0 0012.723.5l-.24.274a11.396 11.396 0 014.264 2.166 13.957 13.957 0 00-5.155-1.644 14.488 14.488 0 00-3.45.06 1.691 1.691 0 00-.291.034 12.86 12.86 0 00-3.887 1.07c-.634.283-1.01.497-1.01.497A11.557 11.557 0 017.449.714L7.277.5a8.467 8.467 0 00-4.811 1.798A22.93 22.93 0 000 12.28a6.208 6.208 0 005.223 2.603l.467-.577.68-.845a5.326 5.326 0 01-2.997-2.02c.612.407 1.267.746 1.952 1.01.815.322 1.658.568 2.517.736 1.465.282 2.969.288 4.435.018a11.27 11.27 0 002.483-.737 9.798 9.798 0 001.97-1.01 5.403 5.403 0 01-3.1 2.038zM5.552 7.496c.324-.352.769-.57 1.246-.609a1.813 1.813 0 011.747 1.9 1.823 1.823 0 01-1.747 1.901 1.907 1.907 0 01-1.246-3.192zm6.396-.368c.334-.19.717-.273 1.1-.241a1.822 1.822 0 011.747 1.9 1.907 1.907 0 11-2.847-1.66z"/></symbol></svg>