<?xml version="1.0" encoding="utf-8"?><svg xmlns="http://www.w3.org/2000/svg" xmlns:xlink="http://www.w3.org/1999/xlink"><symbol viewBox="0 0 7 10" id="0"><path d="M2.8 10h-.2V9l-1.4-.4C.8 8.4.5 8 .3 7.8a2 2 0 01-.3-1v-.1h1.4l.2.1c0 .3.2.5.5.7l1 .2c.6 0 1 0 1.2-.2.3-.2.4-.5.4-.8 0-.2 0-.3-.2-.5L4 6l-1.2-.4c-.8-.3-1.6-.6-2-.9-.4-.3-.6-.8-.6-1.5 0-.5.2-1 .6-1.4A3 3 0 012.5 1V.3l.1-.2.2-.1h.9v1.1c.5 0 1 .2 1.3.4l.8.7.3.9a.2.2 0 01-.3.2h-1c-.2 0-.3 0-.3-.2s-.2-.4-.5-.6l-.9-.2c-.4 0-.7 0-1 .2-.2.2-.3.4-.3.7 0 .2 0 .4.2.5l.5.4 1.1.3c.7.1 1.2.3 1.6.5.4.2.6.4.8.7.2.3.3.6.3 1a2 2 0 01-.7 1.6c-.5.4-1 .7-1.8.8v.7l-.1.2-.2.1h-.7z"/></symbol></svg>