<?xml version="1.0" encoding="utf-8"?><svg xmlns="http://www.w3.org/2000/svg" xmlns:xlink="http://www.w3.org/1999/xlink"><symbol viewBox="0 0 17 16" id="0"><path fill-rule="evenodd" clip-rule="evenodd" d="M7.527 0a.5.5 0 00-.5.5v6.46H4.509a.5.5 0 00-.37.837l4.594 5.022a.5.5 0 00.745-.009l4.396-5.021a.5.5 0 00-.376-.83h-2.322V.5a.5.5 0 00-.5-.5H7.527zm.5 7.46V1h2.15v6.46a.5.5 0 00.5.5h1.719l-3.302 3.77-3.45-3.77h1.883a.5.5 0 00.5-.5zm-6.03 2.935a.5.5 0 00-1 0v4.102a1.5 1.5 0 001.5 1.5H15.5a1.5 1.5 0 001.5-1.5v-4.102a.5.5 0 00-1 0v4.102a.5.5 0 01-.5.5H2.496a.5.5 0 01-.5-.5v-4.102z"/></symbol></svg>