<?xml version="1.0" encoding="utf-8"?><svg xmlns="http://www.w3.org/2000/svg" xmlns:xlink="http://www.w3.org/1999/xlink"><symbol viewBox="0 0 20 12" id="0"><path fill-rule="evenodd" clip-rule="evenodd" d="M12.3.88a.67.67 0 00-.4-.85.63.63 0 00-.8.43L7.7 11.12c-.12.35.06.73.4.85.33.11.7-.08.8-.43L12.3.88zM6.2 11.8a.62.62 0 01-.9 0L.18 6.47a.69.69 0 010-.94L5.29.2a.62.62 0 01.9 0c.26.26.26.68 0 .94L1.55 6l4.66 4.86c.25.26.25.68 0 .94zM13.8.2a.62.62 0 01.9 0l5.11 5.33c.25.26.25.68 0 .94l-5.1 5.33a.62.62 0 01-.9 0 .69.69 0 010-.94L18.45 6 13.8 1.14a.69.69 0 010-.94z"/></symbol></svg>