<?xml version="1.0" encoding="utf-8"?><svg xmlns="http://www.w3.org/2000/svg" xmlns:xlink="http://www.w3.org/1999/xlink"><symbol viewBox="0 0 14 14" id="0"><path fill-rule="evenodd" clip-rule="evenodd" d="M3.5.5A.5.5 0 003 0H.5a.5.5 0 00-.5.5V3a.5.5 0 001 0V1.707l3.646 3.647a.5.5 0 10.708-.708L1.707 1H3a.5.5 0 00.5-.5zM3 14a.5.5 0 000-1H1.707l3.647-3.646a.5.5 0 10-.708-.708L1 12.293V11a.5.5 0 00-1 0v2.5a.5.5 0 00.5.5H3zm8 0a.5.5 0 010-1h1.293L8.646 9.354a.5.5 0 11.708-.708L13 12.293V11a.5.5 0 011 0v2.5a.5.5 0 01-.5.5H11zm0-14a.5.5 0 000 1h1.293L8.646 4.646a.5.5 0 10.708.708L13 1.707V3a.5.5 0 001 0V.5a.5.5 0 00-.5-.5H11z"/></symbol></svg>