<?xml version="1.0" encoding="utf-8"?><svg xmlns="http://www.w3.org/2000/svg" xmlns:xlink="http://www.w3.org/1999/xlink"><symbol viewBox="0 0 8 8" id="0"><path fill-rule="evenodd" clip-rule="evenodd" d="M3 2.999h2v-.498c0-.397-.118-.632-.229-.752-.091-.1-.292-.248-.77-.248-.48 0-.681.15-.773.25-.11.119-.228.353-.228.75v.498zm-1.5 0h-.125c-.481 0-.875.33-.875.733v3.534c0 .403.394.733.875.733h5.25c.481 0 .875-.33.875-.733V3.732C7.5 3.33 7.106 3 6.625 3H6.5v-.498C6.5 1.122 5.667 0 4 .002c-1.667.002-2.5 1.12-2.5 2.5V3z"/></symbol></svg>