<?xml version="1.0" encoding="utf-8"?><svg xmlns="http://www.w3.org/2000/svg" xmlns:xlink="http://www.w3.org/1999/xlink"><symbol viewBox="0 0 18 14" id="0"><path fill-rule="evenodd" clip-rule="evenodd" d="M14.932 4.661a.565.565 0 00-.79 0l-1.978 1.95a.546.546 0 000 .779l1.977 1.949a.565.565 0 00.791 0 .545.545 0 000-.78L13.91 7.551h3.532A.555.555 0 0018.001 7a.555.555 0 00-.56-.551h-3.53l1.022-1.008a.545.545 0 000-.78zM3.068 9.339a.565.565 0 00.79 0l1.978-1.95a.546.546 0 000-.779L3.86 4.661a.565.565 0 00-.791 0 .546.546 0 000 .78L4.09 6.449H.56A.555.555 0 000 7c0 .304.25.551.56.551h3.53L3.068 8.56a.546.546 0 000 .78z"/><path d="M8.5.5a.5.5 0 011 0v13a.5.5 0 01-1 0V.5z"/><path d="M1.5 1a.5.5 0 010-1h15a.5.5 0 010 1h-15zm0 13a.5.5 0 010-1h15a.5.5 0 010 1h-15z"/></symbol></svg>