<?xml version="1.0" encoding="utf-8"?><svg xmlns="http://www.w3.org/2000/svg" xmlns:xlink="http://www.w3.org/1999/xlink"><symbol viewBox="0 0 16 16" id="0"><path fill-rule="evenodd" clip-rule="evenodd" d="M8 1l6.5 3.526v6.948L8 15l-6.5-3.526V4.526L8 1zM7.523.121a1 1 0 01.954 0l6.5 3.526a1 1 0 01.523.88v6.947a1 1 0 01-.523.879l-6.5 3.526a1 1 0 01-.954 0l-6.5-3.526a1 1 0 01-.523-.88V4.527a1 1 0 01.523-.879l6.5-3.526zm.702 2.798a.5.5 0 00-.496.01L4.733 4.728a.5.5 0 10.515.857l2.75-1.65 3.95 2.143v4.407a.5.5 0 101 0V5.78a.5.5 0 00-.261-.44L8.225 2.92z"/></symbol></svg>