<?xml version="1.0" encoding="utf-8"?><svg xmlns="http://www.w3.org/2000/svg" xmlns:xlink="http://www.w3.org/1999/xlink"><symbol viewBox="0 0 16 16" id="0"><path fill-rule="evenodd" clip-rule="evenodd" d="M11.708.144a.5.5 0 00-.7-.002L.904 9.995a.5.5 0 00-.146.286l-.753 5.146a.5.5 0 00.59.563l5.147-1.004a.5.5 0 00.259-.138l9.853-9.916a.5.5 0 00-.004-.709L11.708.143zM1.097 14.874l.626-4.281 7.13-6.953 3.48 3.417L5.4 14.034l-4.303.84zm11.94-8.526l1.754-1.765L11.356 1.2 9.569 2.942l3.468 3.406z"/></symbol></svg>