<?xml version="1.0" encoding="utf-8"?><svg xmlns="http://www.w3.org/2000/svg" xmlns:xlink="http://www.w3.org/1999/xlink"><symbol viewBox="0 0 16 16" id="0"><path d="M2.5 3.5A.5.5 0 013 3h5a.5.5 0 010 1H3a.5.5 0 01-.5-.5z"/><path fill-rule="evenodd" clip-rule="evenodd" d="M0 1a1 1 0 011-1h14a1 1 0 011 1v5a1 1 0 01-1 1H1a1 1 0 01-1-1V1zm1 0h14v5H1V1z"/><path d="M3 12a.5.5 0 000 1h5a.5.5 0 000-1H3z"/><path fill-rule="evenodd" clip-rule="evenodd" d="M0 10a1 1 0 011-1h14a1 1 0 011 1v5a1 1 0 01-1 1H1a1 1 0 01-1-1v-5zm1 0h14v5H1v-5z"/></symbol></svg>