<?xml version="1.0" encoding="utf-8"?><svg xmlns="http://www.w3.org/2000/svg" xmlns:xlink="http://www.w3.org/1999/xlink"><symbol viewBox="0 0 16 16" id="0"><path d="M3.67 4.64c.2-.2.51-.2.7 0L7.04 7.3a1 1 0 010 1.42l-2.65 2.64a.5.5 0 11-.71-.7L6.33 8 3.67 5.35a.5.5 0 010-.7zM8 10.01c-.28 0-.45.23-.45.5 0 .28.17.5.45.5h4a.5.5 0 00.5-.5c0-.27-.2-.5-.47-.5H8z"/><path fill-rule="evenodd" clip-rule="evenodd" d="M1 0a1 1 0 00-1 1v14a1 1 0 001 1h14a1 1 0 001-1V1a1 1 0 00-1-1H1zm14 1H1v14h14V1z"/></symbol></svg>