<?xml version="1.0" encoding="utf-8"?><svg xmlns="http://www.w3.org/2000/svg" xmlns:xlink="http://www.w3.org/1999/xlink"><symbol viewBox="0 0 12 12" id="0"><path fill-rule="evenodd" clip-rule="evenodd" d="M6.285.759C3.355.63.883 2.877.755 5.769c-.128 2.893 2.137 5.348 5.066 5.476 2.66.117 4.944-1.725 5.436-4.23a.375.375 0 11.736.144c-.564 2.87-3.175 4.969-6.205 4.836C2.452 11.848-.141 9.05.006 5.737.152 2.424 2.982-.137 6.318.01a6.056 6.056 0 015.278 3.582.375.375 0 11-.686.304A5.306 5.306 0 006.285.76z"/><path fill-rule="evenodd" clip-rule="evenodd" d="M11.625 0c.207 0 .375.167.375.375v3.753a.375.375 0 01-.375.375H7.872a.375.375 0 010-.75h3.378V.375c0-.208.168-.375.375-.375z"/></symbol></svg>