<?xml version="1.0" encoding="utf-8"?><svg xmlns="http://www.w3.org/2000/svg" xmlns:xlink="http://www.w3.org/1999/xlink"><symbol viewBox="0 0 16 16" id="0"><path fill-rule="evenodd" clip-rule="evenodd" d="M5.313 0a1.5 1.5 0 00-1.5 1.5v6.496H1a1 1 0 00-1 1v4.588a2.402 2.402 0 002.367 2.401v.016h10.132a3.5 3.5 0 003.5-3.5V1.499A1.5 1.5 0 0014.5 0H5.313zm-.971 15h8.157a2.5 2.5 0 002.5-2.5v-11a.5.5 0 00-.5-.5H5.313a.5.5 0 00-.5.5v12.3h-.019a2.39 2.39 0 01-.452 1.2zM1 8.997h2.804v4.588a1.402 1.402 0 11-2.804 0V8.996zM6.946 3.91a.5.5 0 01.5-.5h5.1a.5.5 0 110 1h-5.1a.5.5 0 01-.5-.5zm.5 2.391a.5.5 0 000 1h5.1a.5.5 0 100-1h-5.1zm-.5 3.286a.5.5 0 01.5-.5h5.1a.5.5 0 110 1h-5.1a.5.5 0 01-.5-.5zm.5 2.426a.5.5 0 000 1H9.37a.5.5 0 100-1H7.446z"/></symbol></svg>