<?xml version="1.0" encoding="utf-8"?><svg xmlns="http://www.w3.org/2000/svg" xmlns:xlink="http://www.w3.org/1999/xlink"><symbol viewBox="0 0 14 19" id="0"><path fill-rule="evenodd" clip-rule="evenodd" d="M11.502 11.14l.06-.401a9.454 9.454 0 00.117-2.652 9.397 9.397 0 00-1.44-3.976L8.274 1.113C7.588.05 6.067.024 5.387 1.06L3.502 3.836a9.001 9.001 0 00-1.507 4.356c-.06.74.004 1.512.13 2.224l.127.681L.703 12.15a1.17 1.17 0 00-.463.948l.013 4.26a.596.596 0 00.778.57l2.48-.728c.375.624 1.06 1.068 1.836 1.082l3.073.055a2.078 2.078 0 001.859-1.047l2.672.88a.58.58 0 00.774-.54l-.012-4.291a1.211 1.211 0 00-.5-.966l-1.711-1.234zm-10.25 5.675l2.708-.794.406.677c.208.346.58.577.978.584l3.073.055c.431.008.792-.211.994-.561l.397-.688 2.916.961-.011-3.728a.19.19 0 00-.069-.137l-.005-.004-2.219-1.6.156-1.024.002-.011c.14-.79.19-1.586.107-2.369a8.378 8.378 0 00-1.282-3.534L7.438 1.643a.718.718 0 00-1.211-.021l-.004.007-1.889 2.779v.001a8.02 8.02 0 00-1.342 3.88v.004c-.052.632.002 1.314.117 1.965l.243 1.312-2.046 1.391a.188.188 0 00-.045.057.21.21 0 00-.02.098l.01 3.699zm6.7-9.063a.946.946 0 01-.986.932.994.994 0 01-.976-.982.946.946 0 01.986-.932.993.993 0 01.976.982zm1 .025a1.921 1.921 0 01-1.99 1.907c-1.095-.028-1.977-.926-1.972-2.007A1.921 1.921 0 016.98 5.77c1.095.028 1.977.927 1.972 2.007z"/></symbol></svg>