<?xml version="1.0" encoding="utf-8"?><svg xmlns="http://www.w3.org/2000/svg" xmlns:xlink="http://www.w3.org/1999/xlink"><symbol viewBox="0 0 13 12" id="0"><path d="M3.424 11.878l.858-.86a.435.435 0 000-.606.434.434 0 00-.605 0l-.859.86a.435.435 0 000 .606.434.434 0 00.606 0zm-.239-1.945a.435.435 0 000-.607.434.434 0 00-.605 0l-1.363 1.365a.435.435 0 000 .606.434.434 0 00.606 0l1.362-1.364zm-1.098-1.1a.435.435 0 000-.606.434.434 0 00-.606 0l-.858.859a.435.435 0 000 .606.434.434 0 00.606 0l.858-.859zM5.13 9.844l.378-.38c.404.57.745 1.2.985 1.858.1.265.429.353.656.177l1.54-1.314a2.109 2.109 0 00.618-2.325l-.101-.215 1.83-1.831a4.507 4.507 0 001.3-2.818L12.5.886a.822.822 0 00-.884-.884L9.51.167a4.434 4.434 0 00-2.814 1.3L4.865 3.3l-.228-.076a2.098 2.098 0 00-2.322.619L1.003 5.37a.411.411 0 00.177.657 7.26 7.26 0 011.855.986l-.379.379a.374.374 0 000 .518l1.956 1.933a.373.373 0 00.518 0zM7.527 4.98a1.22 1.22 0 010-1.73 1.22 1.22 0 011.73 0c.479.48.479 1.25 0 1.73-.48.48-1.25.48-1.73 0z"/></symbol></svg>