<?xml version="1.0" encoding="utf-8"?><svg xmlns="http://www.w3.org/2000/svg" xmlns:xlink="http://www.w3.org/1999/xlink"><symbol viewBox="0 0 16 16" id="0"><path fill-rule="evenodd" clip-rule="evenodd" d="M5.858 1H1v4.857h4.857V1zM1 0a1 1 0 00-1 1v4.857a1 1 0 001 1h4.857a1 1 0 001-1V1a1 1 0 00-1-1H1zm14 1h-4.857v4.857H15V1zm-4.857-1a1 1 0 00-1 1v4.857a1 1 0 001 1H15a1 1 0 001-1V1a1 1 0 00-1-1h-4.857zM0 12.5a.5.5 0 01.5-.5h15a.5.5 0 010 1H.5a.5.5 0 01-.5-.5zM.5 9a.5.5 0 000 1h15a.5.5 0 000-1H.5zM0 15.5a.5.5 0 01.5-.5h15a.5.5 0 010 1H.5a.5.5 0 01-.5-.5z"/></symbol></svg>