<?xml version="1.0" encoding="utf-8"?><svg xmlns="http://www.w3.org/2000/svg" xmlns:xlink="http://www.w3.org/1999/xlink"><symbol viewBox="0 0 14 16" id="0"><path fill-rule="evenodd" clip-rule="evenodd" d="M11.245 4.5a1.75 1.75 0 100-3.5 1.75 1.75 0 000 3.5zm0 1A2.75 2.75 0 108.66 3.687L4.962 6.152a2.75 2.75 0 10-.587 3.852l4.187 2.557a2.755 2.755 0 002.664 3.435 2.75 2.75 0 10-2.24-4.347l-3.913-2.39a2.737 2.737 0 00.33-2.199l3.764-2.51c.504.582 1.248.95 2.078.95zm-8.495.536c.56 0 1.059.263 1.379.672l-.016.011.235.353A1.75 1.75 0 112.75 6.036zm10.226 7.21a1.75 1.75 0 11-3.5 0 1.75 1.75 0 013.5 0z"/></symbol></svg>