<?xml version="1.0" encoding="utf-8"?><svg xmlns="http://www.w3.org/2000/svg" xmlns:xlink="http://www.w3.org/1999/xlink"><symbol viewBox="0 0 14 13" id="0"><path d="M.5 12.42a.5.5 0 00.44-.28l.01-.01c.94-1.88 3.83-3.05 5.92-3.05h.8v3.17a.5.5 0 00.86.35l5.33-5.5a.5.5 0 000-.7L8.53.9a.5.5 0 00-.86.35v3.17H7.5c-3.58 0-7.5 2.91-7.5 6.5v1a.5.5 0 00.5.5zm7.67-4.34h-1.3c-1.88 0-4.62.8-5.83 2.15.34-2.7 3.66-4.81 6.46-4.81h.67a.5.5 0 00.5-.5V2.49l4.14 4.26-4.14 4.26V8.58a.5.5 0 00-.5-.5z"/></symbol></svg>