<?xml version="1.0" encoding="utf-8"?><svg xmlns="http://www.w3.org/2000/svg" xmlns:xlink="http://www.w3.org/1999/xlink"><symbol viewBox="0 0 18 18" id="0"><path fill-rule="evenodd" clip-rule="evenodd" d="M9 .9a8.1 8.1 0 100 16.2A8.1 8.1 0 009 .9zM1.9 9a7.1 7.1 0 1114.2 0A7.1 7.1 0 011.9 9zm4.3-3.3a1.3 1.3 0 100 2.6 1.3 1.3 0 000-2.6zm5.6 0a1.3 1.3 0 100 2.6 1.3 1.3 0 000-2.6zm-6.317 4.578a.58.58 0 10-.965.644l.085.13.001.001c.256.391.649.99 1.27 1.496.715.584 1.711 1.031 3.126 1.031 1.416 0 2.411-.447 3.127-1.03.621-.507 1.013-1.106 1.27-1.497v-.002l.086-.13a.58.58 0 00-.965-.643l-.091.138c-.26.395-.559.848-1.033 1.234-.511.417-1.249.77-2.394.77-1.144 0-1.882-.353-2.393-.77-.474-.386-.773-.839-1.033-1.233v-.002l-.091-.137z"/></symbol></svg>