<?xml version="1.0" encoding="utf-8"?><svg xmlns="http://www.w3.org/2000/svg" xmlns:xlink="http://www.w3.org/1999/xlink"><symbol viewBox="0 0 16 16" id="0"><path fill-rule="evenodd" clip-rule="evenodd" d="M9.604 4.483l-1.497-3.41c-.016-.038-.033-.05-.043-.056A.123.123 0 008 1a.123.123 0 00-.064.017c-.01.006-.027.018-.043.055L6.396 4.483a2.119 2.119 0 01-1.67 1.252l-3.62.464a.104.104 0 00-.06.023.134.134 0 00-.038.06.14.14 0 00-.005.072c.003.015.01.034.036.06l2.745 2.7a2.13 2.13 0 01.6 1.905l-.71 3.83a.12.12 0 00.005.073.132.132 0 00.045.054.123.123 0 00.062.024c.01 0 .03 0 .061-.019l3.081-1.813a2.112 2.112 0 012.144 0l3.08 1.813c.033.02.051.02.062.019a.123.123 0 00.061-.024.131.131 0 00.046-.054.12.12 0 00.005-.074l-.71-3.829a2.129 2.129 0 01.6-1.906l2.745-2.7a.115.115 0 00.036-.06.14.14 0 00-.005-.072.135.135 0 00-.038-.059.103.103 0 00-.06-.023l-3.62-.464a2.119 2.119 0 01-1.67-1.252zM9.023.67C8.63-.223 7.37-.223 6.977.67L5.48 4.081c-.158.36-.493.612-.881.662l-3.621.464c-.928.119-1.309 1.262-.64 1.92l2.745 2.7c.267.262.386.64.317 1.01l-.709 3.83c-.175.947.837 1.663 1.663 1.176l3.082-1.813c.348-.205.78-.205 1.128 0l3.082 1.813c.826.487 1.838-.23 1.663-1.177l-.71-3.83a1.13 1.13 0 01.318-1.01l2.745-2.7c.669-.657.287-1.8-.64-1.92l-3.62-.463a1.118 1.118 0 01-.882-.662L9.023.671z"/></symbol></svg>