<?xml version="1.0" encoding="utf-8"?><svg xmlns="http://www.w3.org/2000/svg" xmlns:xlink="http://www.w3.org/1999/xlink"><symbol viewBox="0 0 36 20" id="0"><path fill-rule="evenodd" clip-rule="evenodd" d="M13.78 7.22c.3.3.3.77 0 1.06l-4.25 4.25c-.3.3-.77.3-1.06 0l-2.25-2.25a.75.75 0 111.06-1.06L9 10.94l3.72-3.72c.3-.3.77-.3 1.06 0z"/><path d="M24.28 7.22a.75.75 0 10-1.06 1.06L24.94 10l-1.72 1.72a.75.75 0 101.06 1.06L26 11.06l1.72 1.72a.75.75 0 101.06-1.06L27.06 10l1.72-1.72a.75.75 0 00-1.06-1.06L26 8.94l-1.72-1.72z"/></symbol></svg>