<?xml version="1.0" encoding="utf-8"?><svg xmlns="http://www.w3.org/2000/svg" xmlns:xlink="http://www.w3.org/1999/xlink"><symbol viewBox="0 0 14 16" id="0"><path fill-rule="evenodd" clip-rule="evenodd" d="M4.748.004A3.248 3.248 0 001.5 3.252h1a2.248 2.248 0 012.248-2.248H9a2.5 2.5 0 012.5 2.5V5H2a2 2 0 00-2 2v7a2 2 0 002 2h10a2 2 0 002-2V7a2 2 0 00-1.5-1.937v-1.56A3.5 3.5 0 009 .004H4.748zM2 6h10a1 1 0 011 1v7a1 1 0 01-1 1H2a1 1 0 01-1-1V7a1 1 0 011-1zm7 4.5a2 2 0 11-4 0 2 2 0 014 0z"/></symbol></svg>