<?xml version="1.0" encoding="utf-8"?><svg xmlns="http://www.w3.org/2000/svg" xmlns:xlink="http://www.w3.org/1999/xlink"><symbol viewBox="0 0 18 17" id="0"><path fill-rule="evenodd" clip-rule="evenodd" d="M5.64 5.317c0-1.812 1.512-3.319 3.342-3.319s3.341 1.507 3.341 3.32v.02c.04.962-.326 2.056-.963 2.908-.64.854-1.49 1.39-2.378 1.39-.836 0-1.664-.529-2.309-1.39-.64-.857-1.032-1.958-1.032-2.929zM8.983.998c-2.377 0-4.341 1.949-4.341 4.32 0 1.211.477 2.519 1.231 3.527.75 1.002 1.842 1.792 3.11 1.792 1.307 0 2.423-.782 3.178-1.792.755-1.01 1.211-2.32 1.163-3.538C13.317 2.94 11.355.998 8.982.998zm-4.33 8.948a.5.5 0 00-.454-.892c-1.889.963-3.2 2.896-3.2 5.05 0 .175.062.518.323.79a.957.957 0 00.124.103c.039.028.086.06.14.096.11.07.26.16.443.259.368.199.886.446 1.538.688 1.305.483 3.152.946 5.414.954 2.722.009 4.621-.462 5.855-.962a7.243 7.243 0 001.37-.714 3.55 3.55 0 00.353-.274c.041-.038.081-.077.115-.116a.74.74 0 00.05-.065 1.17 1.17 0 00.279-.741c0-2.142-1.21-4.086-3.209-5.054a.5.5 0 00-.436.9c1.66.803 2.645 2.4 2.645 4.154a.204.204 0 01-.03.081l-.004.005a.49.49 0 00-.066.08l-.016.015a2.413 2.413 0 01-.247.19 6.222 6.222 0 01-1.18.612c-1.103.448-2.872.898-5.475.889a14.777 14.777 0 01-5.07-.892 11.07 11.07 0 01-1.41-.63 5.857 5.857 0 01-.47-.284l-.003-.001A.235.235 0 012 14.105v-.007c.001-1.74 1.068-3.345 2.653-4.152z"/></symbol></svg>