<?xml version="1.0" encoding="utf-8"?><svg xmlns="http://www.w3.org/2000/svg" xmlns:xlink="http://www.w3.org/1999/xlink"><symbol viewBox="0 0 21 20" id="0"><path fill-rule="evenodd" clip-rule="evenodd" d="M20.001 2.96v5.518a1 1 0 01-1 1h-2.919V2.96c0-1.116.92-1.943 1.997-1.943v-.016a1.96 1.96 0 011.922 1.96zM3.831.017C2.283.017.998 1.275.998 2.818l.02 15.525c.001.6.33 1.138.859 1.442.537.31 1.32.294 1.813-.11l4.543-3.736a.5.5 0 01.634 0l4.573 3.737c.482.393 1.279.401 1.793.07.527-.309.845-.846.845-1.466v-7.802h2.924a2 2 0 002-2V2.96A2.96 2.96 0 0018.041 0C13.306 0 8.567.017 3.83.017zm11.978 1H3.831c-1.009 0-1.833.823-1.833 1.8l.02 15.526c0 .542.627.808 1.06.54l4.52-3.716a1.5 1.5 0 011.901-.003l4.551 3.719c.45.274 1.028-.091 1.028-.603l.004-15.32c0-.743.274-1.423.727-1.943z"/></symbol></svg>