<?xml version="1.0" encoding="utf-8"?><svg xmlns="http://www.w3.org/2000/svg" xmlns:xlink="http://www.w3.org/1999/xlink"><symbol viewBox="0 0 20 14" id="0"><path fill-rule="evenodd" clip-rule="evenodd" d="M15.7 1H4.3a3 3 0 00-2.9 3v6a3 3 0 002.9 3h11.4a3 3 0 002.8-3V4a3 3 0 00-2.8-3zM4.3 0A3.9 3.9 0 00.5 4v6a4 4 0 003.8 4h11.4c2 0 3.8-1.8 3.8-4V4a4 4 0 00-3.8-4H4.3z"/><path fill-rule="evenodd" clip-rule="evenodd" d="M8.5 9.5l4-2.4V7l-4-2.5v5zm.5.9c-.7.4-1.5-.1-1.5-1V4.6c0-.9.8-1.4 1.5-1l4 2.5a1 1 0 010 1.8l-4 2.5z"/></symbol></svg>