<?xml version="1.0" encoding="utf-8"?><svg xmlns="http://www.w3.org/2000/svg" xmlns:xlink="http://www.w3.org/1999/xlink"><symbol viewBox="0 0 20 16" id="0"><path d="M19.468 3.154a2.5 2.5 0 00-1.74-1.776C16.181.946 10 .946 10 .946s-6.182 0-7.728.415c-.83.233-1.513.93-1.74 1.793C.125 4.73.125 8 .125 8s0 3.286.407 4.846a2.5 2.5 0 001.74 1.776c1.562.431 7.728.431 7.728.431s6.182 0 7.727-.415a2.5 2.5 0 001.741-1.775c.407-1.577.407-4.847.407-4.847s.016-3.286-.407-4.862zM8.59 10.821L12.822 8 8.59 5.178v5.643z" fill-rule="evenodd"/></symbol></svg>