<svg width="33" height="18" viewBox="0 0 33 18" fill="none" xmlns="http://www.w3.org/2000/svg">
<path d="M2.93945 6.81644L23.1816 14.4772L22.6342 12.7388C21.5411 9.26721 24.3188 5.79983 27.8668 6.20695L30.2047 6.47522L26.4552 3.45451C20.6494 -1.22279 12.439 -1.14254 6.72193 3.64738L2.93945 6.81644Z" fill="#FF6363"/>
<path d="M0.990496 4.72104C1.37151 3.80672 2.40606 3.38099 3.30123 3.77016L23.397 12.5067C24.2922 12.8959 24.709 13.9526 24.328 14.8669L23.4786 16.905C23.0976 17.8194 22.0631 18.2451 21.1679 17.8559L1.07212 9.11935C0.176951 8.73018 -0.239849 7.67349 0.141168 6.75916L0.990496 4.72104Z" fill="#D2D6E7"/>
<path d="M32.9736 5.03214C33.2065 6.99122 31.8404 8.77219 29.9224 9.01004C28.0043 9.24789 26.2607 7.85255 26.0278 5.89347C25.7949 3.93439 27.161 2.15342 29.0791 1.91557C30.9971 1.67772 32.7408 3.07305 32.9736 5.03214Z" fill="#D2D6E7"/>
</svg>
