<?xml version="1.0" encoding="utf-8"?><svg xmlns="http://www.w3.org/2000/svg" xmlns:xlink="http://www.w3.org/1999/xlink"><symbol fill="none" viewBox="0 0 16 16" id="0"><rect width="16" height="16" fill="#FEE" rx="2"/><path fill="#FF6363" fill-rule="evenodd" d="M6 6.5v-1a.5.5 0 0 0-1 0v1a.5.5 0 0 0 1 0M5.5 4A1.5 1.5 0 0 0 4 5.5v1a1.5 1.5 0 1 0 3 0v-1A1.5 1.5 0 0 0 5.5 4m5.825.12a.5.5 0 0 1 .055.705l-6 7a.5.5 0 1 1-.76-.65l6-7a.5.5 0 0 1 .705-.055M11 9.436v1a.5.5 0 0 1-1 0v-1a.5.5 0 0 1 1 0m-2 0a1.5 1.5 0 1 1 3 0v1a1.5 1.5 0 0 1-3 0z" clip-rule="evenodd"/></symbol></svg>