<?xml version="1.0" encoding="utf-8"?><svg xmlns="http://www.w3.org/2000/svg" xmlns:xlink="http://www.w3.org/1999/xlink"><symbol fill="none" viewBox="0 0 16 16" id="0"><mask id="aa" width="16" height="16" x="0" y="0" maskUnits="userSpaceOnUse" style="mask-type:alpha"><path fill="#DAE0FD" d="M0 2a2 2 0 0 1 2-2h12a2 2 0 0 1 2 2v12a2 2 0 0 1-2 2H2a2 2 0 0 1-2-2z"/></mask><g mask="url(#aa)"><path fill="#D6F6D6" d="M0 0h16L0 16z"/><path fill="#FEE" d="M16 0v14a2 2 0 0 1-2 2H0z"/></g><path fill="#FF6363" fill-rule="evenodd" d="M9.904 9c-.5 0-.904.405-.904.904v.244a.904.904 0 1 0 1.809 0v-.244c0-.5-.405-.904-.905-.904m3.331.17a.5.5 0 0 1 .091.702l-3.017 3.92a.5.5 0 0 1-.793-.61l3.018-3.92a.5.5 0 0 1 .701-.091m-1.044 3.682a.904.904 0 0 1 1.809 0v.244a.904.904 0 0 1-1.809 0z" clip-rule="evenodd"/><path fill="#1BAD44" fill-rule="evenodd" d="M2.904 2c-.5 0-.904.405-.904.904v.244a.904.904 0 1 0 1.809 0v-.244c0-.5-.405-.904-.905-.904m3.331.17a.5.5 0 0 1 .091.702L3.31 6.792a.5.5 0 0 1-.793-.61l3.018-3.92a.5.5 0 0 1 .701-.091M5.191 5.853a.904.904 0 1 1 1.809 0v.244a.904.904 0 1 1-1.809 0z" clip-rule="evenodd"/></symbol></svg>