<svg width="18" height="16" viewBox="0 0 18 16" fill="none" xmlns="http://www.w3.org/2000/svg">
  <path fill-rule="evenodd" clip-rule="evenodd"
    d="M0 2.56514L0.575296 5.32656L0.209814 5.59729L0.751269 6.01015L0.338409 6.33502L0.879865 6.8291L0.541455 7.07276L1.3198 7.98646L0.142131 11.6548L1.23858 15.3976L5.07614 14.3418L5.82064 14.9509L7.32995 16H9.92216L11.4382 14.9509L12.1827 14.3418L16.0203 15.3976L17.1235 11.6548L15.9323 7.98646L16.7174 7.07276L16.379 6.8291L16.9205 6.33502L16.5008 6.01015L17.0423 5.59729L16.6836 5.32656L17.2589 2.56514L16.3993 0L10.9103 2.05076L6.34856 2.05076L0.852792 0L0 2.56514Z"
    fill="#F6851B" />
  <path d="M16.3994 0L9.66504 5.00169L10.9104 2.05076L16.3994 0Z" fill="#E2761B" />
  <path d="M0.853027 0L7.53323 5.04907L6.3488 2.05076L0.853027 0Z" fill="#E4761B" />
  <path d="M13.9762 11.5938L12.1826 14.3416L16.0202 15.3975L17.1234 11.6547L13.9762 11.5938Z" fill="#E4761B" />
  <path d="M0.14209 11.6547L1.23854 15.3975L5.0761 14.3416L3.28253 11.5938L0.14209 11.6547Z" fill="#E4761B" />
  <path d="M4.85941 6.95102L3.79004 8.56862L7.60053 8.73782L7.46517 4.64307L4.85941 6.95102Z" fill="#E4761B" />
  <path d="M12.3926 6.95103L9.75302 4.5957L9.66504 8.73783L13.4688 8.56863L12.3926 6.95103Z" fill="#E4761B" />
  <path d="M5.07617 14.342L7.36382 13.2253L5.38751 11.6821L5.07617 14.342Z" fill="#E4761B" />
  <path d="M9.88818 13.2253L12.1826 14.342L11.8645 11.6821L9.88818 13.2253Z" fill="#E4761B" />
  <path d="M12.1826 14.3418L9.88818 13.2251L10.0709 14.7209L10.0506 15.3503L12.1826 14.3418Z" fill="#D7C1B3" />
  <path d="M5.07617 14.3418L7.20815 15.3503L7.19462 14.7209L7.36382 13.2251L5.07617 14.3418Z" fill="#D7C1B3" />
  <path d="M7.24213 10.6938L5.3335 10.132L6.68037 9.51611L7.24213 10.6938Z" fill="#233447" />
  <path d="M10.0103 10.6938L10.572 9.51611L11.9257 10.132L10.0103 10.6938Z" fill="#233447" />
  <path d="M5.07629 14.3416L5.40116 11.5938L3.28271 11.6547L5.07629 14.3416Z" fill="#CD6116" />
  <path d="M11.8579 11.5938L12.1828 14.3416L13.9764 11.6547L11.8579 11.5938Z" fill="#CD6116" />
  <path d="M13.4688 8.56836L9.66504 8.73756L10.017 10.6936L10.5787 9.51591L11.9324 10.1318L13.4688 8.56836Z"
    fill="#CD6116" />
  <path d="M5.33319 10.1318L6.68682 9.51591L7.24182 10.6936L7.60053 8.73756L3.79004 8.56836L5.33319 10.1318Z"
    fill="#CD6116" />
  <path d="M3.79004 8.56836L5.38733 11.6817L5.33319 10.1318L3.79004 8.56836Z" fill="#E4751F" />
  <path d="M11.9324 10.1318L11.8647 11.6817L13.4688 8.56836L11.9324 10.1318Z" fill="#E4751F" />
  <path d="M7.6009 8.73779L7.24219 10.6938L7.68889 13.0018L7.79041 9.96283L7.6009 8.73779Z" fill="#E4751F" />
  <path d="M9.66516 8.73779L9.48242 9.95607L9.56364 13.0018L10.0171 10.6938L9.66516 8.73779Z" fill="#E4751F" />
  <path d="M10.0169 10.6936L9.56348 13.0015L9.88835 13.2249L11.8647 11.6818L11.9323 10.1318L10.0169 10.6936Z"
    fill="#F6851B" />
  <path d="M5.3335 10.1318L5.38764 11.6818L7.36395 13.2249L7.68883 13.0015L7.24213 10.6936L5.3335 10.1318Z"
    fill="#F6851B" />
  <path
    d="M10.0508 15.3503L10.0711 14.7208L9.90189 14.5719H7.35028L7.19462 14.7208L7.20815 15.3503L5.07617 14.3418L5.82067 14.9509L7.32998 16H9.9222L11.4383 14.9509L12.1828 14.3418L10.0508 15.3503Z"
    fill="#C0AD9E" />
  <path
    d="M9.88856 13.2248L9.56369 13.0015H7.6889L7.36403 13.2248L7.19482 14.7206L7.35049 14.5717H9.9021L10.0713 14.7206L9.88856 13.2248Z"
    fill="#161616" />
  <path
    d="M16.6834 5.32656L17.2587 2.56514L16.3992 0L9.88818 4.83249L12.3924 6.95093L15.9322 7.98646L16.7173 7.07276L16.3789 6.8291L16.9203 6.33502L16.5007 6.01015L17.0422 5.59729L16.6834 5.32656Z"
    fill="#763D16" />
  <path
    d="M0 2.56514L0.575296 5.32656L0.209814 5.59729L0.751269 6.01015L0.33841 6.33502L0.879865 6.8291L0.541455 7.07276L1.3198 7.98646L4.85956 6.95093L7.36379 4.83249L0.852792 0L0 2.56514Z"
    fill="#763D16" />
  <path d="M15.9324 7.9867L12.3927 6.95117L13.4688 8.56877L11.8647 11.6821L13.9764 11.6551H17.1236L15.9324 7.9867Z"
    fill="#F6851B" />
  <path d="M4.85952 6.95117L1.31975 7.9867L0.14209 11.6551H3.28253L5.38744 11.6821L3.79014 8.56877L4.85952 6.95117Z"
    fill="#F6851B" />
  <path
    d="M9.66505 8.73775L9.8884 4.83251L10.9172 2.05078H6.34863L7.36386 4.83251L7.60075 8.73775L7.68197 9.96956L7.68873 13.0017H9.56352L9.57706 9.96956L9.66505 8.73775Z"
    fill="#F6851B" />
</svg>