<svg width="17" height="16" viewBox="0 0 17 16" fill="none" xmlns="http://www.w3.org/2000/svg">
  <path
    d="M17 2.23077C16.3625 2.57692 15.725 2.69231 14.9812 2.80769C15.725 2.34615 16.2563 1.65385 16.4688 0.730769C15.8312 1.19231 15.0875 1.42308 14.2375 1.65385C13.6 0.961538 12.6438 0.5 11.6875 0.5C9.88125 0.5 8.2875 2.23077 8.2875 4.30769C8.2875 4.65385 8.2875 4.88462 8.39375 5.11538C5.525 5 2.86875 3.5 1.16875 1.19231C0.85 1.76923 0.74375 2.34615 0.74375 3.15385C0.74375 4.42308 1.38125 5.57692 2.3375 6.26923C1.80625 6.26923 1.275 6.03846 0.74375 5.80769C0.74375 7.65385 1.9125 9.15385 3.50625 9.5C3.1875 9.61538 2.86875 9.61539 2.55 9.61539C2.3375 9.61539 2.125 9.61538 1.9125 9.5C2.3375 11 3.6125 12.1538 5.20625 12.1538C4.0375 13.1923 2.55 13.7692 0.85 13.7692C0.53125 13.7692 0.31875 13.7692 0 13.7692C1.59375 14.8077 3.4 15.5 5.3125 15.5C11.6875 15.5 15.1938 9.73077 15.1938 4.76923C15.1938 4.65385 15.1938 4.42308 15.1938 4.30769C15.9375 3.73077 16.575 3.03846 17 2.23077Z"
    fill="#4894E2" />
</svg>