<svg width="16" height="16" viewBox="0 0 16 16" fill="none" xmlns="http://www.w3.org/2000/svg">
  <path d="M16 8C16 12.4183 12.4183 16 8 16C3.58172 16 0 12.4183 0 8C0 3.58172 3.58172 0 8 0C12.4183 0 16 3.58172 16 8Z"
    fill="#3FB898" />
  <path
    d="M11.6171 6.79126C10.0366 8.73924 10.5593 11.0103 10.6801 11.4452C11.0755 12.8753 11.9927 13.7985 12.817 14.3672L13.7679 13.5245C13.0768 13.1076 12.213 12.3619 11.8686 11.1171C11.8111 10.9127 11.35 9.07566 12.5754 7.56592L12.5754 7.56712C13.6043 6.29875 15.0401 6.13529 15.7189 6.13281L15.3283 4.90234C14.3371 4.96965 12.7982 5.33649 11.6171 6.79126Z"
    fill="white" />
  <path
    d="M8.27349 3.59296C8.97453 2.36633 10.246 1.36642 11.2734 0.746094L12.5586 1.48047C11.6743 1.95641 10.0544 2.95635 9.34363 4.20179C9.03047 4.75066 8.85132 5.32099 8.8497 5.32661C8.6828 5.85833 8.60231 6.46382 8.60231 7.17934C8.60231 9.69905 8.35162 10.3014 7.54865 10.9422C7.10079 11.2999 6.50158 11.4781 5.90899 11.4781C5.3058 11.4781 4.7099 11.2926 4.28997 10.9226C3.55418 10.2733 3.57572 9.35525 3.59305 8.6171L3.59309 8.61537C3.60299 8.21826 3.61359 7.76704 3.47228 7.64396C3.44931 7.62349 2.94227 7.19246 0.083014 8.88596L0.0830078 7.39928C2.24055 6.20634 3.51236 6.04634 4.28243 6.71502C4.86101 7.21706 4.84367 7.97526 4.8273 8.64394C4.81175 9.3192 4.82152 9.7483 5.10839 10.0002C5.48813 10.3358 6.34778 10.3252 6.78092 9.98058L6.78126 9.9803C7.14843 9.68681 7.37104 9.50886 7.37104 7.17941C7.37104 6.33755 7.46969 5.61229 7.67346 4.96161C7.68089 4.93605 7.88963 4.2641 8.27349 3.59296Z"
    fill="white" />
</svg>