<svg width="16" height="12" viewBox="0 0 16 12" fill="none" xmlns="http://www.w3.org/2000/svg">
  <path
    d="M15.6704 1.87765C15.4859 1.14353 14.9456 0.564706 14.2602 0.367059C13.0082 0 7.99997 0 7.99997 0C7.99997 0 2.99175 0 1.7397 0.352941C1.06754 0.550588 0.514001 1.14353 0.329488 1.87765C0 3.21882 0 6 0 6C0 6 0 8.79529 0.329488 10.1224C0.514001 10.8565 1.05436 11.4353 1.7397 11.6329C3.00493 12 7.99997 12 7.99997 12C7.99997 12 13.0082 12 14.2602 11.6471C14.9456 11.4494 15.4859 10.8706 15.6704 10.1365C15.9999 8.79529 15.9999 6.01412 15.9999 6.01412C15.9999 6.01412 16.0131 3.21882 15.6704 1.87765Z"
    fill="#FF6363" />
  <path
    d="M6.5 7.59788C6.5 7.99059 6.93198 8.23002 7.265 8.02188L9.8216 6.424C10.1349 6.22816 10.1349 5.77183 9.8216 5.576L7.265 3.97812C6.93198 3.76998 6.5 4.00941 6.5 4.40212V7.59788Z"
    fill="white" />
</svg>