<svg width="793" height="194" fill="none" xmlns="http://www.w3.org/2000/svg"><path d="M425.178 65.61h-25.459l-21.823 23.924v13.952a272.612 272.612 0 0 0-5.94 6.005 103.865 103.865 0 0 0-17.599-22.749l-.281-.274c20.303-22.941 37.076-51.325 51.431-86.597h186.337C523.927 13.953 468.339 37.14 425.178 65.61Z" fill="var(--green-light-1, #EDF8F5)"/><path d="M302.267 23.047c26.228 8.495 35.884 29.906 6.215 39.814 70.705 0 93.618-58.22 200.344-62.235C426.068.584 258.764.687 176.66.735c40.914 10.311 86.103 9.515 125.607 22.312ZM753.153 37.262c9.888-6.149 25.755-9.696 38.904-5.022V.922c-72.245 0-143.5.145-215.746 0-4.474 10.54-23.526 21.465-50.855 19.91-23.361-1.33-52.874-1.016-94.579 23.88 14.959-7.606 35.768-7.574 59.446-4.308l10.067-14.069h84.907v32.093c23.224 3.031 39.668 1.126 41.117-13.716 4.945-2.194 9.886-3.358 15.868-3.617l25.089-24.25 49.393 32.951 24.087-26.047 12.302 13.513Z" fill="var(--green-light-3, #B0EBDB)"/></svg>