<svg width="791" height="194" fill="none" xmlns="http://www.w3.org/2000/svg"><path d="M620.877.975H409.968C339.63 138.93-.758 194.102-.758 194.102h144.129l112.913-50.866 9.641 3.044 64.83-31.441 41.274 22.457 40.877-27.851C438.151 57.882 487.301 4.355 620.877.975Z" fill="var(--green-light-1, #EDF8F5)"/><path d="M482.977.433a168.13 168.13 0 0 0-24.213 10.56c48.912 0 24.017 39.722-55.756 22.095 68.83 26.378 147.183 18.92 151.232-2.943 6.475-18.994 31.419-15.814 62.887-11.803 24.481 3.121 52.911 6.746 79.664.824-13.816 1.108-32.881-4.215-55.473-10.523-9.665-2.698-19.976-5.577-30.797-8.21H482.977Z" fill="var(--green-light-3, #B0EBDB)"/></svg>