<svg width="18" height="14" fill="none" xmlns="http://www.w3.org/2000/svg"><path fill-rule="evenodd" clip-rule="evenodd" d="M1.402 4.5 9 1.052 16.598 4.5 9 7.948 1.402 4.5ZM8.803.043a.47.47 0 0 1 .394 0l8.443 3.832c.48.217.48 1.033 0 1.25L15.075 6.29v4.882c0 .316-.027.69-.19 1.056-.166.38-.458.71-.913.976-.872.509-2.381.795-4.954.795-2.595 0-4.104-.388-4.974-.953-.446-.288-.725-.624-.889-.97a2.09 2.09 0 0 1-.194-.904V6.306L.36 5.126c-.48-.218-.48-1.034 0-1.251L8.803.043ZM3.96 6.76v4.412c0 .147.02.31.1.477.077.164.225.362.527.558.626.405 1.896.792 4.43.792 2.557 0 3.828-.295 4.451-.659.293-.17.43-.349.503-.515.078-.178.104-.387.104-.653V6.743L9.197 8.957a.47.47 0 0 1-.394 0L3.96 6.759Z" fill="#7A859E"/></svg>