<svg width="16" height="14" fill="none" xmlns="http://www.w3.org/2000/svg"><path fill-rule="evenodd" clip-rule="evenodd" d="M4.398.918a.5.5 0 0 0-.55-.836C1.532 1.606 0 4.13 0 7.002c0 2.868 1.53 5.391 3.842 6.915a.5.5 0 1 0 .55-.835C2.33 11.723 1 9.5 1 7.002c0-2.5 1.333-4.726 3.398-6.084Zm7.754-.836a.5.5 0 1 0-.55.836c2.066 1.358 3.399 3.583 3.399 6.084 0 2.498-1.33 4.721-3.392 6.08a.5.5 0 1 0 .55.835c2.312-1.524 3.842-4.047 3.842-6.915 0-2.872-1.533-5.396-3.849-6.92ZM10.215 7c0 1.253-1.002 2.25-2.215 2.25-1.212 0-2.214-.997-2.214-2.25 0-1.253 1.002-2.25 2.214-2.25 1.213 0 2.215.997 2.215 2.25Zm1 0c0 1.795-1.44 3.25-3.215 3.25S4.786 8.795 4.786 7 6.225 3.75 8 3.75 11.215 5.205 11.215 7Z" fill="#FF6363"/></svg>