<svg width="16" height="16" fill="none" xmlns="http://www.w3.org/2000/svg"><path fill-rule="evenodd" clip-rule="evenodd" d="M4.5 0a.5.5 0 0 1 0 1l-1 .2L3 2c-.2.5-.2 1.4-.2 2.3 0 1 .1 1.9-.1 2.8-.2.4-.3.7-.7 1 .4.3.5.6.7 1 .2.8.1 1.7.1 2.6 0 .8-.1 1.7.2 2.5l.5.7 1 .2a.5.5 0 1 1 0 1c-.6 0-1.2-.1-1.6-.4-.4-.3-.7-.7-.8-1-.4-1-.3-2-.3-3l-.1-2.3c0-.3-.2-.5-.4-.6l-.8-.2a.5.5 0 0 1 0-1l.8-.2c.2-.1.3-.3.4-.6.2-.8.1-1.6.1-2.4 0-1 0-2 .3-2.8.1-.4.4-.8.8-1.1C3.3.1 4 0 4.5 0Zm6.5.5c0-.3.2-.5.5-.5.6 0 1.2.1 1.6.4.4.3.7.7.8 1 .3 1 .3 2 .3 2.9 0 .8-.1 1.6.1 2.4 0 .3.2.5.4.6l.8.2a.5.5 0 0 1 0 1l-.8.2c-.2.1-.3.3-.4.6-.2.6-.1 1.4-.1 2.3 0 1 0 2-.3 3-.1.3-.4.7-.8 1-.4.3-1 .4-1.6.4a.5.5 0 0 1 0-1l1-.2.5-.7c.3-.8.2-1.7.2-2.5l.1-2.6c.2-.4.3-.7.7-1-.4-.3-.5-.6-.7-1-.2-1-.1-1.9-.1-2.8 0-1 0-1.8-.2-2.3l-.5-.7-1-.2a.5.5 0 0 1-.5-.5Z" fill="#7A859E"/></svg>