<svg width="16" height="14" viewBox="0 0 16 14" fill="none" xmlns="http://www.w3.org/2000/svg">
<path fill-rule="evenodd" clip-rule="evenodd" d="M8.64639 9.74322C8.81967 9.61293 9.03059 9.54247 9.24739 9.54247H15V1H1L1 9.54247H3.97853C4.53082 9.54247 4.97853 9.99019 4.97853 10.5425V12.5013L8.64639 9.74322ZM4.77791 13.9033C4.4482 14.1406 3.97853 13.9141 3.97853 13.5178V11.5425V10.5425H2.97853H1C0.447716 10.5425 0 10.1115 0 9.57979V0.962678C0 0.431006 0.447715 0 1 0H15C15.5523 0 16 0.431006 16 0.962679V9.57979C16 10.1115 15.5523 10.5425 15 10.5425H9.24739L4.77791 13.9033Z" fill="#14C393"/>
</svg>
