<svg width="12" height="12" fill="none" xmlns="http://www.w3.org/2000/svg"><path fill-rule="evenodd" clip-rule="evenodd" d="M3.072.5a.5.5 0 0 1 .5-.5h4.856a.5.5 0 0 1 .5.5V2a.5.5 0 0 1-.032.175H11.5a.5.5 0 1 1 0 1h-.969a.498.498 0 0 1 .066.248V10.5a1.5 1.5 0 0 1-1.5 1.5h-6.26a1.5 1.5 0 0 1-1.5-1.5V3.423c0-.09.024-.175.066-.248h-.9a.5.5 0 0 1 0-1h2.602A.499.499 0 0 1 3.072 2V.5ZM2.27 3.175a.498.498 0 0 1 .066.248V10.5a.5.5 0 0 0 .5.5h6.26a.5.5 0 0 0 .5-.5V3.423c0-.09.025-.175.067-.248H2.27ZM7.928 2c0 .061.01.12.03.175H4.042A.5.5 0 0 0 4.072 2V1h3.856v1Z" fill="#7A859E"/></svg>