<svg width="16" height="16" fill="none" xmlns="http://www.w3.org/2000/svg"><path fill-rule="evenodd" clip-rule="evenodd" d="M4.188.5a.5.5 0 0 1 .5-.5h6.62a.5.5 0 0 1 .5.5v2.045a.5.5 0 0 1-.228.42h3.916a.5.5 0 0 1 0 1H.5a.5.5 0 0 1 0-1h3.916a.5.5 0 0 1-.228-.42V.5Zm6.62 2.045a.5.5 0 0 0 .228.42H4.96a.5.5 0 0 0 .229-.42V1h5.62v1.545ZM2.82 4.486a.5.5 0 0 0-1 0V14.5a1.5 1.5 0 0 0 1.5 1.5h9.264a1.5 1.5 0 0 0 1.5-1.5V4.486a.5.5 0 1 0-1 0V14.5a.5.5 0 0 1-.5.5H3.32a.5.5 0 0 1-.5-.5V4.486Z" fill="#7A859E"/></svg>