<svg width="17" height="16" fill="none" xmlns="http://www.w3.org/2000/svg"><path fill-rule="evenodd" clip-rule="evenodd" d="M7.527 0a.5.5 0 0 0-.5.5v6.46H4.509a.5.5 0 0 0-.37.837l4.594 5.022a.5.5 0 0 0 .745-.009l4.396-5.021a.5.5 0 0 0-.376-.83h-2.322V.5a.5.5 0 0 0-.5-.5H7.527Zm.5 7.46V1h2.15v6.46a.5.5 0 0 0 .5.5h1.719L9.094 11.73 5.644 7.96h1.883a.5.5 0 0 0 .5-.5Zm-6.03 2.935a.5.5 0 0 0-1 0v4.102a1.5 1.5 0 0 0 1.5 1.5H15.5a1.5 1.5 0 0 0 1.5-1.5v-4.102a.5.5 0 0 0-1 0v4.102a.5.5 0 0 1-.5.5H2.496a.5.5 0 0 1-.5-.5v-4.102Z" fill="#7A859E"/></svg>