<svg width="17" height="15" viewBox="0 0 17 15" fill="none" xmlns="http://www.w3.org/2000/svg">
<path fill-rule="evenodd" clip-rule="evenodd" d="M15.9061 0.172459C16.087 0.381096 16.0645 0.696879 15.8559 0.87778L12.267 3.98957C13.3021 4.82138 14.2567 5.80425 14.9297 6.69958L15.1555 7.00001L14.9297 7.30043C14.1474 8.34121 12.9846 9.50029 11.7569 10.4028C10.5518 11.2889 9.18749 12 8.01565 12C6.94864 12 5.72207 11.4104 4.60137 10.6361L0.858105 13.8817C0.649468 14.0626 0.333685 14.0401 0.152784 13.8315C-0.0281163 13.6228 -0.00563093 13.307 0.203007 13.1261L3.781 10.0238C2.73941 9.18918 1.77817 8.20057 1.10157 7.30043L0.875754 7.00001L1.10157 6.69958C1.88388 5.6588 3.04674 4.49973 4.27436 3.59717C5.47951 2.71112 6.8438 2.00001 8.01565 2.00001C9.08833 2.00001 10.3223 2.59586 11.4478 3.3763L15.2008 0.122236C15.4094 -0.0586644 15.7252 -0.036179 15.9061 0.172459ZM8.01565 3.00001C8.72974 3.00001 9.67091 3.39643 10.6657 4.05436L9.54864 5.02296C9.12486 4.69508 8.59291 4.50001 8.01565 4.50001C6.63353 4.50001 5.51122 5.61825 5.51122 7.00001C5.51122 7.45088 5.63072 7.8737 5.83975 8.23877L4.54997 9.35708C3.63341 8.64152 2.77459 7.79063 2.1354 7.00001C2.84774 6.11889 3.83288 5.16293 4.86671 4.40285C6.04182 3.53889 7.18306 3.00001 8.01565 3.00001ZM11.4982 4.65613L10.2021 5.7799C10.4046 6.14069 10.5201 6.55679 10.5201 7.00001C10.5201 8.38176 9.39776 9.50001 8.01565 9.50001C7.44609 9.50001 6.92065 9.31011 6.49969 8.99012L5.38377 9.95768C6.37188 10.6084 7.30591 11 8.01565 11C8.84823 11 9.98948 10.4611 11.1646 9.59717C12.1984 8.83708 13.1835 7.88113 13.8959 7.00001C13.2606 6.21423 12.4084 5.36894 11.4982 4.65613Z" fill="#7A859E"/>
</svg>
