<svg width="16" height="10" fill="none" xmlns="http://www.w3.org/2000/svg"><path fill-rule="evenodd" clip-rule="evenodd" d="M4.692 7.597A15.82 15.82 0 0 1 1.822 5a15.82 15.82 0 0 1 2.87-2.597C5.926 1.539 7.124 1 7.998 1c.874 0 2.072.539 3.306 1.403 1.086.76 2.121 1.716 2.87 2.597a15.821 15.821 0 0 1-2.87 2.597C10.07 8.461 8.872 9 7.998 9c-.874 0-2.072-.539-3.306-1.403ZM7.998 0c-1.232 0-2.665.711-3.93 1.597C2.777 2.5 1.556 3.66.734 4.7L.498 5l.237.3c.822 1.04 2.043 2.2 3.332 3.103C5.333 9.289 6.767 10 7.998 10c1.232 0 2.665-.711 3.93-1.597C13.219 7.5 14.44 6.34 15.262 5.3l.237-.3-.237-.3c-.821-1.04-2.043-2.2-3.332-3.103C10.663.711 9.229 0 7.998 0ZM6.42 5c0-.828.707-1.5 1.58-1.5.871 0 1.578.672 1.578 1.5S8.87 6.5 7.998 6.5 6.42 5.828 6.42 5ZM8 2.5C6.544 2.5 5.365 3.62 5.365 5s1.179 2.5 2.632 2.5S10.63 6.38 10.63 5 9.45 2.5 7.998 2.5Z" fill="#7A859E"/></svg>