<svg width="14" height="14" fill="none" xmlns="http://www.w3.org/2000/svg"><path fill-rule="evenodd" clip-rule="evenodd" d="M3.5.5A.5.5 0 0 0 3 0H.5a.5.5 0 0 0-.5.5V3a.5.5 0 0 0 1 0V1.707l3.646 3.647a.5.5 0 1 0 .708-.708L1.707 1H3a.5.5 0 0 0 .5-.5ZM3 14a.5.5 0 0 0 0-1H1.707l3.647-3.646a.5.5 0 1 0-.708-.708L1 12.293V11a.5.5 0 0 0-1 0v2.5a.5.5 0 0 0 .5.5H3Zm8 0a.5.5 0 0 1 0-1h1.293L8.646 9.354a.5.5 0 1 1 .708-.708L13 12.293V11a.5.5 0 0 1 1 0v2.5a.5.5 0 0 1-.5.5H11Zm0-14a.5.5 0 0 0 0 1h1.293L8.646 4.646a.5.5 0 1 0 .708.708L13 1.707V3a.5.5 0 0 0 1 0V.5a.5.5 0 0 0-.5-.5H11Z" fill="#7A859E"/></svg>