<svg width="16" height="16" viewBox="0 0 16 16" fill="none" xmlns="http://www.w3.org/2000/svg">
<path fill-rule="evenodd" clip-rule="evenodd" d="M15 8C15 11.866 11.866 15 8 15C4.13401 15 1 11.866 1 8C1 4.13401 4.13401 1 8 1C11.866 1 15 4.13401 15 8ZM16 8C16 12.4183 12.4183 16 8 16C3.58172 16 0 12.4183 0 8C0 3.58172 3.58172 0 8 0C12.4183 0 16 3.58172 16 8ZM8.75 4.9968C8.75 5.41101 8.41421 5.7468 8 5.7468C7.58579 5.7468 7.25 5.41101 7.25 4.9968C7.25 4.58258 7.58579 4.2468 8 4.2468C8.41421 4.2468 8.75 4.58258 8.75 4.9968ZM7.99957 6.87659C8.27571 6.87659 8.49957 7.10044 8.49957 7.37659V11.5357C8.49957 11.8119 8.27571 12.0357 7.99957 12.0357C7.72343 12.0357 7.49957 11.8119 7.49957 11.5357V7.37659C7.49957 7.10044 7.72343 6.87659 7.99957 6.87659Z" fill="#7A859E"/>
</svg>
