<svg width="16" height="22" fill="none" xmlns="http://www.w3.org/2000/svg"><path fill-rule="evenodd" clip-rule="evenodd" d="M11.842 12.308c.023-.02.047-.041.072-.06C13.214 11.263 14 9.83 14 8.264 14 5.459 11.42 3 8 3 4.579 3 2 5.459 2 8.264c0 1.566.786 2.999 2.086 3.984.025.019.05.039.072.06.98.78 1.45 1.876 1.68 2.839h4.324c.23-.963.7-2.06 1.68-2.839Zm.678.74h-.002a3.262 3.262 0 0 0-.69.72c-.467.663-.693 1.459-.803 2.17-.06.544-.06 1.094-.06 1.642v.096C10.965 19.121 8.947 20 8 20c-.947 0-2.965-.88-2.965-2.324v-.097c0-.547 0-1.095-.06-1.638-.109-.712-.335-1.51-.803-2.172a3.262 3.262 0 0 0-.69-.72l-.002-.002-.003-.002h.005l-.004-.003-.001-.001a6.77 6.77 0 0 1-.749-.66C1.653 11.281 1 9.841 1 8.264 1 4.804 4.134 2 8 2s7 2.805 7 6.264c0 1.577-.653 3.016-1.729 4.117a6.77 6.77 0 0 1-.748.66l-.002.001-.003.003h.005l-.003.002ZM7.8 5.187a.5.5 0 0 1-.414.573c-1.356.219-2.3 1.27-2.61 2.395a.5.5 0 0 1-.964-.264c.396-1.44 1.611-2.828 3.415-3.118a.5.5 0 0 1 .573.414Z" fill="#8358FF"/></svg>