<svg width="15" height="15" viewBox="0 0 15 15" fill="none" xmlns="http://www.w3.org/2000/svg">
<path fill-rule="evenodd" clip-rule="evenodd" d="M14 2.5C14 3.32843 13.3284 4 12.5 4C11.6716 4 11 3.32843 11 2.5C11 1.67157 11.6716 1 12.5 1C13.3284 1 14 1.67157 14 2.5ZM15 2.5C15 3.88071 13.8807 5 12.5 5C11.9627 5 11.465 4.8305 11.0574 4.54204L4.54203 11.0574C4.83049 11.465 5 11.9627 5 12.5C5 13.8807 3.88071 15 2.5 15C1.11929 15 0 13.8807 0 12.5C0 11.1193 1.11929 10 2.5 10C3.04203 10 3.54377 10.1725 3.95332 10.4656L10.4656 3.95334C10.1725 3.54378 9.99999 3.04204 9.99999 2.5C9.99999 1.11929 11.1193 0 12.5 0C13.8807 0 15 1.11929 15 2.5ZM2.5 14C3.32843 14 4 13.3284 4 12.5C4 11.6716 3.32843 11 2.5 11C1.67157 11 1 11.6716 1 12.5C1 13.3284 1.67157 14 2.5 14Z" fill="#7A859E"/>
</svg>
