<svg width="8" height="8" viewBox="0 0 8 8" fill="none" xmlns="http://www.w3.org/2000/svg">
<path fill-rule="evenodd" clip-rule="evenodd" d="M2.99999 2.99902H5L5 2.50098C5 2.10376 4.88189 1.86853 4.77142 1.74853C4.67981 1.64902 4.47903 1.50051 4.00146 1.50098C3.52189 1.50145 3.31999 1.65055 3.22812 1.75025C3.11791 1.86986 3 2.10408 3 2.50098L2.99999 2.99902ZM1.49999 2.99902H1.375C0.89375 2.99902 0.5 3.32898 0.5 3.73226V7.26579C0.5 7.66907 0.89375 7.99902 1.375 7.99902H6.625C7.10625 7.99902 7.5 7.66907 7.5 7.26579V3.73226C7.5 3.32898 7.10625 2.99902 6.625 2.99902H6.50001L6.5 2.50098C6.5 1.12027 5.66666 -0.000649271 4 0.000978333C2.33334 0.00260594 1.5 1.12027 1.5 2.50098L1.49999 2.99902Z" fill="#7A859E"/>
</svg>
