<svg width="16" height="16" fill="none" xmlns="http://www.w3.org/2000/svg"><path fill-rule="evenodd" clip-rule="evenodd" d="m8 1 6.5 3.526v6.948L8 15l-6.5-3.526V4.526L8 1ZM7.523.121a1 1 0 0 1 .954 0l6.5 3.526a1 1 0 0 1 .523.88v6.947a1 1 0 0 1-.523.879l-6.5 3.526a1 1 0 0 1-.954 0l-6.5-3.526a1 1 0 0 1-.523-.88V4.527a1 1 0 0 1 .523-.879l6.5-3.526Zm.702 2.798a.5.5 0 0 0-.496.01L4.733 4.728a.5.5 0 1 0 .515.857l2.75-1.65 3.95 2.143v4.407a.5.5 0 1 0 1 0V5.78a.5.5 0 0 0-.261-.44L8.225 2.92Z" fill="#7A859E"/></svg>