<svg width="14" height="14" fill="none" xmlns="http://www.w3.org/2000/svg"><path fill-rule="evenodd" clip-rule="evenodd" d="M2.127 14A2.127 2.127 0 0 1 0 11.873V2.127C0 .957.956 0 2.127 0h9.746A2.127 2.127 0 0 1 14 2.127v5.685a.503.503 0 0 1-.147.356l-5.685 5.685a.503.503 0 0 1-.356.147H2.127Zm-.792-1.335c.21.21.495.329.792.329h5.287a.501.501 0 0 1-.105-.309V7.813c0-.278.225-.504.503-.504h4.872c.117 0 .224.04.31.107V2.127a1.12 1.12 0 0 0-1.121-1.12H2.127c-.615 0-1.12.505-1.12 1.12v9.746c0 .297.117.582.328.792Zm10.947-4.35-3.967 3.968V8.316h3.967Z" fill="#14C393"/></svg>