<svg width="16" height="16" fill="none" xmlns="http://www.w3.org/2000/svg"><path d="M2.5 3.5A.5.5 0 0 1 3 3h5a.5.5 0 0 1 0 1H3a.5.5 0 0 1-.5-.5Z" fill="#7A809A"/><path fill-rule="evenodd" clip-rule="evenodd" d="M0 1a1 1 0 0 1 1-1h14a1 1 0 0 1 1 1v5a1 1 0 0 1-1 1H1a1 1 0 0 1-1-1V1Zm1 0h14v5H1V1Z" fill="#7A809A"/><path d="M3 12a.5.5 0 0 0 0 1h5a.5.5 0 0 0 0-1H3Z" fill="#7A809A"/><path fill-rule="evenodd" clip-rule="evenodd" d="M0 10a1 1 0 0 1 1-1h14a1 1 0 0 1 1 1v5a1 1 0 0 1-1 1H1a1 1 0 0 1-1-1v-5Zm1 0h14v5H1v-5Z" fill="#7A809A"/></svg>