<svg width="16" height="16" fill="none" xmlns="http://www.w3.org/2000/svg"><path fill-rule="evenodd" clip-rule="evenodd" d="M5.313 0a1.5 1.5 0 0 0-1.5 1.5v6.496H1a1 1 0 0 0-1 1v4.588a2.402 2.402 0 0 0 2.367 2.401v.016h10.132a3.5 3.5 0 0 0 3.5-3.5V1.499A1.5 1.5 0 0 0 14.5 0H5.313Zm-.971 15h8.157a2.5 2.5 0 0 0 2.5-2.5v-11a.5.5 0 0 0-.5-.5H5.313a.5.5 0 0 0-.5.5v12.3h-.019a2.39 2.39 0 0 1-.452 1.2ZM1 8.997h2.804v4.588a1.402 1.402 0 1 1-2.804 0V8.996ZM6.946 3.91a.5.5 0 0 1 .5-.5h5.1a.5.5 0 1 1 0 1h-5.1a.5.5 0 0 1-.5-.5Zm.5 2.391a.5.5 0 0 0 0 1h5.1a.5.5 0 1 0 0-1h-5.1Zm-.5 3.286a.5.5 0 0 1 .5-.5h5.1a.5.5 0 1 1 0 1h-5.1a.5.5 0 0 1-.5-.5Zm.5 2.426a.5.5 0 0 0 0 1H9.37a.5.5 0 1 0 0-1H7.446Z" fill="#5275FF"/></svg>