<svg width="13" height="12" fill="none" xmlns="http://www.w3.org/2000/svg"><path d="m3.424 11.878.858-.86a.435.435 0 0 0 0-.606.434.434 0 0 0-.605 0l-.859.86a.435.435 0 0 0 0 .606.434.434 0 0 0 .606 0ZM3.185 9.933a.435.435 0 0 0 0-.607.434.434 0 0 0-.605 0l-1.363 1.365a.435.435 0 0 0 0 .606.434.434 0 0 0 .606 0l1.362-1.364ZM2.087 8.833a.435.435 0 0 0 0-.606.434.434 0 0 0-.606 0l-.858.859a.435.435 0 0 0 0 .606.434.434 0 0 0 .606 0l.858-.859ZM5.13 9.844l.378-.38c.404.57.745 1.2.985 1.858.1.265.429.353.656.177l1.54-1.314a2.109 2.109 0 0 0 .618-2.325l-.101-.215 1.83-1.831a4.507 4.507 0 0 0 1.3-2.818L12.5.886a.822.822 0 0 0-.884-.884L9.51.167a4.434 4.434 0 0 0-2.814 1.3L4.865 3.3l-.228-.076a2.098 2.098 0 0 0-2.322.619L1.003 5.37a.411.411 0 0 0 .177.657c.669.24 1.287.569 1.855.986l-.379.379a.374.374 0 0 0 0 .518l1.956 1.933a.373.373 0 0 0 .518 0ZM7.527 4.98a1.22 1.22 0 0 1 0-1.73c.48-.48 1.25-.48 1.73 0 .479.48.479 1.25 0 1.73-.48.48-1.25.48-1.73 0Z" fill="#fff"/></svg>