<svg width="15" height="20" fill="none" xmlns="http://www.w3.org/2000/svg"><path d="M9.924 18.58v-.804c1.03.174 2.062.483 3.013.925.388.175.83-.08.883-.508l.24-3.027a3.164 3.164 0 0 0-1.81-3.12l-.335-.121-.002-3.884a6.76 6.76 0 0 0-1.609-4.366L8.241 1.263a1.233 1.233 0 0 0-1.875-.001l-2.061 2.41A6.65 6.65 0 0 0 2.7 8.035l.002 3.884-.321.16A3.147 3.147 0 0 0 .574 15.2l.23 3.013a.617.617 0 0 0 .884.51A10.897 10.897 0 0 1 4.7 17.8v.803c.001.295.242.536.55.55l4.125-.025a.56.56 0 0 0 .549-.549Zm-2.616-7.702a1.831 1.831 0 0 1-1.835-1.836c-.001-1.018.815-1.834 1.833-1.834s1.835.818 1.836 1.836a1.827 1.827 0 0 1-1.834 1.834Z" fill="#FD9317"/></svg>