<svg width="16" height="16" fill="none" xmlns="http://www.w3.org/2000/svg"><path fill-rule="evenodd" clip-rule="evenodd" d="M5.858 1H1v4.857h4.857V1ZM1 0a1 1 0 0 0-1 1v4.857a1 1 0 0 0 1 1h4.857a1 1 0 0 0 1-1V1a1 1 0 0 0-1-1H1Zm14 1h-4.857v4.857H15V1Zm-4.857-1a1 1 0 0 0-1 1v4.857a1 1 0 0 0 1 1H15a1 1 0 0 0 1-1V1a1 1 0 0 0-1-1h-4.857ZM0 12.5a.5.5 0 0 1 .5-.5h15a.5.5 0 0 1 0 1H.5a.5.5 0 0 1-.5-.5ZM.5 9a.5.5 0 0 0 0 1h15a.5.5 0 0 0 0-1H.5ZM0 15.5a.5.5 0 0 1 .5-.5h15a.5.5 0 0 1 0 1H.5a.5.5 0 0 1-.5-.5Z" fill="#5275FF"/></svg>