<svg width="16" height="16" fill="none" xmlns="http://www.w3.org/2000/svg"><path d="M6.977.67c.393-.893 1.653-.893 2.046 0l1.497 3.411c.158.36.493.612.881.662l3.621.464c.928.119 1.309 1.262.64 1.92l-2.745 2.7a1.13 1.13 0 0 0-.317 1.01l.709 3.83c.176.947-.837 1.663-1.663 1.176L8.564 14.03a1.112 1.112 0 0 0-1.128 0l-3.082 1.813c-.826.487-1.838-.23-1.663-1.177l.71-3.83a1.13 1.13 0 0 0-.318-1.01l-2.745-2.7c-.669-.657-.288-1.8.64-1.92l3.62-.463c.39-.05.724-.301.882-.662L6.977.671Z" fill="#FFAD4D"/></svg>