<svg width="37" height="12" fill="none" xmlns="http://www.w3.org/2000/svg"><path d="M1 5.5 4.75 10l6.75-7.5" stroke="#fff" stroke-linecap="round" stroke-linejoin="round"/><path fill-rule="evenodd" clip-rule="evenodd" d="M36.393.148a.422.422 0 0 1-.044.604L33.21 3.42c.905.712 1.74 1.555 2.33 2.322l.197.257-.197.258c-.685.892-1.703 1.885-2.777 2.658-1.055.76-2.249 1.369-3.274 1.369-.934 0-2.007-.505-2.988-1.169l-3.276 2.781a.444.444 0 0 1-.617-.043.422.422 0 0 1 .044-.604l3.131-2.659c-.911-.715-1.753-1.562-2.345-2.333l-.197-.258.197-.257c.685-.892 1.703-1.885 2.777-2.659 1.055-.759 2.248-1.368 3.274-1.368.939 0 2.018.51 3.004 1.18l3.284-2.79a.444.444 0 0 1 .617.044ZM29.488 2.57c.625 0 1.448.34 2.32.903l-.979.83a2.215 2.215 0 0 0-1.341-.448c-1.21 0-2.192.958-2.192 2.142 0 .387.105.749.288 1.062l-1.129.958a13.321 13.321 0 0 1-2.113-2.02 13.324 13.324 0 0 1 2.39-2.225c1.029-.74 2.027-1.202 2.756-1.202Zm3.048 1.419-1.135.963c.178.309.279.666.279 1.045 0 1.184-.983 2.143-2.192 2.143-.498 0-.958-.163-1.327-.437l-.976.829c.864.557 1.682.893 2.303.893.729 0 1.727-.462 2.756-1.202a13.32 13.32 0 0 0 2.39-2.226 13.324 13.324 0 0 0-2.098-2.008Z" fill="#E7EAF3"/></svg>