<svg width="16" height="16" fill="none" xmlns="http://www.w3.org/2000/svg"><path fill-rule="evenodd" clip-rule="evenodd" d="M2.734 0C1.858 0 1.158.284.68.76a2.3 2.3 0 0 0-.672 1.447l-.001.016a2.382 2.382 0 0 0-.001.35L.003 8.186l-.002 3.157v1.274L0 12.688v.024h.5H0c0 1.15.187 2.054.867 2.622.65.543 1.628.665 2.846.665h11.775a.5.5 0 0 0 .5-.5L16 4.431a.5.5 0 0 0-.5-.5H2.86c-1.227 0-1.792-.724-1.854-1.398v-.256a1.3 1.3 0 0 1 .378-.808C1.647 1.208 2.08 1 2.734 1h8.52v1.185a.5.5 0 0 0 1 0V.5a.5.5 0 0 0-.5-.5h-9.02ZM1.003 8.187l.002-3.816c.47.345 1.094.56 1.855.56H15L14.988 15H3.713c-1.232 0-1.86-.145-2.205-.432-.313-.262-.508-.752-.508-1.854v-.373l.001-.998.002-3.156Zm10.896 2.044c0 .772-.638 1.42-1.45 1.42-.812 0-1.449-.648-1.449-1.42 0-.773.637-1.42 1.45-1.42.811 0 1.449.647 1.449 1.42Zm1 0c0 1.336-1.097 2.42-2.45 2.42C9.097 12.65 8 11.566 8 10.23c0-1.337 1.097-2.42 2.45-2.42 1.352 0 2.449 1.083 2.449 2.42Z" fill="#8358FF"/></svg>