<svg width="16" height="17" fill="none" xmlns="http://www.w3.org/2000/svg"><path fill-rule="evenodd" clip-rule="evenodd" d="M15 2.276v4.67h-2.551l-.002-4.67c0-.68.53-1.235 1.2-1.274C14.37.982 15 1.535 15 2.276ZM13.621.002H2.4C1.105.002.001 1.026.001 2.319v12.269c0 .522.296.979.75 1.233.468.26 1.141.247 1.57-.096l3.905-3.112 3.93 3.113c.225.18.547.258.83.258.784 0 1.463-.652 1.463-1.446V7.945h3.25a.3.3 0 0 0 .3-.3V2.276c0-1.28-1.1-2.33-2.377-2.274Zm-1.786 1H2.4c-.785 0-1.399.618-1.399 1.316v12.27c0 .365.447.497.721.337l4.191-3.342a.5.5 0 0 1 .622 0l4.217 3.34c.288.165.697-.039.697-.385l-.002-12.262c0-.472.143-.91.39-1.274Z" fill="#FFAD4D"/></svg>