<svg width="20" height="14" fill="none" xmlns="http://www.w3.org/2000/svg"><path d="M17.7.91a2 2 0 0 1 1.4 1.41c.2.73.3 1.88.36 2.9a38.95 38.95 0 0 1 .04 1.76v.17a35.21 35.21 0 0 1-.05 1.66c-.05 1-.15 2.16-.35 2.89a2 2 0 0 1-1.4 1.4c-.34.1-.98.17-1.8.23a125.5 125.5 0 0 1-5.64.17H10v.5-.5h-.07a82.55 82.55 0 0 1-3.23-.05c-.88-.03-1.8-.07-2.6-.13s-1.45-.14-1.8-.23a2 2 0 0 1-1.4-1.41C.7 10.96.6 9.81.54 8.8A41.14 41.14 0 0 1 .5 7.14v-.27A35.81 35.81 0 0 1 .55 5.2C.6 4.2.7 3.05.9 2.3c.18-.68.74-1.23 1.4-1.42.35-.08.98-.16 1.8-.22A126.32 126.32 0 0 1 9.73.5h.26V0v.5h.07a79.7 79.7 0 0 1 3.24.05c.88.03 1.8.07 2.6.13s1.44.14 1.78.23Z" stroke="#7A859E"/><path d="M13.23 7.43 9.25 9.71a.5.5 0 0 1-.75-.43V4.72a.5.5 0 0 1 .75-.43l3.98 2.28a.5.5 0 0 1 0 .86Z" stroke="#7A859E"/></svg>