<?xml version="1.0" encoding="utf-8"?><svg xmlns="http://www.w3.org/2000/svg" xmlns:xlink="http://www.w3.org/1999/xlink"><symbol fill="none" viewBox="0 0 360 338" id="0"><g clip-path="url(#aa)"><path d="M171.915 167.997l7.878 3.935 30.734 48.856 14.714 23.39 16.707 26.56-.218 28.199c-29.181 12.606-60.223 24.664-89.403 37.271l-66.204-45.797v-59.458l-5.471-3.716-.657-28.199 91.92-31.041z" fill="#26C953"/><path d="M152.742 241.942l88.972-29.793v86.298l-88.972 36.985v-93.49z" fill="#1BAD44"/><path fill-rule="evenodd" clip-rule="evenodd" d="M171.986 166.952l8.479 4.234 62.45 99.275-.002.284-.11 14.1v.011l-.109 14.088-.005.632-.578.249c-14.599 6.307-29.662 12.476-44.715 18.641l-.003.002c-15.057 6.167-30.104 12.329-44.685 18.628l-.489.212-67.06-46.389v-59.453l-2.312-1.57-.003-.002-2.733-1.856-.412-.28-.684-29.41.673-.227 45.959-15.521.262-.088 45.698-15.432.379-.128zm-84.898 65.764v57.187l65.348 45.204c14.444-6.233 29.338-12.333 44.222-18.428l.006-.003c14.858-6.085 29.707-12.166 44.106-18.379l.105-13.468v-.014l.107-13.801-16.129-25.64-72.628 28.959-65.137-41.617zm136.718 10.993l-13.677-21.741-57.9 21.53L81 200.768l.604 25.947 2.298 1.561.026.017 2.725 1.851 65.776 42.026 71.377-28.461zm-141.52-44.424l70.139 42.076 56.652-21.065-29.955-47.619-7.279-3.635a814284.46 814284.46 0 00-45.58 15.392l-.202.068-43.775 14.783zm70.041 46.111c.533 0 .964.434.964.968v21.86a.965.965 0 11-1.928 0v-21.86c0-.534.432-.968.964-.968zm0 32.025c.533 0 .964.433.964.967v53.01a.965.965 0 01-.964.968.966.966 0 01-.964-.968v-53.01c0-.534.432-.967.964-.967z" fill="#1A1D2F"/><path d="M124.457 226.019v90.921l-30.343-20.547v-89.894l48.343-12.842 33.943 1.541v16.438l-51.943 14.383z" fill="#5275FF"/><path fill-rule="evenodd" clip-rule="evenodd" d="M142.353 192.684l35.011 1.589v18.099l-51.943 14.383v92.005L93.15 296.907v-91.153l49.203-13.07zm.208 1.946l-47.483 12.614v88.634l28.415 19.241v-89.837l51.943-14.383v-14.776l-32.875-1.493z" fill="#1A1D2F"/><path d="M181.029 232.183v91.948l32.914-13.573v-89.676l-72-43.663-31.371 11.301 70.457 43.663z" fill="#5275FF"/><path d="M181.029 231.669l31.371-11.301 1.543 89.894-32.914 13.869v-92.462z" fill="#5275FF"/><path fill-rule="evenodd" clip-rule="evenodd" d="M142.049 176.153l72.858 44.183v90.871l-34.843 14.368v-92.853l-71.702-44.434 33.687-12.135zm-29.268 12.599l69.212 42.891v91.044l30.985-12.777v-88.482l-71.141-43.142-29.056 10.466z" fill="#1A1D2F"/><path fill-rule="evenodd" clip-rule="evenodd" d="M204.042 222.587a.97.97 0 01-.551 1.252l-18.515 7.191a.962.962 0 01-1.247-.553.969.969 0 01.551-1.251l18.515-7.192a.963.963 0 011.247.553zM96.375 208.566a.962.962 0 011.324-.326l23.657 14.383a.968.968 0 01-.999 1.655L96.7 209.895a.97.97 0 01-.325-1.329z" fill="#1A1D2F"/><path d="M163.379 78.555c0 63.271 6.643 107.574 21.844 138.162a7.485 7.485 0 001.925 2.417l5.051 4.199a6.455 6.455 0 012.325 4.855l.861 50.271c.024 1.402 1.156 2.527 2.553 2.468 8.02-.338 22.489-2.187 32.447-4.003 10.317-1.881 34.006-7.322 59.122-24.408 8.761-5.959 29.848-21.603 46.859-49.703 16.447-27.168 20.525-51.837 21.46-58.135 1.589-10.69 4.311-30.367-1.971-54.584-8.074-31.122-25.948-50.18-29.78-54.141C292.528 1.276 248.366.122 237.173.007c-10.645-.11-45.474.852-75.764 23.076-14.214 10.429-13.185 15.09-33.065 31.065-19.243 15.463-27.998 17.356-52.99 32.617-34.064 20.8-51.093 31.2-61.532 47.928-12.076 19.354-19.076 49.149-8.977 77.662 11.833 33.407 42.62 56.177 81.019 59.57 0 0 .584-27.175 0-41.154-1.824-1.258-3.65-2.514-5.475-3.772l-.656-28.623 61.311-20.858 22.335-98.963z" fill="#15181F"/><path d="M160.714 197.766l6.453-12.869c2.119-1.035 3.69-2.005 5.761-2.996l.643 1.935c1.929 8.385 2.957 13.546 6.171 22.576l3.858 8.386c-5.74-1.976-11.996-5.75-15.777-8.771l-7.109-8.261z" fill="#5275FF"/><path fill-rule="evenodd" clip-rule="evenodd" d="M172.928 181.901c-.953.456-1.071.392-2.281.775l-.036.011c-1.193.379-2.475.786-3.609 1.34l-.293.143-6.889 13.739 7.589 8.819.071.056c3.913 3.127 11.068 6.35 16.836 8.335l.827.969-4.762-9.873c-2.715-7.15-5.249-15.004-6.751-22.506l-.702-1.808zm7.453 25.05l2.457 5.58c-4.844-1.818-10.123-4.305-13.424-6.703 3.031.499 7.782.895 10.967 1.123zm-11.236-1.322a17.482 17.482 0 01-.317-.243l.448-.517-.131.76zm.3-1.74l-7.276-6.359 5.966-11.899c.917-.416 1.956-.749 3.057-1.098l.102-.033c.77-.243 1.57-.497 2.336-.791l.064.316c1.806 9.486 3.399 14.117 5.903 20.928-3.229-.242-7.504-.622-10.148-1.082l-.004.018z" fill="#1A1D2F"/><path d="M149.037 204.171c-12.065 5.62-38.176 7.66-41.445-4.503 2.134-51.989 22.648-34.618 45.387-15.754l-4.817 18.836.875 1.421z" fill="#5275FF"/><path fill-rule="evenodd" clip-rule="evenodd" d="M153.133 182.786l.462.382.47.391-4.867 19.031 1.231 1.998-.987.46c-6.187 2.881-15.885 4.819-24.463 4.506-4.293-.156-8.38-.878-11.634-2.383-3.268-1.511-5.771-3.852-6.685-7.25l-.038-.142.006-.146.001-.025c.536-13.019 2.223-21.837 4.887-27.405 1.34-2.798 2.949-4.824 4.829-6.134 1.892-1.319 3.996-1.87 6.239-1.815 4.415.108 9.376 2.568 14.549 6.049 5.062 3.407 10.486 7.908 16 12.483zm-44.567 16.781c.755 2.605 2.721 4.521 5.589 5.847 2.938 1.359 6.746 2.056 10.898 2.207 7.854.287 16.674-1.388 22.581-3.885l-.034-.056c-6.631-.486-13.871-1.933-20.304-3.218a393.686 393.686 0 00-6.192-1.205c-3.949-.723-7.238-1.181-9.535-1.075-1.156.053-1.937.245-2.409.521-.362.212-.548.469-.594.864zm38.862 2.16c-6.407-.497-13.342-1.882-19.646-3.142-2.203-.44-4.329-.865-6.328-1.231-3.933-.72-7.425-1.221-9.97-1.105-1.032.048-1.991.199-2.785.531.653-11.332 2.258-18.94 4.557-23.742 1.239-2.59 2.657-4.314 4.188-5.382 1.52-1.059 3.212-1.514 5.089-1.468 3.823.093 8.386 2.265 13.522 5.721 4.965 3.342 10.308 7.772 15.837 12.36l-4.464 17.458z" fill="#1A1D2F"/><path d="M149.143 202.903c-20.056-1.029-42.414-9.984-41.139-3.595.18 11.547 32.91 11.813 41.139 3.595zm19.029 2.054l11.828.81 3.214 7.095c-5.785 0-15.042-5.337-15.042-7.905z" fill="#1A1D2F"/><path d="M173.123 195.647c0 7.486-6.075 13.554-13.569 13.554-7.494 0-13.569-6.068-13.569-13.554 0-7.485 6.075-13.553 13.569-13.553 7.494 0 13.569 6.068 13.569 13.553z" fill="#5275FF"/><path fill-rule="evenodd" clip-rule="evenodd" d="M159.554 207.265c6.437 0 11.64-5.209 11.64-11.618 0-6.408-5.203-11.617-11.64-11.617-6.438 0-11.641 5.209-11.641 11.617 0 6.409 5.203 11.618 11.641 11.618zm0 1.936c7.494 0 13.569-6.068 13.569-13.554 0-7.485-6.075-13.553-13.569-13.553-7.494 0-13.569 6.068-13.569 13.553 0 7.486 6.075 13.554 13.569 13.554z" fill="#1A1D2F"/><path fill-rule="evenodd" clip-rule="evenodd" d="M292.617 73.918c8.492 0 15.361-6.874 15.361-15.334s-6.869-15.334-15.361-15.334-15.361 6.874-15.361 15.334 6.869 15.334 15.361 15.334zm0 1.935c9.549 0 17.29-7.731 17.29-17.269 0-9.537-7.741-17.27-17.29-17.27s-17.29 7.733-17.29 17.27c0 9.538 7.741 17.27 17.29 17.27zM74.84 149.115c6.92 0 12.516-5.602 12.516-12.493S81.76 124.13 74.84 124.13s-12.516 5.601-12.516 12.492c0 6.891 5.595 12.493 12.516 12.493zm0 1.935c7.977 0 14.444-6.46 14.444-14.428 0-7.968-6.467-14.427-14.444-14.427-7.978 0-14.445 6.459-14.445 14.427s6.467 14.428 14.445 14.428zm279.341-68.268a49.135 49.135 0 00-14.481-2.168c-27.03 0-48.95 21.814-48.95 48.731a48.434 48.434 0 003.086 17.064l1.807-.678a46.507 46.507 0 01-2.962-16.386c0-25.843 21.047-46.8 47.019-46.8a47.16 47.16 0 0115.193 2.497 122.26 122.26 0 00-.712-2.26zm-4.111 92.222a47.411 47.411 0 01-10.37 1.141c-10.107 0-19.466-3.173-27.131-8.572l-1.112 1.578c7.98 5.622 17.726 8.925 28.243 8.925 3.264 0 6.455-.318 9.542-.926.284-.722.56-1.438.828-2.146z" fill="#FFCB47"/><path fill-rule="evenodd" clip-rule="evenodd" d="M359.855 111.444c-8.168 5.665-19.612 12.487-32.61 19.245-12.118 6.301-23.513 11.467-32.57 14.923-5.609 2.141-10.288 3.612-13.675 4.298-1.701.345-3.018.479-3.942.424-1.006-.059-1.186-.316-1.194-.331l-.001-.001c-.002-.004-.043-.08.016-.314.061-.244.214-.585.507-1.029.586-.888 1.612-2.013 3.077-3.347 2.917-2.656 7.409-5.99 13.087-9.714l-1.065-1.611c-5.712 3.746-10.301 7.144-13.328 9.901-1.508 1.372-2.671 2.624-3.387 3.709-.358.542-.634 1.088-.767 1.62-.136.54-.138 1.132.147 1.676.527 1.003 1.709 1.301 2.797 1.366 1.171.069 2.68-.103 4.442-.46 3.54-.717 8.334-2.231 13.981-4.386 9.141-3.488 20.604-8.687 32.772-15.014 12.551-6.525 23.686-13.124 31.862-18.713a121.02 121.02 0 00-.149-2.242z" fill="#FFCB47"/><path fill-rule="evenodd" clip-rule="evenodd" d="M358.672 141.352c-9.133 6.242-19.626 12.531-31.048 18.47-21.432 11.143-42.016 18.909-57.953 22.47-7.976 1.782-14.733 2.498-19.828 2.086-5.153-.417-8.298-1.955-9.551-4.343-1.101-2.097-.833-5.012 1.035-8.739 1.855-3.7 5.191-7.994 9.823-12.662 9.254-9.327 23.514-19.986 40.852-30.185l-.986-1.661c-17.425 10.251-31.834 21.006-41.243 30.489-4.699 4.737-8.192 9.197-10.176 13.154-1.97 3.931-2.55 7.575-1.018 10.495 1.739 3.314 5.798 4.944 11.111 5.373 5.371.435 12.343-.324 20.408-2.126 16.143-3.606 36.886-11.444 58.423-22.642 10.87-5.651 20.919-11.627 29.775-17.59.121-.814.248-1.678.376-2.589zM1.606 200.036a34.105 34.105 0 0020.946 7.144c18.856 0 34.153-15.219 34.153-34.004 0-18.785-15.297-34.003-34.153-34.003-4.507 0-8.811.87-12.752 2.45a90.491 90.491 0 00-1.687 3.594 31.569 31.569 0 0114.439-3.47c17.446 0 31.578 14.077 31.578 31.429 0 17.353-14.132 31.429-31.578 31.429A31.547 31.547 0 01.927 196.08a84.88 84.88 0 00.679 3.956z" fill="#FFCB47"/><path d="M169.403 16.806c26.569-1.685 37.796-3.654 48.14-14.751 2.626-.329 26.84-4.089 56.057 4.109-11.172 19.07-33.428 34.416-42.134 39.764-.95 8.27-2.436 12.81-4.769 16.733-2.586 4.348-7.388 6.755-12.356 7.645-15.176 2.719-21.906 5.416-26.434 11.158-3.335-.352-5.691-.133-8.007.54-3.819 1.11-6.846 3.963-10.36 5.83-2.105 1.118-3.228.645-3.823-1.493-1.891-6.794.814-14.736 6.382-19.042 2.759-2.133 6.53-3.79 12.338-4.309l5.783-5.26-3.855-6.799c-8.573 1.578-13.602 1.436-23.386-1.155-1.786 4.558-3.64 6.315-7.324 9.109l2.284 2.587c4.143 4.692 7.578 10.434 7.032 16.68-.649 7.434-4.578 10.519-7.903 9.855-7.514-15.759-11.898-19.43-19.66-27.71l3.341-10.007c-2.246.485-3.398 1.43-5.397 3.463-7.838 15.01-28.269 18.218-29.425 5.26 4.139-1.648 7.598-3.95 10.943-7.312-3.572-.905-5.048-1.98-6.06-5.902l15.933-7.164c2.129-3.376 4.405-7.247 6.939-11.694h3.726l9.38-10.905c9.473 2.6 14.643 3.545 22.615.77z" fill="#5275FF"/><path fill-rule="evenodd" clip-rule="evenodd" d="M273.859 5.232l1.207.339-.635 1.083c-11.133 19.003-33.071 34.279-42.062 39.853-.962 8.058-2.463 12.645-4.844 16.65-2.78 4.674-7.887 7.183-13.015 8.102-15.176 2.719-21.565 5.375-25.848 10.806l-.329.417-.528-.055c-3.232-.342-5.46-.126-7.637.506-1.769.515-3.384 1.441-5.04 2.515-.424.275-.855.563-1.293.856-1.231.822-2.512 1.677-3.845 2.385-1.107.589-2.251.93-3.284.519-1.054-.42-1.599-1.46-1.918-2.607a17.192 17.192 0 01-.458-2.197c-.46.923-.999 1.712-1.597 2.366-1.67 1.826-3.81 2.594-5.854 2.186l-.473-.094-.208-.437c-3.738-7.839-6.679-12.633-9.632-16.487-2.327-3.038-4.663-5.496-7.45-8.43a493.646 493.646 0 01-2.411-2.549l-.395-.421 2.911-8.718c-.985.49-1.838 1.25-3.083 2.512-4.073 7.696-11.351 12.39-17.844 13.493-3.264.555-6.418.213-8.87-1.22-2.491-1.458-4.143-3.979-4.458-7.505l-.064-.72.669-.266c3.525-1.404 6.54-3.294 9.43-5.954-1.085-.379-2.008-.857-2.776-1.568-1.139-1.054-1.823-2.512-2.349-4.55l-.204-.791 16.411-7.38c2.073-3.3 4.291-7.077 6.761-11.41l.278-.488h3.844l9.489-11.031.587.161c4.738 1.3 8.312 2.16 11.675 2.368 3.332.206 6.49-.229 10.37-1.579l.124-.043.131-.008c26.602-1.688 37.444-3.663 47.496-14.447 20.376-2.684 43.123-.061 57.021 3.838zm-136.47 22.677h-3.149c-2.426 4.249-4.621 7.974-6.682 11.244-3.54 5.614-6.706 9.914-10.006 13.232-3.247 3.264-6.615 5.566-10.579 7.244.399 2.561 1.669 4.278 3.422 5.304 1.95 1.14 4.61 1.488 7.578.984 5.935-1.008 12.746-5.376 16.525-12.613l.066-.127.101-.103c1.884-1.916 3.152-3.012 5.335-3.599l4.752-14.489.513-.13c9.96-2.54 15.055-4.32 22.151-9.59a.962.962 0 011.349.201.97.97 0 01-.202 1.354c-7.261 5.393-12.575 7.28-22.309 9.778l-4.589 13.993-.002.005-3.158 9.457c.679.722 1.334 1.411 1.97 2.08 2.801 2.947 5.225 5.498 7.62 8.624 2.997 3.912 5.946 8.715 9.617 16.36 1.169.08 2.461-.411 3.6-1.656 1.296-1.418 2.386-3.825 2.698-7.395.51-5.837-2.7-11.317-6.794-15.953l-2.975-3.37.832-.63c1.836-1.393 3.146-2.476 4.22-3.747 1.062-1.258 1.923-2.737 2.788-4.944l.314-.802.829.22c4.86 1.286 8.489 1.952 11.946 2.11 3.451.157 6.773-.19 11.02-.971l.674-.124 3.512 6.195c1.01-1.32 1.74-2.779 2.398-4.457.498-1.27.935-2.605 1.42-4.087.347-1.061.718-2.198 1.155-3.44a.963.963 0 011.23-.591c.502.178.766.73.589 1.234-.402 1.142-.764 2.25-1.111 3.308-.506 1.543-.978 2.984-1.488 4.284-.883 2.252-1.94 4.264-3.646 6.09l-.027.029-6.051 5.505-.323.028c-5.651.505-9.241 2.106-11.835 4.112-5.263 4.07-7.825 11.608-6.042 18.014.276.992.59 1.257.772 1.33.204.08.674.099 1.671-.43 1.24-.66 2.401-1.435 3.605-2.24.455-.303.915-.61 1.388-.917 1.692-1.097 3.5-2.152 5.55-2.748 2.328-.677 4.683-.912 7.853-.624 4.77-5.766 11.861-8.441 26.687-11.097 4.808-.862 9.305-3.166 11.698-7.189 2.238-3.765 3.698-8.157 4.639-16.348l.054-.468.4-.246c8.52-5.234 29.917-19.995 41.156-38.344-27.272-7.377-49.904-4.352-54.022-3.801l-.087.011c-10.555 11.168-22.169 13.126-48.415 14.794-4.037 1.391-7.418 1.86-10.995 1.64-3.434-.212-7.019-1.06-11.478-2.273l-7.669 8.915c13.829.43 18.932-.79 23.972-4.622a.962.962 0 011.351.187.97.97 0 01-.186 1.355c-5.855 4.452-11.812 5.552-27.2 4.944zm51.61 29.626l-3.135-5.53c-4.017.712-7.322 1.036-10.782.878-3.443-.157-7.001-.79-11.53-1.957-.825 1.944-1.7 3.404-2.788 4.692-1.033 1.223-2.236 2.264-3.701 3.404l1.597 1.808c3.303 3.74 6.274 8.26 7.103 13.261 1.262-2.958 3.226-5.609 5.747-7.558 2.871-2.22 6.733-3.911 12.517-4.476l4.972-4.522zM124.16 40.857l-12.196 5.484c.435 1.4.935 2.242 1.569 2.83.677.626 1.6 1.05 3.042 1.451 2.481-2.562 4.926-5.751 7.585-9.765z" fill="#1A1D2F"/><path fill-rule="evenodd" clip-rule="evenodd" d="M176.508 88.101a.964.964 0 011.309.386l3.561 6.543a121.875 121.875 0 0041.072 44.222.97.97 0 01.291 1.337.962.962 0 01-1.332.292 123.821 123.821 0 01-41.723-44.924l-3.562-6.543a.97.97 0 01.384-1.313z" fill="#375BE9"/><path fill-rule="evenodd" clip-rule="evenodd" d="M183.25 216.689c-4.303-8.687-8.382-19.705-11.607-32.208l1.928-.645c3.214 13.546 7.714 23.221 11.572 32.897l-1.893-.044z" fill="#5275FF"/><path fill-rule="evenodd" clip-rule="evenodd" d="M147.128 83.967a.97.97 0 01.231 1.348l-.21.297a53.078 53.078 0 01-25.646 19.465l-.643-1.825a51.144 51.144 0 0024.714-18.757l.21-.297a.962.962 0 011.344-.231zm4.443 4.523a.969.969 0 01.519 1.265l-1.062 2.556a200.824 200.824 0 01-47.801 69.223l-1.319-1.412a198.908 198.908 0 0047.34-68.555l1.062-2.556a.963.963 0 011.261-.521z" fill="#375BE9"/></g><defs><clipPath id="aa"><path fill="#fff" d="M0 0h360v338H0z"/></clipPath></defs></symbol></svg>