<?xml version="1.0" encoding="utf-8"?><svg xmlns="http://www.w3.org/2000/svg" xmlns:xlink="http://www.w3.org/1999/xlink"><symbol fill="none" viewBox="0 0 220 226" id="0"><g clip-path="url(#aa)"><path d="M38.197 74.08c27.322-20.894 47.295-37.018 70.288-50.299 10.522-6.078 22.094-10.485 34.242-10.796 34.929-.896 85.756 15.116 76.067 81.041-8.297 46.021-103.004 131.24-186.776 79.223-44.084-27.373-28.422-71.328 6.179-99.17z" fill="#1C1F31"/><path d="M193.009 61.713l21.674 31.566-29.895 25.029-18.871-2.241-24.29-35.302 30.643-27.27 20.739 8.218zM93.048 36.31l8.034 30.633-16.255 63.88-70.44-10.087L0 94.4l17.003-70.043L93.048 36.31z" fill="#A9BAFF"/><path d="M172.829 54.616l23.356 33.06 18.31 4.856-21.487-30.445-20.179-7.471zm-96.784 51.551L.187 94.587l13.826 25.402 70.814 10.647-8.782-24.469z" fill="#375BE9"/><path d="M124.252 131.57l42.787 32.5 1.495 28.764-37.182 33.247-32.697-28.951-12.706-31.379 38.303-34.181z" fill="#5275FF"/><path d="M151.714 194.702c37.369-12.888 55.018-58.659 41.853-94.138m-28.015-41.707C144.398 23.706 126.036 3.332 96.67.987c-31.969-2.552-51.507 31.638-49.95 63.66" stroke="#1C1F31" stroke-width="1.279" stroke-linecap="round"/><path d="M166.864 163.64l1.682 29.325-37.369 33.06m35.687-62.385l-42.787 36.983m42.787-36.983l-42.787-32.126m0 69.109l7.1 25.402m-7.1-25.402l-38.116-34.928m38.116 34.928c-22.795-30.819 0-69.109 0-69.109m0 69.109c-10.837-10.833-19.992-13.075-25.224-3.175m32.324 28.577l-32.324-28.577m25.224-65.934l-38.116 34.181m0 0l12.892 31.753m73.24-143.822L196.57 88.18m-24.477-34.555l-30.455 27.083m30.455-27.083l20.553 8.032m3.924 26.523l-30.643 27.643M196.57 88.18l18.31 5.043m-18.31-5.043c-6.934-14.233-7.562-19.894-3.924-26.523m3.924 26.523c-20.553-21.667-54.932-7.472-54.932-7.472m24.289 35.115l-24.289-35.115m24.289 35.115l18.685 2.428 30.268-25.028m0 0l-22.234-31.567M85.025 131.327l-9.155-25.029m9.155 25.029l15.695-64.253-7.847-31.38m-7.848 95.633l-70.44-11.02m61.285-14.009l17.003-70.603M75.87 106.298L.012 94.531m75.858 11.767C20.476 92.069 7.572 73.716 16.64 24.114m59.23 82.184c-29.03-4.971-44.502-6.138-61.285 14.009m78.288-84.612L16.64 24.115m0 0L.01 94.53m0 0l14.574 25.776" stroke="#1C1F31" stroke-width="1.279" stroke-linecap="round"/><path d="M93.048 36.311l7.847 30.82L85.2 130.075l-9.155-23.908L93.048 36.31z" fill="#1C1F31" stroke="#1C1F31" stroke-width="1.279" stroke-linecap="round"/><path d="M214.87 93.467l-30.268 25.028-18.498-2.988 30.642-27.27 18.124 5.23zm-48.018 70.603l1.868 28.765-37.369 33.247-7.287-25.402 42.788-36.61z" fill="#1C1F31"/><path d="M93.774 39.3l6.68 26.71m-14.849 62.945l14.691-60.144m67.861 47.304l15.508 2.015m28.889-22.983l-26.647 22.034m-34.194 77.522a62.685 62.685 0 0015.883-8.18m25.97-85.959c3.655 9.85 4.935 20.493 4.077 31.006M132.282 15.96c11.446 9.655 21.678 23.75 32.625 41.831" stroke="#FFCB47" stroke-width="1.279" stroke-linecap="round"/></g><defs><clipPath id="aa"><path fill="#fff" d="M0 0h220v225.969H0z"/></clipPath></defs></symbol></svg>