<svg width="102" height="128" fill="none" xmlns="http://www.w3.org/2000/svg"><path d="M16 43c-29 8-15 32 13 60 29 27 75 11 55-15-20-27 17-32 18-57S80-7 64 13C48 32 52 33 16 43Z" fill="var(--athens,#F7F8FB)"/><path d="M64 101c17 18 35 4 26 14-9 11-25 12-38 0-13-11-4-31 12-14Z" fill="var(--porcelain,#E7EAF3)"/><path d="M82 80c-10-4-24-2-29 11s2 24 15 28c12 4 23-1 28-14 4-14-4-21-14-25Z" stroke="var(--waterloo,#7A859E)" stroke-width="1.5" stroke-linecap="round"/><path d="M73 97c0 3 3 6 5 2 2-6-4-7-5-2Z" stroke="var(--fiord,#4E5472)" stroke-width="1.5" stroke-linecap="round"/><path d="M91 91c-2-4-7-1-5 2s6 0 5-2Z" stroke="var(--waterloo,#7A859E)" stroke-width="1.5" stroke-linecap="round"/><path d="M86 107c-3-2-6 1-4 4s7-1 4-4Z" stroke="var(--fiord,#4E5472)" stroke-width="1.5" stroke-linecap="round"/><path d="M70 108c-4-3-7 5-1 6 4 1 4-4 1-6Z" stroke="var(--accent,#14C393)" stroke-width="1.5" stroke-linecap="round"/><path d="M62 99c-4-2-5 5-1 5 4-1 4-4 1-5Zm5-15c-4-1-4 6-1 6 4-1 4-5 1-6Z" stroke="var(--waterloo,#7A859E)" stroke-width="1.5" stroke-linecap="round"/><path d="M46 20c-23 1-10 42-23 22C10 21 32 1 58 1s11 18-12 19Z" fill="var(--porcelain,#E7EAF3)"/><path d="M60 5c-15-1-32 7-34 26-1 20 12 32 30 32 18 1 31-10 32-30S75 7 60 5Z" stroke="var(--waterloo,#7A859E)" stroke-width="1.5" stroke-linecap="round"/><path d="M55 31c1 4 6 7 7 1 1-8-8-8-7-1Z" stroke="var(--fiord,#4E5472)" stroke-width="1.5" stroke-linecap="round"/><path d="M77 16c-5-4-11 2-6 5 4 4 8-3 6-5Z" stroke="var(--waterloo,#7A859E)" stroke-width="1.5" stroke-linecap="round"/><path d="M76 40c-5-2-8 4-4 7s10-4 4-7Z" stroke="var(--accent-light-3,#89E1C9)" stroke-width="1.5" stroke-linecap="round"/><path d="M57 49c-7-3-8 9 0 8 6-1 5-6 0-8Z" stroke="var(--fiord,#4E5472)" stroke-width="1.5" stroke-linecap="round"/><path d="M41 37c-5 0-3 9 1 7 5-2 4-7-1-7Zm1-20c-5-1-4 9 1 7s4-7-1-7Z" stroke="var(--waterloo,#7A859E)" stroke-width="1.5" stroke-linecap="round"/><path d="M27 79c5-4 8 3 4 7s-12 8-20 1c-8-8 11-4 16-8Z" fill="var(--porcelain,#E7EAF3)"/><path d="M16 66c-5 3-10 10-7 17 4 8 12 10 19 6 7-3 9-11 5-18-4-8-11-8-17-5Z" stroke="var(--waterloo,#7A859E)" stroke-width="1.5" stroke-linecap="round"/><path d="M24 71c-4-1-5 4-2 5 3 0 3-4 2-5Z" stroke="var(--waterloo,#7A859E)" stroke-width="1.5" stroke-linecap="round"/><path d="M26 81c-3 0-1 5 1 3s1-3-1-3Z" stroke="var(--fiord,#4E5472)" stroke-width="1.5" stroke-linecap="round"/><path d="M14 78c-2 1 1 5 2 3 2-2 1-4-2-3Z" stroke="var(--accent-light-3,#89E1C9)" stroke-width="1.5" stroke-linecap="round"/></svg>