<svg width="70" height="88" fill="none" xmlns="http://www.w3.org/2000/svg"><path d="M20.226 46.013c3.329 2.855 5.192 8.527 1.018 13.61-4.174 5.085-11.88 4.873-15.209 2.017-7.607-8.571 4.562-21.174 14.19-15.627Z" fill="var(--fill,#FBB80D)"/><path fill-rule="evenodd" clip-rule="evenodd" d="M20.486 45.645c3.366 2.91 6.88 9.855 2.388 15.798-4.22 5.181-13.243 3.954-16.61 1.045-3.366-2.91-4.934-8.502-.713-13.683 4.221-5.181 11.568-6.07 14.935-3.16ZM8.583 62.743C17.9 65.289 27.67 54.372 19.838 46.44c-1.38-1.194-3.722-1.7-6.324-1.228a12.16 12.16 0 0 0-7.191 4.26c-1.945 2.387-2.51 4.797-2.26 6.9.25 2.126 1.343 4.02 2.849 5.321.44.38 1.008.737 1.671 1.05Z" fill="#15181F"/><path fill-rule="evenodd" clip-rule="evenodd" d="M19.177 50.627c1.043.945 1.098 2.618.123 3.737-.975 1.118-2.61 1.259-3.653.313-1.042-.945-1.097-2.618-.122-3.737.975-1.118 2.61-1.259 3.652-.313Zm-.684.794c.576.523.662 1.517.036 2.236-.628.72-1.616.752-2.197.226-.577-.523-.663-1.518-.037-2.236.629-.72 1.617-.752 2.198-.226Z" fill="#15181F"/><path d="M9.756 51.108c.409.366.416 1.034.017 1.491-.4.457-1.054.53-1.462.165-.408-.367-.416-1.034-.016-1.492.399-.457 1.053-.53 1.461-.164ZM12.347 55.246c.83.747.866 2.085.082 2.987-.785.902-2.093 1.028-2.923.28-.83-.747-.866-2.085-.081-2.987.784-.902 2.092-1.028 2.922-.28Z" fill="#15181F"/><path fill-rule="evenodd" clip-rule="evenodd" d="M24.157 51.037c.294-.103.63.016.748.266 1.473 3.1 1.754 6.88-1.02 9.997-1.794 2.017-4.424 3.167-7.19 3.688-.31.059-.616-.108-.682-.372-.066-.264.132-.525.443-.584 2.575-.485 4.929-1.538 6.514-3.319 2.44-2.743 2.251-6.124.868-9.036-.119-.25.024-.537.319-.64Z" fill="var(--shadow,#14C393)"/><path fill-rule="evenodd" clip-rule="evenodd" d="M66 66.76C66 76.283 58.402 84 49.029 84 39.656 84 33 76.282 33 66.76 33 57.24 41.541 50 50.914 50 60.287 50 66 57.24 66 66.76Z" fill="#15181F"/><path d="M58.157 79.534C56.514 80.468 54.6 81 52.432 81 44.197 81 37 72.982 37 64.829c0-6.375 3.542-11.268 9.023-13.1A17.595 17.595 0 0 1 51.027 51c4.38 0 7.844 1.663 10.225 4.379C63.644 58.108 65 61.969 65 66.439a15.91 15.91 0 0 1-6.843 13.095Z" fill="var(--fill,#FFCB47)"/><path fill-rule="evenodd" clip-rule="evenodd" d="M34.668 59.06c.25.133.343.437.207.68a14.33 14.33 0 0 0-1.845 6.825c-.101 6.99 3.71 12.98 9.656 15.474.262.11.382.405.27.659a.521.521 0 0 1-.678.26c-6.37-2.67-10.385-9.057-10.278-16.407a15.31 15.31 0 0 1 1.97-7.29.523.523 0 0 1 .698-.2Z" fill="var(--shadow,#8AFFCE)"/><path fill-rule="evenodd" clip-rule="evenodd" d="M49.273 62.849c1.884-.56 3.063-2.514 2.634-4.363-.43-1.85-2.305-2.895-4.19-2.335-1.884.56-3.063 2.514-2.634 4.363.43 1.85 2.305 2.895 4.19 2.335Zm-.22-.969c1.54-.458 2.282-1.958 2.008-3.138-.275-1.186-1.581-2.08-3.123-1.622-1.54.458-2.283 1.958-2.009 3.138.275 1.186 1.581 2.08 3.123 1.622Z" fill="#15181F"/><path d="M57.928 60.16c.207.762-.227 1.63-.97 1.937-.741.307-1.51-.062-1.716-.824-.207-.763.228-1.63.97-1.938.741-.307 1.51.062 1.716.824Z" fill="#15181F"/><path fill-rule="evenodd" clip-rule="evenodd" d="M58.913 69.163c.383 1.59-.613 3.255-2.225 3.717-1.612.462-3.228-.452-3.611-2.043-.383-1.59.614-3.255 2.225-3.717 1.612-.462 3.229.452 3.611 2.043Zm-.972.234c.252 1.049-.41 2.201-1.529 2.522-1.088.312-2.119-.302-2.363-1.316-.252-1.049.411-2.201 1.529-2.522 1.088-.312 2.12.302 2.363 1.316Z" fill="#15181F"/><path d="M47.015 70.098c.14.508-.149 1.085-.643 1.288-.494.202-1.007-.046-1.147-.555-.139-.509.15-1.085.643-1.288.494-.202 1.008.046 1.147.555ZM43.353 69.796c.989-.41 1.568-1.567 1.293-2.584-.275-1.017-1.3-1.509-2.29-1.099-.989.41-1.568 1.567-1.292 2.584.275 1.017 1.3 1.509 2.289 1.099ZM62.002 23.879C62 5.939 35.502-8.125 20.279 11.523 3.5 38.947 40.426 57.435 56.206 37.867c4.073-4.585 5.796-9.413 5.796-13.988Z" fill="#15181F"/><path d="M18.688 17.132a32.056 32.056 0 0 1 2.511-5.04c4.591-5.918 10.195-8.606 15.707-9.031 5.55-.429 11.074 1.432 15.441 4.727 4.37 3.297 7.52 7.983 8.402 13.14.877 5.123-.464 10.822-5.274 16.25l-.02.024-.02.025-.129.163c-3.247 3.04-7.47 5.014-11.91 5.474-14.927 1.545-28.663-10.245-24.708-25.732Z" fill="var(--fill,#FFCB47)"/><path fill-rule="evenodd" clip-rule="evenodd" d="M18.26 34.063a.486.486 0 0 1 .675.21c4.961 9.582 16.976 14.475 27.38 10.03a.49.49 0 0 1 .648.286.529.529 0 0 1-.273.678c-10.88 4.648-23.43-.456-28.63-10.499a.533.533 0 0 1 .2-.705Z" fill="var(--shadow,#8AFFCE)"/><path d="M38.34 13.725c2.108-.959 3.248-3.141 2.546-4.874-.7-1.734-2.977-2.361-5.085-1.402-2.107.96-3.247 3.142-2.546 4.875.658 1.624 2.7 2.277 4.689 1.562.132-.047.265-.101.396-.161ZM46.237 25.586c1.204-.912 1.618-2.529.926-3.61-.692-1.082-2.228-1.22-3.431-.308-1.204.912-1.619 2.529-.927 3.61.692 1.082 2.229 1.22 3.432.308Z" fill="#15181F"/><path fill-rule="evenodd" clip-rule="evenodd" d="M55.288 27.21c1.35 1.847.739 4.766-1.364 6.52-2.103 1.756-4.902 1.682-6.252-.164-1.35-1.847-.739-4.766 1.364-6.52 2.103-1.756 4.902-1.682 6.252.165Zm-.807.613c.936 1.28.625 3.597-1.194 5.115-1.81 1.51-3.908 1.247-4.809.015-.935-1.28-.624-3.597 1.195-5.115 1.81-1.51 3.907-1.247 4.808-.015Z" fill="#15181F"/><path d="M30.805 34.329c1.025-.627 1.507-1.9 1.078-2.842-.43-.942-1.607-1.198-2.631-.571-1.025.627-1.507 1.899-1.078 2.841.43.943 1.607 1.199 2.631.572Z" fill="#15181F"/><path fill-rule="evenodd" clip-rule="evenodd" d="M31.586 23.026c.955 1.593.357 3.84-1.336 5.017-1.693 1.177-3.84.84-4.794-.753-.954-1.593-.356-3.839 1.337-5.016 1.692-1.178 3.839-.84 4.793.752Zm-.858.534c.626 1.044.29 2.708-1.045 3.636-1.315.915-2.772.556-3.369-.44-.625-1.044-.289-2.708 1.046-3.636 1.314-.914 2.771-.555 3.368.44Z" fill="#15181F"/></svg>