<svg width="118" height="40" fill="none" xmlns="http://www.w3.org/2000/svg"><rect width="118" height="40" rx="12" fill="var(--green-light-1,#EDF8F5)"/><path fill-rule="evenodd" clip-rule="evenodd" d="M28.6 13.4c-.52 2.78-4.02 3.19-5.45 6.5-2.3 5.34 6.82 5.04 5.15 7.55-2.76 4.16-15.87-.56-17.16-6.67-.67-3.18 1.15-5.17 3.71-7.08 4.12-3.07 14.7-5.38 13.75-.3Z" fill="var(--green-light-3,#B0EBDB)"/><path fill-rule="evenodd" clip-rule="evenodd" d="m21.43 9.42 1.21-2.4c.48.07.94.24 1.35.48l-.57 2.66-2-.74Zm-.46.9-2.53 5.01c-.36.71-.63 1.46-.81 2.23l-2.21 9.35 1.57.6 4.24-8.6c.37-.75.64-1.53.82-2.35l1.16-5.41-2.24-.83Zm3.18 1.18-1.13 5.27c-.19.9-.5 1.76-.9 2.58l-4.38 8.9v2.15c0 .25-.13.49-.35.63a9.93 9.93 0 0 0-2.74 2.48l-.67-.2.12.1.4.3c-.38.51-1.22.24-1.19-.42v-.13c.06-1.3-.1-2.61-.5-3.85a.76.76 0 0 1 .15-.75l1.42-1.58 2.27-9.65c.2-.85.5-1.67.9-2.45l4.26-8.43c.16-.31.5-.48.82-.45h.03l.02.01c.7.1 1.37.34 1.96.71a.8.8 0 0 1 .36.86l-.63 2.93 1.21.45c.74.28 1.1 1.1.84 1.83l-3.59 9.63a.5.5 0 0 1-.93-.35l3.58-9.63a.42.42 0 0 0-.24-.54l-1.09-.4ZM14.1 33.41l.4.3.15-.2-.55-.1Zm2.64-4.92-1.76-.68-1.18 1.31c.32 1.05.5 2.13.52 3.21.7-.8 1.51-1.5 2.42-2.07v-1.77Z" fill="var(--black,#393F56)"/><path d="M70.77 9c0-.3.09-.54.26-.72.17-.19.4-.28.67-.28.28 0 .5.09.69.27.18.18.27.42.27.73 0 .3-.09.53-.27.7a.98.98 0 0 1-.7.24.9.9 0 0 1-.66-.26.93.93 0 0 1-.26-.68ZM72.38 11.81v9.25h-1.36v-9.25h1.36ZM65.81 11.81h-1.15v1.2h1.15v5.7c0 .9.14 1.55.41 1.96.27.4.72.6 1.35.6a4.47 4.47 0 0 0 1.96-.45l-.26-1.05c-.22.08-.42.16-.6.21-.18.06-.4.08-.65.08-.3 0-.52-.12-.65-.36s-.2-.63-.2-1.17V13h2.04v-1.2h-2.04V9.55l-1.36.43v1.83ZM43.25 19.55a4.11 4.11 0 0 0 1.97.53c.41 0 .76-.1 1.05-.3.3-.2.44-.54.44-1 0-.38-.1-.7-.27-.95s-.4-.47-.67-.67c-.27-.2-.56-.38-.88-.55-.31-.16-.6-.36-.87-.6a2.5 2.5 0 0 1-.93-2.05c0-.78.21-1.37.64-1.77.44-.4 1.05-.6 1.84-.6.52 0 .97.05 1.34.14.38.1.7.22.98.38l-.35 1.1a3.94 3.94 0 0 0-1.8-.42c-.45 0-.78.1-.99.28-.2.19-.3.47-.3.87 0 .3.08.57.26.79.17.21.4.4.67.59.27.18.56.36.87.54.32.19.6.4.88.66.27.25.5.56.67.9.18.36.26.8.26 1.33 0 .35-.05.67-.17.98-.11.3-.28.58-.52.8-.23.23-.52.42-.86.55-.35.14-.75.2-1.22.2-.55 0-1.03-.05-1.43-.15-.4-.1-.75-.25-1.02-.42l.41-1.16ZM40 16.68c0-.32.08-.55.26-.7.17-.16.4-.24.69-.24.29 0 .52.08.69.23.17.16.25.4.25.7 0 .33-.08.57-.25.73a.98.98 0 0 1-.7.24.98.98 0 0 1-.68-.24c-.18-.16-.26-.4-.26-.72Z" fill="var(--black,#2F354D)"/><path fill-rule="evenodd" clip-rule="evenodd" d="M51.02 11.85c-.53.12-.97.3-1.33.52l.45 1.05a4.64 4.64 0 0 1 2.17-.56c.55 0 .94.15 1.15.43.21.28.32.78.32 1.48 0 .3-.02.64-.06 1.02a4.4 4.4 0 0 0-.39-.02h-.37a7.7 7.7 0 0 0-1.53.14c-.45.1-.85.25-1.18.47-.33.22-.58.51-.76.87-.19.36-.27.8-.27 1.33 0 .82.21 1.45.64 1.92.43.46.98.7 1.66.7.61 0 1.1-.13 1.46-.36.36-.23.64-.51.82-.83h.08l.33 1.09h1.06a7.18 7.18 0 0 1-.18-1.14c-.03-.4-.05-.83-.05-1.3 0-.63.02-1.3.05-2 .03-.7.05-1.43.05-2.17 0-.37-.03-.72-.09-1.06a2.23 2.23 0 0 0-.36-.9 1.89 1.89 0 0 0-.75-.64 2.97 2.97 0 0 0-1.27-.23c-.58 0-1.13.07-1.65.19Zm2.35 4.97.37.02v1.97a1.8 1.8 0 0 1-1.8 1.18c-.4 0-.7-.14-.95-.4a1.66 1.66 0 0 1-.36-1.15c0-.32.06-.59.2-.8.13-.21.3-.38.53-.5.22-.12.47-.2.76-.26a5.18 5.18 0 0 1 1.25-.06Z" fill="var(--black,#2F354D)"/><path d="M62.15 21.06v-5.64c0-.93-.1-1.6-.33-2-.22-.42-.6-.63-1.18-.63-.5 0-.91.15-1.24.45-.33.3-.57.66-.72 1.09v6.73h-1.36v-9.25h.99l.24.98h.06a2.9 2.9 0 0 1 2.43-1.2c.4 0 .76.06 1.07.17.3.1.56.3.77.56.2.27.37.62.47 1.06.1.45.16 1.01.16 1.69v6h-1.36ZM79.3 15.57v5.5h1.36V14.4c.11-.5.31-.88.6-1.17.28-.3.66-.44 1.14-.44.56 0 .92.2 1.08.6.16.39.24.99.24 1.79v5.88h1.35v-6.05c0-.66-.04-1.22-.13-1.65a2.85 2.85 0 0 0-.4-1.06 1.43 1.43 0 0 0-.72-.55 3.2 3.2 0 0 0-1.07-.16c-.5 0-.96.12-1.38.37a2.5 2.5 0 0 0-.97 1.02 2.02 2.02 0 0 0-.73-1.09c-.31-.2-.7-.3-1.18-.3a2.65 2.65 0 0 0-2.34 1.2h-.06l-.24-.98h-.96v9.25h1.36V14.4c.1-.42.31-.79.6-1.12.3-.32.67-.49 1.1-.49.28 0 .51.06.7.16.17.1.3.27.4.49.1.22.17.5.2.86.04.35.05.77.05 1.27Z" fill="var(--black,#2F354D)"/><path fill-rule="evenodd" clip-rule="evenodd" d="M92.8 20.43c-.3.28-.68.49-1.14.63-.47.15-.96.22-1.47.22a2.9 2.9 0 0 1-2.61-1.32 4.5 4.5 0 0 1-.63-1.52c-.13-.6-.2-1.26-.2-2 0-1.58.3-2.78.89-3.61a2.9 2.9 0 0 1 2.5-1.24c.36 0 .7.04 1.06.13.34.09.65.26.93.52s.5.62.67 1.09c.17.47.25 1.08.25 1.83 0 .21 0 .44-.03.68l-.06.75h-4.8c0 .53.05 1 .14 1.44.09.43.23.8.41 1.1.2.3.44.54.73.7.3.17.66.25 1.1.25a2.88 2.88 0 0 0 1.78-.63l.49.98Zm-1.05-4.95c.03-.93-.1-1.6-.4-2.04a1.36 1.36 0 0 0-1.18-.65c-.58 0-1.04.22-1.38.65a3.71 3.71 0 0 0-.6 2.04h3.56Z" fill="var(--black,#2F354D)"/><path d="M99.79 15.42v5.64h1.35v-6c0-.67-.05-1.23-.16-1.68-.1-.44-.26-.8-.47-1.06a1.7 1.7 0 0 0-.77-.56c-.3-.11-.66-.17-1.07-.17a2.9 2.9 0 0 0-2.43 1.2h-.06l-.24-.98h-.98v9.25h1.36v-6.73c.15-.43.39-.8.71-1.1.33-.29.74-.44 1.25-.44.56 0 .96.2 1.18.62.22.42.33 1.08.33 2.01ZM102.3 11.81h1.15V9.98l1.35-.43v2.26h2.04v1.2h-2.04v5.52c0 .54.07.93.2 1.17.14.24.35.36.65.36.25 0 .47-.02.65-.08.19-.05.38-.13.6-.21l.26 1.05a4.44 4.44 0 0 1-1.96.45c-.63 0-1.08-.2-1.35-.6-.27-.4-.4-1.06-.4-1.96v-5.7h-1.16v-1.2ZM108.36 15.83c-.17.15-.25.39-.25.7 0 .33.08.57.25.72.17.16.4.24.7.24.28 0 .51-.08.69-.24.17-.15.25-.4.25-.72 0-.31-.08-.55-.25-.7a.98.98 0 0 0-.7-.24.98.98 0 0 0-.69.24ZM58.3 31.91a.19.19 0 0 1-.13-.05.22.22 0 0 1-.05-.14v-5.64c0-.07.01-.12.05-.15a.17.17 0 0 1 .14-.06h3.53c.07 0 .12.02.15.06.04.03.06.08.06.15v.3c0 .06-.02.11-.06.15a.2.2 0 0 1-.15.05h-2.93v1.92h2.74c.07 0 .12.02.15.06.04.04.06.09.06.15v.3a.2.2 0 0 1-.06.14.2.2 0 0 1-.15.05h-2.74v2h3c.07 0 .11.02.15.06.04.03.06.08.06.14v.32a.2.2 0 0 1-.06.14.22.22 0 0 1-.15.05h-3.6ZM65.15 32c-.6 0-1.06-.2-1.36-.59-.3-.39-.46-.88-.49-1.48v-.52c.03-.6.19-1.09.5-1.48.3-.4.75-.6 1.35-.6.6 0 1.06.22 1.39.65v-2c0-.06.02-.1.05-.14a.2.2 0 0 1 .15-.06h.39c.05 0 .1.02.13.06.04.04.06.08.06.14v5.74a.2.2 0 0 1-.06.14.19.19 0 0 1-.13.05h-.37a.19.19 0 0 1-.14-.05.22.22 0 0 1-.05-.14v-.38c-.33.44-.8.66-1.42.66Zm.16-.67c.4 0 .7-.14.9-.4.2-.27.31-.6.33-.96a4.23 4.23 0 0 0 0-.66 1.44 1.44 0 0 0-.34-.91c-.2-.26-.5-.39-.9-.39s-.7.13-.9.39c-.18.26-.29.6-.3 1.02l-.01.25c0 1.1.4 1.66 1.22 1.66ZM69.1 26.58a.22.22 0 0 1-.15-.05.22.22 0 0 1-.05-.15v-.45c0-.06.01-.1.05-.15a.2.2 0 0 1 .14-.06h.51c.06 0 .1.02.15.06a.2.2 0 0 1 .06.15v.45a.2.2 0 0 1-.06.15.22.22 0 0 1-.15.05h-.5Zm.06 5.33a.22.22 0 0 1-.14-.05.22.22 0 0 1-.05-.14v-4.1c0-.06.01-.1.05-.14a.2.2 0 0 1 .14-.06h.38c.06 0 .1.02.14.06.04.04.06.08.06.14v4.1a.2.2 0 0 1-.06.14.19.19 0 0 1-.14.05h-.38ZM73.1 31.91c-.89 0-1.33-.5-1.33-1.5v-2.32h-.68a.19.19 0 0 1-.14-.05.19.19 0 0 1-.05-.14v-.28c0-.06.01-.1.05-.14a.17.17 0 0 1 .14-.06h.68v-1.44c0-.06.01-.1.05-.14a.17.17 0 0 1 .13-.06h.38c.06 0 .1.02.14.06.04.04.06.08.06.14v1.44h1.07c.06 0 .1.02.14.06.04.04.06.08.06.14v.28c0 .06-.02.1-.06.14a.19.19 0 0 1-.14.05h-1.07v2.25c0 .3.05.52.14.67.1.15.26.22.49.22h.52c.06 0 .1.02.14.06.04.04.05.08.05.14v.29c0 .05-.01.1-.05.14a.19.19 0 0 1-.14.05h-.58ZM76.88 32c-.64 0-1.12-.18-1.47-.54a2.11 2.11 0 0 1-.54-1.42v-.74c.02-.6.2-1.07.55-1.43.35-.35.84-.53 1.46-.53s1.1.18 1.44.53c.35.36.54.83.56 1.43a4.1 4.1 0 0 1 0 .74c-.02.6-.2 1.07-.55 1.42-.34.36-.82.54-1.45.54Zm0-.65c.36 0 .65-.11.87-.34.21-.24.33-.58.35-1.01a4.03 4.03 0 0 0 0-.66 1.5 1.5 0 0 0-.35-1c-.22-.24-.5-.36-.87-.36s-.66.12-.88.36c-.21.23-.33.56-.35 1V30c.02.43.14.77.35 1 .22.24.5.35.88.35ZM80.53 31.91a.22.22 0 0 1-.15-.05.22.22 0 0 1-.05-.14v-4.09c0-.06.02-.1.05-.15a.2.2 0 0 1 .15-.06h.36c.06 0 .11.02.15.06.04.04.06.09.06.15v.38c.23-.4.63-.59 1.2-.59h.33c.06 0 .11.02.14.06.04.03.06.08.06.14v.32c0 .06-.02.1-.06.15-.03.03-.08.05-.14.05h-.5c-.3 0-.56.1-.74.28-.18.18-.27.43-.27.75v2.55a.2.2 0 0 1-.06.14.22.22 0 0 1-.14.05h-.4ZM84.04 26.58a.22.22 0 0 1-.15-.05.22.22 0 0 1-.05-.15v-.45c0-.06.02-.1.05-.15a.2.2 0 0 1 .15-.06h.5c.07 0 .11.02.15.06a.2.2 0 0 1 .06.15v.45a.2.2 0 0 1-.06.15.22.22 0 0 1-.14.05h-.51Zm.07 5.33a.22.22 0 0 1-.15-.05.22.22 0 0 1-.05-.14v-4.1c0-.06.02-.1.05-.14a.2.2 0 0 1 .15-.06h.38c.05 0 .1.02.14.06.04.04.06.08.06.14v4.1a.2.2 0 0 1-.06.14.19.19 0 0 1-.14.05h-.38ZM87.56 32a1.8 1.8 0 0 1-.78-.17 1.52 1.52 0 0 1-.57-.47c-.14-.2-.2-.42-.2-.66 0-.38.15-.7.46-.94.3-.24.73-.4 1.26-.48l1.3-.18v-.25c0-.6-.35-.9-1.03-.9-.26 0-.47.06-.64.17a.99.99 0 0 0-.35.37.3.3 0 0 1-.08.13.17.17 0 0 1-.1.02h-.33a.2.2 0 0 1-.14-.05.2.2 0 0 1-.05-.14c0-.13.06-.28.18-.46s.32-.33.57-.45c.26-.14.58-.2.95-.2.64 0 1.1.15 1.38.45.28.3.42.67.42 1.12v2.8a.2.2 0 0 1-.06.15.19.19 0 0 1-.14.05h-.38a.19.19 0 0 1-.14-.05.22.22 0 0 1-.05-.14v-.38c-.12.19-.3.34-.55.47a2 2 0 0 1-.93.19Zm.17-.63c.38 0 .7-.12.93-.37.25-.25.37-.6.37-1.08v-.24l-1.01.14c-.41.06-.73.16-.94.3-.21.14-.32.3-.32.52 0 .23.1.41.29.54.2.13.42.19.68.19ZM91.6 31.91a.22.22 0 0 1-.14-.05.22.22 0 0 1-.05-.14v-5.74a.2.2 0 0 1 .05-.15.22.22 0 0 1 .15-.05h.38c.05 0 .1.02.13.06.04.04.06.08.06.14v5.74a.2.2 0 0 1-.06.14.19.19 0 0 1-.13.05h-.38Z" fill="var(--black,#2F354D)"/></svg>