<svg width="208" height="212" fill="none" xmlns="http://www.w3.org/2000/svg"><g clip-path="url(#a)"><path d="M195.185 32.888c17.066 28.85-.036 84.143-27.877 106.714-33.959 27.531-101.542 29.076-127.632 17.855C-23.372 130.34-9.33 44.792 67.956 49.321c20.823 1.22 41.8-5.739 58.758-17.845 28.792-20.555 58.417-15.583 68.471 1.412Z" fill="#F7F8FB"/><path d="M207 140.5 196 160 11 63c2.5-23.5 20-31.5 29-33l2-2 14.5 7.5-3 5.5 148 91.5-2 3.5 7.5 4.5Z" fill="#FCFDFE"/><path fill-rule="evenodd" clip-rule="evenodd" d="m127.334 134.409 57.164 29.326 1.907-3.357 7.819 4.392 13.773-24.253-7.819-4.391 1.975-3.478-147.96-91.624 2.968-5.226L41.475 27l-1.493 2.629c-10.458 1.582-19.409 8.872-24.734 18.148-5.362 9.338-7.096 20.771-2.93 30.557l-1.35 2.375 15.684 8.81 2.973-5.236 79.579 40.825a10.387 10.387 0 0 0-2.462 6.729c0 1.902.51 3.685 1.4 5.221-8.106 17.912-14.08 37.15-21.049 55.541a1.889 1.889 0 0 0 1.2 2.486c1.053.344 2.224-.213 2.614-1.243l20.262-53.476a10.446 10.446 0 0 0 2.901 1.434v67.203a2 2 0 0 0 4 0v-66.764a10.413 10.413 0 0 0 3.711-1.018l26.361 58.162a2.117 2.117 0 0 0 2.684 1.084 1.889 1.889 0 0 0 1.032-2.56l-26.816-59.168a10.416 10.416 0 0 0 2.292-4.33Zm61.449 19.757L37.265 70.846l16.441-28.952 147.104 91.095-12.027 21.177Zm-176.55-96.56a39.519 39.519 0 0 1 3.884-9.336c5.076-8.84 13.476-15.763 23.232-17.527L26.902 52.658c-5.98 8.84-12.125 11.49-14.67 4.947Zm17.994-8.78 11.628-20.47 13.943 7.82L44.46 56.139c-.64-6.417-8.821-9.565-14.233-7.312Zm162.899 99.718c2.938-.971 6.585.762 6.858 4.06l6.65-11.71-6.948-3.902-6.56 11.552Z" fill="#D2D6E7"/><path fill-rule="evenodd" clip-rule="evenodd" d="M14.435 76.244a.496.496 0 0 1-.196-.673l8.796-15.724a.496.496 0 0 1 .676-.185.496.496 0 0 1 .197.673L15.112 76.06a.496.496 0 0 1-.677.185ZM29.435 82.243a.501.501 0 0 1-.19-.682L35.1 71.092a.501.501 0 1 1 .872.488l-5.856 10.47a.501.501 0 0 1-.682.193ZM112.054 126.268a.47.47 0 0 1 .647-.212l11.04 6a.51.51 0 0 1 .203.675.471.471 0 0 1-.647.212l-11.04-6a.51.51 0 0 1-.203-.675Z" fill="#FCFDFE"/><circle cx="46.5" cy="152.5" r="19.5" fill="#FCFDFE"/><path fill-rule="evenodd" clip-rule="evenodd" d="M66 152.5c0 10.77-8.73 19.5-19.5 19.5S27 163.27 27 152.5 35.73 133 46.5 133 66 141.73 66 152.5Zm-28.174 16.345c18.597 3.955 30.22-24.644 7.713-34.82-9.77.5-17.539 8.58-17.539 18.475 0 7.083 3.98 13.236 9.826 16.345Z" fill="#D2D6E7"/><path d="m138.5 35.5-7.5-17L164 1l-21 37-4.5-2.5ZM139 44.11 129 37l.476 24L139 44.11Z" fill="#FCFDFE"/><path fill-rule="evenodd" clip-rule="evenodd" d="M167 40.466 164.641 0l-34.757 18.198 4.713 10.772L128 24.742 128.648 62l32.065-17.193h-.007l-5.964-3.618L167 40.466Zm-37.972-11.82 9.045 15.136-8.484 15.508-.561-30.645ZM139 35.5l-7.797-16.766 31.625-16.53L142 37.5l-3-2Z" fill="#D2D6E7"/><path d="M139.09 45.158c24.804 14.68 48.245 20.951 52.356 14.008 3.318-5.605-8.642-19.97-25.785-32.306l.001 5.043c7.692 6.418 14.023 12.94 12.359 15.75-2.561 4.325-18.059-.112-34.615-9.91-16.557-9.798-27.903-21.248-25.342-25.573 1.796-3.034 8.911-1.332 19.343 3.086l4.783-2.546C122.33 2.938 105.043.225 101.62 6.007c-4.111 6.943 12.665 24.472 37.47 39.151Z" fill="#FCFDFE"/><path fill-rule="evenodd" clip-rule="evenodd" d="M184.969 60.972c3.063-.154 4.852-1.025 5.616-2.315.591-.998.597-2.569-.287-4.8-.87-2.197-2.522-4.814-4.849-7.691-4.357-5.387-10.959-11.538-18.788-17.337l.001 2.606c3.72 3.124 7.134 6.289 9.454 9.053 1.193 1.421 2.139 2.787 2.675 4.023.523 1.208.753 2.532.09 3.651-.92 1.555-2.853 2.104-5.002 2.145-2.213.042-5.016-.442-8.192-1.351-6.368-1.823-14.461-5.423-22.791-10.353-8.329-4.93-15.379-10.29-20.041-14.995-2.325-2.346-4.098-4.57-5.126-6.53-.998-1.903-1.446-3.862-.526-5.417.64-1.08 1.722-1.66 2.994-1.894 1.252-.229 2.771-.141 4.478.167 3.325.602 7.641 2.099 12.682 4.215l2.624-1.396c-9.197-4.365-17.719-7.153-24.4-8.24-3.559-.58-6.541-.667-8.805-.286-2.282.384-3.657 1.21-4.296 2.29-.764 1.29-.667 3.277.672 6.036 1.318 2.716 3.726 5.93 7.082 9.437 6.701 7.002 17.018 15 29.365 22.308 12.347 7.306 24.323 12.501 33.687 15.006 4.689 1.255 8.667 1.82 11.683 1.668Zm-43.891-48.803c-19.39-9.33-36.099-11.836-39.458-6.162-4.111 6.943 12.665 24.472 37.47 39.151 24.804 14.68 48.245 20.951 52.356 14.008 3.254-5.496-8.18-19.412-24.785-31.58-.331-.243-.665-.485-1-.726l.001 5.043c7.692 6.418 14.023 12.94 12.359 15.75-2.561 4.325-18.059-.112-34.615-9.91-16.557-9.798-27.903-21.248-25.342-25.573 1.796-3.034 8.911-1.332 19.343 3.086l4.783-2.546a125.61 125.61 0 0 0-1.112-.541Z" fill="#D2D6E7"/><circle cx="193.5" cy="88.5" r="10.5" fill="#FCFDFE"/><path fill-rule="evenodd" clip-rule="evenodd" d="M204 88.5c0 5.799-4.701 10.5-10.5 10.5S183 94.299 183 88.5 187.701 78 193.5 78 204 82.701 204 88.5ZM193.514 79c-5.249-.008-9.514 4.249-9.514 9.5 0 4.063 2.55 7.53 6.137 8.887 8.288.7 13.086-12.914 3.377-18.387Z" fill="#D2D6E7"/></g><defs><clipPath id="a"><path fill="#fff" d="M0 0h207.997v211.003H0z"/></clipPath></defs></svg>