<svg width="268" height="296" fill="none" xmlns="http://www.w3.org/2000/svg"><path fill-rule="evenodd" clip-rule="evenodd" d="M148.21 29.15c-3.03 3.9-13.56-4.41-20.05-9.54l-1.64-1.3c-6.19-4.84-8.52-12.21-5.2-16.47 3.3-4.25 10.15-3.18 16.34 1.66 6.18 4.85 13.87 21.4 10.55 25.65ZM22.52 85.61a24.16 24.16 0 0 1-11.96-21.04c0-11.31 7.53-20.79 17.67-23.35C31.48 22.78 47.24 8.79 66.19 8.79c6.47 0 12.57 1.62 17.93 4.51l4.2.33c6.67.5 10 .76 18.08 2.23 14.2 3.63 27.22 14.36 37.2 22.59 12.01 9.87 19.64 16.15 19.64 2.15 0-9.82-3.73-18.93-10.09-26.44 24.51 10 44.1 29.97 54.08 55.03a37.7 37.7 0 0 1 15.7-3.4c21.3 0 38.57 17.67 38.57 39.49 0 2.01-.14 3.98-.43 5.91a39.93 39.93 0 0 1 6.93 22.6c0 5.78-1.21 11.26-3.4 16.21-1.61 26.85-16.67 49.96-38.35 62.39.22 2 .33 4.02.33 6.08 0 29.91-23.82 54.15-53.2 54.15-29.37 0-53.19-24.24-53.19-54.14 0-4.09.45-8.07 1.3-11.9a99.37 99.37 0 0 1-10.14-.1c-8.94 21.2-29.43 36.03-53.28 36.03C26 242.5 0 215.7 0 182.65a60.36 60.36 0 0 1 23.97-48.46 102.56 102.56 0 0 1-3.67-27.27c0-7.32.77-14.44 2.22-21.31Zm10.26 156.42c7.31 3.85 19.23 10.13 16.9 14.51-2.54 4.77-20.74 4.46-27.66.75-6.93-3.7-10.7-9.52-8.16-14.29 2.54-4.76 10.2-5.62 17.13-1.92l1.79.95ZM55.6 267.7c-.59-3.27-8.56-1.78-13.46-.86l-1.22.23c-4.66.85-7.93 4.42-7.28 7.98.65 3.56 4.64 5.14 9.3 4.3 4.66-.86 13.3-8.09 12.66-11.65Z" fill="var(--blue-light-1,#ECF0FE)"/><path d="M183.96 91.88a33.55 33.55 0 0 1-13.94 12.76c.45.14 8.69 3.02 10.06 10.13 1.1 5.71-2.88 11.02-3.14 11.36-1.98 2.56-3.38 2.52-4.1 4.84-.91 2.96.84 4.89-.62 7.88-.66 1.34-1.28 1.54-1.72 2.23 0 0-.17.28-.28.61-.3.85 2.75 3.73 7.34 6.95a44.2 44.2 0 0 1 2.2-3.02c1.92-2.44 5.67-7.09 11.69-10.13 3.9-1.98 6.7-3.4 8.36-2.22 2.15 1.54.9 6.18-.65 18.1-1.92 14.62 2.2 17.56 3.35 39.13.33 6.2.5 15.65-.65 27.45h-.02l-8.63.04a198.48 198.48 0 0 1-7.06 10.8l-9.21-29.44-64.06-15.07-12.58-3.25-5.69 3.25h-5.68l-5.14-3.25-7.45 5.29-23.14 31.64c-.2-3.5-.25-8.76.59-15.05.78-5.95 1.77-8.31 3.35-14.72 4.45-18.08 2.04-21.5 6.97-30.26 1.9-3.38 5.1-8.86 10.65-10.13 4.45-1 8.92 1.02 9.03.64.1-.36-4.02-1.33-8.8-4.14-5.76-3.4-7.17-6.07-7.5-6.76a11.98 11.98 0 0 1-1.1-5.52 17.02 17.02 0 0 1-6.94-9.68c-.21-.86-2-8.15 1.94-12.76 2.15-2.53 4.46-2.42 4.63-4.26.2-2.15-2.86-3.22-4.9-8.2-.23-.58-.52-1.24-.7-2.17-.49-2.6.46-4.45-.82-9.46-1.1-4.27-2.05-3.91-3.72-8.77v-.02c-.77-2.2-4.43-12.88-.24-16.4.96-.8 2.2-1.1 3.43-1.13l4.55-.14c5.53-.16 15.32 5.86 16.36 6.5l.03.02c2.93 1.82 10.88 6.72 18.04 8.41 15.1 3.58 19.8-8.75 36.4-6.01 7.44 1.22 10.62 4.38 15.48 4.77.91.07 2.43.14 4.24-.34 3.6-.99 5.74-3.53 6.4-4.24 5.53-5.97 23.28-9.53 27.97-3.77 1.68 2.06 1.22 5.54.05 12.47-.97 5.69-1.71 10.1-4.63 15.04Z" fill="var(--white,#fff)"/><path d="M72.65 188.39c-.18.33-.34.63-.5.88l-.78 1.3c-2.7 4.35-9.9 16.04-10.34 20.52-.4 4.07-1.47 35.55-1.47 35.55s8.02 19 10.04 17.39c.9-.73 6.6-7.9 13.08-16.04l2.19-2.75c.62 4.18 1.25 8.12 1.73 11.1 5.75-1.69 17.73-5.48 19.75-7.1 2.02-1.63 12.3-11.5 17.2-16.24l12.66-34.52v-6.6c-9.98-3.18-35.44 2.6-41.68 5.67l-3.04-9.93-4.1-4.8c-10.04-3.2-13.12 2.54-14.74 5.57Z" fill="var(--white,#fff)"/><path fill-rule="evenodd" clip-rule="evenodd" d="M160.01 145.29c-.5.19-1.02.37-1.52.59a50.1 50.1 0 0 1-5.62 1.9l-3.48 1.08c-2.32.73-4.64 1.44-6.98 2.1-2.25.64-4.52 1.19-6.78 1.73h-.01l-2.77.68-1.16.29-2.9.72c-5.72 1.4-6.46 1.51-7.13 1.6-2.68.3-4.8.23-5.83-.02-2.34-.58-2.2-.67-4.8-1.14-3.67-.65-4.51 0-8.45-.78a74.1 74.1 0 0 1-10.56-3.26c8.64.62 10.51.36 10.56 0 .16-1.1-17-1.84-21.26-11.37-.92-2.06-1-4-.98-5.13l-.07-.03c-.15-.07-.3-.15-.45-.2a23.94 23.94 0 0 1-4.91-2.14 20.15 20.15 0 0 1-4.52-4.17c-1.55-1.81-2.2-3.88-2.67-6.07a12.56 12.56 0 0 1-.18-3.54l.01-.39c.12-2.05 7.6-6.74 9.7-8.03l-.59-2.64c-.52-2.29-.8-4.63-.56-6.96a42.47 42.47 0 0 1 4.56-15.27c-.9.44-1.72.69-2.44.82-5.09.94-9.34-2.72-10.28-3.55 0 0-3.6-1.39-6.41-9.45-.1-.28-.2-.61-.4-.76-.4-.27-.5-.67-.61-1.06l-.08-.3-.08-.28c-.1-.33-.2-.65-.35-.95-1.13-2.3-1.42-4.74-1.4-7.27.02-.45.13-.88.24-1.3.14-.53.27-1.05.22-1.6 1-.31 2-.25 3.02-.19a16 16 0 0 0 1.52.05c1.25-.04 2.49.16 3.72.36.74.13 1.49.25 2.23.32 1.22.12 2.46.52 3.69.92l1.2.39c1.09.31 2.12.77 3.14 1.22.85.37 1.7.75 2.6 1.04.6.21 1.1.6 1.77 1.13l.73.57a64.56 64.56 0 0 1 6.07 5.24c.45.44 1.08.43 1.71.35 1.56-.18 2.43-1.77 3.18-2.8a12.92 12.92 0 0 1 8.12-4.88c3.7-.47 6.28 2 7.3.81.34-.38.27-1.38.11-3.38-.11-1.54-.23-2.42.1-3.63.28-1.06 1.13-1.62 2.18-1.37 1.44.35 2.77.96 3.96 1.9a22.72 22.72 0 0 1 6.45 7.56l.04.07.07.13.08.15c.52.77 1.34 1.72 2.45 1.83 1.26.13 1.87-.92 4.06-2.44 1.27-.9 4.25-2.91 7.3-2.45.48.08 1.41.23 1.63.82.24.63-.4 1.6-1.62 2.44-.83.89-1.79 2.06-1.47 2.61.23.39.98.23 1.42.28 3.67.38 7.14 1.52 10.48 3 .55.25 1.1.49 1.66.72 1.5.64 2.99 1.27 4.4 2.06.7.4 1.45.77 2.3.52.14.38.24.75.36 1.13.24.82.48 1.63.85 2.37.83 1.68 1.78 3.31 2.96 4.8.55.67 1.2 1.2 1.86 1.74.6.48 1.18.96 1.68 1.53.04.04.1.06.18.08h.02l.03.01.04.02c.25-.04.38.03.54.28 1.2 1.94 3.12 2.89 5.2 3.57l.06.04 1.19-4.9c.28-.2.6-.33.93-.45a3.6 3.6 0 0 0 1.21-.63 8.17 8.17 0 0 0-2.5-.54l.14-.32.26-.65c.4-1.24.69-2.16.77-3.45l.19-.43c.67-.05.68-.7.69-1.06v-.14c.04-.37.19-.55.34-.74.14-.16.27-.31.32-.56.36-1.6 1.55-2.7 2.97-3.52.25-.15.28-.35.3-.56.01-.17.03-.34.18-.5.62.14 1.07-.23 1.55-.6.36-.28.73-.57 1.18-.63 1.72.7 2.8 1.99 3.21 3.8.19.83.14 1.66.09 2.49l-.04.9a44.83 44.83 0 0 1-.22 3.04l-.12 1.28-.29.75c-.47 1.2-.94 2.4-.15 3.84a19.65 19.65 0 0 0 4.94-6.32c.7-1.45 1.6-3.75 1.84-6.51l.03-.44c.1-.92.31-3-.33-4.94-1.28-3.82-5.14-5.51-5.82-5.8 1.41-.26 5.98-.96 7.44 1.26l.09.15s.97 1.75 1.45 3.88c.35 1.55.5 5.23-.81 9.77-1.34 3.01-2.68 6.03-4 9.05l-.05.09-.05.12-.04.12-.05.12c-.26.65-.52 1.32-.86 1.93-.5.92-.56 1.9-.5 2.9.06 1.24.02 2.19-.03 2.9l-.03.87c.01.45.01 4.54-2.49 7.7a10.8 10.8 0 0 1-5.35 3.52l2.34 7.08c.88 3.24.55 6.69-.92 9.7l-.53 1.1a17.46 17.46 0 0 1-2.16 3.36l-1.12 1.37a31.29 31.29 0 0 1-4.47 4.45l-1.6 1.3-5.79 4.63 4.35-2.17a17.3 17.3 0 0 0 2.74-1.7l2.79-2.1a.93.93 0 0 1 1.1 0c.14.11.22.27.22.44v.1c0 .4-.1.78-.27 1.13l-.34.69c-.36.73-.8 1.41-1.34 2.04l-.9 1.07c-.28.34-.6.64-.95.9l-1.99 1.53c-.51.4-1.05.74-1.61 1.06l-.24.13c-.44.25-.9.46-1.36.63-.56.2-1.08.46-1.61.72-.76.38-1.56.69-2.36.98Zm42.43-12.61c-2.1-1.26-8.85 6.01-10 7.34-.48.55-.85 1.07-1.85 2.17-.74.83-1.17 1.24-1.7 2.07-.3.46-.3.53-.74 1.29-.6 1-1.08 1.68-1.23 1.9-.63.93-1.04 2.18-1.85 4.7-1.1 3.37-1.25 4.81-1.18 6.22v.13c0 .03 0 .05.02.08.02.3.04.62-.25.88l.8 1.9c.6 1.38 1.2 2.77 1.7 4.2.66 1.9 1.23 3.82 1.8 5.75l.67 2.22c.23.75.42 1.5.63 2.22.29 1.08.57 2.15.95 3.22.5 1.47 1.13 2.9 1.75 4.33l.78 1.81.4.98c.25.58.53 1.23.85 2.03.35.85 1.41 3.61 1.63 4.47.32.66.71 2.15 1.01 3.3l.2.78c.71 2.61 1.23 4.58 1.55 7.26.24 1.95.18 3.76.12 5.6-.04 1.25-.09 2.5-.04 3.83.05 1.4 0 3.66-.38 5.07.15 0 .42-.14.68-.28.25-.14.5-.27.65-.27l4.77-8.1c.15-1.1.95-7 .85-12.17-.05-2.38-.26-4.9-.26-4.9-.14-.95-.23-1.9-.32-2.86 0-.13-.02-.26-.03-.38l-.02-.2c-.18-1.84-.72-3.57-1.26-5.3-.24-.75-.47-1.5-.69-2.26a52.44 52.44 0 0 0-2.65-7.04l-.78-1.83c-.07-.16-.14-.32-.2-.5l-.17-.38c-2.48-9.19-2.5-16.27-2.03-17.96.12-.4 1.26-2.65 1.42-3.68.04-.27.2-.5.39-.73.22-.31.46-.62.43-1.05.17-.29.4-.73.69-1.29 1.21-2.4 2.98-5.94 3.32-10.31.2-2.54.3-3.83-.43-4.26ZM58.39 214.42a9.53 9.53 0 0 1-.55-2.98c0-.7-.02-1.22 0-1.46.2-4.45.32-8.9.54-13.35.04-1.06.06-1.42.08-1.67.32-6.39 1.31-25.9 11.63-39.28 1.95-2.52 4.1-4.67 7.31-5.7 3.39-1.1 6.5-.47 8.12 0a24.23 24.23 0 0 0-7.6 4.51s-2.8 2.47-5.45 6.6l-.56.87s-.61 1.01-1.19 2.08c-6.12 11.28-9.56 29.1-9.56 29.1a174.26 174.26 0 0 0-2.77 21.28Zm124.52-32.94.03.03c1 1.3 2.48 3.2 3.8 5.59 2.57 4.64 3.32 8.8 3.91 12.29.52 3 .95 7.28.55 12.44a89.35 89.35 0 0 0-1.02-2.63l-.06-.13s-.2-.56-.43-1.04a73.27 73.27 0 0 0-5.35-9.43 76.26 76.26 0 0 0-8.13-9.84l-.72-.74c-1.78-1.84-3.4-3.52-5.76-5.43-.6-.48-2.75-1.96-7.05-4.9a20.6 20.6 0 0 0-7.69-3.53 14.05 14.05 0 0 1-6.12 5.13c-1.54.64-4.9 2.04-8.12.81-1.7-.64-3.76-2.17-5.82-1.34l-.24.1a7.62 7.62 0 0 1-6.37-2.71 6.98 6.98 0 0 1-1.21-2.32c-.54-1.76-.27-3.4-.04-4.88.01-.06.08-.47.17-.85.52-2.38 1.97-4.55 3.19-6.05a22.77 22.77 0 0 1 4.6-4.07c6.1-4.07 12.59-4.02 15.38-3.82l1.25.52a66.77 66.77 0 0 1 5.84 2.56l.73.4c4.36 2.28 7.96 5.51 11.28 9.11a437.48 437.48 0 0 1 7.92 8.62 67.5 67.5 0 0 0 2.18 2.37 41.88 41.88 0 0 1 3.3 3.74ZM62.8 205.35c.74.37 3.81-6 8.93-12.22 4.94-6 10.16-9.87 13.8-12.21a13.7 13.7 0 0 1-2.43-4.07c-1.17-3.08-.75-5.49-1.63-5.7-.39-.1-.71.32-2.9 2.84-2.38 2.74-2.1 2.4-2.5 2.88-.45.56-2.06 2.54-3.49 4.66-1.5 2.24-3.25 6-6.67 13.42-.41.9-.87 1.9-1.4 3.3-.75 2.04-2.34 6.78-1.71 7.1Zm88.66-53.32c.1-.08.26-.1.4-.12.2-.03.4-.06.49-.28.17-.4.4-.46.78-.37.28.07.65.04.81-.19.6-.84 1.36-.67 2.18-.48h.03l.04.02.06.01c.41.1.9.22 1.12-.41.59.2 1.16.07 1.73-.06.53-.12 1.07-.25 1.6-.1a5.4 5.4 0 0 0 3.32.05c.79-.24 1.88.08 2.78.68.99.66 1.48 1.63 1.97 2.6.21.42.41.83.67 1.22a15.53 15.53 0 0 1 1.88 5.13l.15.67c.43 2.05.78 3.66.86 4.58.1.92.15 1.7.18 2.28l-1.05-1.4a41.98 41.98 0 0 0-4.53-4.91l-.06-.06a34.41 34.41 0 0 0-7.34-5.24 65.9 65.9 0 0 0-4.69-2.23 61.07 61.07 0 0 0-3.38-1.39ZM105.8 179.7v.13l-.01.12a6 6 0 0 0 4.76-3.86c.33-.89.82-1.62 1.5-2.22a6.34 6.34 0 0 0 1.48-2.09c-.06-.1-.13-.13-.19-.17-.08-.04-.14-.06-.1-.22l.05.03-.05-.03c-.05-.03-.06-.08-.07-.13v-.05c-.2-.55-.44-1.09-.68-1.62-.66-1.44-1.32-2.88-.83-4.6.3-1.05.3-2.2-.7-3.08a2.91 2.91 0 0 1-.58-.87 4.49 4.49 0 0 0-.2-.33 3.2 3.2 0 0 1-.15-.3c-.23-.44-.45-.86-1.08-.93-.18-.02-.4-.3-.5-.5a4.08 4.08 0 0 0-1.12-1.28c-.4-.34-.8-.69-1.06-1.15-.12-.2-.34-.25-.56-.3l-.2-.04c-.6-.18-1.2-.4-1.36-1.12l.04.03-.04-.04v.01L104 155l-.12-.07-1.3-.88-11.37-3.26a55.85 55.85 0 0 0 4.99 7.93s4.67 6.16 6.53 8.88c.2.3.5.76.86 1.38.6 1.03 1.44 2.49 1.89 4.33.66 2.79.3 5.93.31 6.39Z" fill="#FFD49C"/><path fill-rule="evenodd" clip-rule="evenodd" d="M78.41 197.27c-.32.4-.5.63-.56.63 0 0-1.38 1.09 1.55-3.29a72.68 72.68 0 0 0-13.36 31.9c-.78 5.16-4.71 31.04 11.37 48.9 5.2 5.78 10.96 9.02 13.8 10.58 11.23 6.18 21.8 6.97 28.05 7.37a76.93 76.93 0 0 0 34.43-5.67 75.56 75.56 0 0 0 14.2-8.26s7.27-5.15 12.35-10.84c4.21-4.71 10.45-17.2 13.3-34.71l-.81-13.85c-1.92-5.75-6.58-18.15-15.43-28.5-1.82-2.13-4.74-4.68-10.56-9.77 0 0-5.07-4.44-10.56-5.7-1.27-.3-1.9-.24-2.44 0-1.83.8-1.73 3.34-4.02 4.41-.1.04-.46.14-1.16.38-1.17.39-1.89.05-3.19 0-.17-.01-1.62-.53-1.62 0-1.33-.05-1.78.22-3.06 0-.7-.13-1.54-.33-2.22-.38-.31-.01-.51-.24-.81-.27-1.2-.1-2.27 1.18-2.76 1.37-.97.4-1.95.33-3.9.19-3.53-.25-5.73-2.69-11.36-5.7a54.83 54.83 0 0 0-4.42-2.12c-.35.3-.64.65-.94 1a5.56 5.56 0 0 1-1.44 1.35c-.12.06-.15.2-.18.34a7.29 7.29 0 0 1-3.4 4.21 15.36 15.36 0 0 1-6.05 2.03c-.27.04-.6-.02-.85-.15-.9-.47-1.64-.06-2.36.35l-.07.04c-.48.27-.78.5-1.05.7a4.96 4.96 0 0 1-2.34 1.08c-.12.03-.26.05-.43.1-1.67.36-2.88.92-5 1.92l-.02.01-.07.03a30 30 0 0 0-7.64 5 40.4 40.4 0 0 0-4.97 5.32Zm20.66 48.88c.12.56.25 1.12.42 1.66.33 1.03 1.35 1.94 2.18 2.68l.08.06.47.43.78.71c1.9 1.65 3.81 3.3 6.02 4.52l.07.04c2.86 1.57 5.71 3.15 8.9 4 1.41.37 2.82.71 4.25.94.38.05.76.13 1.13.21l.4.1c.21.5.27.96.04 1.52a34.4 34.4 0 0 1-8.43-1.76 39.36 39.36 0 0 1-5.17-2.22c-.5-.27-1-.58-1.48-.88l-1-.6a41.75 41.75 0 0 1-8.83-7.03c-2.93-3-5.34-6.4-7.17-10.15a22.04 22.04 0 0 1-2.33-8.8c-.2-4.13 1.04-4.73 4.25-15.6 0 0 1.2-4.09 2.9-6.65.02-.04.44-.6.93-1.41.33-.55.67-1.1 1-1.5 2.88-3.57 5.18-5.98 9.15-8.27a35.43 35.43 0 0 1 11.88-4.34c2.91-.5 5.87-.6 8.83-.3a35.5 35.5 0 0 1 12.94 3.96 34.64 34.64 0 0 1 9.2 6.91l.33.34c.97 1.03 1.95 2.07 2.78 3.22a31.96 31.96 0 0 1 3 4.84l.35.76a28.85 28.85 0 0 1 2.32 5.92l.41 1.67c.45 1.76.9 3.51.96 5.37l.08 1.36c.06.84.12 1.67.08 2.47a25.04 25.04 0 0 1-1.86 8.59c-2.07 4.82-5.16 8.9-8.83 12.64-2.87 2.92-6.2 5.11-9.65 7.13a31.64 31.64 0 0 1-14.12 4.29.23.23 0 0 1-.1-.04.19.19 0 0 1-.04-.03c-.18-.15-.15-.35-.11-.55l.01-.12c.02-.16.04-.32.08-.5l.04-.24c.42 0 .78-.09 1.16-.19.2-.04.41-.1.64-.14.41-.07.9-.19 1.36-.3l.97-.22c2.78-.58 5.34-1.7 7.87-2.92a40.74 40.74 0 0 0 10.12-7.21c1.05-1 2-2.1 2.89-3.24 0 0 .34-.6.62-1.3a25.28 25.28 0 0 0 1.38-13.37s-1.42-9.16-13.84-24.39c-.4-.48-1.54-1.88-3.14-3.88l-1.76-2.24c-1.08-1.38-1.58-2.03-2.17-2.6-.3-.28-.57-.5-.66-.58l-.04-.02v-.01c-1.22-1-3.33-2.72-6.17-3.06a7.07 7.07 0 0 0-2.26.03c-1.25.24-2 .82-3.9 2.31-.19.15-.4.3-.6.47-1.55 1.2-2.16 1.64-2.45 1.86-.23.17-.27.2-.44.35-1.53 1.45-2.27 2.82-3.2 4.53l-.26.5s-2.3 3.54-4.76 7.28a94.28 94.28 0 0 0-2.68 4.3c-.48.8-.97 1.62-1.77 2.88a25.2 25.2 0 0 0-1.88 3.85l-.17.4c-.75 1.75-1.51 3.63-2.18 5.4a13.87 13.87 0 0 0-.69 3.82c-.03.34-.05.69-.09 1.02-.28 2.75-.34 4.92.16 7.64l.1.62c.1.54.17 1.02.3 1.42.17.56.28 1.1.4 1.64Zm54.33-2.95c-.18.63-.27.96-.16 1.02.4.2 2.75-3.04 4.13-6.82a23.95 23.95 0 0 0 1.36-9.6c-.05-1.1-.23-3.92-1.22-7.45a32.84 32.84 0 0 0-1.7-4.78 62.2 62.2 0 0 0-2.56-4.72c-.5-.9-1.08-1.8-1.72-2.53a40.15 40.15 0 0 0-6.78-6.61l-.58-.44a12.93 12.93 0 0 0-1.9-1.24c-.93-.52-2.19-1.22-6.42-3.02-2.57-1.1-3.37-1.41-4.62-1.56a11.86 11.86 0 0 0-2.7 0 29.33 29.33 0 0 1 6.17 5.42c.76.88 1.15 1.45 1.76 2.34.54.78 1.24 1.8 2.48 3.46.93 1.25 1.39 1.82 2 2.58.5.64 1.13 1.41 2.24 2.84l.06.07c2.86 3.7 4.3 5.57 5.66 7.7a36.46 36.46 0 0 1 3.87 7.36 23.78 23.78 0 0 1 1.6 6.53 25.2 25.2 0 0 1-.38 6.97c-.19 1.1-.42 1.9-.59 2.48Z" fill="#B76A50"/><path d="m78.06 247.2 20.91 1.9c-6.43-5.94-12.86-11.88-19.3-17.8L51.5 213.1l-23.54-17.03 10.78 24.18 3.97 4.87 3.83 1.58 5.44 2.52 1.94 1.81-.77.4-6.17.39 4.3 4.42 11.31 7.5 6.76 2.72 4.8.25 3.91.5Z" fill="var(--white,#fff)"/><path d="m133.53 117.5-.18-.09s-2.1-1.01-3.91-3.35c-3.78-4.9-3.56-10.2-3.56-10.2.2-4.51 2.53-8.8 6.06-11.16a12.7 12.7 0 0 1 3.46-1.57c1.42-.45 6.67-2.1 11.6.54 5.42 2.89 9.16 9.88 7.86 15.46-.64 2.76-1.92 5.92-2.74 6.93-.83 1-3.95 3.94-8.62 5.16-4.2 1.09-8.53-1.07-9.97-1.73Zm13.73-8.81.1-.06-.1.06Z" fill="#FFAD4D"/><path d="M135.58 93.17c-2.7.06-5.97-2.15-7.1-4.77-.24-.58-.45-1.18-.72-1.74a2.5 2.5 0 0 1-.22-1.56c.2-1.16.35-2.25 1.5-3.07.72-.53 1.37-.87 2.2-.76 3.4.46 6.07 2.22 8.26 4.83.97 1.16 1.06 2.52 1 3.9-.01.56-.54.92-.91 1.36-1.08 1.26-2.51 1.57-4.01 1.8Zm-34.44-11.91a6.18 6.18 0 0 1 4.5 1.46c1.18.9 1.28 1.74.65 3.12-.68 1.46-1.85 2.3-3.18 3.02-.25.13-.52.26-.75.43a11.1 11.1 0 0 1-4.27 1.75c-.83.19-1.96.34-2.87-.19a1.52 1.52 0 0 0-.82-.25 1.07 1.07 0 0 1-1.13-.94c-.1-1.04-.65-1.98-.15-3.2.76-1.84 1.69-3.43 3.53-4.2 1.38-.6 2.84-1.18 4.49-1Z" fill="#FFAD4D"/><path d="M90.55 116.58c-2.47-.31-4.6-1.27-4.6-1.27-.07 0-.15-.04-.18-.08-1.07-1.46-2.84-2.1-4.06-3.39-.35-.36-.59-.74-.74-.96-1.36-1.96-2.48-5.58-2.13-9.61.16-1.77.59-6.71 4.54-10.12 1.7-1.48 3.4-2.08 4.53-2.47 1.38-.48 6.6-2.07 12.03.55a13.4 13.4 0 0 1 5.37 4.36c4.03 5.8 2.8 15.76-3.25 20.36 0-.01-4.6 3.48-11.5 2.63Zm9.64-10.17.1-.06-.1.06ZM61.15 213.1c-5.57-4.06-11.45-4.43-14.67-4.64-1.62-.1-8.81-.57-9.27 1.17-.32 1.26 2.88 3.98 18.92 10.44l-9.27.78c.27.72.72 1.72 1.54 2.71 5.13 6.18 18.72 5.12 20.46.77 1.4-3.49-4.78-9.1-7.71-11.23Z" fill="#FFAD4D"/><path d="M112.33 174.4c.5 0 .9-1.79 1.62-4.88.7-2.99.43-2.87.81-4.07 1.37-4.3 4.72-5.72 4.06-7.33-.25-.6-.98-.95-2.43-1.63a11.04 11.04 0 0 0-2.44-.81c-1.92-.4-6.66-1.33-13-2.44h-1.62c3.32 1.85 7.38 4.87 9.75 9.77 2.62 5.42 2.33 11.4 3.25 11.4Zm79.66 40.23c-.37-1.37-.74-2.7-1.13-4 .1-1.31.17-3.04.14-5.06 0-.35-.05-2.57-.26-4.54a38.12 38.12 0 0 0-2.62-9.93 51.03 51.03 0 0 0-5.49-10.42c.11-.05.97 0 .71.88l-.03.01c-.17.03-.32-.1-.4-.16-2.7-5.35-5.42-8.6-7.47-10.6-1.1-1.1-2.72-2.5-3.57-4.99-.43-1.23-.35-1.81-.55-3.3 0 0-.06-.63-.38-2.16-.2-.97-1.65-6.12-5.02-7.93-4.42-2.37-8.94 2.77-14.61 0-.95-.46-1.64-1-2.04-1.35.48-.38 1.65-.61 2.7-.97.9-.3.97-.2 2.12-.58.46-.15 1.35-.58 3.97-1.27 1.4-.55 2.39-.94 3.71-1.55 4.57-2.12 6.08-3.53 8.34-3.18.7.12.84.38 1.3.59.82.57 2.25 1 4.92 5.24.64 1.03 1.37 2 2 3.02.94 1.53 1.53 3.23 2.2 4.89.97 2.42 2.15 4.75 3.17 7.14.85 2 1.68 4.01 2.5 6.02 1.35 3.37 2.22 6.62 3.76 9.92.31.66 1.3 1.5.81 2.44.2 1.75 1.91 3.12 2.51 4.76.9 2.4.94 4.82 1.6 7.3.4 1.5.98 3.53 1.4 6.25 1.13 7.45 2.19 13.15-.38 18.8a18.56 18.56 0 0 1-1.92 3.27c-.56-2.72-1.2-5.59-2-8.54Z" fill="var(--blue-light-3,#A9BAFF)"/><path d="M203.1 133.05c.12-.18.38-.55.73-.56.64-.02 1.14 1.18 1.28 1.51.57 1.39.4 2.56.01 5.26-.7 5.03-.52 5.1-.76 6.3-.2 1-.28 1.9-.6 3.04-.25.87-.41 1.63-.82 2.45-.16.33-.54 1.22-.81 1.46-.16.14-.3.1-.45.2-.64.5.04 1.49.44 2.2a6.1 6.1 0 0 1 .66 1.96c.31 1.95 0 4.88.04 6.86 0 .21 0 .23.81 5.12l.83 4.96c.5 1.99 1.07 2.47 3.36 7.75.8 1.84 1.66 3.65 2.46 5.47 1.06 2.41 1.57 4.94 2.3 7.42.36 1.27.4 2.64.53 3.97.07.67-.02 1.35.05 2.02.2 1.93-.15 3.8-.4 5.7-.23 1.82-.8 3.55-1.3 5.28 0 0-.88 2.66-2.1 5.12-1.8 3.58-6.98 10.62-14.75 16.38-.13-1.68-.07-4.71-.2-6.39 1.2-2.87 2.4-5.42 3.6-8.25a3 3 0 0 1 .8-1.1c.35-.3.78-.7 1.16-1.12 5.28-5.6 5.15-14.17 5.07-18.47-.03-2.25-.26-4.9-.26-4.9-.03-.66-.12-1.91-.36-3.44-1.37-8.62-5.36-11.89-9.26-23-.9-2.56-1.36-3.88-1.63-5.7-.9-6.1.9-11.34 2.44-14.65.25-.46 6.02-11.15 7.13-12.85ZM84.8 150.1c-1.05 2.08-1.87 3.84-2.58 5.09a84.54 84.54 0 0 1-2.02 3.4c-1.3 2.08-3.08 4.37-3.08 4.37-2.28 2.95-4.82 7.37-6.21 9.8-3.42 5.97-5.12 8.94-6.5 13.04-1.2 3.54-2 7.28-2.86 7.2-.37-.04-.6-.75-.75-1.32.25-4.15.9-7.47 1.46-9.76 2.4-9.82 7.28-17.68 10.77-23.31a.4.4 0 0 0 .04-.07c2.8-4.46 7.02-7.02 11.73-8.43Zm90.63-83.23c1.52-.7 2.84-1.12 4.52-1.18 1.43-.05 2.25-.07 3.03.42 3 1.9 1.45 9.07 1.26 9.97-.13.57-.24.95-.45 1.7-1.48 5.12-3.66 9.63-4.06 9.49-.24-.08.51-1.8.81-4.89.22-2.25.77-7.81-1.62-8.95-1.16-.56-3.24-.2-4.65.67l-.23.14c-2.67 1.74-3.84 5.56-3.24 9.77-2.53 2.18-5.24 2.69-6.5 1.63-.25-.21-.66-.67-.81-1.63a16.73 16.73 0 0 1-.34-5.8 11 11 0 0 1 1.42-3.81 12.54 12.54 0 0 1 3.8-3.86c.83-.58 1.89-1.16 4.07-2.24 1.23-.6 2.26-1.1 2.99-1.43Zm-113.05-.59a7.08 7.08 0 0 1 4.68-.16c.78.1 1.9.29 3.25.54 2.4.42 3.58.68 4.53 1 1.3.44 4.27 1.45 5.97 3 1.62 1.5 3.1 7.42 3.24 7.74.7 1.54-4.08 6.9-4.06 7.74-.06-.01-.21-.28-.43-.71-3.09-6.17-7.71-17.33-13.53-13.6-1.4.89-1.87 3.13-1.62 4.88.57 3.93 4.9 5.85 4.48 6.58-.3.51-2.86.16-4.84-1.42-2.58-2.07-3.21-5.54-4.02-9.94v-.01c-.27-1.45-.4-2.65-.48-3.44.68-1.34 2.07-1.9 2.83-2.2Zm36.71 182.71c-.37-1.2-.91-2.9-1.66-4.92-.73-1.95-2.66-7.15-5.4-11.61-3.7-6.03-10.31-13.77-13.01-12.5-.54.25-1.15.98-1.28 3.2a27.32 27.32 0 0 1-3.47-4.25c-.62-.94-.85-1.42-1.54-2.32a18.89 18.89 0 0 0-3.1-3.1c-3.29-2.72-4.94-4.09-5.78-4.64-2.96-1.93-4.52-1.6-11.08-3.2-4.29-1.05-9.89-2.3-15.94-5.3-3.96-1.97-6.37-3.74-6.83-3.21-.65.75 2.75 5.8 7.33 9.29 9.9 7.53 21.68 7.07 21.61 8.13-.02.46-2.3.95-11.58 1.16a15.83 15.83 0 0 0 5.02 4.64c6.64 3.81 14.83 1.48 15.05 2.71.13.7-2.57 1.08-4.63 3.87-.6.82-2.2 2.99-1.54 4.64 1.01 2.57 7.16 3.15 11.55 2.37 1.69-.3 3.68-.9 3.89-.44.26.59-2.79 1.83-2.7 3.49.04.96 1.15 1.81 4.24 3.09 5.94 2.45 10.84 2.98 10.8 3.48-.02.42-3.35.22-3.47.78-.1.6 3.5 1.97 13.52 4.64Z" fill="var(--blue-light-3,#A9BAFF)"/><path d="M168.43 90.03c.28-.56.24-.84.14-1-.24-.38-1-.16-1.56-.65-.32-.28-.5-.5-.64-.83-.19-.41-.14-.9.14-1.26.15-.2.33-.41.54-.62 0 0 .17-.16.36-.3.37-.3 1.62-.86 3.39-1.34-.07.77-.1 1.9 0 3.25.14 1.89.48 2.86 0 3.26-.29.24-.9.3-2.37-.51Z" fill="var(--blue-light-3,#A9BAFF)"/><path d="M160.73 227.9c-.03-.48-.07-.94-.08-1.4-.07-1.86-.52-3.6-.96-5.36a29.44 29.44 0 0 0-2.76-7.68c-.12-.22-.22-.45-.34-.69a31.14 31.14 0 0 0-5.86-8.14l-.23-.25a34.62 34.62 0 0 0-9.21-6.92 35.43 35.43 0 0 0-12.94-3.95c-2.96-.31-5.91-.2-8.83.29-4.2.72-8.15 2.18-11.88 4.34a36.75 36.75 0 0 0-6.5 4.76c-5.28 4.93-7.6 10.31-9.12 13.88a99.53 99.53 0 0 0-3.42 11.43 42.6 42.6 0 0 1 1.6 1.85l.2-1.05c.68-3.32 2.29-10.32 4.34-14.54a35.23 35.23 0 0 1 3.7-6.06 33.61 33.61 0 0 1 8.7-8 31.88 31.88 0 0 1 5.33-2.66h.03c.93-.38 5.58-2.25 6-1.5.18.31-.44.9-1.48 1.87-.75.71-1.71 1.62-2.76 2.78-.72.8-1.2 1.4-4.63 6.58-3.37 5.07-4.17 5.76-8.27 13.05-.75 1.35-1.48 2.71-1.78 3.28-1.59 3.14-4.09 10.4-1.06 25.5 0 .82.81 1.63.93 1.87l.3.14a47.95 47.95 0 0 0 9.06 6.87c.46.28.92.57 1.4.83 1.65.9 3.4 1.56 5.17 2.22a34.12 34.12 0 0 0 8.43 1.76c.23-.55.17-1-.03-1.52l-1.55-.31s-10.72-2.34-19.63-9.91a28.48 28.48 0 0 1-4.08-16.55s.3-4.31 2.41-9.78l.12-.3a33.8 33.8 0 0 1 2.05-4.26c1.37-2.18 1.84-2.84 4.14-6.17l.63-.9c1.13-1.65 1.86-2.76 2.5-3.72.9-1.4 1.61-2.47 3.04-4.39a46.92 46.92 0 0 1 2.77-3.53l.32-.36c1.6-1.8 4.76-5.4 8.18-5.45 2.78-.04 4.9 2.25 6.33 3.84 11.58 12.84 17.36 19.28 19.5 26.06.88 2.8 3.78 12 .8 19.25-1.44 3.52-3.85 6.19-3.85 6.19-1.7 1.86-3.22 2.85-5.4 4.25a41.13 41.13 0 0 1-11.7 5.2c-1.69.45-3.1.7-4.14.86l-.04.25a4.7 4.7 0 0 0-.07.49l-.02.14c-.02.19-.06.38.11.52l.06.04.08.03c5.05-.32 9.8-1.75 14.13-4.29 3.44-2.01 6.78-4.2 9.64-7.13 3.68-3.74 6.77-7.81 8.84-12.64a25.06 25.06 0 0 0 1.85-8.6c.04-.78-.02-1.6-.07-2.42Zm-2 3.17a24.6 24.6 0 0 1-1.35 6.33c-.66 1.87-1.6 3.6-2.67 5.26-.18.28-.38.57-.75.66 1-4.35.86-7.95.6-10.26a32.53 32.53 0 0 0-4.06-12.21c-1.1-2.04-2.62-4.07-5.68-8.14-2.65-3.53-4.18-5.57-6.5-8.15-2.16-2.4-4.25-4.43-5.82-5.96-1.81-1.76-2.96-2.87-2.75-3.13.07-.1.27-.04.4 0 .02 0 .03 0 .05.02 7.7 1.6 12.5 4.75 12.5 4.75.66.43 1.32.91 2 1.4a37.3 37.3 0 0 1 11.94 16.32l.01.05c1.08 3.55 1.9 6.22 2.09 9.78.09 1.71 0 2.97-.02 3.28Z" fill="#181B2B"/><path d="M137.98 49.7c-.79-.28-1.58-.54-2.37-.8h-.01l-.04-.01c-2.3-.76-4.6-1.53-6.97-2.3-.58 5-1.43 9.9-2.7 14.98.6-.41 11.9-11.56 12.09-11.88Zm-90.9 57.27.37-.22-1.12-.38c-.75-.26-1.48-.51-2.24-.74-1-.3-2-.53-3.01-.77l-1.6-.37a34 34 0 0 0-10.4-1c-2.11.14-4.16.54-6.21 1.07-2.2.56-4.33 1.28-6.4 2.23-.45.2-.7.5-.76.96-.04.32-.1.64-.17.96-.16.75-.31 1.53-.15 2.36l.06-.03 1.1-.58c3.1-1.5 6.2-3.02 9.57-3.77 7-1.57 14-1.57 20.96.28Zm-2.04 4.96h1.08l-.14-.1c-.1-.1-.22-.18-.33-.22a37.65 37.65 0 0 0-8.9-1.57c-1.96-.06-3.96.07-5.86.7a27.23 27.23 0 0 0-6.9 3.5c-.93.65-1.66 1.42-1.48 2.75.06.36.07.74.08 1.12.02.46.04.93.12 1.42a45.93 45.93 0 0 1 4.27-3.56 18.6 18.6 0 0 1 6.85-3.39c3.7-.9 7.4-1.5 11.21-.65Zm80.01-51.49c-.04-4.18 0-8.32.11-12.69l-4.8 2.93-1.1.67c2.07 2.9 3.85 5.86 5.64 8.85l.15.24ZM43.5 116.8c-3.92-.23-7.29 1.08-10.32 3.5-.9.72-1.1 1.52-.86 2.54.05.2.12.4.2.66l.05.16.03.06.02.07c4.14-4.82 9.36-6.68 15.44-6.39-1.2-.43-2.46-.49-3.7-.54l-.86-.05Z" fill="var(--black,#2F354D)"/><path d="m113.42 96.6.06-.43.01-.13.2-1.53c.16-1.29.3-2.44.51-3.77a153.4 153.4 0 0 1 2.86-13.92l2.2-.42-4.18 24.56-.12.01c-.6.06-1.12.11-1.73-.1-.18-1.41 0-2.85.19-4.28Zm-3.9 10.9a10.9 10.9 0 0 0 4.24 4.51l.53-.25c.35-.17.67-.32.98-.49a10.94 10.94 0 0 0 4.14-3.96c.64-1.08.3-1.8-.85-2.15-2.18-.65-4.4-.6-6.6-.55-.63.02-1.24.03-1.87.03-.83 0-1.31.8-1.08 1.66a6 6 0 0 0 .51 1.2Zm-2.22 22.16c.66-.35.83-1.01 1.03-1.84.12-.5.26-1.06.52-1.65.74-1.64 2.5-3.6 4.3-3.53 2.11.07 3.7 2.96 3.8 3.15.3.55.49 1.1.65 1.59.31.88.55 1.6 1.29 1.9.1.04.8.3 1.16 0 .83-.7-.5-3.8-2.05-5.79a7.49 7.49 0 0 0-2-1.86 5.88 5.88 0 0 0-2.59-.91 5.93 5.93 0 0 0-3.78 1.2c-3.28 2.2-4.9 6.78-3.87 7.74.38.34 1.1.22 1.54 0Zm-3.26.14c.56.19.96-.11.93-.7-.05-.84-.5-1.3-1.52-1.54-.62 1.26-.46 1.88.6 2.24Zm18.31 0c.98-.3 1.37-.98 1.46-1.9-.58-.74-1.18-.68-1.8-.06.07.24.04.48 0 .73-.05.44-.1.87.34 1.22Zm40.33-43.63a11.7 11.7 0 0 0 5.73 3.86c.88-.2.47-.65.15-1-.23-.26-.47-.35-.72-.44l-.39-.17a3.03 3.03 0 0 1-1.01-.92c.28-.66.63-1.05.89-1.29.48-.45.97-.62 1.66-.86.4-.14.85-.3 1.4-.55.63-.27 1.12-.54 1.42-.7-.3-.19-.62-.35-.98-.48-2.38-.85-4.71.3-5.5.73l-.45.35-.47.35c1.23-2.76 3.57-4.42 6.07-5.92l.1-.2.1-.22a12.55 12.55 0 0 0-7 3.17c-.3-.7-.68-1.87-.56-3.28.16-1.92 1.13-3.2 2.08-4.44 1.67-2.18 3.68-3.43 4.71-4.07l.33-.2c.37-.24.73-.42 1.2-.65.5-.24 1.1-.54 1.94-1 1.22-.7 2.2-1.32 2.86-1.73-.86.05-1.7.18-2.5.46-2.4.82-4.3 1.77-5.63 2.53-3 1.73-4.14 3.06-4.56 3.6a12.13 12.13 0 0 0-1.72 2.9c-.37.91-1.42 3.56-.66 6.77.19.8.6 2.05 1.51 3.4ZM83.32 83.4c.64-.87 1.06-1.72 1.34-2.41.5-1.55.54-2.87.49-3.7a10.96 10.96 0 0 0-2.54-6.3 11.9 11.9 0 0 0-2.48-2.3c-.55-.38-2.02-1.33-5.38-2.14-1.7-.43-4.23-.88-7.36-.88l-1.24.29c.74.22 1.85.53 3.22.84.92.21 1.58.32 2.11.4.53.1.94.16 1.37.3l.39.1c1.17.32 3.45.94 5.65 2.56l.02.02c1.25.92 2.54 1.86 3.23 3.65a6.9 6.9 0 0 1 .39 3.3 12.43 12.43 0 0 0-7.61-1.03l.1.1.04.06.1.1.05.08c2.82.73 5.53 1.64 7.49 3.96l-1.1-.4c-.86-.2-3.42-.64-5.46.85-.31.22-.58.47-.82.73a15.53 15.53 0 0 0 3.07.41c.72.04 1.23.07 1.83.36.32.15.76.44 1.22.99-.2.58-.49.94-.72 1.16-.1.1-.22.19-.32.27-.21.16-.42.32-.57.63-.08.17-.17.35-.2.51-.08.57.88.25 1.34-.1.73-.56 1.58-1.34 2.35-2.41Zm57.44 33.4c6.43 0 11.64-5.22 11.64-11.67 0-6.44-5.21-11.67-11.64-11.67a11.65 11.65 0 0 0-11.63 11.67c0 6.45 5.2 11.67 11.63 11.67Zm-36.25-14.36c0-6.45-5.21-11.67-11.64-11.67a11.65 11.65 0 0 0-11.63 11.67 11.65 11.65 0 1 0 23.28 0Z" fill="#181B2B"/><path d="M94.78 94.56c.47.76.5 1.93 0 2.71-.66 1.03-1.69.56-3.25 1.63-1.55 1.06-1.3 2.05-2.7 2.71-.95.46-2.48.7-3.26 0-1.32-1.2-.54-5.32 2.03-7.2 2.31-1.68 6.09-1.57 7.18.15Zm47.57 2.64c.48.75.5 1.92 0 2.7-.65 1.03-1.68.56-3.24 1.63-1.55 1.06-1.3 2.04-2.7 2.72-.95.45-2.48.69-3.26 0-1.33-1.2-.54-5.33 2.03-7.2 2.32-1.69 6.09-1.58 7.17.14Z" fill="#fff"/><path d="M157.8 116.1c-.56-.09-1-.07-1.3-.02l-.8.15c-.67.13-.73.14-.84.13-.42-.02-.43-.17-.93-.26-.26-.05-.35-.02-1.05 0h-.98c.23-.85.2-1.45.13-1.86l-.18-.83c-.13-.57-.09-.7-.17-1.23-.13-.79-.3-.76-.43-1.41-.15-.8-.2-1.12-.26-2.07-.03-.4 0-.58.26-.78 2.3 3 4.26 5.2 6.54 8.19Z" fill="var(--blue-light-1,#ECF0FE)"/><path d="m153.89 122.24-7.7-.95a161.99 161.99 0 0 0 6.74-6.32l.96 7.27Z" fill="var(--blue-light-1,#ECF0FE)"/><path d="m146.19 121.29 4.76-13.96c.65 2.55 1.32 5.1 1.98 7.64a139.23 139.23 0 0 1-6.74 6.32Z" fill="#fff"/><path d="M153.89 122.24a11.92 11.92 0 0 1-.97-7.27l4.6 1.11a53.06 53.06 0 0 1-3.63 6.16Z" fill="var(--blue-light-3,#A9BAFF)"/><path d="M156.27 126.88c-2.63-1.63-5.56-3.2-8.18-4.83 2.05.24 4.42.4 6.47.65.6-.23.94-.1 1.1-.03.83.42 1.2 2.14.6 4.21Z" fill="#fff"/><path d="M154.57 122.7c.19.1.42.26.54.56.14.38-.04.64.05 1.1.08.4.3.52.56.9.2.32.45.82.56 1.63l1.2-10.65c-.98 2.15-1.94 4.3-2.91 6.46Z" fill="var(--blue-light-3,#A9BAFF)"/><path d="M145.62 121.48h8.12l3.94-5.67.94-.84c-.89 6.8-1.77 13.82-1.63 13.84l.1-.05-.1.05c-.12.06-3.55-2.14-11.37-7.33Zm8.92 1.44-5.96-.67a79.92 79.92 0 0 1 7.09 4.08c.22.14.5.01.55-.25l.1-.69c.12-.89.22-1.78.27-2.66.05-.83.17-2.1.47-4.07l-2.52 4.26Z" fill="#181B2B"/><path d="M150.88 107.15c0-.02.04-.12.13-.19.15-.1.36-.08.5.1l.56.68c.19.47 1.9 2.44 6.54 7.22-.1.25-.26.6-.48 1 0 0-.5 1-1.12 1.9-1.51 2.21-2.94 4.03-5.14 4.32-.27.03-.13.42-3.16 0-1.36-.19-2.08-.27-3.03-.63a8.28 8.28 0 0 1-1.68-.9l4.06-7.32c1.59-3.44 2.72-5.9 2.81-6.18Zm-4.25 13.43c-.08.23.05.49.29.54a53.46 53.46 0 0 0 6.77 1.1c.13.01.25-.05.32-.16.83-1.21 1.43-2.2 1.84-2.9l.22-.37c.58-1 1.03-1.84 1.35-2.48a.4.4 0 0 0-.06-.44 273.96 273.96 0 0 1-5.83-7.56c-.2-.26-.58-.2-.66.11-1.1 4.14-2.68 8.1-4.24 12.16Z" fill="#181B2B"/><path d="M84.96 117.44a6.2 6.2 0 0 0-1.58-.9c-.07-.04-.06-.03-1.1-.4-.94-.33-1-.37-1.15-.45-.14-.08-.24-.17-.28-.2l-.02-.02a46 46 0 0 0-4.24-1.32 23.06 23.06 0 0 0 2.46-2.68l.13-.32.22-.69c.23-.7.4-.8.65-1.42.39-.92.16-1 .45-1.8.36-.94.79-1.04 1.39-2.1.24-.42-.18-.78 0-1.66.78 4.75 2.29 9.2 3.07 13.96Z" fill="var(--blue-light-1,#ECF0FE)"/><path d="M75.81 121.25a31.08 31.08 0 0 1-8.97-7.92h4.88c1.97 0 3.94.02 5.9.03-.09.93-.14 1.64-.18 2.11 0 0-.1 1.13-.27 1.93-.2.92-.42.9-.47 1.6-.04.6.12.84-.04 1.27-.18.46-.55.78-.85.98Z" fill="var(--blue-light-1,#ECF0FE)"/><path d="M66.04 113.34a319.84 319.84 0 0 0 15.86-9.87 14.83 14.83 0 0 1-4.5 10.68l-11.36-.81Z" fill="#fff"/><path d="m75.81 121.25 1.6-7.1c1.1.65 2.48.52 3.71 1.15 1.52.8 3 1.48 4.4 2.11a173.73 173.73 0 0 0-9.7 3.84Z" fill="var(--blue-light-3,#A9BAFF)"/><path d="m75.42 127.66-7.2-11.4 8 5.46c.94.17 1.3.56 1.46.78.76 1.07-.01 3.27-2.26 5.16Z" fill="#fff"/><path d="M76.28 121.74c.17.23.35.57.29.96-.08.5-.49.65-.68 1.2-.18.49 0 .76.05 1.34.04.48 0 1.2-.44 2.12a69.14 69.14 0 0 0 9.21-9.95 36.13 36.13 0 0 1-8.43 4.33Z" fill="var(--blue-light-3,#A9BAFF)"/><path d="M65.38 113.82c3.4 2.37 7 4.96 10.4 7.33 3.3-1.45 6.6-2.57 9.9-4.02l-10.71 12.5c-1.5-2.7-3.12-5.49-4.9-8.34-1.5-2.41-3.2-5.28-4.7-7.47Zm18.52 4.4-8.12 4.89-7.3-6.51 7.3 9.77c.67-.54 1.63-1.4 2.62-2.67.2-.26.33-.44.39-.5.66-.9 2.03-2.38 5.11-4.98Z" fill="#181B2B"/><path d="m81.81 102.51.62.28 3.9 14.61c-1.35.47-4.3 1.48-6.01 2.28l-.89.42c-1.25.6-1.65.82-2.59 1.25l-.95.43a.39.39 0 0 1-.37-.03c-.73-.5-1.6-1.1-2.57-1.8-1.16-.85-2.31-1.72-3.46-2.58-1.32-1-2.7-2.39-5.33-4.03 6.07-3.6 11.58-7.22 17.65-10.83Zm-14.15 10.83 8.12 7.33a28.71 28.71 0 0 0 8.8-3.74l-3.11-12.55-4.07 2.45-9.74 6.5Zm18.94 74s-.35.26-.7.55c-3.35 2.7-6.47 6.68-6.47 6.68-2.2 2.79-4.7 6.5-4.46 6.7.34.26 4.89-7.39 13.86-12.84a39.86 39.86 0 0 1 7.25-3.45H90.4c-1 .5-2.33 1.26-3.8 2.36Zm72.1-3.26c1.06.72 2.02 1.61 2.99 2.5l1.18 1.07c.23.2.45.43.68.65a7 7 0 0 0 1.82 1.44c-1.23-2.73-8.46-9.68-12.69-12-.3.44-1.32 1.2-1.62 1.62 1.62.82 6.02 3.62 7.64 4.72Z" fill="#181B2B"/><path d="m194.53 226.52-.6-4.75s-.7-4.23-2.21-8.67c-.3-.86-.62-1.71-.62-1.71a60.08 60.08 0 0 0-6.76-12.83 76.26 76.26 0 0 0-8.12-9.85c-1.77-1.83-3.65-3.83-6.48-6.17a64.1 64.1 0 0 0-12.75-8.13l-.8.82-.82 1.63a52.47 52.47 0 0 1 10.56 5.7 55.67 55.67 0 0 1 8.91 7.87c3.12 3.28 8.56 9.11 12.79 18.24a54.36 54.36 0 0 1 4.56 14.18c2.37 13.82-2.5 26.3-3.77 29.47-2.65 6.6-7.8 16.44-17.62 24.68a66.9 66.9 0 0 1-16.47 9.96 74.4 74.4 0 0 1-18.45 5.5c-6.22.98-11.2.93-13.8.82 0 0-9.74-.39-18.94-3.35-.04-.01-.52-.18-1.18-.37-.47-.13-1-.29-1.59-.48l-.08-.02a52.7 52.7 0 0 1-8.53-3.55 44.35 44.35 0 0 1-7.2-4.87 88.5 88.5 0 0 1-6.23-5.63 67.98 67.98 0 0 1-8-9c-2.56-3.48-4.15-6.4-5.3-8.52l-.02-.01a73.45 73.45 0 0 1-3.55-7.28c-.4-1-2.48-7.17-2.94-8.7-.98-.5-1.94-1.03-2.88-1.58 2.49 10.18 9.02 22.12 12.37 26.73 2.66 3.67 6.93 9.47 14.35 15.09a67.12 67.12 0 0 0 26.6 11.96c1.45.32 5.02.88 9.67 1.48 8.69 1.13 18.25-.57 20.07-.91 5.45-1.01 9.4-2.45 11.85-3.33 2.57-.93 10.79-3.98 18.2-9.2 19.57-13.83 24.64-36.7 25.8-47.05l-.02-8.17ZM76.68 186.83c-.14.14-1.18 1.21-2.56 2.66l-1 1.05c-.2.22-2.38 2.64-4.23 5.03-2.91 3.75-6.06 9.36-7.57 12.1.77.33 1.52.66 2.27 1.03 1.7-3.38 6.4-12.2 10.96-17.53 2.27-2.65 4.55-4.49 5.92-5.63a66.36 66.36 0 0 1 5.06-3.8l-.82-1.63c-.62.47-5.95 4.62-8.03 6.72Z" fill="#181B2B"/><path d="M214.52 194.15a52.17 52.17 0 0 0-3.02-9.92c-.84-2-1.8-3.95-2.76-5.9-.46-.92-.92-1.84-1.36-2.76a27.59 27.59 0 0 1-2.28-7.25c-.36-2.06-.4-4.22-.24-6.35.05-.62.01-1.25-.02-1.88-.02-.5-.05-1-.03-1.48.06-1.9 0-3.71-1.37-5.32l.61-1.7c.37-1 .74-2.03 1.05-3.08.12-.41.25-.82.4-1.23.33-1.01.67-2.03.82-3.11.1-.77.24-1.53.37-2.3l.33-2.01c.2-1.38.23-2.07.23-2.65-.04-1.9-.36-4.92-2.38-5.85-1.1-.52-2.37-.16-4.36.4l-.87.25a51.8 51.8 0 0 0-12.32 5.14 32.72 32.72 0 0 0-7.26 5.92 20.71 20.71 0 0 0-2.85 3.83c-1.52-2-3.2-3.6-5.08-4.99 2.67-3.04 4.7-6.12 1.75-10.01a22.71 22.71 0 0 0 4.48-5.48c1.22-2.1 3.35-5.73 2.89-10.44a14.55 14.55 0 0 0-2.2-6.32l-1.12-1.84.16-.1.09-.06.06-.04.13-.09c.3-.2.63-.4.95-.59a13.66 13.66 0 0 0 3.67-3.2c.33-.41 1.71-2.15 2.37-4.76.45-1.8.33-3.09.23-4.34-.13-1.44-.25-2.81.48-4.8.13-.36.2-.46.31-.67a50.03 50.03 0 0 0 3.83-10.03 31.31 31.31 0 0 0 1.29-8c.02-1.61-.12-2.61-.15-2.84-.31-2.14-.72-4.81-2.44-6.37-.57-.51-1.64-1.25-8.81-.99-4.14.15-6.2.22-8.34.68a31.54 31.54 0 0 0-10.59 4.3 29.23 29.23 0 0 0-6.96 6.47l-1.96-.97c-1.5-.75-2.99-1.5-4.52-2.17-3.18-1.38-4.79-2.03-6.64-2.38-.79-.14-1.6-.26-2.33-.36-1.45-.2-2.58-.34-2.6-.69 0-.12.13-.23.25-.32.16-.13.34-.25.51-.37.5-.36 1.02-.72 1.28-1.34.34-.83.25-1.36-.44-1.93a2.78 2.78 0 0 0-1.4-.7h-.02c-.85-.1-1.7-.2-2.58-.1-2.96.32-5.6 1.37-7.83 3.35-.4.35-.79.67-1.4.78-.5-.85-1.22-2.02-2.17-3.35a25.35 25.35 0 0 0-4.45-5.07 14.46 14.46 0 0 0-4.9-2.74 4.83 4.83 0 0 0-3.4.25c-1.3.53-1.65 1.82-1.91 3.1-.24 1.15-.02 2.24.2 3.38l.2 1c-.61-.3-1.28-.47-1.95-.55-1.18-.17-2.55-.01-3.61.22a18.66 18.66 0 0 0-5.01 1.78c-2.5 1.4-3.7 2.86-4.61 3.96-.85 1-1.43 1.7-2.54 1.78-1.16.08-1.76-.63-2.8-1.83-.88-1.02-2.05-2.4-4.14-3.98a28.96 28.96 0 0 0-15.61-5.62c-7.91-.45-11.87-.67-13.34.97-.85.95-1.08 2.3-1.54 5.03a26.5 26.5 0 0 0-.27 5.75l.01.3c0 .43 0 1.04.16 1.72a51.6 51.6 0 0 0 1.79 6.4l.5 1.48c.83 2.42 1.65 4.85 2.94 7.1.26.44.31.98.2 1.55-.2.93-.35 1.9-.33 2.84.05 2.57.73 5.03 1.82 7.34.6 1.25 1.42 2.35 2.42 3.37.45.46.95.83 1.45 1.2.45.32.88.65 1.28 1.03a13.43 13.43 0 0 0-4.92 4.54 19.76 19.76 0 0 0-2.48 5.46c-.41 1.54-.9 3.37-.6 5.7.31 2.52 1.51 4.49 3.3 7.08 1.01 1.5 2.65 3.6 5.07 5.74a8.92 8.92 0 0 0-1.38 2.93c-.67 2.86.5 5.03 2.7 6.66l.61.46a26.58 26.58 0 0 0 4.86 3.1c.59.25 1.28.55 1.5 1.34-1.62.58-2.75 1.3-3.41 1.77-3.71 2.66-5.27 6.6-8.13 14.14l-.02.03c-.17.46-.66 1.75-1.23 3.45a99.86 99.86 0 0 0-2.43 8.34c-.32 1.32-.5 2.23-.73 3.39l-.07.34-.04.22c-.8 3.92-1.45 6.85-2.17 10.11-.57 2.54-1.18 5.29-1.94 8.87l-.15.91c-.16.99-.4 2.48-.86 4.25-.06.2-.54 1.89-.58 2.1.72.12 1.66.42 2.36.58.1-.9.39-2.87.9-5.2.24-1.1.6-2.66 1.08-4.93a841.66 841.66 0 0 0 2.81-13.44c1.3-6.45 2.16-10.68 3.87-16.07 0 0 3.1-9.77 8.12-14.66.85-.82 2.72-2.65 5.16-2.7h.02c.66-.02 1.52-.04 2.48.23.48.13.97.2 1.49.29.58.09 1.2.18 1.87.36.78.22 1.8.54 2.92 1.04-.43.93-1.04 2.18-1.84 3.61-1.12 2-2.02 3.3-3.73 5.84l-2.06 3.06a153.28 153.28 0 0 0-8.1 13.16c-1.45 2.62-3.67 6.86-3.48 6.96.1.05.75-.96 2.66-3.9.71-1.12 1.62-2.51 2.74-4.22 3.2-4.9 3.98-6.03 5.01-7.36a58.93 58.93 0 0 1 5.2-5.83 36.51 36.51 0 0 0 .12 11.54 20.53 20.53 0 0 0 2.91 7.96l1.16 1.67c.3.23.58.47.87.71.93.78 1.89 1.58 3.27 2.09 2.16.95 3.55.82 4.33.62.38-.1.58-.18 1.79-.55.9-.27 1.56-.46 2.01-.7.47-.23.8-.52 1.16-.81.31-.27.64-.55 1.06-.79l.05-.02c.73-.42 1.48-.84 2.39-.37.24.13.57.19.84.16 2.16-.26 4.17-.92 6.06-2.04a7.3 7.3 0 0 0 3.4-4.22c.03-.13.05-.26.17-.34.59-.32 1.01-.83 1.44-1.34.3-.35.59-.7.94-1 .5.32.97.66 1.45.99.92.65 1.83 1.3 2.83 1.78.13.05.22.2.29.32.9 1.82 1.27 1.69 1.8 2.18.16.14.7.5 1.8 1.22.5.32 1 .64 1.13.74 2.11 1.44 4.53 1.74 6.94 1.56a8.12 8.12 0 0 0 3.46-1.16c1.3-.8 1.96-.57 2.59-.62 1.08-.1 1.69.09 2.99.27.9.14 2.21.29 3.85.33h.01a19.6 19.6 0 0 0 4.2-.7c1.42-.4 3.28-.93 5.13-2.35.7-.54 3.65-2.82 3.06-4.49-.39-1.12-2.3-1.86-3.03-1.37-.17.12-.24.3-.3.46-.53 1.54-2.8 4.08-4.6 5.3a8.96 8.96 0 0 1-5 1.72c-1.15.01-3.38.04-4.75-1.62-1.17-1.44-1.29-3.6-.43-5.56a5.83 5.83 0 0 0-1.83 1.85c-.3.52-.67 1.34-.76 1.56l-.34.85c-.13.31-.56 1.4-1.34 2.12-1.44 1.37-3.76 1.19-4.73 1.19l-.13-.01a7.97 7.97 0 0 1-3.43-1.13 37.09 37.09 0 0 1-2.98-1.96c-1.27-.92-1.62-2.28-1.58-3.77.01-.37.09-.74.17-1.1.13-.62.26-1.24.06-1.88l-1.83 3.77c-.55-.44-1.1-.86-1.65-1.28a30.38 30.38 0 0 1-2.27-1.8c-1.43-1.28-1.08-3.67-.2-4.92l.15-.2a37.8 37.8 0 0 1 1.89-2.56c1.8-2.22 3.13-3.86 5.3-5.28 2.5-1.63 5.09-2.32 7.04-2.83l1.42-.33s6.1-1.45 9.63-1.94c.45-.07.9-.1.9-.1.65-.03 2.9-.15 5.78.4 1.51.3 2.62.67 3.64 1l.07.03c.93.32 3.56 1.38 6.57 2.96 4.36 2.29 7.94 5.52 11.28 9.12l1.65 1.77a412 412 0 0 1 6.27 6.85l2.1 2.3a79.99 79.99 0 0 1 3.4 3.82.2.2 0 0 1 .12-.01 65.03 65.03 0 0 0-9.74-13.49l-.37-.48c-.48-.59-.97-1.1-1.44-1.53l-.04-.05a43.4 43.4 0 0 0-4.6-4.98 35.35 35.35 0 0 0-17.2-9.27 60.4 60.4 0 0 0 11.38-4.06c5.23-2.5 7.73-4.66 10.18-3.52 2.01.95 4.27 4.22 4.92 5.25.3.49.63.96.96 1.43.36.52.71 1.04 1.05 1.59.77 1.25 1.3 2.61 1.83 3.97l.36.91c.56 1.4 1.18 2.75 1.81 4.1.46 1.02.93 2.03 1.36 3.05.86 1.99 1.69 4 2.5 6.02l.08.21c.5 1.23 1.74 4.38 3.8 9.98 2.55 6.98 3.85 10.55 4.81 14.25l.07.25.06.21c.43 1.64.89 3.4 1.26 5.77l.04.25a31.04 31.04 0 0 1-2.6 22.79 5.47 5.47 0 0 0 .81 3.26c.75-1.53 5.12-10.5 4.87-18.72-.14-4.87-1.98-12.25-2.09-12.65l-.2-.73-.34-1.11c-2.87-9.07-4.31-13.6-6.28-18.01l-.55-1.19c-.87-1.9-1.8-3.92-2.74-6.79l-.1-.28a64.49 64.49 0 0 0-2.5-6.56l-.76-1.8-.41-1a83.94 83.94 0 0 0-2.09-4.88c-.42-.68-.83-1.25-1.19-1.76-1.04-1.5-1.35-2.38-1.33-3.3.04-1.56 1.31-2.79 2.96-4.4.22-.22.45-.41.88-.81a36.27 36.27 0 0 1 10.18-6.99c2.14-.97 10.13-4.58 12.28-2.08.5.58.39 2.06.17 5.05-.14 1.97-.51 3.91-.89 5.86l-.07.37c-.18.92-.44 1.83-.7 2.73-.04.15-.1.3-.13.44a6.4 6.4 0 0 0-.09.28c-.4 1.41-2.33 4.08-2.33 4.08-.14.18-.15.2-.18.26-.47.87-.04 1.84.52 3.1.2.47.44.98.64 1.54.3.83.34 1.19.53 2.77l.4 3.04.43 3.26c.47 3.54.72 5.57 1.21 6.82a105.9 105.9 0 0 0 2.16 5.04c.4.9.81 1.8 1.2 2.71l1.34 2.98 1.12 2.48a35.97 35.97 0 0 1 1.72 5.33c.18.7.36 1.4.57 2.08.27.98.36 2.02.45 3.04l.1.93c.03.34.02.68.02 1.03-.01.34-.02.66.01.99a20.9 20.9 0 0 1-.27 4.82c-.05.28-.08.58-.12.86-.19 1.53-.62 3-1.06 4.46l-.24.83a34 34 0 0 1-2.1 5.13c-4.37 8.59-11.5 13.32-15.81 15.64a3.82 3.82 0 0 0 .81 3.25c8.93-6.33 14.17-13.19 16.08-16.83a69.79 69.79 0 0 0 3.53-9c.24-.8.4-1.59.4-1.59l.14-.73c.08-.46.16-.91.26-1.37.36-1.57.62-3.2.58-4.8a49.32 49.32 0 0 0-.82-6.99Zm-98.3-31.77c-.4.84-1.1 1.54-1.2 1.65-.15.15-.36.37-.69.61-.76.59-1 .5-1.2.85a8.6 8.6 0 0 0 .02 1.55c.01.29 0 .64-.05 1.08-.05.33-.06.25-.14.76-.17 1.11-.21 1.97-.24 2.65-.06 1.1-.1 1.77-.66 2.33l-.1.11a5.61 5.61 0 0 0-1.39 2.1c-.35.9-.84 1.65-1.44 2.24-.87.84-1.77 1.18-3.34 1.64h-.03c-1.37.42-3.25.96-4.12.08a1.58 1.58 0 0 1-.28-.4c-1.05-2.09-4.21-5.25-4.47-5.06-.05.04.08.2.28.48.5.67 1.5 2 1.49 3.7a5.74 5.74 0 0 1-3.69 5.1c-2.04.73-3.92-.06-4.68-.39-3.02-1.28-4.42-4.02-5.35-5.86-1.53-3.02-1.99-5.7-2.22-9.28l-.08-1.14a28.46 28.46 0 0 1-.07-4.7c.25-2.7.98-4.68 1.67-6.57l.03-.06c.56-1.57 1.34-3.4 2.42-5.37l15.89 3.57c9.6 2.04 12.35 2.97 12.75 3.44l.77.9.34.5.12.17.03.04c.1.56.28 1.95-.37 3.28Zm54.03-23.24a19.71 19.71 0 0 1-7.1 4.75c-.99.58-2.05.98-3.1 1.37-.52.2-1.05.38-1.56.6-1.8.75-3.7 1.37-5.58 1.94-1.28.38-2.54.78-3.81 1.17-2.21.68-4.43 1.38-6.67 2-2.14.6-4.3 1.13-6.46 1.65l-3.09.75-4.07 1.01c-5.15 1.27-5.96 1.47-7.15 1.6-2.33.28-4.14.4-5.8-.02-1.6-.39-3.21-.76-4.82-1.14-2.57-.6-5.16-1.19-7.71-1.86-.86-.23-1.72-.43-2.6-.64-2.12-.52-4.25-1.03-6.31-1.8l-2.27-.66a199.2 199.2 0 0 1-9.6-3.12c-2.86-1-4.3-1.5-5.54-2.06a42.38 42.38 0 0 1-5.48-2.97l-.05-.03-.1-.06-.1-.08-.6-.4-.51-.5c-1.16-1.12-2.3-2.22-3-3.74-.48-1-.5-1.9.03-2.86 3.21 2.48 6.44 4.84 10.51 6.23-.48-.93-1.22-1.4-1.89-1.85l-.45-.3a46 46 0 0 1-8.97-7.97c-.63-.76-1.21-1.59-1.79-2.4-1.43-2.03-2.8-4.11-3.49-6.53-.75-2.72-.82-5.35.5-8.03l.23-.5c.64-1.3 1.29-2.63 2.2-3.67.93-1.05 2.19-1.97 3.44-2.75l.11-.07c.46-.29.68-.42.92-.66.55-.57.6-1.5-.09-1.89-.09-.06-.19-.1-.28-.15 0 0-.33-.17-.7-.43a19.1 19.1 0 0 1-5.8-6.3s-1.38-2.85-1.57-5.43c-.04-.59 0-1.17.03-1.75l.03-.62a7.74 7.74 0 0 0-.55-3.5c-1-2.24-1.86-4.54-2.56-6.9l-.7-2.34c-.45-1.47-.9-2.94-1.28-4.42-.4-1.46-.45-2.98-.4-4.5.02-.39.02-.79.03-1.18 0-.81.03-1.63.13-2.43.24-1.86.37-2.79.82-3.4 1.14-1.54 3.6-1.45 7.98-1.28 1.78.07 3.29.3 4.46.48.58.1 1.07.17 1.49.2 1.23.12 2.47.53 3.7.93l1.2.38c1.08.33 2.1.77 3.12 1.21 1.53.67 2.3.92 2.61 1.05 4.16 1.75 6.08 8.53 9.4 8.55 1.1.01 2.6-1.38 5.58-4.17 0 0 2.13-2.02 4.21-3.05.72-.36 1.48-.68 2.55-.94a9.66 9.66 0 0 1 3.48-.03c2.79.5 6.53 2.94 6.9 2.5.3-.36-1.76-2.4-2.88-5.14-.05-.13-.16-.37-.23-.7a7.32 7.32 0 0 1 .1-3.6c.29-1.06 1.13-1.62 2.18-1.36 1.45.34 2.77.95 3.96 1.89a22.75 22.75 0 0 1 5.17 5.42c.5.77.49.89 1.27 2.14 1.7 2.7 2.3 3.06 2.78 3.04.46-.03.72-.39 1.11-.83 1.73-1.9 4.03-2.93 6.43-3.77a8.94 8.94 0 0 1 4.12-.47c.45.05.73.22.78.43.17.64-2.21 1.12-2.84 2.96-.08.24-.35 1.03 0 1.63.58 1 2.2.4 4.87.81 1.47.23 3.38 1.03 7.2 2.64l1.73.75c1.18.51 2.86 1.4 4.34 2.03 1.63.7 2.44 1.05 2.97 1.08 2.78.18 3.9-4.06 7.3-7.33 4.96-4.75 12.06-4.83 17.06-4.88 3.98-.05 6.33-.08 8.1 1.62 2.56 2.41 2.74 7.2.75 12.3v.03c-.46 2.35-2.07 7.1-3.1 9.76l-.06.15-.06.16c-.28.7-.55 1.42-.91 2.08a5.2 5.2 0 0 0-.5 2.9c.06 1.21.01 2.12-.03 2.83l-.03.94c0 .22 0 3.68-1.71 6.54-1.76 2.93-4.68 4.18-6.14 4.68-4.63-2.4-6.1-2.95-6.22-2.75-.05.1.13.43 1.18 1.25 1 .77 2.5 1.94 4.12 3.79.97 1.1 1.64 2.05 2.2 3.15a11 11 0 0 1 1.23 6.62c-.17 1.33-.61 2.59-1.17 3.78a32.4 32.4 0 0 1-5.51 8.16l-.37.4a23.36 23.36 0 0 1-3.28 3.18l-2.36 1.79-1.8 1.36-.24.18-.27.2c-.8.6-1.73 1.29-2.35 2.06 1.29-.42 3-1.25 4.52-2.02a29.62 29.62 0 0 0 6.24-4.22c.68.84.55 1.78.14 2.63-.48.99-1.06 1.92-1.85 2.72Z" fill="#181B2B"/><path d="M95.34 237.77c-.92-1.98-2.13-4.16-2.13-4.16a45.17 45.17 0 0 0-6.06-8.72c-3.94-4.44-8.97-8.04-9.75-7.33-.11.1-.04 1.08.1 3.04.07.72.1 1.1-.05 1.16-.32.14-.83-.7-1.65-2.03-1.33-2.16-3.46-5.66-6.95-8.56l-.53-.43a27.51 27.51 0 0 0-7.56-4.2 35.43 35.43 0 0 0-6.52-1.86l-2.17-.56c-.31-.09-.71-.18-1.13-.29-1.81-.44-4.14-1.04-4.66-1.18h-.05l-.04-.02c-1.5-.4-4.2-1.1-7.43-2.28-3.33-1.22-6.94-3.1-6.94-3.1-.62-.3-1.12-.57-1.55-.79-1.33-.67-2.06-.9-2.3-.75-1.5.78 2.4 15.29 12.83 28.59l.38.47.02.03a8.34 8.34 0 0 0 3.31 2.22l3.82 1.53.06.02 3.87 1.56c-.45.19-1.14.46-1.98.77l-1.28.46c-1.56.55-2.44.86-2.43 1.36 0 .18.09.3.14.37 1.4 1.88 4.82 4.21 4.82 4.21a486.57 486.57 0 0 0 7.76 5.71c4.97 3.35 11.62 4.68 11.62 4.68 6.56 1.31 9.47.82 17.05 1.63 4.93.53 8.92 1.3 11.5 1.87-.3-1.47-1.73-8.28-4.12-13.42Zm2.36 9.97c-.16.25-.89 1.12-3.99.53 0 0-6.37-.7-15.5-1.34l-2.02-.13c-2.03-.1-3.63-.2-6.09-.69a42.2 42.2 0 0 1-4.28-1.07 30.96 30.96 0 0 1-5.39-2.94c-.3-.23-.9-.66-2.6-1.86A168.9 168.9 0 0 1 54.7 238a176.1 176.1 0 0 0-3.49-2.52c-2.02-1.44-2.5-1.8-2.44-2.25.13-.87 2.08-1.28 3.77-1.64 1.32-.29 2.47-.53 2.46-.93v-.03c-.03-.23-1.83-1.44-11.72-6.55-6.97-7.25-9.94-13.65-11.36-17.91-1.26-3.76-2-8-1.41-8.22.25-.09 1 .41 1.44.75l.62.5c1.5 1.13 3.45 1.79 7.34 3.1 1.52.5 3.09.91 5.8 1.61l.07.02h.01l1.17.3.3.08.14.04c7.72 2.01 9.34 2.44 11.8 3.36 2.03.75 3.68 1.37 5.4 2.32 6 3.3 9.55 8.83 11.65 12.09 1.1 1.72 1.81 2.82 2.25 2.61.44-.2.35-1.54.27-2.75-.06-1.06-.13-2.03.17-2.08.05-.01.09.01.12.03l.01.01a31.67 31.67 0 0 1 5.63 4.14c4.46 4.11 6.8 8.68 9.88 14.73.36.72.67 1.42 1.29 2.8 2.23 5.04 2.08 5.75 1.82 6.13Z" fill="#181B2B"/></svg>