<svg width="51" height="16" fill="none" xmlns="http://www.w3.org/2000/svg"><path fill-rule="evenodd" clip-rule="evenodd" d="m20.2.3-2.6 15.4h4.1L24.3.3h-4.1ZM14 .3l-4 10.6-.5-2.3v-.5A12.9 12.9 0 0 0 4 2.3l3.6 13.4h4.3L18.5.3h-4.4Zm16.2 4.3c0-1.8 4-1.6 5.8-.6l.6-3.3S34.9 0 33 0c-2.1 0-7 .9-7 5.1 0 4 5.7 4 5.7 6.2 0 2-5.1 1.7-6.8.4l-.6 3.4s1.8.9 4.7.9c2.8 0 7-1.4 7-5.3 0-4-5.7-4.4-5.7-6.1Zm17-4.3h-3.4c-1.6 0-2 1.1-2 1.1l-6.1 14.3H40l.9-2.3h5.2l.5 2.3h3.8L47.2.3Zm-5.1 10 2.1-5.8 1.3 5.8h-3.4Z" fill="#005BAC"/><path fill-rule="evenodd" clip-rule="evenodd" d="M8.8 1.7S8.6.3 6.8.3H0v.3s3.2.6 6.3 3c3 2.3 3.9 5.1 3.9 5.1l-1.4-7Z" fill="#F6AC1D"/></svg>