<?xml version="1.0" encoding="utf-8"?><svg xmlns="http://www.w3.org/2000/svg" xmlns:xlink="http://www.w3.org/1999/xlink"><symbol fill="none" viewBox="0 0 181 18" id="0"><path fill="#FD9317" d="M8.802 3.454a.7.7 0 0 0-.108-.126l-.198-.198-.198-.234a.35.35 0 0 1-.072-.18q.324 0 .414.306zm-.252.378v-.18h.072v.18zm.396.378.018-.234q0 .036.036.072t.036.072q0 .072-.126.234-.108.144-.108.18l-.108.036q.018-.018-.072-.18h.126q.036 0 .108-.09zm-.288 1.584V5.74q.018-.018.018-.036 0-.144-.162-.324-.144-.18-.288-.18-.234 0-.09-.09.144-.108.252-.108.18 0 .252.252.09.252.09.36a.24.24 0 0 1-.072.18M.846 5.65a.27.27 0 0 1 .072.198q0 .216-.144.324H.666q.036 0 .054-.072a.5.5 0 0 0 .018-.108V5.83q0-.144.108-.18m-.18 1.962q-.216 0-.216-.216v-.252q.216.108.216.468m3.168.468v.342h-.072q-.072 0-.072-.09 0-.018.018-.036V8.26q0-.036.054-.09a.4.4 0 0 0 .072-.09m7.65-5.112q-.072.144-.072.522 0 .144.018.414.036.252.036.378.036.666-.468 1.062v.126q0 .36.072.594l.108.54q.036.18-.072.36a.8.8 0 0 1-.18.252q0 .09.054.288t.054.288q0 .162-.18.288.036.216.054.414t.018.378q0 .774-.324 1.116.018.036.108.162.108.108.108.162-.54 0-.54.216l.018.036v.054q0 .234.072.27.09.018.18 0a.4.4 0 0 1 .162-.036q.09 0 .09.18 0 .09-.198.27-.18.162-.18.288 0 .324.144.666a1.67 1.67 0 0 1 .126.918q0 .126-.018.27l-.126.54q-.018.054.072.09.09.018.144.018h.162q.018 0 .018.162 0 .378-.108.54-.09.144-.234.144a.8.8 0 0 1-.378-.126q-.198-.126-.414-.27-.09.144-.306.18-.216.018-.252.054l-.144-.306q.018.018-.144.18-.144.162-.216.162-.36 0-.36-.468 0-.108.036-.324.054-.234.054-.36a.8.8 0 0 0-.054-.27q-.054-.162-.198.036l-.072.108q-.018.018-.054-.054l-.018-.072q0-.054.072-.126.072-.09.072-.126 0-.054-.144-.108-.342 0-.486.378v.108q0 .018-.018.036v.036q0 .27.126.27.036 0 .072-.036a.26.26 0 0 0-.054.162v.198a.38.38 0 0 0-.144-.288q-.126-.144-.216-.144 0-.126.09-.378t.09-.378a.24.24 0 0 0-.072-.18h-.162q.09 0 .126-.18.054-.198.054-.18 0-.126-.108-.378-.108-.27-.108-.378 0-.234.198-.396l-.108-.162q.018.018.09 0a.7.7 0 0 0 .162-.09.23.23 0 0 0 .09-.144q.018-.108-.108-.234l-.378.072q-.036.018-.054-.054a1 1 0 0 1-.018-.126v-.18q0-.126-.072-.126a.3.3 0 0 0-.144.054.7.7 0 0 0-.162.09q-.072.054-.108.054l-.072-.018q-.036 0 .018-.09l.054-.09-.144-.144-.162.324q-1.674 0-2.736.162-.198.09-.252.216t-.018.09h.054q.198 0 .288.18.108.18.144.45.054.252.054.558.018.288.018.54-.198 0-.198.09v.162q0 .054-.09.144t-.09.144q0 .036.054.09l.324-.234q.018-.018.036.072l.036.072q0 .09-.09.27-.072.18-.072.198 0 .108.108.18l-.342.072v.18l.342.072q0 .18.126.486.126.288.126.414 0 .18-.18.36.036.252.324.252h.036q-.018 0-.144.09l-.198.144q-.144 0-.162-.036a.12.12 0 0 1 .018-.108.5.5 0 0 1 .09-.126q.054-.072.054-.108a.11.11 0 0 0-.072-.072.3.3 0 0 1-.072-.054h-.036q-.126 0-.144.234 0 .216-.108.234l-.324-.378-.144.144q.054-.054 0 .162-.036.216-.144.216A.14.14 0 0 1 2.916 16q-.018-.018-.036-.018-.036-.306-.216-.36a4 4 0 0 0-.234-.072h-.054q-.144 0-.288.18-.126.162-.162.162-.126 0-.234-.234-.108-.252-.216-.486a1 1 0 0 0-.198-.342q-.09-.108-.216.162v.054q0-.018-.072-.09a2 2 0 0 0-.162-.144l-.162-.162q-.072-.072-.072-.09 0-.18.216-.378t.216-.378q0-.144-.144-.216t-.144-.252q0-.198.252-.198v.054q0 .018-.018.018v.018q0 .144.09.198t.09-.216q0-.162-.09-.486a2 2 0 0 1-.09-.468q0-.234.126-.36v-.054q.018-.018.018-.036 0-.108-.198-.414h-.18a.5.5 0 0 1-.126-.09q-.09-.108-.162-.108-.054 0-.09.054l.054-.756q-.018.36.216.396.234.018.432-.144a.58.58 0 0 0 .216-.432q.036-.27-.396-.504H.738l-.144.144-.072-.072.468-.864q0-.216-.072-.414a3 3 0 0 0-.18-.504q.054-.252.324-.252.036 0 .054.018h.054q-.036 0-.054-.054a1 1 0 0 1-.018-.09q0-.09.162-.252.18-.18.18-.234 0-.09-.198-.18H1.17q-.018 0-.036.018h-.018q-.27 0-.27-.252 0-.144.072-.342t.162-.396q.09-.216.162-.396a.8.8 0 0 0 .072-.288v-.126q0-.144-.18-.27t-.18-.252q0-.162.216-.306t.216-.54l-.288-.252q.27-.216.306-.414a.74.74 0 0 0 0-.396 1.6 1.6 0 0 0-.144-.36.63.63 0 0 1-.09-.306q.126 0 .36.036t.342.036q.378 0 .558.126t.504.126q.162 0 .234-.018a.4.4 0 0 0 .09-.054v.162q0 .18.09.558.09.36.09.54 0 .288.072.468t.072.468h-.198l-.018-.036q-.018-.018-.036-.018l-.036-.036-.252.234.072.09a4 4 0 0 1 .396.468q.09.108.09.162l-.018.072q.018-.072-.144-.108l-.144-.036q0 .234.18.558t.18.414q0 .144.072.234.072.072.072.234 0 .072-.036.234a1.2 1.2 0 0 0-.036.234q0 .072.018.09l-.378-.36q-.45.396-.45.612 0 .144.126.27l.072.072q-.018-.036.108-.252.126-.234.216-.234.018 0 .036.018h.036q.018 0 .036.072.018.054.018.072 0 .072-.108.198-.09.126-.09.216.018.342.09.702.09.36.432.36.234 0 .504-.108t.522-.108q.144 0 .306.072.18.072.18-.144.252-.018.576-.054.342-.054.756-.126.09.054.198.126.126.072.198.072.018 0 .036-.018h.054q.108 0 .144-.09a.5.5 0 0 0 .036-.198.7.7 0 0 0 0-.216v-.144q0-.144.072-.216h.252l.018.054q.036.072-.09.288l-.126.216q0 .108.198.162.126 0 .432-.486-.198-.036-.198-.27v-.198q0-.198.054-.072t.108.306q.072.162.126.234.054.054.054-.27v-.216a1 1 0 0 1 .162-.018 1 1 0 0 1 .126-.018h.198q.09 0 .09-.252-.072-.126-.18-.126-.054 0-.198.108t-.198.108q-.234 0-.054-.126a.65.65 0 0 1 .378-.144q.09 0 .18-.162-.324 0-.414-.306a6 6 0 0 1-.09-.468q.36 0 .522-.252.18-.252.288-.306 0-.144.216-.252.234-.126.27-.198l-.63-.108q.108-.09.162-.342a7 7 0 0 0 .126-.522q.054-.288.126-.54.09-.27.216-.378l-.09-.18Q9.27 3.4 9.18 3.4q-.144 0-.126-.162.036-.18.036-.342 0-.18.27-.342t.27-.306a.7.7 0 0 0-.018-.198q0-.054.378-.108l.054-.324a.67.67 0 0 1 .396.144q.216.126.252.126.126 0 .234-.198h.27q.216 0 .162.126a.6.6 0 0 0-.054.216q0 .126.144.36.162.216.162.324 0 .126-.126.252M.432 10.294l-.018.09q0-.072.018-.09m0 0v-.018l.09-.072-.054.054zm7.578 4.428h-.018q-.252-.162-.252-.252 0-.108.108-.126.108-.036.234.036.144.054.144.234-.108.126-.18.126-.018 0-.036-.018m-.27-.468q-.018-.018-.018-.036V14.2v.036q.018 0 .018.018M.666 8.872q0 .144-.072.162a.12.12 0 0 1-.108-.018Q.45 8.98.468 8.926t.198-.054m-.072 3.78q-.18-.018-.18-.216 0-.09.054-.306v-.108l.018-.054q0-.09-.036-.126l.144-.144q.162.108.162.216 0 .09-.126.288-.108.198-.108.27 0 .108.072.18m6.804 1.71-.09.36q.018-.054-.036-.108a.5.5 0 0 0-.09-.126.2.2 0 0 1-.036-.09q0-.054.108-.054t.144.018m-.108.414.018-.018q0 .018-.018.018 0-.018 0 0m-2.52.252-.144-.18h.144zm3.528-.18v.18q-.288 0-.252-.09.054-.09.252-.09M11.178 2.5h-.108l.09.504q-.018-.054.036-.162a.6.6 0 0 0 .054-.162.24.24 0 0 0-.072-.18m-1.584.324-.036.306.108-.09q0-.216-.072-.216m.702.63.144-.126q0-.198-.144-.234-.126-.054-.126.09 0 .054.054.162.072.09.072.108m-.414.072v.162h.108V3.58q0-.036-.072-.036-.054-.018-.036-.018m1.368.54h-.072v.396h.072zm-1.584.558v-.09q0-.072-.072-.072-.162 0-.054.09a.5.5 0 0 0 .126.072m-6.3 1.962h.144v-.054q0-.018-.072.018a.2.2 0 0 0-.072.036m7.308.63q0-.072-.09-.216a.6.6 0 0 1-.09-.252q0-.018.018-.036v-.054q0-.018-.126.054a1 1 0 0 0-.144.09q.036 0 .126.216.09.198.306.198m-1.08 0h-.09v.144h.09zm-8.118.792h-.162v.072h.162zm6.804.306h-.054v.18h.108v-.126zm.666.486v-.108l-.09-.018q-.018 0-.036.018h-.036l-.054.054q-.054.054.216.054m1.602.252-.036.198h.09q.036 0-.036-.108-.054-.108-.018-.09m-2.466 0q-.216.054-.252.144-.018.09.036.144a.2.2 0 0 0 .162.036q.09-.036.09-.216 0-.072-.036-.108m.468.594.072-.072q-.018.018-.072-.09l-.072-.162q-.054.054-.054.108 0 .162.126.216m-5.112-.144h-.144v.072h.144zm5.85.144q0-.054.018-.072v-.108q0-.054-.09-.054-.108 0-.252.108-.126.09-.126.198 0 .054.036.09.054-.018.216-.036.162-.036.198-.126m-1.296.63-.09-.162a1.5 1.5 0 0 0-.126-.234.4.4 0 0 0-.108-.144q-.054-.036-.054.09 0 .234.378.45m-3.924-.072-.162-.216v.288q.144 0 .162-.072m-.774.072q-.036-.216-.09-.234-.036-.036-.072.036a.3.3 0 0 0 0 .144q.018.072.108.072h.018q.018-.018.036-.018m5.04.738v-.18h-.108zm1.332.144h-.072v.09h.072zm-6.084.306v-.27q0 .072-.09.108a.3.3 0 0 1-.144.036H3.15a1 1 0 0 1-.18-.018v.144l.072-.018q.036 0 .054.018h.09q.072 0 .126.036a.3.3 0 0 0 .09.018q.09 0 .18-.054m4.752.108q0-.108-.144-.108-.144-.018-.18-.072v.45h.216q.072 0 .072-.09.018-.108.036-.18m1.26.27.522.252q-.18-.45-.378-.45-.09 0-.144.198m-.558.054L9 11.878h-.108l-.036.018a.22.22 0 0 0-.126.126l.072.072q0-.018.108-.072.126-.054.126-.126m-6.408.576-.306-.45q0-.018-.036.108-.036.108-.036.09 0 .09.072.198.072.09.18.09-.054 0 .126-.036m7.902.234-.018-.018v-.036q0-.324-.468-.324.126.126.162.432.054.306.09.36 0-.072.108-.198.126-.126.126-.216m-1.8.414v.162h.072q.018 0-.036-.072zm-5.544.018v.144h.072l-.018-.036zm6.984.342-.054.054.126.144.054-.054zm-1.224.288.09-.09q-.072-.324-.144-.198a.44.44 0 0 0-.072.198q0 .072.126.09m-6.768-.306h-.252l.108.378q.198-.198.198-.27 0-.054-.054-.108m-.936.306-.144-.09v.09zm1.62.594.018.018v.036h.09v-.126l-.09.018v.018q-.018.018-.018.036m7.65-.144v.396h.162q-.126 0-.108-.126a1 1 0 0 1 .036-.198q0-.072-.09-.072m-8.586.558-.198-.558q-.216.126-.216.252 0 .108.126.216.126.09.288.09m-1.008-.09v-.144l-.072-.072zm13.807-6.21-.072.036q-.036 0-.036-.072 0-.144.09-.252.09-.126.09.09a.44.44 0 0 1-.072.198m5.562 0q0 .198-.036.234l-.054-.306q0 .018.036.036a.2.2 0 0 1 .054.036m3.456 8.172q-.36.306-.36.504-.018 0-.036-.108a3 3 0 0 0-.054-.216 1 1 0 0 0-.054-.198q-.036-.09-.09-.09a.3.3 0 0 0-.216.09q-.072.09-.126.198a1 1 0 0 1-.126.216q-.054.09-.18.09-.252 0-.684-.864v-.09q.018 0 .018-.018 0-.18-.162-.504-.144-.324-.144-.504-.126-.036-.216-.216a4 4 0 0 1-.162-.378 3 3 0 0 0-.162-.396q-.09-.198-.216-.252 0-.414-.288-.828a16 16 0 0 0-.522-.756l-.09-.144-.018-.018q0-.018-.054.036h-.054a.8.8 0 0 1-.342-.072q-.162-.09-.468-.09-.162 0-.504-.072a2.5 2.5 0 0 0-.486-.072q-.252 0-.504.144-.054-.216-.18-.216-.126-.018-.27.09a1.5 1.5 0 0 0-.252.288.75.75 0 0 0-.144.342l-.198 1.134a6 6 0 0 1-.198-.27q-.126-.198.036-.144h.036q.036 0 .072-.036l.072-.144q.018-.036-.036-.162a1.6 1.6 0 0 0-.108-.27 1.2 1.2 0 0 0-.126-.252 1 1 0 0 1-.054-.144q0-.18.306-.288 0-.144-.072-.198-.216 0-.306.108a.5.5 0 0 0-.126.234.7.7 0 0 0-.018.27q.018.144.018.216 0 .162-.108.54t-.108.54q0 .342.36.594l-.144.432-.144.432q-.198.522-.45.792-.144-.252-.27-.252-.054 0-.252.144t-.324.144q-.144 0-.27-.162a1.2 1.2 0 0 1-.162.234h-.126v-.09q0 .162-.126.108a.6.6 0 0 1-.234-.162 1.8 1.8 0 0 1-.216-.306q-.072-.18-.018-.27l.216-.108a6.327 6.327 0 0 1-.306-.378q-.09-.144-.09-.198 0-.09.09-.324a.6.6 0 0 1 .378-.324q.198.162.306.054a.33.33 0 0 0 .108-.234q0-.126-.144-.36-.126-.252-.126-.342 0-.18.054-.432t.144-.486q.09-.252.216-.432t.27-.216a7 7 0 0 1-.234-.306.46.46 0 0 1-.09-.27q0-.288-.144-.45a.64.64 0 0 1-.144-.414l.144-.108q.144-.126.324-.27l.324-.288q.162-.144.18-.144v-.234h.018q.018-.018.036-.018h.036q.18.054.378.036.216-.018.216-.504a.9.9 0 0 0-.108-.378q-.09-.216-.162-.378a.7.7 0 0 1-.036-.288q.036-.108.288-.072 0-.018.018-.036a.14.14 0 0 0 .018-.054q0-.072-.072-.144l-.09-.144A.2.2 0 0 0 15.337 7a.3.3 0 0 1 .054-.072l.342-.198-.252-.252a.27.27 0 0 0-.144-.072.5.5 0 0 0-.126-.018q.036-.162.054-.378l.036-.396h.144q0 .126-.018.216t.18.09q.072 0 .324-.09t.324-.27v-.18q0-.036-.054-.036a.3.3 0 0 0-.072-.018q-.036 0-.162.108-.126.09-.198.09h-.054q.018 0 .018-.18a4 4 0 0 0 .018-.396q.018-.216.018-.396.018-.18.054-.18h.072q.036 0 .072.072l.072.108a.5.5 0 0 0-.108.162v.036q.018-.108.18-.09.18.018.198-.198 0-.108-.108-.342-.09-.234-.09-.342 0-.144.144-.342V3.22q0-.18-.126-.126a.5.5 0 0 1-.234.054q.09-.162.234-.396.162-.234.342-.45.18-.234.342-.396.18-.162.306-.162a.7.7 0 0 1 .216.054.9.9 0 0 0 .234.054h.072q.144 0 .288.162.162.162.324.162.144 0 .252-.054l.018.072q.036.126.144.288.126.162.126.486v.27q0 .234-.054.378-.036.126-.108.342 0 .09.09.162t.198.198a.9.9 0 0 1 .216.306q.09.198.09.558 0 .684.234 1.314v.036q0 .018-.018.018v.018q0 .288.198.288.054 0 .126-.072l.036-.036a.6.6 0 0 0-.054.18 1 1 0 0 0-.018.162q0 .144.09.468.108.306.108.45a.76.76 0 0 1-.108.396q.072.054.126.252.072.18.126.396t.108.396q.054.162.108.162.108 0 .288-.162h.072q.018 0 .018.108v.072q0 .342-.378.666.144.09.162.09.108 0 .126-.018l.144-.018q.09-.018.198.108.126.108.234.252t.18.27.108.126q.162 0 .288-.324a.4.4 0 0 0 .126.216q.126.09.252.216t.216.27a.43.43 0 0 1 .108.288q-.054 0-.162-.072l-.198-.198a1.3 1.3 0 0 0-.18-.18q-.072-.09-.108-.09-.234 0-.27.09t.018.216q.054.108.126.234.09.126.09.18 0 .09-.162.162h-.126q0-.252-.09-.342h-.144q-.018 0-.036.09v.108q0 .288.27.45l.072-.072q.054-.054.126.09t.072.126a.6.6 0 0 1-.072.18.6.6 0 0 0-.072.198q0 .126.18.198.216-.018.216-.252v-.036q.144.702.504 1.242l-.054.036.126.198a23 23 0 0 1 .612.882q.162.216.216.234 0 .234.162.612.18.396.198.594m-1.764-3.798-.018-.018v-.054.036q.018.018.018.036m-8.532-.306.036.072-.018.036q-.018.072-.162.072zm-.324.828v-.234h.054v.234zm.198.378-.018.018v.036h-.288l.054-.252q.072.036.162.072t.09.126m-.306 1.53q0 .072-.09.144a.3.3 0 0 0-.09.09q-.144 0-.144-.126 0-.09.09-.18.216 0 .234.072m3.096 0q0 .144-.108.342-.09.198-.09.018a.43.43 0 0 1 .198-.36m-3.24.702h-.09v-.18h.162v.108q0 .054-.072.072M16.417 2.59q-.144.036-.144.18 0 .054.054.108h.072l.018-.054.054-.108V2.68q0-.054-.054-.09m.918.288h-.126v.072h.126zm.054 2.862v-.486q-.09 0-.198.108a2 2 0 0 0-.18.252q-.09.126-.162.252a1 1 0 0 0-.054.144q0 .108.054.072t.144-.108q.09-.09.198-.18t.198-.054m-1.26.54q-.09-.252-.216-.252h-.036q-.018 0-.018.018h-.018v.396q0-.018.144-.036.144-.036.144-.126m3.456 1.224-.054-.432q-.072-.036-.18-.288t-.216-.486a2 2 0 0 0-.162-.342q-.054-.126-.054.09 0 .09.108.27t.108.288a.24.24 0 0 1-.072.18l.18.54q.054.18.342.18m-2.79-.648h-.108v.072h.108zm-.378.882q-.054-.108-.144-.108-.162 0-.162.36.162.27.234.108a1 1 0 0 0 .072-.36m3.114.306h.162v-.126q0-.018-.036-.036l-.036-.018-.054.018a.12.12 0 0 0-.054.054v.09q.018 0 .018.018m-.666 2.502q.09-.396.09-.522 0-.18-.126-.54a10 10 0 0 0-.288-.756 16 16 0 0 0-.288-.738 2.6 2.6 0 0 1-.144-.486l-.036-.126a3 3 0 0 0-.054-.27.8.8 0 0 0-.072-.252q-.054-.126-.108-.126-.144 0-.288.252-.126.234-.126.36 0 .036.018.054v.054h.234q.072 0 .108.126.036.108.036.234a.23.23 0 0 1-.216.126h-.234q-.054-.018-.144.072v.036q0 .018-.018.036v.036h.036q.018 0 .018.018h.018a.3.3 0 0 0 .09-.036.3.3 0 0 1 .144-.036q.18 0 .126.072a.5.5 0 0 1-.162.162q-.108.09-.234.18-.126.072-.126.108 0 .054.144.162a.5.5 0 0 1 .18.198q0 .108-.144.144-.144.054-.108.126t.072.162q.054.072.018.144-.018.072-.27.144 0 .378.27.576 1.116 0 1.584.306m-2.178-1.44v-.054l-.072-.054zm-1.296.27q-.324 0-.378.504.054.036.072.18.036.126.162.126 0-.144.072-.414.072-.288.072-.396m.252 2.25.09-.09q.09-.072-.054-.144a.45.45 0 0 0-.18-.072q-.126 0-.126.09t.162.252q.072 0 .108-.036m-.81.18v.234h.234v-.432h-.108q-.126 0-.126.198m-.288.54q-.036-.036-.054-.306-.036-.252-.18-.18-.144.054-.144.216 0 .09.054.18.072.09.126.162.18 0 .198-.072m.954-.018h-.108v.756h.108zm-1.188 1.35h.18v-.306l-.072-.018q-.108-.018-.108.324m.756.954q-.054-.108-.054-.414t-.054-.414q0 .126-.108.396-.108.252-.108.36l.036.144a1 1 0 0 0 .162-.018q.09-.036.126-.054m-1.548.648-.054.036.126.126.036-.018zm11.795-7.218a.3.3 0 0 1-.018.072v.072-.054q0-.072.018-.09m-.108.738q0-.558.108-.45t.108.45a.36.36 0 0 1-.144.306.6.6 0 0 1-.072-.306m9.306 3.438q0 .108-.126.252-.108.126-.108.198l.09.09q-.288 0-.432.108a5 5 0 0 0-.306.252 1.6 1.6 0 0 1-.378.234q-.216.108-.648.108-.252 0-.522-.09-.018 0-.18.018t-.36.036a5 5 0 0 0-.396.054.8.8 0 0 0-.252.054l.054.054a.2.2 0 0 1 .054.036v.018q.018.018.018.072-.198.018-.36.036-.144 0-.198.162-.126-.396-.324-.396t-.342.27q-.144.252-.18.252-.018 0-.036-.018h-.054q.018 0-.054-.09a2 2 0 0 0-.09-.162l-.324.324-.18-.18q-.018.09-.18.162a4 4 0 0 0-.36.144 3 3 0 0 0-.342.162.37.37 0 0 0-.198.234q-.306-.306-.504-.306l-.108.018q-.072 0-.126.108-.054.09-.09.09t-.18-.234a4 4 0 0 0-.306-.432q-.162-.198-.288-.234t-.126.36q.054.072.108.072.09 0 .108-.018l.108-.054q.036 0 .036.036l-.018.036q0 .036-.018.108l-.612.306q-.09-.54-.378-.54a.23.23 0 0 0-.216.126q-.072.108-.342.108 0-.018-.018-.036v-.036q0-.072.144-.216.144-.162.27-.252.126-.108.144-.126 0-.126-.18-.198l-.126.144v-.054a.45.45 0 0 0-.072-.18.5.5 0 0 1-.072-.162q0-.18.09-.126.108.036.216.108a.6.6 0 0 0 .198.09q.108.018.108-.234a1 1 0 0 0-.09-.324 1.3 1.3 0 0 1-.072-.324q0-.198.144-.342-.27 0-.558-.72.18 0 .252.288.072.27.126.27.216 0 .198-.18a3 3 0 0 1-.018-.342h.054q.018 0 .018.018h.018q.09 0 .144-.126a.7.7 0 0 0 .09-.288.6.6 0 0 0 0-.288q-.036-.126-.144-.126-.018 0-.036.018h-.036l-.18.162a.43.43 0 0 0-.162-.216.8.8 0 0 0-.198-.126q-.072-.054-.09-.054 0-.018.126-.018.252 0 .36.054.126.036.126-.216a.3.3 0 0 0-.09-.216h.108v-.18q0-.108-.018-.234a.4.4 0 0 1 .018-.216h.576q0-.018.036-.162.054-.162.072-.342t-.054-.18a.45.45 0 0 0-.18.072.6.6 0 0 1-.162.054q-.072 0-.144-.072l.126-.126q-.036.036-.09-.072-.054-.126-.054-.108l.018-.072.108-.072q-.054.036.09.126.162.09.144.09.108 0 .198-.216.09-.234.252-.234.072 0 .198.072.036-.072-.018-.324-.036-.27-.432-.27-.018 0-.036.018h-.036l-.18.198q-.09-.054-.198-.342-.108-.306-.234-.396.162 0 .27.216.126.198.252.198.018 0 .036-.018h.054a1.2 1.2 0 0 0-.072-.378 6 6 0 0 0-.126-.432 4 4 0 0 0-.144-.378 1 1 0 0 1-.054-.234q0-.234.09-.414t.306-.18l.072.072q-.342.126-.342.198v.072q.018 0 .018.018l.144.108q-.018-.018.036-.036a.3.3 0 0 1 .09-.018h.126q.072 0 .108.09a.3.3 0 0 1 .036.09q0 .018-.162.396 0 .144.054.09a.6.6 0 0 0 .144-.198q.072-.144.126-.342.072-.198.072-.342 0-.432-.018-.468 0-.054-.108-.522l.18.072q.09.036.162.072.09 0 .108-.054a.6.6 0 0 1 .108-.144V4.3q0-.09-.054-.18a.4.4 0 0 1-.036-.144q0-.198.144-.054.162.144.252.144l.072-.018v-.054l-.018-.036q-.036-.072.144-.216.198-.162.198-.252l-.018-.072.072.018q.126.018.126-.324.036.036.036.072 0 .09-.09.234a.6.6 0 0 0-.072.198q0 .108.126.18.054-.108.342-.252.288-.162.324-.36.072.306.072 1.134v.972q0 .216-.126.468t-.126.342q0 .072.054.198.072.126.072.198 0 .09-.036.18a1 1 0 0 0-.018.234q0 .108-.126.36t-.126.306q0 .162.018.306.036.144.036.486 0 .126.072.396.072.252.072.396 0 .288-.18.468l-.396.306q.324.09.324.378 0 .162-.072.36-.072.18-.162.36a3 3 0 0 1-.234.396q0 .018.018.036v.036l.306.036q0 .522-.378.9v.036q0 .072.09.162.108.09.108.126.288-.126.63-.162.36-.054.882-.126l.9-.126q.54-.072 1.134-.126a21 21 0 0 1 1.242-.108q.63-.054 1.224-.054.036.126.234.144.216 0 .252.036m-9.504 1.314.054-.072q-.018.018-.018.036zm.198-4.014v.198q0 .054-.108.054t-.126.018l.162-.45.036.09a.3.3 0 0 1 .036.09m2.34-2.268h-.072v.09h.072zm-.396 1.422.324-.198q-.018 0-.072-.162-.036-.162-.216-.162-.108.234-.108.36 0 .09.072.162m1.116.18v-.144h-.126v.288h.054q.036 0 .054-.054a1 1 0 0 0 .018-.09m-.756 1.062q0-.09.018-.198t-.054-.108q0 .27.036.306m-1.098.108-.018-.072q0-.09-.09-.126a.3.3 0 0 0-.09-.036q-.162 0-.162.18l.018.108q0 .018.09.09.108.072.09.054.162-.072.162-.198m1.17.522v-.036l.018-.018q.036-.018-.018-.072a.4.4 0 0 0-.054-.09l-.054-.072-.072.324q.144 0 .18-.036m.558.09v-.09q0-.036-.054-.054l-.054-.018q-.054 0-.054.072a.12.12 0 0 1-.036.09v.018q0 .036.018.054v.018h.126q.054 0 .054-.09m-1.368.72q-.468-.468-.558-.468a1 1 0 0 0-.018.18v.162q0 .396.126.396.09 0 .216-.126a.6.6 0 0 1 .234-.144m.306.792h-.144l.072.198q.018.018.036-.054a.4.4 0 0 0 .036-.144m6.75.306.126-.108q.018-.018-.054-.09t-.126.09l-.018.036q0 .054.072.072m-6.426.216h.18v-.576a.28.28 0 0 0-.162.234 3 3 0 0 0-.018.342m6.012.09q0-.036.018-.054v-.036q0-.126-.108-.162a.6.6 0 0 0-.198-.036q-.09 0-.18.054v.036l-.018.018q-.036.018.054.126t.108.126h.108q.144 0 .216-.072m-1.71.144q-.018-.072-.162-.072v.288q0-.018.072-.054.09-.036.09-.162m.558.054-.072.126h.144q-.018 0-.054-.054a.3.3 0 0 1-.018-.072m-5.418 1.008v.054l.342-.18q.018-.018-.054-.036a.3.3 0 0 0-.09-.018q-.216 0-.216.144 0 .018.018.036m9.096-5.922a.3.3 0 0 1-.018.072v.072-.054q0-.072.018-.09m-.108.738q0-.558.108-.45t.108.45a.36.36 0 0 1-.144.306.6.6 0 0 1-.072-.306m9.306 3.438q0 .108-.126.252-.108.126-.108.198l.09.09q-.288 0-.432.108a5 5 0 0 0-.306.252 1.6 1.6 0 0 1-.378.234q-.216.108-.648.108-.252 0-.522-.09-.018 0-.18.018t-.36.036a5 5 0 0 0-.396.054.8.8 0 0 0-.252.054l.054.054a.2.2 0 0 1 .054.036v.018q.018.018.018.072-.198.018-.36.036-.144 0-.198.162-.126-.396-.324-.396t-.342.27q-.144.252-.18.252-.018 0-.036-.018h-.054q.018 0-.054-.09a2 2 0 0 0-.09-.162l-.324.324-.18-.18q-.018.09-.18.162a4 4 0 0 0-.36.144 3 3 0 0 0-.342.162.37.37 0 0 0-.198.234q-.306-.306-.504-.306l-.108.018q-.072 0-.126.108-.054.09-.09.09t-.18-.234a4 4 0 0 0-.306-.432q-.162-.198-.288-.234t-.126.36q.054.072.108.072.09 0 .108-.018l.108-.054q.036 0 .036.036l-.018.036q0 .036-.018.108l-.612.306q-.09-.54-.378-.54a.23.23 0 0 0-.216.126q-.072.108-.342.108 0-.018-.018-.036v-.036q0-.072.144-.216.144-.162.27-.252.126-.108.144-.126 0-.126-.18-.198l-.126.144v-.054a.45.45 0 0 0-.072-.18.5.5 0 0 1-.072-.162q0-.18.09-.126.108.036.216.108a.6.6 0 0 0 .198.09q.108.018.108-.234a1 1 0 0 0-.09-.324 1.3 1.3 0 0 1-.072-.324q0-.198.144-.342-.27 0-.558-.72.18 0 .252.288.072.27.126.27.216 0 .198-.18a3 3 0 0 1-.018-.342h.054q.018 0 .018.018h.018q.09 0 .144-.126a.7.7 0 0 0 .09-.288.6.6 0 0 0 0-.288q-.036-.126-.144-.126-.018 0-.036.018h-.036l-.18.162a.43.43 0 0 0-.162-.216.8.8 0 0 0-.198-.126q-.072-.054-.09-.054 0-.018.126-.018.252 0 .36.054.126.036.126-.216a.3.3 0 0 0-.09-.216h.108v-.18q0-.108-.018-.234a.4.4 0 0 1 .018-.216h.576q0-.018.036-.162.054-.162.072-.342t-.054-.18a.45.45 0 0 0-.18.072.6.6 0 0 1-.162.054q-.072 0-.144-.072l.126-.126q-.036.036-.09-.072-.054-.126-.054-.108l.018-.072.108-.072q-.054.036.09.126.162.09.144.09.108 0 .198-.216.09-.234.252-.234.072 0 .198.072.036-.072-.018-.324-.036-.27-.432-.27-.018 0-.036.018h-.036l-.18.198q-.09-.054-.198-.342-.108-.306-.234-.396.162 0 .27.216.126.198.252.198.018 0 .036-.018h.054a1.2 1.2 0 0 0-.072-.378 6 6 0 0 0-.126-.432 4 4 0 0 0-.144-.378 1 1 0 0 1-.054-.234q0-.234.09-.414t.306-.18l.072.072q-.342.126-.342.198v.072q.018 0 .018.018l.144.108q-.018-.018.036-.036a.3.3 0 0 1 .09-.018h.126q.072 0 .108.09a.3.3 0 0 1 .036.09q0 .018-.162.396 0 .144.054.09a.6.6 0 0 0 .144-.198q.072-.144.126-.342.072-.198.072-.342 0-.432-.018-.468 0-.054-.108-.522l.18.072q.09.036.162.072.09 0 .108-.054a.6.6 0 0 1 .108-.144V4.3q0-.09-.054-.18a.4.4 0 0 1-.036-.144q0-.198.144-.054.162.144.252.144l.072-.018v-.054l-.018-.036q-.036-.072.144-.216.198-.162.198-.252l-.018-.072.072.018q.126.018.126-.324.036.036.036.072 0 .09-.09.234a.6.6 0 0 0-.072.198q0 .108.126.18.054-.108.342-.252.288-.162.324-.36.072.306.072 1.134v.972q0 .216-.126.468t-.126.342q0 .072.054.198.072.126.072.198 0 .09-.036.18a1 1 0 0 0-.018.234q0 .108-.126.36t-.126.306q0 .162.018.306.036.144.036.486 0 .126.072.396.072.252.072.396 0 .288-.18.468l-.396.306q.324.09.324.378 0 .162-.072.36-.072.18-.162.36a3 3 0 0 1-.234.396q0 .018.018.036v.036l.306.036q0 .522-.378.9v.036q0 .072.09.162.108.09.108.126.288-.126.63-.162.36-.054.882-.126l.9-.126q.54-.072 1.134-.126a21 21 0 0 1 1.242-.108q.63-.054 1.224-.054.036.126.234.144.216 0 .252.036m-9.504 1.314.054-.072q-.018.018-.018.036zm.198-4.014v.198q0 .054-.108.054t-.126.018l.162-.45.036.09a.3.3 0 0 1 .036.09m2.34-2.268H38.1v.09h.072zm-.396 1.422.324-.198q-.018 0-.072-.162-.036-.162-.216-.162-.108.234-.108.36 0 .09.072.162m1.116.18v-.144h-.126v.288h.054q.036 0 .054-.054a1 1 0 0 0 .018-.09m-.756 1.062q0-.09.018-.198t-.054-.108q0 .27.036.306m-1.098.108-.018-.072q0-.09-.09-.126a.3.3 0 0 0-.09-.036q-.162 0-.162.18l.018.108q0 .018.09.09.108.072.09.054.162-.072.162-.198m1.17.522v-.036l.018-.018q.036-.018-.018-.072a.4.4 0 0 0-.054-.09l-.054-.072-.072.324q.144 0 .18-.036m.558.09v-.09q0-.036-.054-.054l-.054-.018q-.054 0-.054.072a.12.12 0 0 1-.036.09v.018q0 .036.018.054v.018h.126q.054 0 .054-.09m-1.368.72q-.468-.468-.558-.468a1 1 0 0 0-.018.18v.162q0 .396.126.396.09 0 .216-.126a.6.6 0 0 1 .234-.144m.306.792h-.144l.072.198q.018.018.036-.054a.4.4 0 0 0 .036-.144m6.75.306.126-.108q.018-.018-.054-.09t-.126.09l-.018.036q0 .054.072.072m-6.426.216h.18v-.576a.28.28 0 0 0-.162.234 3 3 0 0 0-.018.342m6.012.09q0-.036.018-.054v-.036q0-.126-.108-.162a.6.6 0 0 0-.198-.036q-.09 0-.18.054v.036l-.018.018q-.036.018.054.126t.108.126h.108q.144 0 .216-.072m-1.71.144q-.018-.072-.162-.072v.288q0-.018.072-.054.09-.036.09-.162m.558.054-.072.126h.144q-.018 0-.054-.054a.3.3 0 0 1-.018-.072m-5.418 1.008v.054l.342-.18q.018-.018-.054-.036a.3.3 0 0 0-.09-.018q-.216 0-.216.144 0 .018.018.036M52.556 2.032l-.036.018h-.162q-.018 0-.036-.072v-.234q0-.036.054-.054a1 1 0 0 1 .09-.018q.162 0 .162.198 0 .09-.072.162M46.778 7.45h-.072v-.414q.144.198.144.306 0 .09-.072.108m10.872 2.934v.216l-.306.216q0-.198-.198-.342h-.306q-.054 0-.108.072a1 1 0 0 0-.09.108l-.018.072q-.054.108.126.108.216 0 .162.126a.8.8 0 0 1-.198.27l-.306.306q-.144.144-.144.198.072.234.198.54t-.198.432q0 .252.108.45t-.162.198q-.072 0-.18-.018a.4.4 0 0 0-.126-.036q-.144 0-.144.216v.108q.018.054-.036 0h-.072q-.252 0-.504.414l-.072.45q0 .036-.108.036a.7.7 0 0 1-.216-.054.6.6 0 0 0-.162-.054q-.144 0-.126.126a.6.6 0 0 1 .036.198q0 .162-.108.234a4 4 0 0 1-.234.108 2 2 0 0 0-.216.09.19.19 0 0 0-.108.18q-.144 0-.45-.162-.306-.18-.486-.18l-.144.036q-.162.684-.72.81a1.2 1.2 0 0 0-.342-.09 5 5 0 0 0-.468-.09 21 21 0 0 1-.468-.072 1.2 1.2 0 0 1-.306-.108l-.144.108.306.396h-.054a.6.6 0 0 1-.216-.072 8 8 0 0 1-.27-.162 3 3 0 0 0-.252-.162q-.108-.072-.144-.072a2 2 0 0 0-.288.018 3 3 0 0 1-.378.018q-.198 0-.27.18 0-.036.018-.054v-.036q0-.198-.324-.216-.342-.054-.468-.234a2 2 0 0 1-.198-.414 1.6 1.6 0 0 0-.18-.378q-.09-.18-.378-.18a.8.8 0 0 1-.324-.054q-.108-.072-.108-.288 0-.072.036-.216.036-.162.036-.216 0-.09-.09-.144a5 5 0 0 1-.198-.126 1 1 0 0 1-.198-.18.44.44 0 0 1-.09-.288q0-.108.036-.342.054-.234.054-.36 0-.27-.144-.414.054-.072.126-.072.054 0 .18.126.144.108.144-.126 0-.126-.198-.396t-.198-.342q0-.126.09-.27l.18.126q.324-.306.324-.702 0-.198-.09-.594a3.2 3.2 0 0 1-.09-.576l.018-.468q0 .036.072.054t.054.018h.018q.072-.054.072-.108a.44.44 0 0 0-.072-.198.7.7 0 0 1-.072-.144q0-.18.036-.162t.108.108q.072.072.162.18.108.09.216.09a.6.6 0 0 0 .198-.432q0-.144-.09-.414a1.8 1.8 0 0 1-.072-.378q0-.288-.126-.378t.144-.09q.45 0 .45-.27 0-.036-.018-.054v-.054l-.306-.198a2 2 0 0 0-.072.162q-.036.09-.108.234a3 3 0 0 1-.09-.288q0-.054.108-.126.108-.09.234-.18l.234-.198q.108-.108.108-.216 0-.252.216-.486t.252-.666q.018-.144.018-.396 0-.27.018-.504a3 3 0 0 1 .09-.432q.072-.18.216-.18.072 0 .18.108.108.09.144.09.09 0 .162-.126v-.252q.09.018.144.018h.126q.198 0 .216-.126v-.432q.072.162.18.324.126.144.216.216t.162.036q.072-.054.072-.288 0-.144-.054-.126-.036.018.198.018.198 0 .45-.234.27-.234.378-.234.09 0 .198.108.126.09.252.216l.288.216q.162.09.306.09.072 0 .216.072a.6.6 0 0 0 .216.072q.09 0 .198-.126l.036.324-.072.054q-.072.036-.018.09v.018h.018q-.054 0 .126.036h.054a.23.23 0 0 0 .216-.126l-.198-.522h.072l.054-.018q.126-.036.198.09.09.126.162.306l.144.36q.072.18.18.27h.072q.072 0 .036-.198a5 5 0 0 1-.018-.252q0-.144.054-.144t.126.054q.09.036.18.108.09.054.144.054a.24.24 0 0 0 .18-.072l.072-.036q-.054.036.108.234.162.18.378.378h-.018q-.018-.018-.036-.018-.054 0-.126.072-.072.054-.072.09 0 .09.072.108l.072.072q.09.09.198-.144.126-.252.144-.378h.126q-.036 0-.054.126v.072q0 .108.18.324t.18.306q0 .108-.144.252a.5.5 0 0 1 .126.162q.072.108.144.108.018 0 .036-.018h.036q.018 0 .018.108v.054q0 .09-.036.252a1 1 0 0 0-.036.198q0 .09.054.198a.24.24 0 0 0 .198.09q.27 0 .198-.27a2.5 2.5 0 0 1-.054-.486q0-.198-.27-.288.054-.234.108-.27t.09.018a.4.4 0 0 1 .09.144q.054.09.108.09l.018-.018h.036q-.09 0-.036.504.072.486.18 1.08.108.576.198 1.08l.108.486q0 .09.144.27t.144.234q0 .162-.198.504-.198.324-.198.558 0 .288.18.504.18.198.18.378a1 1 0 0 1-.054.306q-.054.162.09.234l.198-.18q.018-.018.036.09a1 1 0 0 1 .036.126m-.144-2.07h.324q.018 0 .018.072v.108q0 .144-.054.432a2.6 2.6 0 0 0-.054.432q0 .162.018.18h-.108V8.89q0-.18-.036-.324a.5.5 0 0 0-.108-.252M46.4 10.348l-.036.054.036-.234zm10.746 1.332q0 .108-.162.108h-.216q-.072 0-.072.108l.018.072h-.144q.054-.306.414-.306.144 0 .162.018m.126 1.008q-.054 0-.072-.018h-.054a.42.42 0 0 0-.432.306v-.288q.234 0 .252-.126a.4.4 0 0 0 .018-.198q-.018-.072 0-.036.036.036.288.36m-.198-.648v.072q0 .018-.018.036v.036-.072a.2.2 0 0 0 .018-.072m-10.71 2.214-.144-.144h.144zm.486.414v.198h-.072v-.36q0 .018.036.054t.036.108m4.392-12.546h-.162l.09.126q.018.036.036-.036.018-.09.036-.09m.378.126.072.432h.108v-.108q0-.162-.072-.234-.072-.09-.108-.09m-.864.324-.216-.198v.198zM48.974 3.58v-.27l-.234-.108zm4.86.324v-.072l-.072-.072zm1.422.234v-.144a.47.47 0 0 0-.09-.306q-.072-.126-.18-.018v.054q0 .108.09.234.108.126.18.18m1.08 1.422-.216 1.08.378-.234v-.252q0-.486-.162-.594m.486 2.142v-.108q.018-.018.018-.036 0-.306-.198-.666l-.144.558q.198.252.324.252m-1.566 2.502q-.216 0-.18-.198.054-.216.054-.378v-.072q0-.648-.558-1.98l-.576-1.44q-.378-.144-.378-.234t.162-.144q.18-.054.18-.072 0-.234-.162-.162-.144.054-.162.054l-.018-.018h-.036q-.126 0-.198-.162a.9.9 0 0 1-.054-.252V5.11a.6.6 0 0 0 .036-.108l.468-.054q-.054 0-.162-.018a.8.8 0 0 0-.252-.036q-.324 0-.738-.216a1.8 1.8 0 0 0-.864-.216.9.9 0 0 1-.468-.144q-.234-.144-.612-.144-.18 0-.468.144a1.9 1.9 0 0 0-.558.45q-.27.288-.468.756-.18.45-.18 1.08 0 .108-.054.288a6 6 0 0 1-.126.342q-.054.18-.108.342a.9.9 0 0 0-.054.234.7.7 0 0 0 .072.342 67 67 0 0 0-.108 1.008q-.054.522-.432.72a.66.66 0 0 1 .288.396q.072.216.036.45t-.108.45a1.5 1.5 0 0 0-.054.36q0 .162.162.378t.162.558q0 .306-.144.558.306.306.54.486.252.18.486.288t.504.162.648.108l1.404.18q1.404-.252 2.448-2.16.072-.09.126-.36.072-.288.126-.594.072-.324.162-.594t.216-.342m1.152.396q-.072-.072-.144-.072v.27l.09-.09q.054-.054.054-.108m-9.306 1.134q0-.072-.072-.126l-.108.162q.018-.018.09-.018zm-.558.81.144.144v-.072q0-.036-.072-.054a.3.3 0 0 0-.072-.018m.504.504.018-.018h.036v-.252h-.18q.018 0 .036.144.036.126.09.126m1.548 2.034-.036.036.036.072.072-.072zm1.26.198q0-.036.018-.054v-.018q0-.09-.126-.108a.5.5 0 0 1-.144-.054l-.018.072q-.018.09.126.126zm2.178.144v.252l.288-.144a.4.4 0 0 0-.288-.108M71.378 1.888q.018.018.018.036l.036.036v.072a.6.6 0 0 1-.054.198.6.6 0 0 0-.054.18h-.09q0-.27.144-.522m1.494 1.926q-.108-.018-.108-.126 0 .054.036-.126v-.144q0 .054.054.144.072.072.072.126 0 .072-.054.126m-.288.594-.072-.288h.126v.18a.12.12 0 0 1-.054.108M63.098 7.18h-.252q-.018 0-.036-.054v-.054q0-.072.072-.252.09-.18.09-.216 0-.108-.126-.18a.9.9 0 0 0 .108-.234q.072-.198.144-.198.126.126.126.378 0 .108-.072.414a3 3 0 0 0-.054.396m-1.746 2.484q-.054.054-.216.054v-.126q.162 0 .216.072m11.088-6.93q-.378.09-.378.234v.036a.2.2 0 0 1 .036.072l.126.108q.054.054.036.234 0 .18-.054.396a6 6 0 0 1-.09.432 2 2 0 0 0-.036.36q0 .126-.054.162a.6.6 0 0 1-.108.036.2.2 0 0 0-.108.036q-.036.036-.036.198 0 .072.018.216a1 1 0 0 1 .036.216q0 .36-.36.27h-.108q.018 0-.234.072t-.252.234q0 .126.18.216.198.09.198.45 0 .108.18.234t.18.216a.24.24 0 0 1-.072.18v.054q0 .018-.018.018v.018q0 .144.09.306a.37.37 0 0 0 .27.18h-.162a2 2 0 0 1-.288-.018 1.3 1.3 0 0 0-.252-.054q-.018.108-.162.342-.126.216-.288.468-.144.252-.27.486t-.126.378l-.216.144q.126.342.234.666.108.306.198.612a16 16 0 0 0-.27-.324.7.7 0 0 0-.342-.162q-.18-.036-.18.252t.018.342l.126.126q.036.036.036.072 0 .018-.018.036v.036q0 .09-.144.252a.51.51 0 0 0-.144.378q.018.306.018.414v.036q0 .198-.09.342-.072.144-.072-.09 0-.054.072-.126l.018-.054q-.468-.432-.72-.432l-.126.144q.018-.018.144.162.144.18.144.27h-.108q-.162 0-.126.054l.162.108q.126.054.252.144t.126.198a.4.4 0 0 1-.054.18.6.6 0 0 0-.036.18q0 .162-.036.162t-.108-.054a.8.8 0 0 0-.144-.144.22.22 0 0 0-.162-.072l-.054.54-.198-.252q-.36.162-.36.702 0 .054.018.072v.072l-.108.072q.072-.054 0-.162a1 1 0 0 0-.198-.216 1.1 1.1 0 0 0-.234-.18 3 3 0 0 1-.126-.108l-.108-.018q-.108-.018-.234.09-.108.09-.234.234a4 4 0 0 0-.216.234q-.09.108-.144.108-.108 0-.234-.144t-.36-.144q-.09 0-.162-.126a8 8 0 0 1-.144-.306 1.6 1.6 0 0 0-.18-.306.32.32 0 0 0-.234-.162q0-.144-.072-.396a9 9 0 0 0-.162-.54 9 9 0 0 0-.18-.522 8 8 0 0 1-.09-.306q0-.18-.036-.396a8 8 0 0 0-.054-.486l-.18-.918-.054-.018h-.072a.67.67 0 0 0-.396.144q-.198.126-.198.198 0 .108.216.198.234.072.234.27-.18.18-.324.252-.126.072-.378.072-.216 0-.27.216 0 .162.126.216.144.036.27.072.054-.18.108-.18t.108.072q.072.054.126.126.072.054.144-.018h.018v.108h-.144q-.09 0-.018.198.09.198.09.234h-.036l-.018.018q-.054.054-.162-.162t-.216-.216q-.198.09-.198.36v.144q0 .09.09.198.108.108.108.234 0 .144-.072.414t-.072.414q-.09-.054-.09-.18 0-.072.036-.18a.8.8 0 0 0 .036-.18.18.18 0 0 0-.09-.162.17.17 0 0 1-.072-.144q0-.054.072-.126.072-.09.072-.108 0-.054-.072-.108l-.216.09q-.36.144-.324.234.054.09.054.306 0 .126-.162.162.162.036.198.324t.144.36l-.072.36q-.09 0-.18-.144t-.216-.144a1.6 1.6 0 0 0-.054.396q0 .144.036.432t.036.432l-.054.27a5 5 0 0 1-.126.612q-.09.324-.234.594-.144.288-.342.288-.09 0-.216-.09-.108-.09-.18-.09-.054 0-.144.09l.216.27a1 1 0 0 0-.468.126q-.216.144-.234.324-.054-.27-.252-.27-.054 0-.18.018a.8.8 0 0 1-.198.036q-.216 0-.126-.09h.036q.018 0 .054-.09.054-.09.054-.126 0-.144-.162-.144h-.162q-.09 0-.09-.126v-.036a.6.6 0 0 0 .036-.108q-.378-.108-.576-.666a5.7 5.7 0 0 1-.27-1.278 18 18 0 0 1-.09-1.368v-.954q0-.144-.018-.432a8 8 0 0 1-.018-.432q0-.846.414-1.224-.198-.072-.27-.162a.65.65 0 0 1-.054-.288q0-.126.054-.378t.054-.378l.27-.216-.27-.162.036-.072.054-.108.018-.036v-.108a.48.48 0 0 0-.162-.342.55.55 0 0 1-.144-.378q0-.144.036-.45.054-.306.054-.45a.85.85 0 0 0-.09-.414.77.77 0 0 1-.09-.378q0-.162.072-.504.09-.342.09-.522v-.144l.972.486q.288.144.504.162a.8.8 0 0 1 .342.09q.144.054.198.234.072.18.072.63v.504q-.18.072-.18.198 0 .036.108.18.126.126.126.234a.3.3 0 0 1-.054.144l.216.594h-.288q-.018 0-.036.054a.3.3 0 0 0-.018.072q0 .252.09.216a.5.5 0 0 1 .234-.054q.072 0 .09.054l.144-.27q0 .99-.396 1.224-.216.126-.216.324 0 .072.054.27a1 1 0 0 1 .072.288.9.9 0 0 1-.054.342q-.036.126.252.36a.45.45 0 0 1-.18.27q-.144.108-.306.234a1.8 1.8 0 0 0-.27.252.48.48 0 0 0-.108.324q0 .09.09.252.108.144.234.324t.216.378q.108.18.108.342l-.27-.342q-.108.288-.108.432 0 .108.108.252.09-.144.198-.108a1 1 0 0 1 .198.09q.108.036.162 0 .072-.036.072-.306 0-.144.054-.378l.108-.468q.072-.252.126-.468a1.5 1.5 0 0 0 .054-.342q.27 0 .198-.126a1.2 1.2 0 0 0-.18-.306 1 1 0 0 1-.144-.288q-.036-.144.288-.144.072 0 .144.126.378-.126.378-.522 0-.126-.054-.378a3 3 0 0 1-.036-.378.4.4 0 0 0 .342-.252q.09-.216.09-.504t-.054-.558a3 3 0 0 1-.036-.414v-.18h.126v.054q0 .018-.018.036v.036q0 .468.396.468l.072.018q.036.018.09-.054a.8.8 0 0 0 .126-.162q.054-.09.09-.162.054-.072.072-.072-.09-.27-.198-.234-.09.018-.18.126-.072.09-.126.144-.054.036-.054-.198l.36-.36q.324-.288.324-.558a.3.3 0 0 0-.018-.072 1 1 0 0 0-.018-.144h.126q.072.162.072.522t.054.486a.39.39 0 0 0 .306-.216q.09-.18.09-.396 0-.342-.216-.684-.216-.36-.558-.36-.036 0-.054.018h-.036a.46.46 0 0 0-.126-.306q-.108-.144-.108-.198 0-.198.126-.036.126.144.216.162.432-.108.666-.216.234-.126-.072-.414l-.234.18q-.144-.252-.144-.378 0-.306.234-.306.324 0 .414.198.09.18.09.414v.414q.018.18.198.18.162 0 .162-.414a.9.9 0 0 0-.054-.27 4 4 0 0 0-.126-.324q-.072-.18-.126-.324a.7.7 0 0 1-.054-.198V4.03q.684.108.684.648 0 .378.126.378t.27-.216q.162-.216.18-.216t.108.108q.108.09.234.216t.216.252a.7.7 0 0 1 .126.18l.144-.054q.18.234.18.522 0 .198-.09.576t-.09.576v.18q0 .036-.054.108-.054.054-.054.072v.018q-.018.018-.018.036 0 .036.054.09l.432.252q-.072.036-.108.252a5 5 0 0 1-.072.486q-.054.27-.162.558a1 1 0 0 1-.36.468q0 .108.036.144a1 1 0 0 1 .108.09l.072.054v.018q0 .018.018.036v.036q0 .09-.126.162a.6.6 0 0 0-.162.108q.018.144.216.45.198.288.342.324a1.2 1.2 0 0 1-.162.18q-.144.144-.144.27 0 .036.018.054v.036q0 .018-.036.054a.2.2 0 0 0-.018.072q0 .072.126.216a.8.8 0 0 1 .126.162 2.2 2.2 0 0 0-.072.63q0 .18.072.378t.162.324q.09.108.162.108.072-.018.072-.234a1 1 0 0 0-.054-.288h.198q.198 0 .27-.27.072-.288.252-.36v-.036q0-.018.054-.252t.144-.522.198-.54q.126-.27.234-.36.396-.792.396-1.296 0-.27.126-.54t.216-.954q.054-.342.144-.54t.18-.342.162-.288a.9.9 0 0 0 .072-.396q0-.504.45-.882v-.162a.2.2 0 0 1 .018-.072l.036-.108q0-.108-.18-.162h-.018a.3.3 0 0 0 .126-.144 1.1 1.1 0 0 0 .108-.252q.054-.144.072-.234t.018-.072l-.018-.144q.234-.18.234-.396 0-.036-.018-.054v-.054q0-.054-.054-.108t-.054-.108q0-.072.054-.234a.7.7 0 0 0 .072-.234q0-.072-.09-.216.09-.144.198-.144.288 0 .504.18.216.162.216.486 0 .144-.018.162l-.036.018.144.198q.414-.324.414-.99 0-.216-.018-.252h.342q0 .162.162.252.18.072.18.108 0 .072-.072.144M61.568 10.15l-.144.126v-.378q0 .036.072.126.072.072.072.126m9.216.036q0-.036.072-.108a.45.45 0 0 0 .126-.144l-.144.36q.018-.018-.036-.054-.036-.054-.018-.054m-8.658.09h-.054v-.18q0 .036.018.09a1 1 0 0 1 .036.09m5.058 1.26v.144q0 .072-.072.09h-.072v-.288q0-.018.054.018.072.018.09.036m-3.87 2.052v-.09h.054v.09zm4.212.648a.4.4 0 0 1 .018.144.28.28 0 0 1-.144.252h-.072q-.108 0-.108-.054a.4.4 0 0 1 .072-.144.6.6 0 0 1 .126-.126q.072-.072.108-.072m-5.4 3.222v.126q0-.072-.09-.18a.36.36 0 0 1-.09-.234q0-.252.09-.072.09.198.09.36M71.504 4.12l.036-.018-.072-.108a1.6 1.6 0 0 0-.18-.252 5 5 0 0 0-.18-.27q-.09-.126-.144-.144l.216.576q.27.072.324.216m.504-.144q-.054 0-.126-.072l-.162.216h.108a.5.5 0 0 0 .126-.018q.072-.018.072-.054v-.036q0-.018-.018-.018zm-.288.9h-.054v.108zm-5.742.18-.072-.072v.234l.09-.054q.018-.018 0-.036l-.018-.036zm-.486.612q0-.036.018-.054v-.09l-.018-.036q-.018-.072-.108-.108l-.108.432q0 .018.09-.036.09-.072.126-.108m-.162.684v-.216q0-.036-.054-.09h-.036l-.018.018v.144q0 .144.108.144m-5.148-.18-.018-.036h-.126l.054.144q0 .018.036-.036zm6.084.252h.198V6.28q0-.036-.072-.054l-.054-.018q-.09 0-.234.144.054.072.162.072m-1.53.414h.036V6.64q-.108 0-.162-.108a6 6 0 0 1-.072-.234 2 2 0 0 0-.054-.27q-.018-.126-.108-.162l-.072.774a.41.41 0 0 0 .378.216q.036 0 .054-.018m-5.256-.216v-.054l.018-.018q.036-.036-.018-.072t-.072-.036q-.162 0-.162.144l.018.018v.036q.09.216.108.216t.036-.018h.036q.036 0 .036-.216m6.606.072h-.09v.09h.09zm-1.422.522h-.072v.126q0-.036.036-.072t.036-.054m-5.4.198h-.108v.09h.108zm.738.216h-.126v.162h.126zm9.576.504q0-.234-.288-.792v.576q0 .108.126.162a.6.6 0 0 0 .162.054m-8.856.054h.126v-.126l-.072.036q-.054.018-.054.09m9.414.486-.09-.09v.144l.036-.018a.2.2 0 0 0 .054-.036m-9.36.126h-.108v.072h.108zm3.438.378q0-.216-.54-.216.216.27.342.414t.198-.198m-.63.702q0-.144-.072-.162l-.108.09q-.018.018.072.054.09.018.108.018m6.048.126h-.054v.144h.054zm-8.91.378a.24.24 0 0 0-.18-.072q-.162 0-.162.126l.288.126q.018.018.036-.072a1 1 0 0 0 .018-.108m2.736 0v.18h.126v-.126q0-.018-.072-.036zm2.484.396v-.126h-.108zm-5.346.216a1.3 1.3 0 0 0-.27-.054v.198h.18a.12.12 0 0 0 .09-.036l.018-.072q0-.018-.018-.018zm4.788.198-.108-.054.054.126zm.936.576v-.27q0-.306-.144-.36l-.198.198q-.072.054-.072.198.018.234.414.234m-3.186-.45q-.342 0-.342.414v.054q.018.144.09.144t.144-.072a.7.7 0 0 0 .126-.18q.072-.108.072-.162t-.09-.198m2.304 1.368-.054-.072v.126zM62 12.976h.252v-.162q0-.036-.072-.054-.054-.018-.036-.018-.162 0-.162.126v.072q.018.018.018.036m-1.782 0h-.126v.216h.126zm-.612.126v-.018h-.072l.072.576a.2.2 0 0 1 .018-.09.3.3 0 0 0 .018-.072q0-.018-.018-.126a1 1 0 0 0-.036-.162v-.054q0-.036.018-.054m.72.684q-.108-.162-.252-.162-.072 0-.072.108.036.036.054.144.036.09.108.09l.018-.018h.036l.09-.072q.018-.018.018-.09m-.72.234v.27h.054q.054 0 .054-.09v-.054q0-.018-.054-.072-.036-.054-.054-.054m1.386.342a2 2 0 0 0-.09-.252q-.036-.126-.144-.126t-.054.108a.35.35 0 0 1 .072.18q0 .09-.072.342a1.3 1.3 0 0 0-.072.36q0 .198.054.162t.108-.18q.072-.144.126-.324a.8.8 0 0 0 .072-.27m1.188.342-.054-.072v.144zM62 15.838q.162-.234.162-.414 0-.252-.126-.18a.7.7 0 0 0-.234.234 4 4 0 0 0-.198.378q-.072.198-.018.198.108 0 .234-.09a.7.7 0 0 1 .18-.126m-1.782-.126.108.288v-.162q0-.054-.018-.072v-.036q0-.018-.09-.018M84.144 1.816v.126h-.18v-.198q.162 0 .18.072m-.36 6.408q0 .054-.072.126a1 1 0 0 0-.09.072q0-.198.162-.198m-.972.27q0 .018.018.018v.036q0 .072-.126.198l-.324-.072q-.036-.018-.054.09t-.018.144v.252l-.072.018q-.162.036-.18-.162l-.018-.216q0-.162.036-.216t.09-.054a2 2 0 0 1 .126-.036.6.6 0 0 0 .198-.144l-.108-.414q.432.144.432.558m2.232 5.436q-.072 0-.144.072-.054-.018-.054-.108a.8.8 0 0 0-.072-.324.8.8 0 0 0-.162-.252q-.09-.09-.162-.054-.072.018-.072.252v.162q-.108 0-.324-.036a1.3 1.3 0 0 0-.306-.054q-.198 0-.342.198-.144.18-.216.18-.108 0-.216-.126-.09-.144-.414-.234-.09.036-.144.18a5 5 0 0 0-.072.288 2 2 0 0 1-.09.27q-.054.108-.162.108a.4.4 0 0 1-.18-.054q-.09-.054-.09-.198v-.234q0-.09-.108-.09-.018 0-.036.018h-.036q.072 0 .018.126t-.144.288-.18.306a2 2 0 0 1-.108.144l-.198-.09v-.108l.018-.036q.072-.288-.072-.27t-.198.252a9 9 0 0 1-.054.324q-.018.072-.054.072a.3.3 0 0 1-.09-.036q-.054-.054-.18-.054-.108 0-.306.054a1.3 1.3 0 0 1-.27.054q-.63 1.026-1.368 1.08-.252-.198-.648-.198h-.306a.93.93 0 0 1-.594-.198h-.072q0-.018-.018-.018-.36 0-.36.306 0-.036-.162-.162a1.7 1.7 0 0 0-.324-.252.65.65 0 0 0-.324-.108q-.144 0-.144.234 0 .198-.234.09a5 5 0 0 1-.414-.27 9 9 0 0 1-.216-.198l-.162.126q-.072.054-.09-.018 0-.072.018-.18t.036-.198a1 1 0 0 0 .036-.126q0-.018-.018-.036v-.036l.252.162q.036.036.072-.126t.036-.288v-.162q-.054-.018-.108-.108a2 2 0 0 0-.126-.216 1 1 0 0 0-.126-.198q-.072-.09-.162-.09-.198 0-.27-.09t.288-.09q.126 0 .126-.198t-.054-.432a6 6 0 0 0-.09-.486 2 2 0 0 1-.054-.324q0-.288.216-.54-.324-.18-.324-.396 0-.072.072-.198a2 2 0 0 1 .162-.27q.09-.126.162-.234t.072-.162q0-.162-.288-.288.324-.144.324-.432 0-.09-.036-.252a1.5 1.5 0 0 1-.036-.27q0-.288.396-.396a11 11 0 0 0-.108-.288 5 5 0 0 1-.036-.27q.036.198.108.198.126 0 .144-.126a1 1 0 0 0 .036-.252.92.92 0 0 0-.288-.702l.288-.306q.018.252.09.45.09.18.162.252.09.054.162-.036.09-.09.108-.378.018-.306.054-.486.054-.18-.144-.18-.27.054-.252-.072a.9.9 0 0 1 .144-.324q.144-.216.306-.432t.162-.342q0-.18-.126-.36l.054-.09.396.414q.216-.288.216-.648 0-.144-.054-.432a4 4 0 0 1-.036-.45q0-.468-.198-.558-.18-.09-.468-.09a.6.6 0 0 1-.306-.072l-.144-.342q.036.072-.054.036a1 1 0 0 1-.162-.162 2 2 0 0 1-.18-.252.5.5 0 0 1-.09-.27v-.072a2 2 0 0 0 .036-.126l.18-.09v.054q0 .018-.018.036v.018q0 .162.072.216.09.036.198.144h.054a.5.5 0 0 1 .126-.036l.162-.162v-.18q.036 0 .288.054.252.036.54.18.306.126.324.36.036.288.072.234.054-.054.144-.216.108-.18.252-.378a.45.45 0 0 1 .378-.198V1.6q.072 0 .144.144.09.144.162.324.072.162.126.306.072.144.126.144.09 0 .126-.09a.6.6 0 0 1 .144-.198v-.072a1 1 0 0 0-.054-.198l-.036-.18q0-.108.198-.108h.216v.234q0 .108.108.108.09 0 .324-.162.234-.18.324-.18t.198.018h.216q.144 0 .288.234t.27.234q.198 0 .27-.126t.108-.216q.036-.108.108-.108.09-.018.306.198.054-.126.144-.108.108 0 .234.072.144.054.27.144a.6.6 0 0 0 .252.072q.342 0 .414-.126.09-.144.378-.144.324 0 .414.09.09.072.108.162.036.09.09.18.072.072.324.072.072 0 .216-.036.162-.036.234-.036t.18.054q.108.036-.234.036h-.288a8 8 0 0 0-.144.306q-.054.162-.126.306 0 .072.09.216l-.486-.414a.23.23 0 0 0-.126.216q0 .252-.036.288t-.108-.018a4 4 0 0 0-.18-.126.3.3 0 0 0-.216-.09l-.18.252-3.078-.036a1.5 1.5 0 0 0-.432.576q-.144.36-.234.774-.072.396-.126.846-.036.432-.108.81-.036.216-.18.468a17 17 0 0 1-.54.882q-.09.144-.054.162l.666-.324q-.036.018.09.27.144.234.306.234.108 0 .288-.18t.252-.18q0 .162.072.18h.036q.018 0 .018.018h.036q.126 0 .216-.144.09-.162.162-.162.126 0 .252.18.144.162.45.162.126 0 .234-.216.108 0 .306.216t.234.216q.126 0 .234-.27v-.072l.072-.018q.09-.036.18.108.108.144.108.252v.072q0 .162-.162.414-.144.252-.144.36 0 .396-.648.468-.63.072-1.764.072-.054 0-.216.09a.7.7 0 0 1-.216.072q-.108 0-.198-.162l-.342.18q.018 0 0-.018l-.018-.018V9.52l-.036-.036a.2.2 0 0 0-.036-.054l-.018-.018q-.072-.072-.198.288a9 9 0 0 0-.216.846q-.09.504-.162 1.026t-.054.774q0 .36.144.738-.27.27-.27.396v.072q0 .18.216.27.234.09.342.09.09 0 .342-.126.27-.144.558-.306.306-.162.594-.288.288-.144.45-.144.108 0 .36-.198.27-.216.414-.216.378 0 .756-.162.396-.18.774-.324t.738-.198q.36-.072.666-.072h.216q.036 0 .09.018h.09q-.018 0 .18.18.198.162.342.162l.072-.072q.486.234.486.81v.342l-.036.36v.09q.018.054.036.162m-4.932 1.494h-.144l.18-.342q-.018.018 0 .108a.3.3 0 0 1 .036.09q0 .09-.072.144M76.386 2.68l-.162-.342v.558zm1.17 0h-.108l.036.144q0-.018.036-.072zm.486.81h.18v-.072q0-.036-.036-.054l-.018-.018-.054.018q-.072.018-.072.126m-.666.774.18-.108q0-.018.018-.036v-.054q0-.162-.288-.45t-.54-.288q-.162 0-.144.09t.09.198l.18.18q.09.09.072.09a.4.4 0 0 0 .18-.054v.18l.036-.018q.018 0 .216.27m-.396.306.144.108.036-.072q.018-.054-.072-.036zm-.432.36v.486h.162v-.18q0-.306-.162-.306m-.09 1.494v-.198l-.162.198zm.324.81-.072-.072h-.072zm-.486 2.34v-.072q.018-.018.018-.036 0-.27-.198-.306l-.072.252q.162.162.252.162m-.99.36v-.09q.018-.018.018-.036 0-.288-.288-.396a1 1 0 0 0-.018.18v.144q0 .162.072.252.09.072.216-.054m1.926.234q0-.09-.036-.126l-.072-.108v.306q0-.036.054-.054.072-.018.054-.018m-.684-.072q-.036-.126-.072-.09a.25.25 0 0 0-.018.108.2.2 0 0 0 .018.09q.018.036.072-.108m-1.17.396q-.27.054-.342.396h.126q.036 0 .09-.072.054-.09.072-.126l.018-.018q.036-.144.036-.18m.522 1.08-.27.18q-.054.036 0 .108l.072.072q.144 0 .144-.126 0-.216.054-.234m-.27 2.034h-.18v.144q.18 0 .18-.144m3.132.468h.054q.018 0 .018-.072.018-.09.018-.054 0-.036-.198-.108-.198-.09-.198.126 0 .09.054.09.072 0 .126.036h.072q.036 0 .054-.018m.216.774.072-.018v-.234l-.108-.09h-.09q-.018-.018-.036-.018 0 .36.162.36M96.264 1.816v.126h-.18v-.198q.162 0 .18.072m-.36 6.408q0 .054-.072.126a1 1 0 0 0-.09.072q0-.198.162-.198m-.972.27q0 .018.018.018v.036q0 .072-.126.198l-.324-.072q-.036-.018-.054.09t-.018.144v.252l-.072.018q-.162.036-.18-.162l-.018-.216q0-.162.036-.216t.09-.054a2 2 0 0 1 .126-.036.6.6 0 0 0 .198-.144l-.108-.414q.432.144.432.558m2.232 5.436q-.072 0-.144.072-.054-.018-.054-.108a.8.8 0 0 0-.072-.324.8.8 0 0 0-.162-.252q-.09-.09-.162-.054-.072.018-.072.252v.162q-.108 0-.324-.036a1.3 1.3 0 0 0-.306-.054q-.198 0-.342.198-.144.18-.216.18-.108 0-.216-.126-.09-.144-.414-.234-.09.036-.144.18a5 5 0 0 0-.072.288 2 2 0 0 1-.09.27q-.054.108-.162.108a.4.4 0 0 1-.18-.054q-.09-.054-.09-.198v-.234q0-.09-.108-.09-.018 0-.036.018h-.036q.072 0 .018.126t-.144.288-.18.306a2 2 0 0 1-.108.144l-.198-.09v-.108l.018-.036q.072-.288-.072-.27t-.198.252a9 9 0 0 1-.054.324q-.018.072-.054.072a.3.3 0 0 1-.09-.036q-.054-.054-.18-.054-.108 0-.306.054a1.3 1.3 0 0 1-.27.054q-.63 1.026-1.368 1.08-.252-.198-.648-.198h-.306a.93.93 0 0 1-.594-.198h-.072q0-.018-.018-.018-.36 0-.36.306 0-.036-.162-.162a1.7 1.7 0 0 0-.324-.252.65.65 0 0 0-.324-.108q-.144 0-.144.234 0 .198-.234.09a5 5 0 0 1-.414-.27 9 9 0 0 1-.216-.198l-.162.126q-.072.054-.09-.018 0-.072.018-.18t.036-.198a1 1 0 0 0 .036-.126q0-.018-.018-.036v-.036l.252.162q.036.036.072-.126t.036-.288v-.162q-.054-.018-.108-.108a2 2 0 0 0-.126-.216 1 1 0 0 0-.126-.198q-.072-.09-.162-.09-.198 0-.27-.09t.288-.09q.126 0 .126-.198t-.054-.432a6 6 0 0 0-.09-.486 2 2 0 0 1-.054-.324q0-.288.216-.54-.324-.18-.324-.396 0-.072.072-.198a2 2 0 0 1 .162-.27q.09-.126.162-.234t.072-.162q0-.162-.288-.288.324-.144.324-.432 0-.09-.036-.252a1.5 1.5 0 0 1-.036-.27q0-.288.396-.396a11 11 0 0 0-.108-.288 5 5 0 0 1-.036-.27q.036.198.108.198.126 0 .144-.126a1 1 0 0 0 .036-.252.92.92 0 0 0-.288-.702l.288-.306q.018.252.09.45.09.18.162.252.09.054.162-.036.09-.09.108-.378.018-.306.054-.486.054-.18-.144-.18-.27.054-.252-.072a.9.9 0 0 1 .144-.324q.144-.216.306-.432t.162-.342q0-.18-.126-.36l.054-.09.396.414q.216-.288.216-.648 0-.144-.054-.432a4 4 0 0 1-.036-.45q0-.468-.198-.558-.18-.09-.468-.09a.6.6 0 0 1-.306-.072l-.144-.342q.036.072-.054.036a1 1 0 0 1-.162-.162 2 2 0 0 1-.18-.252.5.5 0 0 1-.09-.27v-.072a2 2 0 0 0 .036-.126l.18-.09v.054q0 .018-.018.036v.018q0 .162.072.216.09.036.198.144h.054a.5.5 0 0 1 .126-.036l.162-.162v-.18q.036 0 .288.054.252.036.54.18.306.126.324.36.036.288.072.234.054-.054.144-.216.108-.18.252-.378a.45.45 0 0 1 .378-.198V1.6q.072 0 .144.144.09.144.162.324.072.162.126.306.072.144.126.144.09 0 .126-.09a.6.6 0 0 1 .144-.198v-.072a1 1 0 0 0-.054-.198l-.036-.18q0-.108.198-.108h.216v.234q0 .108.108.108.09 0 .324-.162.234-.18.324-.18t.198.018h.216q.144 0 .288.234t.27.234q.198 0 .27-.126t.108-.216q.036-.108.108-.108.09-.018.306.198.054-.126.144-.108.108 0 .234.072.144.054.27.144a.6.6 0 0 0 .252.072q.342 0 .414-.126.09-.144.378-.144.324 0 .414.09.09.072.108.162.036.09.09.18.072.072.324.072.072 0 .216-.036.162-.036.234-.036t.18.054q.108.036-.234.036h-.288a8 8 0 0 0-.144.306q-.054.162-.126.306 0 .072.09.216l-.486-.414a.23.23 0 0 0-.126.216q0 .252-.036.288t-.108-.018a4 4 0 0 0-.18-.126.3.3 0 0 0-.216-.09l-.18.252-3.078-.036a1.5 1.5 0 0 0-.432.576q-.144.36-.234.774-.072.396-.126.846-.036.432-.108.81-.036.216-.18.468a17 17 0 0 1-.54.882q-.09.144-.054.162l.666-.324q-.036.018.09.27.144.234.306.234.108 0 .288-.18t.252-.18q0 .162.072.18h.036q.018 0 .018.018h.036q.126 0 .216-.144.09-.162.162-.162.126 0 .252.18.144.162.45.162.126 0 .234-.216.108 0 .306.216t.234.216q.126 0 .234-.27v-.072l.072-.018q.09-.036.18.108.108.144.108.252v.072q0 .162-.162.414-.144.252-.144.36 0 .396-.648.468-.63.072-1.764.072-.054 0-.216.09a.7.7 0 0 1-.216.072q-.108 0-.198-.162l-.342.18q.018 0 0-.018l-.018-.018V9.52l-.036-.036a.2.2 0 0 0-.036-.054l-.018-.018q-.072-.072-.198.288a9 9 0 0 0-.216.846q-.09.504-.162 1.026t-.054.774q0 .36.144.738-.27.27-.27.396v.072q0 .18.216.27.234.09.342.09.09 0 .342-.126.27-.144.558-.306.306-.162.594-.288.288-.144.45-.144.108 0 .36-.198.27-.216.414-.216.378 0 .756-.162.396-.18.774-.324t.738-.198q.36-.072.666-.072h.216q.036 0 .09.018h.09q-.018 0 .18.18.198.162.342.162l.072-.072q.486.234.486.81v.342l-.036.36v.09q.018.054.036.162m-4.932 1.494h-.144l.18-.342q-.018.018 0 .108a.3.3 0 0 1 .036.09q0 .09-.072.144M88.506 2.68l-.162-.342v.558zm1.17 0h-.108l.036.144q0-.018.036-.072zm.486.81h.18v-.072q0-.036-.036-.054l-.018-.018-.054.018q-.072.018-.072.126m-.666.774.18-.108q0-.018.018-.036v-.054q0-.162-.288-.45t-.54-.288q-.162 0-.144.09t.09.198l.18.18q.09.09.072.09a.4.4 0 0 0 .18-.054v.18l.036-.018q.018 0 .216.27m-.396.306.144.108.036-.072q.018-.054-.072-.036zm-.432.36v.486h.162v-.18q0-.306-.162-.306m-.09 1.494v-.198l-.162.198zm.324.81-.072-.072h-.072zm-.486 2.34v-.072q.018-.018.018-.036 0-.27-.198-.306l-.072.252q.162.162.252.162m-.99.36v-.09q.018-.018.018-.036 0-.288-.288-.396a1 1 0 0 0-.018.18v.144q0 .162.072.252.09.072.216-.054m1.926.234q0-.09-.036-.126l-.072-.108v.306q0-.036.054-.054.072-.018.054-.018m-.684-.072q-.036-.126-.072-.09a.25.25 0 0 0-.018.108.2.2 0 0 0 .018.09q.018.036.072-.108m-1.17.396q-.27.054-.342.396h.126q.036 0 .09-.072.054-.09.072-.126l.018-.018q.036-.144.036-.18m.522 1.08-.27.18q-.054.036 0 .108l.072.072q.144 0 .144-.126 0-.216.054-.234m-.27 2.034h-.18v.144q.18 0 .18-.144m3.132.468h.054q.018 0 .018-.072.018-.09.018-.054 0-.036-.198-.108-.198-.09-.198.126 0 .09.054.09.072 0 .126.036h.072q.036 0 .054-.018m.216.774.072-.018v-.234l-.108-.09h-.09q-.018-.018-.036-.018 0 .36.162.36m19.59-12.924.018.072q.036.09-.108.252h-.09v-.054q0-.018-.018-.018v-.018q0-.09.09-.144.108-.072.108-.09m.216 1.134-.144-.378h.144zm-8.1 0 .144.396a1.4 1.4 0 0 0-.09-.234.6.6 0 0 1-.054-.162m.144.396.036.108q-.018-.018-.018-.054t-.018-.054m.072.234-.036-.126q.036.18.036.126m7.812 3.528v.072h-.108q.018 0 .054-.036t.054-.036m.252-1.188v.036a2 2 0 0 0-.18-.108 9 9 0 0 0-.342-.216l-.162-.108a.17.17 0 0 0-.126.054.6.6 0 0 0-.144.198q.054.072.126.072.18-.072.252-.126l.108.522a1 1 0 0 0-.18-.018.3.3 0 0 0-.072-.018q-.18 0-.198.126a.7.7 0 0 0 .036.306q.054.162.126.36.09.18.126.288 0 .216-.108.324-.09.108-.144.162-.036.036.054.036h.504q0 .576-.486.576a.4.4 0 0 1-.126-.036.3.3 0 0 0-.162-.054.26.26 0 0 0-.054.162q0 .072.054.216a.7.7 0 0 1 .054.198h.054q.09 0 .162-.054.072-.072.126-.072.09 0 .054.072a.45.45 0 0 1-.09.162q-.072.09-.144.162t-.072.054q0 .09.144.36.162.27.162.396 0 .18-.396.252a.25.25 0 0 0-.072.252q.036.144.036.234.018.036-.126.252t-.324.522q-.162.288-.306.63a1.5 1.5 0 0 0-.144.594q0 .144-.09.414a1.6 1.6 0 0 0-.072.342q0 .234.234.36.126-.684.216-1.008.108-.342.486-.72v.396q0 .972-.558 1.26a22 22 0 0 0-.162.558q-.09.306-.216.72l-.126.378.054.63q-.018-.072-.288-.126-.252-.072-.27-.252l-.324.216a.85.85 0 0 1-.324.108q-.09 0-.324-.108-.216-.108-.216-.306 0-.054.054-.216a.9.9 0 0 0 .054-.234q0-.144-.198-.234v-1.368q0 .018.054-.018.072-.036.072-.054v-.126q0-.234-.036-.27l-.288.324a.5.5 0 0 1-.198-.288 7 7 0 0 1-.018-.594q0 .036-.198-.198a9 9 0 0 1-.432-.558q-.234-.342-.432-.684t-.216-.522l-2.286-3.6-.252.27q.072-.072.072-.216l-.072-.144a8 8 0 0 0-.18-.468q-.288.144-.306.378v.522q0 .486-.45.612l.072-.018q.09-.036.27.216t.252.27q.09 0 .234-.144v-.468q0-.36.09-.234a.48.48 0 0 1 .108.324q0 .198-.27.972a.95.95 0 0 0-.36.306.8.8 0 0 0-.144.45q0 .09.126.162h.234q.144 0 .09.126a2 2 0 0 1-.18.306q-.126.18-.252.378t-.126.324q-.702.522-.702 1.296 0 .234.036.414.054.18.054.288 0 .558-.288 1.008l.252.666q.108.306.108.522 0 .288-.18.522.054.072.18.072t.144.018l-.072.396q-.432-.648-.432-.9v-.396q0-.144-.36.018-.126.054-.216.27a20 20 0 0 0-.144.45 2 2 0 0 1-.18.396q-.09.18-.252.18-.072 0-.162-.09h-.324q.018-.126.018-.18v-.108q0-.09-.09-.18l-.054-.018q-.108-.036-.252.108a6 6 0 0 0-.252.27q-.108.126-.18.198t-.072-.09q0-.054.072-.162.09-.108.18-.234.09-.144.162-.27a.4.4 0 0 0 .09-.234l-.144-.126q-.018-.018-.09.054a3 3 0 0 0-.162.18q-.072.09-.162.18-.09.072-.162.072h-.072q-.018 0-.036-.072a1 1 0 0 1-.018-.126q0-.342.036-.45a2 2 0 0 0 .036-.468q0-.198.108-.126a.6.6 0 0 0 .18.054q.09 0 .09-.09a.45.45 0 0 0-.054-.198 1 1 0 0 0-.09-.198.4.4 0 0 1-.036-.126q0-.144.054-.378.072-.252.072-.432-.018-.054.054-.162l.144-.216q.09-.126.144-.234.072-.108.036-.144v-.036l-.072-.072-.108.126.558-3.006q0-.018.162-.09t.162-.216l-.072-.072q.018-.018.108-.09a1.4 1.4 0 0 0 .216-.18q.126-.108.126-.126l-.378-.054v-.378l.378-.054a.9.9 0 0 1-.216-.558q0-.144.036-.342.054-.198.108-.432 0-.072.144-.162t.144-.162q0 .054-.036-.126l-.252-.072q.432-.504.432-.954 0-.18-.09-.288a.4.4 0 0 1-.09-.27q0-.234.108-.396a3 3 0 0 1 .198-.27.5.5 0 0 0 .126-.234q.036-.108-.108-.216h-.252q0-.306-.144-.828a.23.23 0 0 0 .108-.198q0 .054-.036-.126h.252q-.018 0 .018.054t.072.072l.126.144q.054.072.198-.036a1 1 0 0 0 .162-.162v-.072h.108q-.054 0-.09.18a1 1 0 0 1-.036.144q0 .126.18.378.198.252.198.45l.144.108q.036.036.09-.126.054-.18.054-.252a.6.6 0 0 0-.036-.198 1 1 0 0 0-.036-.162l-.072-.054.072-.018q.162-.036.234.342t.27.756q0 .072-.072.216-.054.126.036.126.072 0 .18-.126t.144-.126q.18.108.216.234t.072.234a.35.35 0 0 0 .144.18q.108.072.432.072.306 0 .342-.252.126.036.162.198.036.144.036.288 0 .36.09.486a.4.4 0 0 0 .216.162l.234.036q.108 0 .162.144l.288.864q.144.378.288.378.036 0 .09-.108l.126-.216q.054-.108.09-.108.036-.018.036.198 0 .072.09.162v.054q0 .108-.144.27-.126.162-.126.198 0 .108.162.216l.234-.216q.018-.036.036.072t.018.252v.288q0 .378.144.324a.7.7 0 0 1 .324-.072q.18 0 .144.216a4 4 0 0 0-.018.342q0 .216.072.648.072.414.072.63 0 .252-.018.288l.018.072q0-.036.054-.198t.144-.342.198-.324.216-.144h-.09v-.144h.09q.018 0 .018.09.018.09.018.072 0 .126-.054.36-.036.234-.036.342 0 .126.036.216t-.072.036l-.018-.018h-.036q-.108-.036-.126.036a.5.5 0 0 0 0 .18q.018.108.054.216.036.09.036.126l-.036.144q.234.162.414.162.036 0 .054-.018h.054q.072 0 .09-.09a.4.4 0 0 0 .036-.126.44.44 0 0 0-.072-.198.5.5 0 0 1-.072-.162q0-.126.18-.198l.396-.09q-.054-.234-.126-.252l-.198.108.126-1.008q0 .054.108.18t.144.126q.018 0 .018-.018h.036q.036 0 .054-.054a1 1 0 0 0 .018-.09q0-.054-.144-.252-.144-.216-.144-.324 0-.144.018-.252.036-.108.036-.324 0-.144.054-.45.072-.324.072-.486l.18-.216q0-.288-.036-.846a28 28 0 0 1-.018-.828q0-1.242.306-2.016-.198-.252-.198-.756v-.63q0-.252.072-.306.072-.072.072-.252a.5.5 0 0 0-.054-.234l-.036-.072a1 1 0 0 1-.108-.216q.054 0 .108.126a4 4 0 0 1 .144.234 4 4 0 0 0 .144.234q.072.108.126.108a.45.45 0 0 0 .18-.072v.414a.67.67 0 0 0 .144.432q.144.18.504.18l.018-.018h.036q.018 0 .018-.09.018-.108.018-.144v-.396h.144q0 .828.486 1.134l-.036.486-.09-.036q-.018 0-.036.072v.072q0 .09.072.27.09.18.09.27l.072.018q.054.018.306-.198.144.036.144.252v.378q-.162 0-.198.036-.018.036.018.144.054.108.108.306.054.18.054.486v.036q0 .018.144.144t.144.198q0 .018-.018.036m-8.892 6.246h-.09l.09-.216.054.054zm-1.278 3.96-.09-.108h.09zm6.876.522v-.144h.072v.144zm-6.876-13.698h-.108v.054h.108zm.558.702-.09.306h.054q.018 0 .036-.072a.6.6 0 0 1 .036-.108v-.054l.018-.018q.018-.018-.018-.036-.018-.018-.036-.018m8.982.792q-.036-.054-.072-.054l-.054.018q-.126.036-.126.09 0 .036.054.072a.22.22 0 0 0 .126 0q.072-.018.072-.126m.054.702.036.018h.108q.018 0-.018-.054a.5.5 0 0 1-.018-.144h-.162l-.018.072q0 .09.072.108m-6.372.306h-.144v.198h.144zm-2.664-.162h-.09l.036.396q0-.054.054-.144.072-.09.072-.108 0-.072-.072-.144m-.666 1.26V6.46h-.054a.18.18 0 0 0-.108.072.2.2 0 0 1-.036.054v.036q0 .108.072.072a.3.3 0 0 1 .126-.036m3.78-.144h-.198v.144h.144q.018 0 .036-.054a1 1 0 0 0 .018-.09m-4.266.288h-.108v.108h.108zm1.224.036h-.054q0-.018-.018-.018-.234 0-.234.198h.018q.018.018.036.018.072 0 .162-.09t.09-.108m.522.126q0-.198-.018-.216t-.072.054q-.036.072-.09.216a6 6 0 0 1-.108.27h.144q.072 0 .108-.108a.8.8 0 0 0 .036-.216m7.974.252.09.324.054-.072v-.054q.018 0 .018-.018 0-.036-.162-.18m-9.126.396h-.108v.108zm1.152.882h-.144v.234h.144zm-.576.396v-.054l-.018-.036h-.018q-.018 0-.036-.018h-.054q-.144 0-.252.144a.4.4 0 0 0-.108.252q0 .126.072.126a.45.45 0 0 0 .162-.09q.108-.09.18-.18.072-.108.072-.144m8.154.468-.198-.234.108.324zm-7.542.954q-.216-.144-.234-.468a2.4 2.4 0 0 1 0-.432q0-.27-.036-.288-.036-.036-.072.072-.036.09-.072.252a1.4 1.4 0 0 0-.036.288q0 .324.108.648h.198q.09 0 .144-.072m7.884-.252.036-.036a.2.2 0 0 0 .036-.054v-.072q0-.072-.144-.108a1.5 1.5 0 0 1-.234-.126 1 1 0 0 1-.036.09v.018q0 .216.342.288m-10.404.072v.108h.216v-.072q0-.036-.216-.036m1.854.18v.486h.108a1 1 0 0 0 .018-.144v-.072q0-.252-.126-.27m5.994 1.26h-.072v.252h.072zm-6.282 1.26q-.18-.072-.18-.306a1.5 1.5 0 0 1 .054-.396q.054-.216-.198-.306.234-.288.234-.684 0-.144-.054-.45a4 4 0 0 1-.036-.45.66.66 0 0 0-.18.486q0 .126.054.378t.054.378q0 .378-.468.54l.486.036v.054l.018.036q.036.072-.054.144a.5.5 0 0 1-.126.072l-.018.144a.4.4 0 0 0 .018.198q.054.108.072.198a.2.2 0 0 1 0 .162q-.036.072-.216.072-.216 0-.198.198.036.18.144.36.126.18.252.234.144.054.144-.216l-.108-.054a1 1 0 0 0-.198-.126q-.09-.072-.108-.126-.018-.072.144-.072a.6.6 0 0 1 .144.036.9.9 0 0 0 .234.036q.126-.072.126-.234l-.018-.09a1 1 0 0 1-.018-.144zm7.398-.558-.054-.126q-.036-.126-.09-.126v.306q0 .018.072-.018zm-1.386.702h.072v-.846q-.144.144-.144.45 0 .108.036.234a1 1 0 0 1 .036.162m-7.758-.288-.162.45h.342l.018-.072q.018-.054-.09-.198t-.108-.18m9.108 1.548-.018-.072q0-.036-.072-.054-.054-.036-.018-.036l-.018.018q-.09.072-.162.054-.054-.018-.054.162 0 .054.072.108h.072q.018 0 .108-.072t.09-.108m-.72 0q-.054-.072-.126-.072-.054 0-.126.072-.072.054-.072.18h.198q.018 0 .072-.09zm-6.876.252-.252-.252v.252zm-1.512.234v-.072l-.072-.072zm9.018.306-.018-.018v-.036q0 .036-.09.09-.09.036-.09.09v.018q.072.072.126-.054.072-.126.072-.09m-.432.504q-.018-.054-.072-.054h-.018q-.018.018-.036.018l.054.162q0 .018.036-.036a.3.3 0 0 0 .036-.09m23.362-13.86-.072.072-.036-.108q.018.036.072.036zm1.224.612-.072-.108h.108l.018.018q0 .036-.054.09m-.072.81h-.072l.144-.198q-.054.072-.018.126t-.054.072m.45.27v.216q0 .018-.09-.054-.09-.09-.108-.09 0-.09.09-.126h.054q.018 0 .054.054m-10.656 1.602-.18.216-.072-.216zm10.602 8.1.054.09-.018-.018zm-.468-1.098v-.054q0 .054.054.216.054.144.126.324.09.18.162.36.072.162.126.252l-.144-.252q-.054.054-.108.252-.054.18-.126.396a1.7 1.7 0 0 1-.18.36q-.108.162-.252.18v-.126q0-.234-.108-.108a1.4 1.4 0 0 0-.198.324l-.108.216-2.178 1.26-.108-.108a1.4 1.4 0 0 0-.126-.144l.072-.09-.108-.144q-.108 0-.234.144-.108.126-.234.288-.108.162-.216.306-.09.126-.144.126-.306-.072-.396-.162t-.18-.09-.342.198l-.108.072q-.054.036-.126-.18-.054-.216-.234-.216-.09 0-.342.216t-.396.216a.4.4 0 0 1-.144-.018l-.522-.36a.77.77 0 0 0-.432-.144.7.7 0 0 0-.27.054q-.126.036-.126-.27 0-.18.126-.486t.144-.432q.036-.072.27-.144.252-.09.252-.306.756.198 1.44.198.9 0 3.204-.54l.36-.396q-.036.036.036.054.09.018.144.018a.6.6 0 0 0 .018-.144q.018-.09.054-.198-.162-.036-.252-.27t-.18-.504a3 3 0 0 0-.18-.522q-.108-.252-.288-.306-.09.072-.162.342-.072.252-.18.342a.43.43 0 0 0-.252-.288 2.3 2.3 0 0 0-.432-.18 9 9 0 0 1-.432-.144q-.198-.072-.252-.216l-.072-.018q-.036-.018-.126.072a.6.6 0 0 0-.126.126 4 4 0 0 0-.486-.234q-.288-.126-.684-.27a.24.24 0 0 0-.108.09l-.054.108q-.018.036-.036.018a.7.7 0 0 1-.018-.216q0-.18-.216-.252a2.2 2.2 0 0 0-.45-.144 20 20 0 0 1-.45-.144q-.198-.09-.198-.288a.29.29 0 0 0-.234-.108.9.9 0 0 0-.252.054 1.3 1.3 0 0 1-.252.036l-.072-.018-.27-.396a4.5 4.5 0 0 0-.486-.666q-.252-.306-.252-.072 0 .288-.072.306h-.054q-.018 0-.036.018h-.036q-.486 0-.54-.342l-.072-1.152-.684.072q0-.108-.054-.324a3 3 0 0 1-.036-.342q0-.09.126-.198a2.4 2.4 0 0 0 .252-.216.46.46 0 0 0 .144-.234q.036-.126-.198-.216-.36 0-.414.252v.144a.9.9 0 0 0-.09-.216.9.9 0 0 1-.072-.234q0-.036.018-.054v-.018q.018.036.144.054h.144q.378 0 .378-.342l.144-.144q.162.306.306.306h.054q.072 0 .09-.072a.3.3 0 0 0 .036-.144v-.216q-.324-.018-.324-.396 0-.126.054-.396a2.6 2.6 0 0 0 .054-.432h.252l.072.486h.342q0 .126.072.144h.198q.036 0 .054-.144.036-.144.036-.18 0-.36.126-.486l.414.18h-.162q-.018 0-.036.09a1 1 0 0 0-.018.09q0 .108.09.234.108.108.234.144v1.206q.324-.054.45-.234t.36-.63a.19.19 0 0 0-.18-.108l-.234-.036a.44.44 0 0 1-.198-.144q-.09-.108-.09-.432v-.054q.018-.054.036-.144h.198q.018 0 .018-.054a.3.3 0 0 0 .018-.072.6.6 0 0 0-.054-.198 2 2 0 0 1-.036-.162q0-.09.054-.162h.144l-.018.108q-.018.072.072.144t.198.18h.072q.09 0 .144-.09a.37.37 0 0 0 .072-.198.4.4 0 0 0-.054-.18.4.4 0 0 1-.054-.162q0-.234.234-.234.198.054.324.072t.126.144q0 .072-.144.198a.65.65 0 0 0-.198.306q.018.018.234.018.342 0 .576-.144.252-.162.252-.378 0-.27-.432-.504l-.288.054.018-.036q0-.036-.054-.09h.018q.414-.072.666-.252.27-.198.27-.036 0 .072-.09.198a.7.7 0 0 0-.072.144q0 .288.18.198.18-.108.378-.342a4 4 0 0 0 .378-.468q.18-.252.162-.252.018 0 .288.09 0-.27.126-.108.144.144.306.378.18.234.306.342.144.108.144-.27V2.14q0-.162.198-.198l.09.558q0 .018.054.036h.09q.072 0 .144-.09.072-.108.126-.234.072-.126.144-.216.072-.108.144-.108.018 0-.036.144a1 1 0 0 0-.036.216q0 .198.18.198l.036-.018h.072q.072 0 .198-.126a.4.4 0 0 1 .306-.144h.27q.09 0 .342.108t.396.108q.306 0 .306.432 0 .036-.018.054v.036q0 .036-.108.126a.32.32 0 0 0-.09.234q.072.018.216.162a.9.9 0 0 0 .288.162q-.09.018-.144.036h-.072q-.126 0-.378-.036a2 2 0 0 0-.36-.054 1 1 0 0 0-.54.162l-.18-.252a3 3 0 0 1-.18.162q-.108.09-.252.234-.234.18-.414.18-.252 0-.252-.432 0-.234.054-.234a.2.2 0 0 1 .144.018q.09.036.144.036.072 0 .072-.216V2.95q0-.072-.09-.09a.4.4 0 0 0-.162-.036h-.306q-.234 0-.324.18a.7.7 0 0 0-.072.288q0 .09.036.27t.036.27q0 .342-.414.432l-.144-.288q.018.036-.108.072-.126.018-.288.036-.162 0-.306.018h-.162q-.036 0-.054.09v.27q0 .18-.054.234l-.144-.342q-.18 0-.252.108l-.198.234a2.3 2.3 0 0 1-.288.27q-.234.18-.504.396-.252.198-.468.378t-.234.234l-.342-.054q-.252.648-.252 1.08 0 .252.018.27 0 .144.162.378.162.216.342.414t.306.324q.144.126.09.072.576.522 1.044.522.234 0 .45.09t.666.216q.072.036.072.252.018.198.252.198.162 0 .36-.198l.36.45q.054-.252.414-.252.252 0 .36.216a.43.43 0 0 0 .396.216q.072 0 .198-.018t.198-.018q.108 0 .27.126.18.126.396.324.216.18.432.432.234.234.432.45v.18q0 .234.108.504.126.252.216.252.108 0 .108-.36 0-.054-.018-.072m-8.046 3.042v.414q-.144 0-.144-.216 0-.162.144-.198m6.12-12.402v.288h.072q-.018 0-.018-.144t-.054-.144m-2.592.342h.144v-.126h-.036l-.018-.018q-.018-.018-.054.054a.2.2 0 0 0-.036.09m-4.122 2.646q-.018-.036-.108-.09a.5.5 0 0 0-.126-.072q-.054-.018-.054.018.018.036.162.18h.036a.12.12 0 0 0 .09-.036m-.666.252-.396.432a.46.46 0 0 1 .216-.108q.162-.036.252-.216V5.92q0-.054-.072-.072m-.486.936h-.126v.072h.126zm2.088.81q.018-.018.018-.18 0-.45-.36-.774 0 .792.342.954M123.034 8.8v-.828h-.072q-.018 0-.072.27a1.7 1.7 0 0 1-.054.288q0 .18.198.27m8.496 2.304h-.108v.108h.108zm-5.202 4.464q-.108-.108-.144-.018a1 1 0 0 0-.054.126h.126q.036 0 .054-.054.018-.072.018-.054m9.735-7.092-.072.036q-.036 0-.036-.072 0-.144.09-.252.09-.126.09.09a.44.44 0 0 1-.072.198m5.562 0q0 .198-.036.234l-.054-.306q0 .018.036.036a.2.2 0 0 1 .054.036m3.456 8.172q-.36.306-.36.504-.018 0-.036-.108a3 3 0 0 0-.054-.216 1 1 0 0 0-.054-.198q-.036-.09-.09-.09a.3.3 0 0 0-.216.09q-.072.09-.126.198a1 1 0 0 1-.126.216q-.054.09-.18.09-.252 0-.684-.864v-.09q.018 0 .018-.018 0-.18-.162-.504-.144-.324-.144-.504-.126-.036-.216-.216a4 4 0 0 1-.162-.378 3 3 0 0 0-.162-.396q-.09-.198-.216-.252 0-.414-.288-.828a16 16 0 0 0-.522-.756l-.09-.144-.018-.018q0-.018-.054.036h-.054a.8.8 0 0 1-.342-.072q-.162-.09-.468-.09-.162 0-.504-.072a2.5 2.5 0 0 0-.486-.072q-.252 0-.504.144-.054-.216-.18-.216-.126-.018-.27.09a1.5 1.5 0 0 0-.252.288.75.75 0 0 0-.144.342l-.198 1.134a6 6 0 0 1-.198-.27q-.126-.198.036-.144h.036q.036 0 .072-.036l.072-.144q.018-.036-.036-.162a1.6 1.6 0 0 0-.108-.27 1.2 1.2 0 0 0-.126-.252 1 1 0 0 1-.054-.144q0-.18.306-.288 0-.144-.072-.198-.216 0-.306.108a.5.5 0 0 0-.126.234.7.7 0 0 0-.018.27q.018.144.018.216 0 .162-.108.54t-.108.54q0 .342.36.594l-.144.432-.144.432q-.198.522-.45.792-.144-.252-.27-.252-.054 0-.252.144t-.324.144q-.144 0-.27-.162a1.2 1.2 0 0 1-.162.234h-.126v-.09q0 .162-.126.108a.6.6 0 0 1-.234-.162 1.8 1.8 0 0 1-.216-.306q-.072-.18-.018-.27l.216-.108a6.327 6.327 0 0 1-.306-.378q-.09-.144-.09-.198 0-.09.09-.324a.6.6 0 0 1 .378-.324q.198.162.306.054a.33.33 0 0 0 .108-.234q0-.126-.144-.36-.126-.252-.126-.342 0-.18.054-.432t.144-.486q.09-.252.216-.432t.27-.216a7 7 0 0 1-.234-.306.46.46 0 0 1-.09-.27q0-.288-.144-.45a.64.64 0 0 1-.144-.414l.144-.108q.144-.126.324-.27l.324-.288q.162-.144.18-.144v-.234h.018q.018-.018.036-.018h.036q.18.054.378.036.216-.018.216-.504a.9.9 0 0 0-.108-.378q-.09-.216-.162-.378a.7.7 0 0 1-.036-.288q.036-.108.288-.072 0-.018.018-.036a.14.14 0 0 0 .018-.054q0-.072-.072-.144l-.09-.144a.2.2 0 0 0 .018-.072.3.3 0 0 1 .054-.072l.342-.198-.252-.252a.27.27 0 0 0-.144-.072.5.5 0 0 0-.126-.018q.036-.162.054-.378l.036-.396h.144q0 .126-.018.216t.18.09q.072 0 .324-.09t.324-.27v-.18q0-.036-.054-.036a.3.3 0 0 0-.072-.018q-.036 0-.162.108-.126.09-.198.09h-.054q.018 0 .018-.18a4 4 0 0 0 .018-.396q.018-.216.018-.396.018-.18.054-.18h.072q.036 0 .072.072l.072.108a.5.5 0 0 0-.108.162v.036q.018-.108.18-.09.18.018.198-.198 0-.108-.108-.342-.09-.234-.09-.342 0-.144.144-.342V3.22q0-.18-.126-.126a.5.5 0 0 1-.234.054q.09-.162.234-.396.162-.234.342-.45.18-.234.342-.396.18-.162.306-.162a.7.7 0 0 1 .216.054.9.9 0 0 0 .234.054h.072q.144 0 .288.162.162.162.324.162.144 0 .252-.054l.018.072q.036.126.144.288.126.162.126.486v.27q0 .234-.054.378-.036.126-.108.342 0 .09.09.162t.198.198a.9.9 0 0 1 .216.306q.09.198.09.558 0 .684.234 1.314v.036q0 .018-.018.018v.018q0 .288.198.288.054 0 .126-.072l.036-.036a.6.6 0 0 0-.054.18 1 1 0 0 0-.018.162q0 .144.09.468.108.306.108.45a.76.76 0 0 1-.108.396q.072.054.126.252.072.18.126.396t.108.396q.054.162.108.162.108 0 .288-.162h.072q.018 0 .018.108v.072q0 .342-.378.666.144.09.162.09.108 0 .126-.018l.144-.018q.09-.018.198.108.126.108.234.252t.18.27.108.126q.162 0 .288-.324a.4.4 0 0 0 .126.216q.126.09.252.216t.216.27a.43.43 0 0 1 .108.288q-.054 0-.162-.072l-.198-.198a1.3 1.3 0 0 0-.18-.18q-.072-.09-.108-.09-.234 0-.27.09t.018.216q.054.108.126.234.09.126.09.18 0 .09-.162.162h-.126q0-.252-.09-.342h-.144q-.018 0-.036.09v.108q0 .288.27.45l.072-.072q.054-.054.126.09t.072.126a.6.6 0 0 1-.072.18.6.6 0 0 0-.072.198q0 .126.18.198.216-.018.216-.252v-.036q.144.702.504 1.242l-.054.036.126.198a23 23 0 0 1 .612.882q.162.216.216.234 0 .234.162.612.18.396.198.594m-1.764-3.798-.018-.018v-.054.036q.018.018.018.036m-8.532-.306.036.072-.018.036q-.018.072-.162.072zm-.324.828v-.234h.054v.234zm.198.378-.018.018v.036h-.288l.054-.252q.072.036.162.072t.09.126m-.306 1.53q0 .072-.09.144a.3.3 0 0 0-.09.09q-.144 0-.144-.126 0-.09.09-.18.216 0 .234.072m3.096 0q0 .144-.108.342-.09.198-.09.018a.43.43 0 0 1 .198-.36m-3.24.702h-.09v-.18h.162v.108q0 .054-.072.072m3.546-13.392q-.144.036-.144.18 0 .054.054.108h.072l.018-.054.054-.108V2.68q0-.054-.054-.09m.918.288h-.126v.072h.126zm.054 2.862v-.486q-.09 0-.198.108a2 2 0 0 0-.18.252q-.09.126-.162.252a1 1 0 0 0-.054.144q0 .108.054.072t.144-.108q.09-.09.198-.18t.198-.054m-1.26.54q-.09-.252-.216-.252h-.036q-.018 0-.018.018h-.018v.396q0-.018.144-.036.144-.036.144-.126m3.456 1.224-.054-.432q-.072-.036-.18-.288t-.216-.486a2 2 0 0 0-.162-.342q-.054-.126-.054.09 0 .09.108.27t.108.288a.24.24 0 0 1-.072.18l.18.54q.054.18.342.18m-2.79-.648h-.108v.072h.108zm-.378.882q-.054-.108-.144-.108-.162 0-.162.36.162.27.234.108a1 1 0 0 0 .072-.36m3.114.306h.162v-.126q0-.018-.036-.036l-.036-.018-.054.018a.12.12 0 0 0-.054.054v.09q.018 0 .018.018m-.666 2.502q.09-.396.09-.522 0-.18-.126-.54a10 10 0 0 0-.288-.756 16 16 0 0 0-.288-.738 2.6 2.6 0 0 1-.144-.486l-.036-.126a3 3 0 0 0-.054-.27.8.8 0 0 0-.072-.252q-.054-.126-.108-.126-.144 0-.288.252-.126.234-.126.36 0 .036.018.054v.054h.234q.072 0 .108.126.036.108.036.234a.23.23 0 0 1-.216.126h-.234q-.054-.018-.144.072v.036q0 .018-.018.036v.036h.036q.018 0 .018.018h.018a.3.3 0 0 0 .09-.036.3.3 0 0 1 .144-.036q.18 0 .126.072a.5.5 0 0 1-.162.162q-.108.09-.234.18-.126.072-.126.108 0 .054.144.162a.5.5 0 0 1 .18.198q0 .108-.144.144-.144.054-.108.126t.072.162q.054.072.018.144-.018.072-.27.144 0 .378.27.576 1.116 0 1.584.306m-2.178-1.44v-.054l-.072-.054zm-1.296.27q-.324 0-.378.504.054.036.072.18.036.126.162.126 0-.144.072-.414.072-.288.072-.396m.252 2.25.09-.09q.09-.072-.054-.144a.45.45 0 0 0-.18-.072q-.126 0-.126.09t.162.252q.072 0 .108-.036m-.81.18v.234h.234v-.432h-.108q-.126 0-.126.198m-.288.54q-.036-.036-.054-.306-.036-.252-.18-.18-.144.054-.144.216 0 .09.054.18.072.09.126.162.18 0 .198-.072m.954-.018h-.108v.756h.108zm-1.188 1.35h.18v-.306l-.072-.018q-.108-.018-.108.324m.756.954q-.054-.108-.054-.414t-.054-.414q0 .126-.108.396-.108.252-.108.36l.036.144a1 1 0 0 0 .162-.018q.09-.036.126-.054m-1.548.648-.054.036.126.126.036-.018zm11.795-7.218a.3.3 0 0 1-.018.072v.072-.054q0-.072.018-.09m-.108.738q0-.558.108-.45t.108.45a.36.36 0 0 1-.144.306.6.6 0 0 1-.072-.306m9.306 3.438q0 .108-.126.252-.108.126-.108.198l.09.09q-.288 0-.432.108a5 5 0 0 0-.306.252 1.6 1.6 0 0 1-.378.234q-.216.108-.648.108-.252 0-.522-.09-.018 0-.18.018t-.36.036a5 5 0 0 0-.396.054.8.8 0 0 0-.252.054l.054.054a.2.2 0 0 1 .054.036v.018q.018.018.018.072-.198.018-.36.036-.144 0-.198.162-.126-.396-.324-.396t-.342.27q-.144.252-.18.252-.018 0-.036-.018h-.054q.018 0-.054-.09a2 2 0 0 0-.09-.162l-.324.324-.18-.18q-.018.09-.18.162a4 4 0 0 0-.36.144 3 3 0 0 0-.342.162.37.37 0 0 0-.198.234q-.306-.306-.504-.306l-.108.018q-.072 0-.126.108-.054.09-.09.09t-.18-.234a4 4 0 0 0-.306-.432q-.162-.198-.288-.234t-.126.36q.054.072.108.072.09 0 .108-.018l.108-.054q.036 0 .036.036l-.018.036q0 .036-.018.108l-.612.306q-.09-.54-.378-.54a.23.23 0 0 0-.216.126q-.072.108-.342.108 0-.018-.018-.036v-.036q0-.072.144-.216.144-.162.27-.252.126-.108.144-.126 0-.126-.18-.198l-.126.144v-.054a.45.45 0 0 0-.072-.18.5.5 0 0 1-.072-.162q0-.18.09-.126.108.036.216.108a.6.6 0 0 0 .198.09q.108.018.108-.234a1 1 0 0 0-.09-.324 1.3 1.3 0 0 1-.072-.324q0-.198.144-.342-.27 0-.558-.72.18 0 .252.288.072.27.126.27.216 0 .198-.18a3 3 0 0 1-.018-.342h.054q.018 0 .018.018h.018q.09 0 .144-.126a.7.7 0 0 0 .09-.288.6.6 0 0 0 0-.288q-.036-.126-.144-.126-.018 0-.036.018h-.036l-.18.162a.43.43 0 0 0-.162-.216.8.8 0 0 0-.198-.126q-.072-.054-.09-.054 0-.018.126-.018.252 0 .36.054.126.036.126-.216a.3.3 0 0 0-.09-.216h.108v-.18q0-.108-.018-.234a.4.4 0 0 1 .018-.216h.576q0-.018.036-.162.054-.162.072-.342t-.054-.18a.45.45 0 0 0-.18.072.6.6 0 0 1-.162.054q-.072 0-.144-.072l.126-.126q-.036.036-.09-.072-.054-.126-.054-.108l.018-.072.108-.072q-.054.036.09.126.162.09.144.09.108 0 .198-.216.09-.234.252-.234.072 0 .198.072.036-.072-.018-.324-.036-.27-.432-.27-.018 0-.036.018h-.036l-.18.198q-.09-.054-.198-.342-.108-.306-.234-.396.162 0 .27.216.126.198.252.198.018 0 .036-.018h.054a1.2 1.2 0 0 0-.072-.378 6 6 0 0 0-.126-.432 4 4 0 0 0-.144-.378 1 1 0 0 1-.054-.234q0-.234.09-.414t.306-.18l.072.072q-.342.126-.342.198v.072q.018 0 .018.018l.144.108q-.018-.018.036-.036a.3.3 0 0 1 .09-.018h.126q.072 0 .108.09a.3.3 0 0 1 .036.09q0 .018-.162.396 0 .144.054.09a.6.6 0 0 0 .144-.198q.072-.144.126-.342.072-.198.072-.342 0-.432-.018-.468 0-.054-.108-.522l.18.072q.09.036.162.072.09 0 .108-.054a.6.6 0 0 1 .108-.144V4.3q0-.09-.054-.18a.4.4 0 0 1-.036-.144q0-.198.144-.054.162.144.252.144l.072-.018v-.054l-.018-.036q-.036-.072.144-.216.198-.162.198-.252l-.018-.072.072.018q.126.018.126-.324.036.036.036.072 0 .09-.09.234a.6.6 0 0 0-.072.198q0 .108.126.18.054-.108.342-.252.288-.162.324-.36.072.306.072 1.134v.972q0 .216-.126.468t-.126.342q0 .072.054.198.072.126.072.198 0 .09-.036.18a1 1 0 0 0-.018.234q0 .108-.126.36t-.126.306q0 .162.018.306.036.144.036.486 0 .126.072.396.072.252.072.396 0 .288-.18.468l-.396.306q.324.09.324.378 0 .162-.072.36-.072.18-.162.36a3 3 0 0 1-.234.396q0 .018.018.036v.036l.306.036q0 .522-.378.9v.036q0 .072.09.162.108.09.108.126.288-.126.63-.162.36-.054.882-.126l.9-.126q.54-.072 1.134-.126a21 21 0 0 1 1.242-.108q.63-.054 1.224-.054.036.126.234.144.216 0 .252.036m-9.504 1.314.054-.072q-.018.018-.018.036zm.198-4.014v.198q0 .054-.108.054t-.126.018l.162-.45.036.09a.3.3 0 0 1 .036.09m2.34-2.268h-.072v.09h.072zm-.396 1.422.324-.198q-.018 0-.072-.162-.036-.162-.216-.162-.108.234-.108.36 0 .09.072.162m1.116.18v-.144h-.126v.288h.054q.036 0 .054-.054a1 1 0 0 0 .018-.09m-.756 1.062q0-.09.018-.198t-.054-.108q0 .27.036.306m-1.098.108-.018-.072q0-.09-.09-.126a.3.3 0 0 0-.09-.036q-.162 0-.162.18l.018.108q0 .018.09.09.108.072.09.054.162-.072.162-.198m1.17.522v-.036l.018-.018q.036-.018-.018-.072a.4.4 0 0 0-.054-.09l-.054-.072-.072.324q.144 0 .18-.036m.558.09v-.09q0-.036-.054-.054l-.054-.018q-.054 0-.054.072a.12.12 0 0 1-.036.09v.018q0 .036.018.054v.018h.126q.054 0 .054-.09m-1.368.72q-.468-.468-.558-.468a1 1 0 0 0-.018.18v.162q0 .396.126.396.09 0 .216-.126a.6.6 0 0 1 .234-.144m.306.792h-.144l.072.198q.018.018.036-.054a.4.4 0 0 0 .036-.144m6.75.306.126-.108q.018-.018-.054-.09t-.126.09l-.018.036q0 .054.072.072m-6.426.216h.18v-.576a.28.28 0 0 0-.162.234 3 3 0 0 0-.018.342m6.012.09q0-.036.018-.054v-.036q0-.126-.108-.162a.6.6 0 0 0-.198-.036q-.09 0-.18.054v.036l-.018.018q-.036.018.054.126t.108.126h.108q.144 0 .216-.072m-1.71.144q-.018-.072-.162-.072v.288q0-.018.072-.054.09-.036.09-.162m.558.054-.072.126h.144q-.018 0-.054-.054a.3.3 0 0 1-.018-.072m-5.418 1.008v.054l.342-.18q.018-.018-.054-.036a.3.3 0 0 0-.09-.018q-.216 0-.216.144 0 .018.018.036m18.885-12.168v.126h-.18v-.198q.162 0 .18.072m-.36 6.408q0 .054-.072.126a1 1 0 0 0-.09.072q0-.198.162-.198m-.972.27q0 .018.018.018v.036q0 .072-.126.198l-.324-.072q-.036-.018-.054.09t-.018.144v.252l-.072.018q-.162.036-.18-.162l-.018-.216q0-.162.036-.216t.09-.054a2 2 0 0 1 .126-.036.6.6 0 0 0 .198-.144l-.108-.414q.432.144.432.558m2.232 5.436q-.072 0-.144.072-.054-.018-.054-.108a.8.8 0 0 0-.072-.324.8.8 0 0 0-.162-.252q-.09-.09-.162-.054-.072.018-.072.252v.162q-.108 0-.324-.036a1.3 1.3 0 0 0-.306-.054q-.198 0-.342.198-.144.18-.216.18-.108 0-.216-.126-.09-.144-.414-.234-.09.036-.144.18a5 5 0 0 0-.072.288 2 2 0 0 1-.09.27q-.054.108-.162.108a.4.4 0 0 1-.18-.054q-.09-.054-.09-.198v-.234q0-.09-.108-.09-.018 0-.036.018h-.036q.072 0 .018.126t-.144.288-.18.306a2 2 0 0 1-.108.144l-.198-.09v-.108l.018-.036q.072-.288-.072-.27t-.198.252a9 9 0 0 1-.054.324q-.018.072-.054.072a.3.3 0 0 1-.09-.036q-.054-.054-.18-.054-.108 0-.306.054a1.3 1.3 0 0 1-.27.054q-.63 1.026-1.368 1.08-.252-.198-.648-.198h-.306a.93.93 0 0 1-.594-.198h-.072q0-.018-.018-.018-.36 0-.36.306 0-.036-.162-.162a1.7 1.7 0 0 0-.324-.252.65.65 0 0 0-.324-.108q-.144 0-.144.234 0 .198-.234.09a5 5 0 0 1-.414-.27 9 9 0 0 1-.216-.198l-.162.126q-.072.054-.09-.018 0-.072.018-.18t.036-.198a1 1 0 0 0 .036-.126q0-.018-.018-.036v-.036l.252.162q.036.036.072-.126t.036-.288v-.162q-.054-.018-.108-.108a2 2 0 0 0-.126-.216 1 1 0 0 0-.126-.198q-.072-.09-.162-.09-.198 0-.27-.09t.288-.09q.126 0 .126-.198t-.054-.432a6 6 0 0 0-.09-.486 2 2 0 0 1-.054-.324q0-.288.216-.54-.324-.18-.324-.396 0-.072.072-.198a2 2 0 0 1 .162-.27q.09-.126.162-.234t.072-.162q0-.162-.288-.288.324-.144.324-.432 0-.09-.036-.252a1.5 1.5 0 0 1-.036-.27q0-.288.396-.396a11 11 0 0 0-.108-.288 5 5 0 0 1-.036-.27q.036.198.108.198.126 0 .144-.126a1 1 0 0 0 .036-.252.92.92 0 0 0-.288-.702l.288-.306q.018.252.09.45.09.18.162.252.09.054.162-.036.09-.09.108-.378.018-.306.054-.486.054-.18-.144-.18-.27.054-.252-.072a.9.9 0 0 1 .144-.324q.144-.216.306-.432t.162-.342q0-.18-.126-.36l.054-.09.396.414q.216-.288.216-.648 0-.144-.054-.432a4 4 0 0 1-.036-.45q0-.468-.198-.558-.18-.09-.468-.09a.6.6 0 0 1-.306-.072l-.144-.342q.036.072-.054.036a1 1 0 0 1-.162-.162 2 2 0 0 1-.18-.252.5.5 0 0 1-.09-.27v-.072a2 2 0 0 0 .036-.126l.18-.09v.054q0 .018-.018.036v.018q0 .162.072.216.09.036.198.144h.054a.5.5 0 0 1 .126-.036l.162-.162v-.18q.036 0 .288.054.252.036.54.18.306.126.324.36.036.288.072.234.054-.054.144-.216.108-.18.252-.378a.45.45 0 0 1 .378-.198V1.6q.072 0 .144.144.09.144.162.324.072.162.126.306.072.144.126.144.09 0 .126-.09a.6.6 0 0 1 .144-.198v-.072a1 1 0 0 0-.054-.198l-.036-.18q0-.108.198-.108h.216v.234q0 .108.108.108.09 0 .324-.162.234-.18.324-.18t.198.018h.216q.144 0 .288.234t.27.234q.198 0 .27-.126t.108-.216q.036-.108.108-.108.09-.018.306.198.054-.126.144-.108.108 0 .234.072.144.054.27.144a.6.6 0 0 0 .252.072q.342 0 .414-.126.09-.144.378-.144.324 0 .414.09.09.072.108.162.036.09.09.18.072.072.324.072.072 0 .216-.036.162-.036.234-.036t.18.054q.108.036-.234.036h-.288a8 8 0 0 0-.144.306q-.054.162-.126.306 0 .072.09.216l-.486-.414a.23.23 0 0 0-.126.216q0 .252-.036.288t-.108-.018a4 4 0 0 0-.18-.126.3.3 0 0 0-.216-.09l-.18.252-3.078-.036a1.5 1.5 0 0 0-.432.576q-.144.36-.234.774-.072.396-.126.846-.036.432-.108.81-.036.216-.18.468a17 17 0 0 1-.54.882q-.09.144-.054.162l.666-.324q-.036.018.09.27.144.234.306.234.108 0 .288-.18t.252-.18q0 .162.072.18h.036q.018 0 .018.018h.036q.126 0 .216-.144.09-.162.162-.162.126 0 .252.18.144.162.45.162.126 0 .234-.216.108 0 .306.216t.234.216q.126 0 .234-.27v-.072l.072-.018q.09-.036.18.108.108.144.108.252v.072q0 .162-.162.414-.144.252-.144.36 0 .396-.648.468-.63.072-1.764.072-.054 0-.216.09a.7.7 0 0 1-.216.072q-.108 0-.198-.162l-.342.18q.018 0 0-.018l-.018-.018V9.52l-.036-.036a.2.2 0 0 0-.036-.054l-.018-.018q-.072-.072-.198.288a9 9 0 0 0-.216.846q-.09.504-.162 1.026t-.054.774q0 .36.144.738-.27.27-.27.396v.072q0 .18.216.27.234.09.342.09.09 0 .342-.126.27-.144.558-.306.306-.162.594-.288.288-.144.45-.144.108 0 .36-.198.27-.216.414-.216.378 0 .756-.162.396-.18.774-.324t.738-.198q.36-.072.666-.072h.216q.036 0 .09.018h.09q-.018 0 .18.18.198.162.342.162l.072-.072q.486.234.486.81v.342l-.036.36v.09q.018.054.036.162m-4.932 1.494h-.144l.18-.342q-.018.018 0 .108a.3.3 0 0 1 .036.09q0 .09-.072.144M159.309 2.68l-.162-.342v.558zm1.17 0h-.108l.036.144q0-.018.036-.072zm.486.81h.18v-.072q0-.036-.036-.054l-.018-.018-.054.018q-.072.018-.072.126m-.666.774.18-.108q0-.018.018-.036v-.054q0-.162-.288-.45t-.54-.288q-.162 0-.144.09t.09.198l.18.18q.09.09.072.09a.4.4 0 0 0 .18-.054v.18l.036-.018q.018 0 .216.27m-.396.306.144.108.036-.072q.018-.054-.072-.036zm-.432.36v.486h.162v-.18q0-.306-.162-.306m-.09 1.494v-.198l-.162.198zm.324.81-.072-.072h-.072zm-.486 2.34v-.072q.018-.018.018-.036 0-.27-.198-.306l-.072.252q.162.162.252.162m-.99.36v-.09q.018-.018.018-.036 0-.288-.288-.396a1 1 0 0 0-.018.18v.144q0 .162.072.252.09.072.216-.054m1.926.234q0-.09-.036-.126l-.072-.108v.306q0-.036.054-.054.072-.018.054-.018m-.684-.072q-.036-.126-.072-.09a.25.25 0 0 0-.018.108.2.2 0 0 0 .018.09q.018.036.072-.108m-1.17.396q-.27.054-.342.396h.126q.036 0 .09-.072.054-.09.072-.126l.018-.018q.036-.144.036-.18m.522 1.08-.27.18q-.054.036 0 .108l.072.072q.144 0 .144-.126 0-.216.054-.234m-.27 2.034h-.18v.144q.18 0 .18-.144m3.132.468h.054q.018 0 .018-.072.018-.09.018-.054 0-.036-.198-.108-.198-.09-.198.126 0 .09.054.09.072 0 .126.036h.072q.036 0 .054-.018m.216.774.072-.018v-.234l-.108-.09h-.09q-.018-.018-.036-.018 0 .36.162.36m16.961-13.176-.072.072-.036-.108q.018.036.072.036zm1.224.612-.072-.108h.108l.018.018q0 .036-.054.09m-.072.81h-.072l.144-.198q-.054.072-.018.126t-.054.072m.45.27v.216q0 .018-.09-.054-.09-.09-.108-.09 0-.09.09-.126h.054q.018 0 .054.054m-10.656 1.602-.18.216-.072-.216zm10.602 8.1.054.09-.018-.018zm-.468-1.098v-.054q0 .054.054.216.054.144.126.324.09.18.162.36.072.162.126.252l-.144-.252q-.054.054-.108.252-.054.18-.126.396a1.7 1.7 0 0 1-.18.36q-.108.162-.252.18v-.126q0-.234-.108-.108a1.4 1.4 0 0 0-.198.324l-.108.216-2.178 1.26-.108-.108a1.4 1.4 0 0 0-.126-.144l.072-.09-.108-.144q-.108 0-.234.144-.108.126-.234.288-.108.162-.216.306-.09.126-.144.126-.306-.072-.396-.162t-.18-.09-.342.198l-.108.072q-.054.036-.126-.18-.054-.216-.234-.216-.09 0-.342.216t-.396.216a.4.4 0 0 1-.144-.018l-.522-.36a.77.77 0 0 0-.432-.144.7.7 0 0 0-.27.054q-.126.036-.126-.27 0-.18.126-.486t.144-.432q.036-.072.27-.144.252-.09.252-.306.756.198 1.44.198.9 0 3.204-.54l.36-.396q-.036.036.036.054.09.018.144.018a.6.6 0 0 0 .018-.144q.018-.09.054-.198-.162-.036-.252-.27t-.18-.504a3 3 0 0 0-.18-.522q-.108-.252-.288-.306-.09.072-.162.342-.072.252-.18.342a.43.43 0 0 0-.252-.288 2.3 2.3 0 0 0-.432-.18 9 9 0 0 1-.432-.144q-.198-.072-.252-.216l-.072-.018q-.036-.018-.126.072a.6.6 0 0 0-.126.126 4 4 0 0 0-.486-.234q-.288-.126-.684-.27a.24.24 0 0 0-.108.09l-.054.108q-.018.036-.036.018a.7.7 0 0 1-.018-.216q0-.18-.216-.252a2.2 2.2 0 0 0-.45-.144 20 20 0 0 1-.45-.144q-.198-.09-.198-.288a.29.29 0 0 0-.234-.108.9.9 0 0 0-.252.054 1.3 1.3 0 0 1-.252.036l-.072-.018-.27-.396a4.5 4.5 0 0 0-.486-.666q-.252-.306-.252-.072 0 .288-.072.306h-.054q-.018 0-.036.018h-.036q-.486 0-.54-.342l-.072-1.152-.684.072q0-.108-.054-.324a3 3 0 0 1-.036-.342q0-.09.126-.198a2.4 2.4 0 0 0 .252-.216.46.46 0 0 0 .144-.234q.036-.126-.198-.216-.36 0-.414.252v.144a.9.9 0 0 0-.09-.216.9.9 0 0 1-.072-.234q0-.036.018-.054v-.018q.018.036.144.054h.144q.378 0 .378-.342l.144-.144q.162.306.306.306h.054q.072 0 .09-.072a.3.3 0 0 0 .036-.144v-.216q-.324-.018-.324-.396 0-.126.054-.396a2.6 2.6 0 0 0 .054-.432h.252l.072.486h.342q0 .126.072.144h.198q.036 0 .054-.144.036-.144.036-.18 0-.36.126-.486l.414.18h-.162q-.018 0-.036.09a1 1 0 0 0-.018.09q0 .108.09.234.108.108.234.144v1.206q.324-.054.45-.234t.36-.63a.19.19 0 0 0-.18-.108l-.234-.036a.44.44 0 0 1-.198-.144q-.09-.108-.09-.432v-.054q.018-.054.036-.144h.198q.018 0 .018-.054a.3.3 0 0 0 .018-.072.6.6 0 0 0-.054-.198 2 2 0 0 1-.036-.162q0-.09.054-.162h.144l-.018.108q-.018.072.072.144t.198.18h.072q.09 0 .144-.09a.37.37 0 0 0 .072-.198.4.4 0 0 0-.054-.18.4.4 0 0 1-.054-.162q0-.234.234-.234.198.054.324.072t.126.144q0 .072-.144.198a.65.65 0 0 0-.198.306q.018.018.234.018.342 0 .576-.144.252-.162.252-.378 0-.27-.432-.504l-.288.054.018-.036q0-.036-.054-.09h.018q.414-.072.666-.252.27-.198.27-.036 0 .072-.09.198a.7.7 0 0 0-.072.144q0 .288.18.198.18-.108.378-.342a4 4 0 0 0 .378-.468q.18-.252.162-.252.018 0 .288.09 0-.27.126-.108.144.144.306.378.18.234.306.342.144.108.144-.27V2.14q0-.162.198-.198l.09.558q0 .018.054.036h.09q.072 0 .144-.09.072-.108.126-.234.072-.126.144-.216.072-.108.144-.108.018 0-.036.144a1 1 0 0 0-.036.216q0 .198.18.198l.036-.018h.072q.072 0 .198-.126a.4.4 0 0 1 .306-.144h.27q.09 0 .342.108t.396.108q.306 0 .306.432 0 .036-.018.054v.036q0 .036-.108.126a.32.32 0 0 0-.09.234q.072.018.216.162a.9.9 0 0 0 .288.162q-.09.018-.144.036h-.072q-.126 0-.378-.036a2 2 0 0 0-.36-.054 1 1 0 0 0-.54.162l-.18-.252a3 3 0 0 1-.18.162q-.108.09-.252.234-.234.18-.414.18-.252 0-.252-.432 0-.234.054-.234a.2.2 0 0 1 .144.018q.09.036.144.036.072 0 .072-.216V2.95q0-.072-.09-.09a.4.4 0 0 0-.162-.036h-.306q-.234 0-.324.18a.7.7 0 0 0-.072.288q0 .09.036.27t.036.27q0 .342-.414.432l-.144-.288q.018.036-.108.072-.126.018-.288.036-.162 0-.306.018h-.162q-.036 0-.054.09v.27q0 .18-.054.234l-.144-.342q-.18 0-.252.108l-.198.234a2.3 2.3 0 0 1-.288.27q-.234.18-.504.396-.252.198-.468.378t-.234.234l-.342-.054q-.252.648-.252 1.08 0 .252.018.27 0 .144.162.378.162.216.342.414t.306.324q.144.126.09.072.576.522 1.044.522.234 0 .45.09t.666.216q.072.036.072.252.018.198.252.198.162 0 .36-.198l.36.45q.054-.252.414-.252.252 0 .36.216a.43.43 0 0 0 .396.216q.072 0 .198-.018t.198-.018q.108 0 .27.126.18.126.396.324.216.18.432.432.234.234.432.45v.18q0 .234.108.504.126.252.216.252.108 0 .108-.36 0-.054-.018-.072m-8.046 3.042v.414q-.144 0-.144-.216 0-.162.144-.198m6.12-12.402v.288h.072q-.018 0-.018-.144t-.054-.144m-2.592.342h.144v-.126h-.036l-.018-.018q-.018-.018-.054.054a.2.2 0 0 0-.036.09m-4.122 2.646q-.018-.036-.108-.09a.5.5 0 0 0-.126-.072q-.054-.018-.054.018.018.036.162.18h.036a.12.12 0 0 0 .09-.036m-.666.252-.396.432a.46.46 0 0 1 .216-.108q.162-.036.252-.216V5.92q0-.054-.072-.072m-.486.936h-.126v.072h.126zm2.088.81q.018-.018.018-.18 0-.45-.36-.774 0 .792.342.954M170.546 8.8v-.828h-.072q-.018 0-.072.27a1.7 1.7 0 0 1-.054.288q0 .18.198.27m8.496 2.304h-.108v.108h.108zm-5.202 4.464q-.108-.108-.144-.018a1 1 0 0 0-.054.126h.126q.036 0 .054-.054.018-.072.018-.054"/></symbol></svg>