<?xml version="1.0" encoding="utf-8"?><svg xmlns="http://www.w3.org/2000/svg" xmlns:xlink="http://www.w3.org/1999/xlink"><symbol fill="none" viewBox="0 0 202 63" id="0"><path fill="url(#aa)" d="M30.362 14.288q.095.752 0 1.41a7 7 0 0 1-.282 1.222q-.187.564-.376 1.316-.187.376-.376 1.128-.47 1.034-.846 1.974-.375.94-.752 1.974a36 36 0 0 1-1.034 2.256l-.94 2.068q-.47.658-.752 1.786-.188.187-.282.376-.094.187-.282.376a1746 1746 0 0 1-2.82 4.136 66 66 0 0 1-2.726 3.948 45 45 0 0 1-1.504 1.786 7.2 7.2 0 0 0-1.128 1.786q-.376.47-.658.846t-.564.846a10 10 0 0 1-.564.846q-.282.376-.658.658-.094.188-.188.282-.094 0-.188.094l-.376.282a2.25 2.25 0 0 1-.752 1.128l-.94.94a1.2 1.2 0 0 0-.282.47q0 .188-.188.47l-.188.188q0 .094-.094.188l-.188.282q-.375.658-.94 1.222-.47.563-.94 1.034H9.4q2.632-.094 4.606-.376 1.975-.282 3.76-.094h.846a12.3 12.3 0 0 1 2.632.094q1.316.094 2.914.376.47.094.752.282t-.376.564q-.094-.094-.282-.094-.188.47.658 1.034.187.094.376.282 0 .564-.376.658-.282.095-1.316-.282v.188a1.16 1.16 0 0 1-.658.188 2.1 2.1 0 0 0-.658-.094h-.47q-.282 0-.376.188.094.188.282.094.282-.095.47 0 .095.094.47.094a.7.7 0 0 0 .282.094.7.7 0 0 1 .282.094q.094 0 .188.094h.188q.564.188 1.222.47.659.187 1.128.376l.188.564q-1.88 0-3.666-.376-.094 0-.188.094h-.094q-.846 0-1.692.094-.752 0-1.786-.188h-.658q-.095-.094-.282-.094a.7.7 0 0 1-.282-.094l-.94.188a1.63 1.63 0 0 1-.94-.094.8.8 0 0 1-.376.094q-.094 0-.188.094h-.094q-.282.094-1.222.094h-.752q-.376-.095-.658 0a4.7 4.7 0 0 0-1.598-.094q-.659.094-1.41.188-.282 0-1.128-.094-.752-.094-1.598-.188-.375 0-.658.094a1.8 1.8 0 0 1-.564.094 2.6 2.6 0 0 1-.564-.094q-.282-.188-.752-.094h-.188q0 .188-.282.47l-.094.094-.094.094-.094.094-.752-.376v-.188q-.94.188-1.316.188a.8.8 0 0 0-.376.094l-.282-.282a4 4 0 0 1-.188-.47.7.7 0 0 0-.282-.094h.094q.094.094.188.094-.188-.47-.188-1.598Q0 54.05 0 53.768q.094-.375.376-.752v-.094a2.54 2.54 0 0 1 .846-1.41q.752-1.316 1.41-2.444a20 20 0 0 1 1.692-2.35q.188-.188.188-.282l.282-.282.282-.282q2.256-3.478 4.324-6.204a225 225 0 0 0 4.512-6.11 9 9 0 0 0 .752-1.222q.376-.658.658-1.316.188-.187.282-.376.188-.282.282-.47a40 40 0 0 0 1.41-2.068q.752-1.128 1.41-2.162.752-1.128 1.316-2.162.659-1.128 1.128-2.256a18 18 0 0 0 .846-1.504q.375-.846.752-1.598.564-1.598.846-3.008.095-.282 0-.376 0-.188.094-.282v-.282a.7.7 0 0 0 .094-.282.7.7 0 0 1-.094-.282.7.7 0 0 0-.094-.282l-.094-.188v-.094a1.1 1.1 0 0 0-.188-.282q-.094-.095-.094-.282a.8.8 0 0 0-.376-.094 1.5 1.5 0 0 1-.376-.282v.094q-.752-.282-2.35-.282-.188 0-.282.094h-.47q-.47 0-.658.094-.564 0-.752.094h-.282q-.094.094-.188.094t-.094.094h-.094q-.188 0-.188.094-.188 0-.282.094 0 .094-.094.094h-.188a1.2 1.2 0 0 1-.47.282q-.188 0-.47.188l-.47.47q-.282.188-.658 0l2.632-1.222-.564.376q-.658.282-1.222.564-.563.282-1.034.846l-.658.376-.658.658a3.05 3.05 0 0 0-1.41.564 8.5 8.5 0 0 1-1.222.846q-.094.094-.094.188a2.4 2.4 0 0 1-.564.564 3.7 3.7 0 0 1-.564.47q-.47.47-1.222.752-.659.282-1.128 1.034-.47 0-1.222.188-.658.188-.658-.47.094-.47.376-.846l.846-.846.188-.376.094-.094q0-.188-.282-.094a2.6 2.6 0 0 1-.564-.094l-.376.188q-.375-.47.94-.94v-.094l.376-.376a3 3 0 0 0 .47-.376q.282-.188.188-.282-.188-.188-.282-.094a1.1 1.1 0 0 1-.282.188l-.282.282q-.188.188-.47.094h-.094l-.094.094q-.47.188-.564.188-.095-.094.564-1.034v-.094q-.752.283-.94.094-.094-.282.752-1.034.564-.752 1.222-1.598a4.6 4.6 0 0 1 1.598-1.316q.47-.47.846-.658a4.4 4.4 0 0 0 .846-.658l.282-.282q.187-.188.376-.188a1.2 1.2 0 0 0 .47-.282q.752-.752 1.974-1.316a.84.84 0 0 1 .564-.47q.095-.188.282-.094.282.094.47-.094.376-.47 1.316-.752a17 17 0 0 1 1.598-.564q.376 0 .564-.188l.188-.094a.7.7 0 0 0 .282-.094q.282-.188-.188-.094-.375.094-.94.282-.47.187-.846.376-.375.188-.094.094l.846-.282q.565-.188.94-.188.094-.094.376-.094h.376q.282-.094.752-.094t.752.094h.752q.376.094.376 0 .095-.188.47-.094h.47q.188 0 .188.094h.282q.187.094.376.094.282 0 .47.094.094-.094.376 0t.47.094h.846q0 .094.376.094a.64.64 0 0 0 .47.188q.752.376 1.222.94.563.564 1.034 1.222.188.187.282.376.095.187.282.376l.188.188v.282l.188.47q.188.282.282.564.094.188.094.47l.282.47v.282q.094.095.094.282v.47q.094.282.094.846.094.282.094.846zm-6.674 39.104h-.094z"/><path fill="url(#ab)" d="M53.539 10.34a.7.7 0 0 0-.282.094h-.282q.095.188 0 .282.188.094.282.188l.376.188q0-.094.094-.094.094.47.094.846v.846q-.376.187-.564.376-.188.282-.282.658a.9.9 0 0 1-.376.47q-.188.187-.188.376 0 .095-.188.282-.189.752-.282 1.41 0 .658-.752 1.222.188.188.094.47-.095.282.094.47a4.1 4.1 0 0 0-.658 1.41q-.094.658-.564 1.222-.658.752-.846 1.598l-.376 1.504q0 .282-.188.564-.094.188-.094.564.188.47-.188.846a2.5 2.5 0 0 0-.47.658q-.094 0-.094.094.187 0 .376.094h.47q.376 0 .658-.094t.564-.094q.187 0 .376.094.282.094.658.094.752-.188 1.316-.188.47-.094.846-.094.47-.094.846-.188.282 0 .658.752.375.752.564 1.692.283.846.094 1.692-.094.752-.846.846-.282 0-.564.094a2.8 2.8 0 0 1-.658-.094q-.282-.188-.846-.094h-.846a2.9 2.9 0 0 1-1.034 0q-.564-.094-1.316 0-.189 0-.188-.094 0-.094-.188-.094h-.94q-.753 0-1.222.094 0 .094-.094.188l.094.188q-.189.188-.282.47a5 5 0 0 1-.282.47l-.188.188a.7.7 0 0 0-.094.282.7.7 0 0 1-.094.282q.095.094 0 .188-.094.094-.094.188-.094 0-.094.094-.188.376-.376.564-.094.563-.094 1.034 0 .47-.188 1.034-.564.564-.564 1.692-.187.47-.376 1.034a1.9 1.9 0 0 0-.094 1.034q.094.376-.282.94.187.187 0 .376-.376 1.316-.752 2.538l-.564 2.444q-.188.563-.376 1.034a2.8 2.8 0 0 0-.188 1.034q-.094.375-.094 1.034-.189.188-.094.47.094.187-.094.376-.376.188-.282.188v.188q0 .376-.188.658a2.4 2.4 0 0 1-.282.564q0 .282.376.47-.094.187-.282.376-.094.094-.094.188.188.658-.094 1.222-.188.564-.376 1.222.094 0-.094.188.187.658-.47.658-.564 0-.752-.282 0-.094.094-.188l-.188-.094a.64.64 0 0 1-.188-.47q.095-.094 0-.376 0-.47-.376-.564-.188-.094-.188.094a.7.7 0 0 1-.094.282q0 .658-.282.94-.094 0-.188-.094.187.752.094 1.034-.094.188-.752.094-.189-.094-.188-.376a6 6 0 0 1-.658-.564q-.282-.282-.658-.188l.094.188q-.47.282-1.128 0-.564-.282-.564-.658a22 22 0 0 1-.094-1.974q0-1.035.188-1.88-.188-.282.094-.47l.094-.094q.188-2.162.846-4.136a40 40 0 0 0 1.222-3.948v-.846q.094-.375.094-.752 0-.282.282-.564.282-1.128.564-2.35.375-1.222.752-2.538a5.4 5.4 0 0 0 .564-1.88 9 9 0 0 1 .658-1.974h-.376q-1.222.095-2.068 0-.752-.187-2.068-.376a18 18 0 0 1-.846-.188q-.282-.188.094-.47h.282q.094-.563-.752-1.034-.376 0-.376-.188-.283-.846 1.316-.376 0-.094-.094-.188.47-.187 1.222 0h.376q.188 0 .282-.188 0-.188-.282-.188l-.376-.188h-.376q-.095-.094-.188-.094h-.282q-.095-.094-.282-.094-.094-.094-.188-.094h-.188a3.6 3.6 0 0 0-1.128-.188 17 17 0 0 1-1.316-.282l-.094-.752q1.597 0 3.196.282h.094q.094-.094.188-.094h1.598a4.7 4.7 0 0 1 1.598.094h.188q.094-.094.376-.094.376.188.658.188.375-.094.376-.188 0-.094.47.094l.188-.094q.188 0 .282-.094h.282q-.376-.187-.188-.376.187-.282.376-.47.752-2.444 1.41-3.948.752-1.504 1.034-2.914.282-.187.282-.564.752-1.598 1.128-3.666t1.222-3.948q-.658 0-.846.094-.188 0-.846.188-.375.094-.094.094.375 0 0 .094-.376.094-.564.188-.095 0-.47-.094h-.658a3.6 3.6 0 0 1-1.128.188h-.94a4 4 0 0 1-.47.188q-.189 0-.282.094h-.47q-.094 0-.188.094h-.094a10 10 0 0 1-1.88.376q-.94.095-1.88.282h-.282q0-.094-.094-.094-.94.282-1.598.376-.564 0 .188-1.034 0-.094.094-.094t.188-.094a.7.7 0 0 1 .282-.094.8.8 0 0 1 .376-.094q.375-.188.564-.188.564-.375.564-.47-.094-.188-.376-.094h-.47l-.752.188q-.282.095-.658 0l-.188-.188q-1.034.47-1.504.47a.84.84 0 0 1-.564-.47q0-.187.47-.376.187-.188.376-.47.188-.282 0-.47h-.282q-.753-.187-.47-.376a4 4 0 0 1 .752-.376q1.41-.47 2.82-.752 1.41-.376 3.008-.564.282-.094.658-.094h.282a49 49 0 0 1 6.204-1.128q3.196-.47 6.486-.846.563.47 1.034.94.564.47.94 1.034zm-20.774.094h-.094zm3.76 45.12-.094-.094zm6.58-16.45q.094 0 .188.094l-.094-.094z"/><path fill="url(#ac)" d="M68.025 13.066q.094.188.094.47v.376q.094.187.094.376v.376q.189.376-.094.846v.188l-.094.188v.376q.094.188-.094.47-.093-.659-.094-.752v-.094l.188.188q.094 0 .282-.188l-.094.188q-.093.282-.188.376v.282q.094.188-.094.47t-.188.47-.188.282q0 .188-.094.188t-.094.094q-.188.094-.188.188t-.188.282q-.093 0-.094.094 0 .094-.188.094v.094l-.094.376-.094.094h-.094a1.64 1.64 0 0 1-.47.846l-.846.564-.658.658q-.376.188-.564.188t-.47.188q-.375.188-1.222.188l-.094.094h-.564l-.376-.094h-.47q-.188 0-.188-.094l-.282-.094-.282-.188-.282-.188-.282-.376q-.188 0-.188-.094v-.094q0-.095-.188-.282l-.094-.188h-.188l-.094-.376-.188-.094v-.564q-.282-.658-.282-1.222-.282-1.315 0-2.35 0-.752.282-1.034v-.47q.094-.282.094-.47t.094-.188q.094-.095.094-.282-.188 1.316-.658 1.692-.376.282.094-.094l.094-.188v-.094q0-.094.282-.376 0-.188.094-.188.094-.095.094-.282l.094-.188q.188 0 .188-.094v-.094q.094 0 .094-.094l.094-.094v-.188q.376-.564.658-.94l.376-.376.376-.376.188-.188q.282-.188.47-.282a1.2 1.2 0 0 1 .47-.282l.094-.188.094-.094q0-.094.094-.188h.094q.376 0 .376-.094.188 0 .376-.094l.564-.188h.188q.095-.094.282-.094h.094l.188-.094q.94-.188 1.222.094.282.094.282.188l.188.188.376.188q.282.095.564.47l.376.282q0 .188.094.282.095 0 .188.188.094.188.094.282.094 0 .188.188l.094.376q0 .282.094.282v.188q.094 0 .094.188m-3.76-1.692q-.94.47-1.316.94-.282.376-.752 1.128-.188.188-.188.282-.188.282-.188.188v-.188a.7.7 0 0 0 .094-.282q.094-.095 0 .282l-.094.376q0 .094-.094.094v.188q-.188.095-.188.282v.47q0 .282-.094.658a1.8 1.8 0 0 0-.094.564v.564q.094.188.094.47l.094.188q0 .375.188.752l.094.188v.188q.188 0 .188.188h.282q0 .094.094.094h.47l.188-.094q.376 0 .564-.188h.094q.188-.188.376-.188l.282-.376.188-.282q.282 0 .282-.282.47-.47.658-.94.282-.564.658-1.128.095-.188-.094-.094-.187 0 0-.282.095-.376.188-.658.094-.376.094-.564l-.188.846v-1.034q0-.187.094-.376.094-.282-.094-.47 0-.188-.094-.282v-.47a1.5 1.5 0 0 1-.282-.376h-.188q-.093 0-.188-.094l-.282-.094q-.188-.188-.282-.188l-.188-.094zm10.152-8.46q.47-1.597.752-1.786.282-.187 1.034.846.188.188.564.47.47.188.658-.094.658-1.222.94-1.504Q78.74.47 79.775 0q.846.188.846 1.974.094 1.785-.846 4.982l-.094.94q0 .094-.094.188l-.094.094-.188.752q0 .282-.188.94-.094.659-.282 1.41l-.376 1.316-.282.846q.094 0 .188-.094.095-.188-.094.376-.187.282-.376.658a.87.87 0 0 0 0 .564q-.188.188-.188-.188a9.8 9.8 0 0 1-.658 1.786 21 21 0 0 0-.564 1.786l-1.692 5.734q-.093.564-.188 1.222-.093.658-.564 1.222 0 .187-.188.376a1.05 1.05 0 0 0-.094.47q-.658 1.597-.658 1.786 0 .094.094 0 .189-.187.188 0 0 .188-.564 1.88a74 74 0 0 1-.94 2.82q-.376 1.223-.658 2.82 0 .282-.282 1.034-.188.658-.47 1.504a14 14 0 0 1-.47 1.504l-.282 1.128-.752 2.35-1.598 4.888v-.564q0-.282-.094-.47v-.282q-.093.564 0 .846.094.187.094.376.094.094.094.282.095.188-.094.564-.376.752-.658 1.598 0 .188-.188.282-.094.094-.094.282-.094.094-.094.188v.094a7.7 7.7 0 0 1-.658 3.572 16 16 0 0 0-.94 3.102v.376q-.47 1.128-1.316.658-.751-.47-.846-1.786-.093-.094-.188.282 0 .376-.094.846v.846-.282q.094-.376.094-.846.094-.47.094-.846l.094-.376v-.376q.094.094.094.376 0 .188-.094.47v.094q-.187 0-.376.564-.093.47-.188 1.034-.093.282-.094.188v-.846h-.282q-.375.751-.47.658 0-.094-.846-.282-.188-.47-.188-.658v-.47q-.093-.282-.188-.188-.093 0-.188.188a4 4 0 0 0-.188.47.6.6 0 0 1-.282.282l-.282.47q-.188.282-.47-.094t-.282-1.316q.47-1.316.94-3.384l1.128-4.324q.564-2.256 1.128-4.324.563-2.068 1.034-3.384.094-.376.094-.564l.188-.564a178 178 0 0 1 1.034-3.196l1.034-3.102q.47-1.504.752-2.632.376-1.223.564-1.692.189-.94.47-1.974.282-1.035.376-2.068.189-.282.094-.564 0-.282.094-.846 1.035-2.914 1.88-5.828a386 386 0 0 0 1.88-6.204h-.188l2.162-7.238q.095-.282.188-.658.094-.376.376-.846.095-.282.188-.47.094-.188.094-.47l.282-.282q.188-.188.376-.658zm7.614 35.72q.094.188.094.47v.376q.094.187.094.376v.376q.189.376-.094.846v.188l-.094.188v.376q.094.188-.094.47-.094-.659-.094-.752v-.094l.188.188q.094 0 .282-.188l-.094.188q-.093.282-.188.376v.282q.094.188-.094.47t-.188.47-.188.282q0 .188-.094.188-.093 0-.094.094-.188.094-.188.188t-.188.282q-.094 0-.094.094t-.188.094v.094l-.094.376-.094.094h-.094a1.64 1.64 0 0 1-.47.846l-.846.564-.658.658q-.376.188-.564.188t-.47.188q-.376.188-1.222.188l-.094.094h-.564l-.376-.094h-.47q-.188 0-.188-.094l-.282-.094-.282-.188-.282-.188-.282-.376q-.188 0-.188-.094v-.094q0-.094-.188-.282l-.094-.188h-.188l-.094-.376-.188-.094v-.564q-.282-.658-.282-1.222-.282-1.315 0-2.35 0-.752.282-1.034v-.47q.094-.282.094-.47t.094-.188q.094-.094.094-.282-.187 1.316-.658 1.692-.376.282.094-.094l.094-.188v-.094q0-.094.282-.376 0-.188.094-.188.094-.094.094-.282l.094-.188q.189 0 .188-.094v-.094q.094 0 .094-.094l.094-.094v-.188q.376-.565.658-.94l.376-.376.376-.376.188-.188q.282-.188.47-.282a1.2 1.2 0 0 1 .47-.282l.094-.188.094-.094q0-.094.094-.188h.094q.376 0 .376-.094.188 0 .376-.094l.564-.188h.188q.095-.094.282-.094h.094l.188-.094q.94-.188 1.222.094.282.094.282.188l.188.188.376.188q.282.095.564.47l.376.282q0 .188.094.282.095 0 .188.188.094.188.094.282.094 0 .188.188l.094.376q0 .282.094.282v.188q.094 0 .094.188m-3.76-1.692q-.94.47-1.316.94-.282.376-.752 1.128-.188.188-.188.282-.188.282-.188.188v-.188a.7.7 0 0 0 .094-.282q.095-.095 0 .282l-.094.376q0 .094-.094.094v.188q-.188.094-.188.282v.47q0 .282-.094.658a1.8 1.8 0 0 0-.094.564v.564q.094.188.094.47l.094.188q0 .375.188.752l.094.188v.188q.189 0 .188.188h.282q0 .094.094.094h.47l.188-.094q.376 0 .564-.188h.094q.188-.188.376-.188l.282-.376.188-.282q.282 0 .282-.282.47-.47.658-.94.282-.564.658-1.128.095-.188-.094-.094-.187 0 0-.282.095-.376.188-.658.094-.376.094-.564l-.188.846v-1.034q0-.187.094-.376.094-.282-.094-.47 0-.188-.094-.282v-.47a1.5 1.5 0 0 1-.282-.376h-.188q-.093 0-.188-.094l-.282-.094q-.188-.188-.282-.188l-.188-.094z"/><path fill="url(#ad)" d="M122.857 13.818q-.095.188-.564-.752 0 .188-.188-.188l-.282-.282q0-.187-.188-.376a3 3 0 0 1-.376-.47l-.376-.564q-.095-.188-.188-.188a1 1 0 0 1-.188-.282l-.094-.282-.376-.376a1.4 1.4 0 0 1-.282-.376q.093.187.094.376 0 .188.188.658.281.752.188.846 0 .094-.47-.188l-.282-.282a1.5 1.5 0 0 0-.282-.376q-.095-.188-.188-.188a.7.7 0 0 0-.094-.282q-.189-.188-.188-.282h-.094q-.189.188-.658-.282a1.2 1.2 0 0 0-.47-.282l-.376-.376a1.5 1.5 0 0 1-.376-.282q-.189 0-.376-.188 0 .188-.188.188-.095 0-.188.094h-.094a.64.64 0 0 1-.47.188 1.05 1.05 0 0 0-.47-.094q-.753 0-.846.188-.095.094-.188.094a2.2 2.2 0 0 1-.564.376q-.189.188-1.128.188-.753.188-.94.282l-.282.188a.7.7 0 0 1-.282.094l-.188.094a1.5 1.5 0 0 0-.376.282q-.094.094-.376.188-.189.188-.376.282-.095 0-.188.188-.282.188-.47.282-.095 0-.282.188l-2.632 2.068a36 36 0 0 0-2.444 2.068q-.095.094-.188.094l-.094.094a1.5 1.5 0 0 0-.376.282l-.282.282q0 .094-.282.376 0 .094-.094.094v.094q-.376.47-.658 1.034a6 6 0 0 1-.658 1.034q-.94 2.256-2.82 4.042-.94.846-1.317 1.786a10.5 10.5 0 0 0-.751 1.41q-.283.659-.659 1.41a3.3 3.3 0 0 0-.846 1.974v.188q-.188.187-.281.376 0 .187-.189.376l-.376.94q-.093.376-.282.846v.282a.7.7 0 0 0-.093.282l-.095.188q-.093.47-.187.846-.094.282-.282.752l-.189.376q.001.187-.094.376v-.094.094h.094q-.187 1.223-.282 2.444v4.512q0 1.034.189 2.162 0 .188.188.564v.188q.093 0 .093.094v.282q.189 0 .189.188l.188.282q-.094 0 .188.282.563 1.035 1.221 1.786v.094q0 .094.095.188l.094.094.188.188q.093.188.188.282.187.094.376.282l.282.282q.188.095.47.282l.094.094q.093 0 .093.094h.188l.283.094a4.5 4.5 0 0 0 1.692.564q.093-.094.188-.094h.281q0 .094.095.094h.94l.282-.094h.47l.282-.094h.094l.094-.094.564-.188h.094q0-.094.094-.094l.094-.094q.094-.095.376 0h.752q.093-.094.188-.094h.094v-.094l.188-.094h.094q.093-.094.188-.094.188-.094.282-.188a1 1 0 0 1 .282-.188q.188-.094.282-.188a1 1 0 0 1 .282-.188l.094-.094q.093 0 .188-.094l.376-.188.47-.376q.658-.47 1.222-.94.563-.47 1.034-1.128v-.094q.093-.188.188-.188a1.1 1.1 0 0 0 .188-.282q.375-.376.47-.564.187-.188.376-.282l.376-.376q.375-.564.564-.752l.094-.094q.282-.282.658-1.034 0-.282.188-.47l.282-.564q.188-.188.188-.282.187-.47.376-.846a3 3 0 0 1 .564-.752q.282-.282.376-.47l.282-.564q.282-.564.658-.94l-.094-.188q.282-.846.658-1.598.187-.188.376-.658.188-.188.188-.282l.188-.376.094-.47q0-.187.188-.376l.188-1.222q.187-.564.376-.94.187-.751.376-1.128h.094v.094q0-.47.376-1.034.187-.752.376-.752.093-.094.094.658v-.094q.093-.095.094-.282 0-.094-.094-.094v-.47a.84.84 0 0 0 .094-.376q.281-.846.47-1.692.093-.282.094-.752 0-.47.282-.752.187-.94.282-1.316.188-.94.188-1.41 0-.188.282-.658v-.094l.094-.094a9 9 0 0 1-.188-1.786q0-.846.094-1.786v-.564q-.095-.282.094-.47.188 0 .188.376l.094.094v.376q.093.095.094.47l.094.188v.564q.188-.187.282-.376.188-.47.564-.094.094.095.094.47 0 .282-.094.376.188 0 .188.376 0 .282.094.47v.376q.188 0 .282.094l.094.188q.282.094.376.564.093.47.282.564.093 0 .094.094l.376.376q.188.187 0 .846 0 .564-.094.846 0 .188-.188.94 0 .188-.094.564v.564q-.095 1.505-.752 3.666-.094.094-.094.188l-.094.47-.094.282v.094q.093.47.094 1.41.093.564-.094 1.504-.282.752-.658 1.222-.47.564-.47 1.222-.189.188-.376.846a1.04 1.04 0 0 0-.094.47q0 .188-.094.47-.282.282-.47.94l.094.188q-.094.095-.282.47-.095.282-.47 1.034v.188q-.094 0-.094.094v.188l-.188.564q-.189.376-.376.94-.095.563-.47 1.034-.189.188-.282.47-.095.187-.282.376 0 .094-.094.094v.094q-.094 0-.094.094l-.564.94a10 10 0 0 1-.564.846q-.189.376-.47.658a6 6 0 0 0-.376.658q-.189.187-.282.376 0 .094-.188.282-.282.282-.282.376-.189.187-.282.376a1 1 0 0 0-.188.282l-.188.282q-.282.188-.282.282l-.188.188q-.095 0-.188.094-.094 0-.094.094-.282.282-.376.47l-.47.47-.282.282q0 .094-.188.188 0 .282-.376.564l-.282.282-.188.188-.282.282-.564.282h-.094q0 .188-.094.094l-.752.376h-.094q0 .282-.282.282h-.188q-.189.188-.376.188a.8.8 0 0 0-.376.094l-.094.094a9.8 9.8 0 0 1-2.35 1.316q-.094.094-.376.094l-.094.094-.282.094-.094.094q-.095.094-.752.282h-.564a1.05 1.05 0 0 1-.47.094h-.282q-.376.188-.658.282l-.376.188h-.188q-.753.188-1.129 0-.093-.094-.281-.094h-.282a.83.83 0 0 1-.377-.094h-.47q-.281.094-.846-.094l-.093-.094h-.377q0-.094-.093-.094h-.283q.001-.094-.094-.094-.188-.094-.563-.094h-.282q-.94-.188-1.222-.47v-.094l.093-.094a.8.8 0 0 1-.376-.094 1.1 1.1 0 0 0-.282-.188l-.094-.188q-.093-.094-.281-.094a1.1 1.1 0 0 1-.189-.282q-.657-.47-1.597-1.222l-.189-.188q0 0-.093-.188-.282-.094-.282-.376l-.564-.564a1.1 1.1 0 0 0-.189-.282l-.187-.376a1.1 1.1 0 0 0-.189-.282.7.7 0 0 0-.094-.282q-.187-.188-.187-.282l-.094-.094q.093 0 0-.47a3 3 0 0 1-.377-.47 14 14 0 0 0-.281-.752 2.1 2.1 0 0 0-.377-.752l-.187-.376v-.47a7 7 0 0 0-.282-.752.7.7 0 0 1-.094-.282q0-.094-.094-.188l-.376-2.256a28 28 0 0 1-.282-2.256v-.846q-.001-.47.094-.658-.283-.846.093-2.162l.377-2.068.375-2.068a17 17 0 0 1 1.504-5.076l.94-2.256a12 12 0 0 1 1.223-2.35q.093-.188.188-.188.093-.095.188-.282.188-.282.282-.47.093-.282.282-.564l.376-.752q.188-.188.188-.282 0-.187.188-.376l.281-.376.094-.188q0-.188.094-.188l.283-.564v-.094q.845-1.41 2.162-2.726.188-.188.281-.188v-.094a6.4 6.4 0 0 1 1.317-1.88l1.785-1.786v-.094q.189-.187.189-.376a4 4 0 0 0 .47-.564l.47-.47 1.504-1.316q.752-.658 1.41-1.222.658-.47 1.222-.94a2.8 2.8 0 0 1 1.316-.752h.094a18 18 0 0 1 2.444-1.598l.282-.188h.188l.094-.094q.281-.188.47-.188.281-.094.47-.282.47-.188.846-.282.47-.094.94-.094 1.221-.095 2.068.282h.094q.093 0 .094.094h.094q2.35.094 4.324 1.974a9.2 9.2 0 0 1 1.692 1.786 30 30 0 0 1 1.504 2.068v.376q.282.376.658 1.128.564.846.376 1.034m-6.956 21.244q0 .187-.188.376.188-.188.282-.188 0-.376.094-.564.093-.094.094-.188zm-3.196 13.818.094-.094h-.094zm-7.614 2.444q-.283.376-.094.376.281-.094.47-.282.093 0 .47-.188-.095-.094 0-.376-.564.375-.846.47m-.47 2.256-.376.188a.8.8 0 0 0-.376.094q.094.094.376.094.47.094.376.376.188-.094.282-.188a1 1 0 0 1 .282-.188q.281-.094.47-.188.187-.188.376-.188.282-.375-.282-.188-.189 0-.47.094a.4.4 0 0 1-.376 0q-.094 0-.094.094h-.188m-6.204-2.444v.094zm-4.983-1.88v-.094z"/><path fill="url(#ae)" d="M125.091 28.482q.47-.47.939-.564.47-.187.94.282v-.188q.753-.658 1.41-.658.753 0 1.504-.188a10 10 0 0 1 1.786-.376q.941-.187 1.786-.376.283-.094.47-.094.283-.094.47-.564h.094l.188-.094q.095-.282.188-.47l.188-.376h-.188q.095 0 .188-.094.564-1.41 1.128-2.726.565-1.41 1.034-2.82 0-.094.095-.094.094-.094-.095-.282-.657-.375-.47-.94.189-.564.47-1.222 0-.187.095-.376.187-.376.375-.658.189-.282.094-.752-.187-.47-.469-.47l-.377-.188a2.9 2.9 0 0 0-1.034 0q-.564.094-1.034.188-.47.564-.94.658-.469.094-.752-.376-.375-.47-.282-.94.095-.47.282-.94-.752-.094-1.598.188t-1.597-.752q-.095-.188-.095-.658.189-.846.564-.752.095 0 .188.094l1.504-.188q0-.094-.094-.188.471-.564.846-.752.47-.187.94.564v-.094q.094-.094.094-.188.753-.846 1.504-.846.753 0 1.504-.188a5.7 5.7 0 0 1 1.692-.47 20 20 0 0 0 1.881-.282q.281-.094.47-.188.282-.188.375-.658.189-.564.377-.846.375-.564 1.315-.846a6.5 6.5 0 0 1 1.88-.282q.94-.094 1.598.094.753.094.564.376l.094.094q0 .376-.188.846-.188.375.094.658.094.188.376.188.376-.094.846-.188-.657 0-.094-.282h.847q.94-.188 1.127-.188.471.188 1.41-.188.47-.187.752.282h-.093.093q.189-.094.47-.094h1.692a15 15 0 0 1 1.692-.094h.188q.095-.094.282-.094.94-.376 1.786-.282a15 15 0 0 1 1.786.282q.47 0 .94.094.564.094 1.034.564 0 .094-.094.188h.094v-.094l.188-.376q.282 0 .47.094 0-.188.094-.282.376-.376.846-.376.471-.187.846 0 .47.094.94.376 0 .094.188.094.377-.094 1.316.094.47 0 .658.188.376 0 .564-.094.376.188.846.094.471-.188.846.376a.9.9 0 0 1-.564.376l-.563.188q-.188 0-.471.094-.187.094-.376-.094-.093 0-.282.188-.187.094-.564.094-.657-.187-1.222 0a2.3 2.3 0 0 1-1.128.094q-.187 0-.094.188.188.095.188.282a3.7 3.7 0 0 0 1.41.094q.753-.094 1.504.188V9.4l.094-.094-.658-.282q.282-.188.564-.094t.47.188a8 8 0 0 1 2.444 0q1.222.187 2.35.376.376 0 .564.094.376-.188.658-.094.283.095.564.282.47-.094.847-.094.375-.094.845-.094.189 0 .565.188.187-.47.469-.47.376 0 .658.094.846.094 1.599.188a6.6 6.6 0 0 1 1.597.376q.189.094.282.094.189-.095.282 0 .658.188.658.846-.188.375-.47.47a.84.84 0 0 0-.376.094l-.94-.282q-1.034.188-1.974.188-.94-.094-1.973-.188-.377.283-1.222.094-.47.47-.752 0v-.094h-.095q-.281 0-.564-.094-.188-.094-.47.094h-.658q-.375-.187-1.034 0h-.282l-.47-.188v.188l-1.034.188h-1.033a6.3 6.3 0 0 1-2.163 0 .47.47 0 0 1-.564 0l-.094.094-.188.376q.095 0 .095.094h.187l1.41.47.095.094q0 .375-.283.47v.094h-.752a3 3 0 0 0-.752-.094h-1.222l-.094.094q-.187.188-.376.188-.093-.094-.282-.094-.845 0-1.127-.282h-.095q-.751.281-1.41.188a2.35 2.35 0 0 0-1.316 0 4.6 4.6 0 0 0-1.316 0q-.564.095-1.222.282-.282 0-.282-.376-.187-.282-.469-.188a.64.64 0 0 1-.471-.188q-.94.095-1.973.282a20 20 0 0 0-1.881.282q.376 0 .564.094h.282a2.8 2.8 0 0 1-1.034.188 6.3 6.3 0 0 0-1.034-.094q-.752.188-1.598.282t-1.598.188l-1.504.188q-.657 0-1.41.188-.187 0-.282-.188v-.094q-.282.658-.564 1.222a4 4 0 0 0-.376 1.222q-.093.752-.47 1.316-.281.47-.564.94l-.281.658v.282a5.9 5.9 0 0 1-.753 2.068q-.47.846-.94 1.786 0 .376-.094.564.376-.188.846-.188 0 .095-.188.282.094.375-.093.752-.189.376.093.564t.658.094q.376-.188.658 0 .189 0 .094.094h-.564q-.093-.094.094-.188.565 0 .752.282l.659-.094-.095.094h-.094q.095 0 .752-.094a16 16 0 0 1 1.88-.094q1.222-.095 1.692 0 0 .282.282.376.376.094.282.376 0 .564.282.846l.564.564q.376.188.658.47t.188.752q-1.033.188-1.692.564-.657.282-1.692.094a.47.47 0 0 0-.564 0q-.187.095-.47.47a6 6 0 0 0-.564.658.9.9 0 0 1-.47.376q-.564.094-.752.094a.8.8 0 0 0-.376-.094q-.093-.094-.282-.094-.187 0-.751.188-1.035.188-2.069.282a6 6 0 0 0-2.068.376h-.188q0-.094-.094-.094l-.658 1.316a46 46 0 0 0-.94 2.726 22 22 0 0 1-.47 1.598 12 12 0 0 0-.47 1.598q-.094.375-.094.752 0 .282-.188.658l-.282.564q-.375.846-.47.94-.094 0-.094-.094 0-.188-.094-.094-.093 0-.376.94a16 16 0 0 1-.658 1.504q-.282.658-.376 1.598-.188.375-.188.752 0 .375-.094.658-.187.375-.282.752-.093.375-.282.658 0 .094-.188.282 0 .094-.094.188v.094q0 .563-.282 1.034-.187.376-.376.846a.8.8 0 0 1-.094.376q0 .094.094.282 0 .095-.188.47 0 .188-.094.282a8.3 8.3 0 0 1-.376 1.88q-.281.846-.47 1.786l-.188.188q0 .564-.094.752l-.187.376-.283.282q-.093.094-.188.564l-.188 1.128v1.034q-.093.47-.188 1.034-.093.47-.375.658-.659.188-.659-.658a1.63 1.63 0 0 1-.094-.94 2.9 2.9 0 0 0 0-1.034v-.282q.094-.094.094-.282l.188-.094q.47 1.223-.094 2.444.189 0 .282-.094.094-.094.283-.188a.64.64 0 0 1-.189-.47v-.376q.094-.282.094-.47v-.846q0-.47.095-.94a5.3 5.3 0 0 1 0-1.41q.094-.659.187-1.41v-.188q0-.47-.187-.564-.189-.094-.283.188a.64.64 0 0 1-.188.47q0 1.034-.376 1.316h-.188q0 .659-.093.752l-.094-.094q-.094-.188-.376-.47-.188-.282-.471-.282v-.094q-.188-.188-.188-.658-.187-.376-.282.188-.093.564-.47.658-.093 0-.093.188-.471.47-.564.094a2.4 2.4 0 0 1 0-.94 48 48 0 0 1 .282-3.008 18.5 18.5 0 0 1 .752-2.82q0-.282.188-.658l.094-.188q.281-1.597.47-2.256.187-.658.282-1.034.187-.47.47-1.034.282-.659.751-2.162.189-.47.282-1.034.189-.658.282-1.222l.188-.658q.659-1.785 1.316-3.478.659-1.692 1.316-3.572l-.658.188q0-.282-.094-.376-.094-.47-.376-.47h-.564a2.9 2.9 0 0 0-1.034 0q-.47 0-.94.094-.845.94-1.691.282-.658-.564 0-1.786a3.9 3.9 0 0 0-1.692.188q-.847.282-1.598-.564-.095-.188-.095-.658.095-.282.095-.47.093-.282.47-.188l.187.094 1.317-.188zm26.977-21.244q.095 0 .189-.094-.377 0-.659.094h.47M128.944 55.93q0 .188-.094.282 0 .094.094.282zm24.535-43.428q.187-.094 0-.094zM126.97 56.024h-.093v.094z"/><path fill="url(#af)" d="M143.725 28.482q.47-.47.94-.564.47-.187.94.282v-.188q.753-.658 1.41-.658.753 0 1.504-.188a10 10 0 0 1 1.786-.376q.94-.187 1.786-.376.282-.094.47-.094.282-.094.47-.564h.094l.188-.094q.095-.282.188-.47l.188-.376h-.188q.095 0 .188-.094.564-1.41 1.128-2.726.564-1.41 1.034-2.82 0-.094.094-.094.095-.094-.094-.282-.657-.375-.47-.94.189-.564.47-1.222 0-.187.094-.376.189-.376.376-.658.189-.282.094-.752-.188-.47-.47-.47l-.376-.188a2.9 2.9 0 0 0-1.034 0q-.564.094-1.034.188-.47.564-.94.658t-.752-.376q-.375-.47-.282-.94.095-.47.282-.94-.752-.094-1.598.188t-1.598-.752q-.094-.188-.094-.658.189-.846.564-.752.095 0 .188.094l1.504-.188q0-.094-.094-.188.471-.564.846-.752.47-.187.94.564v-.094q.094-.094.094-.188.753-.846 1.504-.846.753 0 1.504-.188a5.7 5.7 0 0 1 1.692-.47 19 19 0 0 0 1.88-.282q.282-.094.47-.188.282-.188.376-.658.189-.564.376-.846.377-.564 1.316-.846a6.5 6.5 0 0 1 1.88-.282q.94-.094 1.598.094.753.094.564.376l.094.094q0 .376-.188.846-.188.375.094.658.094.188.376.188.376-.094.846-.188-.657 0-.094-.282h.846q.94-.188 1.128-.188.471.188 1.41-.188.47-.187.752.282h-.094.094q.189-.094.47-.094h1.692a15 15 0 0 1 1.692-.094h.188q.095-.094.282-.094.94-.376 1.786-.282a15 15 0 0 1 1.786.282q.47 0 .94.094.564.094 1.034.564 0 .094-.094.188h.094v-.094l.188-.376q.282 0 .47.094 0-.188.094-.282.377-.376.846-.376.471-.187.846 0 .47.094.94.376 0 .094.188.094.377-.094 1.316.094.47 0 .658.188.376 0 .564-.094.376.188.846.094.471-.188.846.376a.9.9 0 0 1-.564.376l-.564.188q-.188 0-.47.094-.187.094-.376-.094-.093 0-.282.188-.187.094-.564.094-.657-.187-1.222 0a2.3 2.3 0 0 1-1.128.094q-.187 0-.094.188.188.095.188.282a3.7 3.7 0 0 0 1.41.094q.753-.094 1.504.188V9.4l.094-.094-.658-.282q.282-.188.564-.094t.47.188a8 8 0 0 1 2.444 0q1.222.187 2.35.376.376 0 .564.094.376-.188.658-.094.282.095.564.282.471-.094.846-.094.376-.094.846-.094.189 0 .564.188.189-.47.47-.47.376 0 .658.094.846.094 1.598.188a6.6 6.6 0 0 1 1.598.376q.189.094.282.094.189-.095.282 0 .658.188.658.846-.188.375-.47.47a.84.84 0 0 0-.376.094l-.94-.282q-1.034.188-1.974.188-.939-.094-1.974-.188-.375.283-1.222.094-.47.47-.752 0v-.094h-.094q-.282 0-.564-.094-.188-.094-.47.094h-.658q-.375-.187-1.034 0h-.282l-.47-.188v.188l-1.034.188h-1.034a6.3 6.3 0 0 1-2.162 0 .47.47 0 0 1-.564 0l-.094.094-.188.376q.094 0 .094.094h.188l1.41.47.094.094q0 .375-.282.47v.094h-.752a3 3 0 0 0-.752-.094h-1.222l-.094.094q-.187.188-.376.188-.093-.094-.282-.094-.846 0-1.128-.282h-.094q-.751.281-1.41.188a2.35 2.35 0 0 0-1.316 0 4.6 4.6 0 0 0-1.316 0q-.564.095-1.222.282-.282 0-.282-.376-.188-.282-.47-.188a.64.64 0 0 1-.47-.188q-.939.095-1.974.282-.94.095-1.88.282.376 0 .564.094h.282a2.8 2.8 0 0 1-1.034.188 6.3 6.3 0 0 0-1.034-.094q-.752.188-1.598.282t-1.598.188l-1.504.188q-.657 0-1.41.188-.187 0-.282-.188v-.094q-.282.658-.564 1.222a4 4 0 0 0-.376 1.222q-.093.752-.47 1.316l-.564.94-.282.658v.282a5.8 5.8 0 0 1-.752 2.068q-.47.846-.94 1.786 0 .376-.094.564.376-.188.846-.188 0 .095-.188.282.095.375-.094.752-.188.376.094.564t.658.094q.376-.188.658 0 .189 0 .094.094h-.564q-.093-.094.094-.188.564 0 .752.282l.658-.094-.094.094h-.094q.095 0 .752-.094a16 16 0 0 1 1.88-.094q1.222-.095 1.692 0 0 .282.282.376.376.094.282.376 0 .564.282.846l.564.564q.376.188.658.47t.188.752q-1.033.188-1.692.564-.657.282-1.692.094a.47.47 0 0 0-.564 0q-.188.095-.47.47a6 6 0 0 0-.564.658.9.9 0 0 1-.47.376q-.563.094-.752.094a.8.8 0 0 0-.376-.094q-.093-.094-.282-.094t-.752.188a23 23 0 0 1-2.068.282 6 6 0 0 0-2.068.376h-.188q0-.094-.094-.094l-.658 1.316a46 46 0 0 0-.94 2.726 22 22 0 0 1-.47 1.598 12 12 0 0 0-.47 1.598q-.094.375-.094.752 0 .282-.188.658l-.282.564q-.375.846-.47.94-.094 0-.094-.094 0-.188-.094-.094-.094 0-.376.94a16 16 0 0 1-.658 1.504q-.282.658-.376 1.598-.188.375-.188.752 0 .375-.094.658-.187.375-.282.752-.093.375-.282.658 0 .094-.188.282 0 .094-.094.188v.094q0 .563-.282 1.034-.187.376-.376.846a.8.8 0 0 1-.094.376q0 .094.094.282 0 .095-.188.47 0 .188-.094.282a8.3 8.3 0 0 1-.376 1.88q-.281.846-.47 1.786l-.188.188q0 .564-.094.752l-.188.376-.282.282q-.093.094-.188.564l-.188 1.128v1.034q-.093.47-.188 1.034-.094.47-.376.658-.657.188-.658-.658a1.63 1.63 0 0 1-.094-.94 2.9 2.9 0 0 0 0-1.034v-.282q.094-.094.094-.282l.188-.094q.47 1.223-.094 2.444.189 0 .282-.094.094-.094.282-.188a.64.64 0 0 1-.188-.47v-.376q.094-.282.094-.47v-.846q0-.47.094-.94a5.4 5.4 0 0 1 0-1.41q.095-.659.188-1.41v-.188q0-.47-.188-.564-.187-.094-.282.188a.64.64 0 0 1-.188.47q0 1.034-.376 1.316h-.188q0 .659-.094.752l-.094-.094q-.093-.188-.376-.47-.188-.282-.47-.282v-.094q-.188-.188-.188-.658-.187-.376-.282.188-.093.564-.47.658-.094 0-.094.188-.47.47-.564.094a2.4 2.4 0 0 1 0-.94 49 49 0 0 1 .282-3.008q.282-1.505.752-2.82 0-.282.188-.658l.094-.188q.282-1.597.47-2.256.189-.658.282-1.034.189-.47.47-1.034.282-.659.752-2.162.189-.47.282-1.034.189-.658.282-1.222l.188-.658q.659-1.785 1.316-3.478.659-1.692 1.316-3.572l-.658.188q0-.282-.094-.376-.094-.47-.376-.47h-.564a2.9 2.9 0 0 0-1.034 0q-.47 0-.94.094-.846.94-1.692.282-.657-.564 0-1.786a3.9 3.9 0 0 0-1.692.188q-.845.282-1.598-.564-.094-.188-.094-.658.094-.282.094-.47.095-.282.47-.188l.188.094 1.316-.188zm26.978-21.244q.095 0 .188-.094-.375 0-.658.094h.47M147.579 55.93q0 .188-.094.282 0 .094.094.282zm24.534-43.428q.189-.094 0-.094zm-26.508 43.522h-.094v.094z"/><defs><linearGradient id="aa" x1="40.249" x2="54.701" y1="-9.854" y2="36.605" gradientUnits="userSpaceOnUse"><stop stop-color="#FF4040"/><stop offset=".448" stop-color="#FF6363"/><stop offset=".804" stop-color="#FF9417"/></linearGradient><linearGradient id="ab" x1="40.249" x2="54.701" y1="-9.854" y2="36.605" gradientUnits="userSpaceOnUse"><stop stop-color="#FF4040"/><stop offset=".448" stop-color="#FF6363"/><stop offset=".804" stop-color="#FF9417"/></linearGradient><linearGradient id="ac" x1="40.249" x2="54.701" y1="-9.854" y2="36.605" gradientUnits="userSpaceOnUse"><stop stop-color="#FF4040"/><stop offset=".448" stop-color="#FF6363"/><stop offset=".804" stop-color="#FF9417"/></linearGradient><linearGradient id="ad" x1="40.249" x2="54.701" y1="-9.854" y2="36.605" gradientUnits="userSpaceOnUse"><stop stop-color="#FF4040"/><stop offset=".448" stop-color="#FF6363"/><stop offset=".804" stop-color="#FF9417"/></linearGradient><linearGradient id="ae" x1="40.249" x2="54.701" y1="-9.854" y2="36.605" gradientUnits="userSpaceOnUse"><stop stop-color="#FF4040"/><stop offset=".448" stop-color="#FF6363"/><stop offset=".804" stop-color="#FF9417"/></linearGradient><linearGradient id="af" x1="40.249" x2="54.701" y1="-9.854" y2="36.605" gradientUnits="userSpaceOnUse"><stop stop-color="#FF4040"/><stop offset=".448" stop-color="#FF6363"/><stop offset=".804" stop-color="#FF9417"/></linearGradient></defs></symbol></svg>