<?xml version="1.0" encoding="utf-8"?><svg xmlns="http://www.w3.org/2000/svg" xmlns:xlink="http://www.w3.org/1999/xlink"><symbol fill="none" viewBox="0 0 30 28" id="0"><path fill="#FFDA00" d="M16.042 28h-2.084C6.252 28 0 21.792 0 14.14v-.28C0 6.208 6.252 0 13.958 0h2.084C23.748 0 30 6.208 30 13.86v.28C30 21.792 23.748 28 16.042 28"/><path fill="#fff" d="M1.887 10.799c-.043 0-.087 0-.13-.022a.48.48 0 0 1-.326-.582c1.172-4.009 4.255-7.22 8.206-8.622a.46.46 0 0 1 .586.28.456.456 0 0 1-.282.582c-3.67 1.294-6.534 4.29-7.62 7.997a.42.42 0 0 1-.434.367"/><path fill="#FCB813" d="M22.185 1.4c3.364 2.523 5.557 6.554 5.557 11.059v.28c0 7.652-6.252 13.86-13.958 13.86H11.7a14.34 14.34 0 0 1-6.143-1.401 14.04 14.04 0 0 0 8.4 2.802h2.084C23.748 28 30 21.792 30 14.14v-.28c0-5.475-3.192-10.196-7.815-12.46"/><path fill="#3D3813" d="M9.508 8.687h-.022c-.846 0-1.52.668-1.52 1.509v2.242h3.062v-2.242c0-.82-.695-1.509-1.52-1.509M20.535 8.687h-.021c-.847 0-1.52.668-1.52 1.509v2.242h3.06v-2.242c0-.82-.694-1.509-1.519-1.509M6.73 16.511c-.065-.15.716 5.928 8.27 6.165 7.555-.216 8.336-6.316 8.271-6.165a35.74 35.74 0 0 1-16.541 0"/><path fill="#fff" d="M15 18.774c3.43-.086 5.731-.97 7.25-2.026a35.7 35.7 0 0 1-14.5 0c1.52 1.056 3.82 1.94 7.25 2.026"/><path fill="#D05628" d="M20.297 21.102c-1.325-.71-3.192-1.163-5.297-1.163-2.084 0-3.973.452-5.297 1.163 1.216.841 2.93 1.488 5.297 1.574 2.366-.065 4.06-.711 5.297-1.574"/></symbol></svg>