<?xml version="1.0" encoding="utf-8"?><svg xmlns="http://www.w3.org/2000/svg" xmlns:xlink="http://www.w3.org/1999/xlink"><symbol fill="none" viewBox="0 0 30 28" id="0"><path fill="#B0EBDB" d="M16.042 28h-2.084C6.252 28 0 21.792 0 14.14v-.28C0 6.208 6.252 0 13.958 0h2.084C23.748 0 30 6.208 30 13.86v.28C30 21.792 23.748 28 16.042 28"/><path fill="#6CC5AE" d="M22.185 1.401c3.583 2.686 5.557 6.891 5.557 11.338 0 7.652-6.252 13.86-13.958 13.86H11.7c-2.193 0-4.276-.517-6.143-1.401a14.04 14.04 0 0 0 8.4 2.802h2.084C23.748 28 30 21.792 30 14.14c0-5.385-2.938-10.351-7.815-12.739"/><path fill="#31826D" d="M9.508 8.687h-.022c-.846 0-1.52.668-1.52 1.509v2.241h3.062v-2.241c0-.82-.695-1.51-1.52-1.51M20.535 8.687h-.021c-.847 0-1.52.668-1.52 1.509v2.241h3.06v-2.241c0-.82-.694-1.51-1.519-1.51M6.73 16.511c-.065-.15.716 5.928 8.27 6.165 7.555-.216 8.336-6.316 8.271-6.165a35.74 35.74 0 0 1-16.541 0"/><path fill="#fff" d="M15 18.774c3.43-.086 5.731-.97 7.25-2.026a35.7 35.7 0 0 1-14.5 0c1.52 1.056 3.82 1.94 7.25 2.026"/><path fill="#DCF6EF" d="M20.297 21.102c-1.325-.71-3.192-1.163-5.297-1.163-2.084 0-3.973.452-5.297 1.163 1.216.841 2.93 1.488 5.297 1.574 2.366-.065 4.06-.711 5.297-1.574"/></symbol></svg>