<?xml version="1.0" encoding="utf-8"?><svg xmlns="http://www.w3.org/2000/svg" xmlns:xlink="http://www.w3.org/1999/xlink"><symbol fill="none" viewBox="0 0 30 28" id="0"><path fill="#FFCB47" d="M16.042 28h-2.084C6.252 28 0 21.792 0 14.14 0 6.443 6.173 0 13.958 0h2.084C23.827 0 30 6.443 30 14.14 30 21.792 23.748 28 16.042 28"/><path fill="#F5921C" d="M22.185 1.401c3.583 2.686 5.557 6.891 5.557 11.338 0 7.652-6.252 13.86-13.958 13.86H11.7c-2.193 0-4.276-.517-6.143-1.401a14.04 14.04 0 0 0 8.4 2.802h2.084C23.748 28 30 21.792 30 14.14c0-5.385-2.938-10.351-7.815-12.739"/><path fill="#665143" d="M9.508 8.687h-.022c-.846 0-1.52.668-1.52 1.509v1.185c0 .84.674 1.509 1.52 1.509h.022c.847 0 1.52-.668 1.52-1.509v-1.185c0-.82-.695-1.51-1.52-1.51M20.535 8.687h-.021c-.847 0-1.52.668-1.52 1.509v1.185c0 .84.673 1.509 1.52 1.509h.021c.847 0 1.52-.668 1.52-1.509v-1.185c0-.82-.695-1.51-1.52-1.51M21.75 18.731H8.247a.683.683 0 0 1-.694-.69c0-.387.304-.69.694-.69H21.75c.39 0 .694.303.694.69 0 .389-.304.69-.694.69"/></symbol></svg>