<?xml version="1.0" encoding="utf-8"?><svg xmlns="http://www.w3.org/2000/svg" xmlns:xlink="http://www.w3.org/1999/xlink"><symbol fill="none" viewBox="0 0 30 28" id="0"><path fill="#FFADAD" d="M16.042 28h-2.084C6.252 28 0 21.792 0 14.14v-.28C0 6.208 6.252 0 13.958 0h2.084C23.748 0 30 6.208 30 13.86v.28C30 21.792 23.748 28 16.042 28"/><path fill="#FF6363" d="M22.185 1.401c3.364 2.522 5.557 6.553 5.557 11.058v.28c0 7.652-6.252 13.86-13.958 13.86H11.7c-2.193 0-4.276-.517-6.143-1.401a14.04 14.04 0 0 0 8.4 2.802h2.084C23.748 28 30 21.792 30 14.14v-.28C30 8.385 26.808 3.664 22.185 1.4"/><path fill="#934853" d="M20.883 13.407c-1.52 0-2.713-1.185-2.713-2.651v-.41c0-.387.304-.69.695-.69s.694.303.694.69v.41c0 .711.565 1.272 1.281 1.272.738 0 1.324-.56 1.324-1.272v-.41c0-.387.304-.69.695-.69s.694.303.694.69v.41c0 1.444-1.194 2.651-2.67 2.651M9.16 13.407c-1.519 0-2.713-1.185-2.713-2.651v-.41c0-.387.304-.69.695-.69s.695.303.695.69v.41c0 .711.564 1.272 1.28 1.272.738 0 1.324-.56 1.324-1.272v-.41c0-.387.304-.69.695-.69s.695.303.695.69v.41c.021 1.444-1.172 2.651-2.67 2.651M21.012 20.865a.68.68 0 0 1-.652-.43c-.043-.13-1.324-2.975-5.361-2.975-4.038 0-5.319 2.845-5.362 2.974a.704.704 0 0 1-.912.367.695.695 0 0 1-.369-.906c.065-.15 1.65-3.836 6.664-3.836 5.015 0 6.6 3.664 6.665 3.836.152.345-.022.755-.391.906a.8.8 0 0 1-.282.064"/></symbol></svg>