<?xml version="1.0" encoding="utf-8"?><svg xmlns="http://www.w3.org/2000/svg" xmlns:xlink="http://www.w3.org/1999/xlink"><symbol fill="none" viewBox="0 0 19 18" id="0"><path fill="var(--black,#2F354D)" fill-rule="evenodd" d="M5.7 9.3a3.8 3.8 0 1 1 7.6-.6 3.8 3.8 0 0 1-7.6.6m3.6-2.6a2.3 2.3 0 1 0 .4 4.6 2.3 2.3 0 0 0-.4-4.6" clip-rule="evenodd"/><path fill="var(--porcelain,#E7EAF3)" fill-rule="evenodd" d="M8.5 16.9a8 8 0 1 1 8.7-5.8.8.8 0 0 1-1.4-.4l.2-1a6.6 6.6 0 1 0-7.3 5.7.8.8 0 1 1-.2 1.5" clip-rule="evenodd"/><path fill="var(--black,#2F354D)" fill-rule="evenodd" d="M16.8 10.3c.4 0 .7.5.5.9a8 8 0 0 1-10 5.5.8.8 0 0 1 .5-1.5c3.5 1 7-1 8.1-4.4.1-.4.5-.7 1-.5Z" clip-rule="evenodd"/></symbol></svg>