<svg width="32" height="32" viewBox="0 0 32 32" fill="none" xmlns="http://www.w3.org/2000/svg">
<g clip-path="url(#clip0_3162_13127)">
<path d="M32 16C32 24.8366 24.8366 32 16 32C7.16344 32 0 24.8366 0 16C0 7.16344 7.16344 0 16 0C24.8366 0 32 7.16344 32 16Z" fill="#15181F"/>
<path d="M8.23212 16.0008C8.23212 16.9335 7.46377 17.6897 6.51596 17.6897C5.56815 17.6897 4.7998 16.9335 4.7998 16.0008C4.7998 15.068 5.56815 14.3119 6.51596 14.3119C7.46377 14.3119 8.23212 15.068 8.23212 16.0008Z" fill="#E7EAF3"/>
<path d="M25.4836 17.6897C26.4315 17.6897 27.1998 16.9335 27.1998 16.0008C27.1998 15.068 26.4315 14.3119 25.4836 14.3119C24.5358 14.3119 23.7675 15.068 23.7675 16.0008C23.7675 16.9335 24.5358 17.6897 25.4836 17.6897Z" fill="#E7EAF3"/>
<path d="M19.427 9.61374C17.9858 8.85909 16.3807 8.62031 15.0295 8.93736C13.6534 9.26025 12.4594 10.2039 12.2373 11.7797C12.053 13.0866 12.4475 14.1089 13.132 14.9173C13.7702 15.671 14.6549 16.2278 15.4042 16.6893C16.2102 17.1858 16.8786 17.5839 17.3733 18.0665C17.8278 18.5099 18.0711 18.9656 18.0711 19.574C18.0711 20.2569 17.8618 20.6093 17.641 20.8103C17.3973 21.0322 17.0055 21.1901 16.4524 21.229C15.3127 21.3091 13.9229 20.8509 13.1547 20.2655L11.935 21.8178C13.0792 22.6897 14.9509 23.3024 16.5944 23.1868C17.433 23.1278 18.3133 22.8711 18.9938 22.2517C19.6972 21.6115 20.0642 20.6959 20.0642 19.574C20.0642 18.3153 19.5061 17.3844 18.776 16.6721C18.0862 15.9991 17.1871 15.4724 16.4611 15.0252C15.6785 14.5432 15.0668 14.1375 14.6627 13.6603C14.3049 13.2377 14.1112 12.7605 14.2114 12.0496C14.2939 11.4646 14.7066 11.0309 15.4914 10.8467C16.3011 10.6567 17.4112 10.7812 18.4914 11.3468L19.427 9.61374Z" fill="#E7EAF3"/>
<path fill-rule="evenodd" clip-rule="evenodd" d="M16 30.8333C24.1922 30.8333 30.8333 24.1922 30.8333 16C30.8333 7.80778 24.1922 1.16667 16 1.16667C7.80778 1.16667 1.16667 7.80778 1.16667 16C1.16667 24.1922 7.80778 30.8333 16 30.8333ZM32 16C32 24.8366 24.8366 32 16 32C7.16344 32 0 24.8366 0 16C0 7.16344 7.16344 0 16 0C24.8366 0 32 7.16344 32 16Z" fill="#505573"/>
</g>
<defs>
<clipPath id="clip0_3162_13127">
<rect width="32" height="32" fill="white"/>
</clipPath>
</defs>
</svg>
