<svg fill="none" height="332" width="480" xmlns="http://www.w3.org/2000/svg"><path d="M126.6 94a162.8 162.8 0 0 1 226.8 0l7.5 7.4c3.2 3 3.2 8 0 11l-25.8 25.3a4 4 0 0 1-5.6 0L319 127.6a113.6 113.6 0 0 0-158.2 0l-11.1 10.8a4 4 0 0 1-5.7 0l-25.8-25.2c-3-3-3-8 0-11.1zm280.1 52.2 23 22.5c3 3 3 8 0 11L326.2 281.2c-3.1 3-8.2 3-11.3 0l-73.5-72a2 2 0 0 0-2.8 0l-73.4 72c-3.2 3-8.3 3-11.4 0L50.3 179.8c-3-3.1-3-8 0-11.1l23-22.5c3.1-3 8.2-3 11.3 0l73.5 71.9c.7.7 2 .7 2.8 0l73.4-72c3.2-3 8.2-3 11.4 0l73.4 72c.8.7 2 .7 2.8 0l73.5-72c3.1-3 8.2-3 11.3 0z" fill="#3396ff"/></svg>