<svg width="16" height="16" viewBox="0 0 16 16" fill="none" xmlns="http://www.w3.org/2000/svg">
<path d="M16 8C16 12.4183 12.4183 16 8 16C3.58172 16 0 12.4183 0 8C0 3.58172 3.58172 0 8 0C12.4183 0 16 3.58172 16 8Z" fill="#0988EF"/>
<path d="M14.1221 8.15723L10.543 11.7354L7.99121 9.26172L5.4873 11.7354L1.87695 8.15723L2.98145 7.08301L5.4873 9.55762L7.99121 7.08301L10.543 9.55762L13.0322 7.08301L14.1221 8.15723Z" fill="white"/>
<path d="M4.07422 5.97656C6.0633 3.93645 8.99668 3.1251 11.9658 5.97754L10.8916 7.06641C9.26086 5.46961 7.33896 4.98288 5.12891 7.04785L4.07422 5.97656Z" fill="white"/>
</svg>
