<svg width="793" height="194" viewBox="0 0 793 194" fill="none" xmlns="http://www.w3.org/2000/svg">
  <path
    d="M425.178 65.61H399.719L377.896 89.5338L377.896 103.486C375.868 105.474 373.888 107.476 371.956 109.491C367.215 101.202 361.313 93.5347 354.357 86.7422L354.076 86.4676C374.379 63.5267 391.152 35.1429 405.507 -0.129395H591.844C523.927 13.9532 468.339 37.14 425.178 65.61Z"
    fill="var(--green-light-1, #EDF8F5)" />
  <path
    d="M302.267 23.0465C328.495 31.542 338.151 52.9531 308.482 62.8607C379.187 62.8607 402.1 4.64063 508.826 0.626113C426.068 0.583906 258.764 0.687358 176.66 0.734844C217.574 11.0463 262.763 10.2504 302.267 23.0465Z"
    fill="var(--green-light-3, #B0EBDB)" />
  <path
    d="M753.153 37.262C763.041 31.1132 778.908 27.5658 792.057 32.2403V0.922434C719.812 0.922434 648.557 1.06733 576.311 0.922551C571.837 11.4613 552.785 22.3868 525.456 20.8311C502.095 19.5013 472.582 19.8158 430.877 44.7117C445.836 37.1065 466.645 37.1376 490.323 40.4045L500.39 26.3351H585.297V58.4279C608.521 61.4593 624.965 59.5539 626.414 44.7117C631.359 42.5184 636.3 41.3545 642.282 41.095L667.371 16.8441L716.764 49.7962L740.851 23.7486L753.153 37.262Z"
    fill="var(--green-light-3, #B0EBDB)" />
</svg>