<svg width="793" height="194" viewBox="0 0 793 194" fill="none" xmlns="http://www.w3.org/2000/svg">
  <path d="M348.365 137.969V154.749H308.918V194.081H-6.72266C174.106 185.249 280.702 163.52 348.365 92.6791V137.969Z"
    fill="var(--green-light-1, #EDF8F5)" />
  <path
    d="M717.762 194.043V85.2473L753.541 74.4664L718.344 51.2327L740.843 26.5854L763.925 51.8647V128.601L792.927 142.982V194.043H717.762Z"
    fill="var(--green-light-3, #B0EBDB)" />
  <path d="M653.484 194.043V166.907L568.566 166.908V194.043H653.484Z" fill="var(--green-light-3, #B0EBDB)" />
  <path d="M507.805 194.043V149.803L422.887 116.104V194.043H507.805Z" fill="var(--green-light-3, #B0EBDB)" />
  <path
    d="M383.668 194.043V161.456C383.668 134.01 372.597 107.724 352.96 88.5488L350.365 86.0155V157.125H310.918V194.043H383.668Z"
    fill="var(--green-light-3, #B0EBDB)" />
  <path
    d="M667.597 21.0156L746.707 73.4745L651.251 102.41L644.931 87.4383L591.297 94.7969L632.94 54.5287L653.613 57.9714L644.931 42.9338L667.597 21.0156Z"
    fill="var(--yellow, #FFCB47)" />
  <path fill-rule="evenodd" clip-rule="evenodd"
    d="M749.029 73.815L667.478 19.7378L643.673 42.7575L651.686 56.6368L632.605 53.4593L588.402 96.203L644.306 88.533L650.678 103.628L749.029 73.815ZM740.525 70.5755L646.851 42.4663L667.713 22.2931L740.525 70.5755ZM633.271 55.5977L740.045 73.3788L594.188 93.3905L633.271 55.5977Z"
    fill="var(--green, #14C393)" />
  <path d="M482.047 58.6222L502.576 29.5215H582.088V194.152H482.047V58.6222Z" fill="var(--porcelain, #ECEEF5)" />
  <path d="M380.5 91.1711L401.029 68.4414H436.331L456.128 127.661V194.152H380.5V91.1711Z"
    fill="var(--porcelain, #ECEEF5)" />
  <path d="M619.342 160.458L639.87 131.357L745.701 166.704V194.152H619.342V160.458Z" fill="var(--porcelain, #ECEEF5)" />
  <path
    d="M583.084 28.5215H502.054L481.043 58.3049V194.003H503.572V30.5215H564.006V139.239L538.112 165.134V194.003H540.112V165.962L566.006 140.068V30.5215H581.084V194.003H583.084V28.5215Z"
    fill="var(--mystic, #D2D6E7)" />
  <path fill-rule="evenodd" clip-rule="evenodd"
    d="M746.697 194.003V165.984L639.478 130.173L618.338 160.141V194.003H640.866V148.773L744.697 183.678V194.003H746.697ZM744.697 167.425V181.324L640.866 146.645V132.746L744.697 167.425Z"
    fill="var(--mystic, #D2D6E7)" />
  <path
    d="M457.124 194.003V127.499L437.048 67.4414H400.58L379.496 90.7864V194.003H402.025V69.4414H411.269V138.119L421.031 149.154V194.003H423.031V148.397L413.269 137.361V69.4414H435.607L455.124 127.824V194.003H457.124Z"
    fill="var(--mystic, #D2D6E7)" />
  <path fill-rule="evenodd" clip-rule="evenodd"
    d="M494.689 57.558C521.207 50.0731 561.521 45.4514 616.614 47.0741C617.166 47.0904 617.6 47.5511 617.584 48.1031C617.568 48.6552 617.107 49.0895 616.555 49.0732C561.577 47.4539 521.484 52.073 495.232 59.4828C482.1 63.1892 472.489 67.5783 466.212 72.1904C459.916 76.8167 457.139 81.5365 457.247 85.9037C457.324 89.0396 459.101 91.9145 462.368 94.6022C465.637 97.2916 470.288 99.6974 475.836 101.88C486.929 106.244 501.334 109.614 514.741 112.646C515.657 112.853 516.568 113.059 517.474 113.263C529.754 116.033 540.979 118.565 547.433 121.379C549.175 122.138 550.635 122.944 551.691 123.822C552.737 124.693 553.512 125.741 553.598 126.992C553.686 128.261 553.046 129.428 551.969 130.481C550.891 131.535 549.266 132.587 547.091 133.664C543.917 135.234 539.19 136.73 533.232 138.262C527.257 139.799 519.975 141.391 511.656 143.137C508.488 143.803 505.168 144.491 501.711 145.207C486.997 148.257 469.788 151.824 451.147 156.35C416.75 164.702 377.533 176.307 340.277 193.902H335.645C374.204 175.2 415.066 163.052 450.675 154.406C469.353 149.872 486.602 146.296 501.317 143.246C504.771 142.531 508.085 141.844 511.245 141.18C519.563 139.434 526.806 137.85 532.733 136.326C538.677 134.797 543.23 133.343 546.204 131.871C548.299 130.834 549.71 129.892 550.571 129.051C551.432 128.208 551.634 127.579 551.603 127.13C551.571 126.663 551.267 126.071 550.412 125.36C549.566 124.656 548.302 123.939 546.634 123.212C540.364 120.479 529.317 117.986 516.914 115.187C516.049 114.992 515.177 114.795 514.3 114.597C500.923 111.572 486.365 108.171 475.104 103.741C469.476 101.527 464.602 99.0301 461.097 96.1467C457.59 93.2615 455.344 89.8937 455.247 85.9529C455.116 80.6336 458.503 75.3731 465.028 70.5788C471.571 65.7704 481.435 61.2988 494.689 57.558Z"
    fill="var(--yellow, #FFCB47)" />
  <path fill-rule="evenodd" clip-rule="evenodd"
    d="M503.426 55.3157C529.761 49.1789 567.253 45.6203 616.612 47.0741C617.164 47.0904 617.599 47.5511 617.582 48.1031C617.566 48.6552 617.106 49.0895 616.553 49.0732C567.304 47.6226 529.995 51.178 503.879 57.2635C503.342 57.3889 502.804 57.0544 502.679 56.5166C502.553 55.9787 502.888 55.441 503.426 55.3157ZM502.68 110.877C502.808 110.34 503.348 110.008 503.885 110.137C508.399 111.216 512.94 112.24 517.339 113.233C527.948 115.626 537.736 117.835 544.355 120.178C546.707 121.011 548.711 121.877 550.234 122.8C551.724 123.704 552.915 124.757 553.388 126.034C553.906 127.433 553.472 128.809 552.377 130.051C551.314 131.256 549.548 132.447 547.09 133.664C543.444 135.468 537.736 137.178 530.442 138.961C523.126 140.75 514.128 142.632 503.856 144.762C503.315 144.875 502.785 144.527 502.673 143.986C502.561 143.446 502.909 142.916 503.449 142.804C513.73 140.672 522.692 138.797 529.967 137.018C537.263 135.234 542.776 133.567 546.202 131.871C548.584 130.692 550.072 129.641 550.877 128.728C551.651 127.851 551.699 127.231 551.513 126.729C551.282 126.105 550.583 125.351 549.197 124.51C547.843 123.69 545.985 122.876 543.688 122.063C537.187 119.762 527.593 117.597 517.05 115.219C512.621 114.22 508.025 113.183 503.42 112.082C502.883 111.953 502.551 111.414 502.68 110.877ZM456.933 153.936C457.06 154.473 456.728 155.012 456.191 155.14C439.223 159.162 420.96 163.967 402.252 169.897C401.725 170.064 401.163 169.773 400.996 169.246C400.829 168.72 401.121 168.158 401.647 167.991C420.415 162.041 438.728 157.224 455.729 153.194C456.267 153.066 456.806 153.399 456.933 153.936Z"
    fill="var(--green, #14C393)" />

</svg>