<svg width="791" height="194" viewBox="0 0 791 194" fill="none" xmlns="http://www.w3.org/2000/svg">
  <path fill-rule="evenodd" clip-rule="evenodd"
    d="M721.713 15.5808C730.767 19.4607 738.789 24.774 745.625 31.1413C741.584 34.6305 737.055 36.3856 733.588 36.3856C733.038 36.3856 732.593 36.8328 732.593 37.3843C732.593 37.9359 733.038 38.383 733.588 38.383C737.584 38.383 743.038 40.775 747.518 45.5998C751.967 50.3928 755.4 57.5358 755.4 66.923C755.4 67.4745 755.845 67.9217 756.395 67.9217C756.944 67.9217 757.389 67.4745 757.389 66.923C757.389 60.6257 758.959 55.3378 761.353 51.0914C773.48 72.512 776.036 99.0057 766.024 123.249C765.536 124.43 765.024 125.593 764.487 126.738C746.419 140.492 731.676 128.644 732.015 116.947C717.423 136.581 668.523 121.497 696.191 71.842C716.538 35.3256 690.582 36.3264 666.305 37.2625C651.569 37.8308 637.451 38.3752 634.683 30.4906V30.4407C657.298 9.38217 691.125 2.47314 721.713 15.5808ZM724.328 56.509C724.328 55.9575 723.883 55.5104 723.333 55.5104C722.784 55.5104 722.339 55.9575 722.339 56.509C722.339 67.4215 714.311 72.8557 709.776 72.8557C709.226 72.8557 708.781 73.3028 708.781 73.8544C708.781 74.406 709.226 74.8531 709.776 74.8531C712 74.8531 715.125 76.1989 717.719 78.9926C720.283 81.7545 722.273 85.8814 722.273 91.3288C722.273 91.8803 722.718 92.3274 723.268 92.3274C723.817 92.3274 724.262 91.8803 724.262 91.3288C724.262 85.8862 726.282 81.7604 728.878 78.9969C731.505 76.2013 734.664 74.8531 736.891 74.8531C737.441 74.8531 737.886 74.406 737.886 73.8544C737.886 73.3028 737.441 72.8557 736.891 72.8557C732.356 72.8557 724.328 67.4215 724.328 56.509Z"
    fill="var(--orange, #FFAD4D)" />
  <path
    d="M609.035 89.6275C609.034 90.5993 609.05 91.5698 609.084 92.5387L609.09 92.5353C609.054 91.5676 609.036 90.5982 609.035 89.6275Z"
    fill="var(--orange, #FFAD4D)" />
  <path
    d="M764.624 126.587C746.539 140.323 731.676 128.213 732.015 116.561C717.423 136.106 668.991 121.281 696.659 71.8486C717.006 35.496 690.582 36.3018 666.305 37.2337C651.569 37.7994 637.451 38.3414 634.683 30.4922C626.503 38.0498 619.79 47.4418 615.228 58.3931C610.623 69.4451 608.674 80.9685 609.09 92.2586L628.705 81.1064L621.83 70.2802L660.973 68.2607L642.695 103.417L634.504 90.2578L615.26 101.327L729.7 162.492C744.478 154.709 756.978 142.627 764.624 126.587Z"
    fill="var(--yellow, #FFCB47)" />
  <path
    d="M753.344 114.868C758.332 113.6 766.344 99.6754 765.12 95.1239C763.895 90.5725 758.859 87.9106 753.872 89.1786C742.798 91.9939 747.726 116.297 753.344 114.868Z"
    fill="var(--yellow, #FFCB47)" />
  <path
    d="M167.227 194.54L782.117 193.447L582.722 86.54L419.036 163.331L372.028 138.546L371.601 139.338L330.703 117.085L261.727 150.536L261.408 149.872L167.227 194.54Z"
    fill="var(--athens, #F3F4FA)" />
  <path
    d="M256.283 143.236L330.643 166.719L430.94 95.4143L432.734 94.1016L545.389 164.557L607.671 125.615L716.127 183.481C716.127 183.481 756.518 149.715 790.716 116.665L791.096 194.102H143.371L256.283 143.236Z"
    fill="var(--porcelain, #ECEEF5)" />
  <path
    d="M544.649 162.584L433.001 92.1611L330.421 165.473L256.063 141.723L141.668 193.891L146.002 194.015L256.186 143.864L328.388 166.926L291.301 194.161H420.45C393.456 164.074 398.268 132.106 429.821 96.8908L433.07 94.5685L544.133 164.623L597.088 194.15H600.451C588.349 173.736 589.444 143.299 607.594 126.74L734.263 194.087H743.396C744.449 169.857 759.957 147.475 790.636 116.95V115.364L716.729 182.5L607.53 124.44L544.649 162.584Z"
    fill="var(--mystic, #D2D6E7)" />
  <path
    d="M541.924 132.641L432.668 62.0234L327.469 138.313L253.77 113.443L84.2188 194.023H99.8155L254.209 120.974L328.661 146.098L432.668 71.836L541.753 140.772L635.325 87.7528L642.586 99.2351L657.321 70.8287L625.49 72.1996L631.585 81.8383L541.924 132.641Z"
    fill="var(--orange, #FFAD4D)" />
  <path
    d="M739.266 37.5055C746.134 35.1405 753.789 28.3831 756.448 17.5908C759.106 28.3784 766.755 35.1345 773.622 37.5024C770.272 38.6733 766.744 40.8922 763.704 44.0713C760.451 47.4733 757.729 51.9999 756.347 57.5908C754.985 52.0031 752.302 47.4778 749.087 44.0754C746.085 40.8973 742.594 38.6779 739.266 37.5055Z"
    fill="var(--yellow-hover, #FBB80D)" />
</svg>