<svg width="791" height="194" viewBox="0 0 791 194" fill="none" xmlns="http://www.w3.org/2000/svg">
  <path
    d="M620.877 0.974609H409.968C339.63 138.931 -0.757812 194.102 -0.757812 194.102H143.371L256.284 143.236L265.925 146.28L330.755 114.839L372.029 137.296L412.906 109.445C438.151 57.8818 487.301 4.3555 620.877 0.974609Z"
    fill="var(--green-light-1, #EDF8F5)" />
  <path
    d="M482.977 0.433105C474.909 3.21644 466.827 6.70022 458.764 10.9925C507.676 10.9925 482.781 50.7147 403.008 33.0879C471.838 59.4663 550.191 52.0086 554.24 30.1451C560.715 11.1505 585.659 14.3306 617.127 18.3424C641.608 21.4634 670.038 25.0878 696.791 19.1659C682.975 20.2742 663.91 14.9512 641.318 8.64311C631.653 5.94457 621.342 3.06577 610.521 0.433105H482.977Z"
    fill="var(--green-light-3, #B0EBDB)" />
</svg>