<svg xmlns="http://www.w3.org/2000/svg" width="16" height="16" fill="none"><path fill="#fff" fill-rule="evenodd" d="M3 2c0 .6-.5 1-1 1a1 1 0 0 1-1-1c0-.6.4-1 1-1 .5 0 1 .4 1 1m1 0a2 2 0 0 1-2 2C.9 4 0 3.1 0 2s.9-2 2-2c1 0 2 .9 2 2m2-.5a.5.5 0 0 0 0 1h9.5a.5.5 0 0 0 0-1H5.9ZM2 15c.5 0 1-.4 1-1s-.5-1-1-1a1 1 0 0 0-1 1c0 .6.4 1 1 1m0 1c1 0 2-.9 2-2a2 2 0 0 0-2-2c-1.1 0-2 .9-2 2s.9 2 2 2m4-2.5a.5.5 0 0 0 0 1h9.5a.5.5 0 0 0 0-1H5.9ZM2 9c.5 0 1-.4 1-1s-.5-1-1-1a1 1 0 0 0-1 1c0 .6.4 1 1 1m0 1c1 0 2-.9 2-2a2 2 0 0 0-2-2C.9 6 0 6.9 0 8s.9 2 2 2m4-2.5a.5.5 0 0 0 0 1h9.5a.5.5 0 0 0 0-1H5.9Z" clip-rule="evenodd"/></svg>