<svg width="16" height="16" viewBox="0 0 16 16" fill="none" xmlns="http://www.w3.org/2000/svg">
  <rect width="16" height="16" rx="2" fill="#DAE0FD" />
  <path d="M16 4H0V3H16V4Z" fill="#5275FF" />
  <path
    d="M11.7482 5.06596C11.9879 5.20297 12.0712 5.5084 11.9342 5.74816L9.93423 9.24816C9.80817 9.46877 9.53669 9.55975 9.30315 9.45966L6.23648 8.14537L4.94732 10.7237C4.82383 10.9707 4.52349 11.0708 4.2765 10.9473C4.02951 10.8238 3.9294 10.5235 4.0529 10.2765L5.5529 7.27648C5.67129 7.03969 5.95374 6.93623 6.19707 7.04051L9.28722 8.36486L11.066 5.25202C11.203 5.01226 11.5084 4.92896 11.7482 5.06596Z"
    fill="#5275FF" />
  <path d="M0 13H16V12H0V13Z" fill="#5275FF" />
</svg>