<svg width="16" height="16" viewBox="0 0 16 16" fill="none" xmlns="http://www.w3.org/2000/svg">
  <rect width="16" height="16" rx="2" fill="#DAE0FD" />
  <path
    d="M12.9473 2.72372C13.0708 2.47673 12.9707 2.17639 12.7237 2.0529C12.4767 1.9294 12.1764 2.02951 12.0529 2.2765L11.0529 4.2765C10.9294 4.52349 11.0295 4.82383 11.2765 4.94732C11.5235 5.07082 11.8238 4.97071 11.9473 4.72372L12.9473 2.72372Z"
    fill="#5275FF" />
  <path
    d="M4.94732 11.7237C5.07082 11.4767 4.97071 11.1764 4.72372 11.0529C4.47673 10.9294 4.17639 11.0295 4.0529 11.2765L3.0529 13.2765C2.9294 13.5235 3.02951 13.8238 3.2765 13.9473C3.52349 14.0708 3.82383 13.9707 3.94732 13.7237L4.94732 11.7237Z"
    fill="#5275FF" />
  <path d="M16 7H0V6H16V7Z" fill="#5275FF" />
  <path d="M0 10H16V9H0V10Z" fill="#5275FF" />
</svg>