<svg width="16" height="16" viewBox="0 0 16 16" fill="none" xmlns="http://www.w3.org/2000/svg">
  <rect width="16" height="16" rx="2" fill="#FFEEEE" />
  <path fill-rule="evenodd" clip-rule="evenodd"
    d="M6 6.5V5.5C6 5.22386 5.77614 5 5.5 5C5.22386 5 5 5.22386 5 5.5V6.5C5 6.77614 5.22386 7 5.5 7C5.77614 7 6 6.77614 6 6.5ZM5.5 4C4.67157 4 4 4.67157 4 5.5V6.5C4 7.32843 4.67157 8 5.5 8C6.32843 8 7 7.32843 7 6.5V5.5C7 4.67157 6.32843 4 5.5 4ZM11.3254 4.12038C11.5351 4.30009 11.5593 4.61574 11.3796 4.8254L5.37964 11.8254C5.19993 12.0351 4.88428 12.0593 4.67461 11.8796C4.46495 11.6999 4.44067 11.3843 4.62038 11.1746L10.6204 4.17461C10.8001 3.96495 11.1157 3.94067 11.3254 4.12038ZM11 9.43567V10.4357C11 10.7118 10.7761 10.9357 10.5 10.9357C10.2239 10.9357 10 10.7118 10 10.4357V9.43567C10 9.15953 10.2239 8.93567 10.5 8.93567C10.7761 8.93567 11 9.15953 11 9.43567ZM9 9.43567C9 8.60724 9.67157 7.93567 10.5 7.93567C11.3284 7.93567 12 8.60724 12 9.43567V10.4357C12 11.2641 11.3284 11.9357 10.5 11.9357C9.67157 11.9357 9 11.2641 9 10.4357V9.43567Z"
    fill="#FF6363" />
</svg>