<svg width="16" height="16" viewBox="0 0 16 16" fill="none" xmlns="http://www.w3.org/2000/svg">
  <mask id="mask0_36213_8036" style="mask-type:alpha" maskUnits="userSpaceOnUse" x="0" y="0" width="16" height="16">
    <path
      d="M0 2C0 0.895431 0.895431 0 2 0H14C15.1046 0 16 0.895431 16 2V14C16 15.1046 15.1046 16 14 16H2C0.895431 16 0 15.1046 0 14V2Z"
      fill="#DAE0FD" />
  </mask>
  <g mask="url(#mask0_36213_8036)">
    <path d="M0 0H16L0 16V0Z" fill="#D6F6D6" />
    <path d="M16 0V14C16 15.1046 15.1046 16 14 16H0L16 0Z" fill="#FFEEEE" />
  </g>
  <path fill-rule="evenodd" clip-rule="evenodd"
    d="M9.90436 9C9.40489 9 9 9.40489 9 9.90436V10.148C9 10.6475 9.40489 11.0524 9.90436 11.0524C10.4038 11.0524 10.8087 10.6475 10.8087 10.148V9.90436C10.8087 9.40489 10.4038 9 9.90436 9ZM13.235 9.17063C13.4539 9.33908 13.4947 9.65302 13.3262 9.87183L10.3086 13.7919C10.1401 14.0107 9.82619 14.0515 9.60738 13.8831C9.38856 13.7146 9.34773 13.4007 9.51617 13.1819L12.5338 9.26184C12.7023 9.04302 13.0162 9.00219 13.235 9.17063ZM12.1913 12.8519C12.1913 12.3525 12.5962 11.9476 13.0957 11.9476C13.5951 11.9476 14 12.3525 14 12.8519V13.0956C14 13.595 13.5951 13.9999 13.0957 13.9999C12.5962 13.9999 12.1913 13.595 12.1913 13.0956V12.8519Z"
    fill="#FF6363" />
  <path fill-rule="evenodd" clip-rule="evenodd"
    d="M2.90436 2C2.40489 2 2 2.40489 2 2.90436V3.148C2 3.64746 2.40489 4.05236 2.90436 4.05236C3.40382 4.05236 3.80871 3.64746 3.80871 3.148V2.90436C3.80871 2.40489 3.40382 2 2.90436 2ZM6.23503 2.17063C6.45385 2.33908 6.49468 2.65302 6.32624 2.87183L3.30858 6.79186C3.14013 7.01068 2.82619 7.05151 2.60738 6.88307C2.38856 6.71462 2.34773 6.40068 2.51617 6.18187L5.53383 2.26184C5.70228 2.04302 6.01622 2.00219 6.23503 2.17063ZM5.19131 5.85193C5.19131 5.35247 5.5962 4.94757 6.09567 4.94757C6.59513 4.94757 7.00002 5.35246 7.00002 5.85193V6.09557C7.00002 6.59503 6.59513 6.99993 6.09567 6.99993C5.5962 6.99993 5.19131 6.59504 5.19131 6.09557V5.85193Z"
    fill="#1BAD44" />
</svg>