<?xml version="1.0" encoding="utf-8"?><svg xmlns="http://www.w3.org/2000/svg" xmlns:xlink="http://www.w3.org/1999/xlink"><symbol fill="none" viewBox="0 0 22 20" id="0"><path fill="var(--product-color-1, #4E5472)" d="M4.5 11a.5.5 0 0 0 0 1h13a.5.5 0 0 0 0-1zm0 4a.5.5 0 0 0 0 1h13a.5.5 0 0 0 0-1z"/><path fill="var(--product-color-2, #9FAAC4)" fill-rule="evenodd" d="M0 1a1 1 0 0 1 1-1h20a1 1 0 0 1 1 1v3a1 1 0 0 1-1 1H1a1 1 0 0 1-1-1zm1 0h20v3H1zM0 8a1 1 0 0 1 1-1h20a1 1 0 0 1 1 1v11a1 1 0 0 1-1 1H1a1 1 0 0 1-1-1zm1 0h20v11H1z" clip-rule="evenodd"/></symbol></svg>