<?xml version="1.0" encoding="utf-8"?><svg xmlns="http://www.w3.org/2000/svg" xmlns:xlink="http://www.w3.org/1999/xlink"><symbol fill="none" viewBox="0 0 19 18" id="0"><path fill-rule="evenodd" clip-rule="evenodd" d="M5.6 9.1a3.7 3.7 0 117.4 0 3.7 3.7 0 01-7.4 0zm3.7-5.2a5.2 5.2 0 100 10.4 5.2 5.2 0 000-10.4zM6.4 15.7c0 1 .5 1.9 1.5 1.9h3c.8 0 1.5-1 1.3-2h-.1c-1.4.8-4 .8-5.5 0l-.2.1z" fill="var(--black,#2F354D)"/><path fill-rule="evenodd" clip-rule="evenodd" d="M9.3 1.9a7.2 7.2 0 00-5.3 12 .7.7 0 11-1.1 1A8.7 8.7 0 019.3.5 8.7 8.7 0 0115.7 15a.8.8 0 01-1-1c1.1-1.3 1.8-3 1.8-4.9 0-4-3.2-7.2-7.2-7.2z" fill="var(--porcelain,#E7EAF3)"/></symbol></svg>