<?xml version="1.0" encoding="utf-8"?><svg xmlns="http://www.w3.org/2000/svg" xmlns:xlink="http://www.w3.org/1999/xlink"><symbol fill="none" viewBox="0 0 19 18" id="0"><path fill-rule="evenodd" clip-rule="evenodd" d="M5.7 9.3a3.8 3.8 0 117.6-.6 3.8 3.8 0 01-7.6.6zm3.6-2.6a2.3 2.3 0 10.4 4.6 2.3 2.3 0 00-.4-4.6z" fill="var(--black,#2F354D)"/><path fill-rule="evenodd" clip-rule="evenodd" d="M8.5 16.9a8 8 0 118.7-5.8.8.8 0 01-1.4-.4l.2-1a6.6 6.6 0 10-7.3 5.7.8.8 0 11-.2 1.5z" fill="var(--porcelain,#E7EAF3)"/><path fill-rule="evenodd" clip-rule="evenodd" d="M16.8 10.3c.4 0 .7.5.5.9a8 8 0 01-10 5.5.8.8 0 01.5-1.5c3.5 1 7-1 8.1-4.4.1-.4.5-.7 1-.5z" fill="var(--black,#2F354D)"/></symbol></svg>