<?xml version="1.0" encoding="utf-8"?><svg xmlns="http://www.w3.org/2000/svg" xmlns:xlink="http://www.w3.org/1999/xlink"><symbol fill="none" viewBox="0 0 19 18" id="0"><path fill-rule="evenodd" clip-rule="evenodd" d="M11.35 1.25a.75.75 0 01.96-.44 8.73 8.73 0 010 16.38.75.75 0 11-.52-1.4 7.23 7.23 0 000-13.58.75.75 0 01-.44-.96zm-4.08 0a.75.75 0 01-.44.96 7.23 7.23 0 000 13.57.75.75 0 11-.52 1.41 8.73 8.73 0 010-16.38c.4-.15.82.05.96.44z" fill="var(--porcelain,#E7EAF3)"/><path fill-rule="evenodd" clip-rule="evenodd" d="M6.09 6.4a.75.75 0 000 1.5h6.16a.75.75 0 000-1.5H6.09zm0 4.12a.75.75 0 100 1.5h6.16a.75.75 0 000-1.5H6.09z" fill="var(--black,#2F354D)"/></symbol></svg>