<?xml version="1.0" encoding="utf-8"?><svg xmlns="http://www.w3.org/2000/svg" xmlns:xlink="http://www.w3.org/1999/xlink"><symbol fill="none" viewBox="0 0 23 18" id="0"><path fill-rule="evenodd" clip-rule="evenodd" d="M2.4 9c1 1.7 2.2 3.4 3.6 4.8a7.5 7.5 0 005.3 2.4c2.2 0 3.9-1 5.3-2.4A26 26 0 0020.3 9a26 26 0 00-3.7-4.8 7.5 7.5 0 00-5.3-2.4c-2.1 0-3.8 1-5.3 2.4A26 26 0 002.4 9zm2.5-5.9A9 9 0 0111.3.3a9 9 0 016.4 2.8c1.6 1.6 3 3.7 4 5.5l.3.4-.2.4a29.2 29.2 0 01-4.1 5.5 9 9 0 01-6.4 2.8A9 9 0 015 14.9a29 29 0 01-4-5.5L.5 9l.2-.4C2 6.8 3.3 4.8 5 3.1z" fill="var(--porcelain,#E7EAF3)"/><path fill-rule="evenodd" clip-rule="evenodd" d="M11.3 4a5 5 0 100 10 5 5 0 000-10zM7.8 9a3.5 3.5 0 117 0 3.5 3.5 0 01-7 0zm3.5 1.5a1.5 1.5 0 100-3 1.5 1.5 0 000 3z" fill="var(--black,#2F354D)"/></symbol></svg>