<svg xmlns="http://www.w3.org/2000/svg" width="57" height="52" fill="none"><path fill="var(--mystic, #343A52)" d="M44.214 0c0 9.277-2.085 18.086-7.821 21.378V5.418L28.5 11.958l-7.893-6.542v15.96C14.871 18.087 12.786 9.278 12.786 0 6.276 0 0 13.458 0 28.824c0 7.382 2.237 14.049 4.225 19.025C6.747 42.967 10.5 37.792 14.75 37.792c7.594 0 13.75 1.966 13.75 14.208 0-12.242 6.156-14.208 13.75-14.208 4.25 0 8.003 5.175 10.525 10.057C54.763 42.867 57 36.206 57 28.824 57 13.457 50.724 0 44.214 0"/></svg>