<svg xmlns="http://www.w3.org/2000/svg" width="134" height="41" fill="none"><path fill="url(#a)" d="M19.282 7.192q.31.125.744.186.434.062.806.248.062 0 .124.062h.186q-.124.248-.31.434-.558 0-1.054-.124t-1.116-.248q-.062 0-.124.062h-.062a10 10 0 0 0-1.116-.062 5 5 0 0 1-1.116-.124l-.124-.062q-.062.062-.248.062-.124-.124-.248-.124a.5.5 0 0 1-.186-.062q-.31.062-.558.124-.248 0-.558-.124h-.186q-.062.062-.186.062a1.4 1.4 0 0 1-.434.062h-.558q-.062-.062-.124-.062-.124 0-.31.062h-.248l-.124.124a.42.42 0 0 1-.31.124.7.7 0 0 0-.31.062h1.55q.682-.062 1.24-.062h.434-.124q0-.062-.062-.062a2.6 2.6 0 0 0-.62-.062h-.682a.55.55 0 0 0-.248-.062q-.434.061-.806 0l-.434-.062h-.248q-.186-.186-.31.062v.062q-.062 0-.062.062l-.124.124a4 4 0 0 0-.31.434q0 .31-.124.558l-.186.186a2.6 2.6 0 0 0-.496.682 9 9 0 0 1-.31.682q-.186.434-.31.806t-.31.806a2.5 2.5 0 0 1-.372.62q-.186.248-.124.682a2.4 2.4 0 0 0-.124.31 1 1 0 0 0-.062.31.61.61 0 0 1-.31.558q0 .124-.062.124 0 .062-.062.124 0 .31-.248 1.116t-.31.992q0 .186.062.31-.062.062-.062.124l-.062.062.062.062q.062.434-.31.806a2.3 2.3 0 0 0-.434.744l-.124.124a.42.42 0 0 1-.124.31.5.5 0 0 0 .186.062q.061 0 .186.062h.372a.77.77 0 0 1 .434 0q.125 0 .186-.062.248 0 .31.062h1.054q.061-.062.186-.062h.248q.495-.062.992.124l.31.062h.186q.31 0 .496.062.125 0 .186.062a.42.42 0 0 1 .31.124h.186q.124 0 .186.062a.7.7 0 0 1 .31.062q.062.062.124.062t.186.062l.186.062.062.062q.062 0 .124.062.434.247.744.558.372.247.682.558.062.062.062.124l.186.186q.248.248.31.372.061 0 .186.124.062 0 .186.124a1 1 0 0 0 .186.248v.124q.062 0 .062.062v.186a.42.42 0 0 1 .124.31v.806q.062.062.062.186-.124.124-.124.372v.806q0 .124-.062.124 0 .124-.062.186v.124q.125.248 0 .434 0 .124-.124.496a1.6 1.6 0 0 1-.186.372 6 6 0 0 0-.124.434q-.186.31-.248.062 0-.248-.124.124-.124.124-.124.248 0 .062-.062.186l-.248.372-.248.372q-.062.186-.186.496a.42.42 0 0 0-.124.31q0 .186-.186.31a1.3 1.3 0 0 1-.248.31q-.372.372-.744.806t-.806.806a4 4 0 0 0-.434.372 2.5 2.5 0 0 1-.31.372q-.31.186-.434.372-.186.062-.434.31a5.6 5.6 0 0 1-.806.558q-.372.186-.682.558a2 2 0 0 0-.31.248 1.4 1.4 0 0 1-.372.248 2 2 0 0 0-.31.248 2 2 0 0 1-.372.124q-.062 0-.124.062h-.124l-.124.062q-.186.248-.496.372a3.5 3.5 0 0 0-.62.186 1.4 1.4 0 0 0-.186.31q-.062 0-.124.062h-.124l-.124.062q-.31.372-.93.496-.62.062-1.178.186l-.248-.062q-.434.31-.806.372-.373 0-.124-.868l.062-.062.062-.062q.062-.061 0 .062-.062.062 0 0a.55.55 0 0 1 .248-.062q.186 0 .248-.062.125-.124.186-.124.125 0 0-.124-.124-.124-.434.062l-.372.248a.9.9 0 0 1-.372.062l-.124-.124q-.372.372-.62.434-.248 0-.558-.31h.062q-.124-.062.062-.248a1.2 1.2 0 0 0 .062-.372q0-.248-.248-.434l-.062.124q-.495-.124-.496-.31a.6.6 0 0 1 .248-.31q.62-.434 1.178-.806.558-.434 1.24-.744l.248-.124q.062 0 .124-.062a83 83 0 0 1 2.356-1.674 111 111 0 0 0 2.294-1.736l.248-.372.372-.496.124-.248q.372-.247.62-.496l.62-.62q.124-.124.248-.31a.94.94 0 0 1 .31-.372q0-.062-.062.124 0 .124-.062.31a1.2 1.2 0 0 0-.062.372v.124l.31-.372a4 4 0 0 0 .558-.992q.248-.495.372-.992.062-.186.062-.496a.54.54 0 0 0 .062-.558v-.248q.062-.186 0-.31v-.186h-.062v-.062l-.124-.062-.124-.062h-.124l-.062.062q0-.062-.062-.062h-.248a1.4 1.4 0 0 0-.434-.062 6 6 0 0 1-.434-.124h-.31q-.186 0-.186-.248-.186.062-.558.062a2 2 0 0 0-.496-.062 1.6 1.6 0 0 0-.496-.062.55.55 0 0 1-.248.062.55.55 0 0 0-.248.062 1.2 1.2 0 0 0-.62-.186 3.5 3.5 0 0 1-.62-.186q-.062.062-.124.062-.124.248-.434.124-.186.061-.558-.062-.31-.124-.496 0a.94.94 0 0 0-.372-.31.46.46 0 0 1-.186-.496.57.57 0 0 1 .434-.372 1.8 1.8 0 0 1 .682-.124v-.248q.061-.124-.062-.248v-.186l.124-.062q.496.372.31.62l.062-.062q.061-.124 0-.124 0-.062.062-.124-.062-.247-.062-.744-.062-.062-.062-.31h-.31q-.062-.062-.124-.062 0 .062-.496.186a.37.37 0 0 1-.248-.248 2 2 0 0 0-.31-.248q-.187-.125-.496 0v.124q-.31.31-.496.186a1.4 1.4 0 0 1-.186-.434 16 16 0 0 1-.186-1.302q0-.683.248-1.364v-.248q.062-.062.062-.124.062-.744.248-1.612.186-.93.434-1.86.248-.992.558-1.86.31-.93.62-1.612.124-.31.186-.558.061-.248.186-.558 0-.248.062-.31.31-.495.558-.868.31-.435.744-.93.124-.248.31-.434t.372-.434l.248-.248.186-.186q.124-.062.124-.124a.7.7 0 0 1 .186-.124l.062-.062.062-.062.186-.186q.31-.248.682-.434.434-.186.744-.31a3.6 3.6 0 0 1 1.736-.186h.558l.31.062h.31V3.72h1.488a.77.77 0 0 1 .434 0q.248 0 1.116.124h.186q.186 0 .372.062 1.55 0 3.348.496.372.124.558.248t-.124.31q-.124 0-.186-.062-.124.186.062.434t.372.372a1 1 0 0 1 .248.186v.062-.062q-.062.372-.248.434-.186 0-.868-.248V6.2q-.124.124-.372.062a4 4 0 0 0-.496-.124.7.7 0 0 1-.31.062q-.124-.061-.062.062 0 .124.124.372.186.186.31.248.124 0 .186.062h.186a.5.5 0 0 0 .186.062q.061 0 .186.062l.062.062q.062 0 .124.062"/><path fill="url(#b)" d="m36.86 13.144.124-.062q.063.31.124.558.063.247.248.558l-.062.062a.7.7 0 0 1-.123.186q-.063 0-.187.124-.061.248-.062.434 0 .186-.061.372v.496l-.124.496a6 6 0 0 0-.125.434h.063l-.124.248a.67.67 0 0 1-.187.496v.062a.77.77 0 0 1 0 .434v.31q0 .186.063.248l-.248.868a4.8 4.8 0 0 1-.248.868l.186.062q-.31.061-.31.186a2.4 2.4 0 0 0-.125.31.42.42 0 0 1-.123.31q0 .124-.062.186 0 .124-.124.496a7 7 0 0 1-.186.806l-.124.744q-.063.31 0 .496l-.248.248q.06-.062.31-.062l.62.248q.123.124.123.186t.124.186v.186h-.061q.06.061.31.372h-.062q0 .124-.248.248a.8.8 0 0 0-.186.31.41.41 0 0 0 .062.372l.123-.062q.497.31-.31.558-1.053.372-2.107.558-.372.248-.434.62 0 .124.062.31.06.186 0 .31a.7.7 0 0 1-.124.186q-.063 0-.125.062-.185.435-.248.682v.372q0 .124-.061.372 0 .185-.124.62l-.248.62a2 2 0 0 0-.124.744q-.063.186-.187.682a2 2 0 0 0-.123.62l-.125.124-.062.062a.67.67 0 0 1-.186.496l-.247.372q.123.248.123.372t-.062.186l-.061.124q.06.435 0 .868a5 5 0 0 1-.186.744q-.062.062-.125.062-.06 0-.061.062 0 .496-.125.744-.123.247-.805-.434v-.186l-.062-.124q.061-.061.062-.186-.063-.062-.062-.124.06-.062 0-.124 0-.372-.248-.434-.187-.062-.187.248a1.2 1.2 0 0 0-.061.372q0 .124-.187.248h-.186q.125.559.063.682-.063.124-.558.062-.124-.124-.124-.248a2.5 2.5 0 0 1-.31-.372q-.063-.186-.373-.186-.06.062-.061.186-.31.186-.434 0a.76.76 0 0 1-.124-.434 7.5 7.5 0 0 1 0-1.364q.06-.682.31-1.302 0-.186.062-.248.06-.062.061-.124.063-.744.063-1.178.061-.495.062-.93.06-.435.186-.868.123-.495.31-1.178.123-.247.123-.496 0-.247.125-.496 0-.248-.062-.372.06-.124.123-.31.125-.186.248-.31h-1.116q-.558 0-1.24-.062a61 61 0 0 0-1.674-.124 12.5 12.5 0 0 1-1.611-.186 6 6 0 0 1-1.178-.124q-1.799-.186-1.985-.372a5 5 0 0 1-.495-.434l-.31-.31a1.3 1.3 0 0 1-.248-.31 4 4 0 0 1-.187-.558 1.6 1.6 0 0 1 0-.62v-.62l.372-1.798.063-.868q0-.124.123-.806.188-.744.434-1.798.31-1.054.682-2.294a46 46 0 0 1 .806-2.542q.372-1.425.806-3.1.497-1.736 1.116-3.038-.061-.062-.062-.124-.06-.062.063-.31.123-.683.434-1.364.371-.683.681-1.364l.124-.124.063-.062a.7.7 0 0 1 .248-.248q.185-.062.31.124.06.062 0 .124a.31.31 0 0 0 .372 0q.247-.186.558-.372a1.3 1.3 0 0 1 .31-.248q.371.062.372.248 0 .125-.434.62h.123a.57.57 0 0 1 0 .372l.248.124.124.124q.063-.062.063-.124t.062-.124q.123-.248.247-.31 0-.062.063-.062 0-.062.062-.124 0-.062.247-.248.248-.248.434-.372t.248.062-.31.992q0 .062.125.186a6 6 0 0 1-.186.682 6 6 0 0 1-.186.682q0 .248-.062.434v.124l-.062.186q0 .062-.062.124v.372a.26.26 0 0 1 0 .248l.061.062q.062 0 .125.062.123.124.061.248v.186a.67.67 0 0 1-.123.372 2.4 2.4 0 0 0-.124.31q0 .062-.062.124v.062q-.063.062-.558 1.364-.435 1.24-1.116 2.976a2.4 2.4 0 0 0-.186.496q0 .186-.125.496h-.123a142 142 0 0 0-1.116 3.472q-.372 1.365-.372 1.426v.682h-.062.061q.063.124-.186.31-.247.124-.31.31v.372h-.061v.062q-.124.186.123.186h.063l-.558 1.984h.123a1.1 1.1 0 0 0 .497.124h.247q.187-.061.31 0 .125 0 .125.062h.123q.435.124.869.186.434 0 .867.062.496.062.93.062h.93l.744.124q.372.061.806-.062.497 0 .744-.062h.248q0-.124.124-.496l.248-.744q.186-.372.31-.682.125-.372.125-.496.06-.434.247-.806.249-.435.186-.868l.063-.062q.06 0 .123-.062.187-.062.125-.124t-.125-.31v.186q.063.248.063.124.185-.495.248-.93.123-.495.186-.992-.124-.124 0-.186.123-.124.061-.248.063-.372.248-.682v-.062l.063-.062q.31-.744.557-1.488t.683-1.426q.309-.495.495-.992.186-.558.682-.868.125-.124.31-.062l.806-.062q.063.434.248.806.186.372.186.806.248.124.434.124M28.43 36.828h.062z"/><path fill="url(#c)" d="M45.71 8.618a.7.7 0 0 1 .062.31v.248a.55.55 0 0 1 .062.248v.248q.124.247-.062.558v.124l-.062.124v.248q.061.124-.062.31a7 7 0 0 1-.062-.496v-.062l.124.124q.062 0 .186-.124l-.062.124a.7.7 0 0 1-.124.248v.186q.061.124-.062.31-.124.186-.124.31t-.124.186q0 .124-.062.124t-.062.062q-.124.062-.124.124t-.124.186q-.062 0-.062.062t-.124.062v.062l-.062.248-.062.062h-.062a1.1 1.1 0 0 1-.31.558l-.558.372-.434.434q-.248.124-.372.124t-.31.124q-.248.124-.806.124l-.062.062h-.372l-.248-.062h-.31q-.124 0-.124-.062l-.186-.062-.186-.124-.186-.124-.186-.248q-.124 0-.124-.062v-.062q0-.061-.124-.186l-.062-.124h-.124l-.062-.248-.124-.062v-.372a2.1 2.1 0 0 1-.186-.806q-.186-.868 0-1.55 0-.495.186-.682v-.31q.062-.186.062-.31t.062-.124q.062-.061.062-.186-.124.868-.434 1.116-.248.186.062-.062l.062-.124v-.062q0-.062.186-.248 0-.124.062-.124.062-.062.062-.186l.062-.124q.124 0 .124-.062v-.062q.062 0 .062-.062l.062-.062V8.68q.248-.372.434-.62l.248-.248.248-.248.124-.124a3 3 0 0 1 .31-.186.8.8 0 0 1 .31-.186l.062-.124.062-.062q0-.062.062-.124h.062q.248 0 .248-.062a.55.55 0 0 0 .248-.062l.372-.124h.124q.062-.062.186-.062h.062l.124-.062q.62-.124.806.062.186.062.186.124l.124.124.248.124q.186.062.372.31l.248.186q0 .125.062.186.062 0 .124.124a.5.5 0 0 1 .062.186q.062 0 .124.124l.062.248q0 .186.062.186v.124q.062 0 .062.124m-2.48-1.116q-.62.31-.868.62-.187.247-.496.744-.124.125-.124.186-.124.186-.124.124v-.124a.5.5 0 0 0 .062-.186q.061-.062 0 .186l-.062.248q0 .062-.062.062v.124q-.124.062-.124.186v.31q0 .186-.062.434a1.2 1.2 0 0 0-.062.372v.372a.7.7 0 0 1 .062.31l.062.124q0 .247.124.496l.062.124v.124q.124 0 .124.124h.186q0 .062.062.062h.31l.124-.062q.248 0 .372-.124h.062q.124-.124.248-.124l.186-.248.124-.186q.186 0 .186-.186a1.9 1.9 0 0 0 .434-.62 7 7 0 0 1 .434-.744q.061-.124-.062-.062-.124 0 0-.186.062-.248.124-.434.062-.248.062-.372l-.124.558v-.682a.55.55 0 0 1 .062-.248q.061-.186-.062-.31 0-.125-.062-.186v-.31a1 1 0 0 1-.186-.248h-.124q-.062 0-.124-.062l-.186-.062q-.124-.124-.186-.124l-.124-.062zm6.696-5.58q.31-1.054.496-1.178t.682.558q.124.124.372.31.31.124.434-.062.434-.806.62-.992.248-.247.93-.558.558.125.558 1.302.061 1.177-.558 3.286l-.062.62q0 .062-.062.124l-.062.062-.124.496q0 .186-.124.62-.062.435-.186.93l-.248.868-.186.558q.062 0 .124-.062.061-.124-.062.248a4 4 0 0 0-.248.434.57.57 0 0 0 0 .372q-.124.124-.124-.124a6.4 6.4 0 0 1-.434 1.178q-.186.495-.372 1.178l-1.116 3.782a35 35 0 0 0-.124.806q-.061.434-.372.806 0 .124-.124.248a.7.7 0 0 0-.062.31q-.434 1.054-.434 1.178 0 .062.062 0 .124-.124.124 0t-.372 1.24a49 49 0 0 1-.62 1.86q-.248.805-.434 1.86 0 .186-.186.682-.124.434-.31.992a9 9 0 0 1-.31.992l-.186.744-.496 1.55-1.054 3.224v-.372a.7.7 0 0 0-.062-.31v-.186q-.061.372 0 .558a.55.55 0 0 1 .062.248q.062.062.062.186.061.124-.062.372-.248.495-.434 1.054 0 .125-.124.186-.062.062-.062.186-.062.062-.062.124v.062a5.1 5.1 0 0 1-.434 2.356q-.434 1.055-.62 2.046v.248q-.31.744-.868.434-.496-.31-.558-1.178-.062-.062-.124.186 0 .247-.062.558v.558-.186q.062-.248.062-.558.062-.31.062-.558l.062-.248v-.248q.062.062.062.248 0 .124-.062.31v.062q-.124 0-.248.372-.062.31-.124.682-.062.186-.062.124v-.558h-.186q-.248.495-.31.434 0-.062-.558-.186-.124-.31-.124-.434v-.31q-.062-.186-.124-.124-.062 0-.124.124a2.4 2.4 0 0 0-.124.31.4.4 0 0 1-.186.186l-.186.31q-.124.186-.31-.062t-.186-.868q.31-.869.62-2.232l.744-2.852q.372-1.488.744-2.852t.682-2.232q.062-.248.062-.372l.124-.372q.31-.992.682-2.108l.682-2.046q.31-.992.496-1.736.248-.806.372-1.116.124-.62.31-1.302.186-.683.248-1.364a.41.41 0 0 0 .062-.372q0-.186.062-.558a69 69 0 0 0 1.24-3.844q.62-1.984 1.24-4.092h-.124l1.426-4.774q.062-.186.124-.434a2.1 2.1 0 0 1 .248-.558q.062-.186.124-.31a.7.7 0 0 0 .062-.31l.186-.186q.124-.124.248-.434zm5.022 23.56a.7.7 0 0 1 .062.31v.248a.55.55 0 0 1 .062.248v.248q.124.248-.062.558v.124l-.062.124v.248q.061.124-.062.31a7 7 0 0 1-.062-.496v-.062l.124.124q.062 0 .186-.124l-.062.124a.7.7 0 0 1-.124.248v.186q.061.124-.062.31-.124.186-.124.31 0 .125-.124.186 0 .124-.062.124t-.062.062q-.124.062-.124.124t-.124.186q-.062 0-.062.062t-.124.062v.062l-.062.248-.062.062h-.062a1.1 1.1 0 0 1-.31.558l-.558.372-.434.434q-.248.124-.372.124t-.31.124q-.248.124-.806.124l-.062.062h-.372l-.248-.062h-.31q-.124 0-.124-.062l-.186-.062-.186-.124-.186-.124-.186-.248q-.124 0-.124-.062v-.062q0-.062-.124-.186l-.062-.124h-.124l-.062-.248-.124-.062v-.372a2.1 2.1 0 0 1-.186-.806q-.186-.868 0-1.55 0-.495.186-.682v-.31a1 1 0 0 0 .062-.31q0-.124.062-.124.062-.062.062-.186-.124.868-.434 1.116-.248.186.062-.062l.062-.124v-.062q0-.062.186-.248 0-.124.062-.124.062-.062.062-.186l.062-.124q.124 0 .124-.062v-.062q.062 0 .062-.062l.062-.062v-.124q.248-.372.434-.62l.496-.496.124-.124q.186-.124.31-.186a.8.8 0 0 1 .31-.186l.062-.124.062-.062q0-.062.062-.124h.062q.248 0 .248-.062a.55.55 0 0 0 .248-.062l.372-.124h.124q.062-.062.186-.062h.062l.124-.062q.62-.124.806.062.186.062.186.124l.124.124.248.124q.186.062.372.31l.248.186q0 .124.062.186.062 0 .124.124a.5.5 0 0 1 .062.186q.062 0 .124.124l.062.248q0 .186.062.186v.124q.062 0 .062.124m-2.48-1.116q-.62.31-.868.62-.187.247-.496.744-.124.124-.124.186-.124.186-.124.124v-.124a.5.5 0 0 0 .062-.186q.061-.062 0 .186l-.062.248q0 .062-.062.062v.124q-.124.062-.124.186v.31q0 .186-.062.434a1.2 1.2 0 0 0-.062.372v.372a.7.7 0 0 1 .062.31l.062.124q0 .247.124.496l.062.124v.124q.124 0 .124.124h.186q0 .062.062.062h.31l.124-.062q.248 0 .372-.124h.062q.124-.124.248-.124l.186-.248.124-.186q.186 0 .186-.186a1.9 1.9 0 0 0 .434-.62 7 7 0 0 1 .434-.744q.061-.124-.062-.062-.124 0 0-.186.062-.248.124-.434.062-.248.062-.372l-.124.558v-.682a.55.55 0 0 1 .062-.248q.061-.186-.062-.31 0-.124-.062-.186v-.31a1 1 0 0 1-.186-.248h-.124q-.062 0-.124-.062l-.186-.062q-.125-.124-.186-.124l-.124-.062z"/><path fill="url(#d)" d="M81.875 9.114q-.062.124-.372-.496 0 .124-.124-.124l-.186-.186q0-.124-.124-.248a2 2 0 0 1-.248-.31l-.248-.372q-.061-.124-.124-.124a.7.7 0 0 1-.124-.186l-.062-.186-.248-.248a1 1 0 0 1-.186-.248.55.55 0 0 1 .062.248q0 .124.124.434.186.496.124.558 0 .062-.31-.124l-.186-.186a1 1 0 0 0-.186-.248q-.061-.124-.124-.124a.5.5 0 0 0-.062-.186q-.123-.124-.124-.186h-.062q-.123.124-.434-.186a.8.8 0 0 0-.31-.186l-.248-.248a1 1 0 0 1-.248-.186q-.123 0-.248-.124 0 .124-.124.124-.061 0-.124.062h-.062a.42.42 0 0 1-.31.124.7.7 0 0 0-.31-.062q-.495 0-.558.124-.061.062-.124.062a1.4 1.4 0 0 1-.372.248q-.123.124-.744.124-.495.125-.62.186l-.186.124a.5.5 0 0 1-.186.062l-.124.062a1 1 0 0 0-.248.186.7.7 0 0 1-.248.124 1 1 0 0 1-.248.186q-.061 0-.124.124a3 3 0 0 1-.31.186q-.061 0-.186.124l-1.736 1.364q-.805.62-1.612 1.364-.061.062-.124.062l-.062.062a1 1 0 0 0-.248.186l-.186.186q0 .062-.186.248 0 .062-.062.062v.062q-.248.31-.434.682a4 4 0 0 1-.434.682 7.8 7.8 0 0 1-1.86 2.666q-.62.558-.868 1.178-.31.495-.496.93t-.434.93q-.495.558-.558 1.302v.124a1 1 0 0 0-.186.248q0 .124-.124.248l-.248.62a4.4 4.4 0 0 1-.186.558v.186a.5.5 0 0 0-.062.186l-.062.124q-.061.31-.124.558-.061.186-.186.496l-.124.248a.55.55 0 0 1-.062.248v-.062.062h.062a21 21 0 0 0-.186 1.612v2.976q0 .682.124 1.426 0 .125.124.372v.124q.063 0 .062.062v.186q.124 0 .124.124l.124.186q-.062 0 .124.186.372.682.806 1.178v.062q0 .062.062.124l.062.062.124.124a.7.7 0 0 0 .124.186 1 1 0 0 1 .248.186l.186.186q.124.061.31.186l.062.062q.063 0 .062.062h.124l.186.062q.558.31 1.116.372.063-.062.124-.062h.186q0 .062.062.062h.62l.186-.062h.31l.186-.062h.062l.062-.062.372-.124h.062q0-.062.062-.062l.062-.062q.063-.061.248 0h.496q.063-.062.124-.062h.062v-.062l.124-.062h.062q.063-.062.124-.062a.7.7 0 0 0 .186-.124.7.7 0 0 1 .186-.124.7.7 0 0 0 .186-.124.7.7 0 0 1 .186-.124l.062-.062q.063 0 .124-.062l.248-.124.31-.248q.435-.31.806-.62a4 4 0 0 0 .682-.744v-.062q.063-.124.124-.124a.7.7 0 0 0 .124-.186q.249-.248.31-.372a1 1 0 0 1 .248-.186l.248-.248a3.7 3.7 0 0 1 .372-.496l.062-.062q.186-.186.434-.682a.42.42 0 0 1 .124-.31l.186-.372q.124-.124.124-.186a7 7 0 0 1 .248-.558 2 2 0 0 1 .372-.496q.186-.186.248-.31l.186-.372q.186-.372.434-.62l-.062-.124q.186-.558.434-1.054.125-.124.248-.434.124-.124.124-.186l.124-.248.062-.31q0-.124.124-.248l.124-.806q.125-.372.248-.62.125-.496.248-.744h.062v.062q0-.31.248-.682.125-.495.248-.496.063-.062.062.434v-.062q.063-.062.062-.186 0-.062-.062-.062v-.31a.55.55 0 0 0 .062-.248q.186-.558.31-1.116.063-.186.062-.496a.67.67 0 0 1 .186-.496q.124-.62.186-.868.124-.62.124-.93 0-.124.186-.434v-.062l.062-.062a6 6 0 0 1-.124-1.178q0-.558.062-1.178v-.372q-.061-.186.062-.31.124 0 .124.248l.062.062v.248q.063.062.062.31l.062.124v.372a1 1 0 0 0 .186-.248q.124-.31.372-.062.063.062.062.31 0 .186-.062.248.124 0 .124.248 0 .186.062.31v.248q.124 0 .186.062l.062.124q.186.061.248.372.063.31.186.372.063 0 .062.062l.248.248q.124.124 0 .558 0 .372-.062.558 0 .125-.124.62 0 .124-.062.372v.372q-.061.992-.496 2.418-.062.062-.062.124l-.062.31-.062.186v.062q.063.31.062.93.063.372-.062.992-.185.496-.434.806-.31.372-.31.806-.123.124-.248.558a.7.7 0 0 0-.062.31q0 .124-.062.31-.186.186-.31.62l.062.124a1.4 1.4 0 0 0-.186.31 7 7 0 0 1-.31.682v.124q-.062 0-.062.062v.124l-.124.372a5 5 0 0 0-.248.62 1.46 1.46 0 0 1-.31.682.8.8 0 0 0-.186.31 1 1 0 0 1-.186.248q0 .062-.062.062v.062q-.062 0-.062.062l-.372.62a7 7 0 0 1-.372.558q-.124.248-.31.434a4 4 0 0 0-.248.434 1 1 0 0 0-.186.248q0 .062-.124.186-.186.186-.186.248a1 1 0 0 0-.186.248.7.7 0 0 0-.124.186l-.124.186q-.186.124-.186.186l-.124.124q-.061 0-.124.062-.062 0-.062.062a1.3 1.3 0 0 0-.248.31l-.31.31-.186.186q0 .062-.124.124 0 .186-.248.372l-.186.186-.124.124-.186.186-.372.186h-.062q0 .124-.062.062l-.248.124-.248.124h-.062q0 .186-.186.186h-.124q-.123.124-.248.124a.55.55 0 0 0-.248.062l-.062.062a6.4 6.4 0 0 1-1.55.868q-.062.062-.248.062l-.062.062-.186.062-.062.062q-.061.061-.496.186h-.372a.7.7 0 0 1-.31.062h-.186q-.248.125-.434.186l-.248.124h-.124q-.495.125-.744 0-.061-.062-.186-.062h-.186a.55.55 0 0 1-.248-.062h-.31q-.186.061-.558-.062l-.062-.062h-.248q0-.062-.062-.062h-.186q0-.062-.062-.062a.9.9 0 0 0-.372-.062h-.186q-.62-.124-.806-.31v-.062l.062-.062a.55.55 0 0 1-.248-.062.7.7 0 0 0-.186-.124l-.062-.124q-.062-.062-.186-.062a.7.7 0 0 1-.124-.186q-.433-.31-1.054-.806l-.124-.124-.062-.124q-.186-.062-.186-.248l-.372-.372a.7.7 0 0 0-.124-.186l-.124-.248a.7.7 0 0 0-.124-.186.5.5 0 0 0-.062-.186q-.123-.125-.124-.186l-.062-.062q.063 0 0-.31a2 2 0 0 1-.248-.31 10 10 0 0 0-.186-.496 1.4 1.4 0 0 0-.248-.496l-.124-.248v-.31A5 5 0 0 0 58.75 31a.5.5 0 0 1-.062-.186q0-.062-.062-.124l-.248-1.488a18 18 0 0 1-.186-1.488v-.558q0-.31.062-.434-.186-.558.062-1.426l.248-1.364.248-1.364a11.2 11.2 0 0 1 .992-3.348l.62-1.488a8 8 0 0 1 .806-1.55q.063-.124.124-.124a.7.7 0 0 0 .124-.186q.124-.186.186-.31.063-.186.186-.372l.248-.496q.124-.125.124-.186 0-.124.124-.248l.186-.248.062-.124q0-.124.062-.124l.186-.372v-.062q.559-.93 1.426-1.798.124-.124.186-.124v-.062q.31-.682.868-1.24L66.5 8.928v-.062q.124-.124.124-.248.186-.186.31-.372l.31-.31.992-.868q.497-.434.93-.806.435-.31.806-.62a1.84 1.84 0 0 1 .868-.496h.062a12 12 0 0 1 1.612-1.054l.186-.124h.124l.062-.062q.186-.124.31-.124a.8.8 0 0 0 .31-.186q.31-.125.558-.186.31-.062.62-.062.806-.062 1.364.186h.062q.063 0 .062.062h.062q1.55.061 2.852 1.302.621.495 1.116 1.178.497.62.992 1.364v.248q.186.247.434.744.372.558.248.682m-4.588 14.012q0 .124-.124.248.124-.124.186-.124 0-.248.062-.372.063-.062.062-.124zM75.18 32.24l.062-.062h-.062zm-5.022 1.612q-.185.248-.062.248a.8.8 0 0 0 .31-.186q.063 0 .31-.124-.061-.062 0-.248-.372.248-.558.31m-.31 1.488-.248.124a.55.55 0 0 0-.248.062q.063.062.248.062.31.062.248.248a.7.7 0 0 0 .186-.124.7.7 0 0 1 .186-.124q.186-.062.31-.124.125-.124.248-.124.186-.248-.186-.124-.124 0-.31.062a.26.26 0 0 1-.248 0q-.062 0-.062.062h-.124m-4.092-1.612v.062zm-3.286-1.24v-.062z"/><path fill="url(#e)" d="M83.349 18.786q.31-.31.62-.372.31-.124.62.186v-.124q.495-.434.93-.434.495 0 .992-.124a6.7 6.7 0 0 1 1.178-.248q.62-.124 1.178-.248.186-.062.31-.062.186-.062.31-.372h.062l.124-.062q.061-.186.124-.31l.124-.248h-.124q.061 0 .124-.062.372-.93.744-1.798.372-.93.682-1.86 0-.062.062-.062.061-.062-.062-.186-.435-.248-.31-.62.124-.372.31-.806a.55.55 0 0 1 .062-.248q.123-.248.248-.434.124-.187.062-.496-.124-.31-.31-.31l-.248-.124a1.9 1.9 0 0 0-.682 0q-.372.062-.682.124-.31.372-.62.434t-.496-.248q-.248-.31-.186-.62.061-.31.186-.62-.495-.062-1.054.124t-1.054-.496q-.062-.124-.062-.434.124-.558.372-.496.062 0 .124.062l.992-.124q0-.062-.062-.124.31-.372.558-.496.31-.125.62.372v-.062q.062-.062.062-.124.495-.558.992-.558.495 0 .992-.124a3.8 3.8 0 0 1 1.116-.31q.62-.061 1.24-.186.186-.062.31-.124.186-.124.248-.434.123-.372.248-.558.248-.372.868-.558a4.3 4.3 0 0 1 1.24-.186q.62-.061 1.054.062.495.062.372.248l.062.062q0 .248-.124.558-.124.248.062.434.062.124.248.124.247-.062.558-.124-.434 0-.062-.186h.558q.62-.124.744-.124.31.124.93-.124.31-.124.496.186h-.062.062a.7.7 0 0 1 .31-.062h1.116a10 10 0 0 1 1.116-.062h.124q.061-.062.186-.062.62-.248 1.178-.186.62.062 1.178.186.31 0 .62.062.372.061.682.372 0 .062-.062.124h.062v-.062l.124-.248q.186 0 .31.062 0-.124.062-.186a.77.77 0 0 1 .558-.248q.309-.125.558 0 .31.062.62.248 0 .062.124.062.247-.061.868.062.31 0 .434.124.247 0 .372-.062a.85.85 0 0 0 .558.062q.309-.124.558.248a.6.6 0 0 1-.372.248l-.372.124q-.124 0-.31.062-.125.061-.248-.062-.063 0-.186.124a.9.9 0 0 1-.372.062 1.34 1.34 0 0 0-.806 0 1.5 1.5 0 0 1-.744.062q-.125 0-.062.124.123.061.124.186.496.124.93.062.495-.062.992.124V6.2l.062-.062-.434-.186a.41.41 0 0 1 .372-.062q.186.062.31.124a5.3 5.3 0 0 1 1.612 0q.806.124 1.55.248.248 0 .372.062.248-.124.434-.062.186.061.372.186.309-.062.558-.062.248-.062.558-.062.123 0 .372.124.123-.31.31-.31.248 0 .434.062.558.062 1.054.124.558.062 1.054.248a.5.5 0 0 0 .186.062q.123-.062.186 0 .434.125.434.558-.124.248-.31.31a.55.55 0 0 0-.248.062l-.62-.186a7.3 7.3 0 0 1-1.302.124q-.62-.062-1.302-.124-.248.186-.806.062-.31.31-.496 0v-.062h-.062a1.2 1.2 0 0 1-.372-.062q-.124-.061-.31.062h-.434q-.249-.125-.682 0h-.186l-.31-.124v.124l-.682.124h-.682q-.682.125-1.426 0a.31.31 0 0 1-.372 0l-.062.062-.124.248q.062 0 .062.062h.124l.93.31.062.062q0 .248-.186.31v.062h-.496a2 2 0 0 0-.496-.062h-.806l-.062.062q-.124.124-.248.124-.062-.062-.186-.062-.558 0-.744-.186h-.062a1.9 1.9 0 0 1-.93.124 1.55 1.55 0 0 0-.868 0 3 3 0 0 0-.868 0 7 7 0 0 0-.806.186q-.186 0-.186-.248-.124-.186-.31-.124a.42.42 0 0 1-.31-.124q-.621.061-1.302.186a13 13 0 0 0-1.24.186q.248 0 .372.062h.186a1.8 1.8 0 0 1-.682.124 4 4 0 0 0-.682-.062 8 8 0 0 1-1.054.186q-.558.062-1.054.124l-.992.124q-.435 0-.93.124-.124 0-.186-.124v-.062q-.186.434-.372.806a2.6 2.6 0 0 0-.248.806q-.062.495-.31.868l-.372.62-.186.434v.186q-.124.743-.496 1.364-.31.558-.62 1.178 0 .248-.062.372a1.2 1.2 0 0 1 .558-.124q0 .061-.124.186a.7.7 0 0 1-.062.496q-.124.248.062.372a.52.52 0 0 0 .434.062q.248-.124.434 0 .123 0 .062.062h-.372q-.061-.062.062-.124.372 0 .496.186l.434-.062-.062.062h-.062q.061 0 .496-.062.496-.062 1.24-.062.806-.061 1.116 0 0 .186.186.248.248.062.186.248 0 .372.186.558l.372.372q.248.124.434.31t.124.496q-.683.124-1.116.372-.434.186-1.116.062a.31.31 0 0 0-.372 0q-.124.062-.31.31a4 4 0 0 0-.372.434.6.6 0 0 1-.31.248 4 4 0 0 1-.496.062.55.55 0 0 0-.248-.062q-.063-.062-.186-.062-.124 0-.496.124-.683.124-1.364.186-.683 0-1.364.248h-.124q0-.062-.062-.062l-.434.868a30 30 0 0 0-.62 1.798q-.124.495-.31 1.054-.186.495-.31 1.054a2 2 0 0 0-.062.496 1 1 0 0 1-.124.434l-.186.372q-.248.558-.31.62-.062 0-.062-.062 0-.124-.062-.062-.062 0-.248.62-.186.495-.434.992-.186.434-.248 1.054-.124.247-.124.496 0 .248-.062.434a2.4 2.4 0 0 0-.186.496q-.063.248-.186.434 0 .061-.124.186 0 .062-.062.124v.062a1.3 1.3 0 0 1-.186.682 7 7 0 0 0-.248.558.55.55 0 0 1-.062.248q0 .061.062.186 0 .062-.124.31 0 .125-.062.186a5.5 5.5 0 0 1-.248 1.24 10 10 0 0 0-.31 1.178l-.124.124q0 .372-.062.496l-.124.248-.186.186q-.062.061-.124.372l-.124.744v.682a22 22 0 0 0-.124.682q-.062.31-.248.434-.435.124-.434-.434a1.07 1.07 0 0 1-.062-.62 1.9 1.9 0 0 0 0-.682v-.186q.062-.061.062-.186l.124-.062a2 2 0 0 1-.062 1.612q.124 0 .186-.062a.7.7 0 0 1 .186-.124.42.42 0 0 1-.124-.31v-.248q.062-.186.062-.31v-.558q0-.31.062-.62a3.5 3.5 0 0 1 0-.93q.062-.435.124-.93v-.124q0-.31-.124-.372t-.186.124a.42.42 0 0 1-.124.31q0 .682-.248.868h-.124q0 .435-.062.496l-.062-.062a1.3 1.3 0 0 0-.248-.31q-.124-.186-.31-.186v-.062q-.124-.124-.124-.434-.124-.248-.186.124t-.31.434q-.062 0-.062.124-.31.31-.372.062a1.6 1.6 0 0 1 0-.62q.061-.992.186-1.984.187-.992.496-1.86a1 1 0 0 1 .124-.434l.062-.124q.186-1.055.31-1.488.123-.435.186-.682.124-.31.31-.682.187-.435.496-1.426.123-.31.186-.682.124-.435.186-.806l.124-.434q.435-1.178.868-2.294.435-1.116.868-2.356l-.434.124q0-.186-.062-.248-.062-.31-.248-.31h-.372a1.9 1.9 0 0 0-.682 0q-.31 0-.62.062-.558.62-1.116.186-.435-.372 0-1.178-.558-.062-1.116.124-.559.186-1.054-.372-.062-.124-.062-.434.062-.186.062-.31.062-.186.31-.124l.124.062.868-.124zm17.794-14.012q.061 0 .124-.062-.248 0-.434.062h.31M85.891 36.89q0 .125-.062.186 0 .062.062.186zm16.182-28.644q.123-.062 0-.062zM84.589 36.952h-.062v.062z"/><path fill="url(#f)" d="M95.64 18.786q.31-.31.62-.372.31-.124.62.186v-.124q.495-.434.93-.434.495 0 .992-.124a6.7 6.7 0 0 1 1.178-.248q.62-.124 1.178-.248a1 1 0 0 1 .31-.062q.186-.062.31-.372h.062l.124-.062q.062-.186.124-.31l.124-.248h-.124q.062 0 .124-.062.372-.93.744-1.798.372-.93.682-1.86 0-.062.062-.062.062-.062-.062-.186-.434-.248-.31-.62t.31-.806q0-.124.062-.248.124-.248.248-.434.124-.187.062-.496-.124-.31-.31-.31l-.248-.124a1.9 1.9 0 0 0-.682 0q-.372.062-.682.124-.31.372-.62.434t-.496-.248q-.248-.31-.186-.62.061-.31.186-.62-.496-.062-1.054.124-.559.186-1.054-.496-.062-.124-.062-.434.123-.558.372-.496.061 0 .124.062l.992-.124q0-.062-.062-.124.31-.372.558-.496.31-.125.62.372v-.062q.062-.062.062-.124.496-.558.992-.558t.992-.124a3.8 3.8 0 0 1 1.116-.31q.62-.061 1.24-.186.186-.062.31-.124.186-.124.248-.434a2.4 2.4 0 0 1 .248-.558q.248-.372.868-.558a4.3 4.3 0 0 1 1.24-.186q.62-.061 1.054.062.497.062.372.248l.062.062q0 .248-.124.558-.124.248.062.434.062.124.248.124.247-.062.558-.124-.434 0-.062-.186h.558q.62-.124.744-.124.31.124.93-.124.31-.124.496.186h-.062.062a.7.7 0 0 1 .31-.062h1.116a10 10 0 0 1 1.116-.062h.124q.061-.062.186-.062.62-.248 1.178-.186.62.062 1.178.186.31 0 .62.062.372.061.682.372 0 .062-.062.124h.062v-.062l.124-.248q.186 0 .31.062 0-.124.062-.186a.77.77 0 0 1 .558-.248q.31-.125.558 0 .31.062.62.248 0 .062.124.062.248-.061.868.062.31 0 .434.124.248 0 .372-.062a.85.85 0 0 0 .558.062q.31-.124.558.248a.6.6 0 0 1-.372.248l-.372.124q-.124 0-.31.062-.124.061-.248-.062-.061 0-.186.124a.9.9 0 0 1-.372.062 1.34 1.34 0 0 0-.806 0 1.5 1.5 0 0 1-.744.062q-.124 0-.062.124.124.061.124.186.496.124.93.062.496-.062.992.124V6.2l.062-.062-.434-.186a.41.41 0 0 1 .372-.062q.186.062.31.124a5.3 5.3 0 0 1 1.612 0q.806.124 1.55.248.248 0 .372.062.248-.124.434-.062.186.061.372.186a3 3 0 0 1 .558-.062q.248-.062.558-.062.124 0 .372.124.124-.31.31-.31.248 0 .434.062.558.062 1.054.124.558.062 1.054.248a.5.5 0 0 0 .186.062q.125-.062.186 0 .434.125.434.558-.124.248-.31.31a.55.55 0 0 0-.248.062l-.62-.186a7.3 7.3 0 0 1-1.302.124q-.62-.062-1.302-.124-.248.186-.806.062-.31.31-.496 0v-.062h-.062a1.2 1.2 0 0 1-.372-.062q-.124-.061-.31.062h-.434q-.248-.125-.682 0h-.186l-.31-.124v.124l-.682.124h-.682q-.682.125-1.426 0a.31.31 0 0 1-.372 0l-.062.062-.124.248q.062 0 .062.062h.124l.93.31.062.062q0 .248-.186.31v.062h-.496a2 2 0 0 0-.496-.062h-.806l-.062.062q-.124.124-.248.124-.061-.062-.186-.062-.558 0-.744-.186h-.062a1.9 1.9 0 0 1-.93.124 1.55 1.55 0 0 0-.868 0 3 3 0 0 0-.868 0 7 7 0 0 0-.806.186q-.186 0-.186-.248-.124-.186-.31-.124a.42.42 0 0 1-.31-.124q-.62.061-1.302.186-.62.061-1.24.186.248 0 .372.062h.186a1.8 1.8 0 0 1-.682.124 4 4 0 0 0-.682-.062 8 8 0 0 1-1.054.186q-.558.062-1.054.124l-.992.124q-.434 0-.93.124-.124 0-.186-.124v-.062q-.186.434-.372.806a2.6 2.6 0 0 0-.248.806q-.062.495-.31.868l-.372.62-.186.434v.186q-.124.743-.496 1.364a31 31 0 0 0-.62 1.178q0 .248-.062.372.247-.124.558-.124 0 .061-.124.186a.7.7 0 0 1-.062.496q-.124.248.062.372a.52.52 0 0 0 .434.062q.248-.124.434 0 .124 0 .062.062h-.372q-.062-.062.062-.124.372 0 .496.186l.434-.062-.062.062h-.062q.062 0 .496-.062.496-.062 1.24-.062.805-.061 1.116 0 0 .186.186.248.248.062.186.248 0 .372.186.558l.372.372q.248.124.434.31t.124.496q-.682.124-1.116.372-.433.186-1.116.062a.31.31 0 0 0-.372 0q-.124.062-.31.31a4 4 0 0 0-.372.434.6.6 0 0 1-.31.248 4 4 0 0 1-.496.062.55.55 0 0 0-.248-.062q-.061-.062-.186-.062-.124 0-.496.124-.682.124-1.364.186-.682 0-1.364.248h-.124q0-.062-.062-.062l-.434.868a30 30 0 0 0-.62 1.798q-.124.495-.31 1.054-.186.495-.31 1.054-.062.247-.062.496a1 1 0 0 1-.124.434l-.186.372q-.248.558-.31.62-.062 0-.062-.062 0-.124-.062-.062-.062 0-.248.62-.186.495-.434.992-.186.434-.248 1.054-.124.247-.124.496 0 .248-.062.434-.124.247-.186.496-.061.248-.186.434 0 .061-.124.186 0 .062-.062.124v.062a1.3 1.3 0 0 1-.186.682 8 8 0 0 0-.248.558.55.55 0 0 1-.062.248q0 .061.062.186 0 .062-.124.31 0 .125-.062.186a5.5 5.5 0 0 1-.248 1.24 10 10 0 0 0-.31 1.178l-.124.124q0 .372-.062.496l-.124.248-.186.186q-.062.061-.124.372l-.124.744v.682a22 22 0 0 0-.124.682q-.062.31-.248.434-.434.124-.434-.434a1.07 1.07 0 0 1-.062-.62 1.9 1.9 0 0 0 0-.682v-.186q.062-.061.062-.186l.124-.062a2 2 0 0 1-.062 1.612q.123 0 .186-.062a.7.7 0 0 1 .186-.124.42.42 0 0 1-.124-.31v-.248q.062-.186.062-.31v-.558q0-.31.062-.62a3.5 3.5 0 0 1 0-.93q.061-.435.124-.93v-.124q0-.31-.124-.372t-.186.124a.42.42 0 0 1-.124.31q0 .682-.248.868h-.124q0 .435-.062.496l-.062-.062a1.3 1.3 0 0 0-.248-.31q-.124-.186-.31-.186v-.062q-.124-.124-.124-.434-.124-.248-.186.124t-.31.434q-.062 0-.062.124-.31.31-.372.062a1.6 1.6 0 0 1 0-.62q.061-.992.186-1.984.186-.992.496-1.86a1 1 0 0 1 .124-.434l.062-.124q.186-1.055.31-1.488.124-.435.186-.682.123-.31.31-.682.187-.435.496-1.426.123-.31.186-.682.124-.435.186-.806l.124-.434q.435-1.178.868-2.294.434-1.116.868-2.356l-.434.124q0-.186-.062-.248-.062-.31-.248-.31h-.372a1.9 1.9 0 0 0-.682 0q-.31 0-.62.062-.558.62-1.116.186-.435-.372 0-1.178-.558-.062-1.116.124-.559.186-1.054-.372-.062-.124-.062-.434.062-.186.062-.31.062-.186.31-.124l.124.062.868-.124zm17.794-14.012q.062 0 .124-.062-.248 0-.434.062h.31M98.182 36.89q0 .125-.062.186 0 .062.062.186zm16.182-28.644q.124-.062 0-.062zM96.88 36.952h-.062v.062z"/><defs><linearGradient id="a" x1="33.065" x2="91.597" y1="-8.748" y2="52.61" gradientUnits="userSpaceOnUse"><stop stop-color="#FF4040"/><stop offset=".448" stop-color="#FF6363"/><stop offset=".804" stop-color="#FF9417"/></linearGradient><linearGradient id="b" x1="33.065" x2="91.597" y1="-8.748" y2="52.61" gradientUnits="userSpaceOnUse"><stop stop-color="#FF4040"/><stop offset=".448" stop-color="#FF6363"/><stop offset=".804" stop-color="#FF9417"/></linearGradient><linearGradient id="c" x1="33.065" x2="91.597" y1="-8.748" y2="52.61" gradientUnits="userSpaceOnUse"><stop stop-color="#FF4040"/><stop offset=".448" stop-color="#FF6363"/><stop offset=".804" stop-color="#FF9417"/></linearGradient><linearGradient id="d" x1="33.065" x2="91.597" y1="-8.748" y2="52.61" gradientUnits="userSpaceOnUse"><stop stop-color="#FF4040"/><stop offset=".448" stop-color="#FF6363"/><stop offset=".804" stop-color="#FF9417"/></linearGradient><linearGradient id="e" x1="33.065" x2="91.597" y1="-8.748" y2="52.61" gradientUnits="userSpaceOnUse"><stop stop-color="#FF4040"/><stop offset=".448" stop-color="#FF6363"/><stop offset=".804" stop-color="#FF9417"/></linearGradient><linearGradient id="f" x1="33.065" x2="91.597" y1="-8.748" y2="52.61" gradientUnits="userSpaceOnUse"><stop stop-color="#FF4040"/><stop offset=".448" stop-color="#FF6363"/><stop offset=".804" stop-color="#FF9417"/></linearGradient></defs></svg>