<svg xmlns="http://www.w3.org/2000/svg" width="32" height="32" fill="none"><g clip-path="url(#a)"><path fill="#15181F" d="M32 16c0 8.837-7.163 16-16 16S0 24.837 0 16 7.163 0 16 0s16 7.163 16 16"/><path fill="#E7EAF3" d="M8.232 16c0 .933-.768 1.69-1.716 1.69S4.8 16.933 4.8 16s.768-1.688 1.716-1.688 1.716.756 1.716 1.689M25.484 17.69c.947 0 1.716-.757 1.716-1.69s-.768-1.688-1.716-1.688-1.717.756-1.717 1.689c0 .932.769 1.689 1.717 1.689M19.427 9.614c-1.441-.755-3.046-.994-4.397-.677-1.377.323-2.57 1.267-2.793 2.843-.184 1.307.21 2.329.895 3.137.638.754 1.523 1.31 2.272 1.772.806.497 1.475.895 1.97 1.378.454.443.697.899.697 1.507 0 .683-.21 1.035-.43 1.236-.244.222-.635.38-1.189.419-1.14.08-2.53-.378-3.297-.963l-1.22 1.552c1.144.872 3.016 1.484 4.66 1.369.838-.06 1.718-.316 2.399-.935.703-.64 1.07-1.556 1.07-2.678 0-1.259-.558-2.19-1.288-2.902-.69-.673-1.589-1.2-2.315-1.647-.782-.482-1.394-.888-1.798-1.365-.358-.422-.552-.9-.452-1.61.083-.585.496-1.02 1.28-1.203.81-.19 1.92-.066 3 .5z"/><path fill="#505573" fill-rule="evenodd" d="M16 30.833c8.192 0 14.833-6.64 14.833-14.833 0-8.192-6.64-14.833-14.833-14.833C7.808 1.167 1.167 7.807 1.167 16c0 8.192 6.64 14.833 14.833 14.833M32 16c0 8.837-7.163 16-16 16S0 24.837 0 16 7.163 0 16 0s16 7.163 16 16" clip-rule="evenodd"/></g><defs><clipPath id="a"><path fill="#fff" d="M0 0h32v32H0z"/></clipPath></defs></svg>