  <svg
    width="240"
    height="183"
    viewBox="0 0 240 183"
    fill="none"
    xmlns="http://www.w3.org/2000/svg"
  >
    <path
      d="M41.7763 113.559C17.7239 99.3771 0.988617 44.5 25.9392 17C17.2623 103.465 106.891 72 118.909 123C123.211 141.255 114.587 162.356 97.042 170.719C61.9158 187.46 13.8722 152.896 10.002 105.394C22.5736 115.412 29.429 116.922 41.7763 113.559Z"
      fill="#FD9317"
    />
    <path
      fill-rule="evenodd"
      clip-rule="evenodd"
      d="M26.3155 16.5414L26.4722 15L25.4336 16.1603C2.24865 42.0612 4.01871 91.9363 30.9602 114.344C29.258 114.305 27.6142 114.091 25.9696 113.685C19.9146 112.188 14.1813 108.46 9.76482 104.115L9.11685 104.973L5.00195 110.424C8.90636 158.128 57.2339 192.517 92.6572 175.651C112.055 166.416 125.392 144 119.663 122.532C116.531 109.705 108.48 102.061 98.3805 96.4596C93.3378 93.6632 87.7778 91.372 82.0614 89.197C80.1297 88.4621 78.1825 87.7412 76.2306 87.0186L76.2259 87.0168C72.3906 85.597 68.5366 84.1702 64.7488 82.6176C53.324 77.9346 42.645 72.1599 35.3551 62.2154C28.0741 52.283 24.1214 38.116 26.3155 16.5414ZM24.542 18.7984C14.5165 31.6836 12.799 51.0416 16.4673 69.1804C18.3951 78.7128 21.8047 87.8736 26.2447 95.5281C30.6876 103.188 36.1442 109.308 42.1488 112.802L43.183 113.404L42.0249 113.715C35.716 115.41 30.7455 115.895 25.7242 114.654C20.9587 113.476 16.2015 110.757 10.2387 106.161C12.512 129.31 25.4154 149.201 42.1348 161.353C59.136 173.709 80.0073 178.019 97.6237 169.734C114.65 161.726 123.118 140.945 118.68 122.767C115.634 110.291 107.825 102.843 97.8855 97.3312C92.9083 94.5711 87.4035 92.3005 81.698 90.1297C79.7833 89.4012 77.8436 88.6831 75.8944 87.9615C72.0484 86.5376 68.1646 85.0998 64.3613 83.5408C52.8894 78.8385 41.9946 72.9762 34.5361 62.8017C27.2561 52.8708 23.2998 38.9028 25.1543 18.0647C24.9472 18.3073 24.743 18.5519 24.542 18.7984Z"
      fill="#181B2B"
    />
    <path
      fill-rule="evenodd"
      clip-rule="evenodd"
      d="M8.81328 106.1C9.03413 106.266 9.07884 106.579 8.91313 106.8L6.02761 110.644C7.95462 133.538 20.1181 153.215 36.1304 165.502C52.1922 177.828 72.0629 182.676 89.3202 175.976C89.5776 175.876 89.8672 176.004 89.9672 176.261C90.0672 176.518 89.9396 176.808 89.6822 176.908C72.0123 183.768 51.7775 178.77 35.5216 166.295C19.26 153.817 6.91612 133.815 5.01543 110.537L5 110.348L8.11337 106.2C8.27907 105.979 8.59243 105.934 8.81328 106.1ZM97.2429 172.016C97.4796 171.874 97.7867 171.951 97.9287 172.188C98.0707 172.425 97.9939 172.732 97.7571 172.874L97.7551 172.875L97.7278 172.891L97.6441 172.941C97.5712 172.984 97.4651 173.047 97.3316 173.126C97.0646 173.283 96.6878 173.502 96.2482 173.753C95.3705 174.254 94.2364 174.884 93.2242 175.39C92.9772 175.513 92.6769 175.413 92.5535 175.166C92.43 174.92 92.5302 174.619 92.7772 174.496C93.7647 174.003 94.8802 173.383 95.7523 172.885C96.1875 172.637 96.5606 172.419 96.8248 172.264C96.9568 172.186 97.0616 172.124 97.1333 172.082L97.2151 172.033L97.236 172.021L97.2412 172.017L97.2429 172.016Z"
      fill="#FD9317"
    />
    <path
      d="M27.8543 110.141C28.05 110.339 28.0483 110.658 27.8507 110.854C27.6531 111.05 27.3343 111.048 27.1387 110.851C6.99496 90.4848 5.24352 59.7102 14.0207 35.2548C14.0933 35.052 14.9676 34.6453 14.9467 35.6533C6.28528 59.8318 8.075 90.1438 27.8543 110.141Z"
      fill="#FD9317"
    />
    <path
      d="M55.4481 137.62L60.518 136.799C62.4607 136.485 63.3745 135.121 63.1059 133.463C62.8987 132.183 61.7984 131.195 60.6489 131.202C61.5791 130.841 62.3045 129.816 62.0896 128.489C61.8415 126.957 60.5649 125.981 58.6854 126.285L53.7419 127.086L55.4481 137.62ZM56.0452 131.3L55.5464 128.22L58.6105 127.724C59.6687 127.552 60.3631 128.137 60.5037 129.005C60.6444 129.874 60.1675 130.632 59.1093 130.803L56.0452 131.3ZM56.8024 135.975L56.2703 132.69L59.4134 132.181C60.5821 131.991 61.3051 132.652 61.4458 133.521C61.6121 134.547 61.051 135.287 59.9455 135.466L56.8024 135.975ZM65.1682 131.816C65.5877 134.406 67.3512 135.887 70.3047 135.409C73.2582 134.93 74.4508 132.987 74.0262 130.365L72.9901 123.968L71.3949 124.227L72.4259 130.592C72.7175 132.392 71.925 133.704 70.0771 134.003C68.2291 134.302 67.0474 133.311 66.7557 131.51L65.7248 125.145L64.1296 125.403L65.1682 131.816ZM83.43 133.088L85.2621 132.792L81.8783 129.012C83.1926 128.621 84.3082 127.403 84.0013 125.508C83.6866 123.565 82.1028 122.492 80.0969 122.817L75.6587 123.536L77.365 134.071L78.9444 133.815L78.287 129.756L80.2613 129.436L83.43 133.088ZM82.3745 125.771C82.5535 126.877 81.8525 127.752 80.7153 127.936L78.0619 128.366L77.4633 124.67L80.1167 124.24C81.2539 124.056 82.1954 124.665 82.3745 125.771ZM94.8517 131.238L96.3838 130.99L94.6775 120.456L93.0981 120.711L94.3772 128.609L87.3648 121.64L85.738 121.904L87.4443 132.438L89.0237 132.182L87.7139 124.096L94.8517 131.238Z"
      fill="#181B2B"
    />
    <path
      d="M200.458 60.1764C203.731 78.1126 191.853 95.26 173.927 98.4762C156.001 101.692 138.816 89.7593 135.542 71.8231C132.269 53.8869 144.147 36.7395 162.073 33.5233C179.999 30.3072 197.184 42.2402 200.458 60.1764Z"
      fill="#8358FF"
    />
    <path
      fill-rule="evenodd"
      clip-rule="evenodd"
      d="M135.459 55.7559C135.475 55.7147 135.491 55.6736 135.507 55.6324C140.015 44.0294 150.273 34.9761 163.42 32.5973C183.524 28.9595 202.77 42.3077 206.408 62.4112C207.658 69.3176 206.903 76.1227 204.558 82.2287C200.078 93.898 189.791 103.014 176.592 105.402C156.488 109.04 137.241 95.6918 133.603 75.5883C132.353 68.6763 133.11 61.8657 135.459 55.7559ZM199.109 59.3924C202.24 76.6974 190.75 93.2644 173.444 96.3957C156.139 99.5271 139.571 88.037 136.44 70.732C134.851 61.9508 137.027 53.3596 141.817 46.6175C147.062 40.0078 154.64 35.204 163.596 33.5835C164.182 33.4775 164.767 33.3863 165.352 33.3096C181.437 32.0627 196.174 43.1736 199.109 59.3924Z"
      fill="#181B2B"
    />
    <path
      d="M178.289 33.3752C178.355 33.1108 178.626 32.9492 178.894 33.0141C180.989 33.5209 183.025 34.2027 184.982 35.0458C185.235 35.1549 185.351 35.4455 185.24 35.6949C185.129 35.9443 184.834 36.0581 184.581 35.9489C182.676 35.1283 180.694 34.4647 178.656 33.9715C178.387 33.9065 178.223 33.6396 178.289 33.3752Z"
      fill="#8358FF"
    />
    <path
      d="M187.432 36.7609C187.565 36.5227 187.87 36.4363 188.112 36.568C196.507 41.1383 203.075 48.826 205.96 58.3647C214.4 57.5614 221.443 57.1592 226.434 57.2053C228.947 57.2285 230.962 57.3652 232.381 57.629C233.088 57.7602 233.678 57.9284 234.115 58.1474C234.535 58.3584 234.93 58.6776 235.01 59.1639C235.083 59.6037 234.865 59.9943 234.585 60.3031C234.299 60.6186 233.879 60.9283 233.363 61.2348C232.327 61.8506 230.791 62.5175 228.835 63.2229C224.916 64.6363 219.217 66.2369 212.22 67.9059C211.951 67.97 211.681 67.8075 211.615 67.5429C211.55 67.2783 211.715 67.0119 211.984 66.9478C218.968 65.282 224.624 63.6916 228.491 62.2972C230.428 61.5986 231.893 60.9573 232.846 60.3907C233.326 60.106 233.649 59.856 233.838 59.6468C234.034 59.431 234.024 59.3322 234.022 59.3215C234.02 59.3085 233.989 59.1908 233.66 59.0258C233.347 58.8689 232.865 58.722 232.196 58.5977C230.864 58.3503 228.919 58.2141 226.425 58.191C221.52 58.1457 214.583 58.5383 206.237 59.3288C206.51 60.3286 206.743 61.3478 206.933 62.385C210.63 82.5023 197.066 101.762 176.638 105.402C156.211 109.042 136.654 95.6847 132.958 75.5674C132.656 73.9229 132.469 72.2839 132.392 70.6585C123.943 72.5455 116.986 74.4679 112.165 76.1687C109.709 77.0352 107.828 77.8373 106.59 78.5392C105.968 78.8917 105.535 79.2044 105.273 79.4696C104.995 79.7504 104.999 79.8838 105.002 79.9006C105.004 79.9121 105.03 80.0173 105.314 80.1701C105.587 80.317 106.012 80.4582 106.607 80.581C107.791 80.8253 109.526 80.9723 111.761 81.0186C116.223 81.111 122.581 80.8007 130.289 80.1217C130.565 80.0975 130.808 80.2976 130.833 80.5688C130.857 80.8399 130.654 81.0794 130.379 81.1036C122.656 81.7838 116.256 82.0977 111.74 82.0042C109.486 81.9575 107.677 81.8091 106.401 81.5458C105.766 81.4148 105.232 81.2493 104.834 81.0353C104.447 80.8271 104.09 80.5172 104.014 80.0582C103.933 79.5649 104.215 79.1265 104.555 78.7821C104.911 78.422 105.436 78.056 106.09 77.6848C107.405 76.9394 109.352 76.1141 111.828 75.2407C116.786 73.4913 123.946 71.521 132.618 69.5975C133.003 69.5121 133.366 69.9846 133.379 70.3351C133.446 72.008 133.631 73.6967 133.943 75.3919C137.541 94.9735 156.576 107.975 176.46 104.432C196.344 100.888 209.546 82.1421 205.948 62.5605C203.91 51.4697 196.921 42.4899 187.628 37.4308C187.386 37.2991 187.298 36.9992 187.432 36.7609Z"
      fill="#8358FF"
    />
    <path
      d="M229.477 64.8892C229.486 64.6171 229.718 64.4037 229.994 64.4126C232.025 64.4781 233.655 64.6353 234.808 64.8969C235.382 65.0272 235.868 65.1899 236.233 65.3993C236.59 65.6046 236.915 65.9054 236.986 66.3393C237.059 66.7817 236.838 67.1742 236.556 67.4842C236.267 67.8011 235.843 68.1125 235.321 68.421C234.273 69.0408 232.72 69.7123 230.743 70.4228C226.781 71.8464 221.021 73.4588 213.953 75.1391C213.685 75.203 213.414 75.0402 213.349 74.7756C213.284 74.511 213.45 74.2447 213.718 74.1808C220.773 72.5037 226.49 70.9015 230.4 69.4967C232.358 68.7929 233.84 68.1468 234.806 67.5759C235.291 67.289 235.618 67.0369 235.811 66.8258C236.009 66.6077 236 66.5077 235.998 66.497C235.996 66.4865 235.975 66.3922 235.729 66.2509C235.489 66.1136 235.114 65.9782 234.583 65.8576C233.525 65.6176 231.972 65.4628 229.961 65.3979C229.685 65.389 229.468 65.1612 229.477 64.8892Z"
      fill="#8358FF"
    />
    <path
      d="M111.466 83.957C111.568 84.2099 111.443 84.4966 111.186 84.5974C109.679 85.1889 108.556 85.7296 107.834 86.2064C107.472 86.4458 107.236 86.6525 107.102 86.8211C106.967 86.9907 106.976 87.0669 106.978 87.076C106.98 87.0869 107.003 87.1854 107.263 87.3313C107.516 87.4724 107.91 87.6102 108.466 87.7317C109.573 87.9736 111.197 88.1256 113.294 88.1834C117.481 88.2988 123.457 88.0372 130.73 87.429C131.006 87.406 131.248 87.6072 131.271 87.8784C131.295 88.1497 131.09 88.3882 130.815 88.4113C123.528 89.0207 117.509 89.2858 113.266 89.1688C111.149 89.1105 109.45 88.9565 108.249 88.6941C107.652 88.5635 107.147 88.3997 106.769 88.1884C106.4 87.9819 106.063 87.6775 105.99 87.2337C105.926 86.8469 106.088 86.4971 106.314 86.2133C106.54 85.9284 106.873 85.6542 107.277 85.3876C108.087 84.8526 109.287 84.2815 110.815 83.6817C111.072 83.5809 111.363 83.7042 111.466 83.957Z"
      fill="#8358FF"
    />
    <path
      d="M158.086 73.7966L159.468 73.5728L157.975 64.3549L156.593 64.5787L157.219 68.4483L152.12 69.2742L151.493 65.4047L150.111 65.6285L151.604 74.8464L152.986 74.6225L152.319 70.5042L157.418 69.6783L158.086 73.7966ZM160.654 68.6578C161.097 71.3942 163.32 73.119 166.07 72.6736C168.82 72.2282 170.384 69.89 169.941 67.1537C169.498 64.4173 167.276 62.6924 164.525 63.1379C161.775 63.5833 160.211 65.9215 160.654 68.6578ZM168.518 67.3842C168.844 69.4019 167.819 71.128 165.871 71.4436C163.894 71.7637 162.404 70.445 162.078 68.4273C161.749 66.3957 162.748 64.6879 164.725 64.3678C166.673 64.0522 168.189 65.3527 168.518 67.3842ZM172.63 71.4409L178.2 70.5388L178.003 69.3227L173.815 70.0009L172.519 61.9992L171.137 62.223L172.63 71.4409ZM179.992 70.2485L183.281 69.7158C186.156 69.2502 187.749 67.0065 187.317 64.3393C186.888 61.6859 184.663 60.0323 181.788 60.4979L178.499 61.0306L179.992 70.2485ZM181.177 68.8085L180.078 62.023L181.985 61.7141C184.155 61.3626 185.587 62.6765 185.894 64.5698C186.196 66.4355 185.212 68.1549 183.084 68.4996L181.177 68.8085Z"
      fill="#181B2B"
    />
    <path
      d="M104 41.0194C104 57.2962 94.087 67.5357 75.4978 67.4844C59.8958 67.4844 48.4612 53.2355 47 37.5172C47 21.2403 62 8.99965 75.9892 9.49939C91.2433 10.0443 104 24.7425 104 41.0194Z"
      fill="#14C393"
    />
    <path
      fill-rule="evenodd"
      clip-rule="evenodd"
      d="M91.6467 63.7354C103.635 57.5753 107.687 41.1029 100.257 26.7841C92.8261 12.4653 76.9827 6.2163 64.9944 12.3764C53.0062 18.5365 48.9538 35.009 56.3844 49.3278C63.815 63.6466 79.6585 69.8956 91.6467 63.7354ZM92.1106 64.6294C104.722 58.1492 108.771 40.9986 101.155 26.3224C93.6178 11.798 77.4796 5.14039 64.9226 11.2858L60.2444 13.6069C47.4029 20.2055 43.2072 37.8814 50.7321 52.382C51.9763 54.7794 53.5415 56.9824 55.3502 58.9461C64.0812 68.425 78.5784 72.3978 90.1426 65.5787C90.13 65.5575 91.8909 64.7423 92.1106 64.6294ZM54.9347 56.9293C54.8524 55.2924 56.4048 53.9142 58.0979 54.053C57.1437 52.7203 56.2685 51.2972 55.486 49.7894C54.9721 48.7991 54.5113 47.7974 54.1026 46.7886L50.1882 48.7362C50.6067 49.8097 51.0869 50.8729 51.6305 51.9204C52.5577 53.707 53.6704 55.3835 54.9347 56.9293ZM49.8352 47.7869L53.7366 45.8458C53.1817 44.352 52.7396 42.8453 52.4072 41.3385L48.5602 43.0785C48.8601 44.6549 49.2837 46.2299 49.8352 47.7869ZM48.3826 42.0537L52.2005 40.3268C50.4148 30.8373 52.9581 21.4615 59.0656 15.4389C50.7122 20.7116 46.7056 31.3298 48.3826 42.0537Z"
      fill="#181B2B"
    />
    <path
      fill-rule="evenodd"
      clip-rule="evenodd"
      d="M55.1756 58.1194C55.3856 57.9403 55.7009 57.9656 55.8798 58.1757C60.7826 63.9342 68.1794 67.7318 75.1232 67.998C75.3989 68.0085 75.6138 68.2407 75.6033 68.5166C75.5927 68.7925 75.3607 69.0076 75.085 68.997C67.8327 68.7191 60.1833 64.772 55.1193 58.8241C54.9404 58.6139 54.9656 58.2984 55.1756 58.1194ZM81.9751 67.9976C82.0609 68.26 81.9179 68.5423 81.6557 68.6282C80 69.0075 78 69.0075 77.0645 68.9974C76.7887 68.9974 76.565 68.7736 76.565 68.4975C76.565 68.2214 76.7887 67.9976 77.0645 67.9976C78.4597 67.9976 80 68.0068 81.345 67.678C81.6072 67.5921 81.8893 67.7352 81.9751 67.9976Z"
      fill="#14C393"
    />
    <path
      d="M65.6788 44.4696L70.1149 43.7511C71.8148 43.4758 72.6143 42.2826 72.3793 40.8315C72.198 39.7121 71.2353 38.8469 70.2294 38.8538C71.0433 38.5376 71.6781 37.6406 71.4901 36.4797C71.273 35.1392 70.156 34.2848 68.5114 34.5511L64.1858 35.2517L65.6788 44.4696ZM66.2012 38.9389L65.7648 36.244L68.4458 35.8098C69.3717 35.6598 69.9793 36.1713 70.1024 36.9314C70.2255 37.6915 69.8082 38.3547 68.8823 38.5047L66.2012 38.9389ZM66.8638 43.0296L66.3982 40.1551L69.1484 39.7096C70.171 39.544 70.8036 40.1223 70.9267 40.8824C71.0722 41.7807 70.5813 42.4275 69.6139 42.5842L66.8638 43.0296ZM74.1838 39.3905C74.5509 41.6569 76.094 42.9529 78.6783 42.5343C81.2626 42.1158 82.3061 40.415 81.9346 38.1209L81.028 32.5239L79.6322 32.7499L80.5343 38.3194C80.7895 39.8948 80.096 41.0425 78.4791 41.3044C76.8622 41.5662 75.8281 40.6984 75.5729 39.1229L74.6709 33.5535L73.2751 33.7796L74.1838 39.3905ZM87.5095 40.9338L88.8914 40.71L88.267 36.8542L90.9917 30.9101L89.3885 31.1698L87.3745 35.7223L83.9988 32.0427L82.4095 32.3001L86.885 37.078L87.5095 40.9338Z"
      fill="#181B2B"
    />
    <path
      fill-rule="evenodd"
      clip-rule="evenodd"
      d="M106.672 15.9966C104.078 15.9966 101.513 16.1222 98.9827 16.3675C98.7085 16.3941 98.4646 16.1936 98.4379 15.9197C98.4113 15.6458 98.612 15.4021 98.8863 15.3755C101.448 15.1271 104.046 15 106.672 15C124.32 15 140.628 20.7366 153.826 30.4445C154.048 30.6077 154.095 30.9197 153.932 31.1413C153.768 31.3629 153.456 31.4102 153.234 31.247C140.202 21.661 124.1 15.9966 106.672 15.9966ZM44.6464 45.4669C44.8634 45.6365 44.9017 45.9497 44.7319 46.1664C41.7844 49.9291 39.1732 53.967 36.9433 58.2352C36.8158 58.4792 36.5145 58.5738 36.2702 58.4464C36.0259 58.3191 35.9312 58.0181 36.0587 57.7741C38.3169 53.4516 40.9613 49.3625 43.946 45.5523C44.1158 45.3355 44.4294 45.2973 44.6464 45.4669ZM184.592 108.178C184.863 108.227 185.043 108.487 184.994 108.758C178.267 145.86 145.76 174 106.672 174C106.397 174 106.174 173.777 106.174 173.502C106.174 173.226 106.397 173.003 106.672 173.003C145.269 173.003 177.37 145.217 184.012 108.58C184.061 108.309 184.321 108.129 184.592 108.178Z"
      fill="#505573"
    />
  </svg>