<?xml version="1.0" encoding="utf-8"?><svg xmlns="http://www.w3.org/2000/svg" xmlns:xlink="http://www.w3.org/1999/xlink"><symbol fill="none" viewBox="0 0 17 16" id="0"><path fill="#4894E2" d="M17 2.23c-.637.347-1.275.462-2.019.578A3.24 3.24 0 0 0 16.47.73c-.638.461-1.382.692-2.232.923C13.6.962 12.645.5 11.688.5c-1.806 0-3.4 1.73-3.4 3.808 0 .346 0 .577.107.807C5.525 5 2.869 3.5 1.169 1.192.85 1.77.744 2.346.744 3.154c0 1.27.637 2.423 1.594 3.115-.532 0-1.063-.23-1.594-.461 0 1.846 1.169 3.346 2.762 3.692-.318.115-.637.115-.956.115-.212 0-.425 0-.637-.115.424 1.5 1.7 2.654 3.293 2.654C4.037 13.192 2.55 13.769.85 13.769H0C1.594 14.808 3.4 15.5 5.313 15.5c6.375 0 9.88-5.77 9.88-10.73v-.462c.745-.577 1.382-1.27 1.807-2.077"/></symbol></svg>