<?xml version="1.0" encoding="utf-8"?><svg xmlns="http://www.w3.org/2000/svg" xmlns:xlink="http://www.w3.org/1999/xlink"><symbol fill="none" viewBox="0 0 16 16" id="0"><path fill="#3FB898" d="M16 8A8 8 0 1 1 0 8a8 8 0 0 1 16 0"/><path fill="#fff" d="M11.617 6.791c-1.58 1.948-1.058 4.22-.937 4.654.396 1.43 1.313 2.354 2.137 2.922l.95-.843c-.69-.416-1.554-1.162-1.898-2.407-.058-.204-.519-2.041.706-3.551v.001c1.03-1.268 2.465-1.432 3.144-1.434l-.39-1.23c-.992.067-2.53.433-3.712 1.888M8.273 3.593c.702-1.227 1.973-2.227 3-2.847l1.286.734c-.885.476-2.505 1.476-3.215 2.722a6.5 6.5 0 0 0-.494 1.125c-.167.531-.248 1.137-.248 1.852 0 2.52-.25 3.122-1.053 3.763-.448.358-1.047.536-1.64.536-.603 0-1.2-.185-1.619-.555-.736-.65-.714-1.568-.697-2.306v-.002c.01-.397.02-.848-.12-.971-.024-.02-.53-.452-3.39 1.242V7.399c2.158-1.193 3.43-1.353 4.2-.684.578.502.56 1.26.544 1.929-.015.675-.005 1.104.281 1.356.38.336 1.24.325 1.673-.02.367-.293.59-.471.59-2.8 0-.842.099-1.568.302-2.218.008-.026.217-.698.6-1.369"/></symbol></svg>