<?xml version="1.0" encoding="utf-8"?><svg xmlns="http://www.w3.org/2000/svg" xmlns:xlink="http://www.w3.org/1999/xlink"><symbol fill="none" viewBox="0 0 16 12" id="0"><path fill="#FF6363" d="M15.67 1.878c-.184-.734-.724-1.313-1.41-1.51C13.008 0 8 0 8 0S2.992 0 1.74.353C1.068.55.514 1.143.33 1.878 0 3.218 0 6 0 6s0 2.795.33 4.122c.184.735.724 1.313 1.41 1.51C3.005 12 8 12 8 12s5.008 0 6.26-.353c.686-.198 1.226-.776 1.41-1.51.33-1.342.33-4.123.33-4.123s.013-2.795-.33-4.136"/><path fill="#fff" d="M6.5 7.598a.5.5 0 0 0 .765.424l2.557-1.598a.5.5 0 0 0 0-.848L7.265 3.978a.5.5 0 0 0-.765.424z"/></symbol></svg>