<svg width="220" height="158" viewBox="0 0 220 158" fill="none" xmlns="http://www.w3.org/2000/svg">
<g clip-path="url(#clip0_25911_3719)">
<path d="M211 52.6019C166.715 88.2052 136.362 87.2022 108 49.0916C130.889 8.97521 160.212 3.84203 211 52.6019Z" fill="white"/>
<ellipse cx="153" cy="49" rx="33" ry="36" fill="#E7EAF3"/>
<path d="M148.5 83.0048C172.5 78.4999 182.461 74.9269 185.828 51.6869C183.788 44.6149 167.249 41.3056 159.861 50.306C153.894 57.5747 135.787 49.0258 135.787 49.0258C130.918 41.1573 121.722 43.8567 119.828 48.1772C120.765 64.8372 124.88 73.146 148.5 83.0048Z" fill="#D2D6E7"/>
<path d="M149.948 18.6922C168 20 182.178 29.3115 212.132 51.8482C191.498 15.1668 172.514 3.00146 157.469 3.49998C150.513 6.46601 150.363 9.78896 150.075 16.1712C150.039 16.9628 150.001 17.8014 149.948 18.6922Z" fill="#FFCB47"/>
<path d="M233.083 117.968C235.424 121.164 237.21 124.069 238.524 126.4L239.715 163.215C219.202 165.729 191.452 166.939 159.959 167.404C159.959 167.404 41.4483 169.15 37.7572 156.485C38.1729 155.435 38.6405 154.267 39.1481 152.999C42.2325 145.295 46.7975 133.892 50.2115 122.863C50.6812 121.345 51.1296 119.834 51.5497 118.338C53.6099 112.13 55.3811 105.886 55.2042 98.2932C55.1123 94.3466 54.5528 92.5659 53.3335 91.1837C51.8334 89.4834 49.9492 89.0866 45.5418 88.1583L45.5406 88.158C44.5201 87.9431 43.3642 87.6996 42.0465 87.4049C40.0729 86.8871 37.6391 86.1946 34.603 85.2377C30.9217 84.0778 27.1978 82.8831 22.658 80.4892C22.2528 80.2757 21.1242 79.7849 19.6048 79.1332C19.1519 78.939 18.6619 78.7295 18.1423 78.5073L18.1233 78.4992L18.1185 78.4972C16.8844 77.9695 15.484 77.3708 14.0155 76.7351C9.81597 74.9174 5.08904 72.8107 2.14614 71.2259C1.17561 70.7032 0.727853 69.9229 0.715132 69.2973C0.708865 68.989 0.804773 68.7044 1.00744 68.4676C1.21198 68.2286 1.54931 68.0112 2.06676 67.889C3.56533 67.5351 5.51467 67.645 7.70011 68.0723C9.87583 68.4977 12.2388 69.2279 14.5422 70.0734C19.1487 71.7644 23.4705 73.8992 25.5043 74.9187C25.7517 75.0427 26.0531 74.9432 26.1774 74.6965C26.3018 74.4498 26.2021 74.1492 25.9547 74.0252C23.9155 73.0031 19.5514 70.8466 14.8886 69.135C12.5575 68.2793 10.1399 67.5303 7.89303 67.091C5.85694 66.6929 3.92167 66.5409 2.30513 66.8203C2.23516 66.7833 2.16509 66.7399 2.09538 66.6894C2.0266 66.6394 1.96207 66.5703 1.90348 66.4876C1.85267 65.981 1.95973 65.6025 2.15649 65.309C2.41009 64.9307 2.86223 64.6195 3.53017 64.3895C4.8776 63.9255 6.88458 63.8654 9.07882 64.0376C13.4447 64.3803 18.255 65.6137 19.2384 65.9441C22.2978 66.9723 26.2597 68.3976 30.8471 70.3024C31.1027 70.4085 31.3963 70.2879 31.5027 70.033C31.6091 69.7781 31.4882 69.4854 31.2326 69.3792C26.6199 67.4639 22.6358 66.0306 19.5586 64.9965C18.5158 64.6461 13.7197 63.4177 9.30422 63.0526C9.34055 62.9914 9.37622 62.9306 9.41159 62.8703C9.60362 62.543 9.78713 62.2301 10.0232 61.947C11.208 61.2361 12.7256 61.0378 14.4059 61.1379C16.6277 61.2702 18.996 61.9172 20.9916 62.4625L20.9945 62.4633C21.3036 62.5477 21.6037 62.6297 21.8929 62.7069C23.3958 63.1087 24.3195 63.4749 25.9922 64.138C26.8326 64.4712 27.8624 64.8795 29.2493 65.4047C30.6315 65.9272 32.6571 66.6908 35.1425 67.6105C35.4021 67.7065 35.6907 67.5745 35.787 67.3156C35.8833 67.0568 35.751 66.769 35.4913 66.6729C33.0091 65.7544 30.9858 64.9918 29.6048 64.4697C28.271 63.9645 27.2601 63.5639 26.4218 63.2317C24.7059 62.5516 23.7126 62.158 22.1523 61.741C21.8718 61.6661 21.5772 61.5854 21.2707 61.5016C19.5705 61.0364 17.5075 60.4719 15.484 60.2316C16.8278 59.7371 19.2381 58.9998 21.8732 58.9431C26.7267 60.0786 30.4473 61.3591 33.7651 62.5009C38.5278 64.1399 42.4603 65.4933 47.7217 65.7219C47.7217 65.7219 49.441 65.7963 49.5923 65.2259C50.2936 62.594 46.9916 59.4522 43.9732 56.5803C42.0767 54.7759 40.2922 53.078 39.683 51.6801C39.0565 50.2423 37.6783 45.176 41.6877 46.1768C43.3265 46.5381 44.8044 47.9992 45.3324 48.5211C45.418 48.6058 45.4787 48.6657 45.511 48.6923C47.8222 50.59 50.109 52.1253 52.3574 53.6348C57.2806 56.9401 62.0197 60.1218 66.4279 66.714C67.1509 67.795 67.6997 68.7207 68.3148 69.758C69.2433 71.324 70.3227 73.1445 72.3798 76.1381C72.8298 76.7925 73.2059 77.3277 73.5367 77.7985L73.5376 77.7998L73.5399 77.8031L73.5408 77.8043C74.428 79.0667 74.9901 79.8665 75.7809 81.2635C76.6023 82.7152 78.427 85.9856 79.3521 89.861C79.9649 92.4224 79.9023 94.0732 79.7198 98.8861L79.6922 99.6159C79.5064 104.555 79.4078 107.971 79.3324 110.581C79.1844 115.709 79.126 117.732 78.6719 122.102C78.3658 125.053 78.0444 127.467 77.8216 129.046C79.6242 124.611 82.7124 118.522 88.025 112.347C90.6336 109.315 96.1468 103.506 104.861 98.6239C106.371 97.7774 112.306 94.5334 120.676 92.3411C127.119 90.653 132.813 90.1619 136.491 89.861C138.997 89.656 141.104 89.57 142.613 89.5304L142.103 85.397C142.245 85.3632 142.495 85.2988 142.84 85.2101C143.95 84.9243 146.037 84.3868 148.635 83.8141C147.897 81.6147 148.06 79.5081 148.872 76.3113C168.113 79.2821 183.005 70.7515 211.631 52.8451C196.339 71.3426 185.592 80.5988 174.202 84.717C174.251 84.8007 174.297 84.8863 174.34 84.9741C174.34 84.9741 174.583 88.125 174.753 89.861C181.698 89.861 186.364 90.7281 191.738 91.7267C193.405 92.0364 195.139 92.3587 197.031 92.6718C201.634 93.9151 207.455 95.5337 214.036 99.6159C219.08 102.744 222.515 106.044 224.58 108.048C228.79 112.137 231.493 115.799 233.083 117.968Z" fill="#FFCB47"/>
<path d="M147.931 61.4727C154.569 61.4727 159.951 54.7569 159.951 46.4727C159.951 38.1884 154.569 31.4727 147.931 31.4727C141.293 31.4727 135.912 38.1884 135.912 46.4727C135.912 54.7569 141.293 61.4727 147.931 61.4727Z" fill="#505573"/>
<path fill-rule="evenodd" clip-rule="evenodd" d="M212.022 51.9404C203.446 35.6235 192.737 18.0212 176.353 8.52925C164.759 1.81248 153.842 1.99446 144.249 5.92783C134.679 9.85119 126.451 17.4942 120.15 25.6683C114.863 32.5267 110.209 40.3118 107.585 48.6096C107.508 48.8523 107.529 49.1142 107.642 49.3424C114.957 64.1345 125.575 79.1265 141.351 85.6496V89.1879C139.976 89.2256 138.454 89.2797 136.205 89.4633C132.527 89.7637 126.802 90.2559 120.32 91.9509C111.901 94.1521 105.93 97.4088 104.404 98.2631C95.6305 103.17 90.0791 109.007 87.4508 112.057C83.2043 116.984 80.2185 121.539 78.2565 125.452C78.2932 125.13 78.3294 124.808 78.3652 124.485C79.3159 115.929 79.9867 107.285 80.078 100.158C80.1237 96.5943 80.0247 93.3999 79.741 90.7801C79.4593 88.1779 78.9898 86.0806 78.2575 84.7561C76.1246 80.899 74.8031 78.9673 72.9293 76.2431L72.8492 76.1266C70.9923 73.427 68.575 69.9126 64.285 62.9759L64.2637 62.9415L64.2372 62.911C61.8043 60.1091 58.7803 57.7487 55.6443 55.577C54.1564 54.5466 52.6375 53.5548 51.1419 52.5782L50.8989 52.4195C49.3368 51.3993 47.8034 50.3944 46.3474 49.3702C44.226 47.1688 42.5131 46.032 41.1915 45.737C40.5112 45.5852 39.8978 45.6491 39.3984 45.9512C38.9018 46.2516 38.5905 46.7435 38.4244 47.3059C38.098 48.4113 38.2878 49.9177 38.8703 51.4185C39.459 52.9352 40.4746 54.5166 41.8953 55.7882C45.536 59.0471 47.3443 61.3706 48.1679 63.3183C48.4057 63.8808 48.285 64.4111 47.9571 64.7995C47.6226 65.1959 47.0608 65.4534 46.4127 65.3955C42.551 65.0501 37.514 63.6008 29.9982 61.0738C27.4691 60.2235 24.6875 59.2934 21.9903 58.9853C19.5669 58.7086 17.1621 58.9276 15.0382 60.188C15.6305 60.2455 16.2285 60.3334 16.8221 60.441C18.3773 59.8632 20.086 59.7744 21.8765 59.9789C24.45 60.2728 27.1302 61.1647 29.6785 62.0215C37.1805 64.5439 42.326 66.034 46.3233 66.3915C47.289 66.4778 48.1729 66.0957 48.7231 65.4438C49.28 64.7839 49.483 63.8573 49.0906 62.9294C48.1795 60.7748 46.237 58.3315 42.5639 55.0437C41.2697 53.8852 40.3405 52.4389 39.8042 51.0572C39.2618 49.6595 39.1466 48.3966 39.3851 47.5887C39.5015 47.1945 39.6902 46.9439 39.9173 46.8065C40.1417 46.6708 40.4757 46.6019 40.9729 46.7129C41.9992 46.942 43.5502 47.9033 45.6582 50.0973L45.6915 50.132L45.7309 50.1597C47.215 51.205 48.7759 52.228 50.3506 53.2563L50.5914 53.4137C52.0894 54.3918 53.5974 55.3765 55.0735 56.3987C58.1736 58.5456 61.107 60.8408 63.4541 63.5357C67.7435 70.4703 70.1654 73.9913 72.0247 76.6943L72.1037 76.8091C73.9703 79.523 75.2708 81.424 77.3806 85.2395C78.0105 86.3786 78.4657 88.3053 78.7452 90.8876C79.0229 93.4522 79.1219 96.6027 79.0765 100.145C78.9858 107.228 78.3185 115.836 77.3697 124.375C76.4211 132.912 75.1922 141.37 73.9805 148.147C73.3746 151.537 72.7738 154.502 72.2153 156.845C71.6533 159.203 71.1434 160.889 70.7282 161.751L71.6307 162.185C72.0986 161.214 72.629 159.429 73.1897 157.076C73.7541 154.709 74.3587 151.723 74.9666 148.323C75.9818 142.644 77.0086 135.795 77.8732 128.708C79.6498 124.345 82.9313 118.834 88.21 112.709C90.7936 109.711 96.2573 103.965 104.893 99.1355C106.384 98.3014 112.271 95.0891 120.574 92.9182C126.966 91.2468 132.616 90.7597 136.287 90.46C138.777 90.2567 140.361 90.214 141.865 90.1745L142.353 90.1617V86.0489C146.714 87.7235 151.211 88.615 155.801 88.7255C161.625 88.8657 167.577 87.7477 173.571 85.3931L173.59 85.6455C173.616 85.9674 173.652 86.4147 173.693 86.9162C173.775 87.9182 173.878 89.14 173.964 90.0098L174.008 90.4611H174.462C187.591 90.4611 202.22 93.1659 213.44 100.113C223.686 106.456 231.824 116.185 237.731 126.641L238.662 126.322C238.001 121.9 237.572 118.264 237.306 115.791L236.31 115.898C236.524 117.887 236.843 120.627 237.303 123.92C231.462 114.213 223.659 105.262 213.968 99.263C202.666 92.2652 188.04 89.524 174.918 89.4622C174.843 88.6581 174.76 87.672 174.691 86.8347C174.65 86.3343 174.614 85.888 174.589 85.5667L174.549 85.0518L174.548 85.0497L174.395 85.0615C189.878 78.6905 201.959 66.0973 211.933 53.004C212.167 52.6963 212.202 52.2828 212.022 51.9404ZM130.308 25.046C129.014 25.8871 127.723 26.828 126.434 27.8719C122.824 33.581 120.708 40.5021 120.708 47.9655C120.708 53.6429 121.933 59.0064 124.107 63.7613C135.353 72.6334 145.784 76.3368 156.694 76.0033C163.497 75.7953 170.509 74.0191 178.046 70.9157C182.868 64.7336 185.78 56.723 185.78 47.9655C185.78 42.2022 184.519 36.7624 182.282 31.9544L182.337 31.9292C181.261 31.2607 180.199 30.6164 179.148 29.9967C169.487 24.2979 160.888 20.7135 152.904 19.7254C144.938 18.7397 137.558 20.3345 130.308 25.046ZM109.877 45.2159C115.198 37.4356 120.41 31.4886 125.675 27.1988L125.707 27.1485L125.724 27.1591C127.065 26.0688 128.411 25.0861 129.762 24.2079C137.209 19.368 144.826 17.7183 153.027 18.733C161.208 19.7454 169.945 23.4063 179.658 29.1358C188.884 34.5782 199.023 41.9063 210.437 50.6535C198.573 28.5444 186.854 15.7688 175.851 9.39419C164.541 2.84198 153.951 3.03075 144.629 6.85287C135.282 10.685 127.185 18.1822 120.944 26.2782C115.936 32.7736 112.147 39.6248 109.877 45.2159ZM119.707 47.9655C119.707 41.3699 121.318 35.1806 124.138 29.8398C119.158 34.3496 114.174 40.4259 109.048 48.2568C108.801 48.6339 108.839 49.1301 109.141 49.4647C113.748 54.5705 118.159 58.8674 122.445 62.4167C120.683 57.9845 119.707 53.098 119.707 47.9655ZM110.139 52.0365C114.674 56.9132 119.037 61.0157 123.297 64.3959L123.298 64.3978L123.299 64.3974C134.749 73.481 145.453 77.3473 156.725 77.0028C163.604 76.7925 170.671 75.0127 178.223 71.9241L178.673 71.7388C188.089 67.8331 198.263 61.9111 209.765 54.4746C192.051 77.0069 173.241 88.145 155.826 87.7258C138.636 87.3119 122.595 75.6276 110.139 52.0365ZM210.132 53.2684C198.971 60.4947 188.926 66.2068 179.864 70.1463C184.205 63.9988 186.782 56.307 186.782 47.9655C186.782 42.5654 185.702 37.4375 183.762 32.8247C191.728 37.8792 200.595 44.2871 210.195 51.6415C210.742 52.0606 210.71 52.8938 210.132 53.2684Z" fill="#505573"/>
<path d="M15.2749 61.2187C15.0699 61.1949 14.8655 61.1747 14.6621 61.1586L14.8987 61.4791C15.0227 61.3879 15.1481 61.3012 15.2749 61.2187Z" fill="#505573"/>
<path d="M157.715 3.625C152.862 7.13457 150.705 13.0738 149.896 18.4732C133.351 19.4457 126.192 25 108.665 47C116.176 29 133.181 3.625 157.715 3.625Z" fill="#505573"/>
<path d="M154.632 89.9873L154.633 89.9862L154.633 89.985L154.633 89.9837C154.676 89.4815 154.72 88.9593 154.756 88.393C153.891 88.1456 153.368 88.059 152.795 87.9641C152.243 87.8728 151.645 87.7737 150.65 87.5159C147.915 83.9161 149.084 76.2467 149.084 76.2467C131.936 72.501 124.803 65.6181 109.166 50.5C117.813 69.4133 130.118 81.0205 142.612 85.5991C142.292 85.6294 142.027 85.7125 141.821 85.8596C141.362 86.1866 141.068 87.0946 141.821 89.6571C133.282 89.4474 122.006 90.5074 110.347 95.6009C103.667 98.5183 99.1725 101.743 97.6564 102.866C94.4921 105.208 83.4273 113.606 77.5201 128.127L71.1799 161.824L61.2046 160.818C61.525 158.713 62.1128 155.392 62.8398 151.285C66.1827 132.401 72.4685 96.8905 69.2287 86.5201C64.9213 72.7329 41.3841 53.9262 41.9686 55.5825C42.5981 56.1554 43.3782 56.9067 44.3545 57.9568C45.259 58.9295 45.5245 59.2883 45.7652 59.6136C45.992 59.92 46.1967 60.1967 46.8927 60.9287C47.1314 61.1796 49.4636 65.4094 47.8658 65.9088C45.2633 66.7178 41.3933 65.3872 39.5387 64.6359C38.4287 64.1852 34.0519 62.794 30.2006 61.6663C29.4423 61.4444 28.6733 61.1812 27.8921 60.9137C25.354 60.0448 22.6846 59.1309 19.8187 59.4427C18.0552 59.6341 16.5475 59.9812 15.5742 60.2452C17.5588 60.4927 19.5742 61.045 21.2406 61.5016C21.5466 61.5854 21.8408 61.6661 22.1209 61.741C23.6789 62.158 24.6705 62.5516 26.384 63.2316C27.221 63.5639 28.2306 63.9645 29.5624 64.4697C30.9415 64.9918 32.9617 65.7544 35.4404 66.6729C35.6996 66.769 35.8318 67.0568 35.7356 67.3156C35.6394 67.5745 35.3513 67.7065 35.0921 67.6105C32.6103 66.6908 30.5876 65.9272 29.2075 65.4047C27.8226 64.8795 26.7943 64.4712 25.9552 64.138C24.2849 63.4749 23.3626 63.1087 21.8619 62.7069C21.5731 62.6297 21.2734 62.5477 20.9648 62.4633L20.9619 62.4625C18.9692 61.9172 16.6043 61.2702 14.3859 61.1379C12.0586 60.9991 10.044 61.4342 8.79531 63.015C8.91176 63.023 9.0284 63.0316 9.14512 63.0407C13.5939 63.3904 18.4782 64.6422 19.5309 64.9965C22.6036 66.0306 26.582 67.4639 31.1878 69.3792C31.4431 69.4854 31.5639 69.7781 31.4576 70.033C31.3513 70.2879 31.0582 70.4085 30.803 70.3024C26.2223 68.3976 22.2662 66.9723 19.2112 65.9441C18.2293 65.6137 13.426 64.3803 9.06657 64.0376C6.87554 63.8654 4.8715 63.9255 3.52604 64.3895C2.85908 64.6195 2.4076 64.9307 2.15438 65.309C1.9107 65.673 1.8048 66.1678 1.96655 66.8755L1.96869 66.8854C3.64702 66.5209 5.70714 66.6651 7.88251 67.091C10.1261 67.5303 12.5401 68.2793 14.8678 69.135C19.5238 70.8466 23.8815 73.0031 25.9177 74.0252C26.1647 74.1492 26.2643 74.4498 26.1401 74.6965C26.016 74.9432 25.715 75.0427 25.468 74.9187C23.4371 73.8992 19.1217 71.7644 14.522 70.0734C12.2219 69.2279 9.8624 68.4977 7.68987 68.0723C5.50763 67.645 3.56116 67.5351 2.06478 67.889C1.54809 68.0112 1.21125 68.2286 1.00701 68.4676C0.804642 68.7044 0.708873 68.989 0.715132 69.2973C0.727834 69.9229 1.17494 70.7032 2.14405 71.2259C5.08262 72.8107 9.80264 74.9174 13.996 76.7351C15.4624 77.3708 16.8607 77.9695 18.093 78.4972L18.0978 78.4992L18.1168 78.5073C18.6356 78.7295 19.1248 78.939 19.5771 79.1332C21.0943 79.7849 22.2212 80.2757 22.6258 80.4892C27.159 82.8831 30.8775 84.0778 34.5534 85.2377C40.9887 87.269 44.7143 88.1084 47.086 88.616C47.285 88.6586 47.4754 88.699 47.6579 88.7377C49.6189 89.1535 50.6701 89.3764 51.7015 90.0858L51.7193 90.0981L51.736 90.1119C54.1328 92.0861 54.9739 95.2676 54.8457 98.2426C54.8311 98.5811 54.8149 98.9151 54.7972 99.2444C54.8039 100.393 54.7438 101.611 54.626 102.883C54.4416 104.876 54.1146 107.016 53.6748 109.258C53.1437 112.264 52.6459 113.928 52.6459 113.928C52.631 113.977 52.6162 114.027 52.6014 114.076C51.8975 116.93 51.0592 119.886 50.139 122.863C46.7299 133.892 42.1717 145.295 39.0918 152.999C39.044 153.119 38.9966 153.238 38.9495 153.355C37.9724 155.959 37.1426 158.101 36.671 159.124C44.8727 163.685 80.6912 172.509 110.855 160.818C116.373 158.68 120.649 157.022 124.9 152.893C132.67 145.343 134.309 135.405 135.84 126.119C137.377 116.796 138.806 108.13 146.22 103.196C149.757 100.841 153.444 100.145 155.696 99.8936C154.225 94.7603 154.404 92.6565 154.632 89.9873Z" fill="#505573"/>
<path d="M80.7289 51.9172L56.9824 46.9088L89.9582 30.3982L80.7289 51.9172Z" fill="#E7EAF3"/>
<path d="M78.474 47.4331L58.8037 6.62036L87.7116 25.5891L78.474 47.4331Z" fill="#E7EAF3"/>
<path d="M90.2313 30.5105L80.5 52.4999L89.3967 67.8992L90.2313 30.5105Z" fill="#E7EAF3"/>
<path fill-rule="evenodd" clip-rule="evenodd" d="M58.3351 5.10278C57.8571 11.3364 57.213 17.5538 56.5513 23.7704L56.5509 23.774C55.9206 29.6961 55.2893 35.6267 54.8307 41.608L54.7979 42.0363L61.9169 43.6601C61.3254 43.9536 60.7342 44.2475 60.1432 44.542C58.6908 45.2656 57.2407 45.9935 55.7953 46.7309L89.3907 69.1028L90.7978 29.5923L85.6537 32.1154C86.5716 29.8613 87.4978 27.6107 88.436 25.3651L58.3351 5.10278ZM85.0879 33.5071C84.6996 34.4637 84.3134 35.417 83.9273 36.3704L83.8811 36.4845C82.4524 40.0121 81.022 43.5424 79.4759 47.238L79.3129 47.6278L63.4306 44.0053L58.2909 46.5937L80.5998 51.276L89.2571 31.4622L85.0879 33.5071ZM82.9471 36.1121C81.6507 39.313 80.3548 42.5116 78.9728 45.8326L60.0553 7.46766L87.1921 25.7347C85.725 29.2531 84.359 32.6259 82.9947 35.9944L82.9471 36.1121ZM81.452 51.8367L89.6681 33.0326L88.4879 66.168L81.452 51.8367Z" fill="#505573"/>
<path d="M21.4764 34.4585L16 15.5935L39.4477 32.6408L21.4764 34.4585Z" fill="#E7EAF3"/>
<path d="M24 31C30.4327 18.7501 35.4094 11.7897 45 1L42.0698 29L24 31Z" fill="#E7EAF3"/>
<path d="M40.5332 32.9299L21.3207 34.4281L13.5332 45.9299L40.5332 32.9299Z" fill="#E7EAF3"/>
<path fill-rule="evenodd" clip-rule="evenodd" d="M45.4902 0.377197L42.7203 29.704C40.9434 29.8986 39.168 30.106 37.3937 30.324L40.9707 32.8679L12.4902 47.3772L15.4167 14.6716C16.6045 15.4883 17.787 16.3128 18.967 17.1412L17.5632 12.1252C22.0962 10.0452 26.7191 8.18405 31.3466 6.33414L31.3526 6.33176C36.1016 4.43329 40.8384 2.51163 45.4902 0.377197ZM33.0122 30.8738C33.9771 30.7515 34.9416 30.6292 35.9077 30.5083L38.5902 32.4161L21.8126 33.9774L16.7287 16.8154L19.3985 18.6829L23.1427 32.0612C26.4152 31.7043 29.6816 31.2962 32.9475 30.882L33.0122 30.8738ZM24.5692 30.8811L31.4824 21.0905C35.4241 15.5081 40.2413 8.6856 44.2335 3.03127L41.8013 28.7826C38.7926 29.1165 35.8399 29.4909 32.8917 29.8647L32.8234 29.8734C30.084 30.2208 27.3482 30.5674 24.5692 30.8811ZM21.7262 35.0062L37.405 33.5471L14.6409 45.1442L21.7262 35.0062Z" fill="#505573"/>
<path fill-rule="evenodd" clip-rule="evenodd" d="M140.041 95.296C140.15 95.0477 140.444 94.9329 140.698 95.0397C147.087 97.7285 151.906 99.0298 156.524 99.0207C161.138 99.0115 165.603 97.6944 171.285 95.0474C171.535 94.9312 171.833 95.0349 171.952 95.279C172.07 95.523 171.964 95.815 171.715 95.9312C165.969 98.6079 161.349 99.9899 156.526 99.9995C151.708 100.009 146.742 98.6486 140.303 95.9389C140.049 95.8321 139.932 95.5443 140.041 95.296Z" fill="#FFCB47"/>
<path fill-rule="evenodd" clip-rule="evenodd" d="M171.951 95.2792C172.07 95.5233 171.964 95.8153 171.715 95.9314C165.553 98.802 160.688 100.182 155.48 99.9804C155.204 99.9697 154.989 99.742 155 99.472C155.011 99.2019 155.244 98.9916 155.52 99.0023C160.499 99.1956 165.194 97.8851 171.285 95.0476C171.534 94.9315 171.833 95.0351 171.951 95.2792Z" fill="#505573"/>
<path fill-rule="evenodd" clip-rule="evenodd" d="M67.6683 92.4915C66.9435 93.6345 66.2166 95.2713 65.469 97.3342C65.3732 97.5987 65.0855 97.7338 64.8266 97.6359C64.5676 97.538 64.4354 97.2442 64.5312 96.9797C65.287 94.894 66.0441 93.1741 66.8289 91.9363C67.5986 90.7225 68.471 89.8504 69.5004 89.6933C70.5702 89.53 71.5674 90.1647 72.5013 91.3405C73.4441 92.5276 74.4209 94.3831 75.4624 96.9624C75.5677 97.2231 75.446 97.5217 75.1908 97.6292C74.9355 97.7368 74.6432 97.6126 74.5379 97.3518C73.5082 94.8016 72.5754 93.0551 71.7247 91.984C70.865 90.9015 70.1848 90.6216 69.6482 90.7035C69.0713 90.7916 68.4083 91.3245 67.6683 92.4915Z" fill="#FFCB47"/>
<path fill-rule="evenodd" clip-rule="evenodd" d="M69.6672 90.1155C69.7191 89.8385 69.981 89.6569 70.2522 89.7099C71.1673 89.8887 72.0194 90.6301 72.8437 91.7986C73.6785 92.982 74.5449 94.6894 75.4627 96.9625C75.5679 97.2232 75.4463 97.5218 75.1911 97.6293C74.9358 97.7368 74.6435 97.6126 74.5382 97.3519C73.6329 95.1098 72.8013 93.4857 72.0324 92.3957C71.2529 91.2908 70.5954 90.8169 70.0643 90.7131C69.7931 90.6601 69.6153 90.3926 69.6672 90.1155Z" fill="#505573"/>
</g>
<defs>
<clipPath id="clip0_25911_3719">
<rect width="220" height="158" fill="white"/>
</clipPath>
</defs>
</svg>
