<svg width="57" height="52" viewBox="0 0 57 52" fill="none" xmlns="http://www.w3.org/2000/svg">
<path d="M44.2143 0C44.2143 9.27677 42.1288 18.0858 36.3929 21.3775V5.41749L28.5 11.9592L20.6071 5.41749V21.3775C14.8712 18.0859 12.7857 9.27756 12.7857 0C6.27596 0 0 13.4577 0 28.824C0 36.2057 2.23727 42.8725 4.22524 47.8494C6.74727 42.967 10.4992 37.7916 14.75 37.7916C22.344 37.7916 28.5 39.7583 28.5 52C28.5 39.7583 34.656 37.7916 42.25 37.7916C46.5008 37.7916 50.2527 42.967 52.7748 47.8494C54.7627 42.8674 57 36.2063 57 28.824C57 13.4569 50.724 0 44.2143 0Z" fill="var(--mystic, #343A52)"/>
</svg>
