<svg width="202" height="63" viewBox="0 0 202 63" fill="none" xmlns="http://www.w3.org/2000/svg">
<path d="M30.362 14.288C30.4247 14.7893 30.4247 15.2593 30.362 15.698C30.2993 16.1367 30.2053 16.544 30.08 16.92C29.9547 17.296 29.8293 17.7347 29.704 18.236C29.5787 18.4867 29.4533 18.8627 29.328 19.364C29.0147 20.0533 28.7327 20.7113 28.482 21.338C28.2313 21.9647 27.9807 22.6227 27.73 23.312C27.4167 24.064 27.072 24.816 26.696 25.568C26.3827 26.2573 26.0693 26.9467 25.756 27.636C25.4427 28.0747 25.192 28.67 25.004 29.422C24.8787 29.5473 24.7847 29.6727 24.722 29.798C24.6593 29.9233 24.5653 30.0487 24.44 30.174C23.3747 31.7407 22.4347 33.1193 21.62 34.31C20.868 35.5007 19.9593 36.8167 18.894 38.258C18.3927 38.8847 17.8913 39.48 17.39 40.044C16.9513 40.5453 16.5753 41.1407 16.262 41.83C16.0113 42.1433 15.792 42.4253 15.604 42.676C15.416 42.9267 15.228 43.2087 15.04 43.522C14.852 43.8353 14.664 44.1173 14.476 44.368C14.288 44.6187 14.0687 44.838 13.818 45.026C13.7553 45.1513 13.6927 45.2453 13.63 45.308C13.5673 45.308 13.5047 45.3393 13.442 45.402L13.066 45.684C12.9407 46.1227 12.69 46.4987 12.314 46.812C12.0007 47.1253 11.6873 47.4387 11.374 47.752C11.2487 47.8773 11.1547 48.034 11.092 48.222C11.092 48.3473 11.0293 48.504 10.904 48.692C10.8413 48.7547 10.7787 48.8173 10.716 48.88C10.716 48.9427 10.6847 49.0053 10.622 49.068L10.434 49.35C10.1833 49.7887 9.87 50.196 9.494 50.572C9.18067 50.948 8.86733 51.2927 8.554 51.606H9.4C11.1547 51.5433 12.69 51.418 14.006 51.23C15.322 51.042 16.5753 51.0107 17.766 51.136H18.048H18.612C19.4893 51.0733 20.3667 51.1047 21.244 51.23C22.1213 51.2927 23.0927 51.418 24.158 51.606C24.4713 51.6687 24.722 51.7627 24.91 51.888C25.098 52.0133 24.9727 52.2013 24.534 52.452C24.4713 52.3893 24.3773 52.358 24.252 52.358C24.1267 52.6713 24.346 53.016 24.91 53.392C25.0353 53.4547 25.1607 53.5487 25.286 53.674C25.286 54.05 25.1607 54.2693 24.91 54.332C24.722 54.3947 24.2833 54.3007 23.594 54.05V54.238C23.406 54.3633 23.1867 54.426 22.936 54.426C22.748 54.3633 22.5287 54.332 22.278 54.332C22.1527 54.332 21.996 54.332 21.808 54.332C21.62 54.332 21.4947 54.3947 21.432 54.52C21.4947 54.6453 21.5887 54.6767 21.714 54.614C21.902 54.5513 22.0587 54.5513 22.184 54.614C22.2467 54.6767 22.4033 54.708 22.654 54.708C22.7793 54.7707 22.8733 54.802 22.936 54.802C22.9987 54.802 23.0927 54.8333 23.218 54.896C23.2807 54.896 23.3433 54.9273 23.406 54.99H23.594C23.97 55.1153 24.3773 55.272 24.816 55.46C25.2547 55.5853 25.6307 55.7107 25.944 55.836L26.132 56.4C24.8787 56.4 23.6567 56.2747 22.466 56.024C22.4033 56.024 22.3407 56.0553 22.278 56.118C22.278 56.118 22.2467 56.118 22.184 56.118C21.62 56.118 21.056 56.1493 20.492 56.212C19.9907 56.212 19.3953 56.1493 18.706 56.024H18.424H18.048C17.9853 55.9613 17.8913 55.93 17.766 55.93C17.7033 55.93 17.6093 55.8987 17.484 55.836C17.1707 55.8987 16.8573 55.9613 16.544 56.024C16.2307 56.0867 15.9173 56.0553 15.604 55.93C15.4787 55.9927 15.3533 56.024 15.228 56.024C15.1653 56.024 15.1027 56.0553 15.04 56.118C15.04 56.118 15.0087 56.118 14.946 56.118C14.758 56.1807 14.3507 56.212 13.724 56.212C13.4733 56.212 13.2227 56.212 12.972 56.212C12.7213 56.1493 12.502 56.1493 12.314 56.212C11.75 56.0867 11.2173 56.0553 10.716 56.118C10.2773 56.1807 9.80733 56.2433 9.306 56.306C9.118 56.306 8.742 56.2747 8.178 56.212C7.67667 56.1493 7.144 56.0867 6.58 56.024C6.32933 56.024 6.11 56.0553 5.922 56.118C5.734 56.1807 5.546 56.212 5.358 56.212C5.23267 56.212 5.04467 56.1807 4.794 56.118C4.606 55.9927 4.35533 55.9613 4.042 56.024H3.854C3.854 56.1493 3.76 56.306 3.572 56.494L3.478 56.588L3.384 56.682L3.29 56.776L2.538 56.4V56.212C1.91133 56.3373 1.47267 56.4 1.222 56.4C1.09667 56.4 0.971333 56.4313 0.846 56.494C0.783333 56.4313 0.689333 56.3373 0.564 56.212C0.501333 56.0867 0.438666 55.93 0.376 55.742C0.250667 55.6793 0.156666 55.648 0.0939999 55.648H0.188C0.250667 55.7107 0.313333 55.742 0.376 55.742C0.250667 55.4287 0.188 54.896 0.188 54.144C0.0626664 54.0813 0 53.956 0 53.768C0.0626668 53.5173 0.188 53.2667 0.376 53.016V52.922C0.501333 52.358 0.783333 51.888 1.222 51.512C1.72333 50.6347 2.19333 49.82 2.632 49.068C3.13333 48.2533 3.69733 47.47 4.324 46.718C4.44933 46.5927 4.512 46.4987 4.512 46.436C4.57467 46.3733 4.66867 46.2793 4.794 46.154L5.076 45.872C6.58 43.5533 8.02133 41.4853 9.4 39.668C10.8413 37.788 12.3453 35.7513 13.912 33.558C14.2253 33.1193 14.476 32.712 14.664 32.336C14.9147 31.8973 15.134 31.4587 15.322 31.02C15.4473 30.8947 15.5413 30.7693 15.604 30.644C15.7293 30.456 15.8233 30.2993 15.886 30.174C16.3873 29.4847 16.8573 28.7953 17.296 28.106C17.7973 27.354 18.2673 26.6333 18.706 25.944C19.2073 25.192 19.646 24.4713 20.022 23.782C20.4607 23.03 20.8367 22.278 21.15 21.526C21.4633 21.0247 21.7453 20.5233 21.996 20.022C22.2467 19.458 22.4973 18.9253 22.748 18.424C23.124 17.3587 23.406 16.356 23.594 15.416C23.6567 15.228 23.6567 15.1027 23.594 15.04C23.594 14.9147 23.6253 14.8207 23.688 14.758C23.688 14.6327 23.688 14.5387 23.688 14.476C23.7507 14.3507 23.782 14.2567 23.782 14.194C23.7193 14.0687 23.688 13.9747 23.688 13.912C23.688 13.8493 23.6567 13.7553 23.594 13.63C23.594 13.63 23.5627 13.5673 23.5 13.442C23.5 13.442 23.5 13.4107 23.5 13.348C23.4373 13.2227 23.3747 13.1287 23.312 13.066C23.2493 13.0033 23.218 12.9093 23.218 12.784C23.0927 12.7213 22.9673 12.69 22.842 12.69C22.7167 12.6273 22.5913 12.5333 22.466 12.408V12.502C21.9647 12.314 21.1813 12.22 20.116 12.22C19.9907 12.22 19.8967 12.2513 19.834 12.314C19.834 12.314 19.8027 12.314 19.74 12.314H19.364C19.0507 12.314 18.8313 12.3453 18.706 12.408C18.33 12.408 18.0793 12.4393 17.954 12.502H17.86H17.766H17.672C17.6093 12.5647 17.5467 12.596 17.484 12.596C17.4213 12.596 17.39 12.6273 17.39 12.69C17.39 12.69 17.3587 12.69 17.296 12.69C17.1707 12.69 17.108 12.7213 17.108 12.784C16.9827 12.784 16.8887 12.8153 16.826 12.878C16.826 12.9407 16.7947 12.972 16.732 12.972H16.544C16.4187 13.0973 16.262 13.1913 16.074 13.254C15.9487 13.254 15.792 13.3167 15.604 13.442C15.4787 13.5673 15.322 13.724 15.134 13.912C14.946 14.0373 14.7267 14.0373 14.476 13.912L17.108 12.69L16.544 13.066C16.1053 13.254 15.698 13.442 15.322 13.63C14.946 13.818 14.6013 14.1 14.288 14.476L13.63 14.852L12.972 15.51C12.4707 15.5727 12.0007 15.7607 11.562 16.074C11.186 16.3873 10.7787 16.6693 10.34 16.92C10.2773 16.9827 10.246 17.0453 10.246 17.108C10.1207 17.296 9.93267 17.484 9.682 17.672C9.494 17.86 9.306 18.0167 9.118 18.142C8.80467 18.4553 8.39733 18.706 7.896 18.894C7.45733 19.082 7.08133 19.4267 6.768 19.928C6.45467 19.928 6.04733 19.9907 5.546 20.116C5.10733 20.2413 4.888 20.0847 4.888 19.646C4.95067 19.3327 5.076 19.0507 5.264 18.8C5.51467 18.5493 5.79667 18.2673 6.11 17.954C6.11 17.954 6.17267 17.8287 6.298 17.578L6.392 17.484C6.392 17.3587 6.298 17.3273 6.11 17.39C5.98467 17.39 5.79667 17.3587 5.546 17.296C5.29533 17.4213 5.17 17.484 5.17 17.484C4.91933 17.1707 5.23267 16.8573 6.11 16.544C6.11 16.544 6.11 16.5127 6.11 16.45C6.23533 16.3247 6.36067 16.1993 6.486 16.074C6.674 15.9487 6.83067 15.8233 6.956 15.698C7.144 15.5727 7.20667 15.4787 7.144 15.416C7.01867 15.2907 6.92467 15.2593 6.862 15.322C6.79933 15.3847 6.70533 15.4473 6.58 15.51L6.298 15.792C6.17267 15.9173 6.016 15.9487 5.828 15.886H5.734L5.64 15.98C5.32667 16.1053 5.13867 16.168 5.076 16.168C5.01333 16.1053 5.20133 15.7607 5.64 15.134V15.04C5.13867 15.228 4.82533 15.2593 4.7 15.134C4.63733 14.946 4.888 14.6013 5.452 14.1C5.828 13.5987 6.23533 13.066 6.674 12.502C7.11267 11.938 7.64533 11.4993 8.272 11.186C8.58533 10.8727 8.86733 10.6533 9.118 10.528C9.43133 10.34 9.71333 10.1207 9.964 9.87L10.246 9.588C10.3713 9.46267 10.4967 9.4 10.622 9.4C10.81 9.33734 10.9667 9.24334 11.092 9.118C11.5933 8.61667 12.2513 8.178 13.066 7.802C13.1913 7.55133 13.3793 7.39467 13.63 7.332C13.6927 7.20667 13.7867 7.17534 13.912 7.238C14.1 7.30067 14.2567 7.26933 14.382 7.144C14.6327 6.83067 15.0713 6.58 15.698 6.392C16.3247 6.14134 16.8573 5.95333 17.296 5.828C17.5467 5.828 17.7347 5.76533 17.86 5.64C17.9853 5.57733 18.048 5.546 18.048 5.546C18.1107 5.546 18.2047 5.51467 18.33 5.452C18.518 5.32667 18.4553 5.29533 18.142 5.358C17.8913 5.42067 17.578 5.51467 17.202 5.64C16.8887 5.76533 16.6067 5.89067 16.356 6.016C16.1053 6.14133 16.074 6.17267 16.262 6.11C16.45 6.04733 16.732 5.95333 17.108 5.828C17.484 5.70267 17.7973 5.64 18.048 5.64C18.1107 5.57733 18.236 5.546 18.424 5.546H18.706H18.8C18.988 5.48334 19.2387 5.452 19.552 5.452C19.8653 5.452 20.116 5.48334 20.304 5.546H21.056C21.3067 5.60867 21.432 5.60867 21.432 5.546C21.4947 5.42067 21.6513 5.38933 21.902 5.452H22.372C22.4973 5.452 22.56 5.48334 22.56 5.546C22.6227 5.546 22.7167 5.546 22.842 5.546C22.9673 5.60867 23.0927 5.64 23.218 5.64C23.406 5.64 23.5627 5.67133 23.688 5.734C23.7507 5.67133 23.876 5.67133 24.064 5.734C24.252 5.79667 24.4087 5.828 24.534 5.828H24.91H25.38C25.38 5.89067 25.5053 5.922 25.756 5.922C25.8813 6.04733 26.038 6.11 26.226 6.11C26.7273 6.36067 27.1347 6.674 27.448 7.05C27.824 7.426 28.1687 7.83334 28.482 8.272C28.6073 8.39734 28.7013 8.52267 28.764 8.648C28.8267 8.77333 28.9207 8.89867 29.046 9.024L29.234 9.212V9.494L29.422 9.964C29.5473 10.152 29.6413 10.34 29.704 10.528C29.7667 10.6533 29.798 10.81 29.798 10.998L30.08 11.468C30.08 11.5933 30.08 11.6873 30.08 11.75C30.1427 11.8127 30.174 11.9067 30.174 12.032V12.502C30.2367 12.69 30.268 12.972 30.268 13.348C30.3307 13.536 30.362 13.818 30.362 14.194V14.288ZM23.688 53.392H23.594H23.688Z" fill="url(#paint0_linear_3224_12907)"/>
<path d="M53.5389 10.34C53.4762 10.34 53.3822 10.3713 53.2569 10.434C53.1942 10.434 53.1002 10.434 52.9749 10.434C53.0375 10.5593 53.0375 10.6533 52.9749 10.716C53.1002 10.7787 53.1942 10.8413 53.2569 10.904C53.3822 10.9667 53.5075 11.0293 53.6329 11.092C53.6329 11.0293 53.6642 10.998 53.7269 10.998C53.7895 11.3113 53.8209 11.5933 53.8209 11.844C53.8209 12.0947 53.8209 12.3767 53.8209 12.69C53.5702 12.8153 53.3822 12.9407 53.2569 13.066C53.1315 13.254 53.0375 13.4733 52.9749 13.724C52.9122 13.912 52.7869 14.0687 52.5989 14.194C52.4735 14.3193 52.4109 14.4447 52.4109 14.57C52.4109 14.6327 52.3482 14.7267 52.2229 14.852C52.0975 15.3533 52.0035 15.8233 51.9409 16.262C51.9409 16.7007 51.6902 17.108 51.1889 17.484C51.3142 17.6093 51.3455 17.766 51.2829 17.954C51.2202 18.142 51.2515 18.2987 51.3769 18.424C51.0635 18.8627 50.8442 19.3327 50.7189 19.834C50.6562 20.2727 50.4682 20.68 50.1549 21.056C49.7162 21.5573 49.4342 22.09 49.3089 22.654C49.1835 23.1553 49.0582 23.6567 48.9329 24.158C48.9329 24.346 48.8702 24.534 48.7449 24.722C48.6822 24.8473 48.6509 25.0353 48.6509 25.286C48.7762 25.5993 48.7135 25.8813 48.4629 26.132C48.2749 26.32 48.1182 26.5393 47.9929 26.79C47.9302 26.79 47.8989 26.8213 47.8989 26.884C48.0242 26.884 48.1495 26.9153 48.2749 26.978C48.4629 26.978 48.6195 26.978 48.7449 26.978C48.9955 26.978 49.2149 26.9467 49.4029 26.884C49.5909 26.8213 49.7789 26.79 49.9669 26.79C50.0922 26.79 50.2175 26.8213 50.3429 26.884C50.5309 26.9467 50.7502 26.978 51.0009 26.978C51.5022 26.8527 51.9409 26.79 52.3169 26.79C52.6302 26.7273 52.9122 26.696 53.1629 26.696C53.4762 26.6333 53.7582 26.5707 54.0089 26.508C54.1969 26.508 54.4162 26.7587 54.6669 27.26C54.9175 27.7613 55.1055 28.3253 55.2309 28.952C55.4189 29.516 55.4502 30.08 55.3249 30.644C55.2622 31.1453 54.9802 31.4273 54.4789 31.49C54.2909 31.49 54.1029 31.5213 53.9149 31.584C53.7269 31.584 53.5075 31.5527 53.2569 31.49C53.0689 31.3647 52.7869 31.3333 52.4109 31.396C52.0975 31.396 51.8155 31.396 51.5649 31.396C51.2515 31.4587 50.9069 31.4587 50.5309 31.396C50.1549 31.3333 49.7162 31.3333 49.2149 31.396C49.0895 31.396 49.0269 31.3647 49.0269 31.302C49.0269 31.2393 48.9642 31.208 48.8389 31.208H47.8989C47.3975 31.208 46.9902 31.2393 46.6769 31.302C46.6769 31.3647 46.6455 31.4273 46.5829 31.49C46.5829 31.49 46.6142 31.5527 46.6769 31.678C46.5515 31.8033 46.4575 31.96 46.3949 32.148C46.3322 32.2733 46.2382 32.43 46.1129 32.618L45.9249 32.806C45.8622 32.9313 45.8309 33.0253 45.8309 33.088C45.8309 33.1507 45.7995 33.2447 45.7369 33.37C45.7995 33.4327 45.7995 33.4953 45.7369 33.558C45.6742 33.6207 45.6429 33.6833 45.6429 33.746C45.5802 33.746 45.5489 33.7773 45.5489 33.84C45.4235 34.0907 45.2982 34.2787 45.1729 34.404C45.1102 34.78 45.0789 35.1247 45.0789 35.438C45.0789 35.7513 45.0162 36.096 44.8909 36.472C44.5149 36.848 44.3269 37.412 44.3269 38.164C44.2015 38.4773 44.0762 38.822 43.9509 39.198C43.8255 39.5113 43.7942 39.856 43.8569 40.232C43.9195 40.4827 43.8255 40.796 43.5749 41.172C43.7002 41.2973 43.7002 41.4227 43.5749 41.548C43.3242 42.4253 43.0735 43.2713 42.8229 44.086C42.6349 44.9007 42.4469 45.7153 42.2589 46.53C42.1335 46.906 42.0082 47.2507 41.8829 47.564C41.7575 47.8773 41.6949 48.222 41.6949 48.598C41.6322 48.8487 41.6009 49.1933 41.6009 49.632C41.4755 49.7573 41.4442 49.914 41.5069 50.102C41.5695 50.2273 41.5382 50.3527 41.4129 50.478C41.1622 50.6033 41.0682 50.666 41.1309 50.666V50.854C41.1309 51.1047 41.0682 51.324 40.9429 51.512C40.8802 51.7 40.7862 51.888 40.6609 52.076C40.6609 52.264 40.7862 52.4207 41.0369 52.546C40.9742 52.6713 40.8802 52.7967 40.7549 52.922C40.6922 52.9847 40.6609 53.0473 40.6609 53.11C40.7862 53.5487 40.7549 53.956 40.5669 54.332C40.4415 54.708 40.3162 55.1153 40.1909 55.554C40.2535 55.554 40.2222 55.6167 40.0969 55.742C40.2222 56.1807 40.0655 56.4 39.6269 56.4C39.2509 56.4 39.0002 56.306 38.8749 56.118C38.8749 56.0553 38.9062 55.9927 38.9689 55.93C38.9689 55.93 38.9062 55.8987 38.7809 55.836C38.6555 55.7107 38.5929 55.554 38.5929 55.366C38.6555 55.3033 38.6555 55.178 38.5929 54.99C38.5929 54.6767 38.4675 54.4887 38.2169 54.426C38.0915 54.3633 38.0289 54.3947 38.0289 54.52C38.0289 54.5827 37.9975 54.6767 37.9349 54.802C37.9349 55.2407 37.8409 55.554 37.6529 55.742C37.5902 55.742 37.5275 55.7107 37.4649 55.648C37.5902 56.1493 37.6215 56.494 37.5589 56.682C37.4962 56.8073 37.2455 56.8387 36.8069 56.776C36.6815 56.7133 36.6189 56.588 36.6189 56.4C36.3682 56.212 36.1489 56.024 35.9609 55.836C35.7729 55.648 35.5535 55.5853 35.3029 55.648C35.3029 55.648 35.3342 55.7107 35.3969 55.836C35.0835 56.024 34.7075 56.024 34.2689 55.836C33.8929 55.648 33.7049 55.4287 33.7049 55.178C33.6422 54.4887 33.6109 53.8307 33.6109 53.204C33.6109 52.5147 33.6735 51.888 33.7989 51.324C33.6735 51.136 33.7049 50.9793 33.8929 50.854L33.9869 50.76C34.1122 49.3187 34.3942 47.94 34.8329 46.624C35.3342 45.2453 35.7415 43.9293 36.0549 42.676C36.0549 42.3627 36.0549 42.0807 36.0549 41.83C36.1175 41.5793 36.1489 41.3287 36.1489 41.078C36.1489 40.89 36.2429 40.702 36.4309 40.514C36.6189 39.762 36.8069 38.9787 36.9949 38.164C37.2455 37.3493 37.4962 36.5033 37.7469 35.626C38.0602 34.9993 38.2482 34.3727 38.3109 33.746C38.4362 33.1193 38.6555 32.4613 38.9689 31.772H38.5929C37.7782 31.8347 37.0889 31.8347 36.5249 31.772C36.0235 31.6467 35.3342 31.5213 34.4569 31.396C34.1435 31.3333 33.8615 31.2707 33.6109 31.208C33.4229 31.0827 33.4542 30.926 33.7049 30.738H33.9869C34.0495 30.362 33.7989 30.0173 33.2349 29.704C32.9842 29.704 32.8589 29.6413 32.8589 29.516C32.6709 28.952 33.1095 28.8267 34.1749 29.14C34.1749 29.0773 34.1435 29.0147 34.0809 28.952C34.3942 28.8267 34.8015 28.8267 35.3029 28.952C35.4282 28.952 35.5535 28.952 35.6789 28.952C35.8042 28.952 35.8982 28.8893 35.9609 28.764C35.9609 28.6387 35.8669 28.576 35.6789 28.576C35.5535 28.5133 35.4282 28.4507 35.3029 28.388C35.1775 28.388 35.0522 28.388 34.9269 28.388C34.8642 28.3253 34.8015 28.294 34.7389 28.294C34.6135 28.294 34.5195 28.294 34.4569 28.294C34.3942 28.2313 34.3002 28.2 34.1749 28.2C34.1122 28.1373 34.0495 28.106 33.9869 28.106H33.7989C33.4229 27.9807 33.0469 27.918 32.6709 27.918C32.2949 27.8553 31.8562 27.7613 31.3549 27.636L31.2609 26.884C32.3262 26.884 33.3915 26.978 34.4569 27.166C34.5195 27.166 34.5509 27.166 34.5509 27.166C34.6135 27.1033 34.6762 27.072 34.7389 27.072C35.3029 27.072 35.8355 27.072 36.3369 27.072C36.8382 27.0093 37.3709 27.0407 37.9349 27.166H38.1229C38.1855 27.1033 38.3109 27.072 38.4989 27.072C38.7495 27.1973 38.9689 27.26 39.1569 27.26C39.4075 27.1973 39.5329 27.1347 39.5329 27.072C39.5329 27.0093 39.6895 27.0407 40.0029 27.166C40.0029 27.166 40.0655 27.1347 40.1909 27.072C40.3162 27.072 40.4102 27.0407 40.4729 26.978H40.7549C40.5042 26.8527 40.4415 26.7273 40.5669 26.602C40.6922 26.414 40.8175 26.2573 40.9429 26.132C41.4442 24.5027 41.9142 23.1867 42.3529 22.184C42.8542 21.1813 43.1989 20.21 43.3869 19.27C43.5749 19.1447 43.6689 18.9567 43.6689 18.706C44.1702 17.6407 44.5462 16.4187 44.7969 15.04C45.0475 13.6613 45.4549 12.3453 46.0189 11.092C45.5802 11.092 45.2982 11.1233 45.1729 11.186C45.0475 11.186 44.7655 11.2487 44.3269 11.374C44.0762 11.4367 44.0449 11.468 44.2329 11.468C44.4835 11.468 44.4835 11.4993 44.2329 11.562C43.9822 11.6247 43.7942 11.6873 43.6689 11.75C43.6062 11.75 43.4495 11.7187 43.1989 11.656H42.8229H42.5409C42.1649 11.7813 41.7889 11.844 41.4129 11.844C41.0995 11.844 40.7862 11.844 40.4729 11.844C40.3475 11.9067 40.1909 11.9693 40.0029 12.032C39.8775 12.032 39.7835 12.0633 39.7209 12.126H39.2509C39.1882 12.126 39.1255 12.1573 39.0629 12.22C39.0629 12.22 39.0315 12.22 38.9689 12.22C38.3422 12.408 37.7155 12.5333 37.0889 12.596C36.4622 12.6587 35.8355 12.7527 35.2089 12.878C35.0835 12.878 34.9895 12.878 34.9269 12.878C34.9269 12.8153 34.8955 12.784 34.8329 12.784C34.2062 12.972 33.6735 13.0973 33.2349 13.16C32.8589 13.16 32.9215 12.8153 33.4229 12.126C33.4229 12.0633 33.4542 12.032 33.5169 12.032C33.5795 12.032 33.6422 12.0007 33.7049 11.938C33.8302 11.8753 33.9242 11.844 33.9869 11.844C34.1122 11.7813 34.2375 11.75 34.3629 11.75C34.6135 11.6247 34.8015 11.562 34.9269 11.562C35.3029 11.3113 35.4909 11.1547 35.4909 11.092C35.4282 10.9667 35.3029 10.9353 35.1149 10.998C34.9269 10.998 34.7702 10.998 34.6449 10.998C34.3942 11.0607 34.1435 11.1233 33.8929 11.186C33.7049 11.2487 33.4855 11.2487 33.2349 11.186L33.0469 10.998C32.3575 11.3113 31.8562 11.468 31.5429 11.468C31.2922 11.4053 31.1042 11.2487 30.9789 10.998C30.9789 10.8727 31.1355 10.7473 31.4489 10.622C31.5742 10.4967 31.6995 10.34 31.8249 10.152C31.9502 9.964 31.9502 9.80733 31.8249 9.682H31.5429C31.0415 9.55667 30.8849 9.43133 31.0729 9.306C31.2609 9.18067 31.5115 9.05534 31.8249 8.93C32.7649 8.61667 33.7049 8.366 34.6449 8.178C35.5849 7.92733 36.5875 7.73934 37.6529 7.614C37.8409 7.55133 38.0602 7.52 38.3109 7.52H38.5929C40.5982 7.01867 42.6662 6.64267 44.7969 6.392C46.9275 6.07867 49.0895 5.79667 51.2829 5.546C51.6589 5.85933 52.0035 6.17267 52.3169 6.486C52.6929 6.79933 53.0062 7.144 53.2569 7.52L53.5389 10.34ZM32.7649 10.434H32.6709H32.7649ZM36.5249 55.554L36.4309 55.46L36.5249 55.554ZM43.1049 39.104C43.1675 39.104 43.2302 39.1353 43.2929 39.198L43.1989 39.104H43.1049Z" fill="url(#paint1_linear_3224_12907)"/>
<path d="M68.0252 13.066C68.0878 13.1913 68.1192 13.348 68.1192 13.536C68.1192 13.6613 68.1192 13.7867 68.1192 13.912C68.1818 14.0373 68.2132 14.1627 68.2132 14.288V14.664C68.3385 14.9147 68.3072 15.1967 68.1192 15.51V15.698C68.1192 15.698 68.0878 15.7607 68.0252 15.886C68.0252 16.0113 68.0252 16.1367 68.0252 16.262C68.0878 16.3873 68.0565 16.544 67.9312 16.732C67.8685 16.2933 67.8372 16.0427 67.8372 15.98C67.8372 15.8547 67.8372 15.8233 67.8372 15.886C67.8998 15.9487 67.9625 16.0113 68.0252 16.074C68.0878 16.074 68.1818 16.0113 68.3072 15.886C68.3698 15.7607 68.3385 15.8233 68.2132 16.074C68.1505 16.262 68.0878 16.3873 68.0252 16.45V16.732C68.0878 16.8573 68.0565 17.014 67.9312 17.202C67.8058 17.39 67.7432 17.5467 67.7432 17.672C67.7432 17.7973 67.6805 17.8913 67.5552 17.954C67.5552 18.0793 67.5238 18.142 67.4612 18.142C67.3985 18.142 67.3672 18.1733 67.3672 18.236C67.2418 18.2987 67.1792 18.3613 67.1792 18.424C67.1792 18.4867 67.1165 18.5807 66.9912 18.706C66.9285 18.706 66.8972 18.7373 66.8972 18.8C66.8972 18.8627 66.8345 18.894 66.7092 18.894C66.7092 18.894 66.7092 18.9253 66.7092 18.988L66.6152 19.364L66.5212 19.458H66.4272C66.3645 19.7713 66.2078 20.0533 65.9572 20.304L65.1112 20.868L64.4532 21.526C64.2025 21.6513 64.0145 21.714 63.8892 21.714C63.7638 21.714 63.6072 21.7767 63.4192 21.902C63.1685 22.0273 62.7612 22.09 62.1972 22.09L62.1032 22.184H61.5392L61.1632 22.09H61.0692H60.8812H60.6932C60.5678 22.09 60.5052 22.0587 60.5052 21.996L60.2232 21.902L59.9412 21.714L59.6592 21.526L59.3772 21.15C59.2518 21.15 59.1892 21.1187 59.1892 21.056V20.962C59.1892 20.8993 59.1265 20.8053 59.0012 20.68L58.9072 20.492H58.7192L58.6252 20.116L58.4372 20.022V19.928V19.74V19.458C58.2492 19.0193 58.1552 18.612 58.1552 18.236C57.9672 17.3587 57.9672 16.5753 58.1552 15.886C58.1552 15.3847 58.2492 15.04 58.4372 14.852C58.4372 14.7267 58.4372 14.57 58.4372 14.382C58.4998 14.194 58.5312 14.0373 58.5312 13.912C58.5312 13.7867 58.5625 13.724 58.6252 13.724C58.6878 13.6613 58.7192 13.5673 58.7192 13.442C58.5938 14.3193 58.3745 14.8833 58.0612 15.134C57.8105 15.322 57.8418 15.2907 58.1552 15.04L58.2492 14.852V14.758C58.2492 14.6953 58.3432 14.57 58.5312 14.382C58.5312 14.2567 58.5625 14.194 58.6252 14.194C58.6878 14.1313 58.7192 14.0373 58.7192 13.912C58.7192 13.912 58.7505 13.8493 58.8132 13.724C58.9385 13.724 59.0012 13.6927 59.0012 13.63V13.536C59.0638 13.536 59.0952 13.5047 59.0952 13.442C59.0952 13.442 59.1265 13.4107 59.1892 13.348V13.16C59.4398 12.784 59.6592 12.4707 59.8472 12.22C59.9725 12.0947 60.0978 11.9693 60.2232 11.844C60.3485 11.7187 60.4738 11.5933 60.5992 11.468L60.7872 11.28C60.9752 11.1547 61.1318 11.0607 61.2572 10.998C61.3825 10.8727 61.5392 10.7787 61.7272 10.716L61.8212 10.528L61.9152 10.434C61.9152 10.3713 61.9465 10.3087 62.0092 10.246H62.1032C62.3538 10.246 62.4792 10.2147 62.4792 10.152C62.6045 10.152 62.7298 10.1207 62.8552 10.058L63.4192 9.87C63.5445 9.87 63.6072 9.87 63.6072 9.87C63.6698 9.80734 63.7638 9.776 63.8892 9.776H63.9832L64.1712 9.682C64.7978 9.55667 65.2052 9.588 65.3932 9.776C65.5812 9.83867 65.6752 9.90133 65.6752 9.964C65.7378 10.0267 65.8005 10.0893 65.8632 10.152C65.9885 10.2147 66.1138 10.2773 66.2392 10.34C66.4272 10.4027 66.6152 10.5593 66.8032 10.81L67.1792 11.092C67.1792 11.2173 67.2105 11.3113 67.2732 11.374C67.3358 11.374 67.3985 11.4367 67.4612 11.562C67.5238 11.6873 67.5552 11.7813 67.5552 11.844C67.6178 11.844 67.6805 11.9067 67.7432 12.032L67.8372 12.408C67.8372 12.596 67.8685 12.69 67.9312 12.69C67.9312 12.8153 67.9312 12.878 67.9312 12.878C67.9938 12.878 68.0252 12.9407 68.0252 13.066ZM64.2652 11.374C63.6385 11.6873 63.1998 12.0007 62.9492 12.314C62.7612 12.5647 62.5105 12.9407 62.1972 13.442C62.0718 13.5673 62.0092 13.6613 62.0092 13.724C61.8838 13.912 61.8212 13.9747 61.8212 13.912C61.8212 13.8493 61.8212 13.7867 61.8212 13.724C61.8838 13.5987 61.9152 13.5047 61.9152 13.442C61.9778 13.3793 61.9778 13.4733 61.9152 13.724L61.8212 14.1C61.8212 14.1627 61.7898 14.194 61.7272 14.194C61.7272 14.194 61.7272 14.2567 61.7272 14.382C61.6018 14.4447 61.5392 14.5387 61.5392 14.664V14.946V15.134C61.5392 15.322 61.5078 15.5413 61.4452 15.792C61.3825 15.98 61.3512 16.168 61.3512 16.356C61.3512 16.6067 61.3512 16.7947 61.3512 16.92C61.4138 17.0453 61.4452 17.202 61.4452 17.39L61.5392 17.578C61.5392 17.8287 61.6018 18.0793 61.7272 18.33L61.8212 18.518V18.612V18.706C61.9465 18.706 62.0092 18.7687 62.0092 18.894H62.1972H62.2912C62.2912 18.9567 62.3225 18.988 62.3852 18.988H62.7612H62.8552L63.0432 18.894C63.2938 18.894 63.4818 18.8313 63.6072 18.706H63.7012C63.8265 18.5807 63.9518 18.518 64.0772 18.518L64.3592 18.142L64.5472 17.86C64.7352 17.86 64.8292 17.766 64.8292 17.578C65.1425 17.2647 65.3618 16.9513 65.4872 16.638C65.6752 16.262 65.8945 15.886 66.1452 15.51C66.2078 15.3847 66.1765 15.3533 66.0512 15.416C65.9258 15.416 65.9258 15.322 66.0512 15.134C66.1138 14.8833 66.1765 14.664 66.2392 14.476C66.3018 14.2253 66.3332 14.0373 66.3332 13.912L66.1452 14.758V14.194V13.724C66.1452 13.5987 66.1765 13.4733 66.2392 13.348C66.3018 13.16 66.2705 13.0033 66.1452 12.878C66.1452 12.7527 66.1138 12.6587 66.0512 12.596V12.126C65.9258 12.0007 65.8318 11.8753 65.7692 11.75H65.6752H65.5812C65.5185 11.75 65.4558 11.7187 65.3932 11.656L65.1112 11.562C64.9858 11.4367 64.8918 11.374 64.8292 11.374L64.6412 11.28L64.2652 11.374ZM74.4172 2.914C74.7305 1.84867 74.9812 1.25333 75.1692 1.128C75.3572 1.00267 75.7018 1.28467 76.2032 1.974C76.3285 2.09933 76.5165 2.256 76.7672 2.444C77.0805 2.56933 77.2998 2.538 77.4252 2.35C77.8638 1.53533 78.1772 1.034 78.3652 0.846001C78.6158 0.595333 79.0858 0.313333 79.7752 0C80.3392 0.125332 80.6212 0.783333 80.6212 1.974C80.6838 3.16467 80.4018 4.82534 79.7752 6.956L79.6812 7.896C79.6812 7.95866 79.6498 8.02133 79.5872 8.084L79.4932 8.178L79.3052 8.93C79.3052 9.118 79.2425 9.43133 79.1172 9.87C79.0545 10.3087 78.9605 10.7787 78.8352 11.28C78.7098 11.7187 78.5845 12.1573 78.4592 12.596C78.3338 12.972 78.2398 13.254 78.1772 13.442C78.2398 13.442 78.3025 13.4107 78.3652 13.348C78.4278 13.2227 78.3965 13.348 78.2712 13.724C78.1458 13.912 78.0205 14.1313 77.8952 14.382C77.8325 14.57 77.8325 14.758 77.8952 14.946C77.7698 15.0713 77.7072 15.0087 77.7072 14.758C77.5192 15.4473 77.2998 16.0427 77.0492 16.544C76.8612 17.0453 76.6732 17.6407 76.4852 18.33L74.7932 24.064C74.7305 24.44 74.6678 24.8473 74.6052 25.286C74.5425 25.7247 74.3545 26.132 74.0412 26.508C74.0412 26.6333 73.9785 26.7587 73.8532 26.884C73.7905 27.0093 73.7592 27.166 73.7592 27.354C73.3205 28.4193 73.1012 29.0147 73.1012 29.14C73.1012 29.2027 73.1325 29.2027 73.1952 29.14C73.3205 29.0147 73.3832 29.0147 73.3832 29.14C73.3832 29.2653 73.1952 29.892 72.8192 31.02C72.5058 32.0227 72.1925 32.9627 71.8792 33.84C71.6285 34.6547 71.4092 35.5947 71.2212 36.66C71.2212 36.848 71.1272 37.1927 70.9392 37.694C70.8138 38.1327 70.6572 38.634 70.4692 39.198C70.3438 39.6993 70.1872 40.2007 69.9992 40.702C69.8738 41.2033 69.7798 41.5793 69.7172 41.83L68.9652 44.18L67.3672 49.068C67.3672 49.1307 67.3672 49.0993 67.3672 48.974C67.3672 48.8487 67.3672 48.692 67.3672 48.504C67.3672 48.316 67.3358 48.1593 67.2732 48.034C67.2732 47.846 67.2732 47.752 67.2732 47.752C67.2105 48.128 67.2105 48.41 67.2732 48.598C67.3358 48.7233 67.3672 48.8487 67.3672 48.974C67.4298 49.0367 67.4612 49.1307 67.4612 49.256C67.5238 49.3813 67.4925 49.5693 67.3672 49.82C67.1165 50.3213 66.8972 50.854 66.7092 51.418C66.7092 51.5433 66.6465 51.6373 66.5212 51.7C66.4585 51.7627 66.4272 51.8567 66.4272 51.982C66.3645 52.0447 66.3332 52.1073 66.3332 52.17V52.264C66.3958 53.5173 66.1765 54.708 65.6752 55.836C65.2365 56.9013 64.9232 57.9353 64.7352 58.938V59.314C64.4218 60.066 63.9832 60.2853 63.4192 59.972C62.9178 59.6587 62.6358 59.0633 62.5732 58.186C62.5105 58.1233 62.4478 58.2173 62.3852 58.468C62.3852 58.7187 62.3538 59.0007 62.2912 59.314C62.2912 59.5647 62.2912 59.8153 62.2912 60.066C62.2912 60.254 62.2912 60.2853 62.2912 60.16C62.2912 60.2227 62.2912 60.1287 62.2912 59.878C62.3538 59.6273 62.3852 59.3453 62.3852 59.032C62.4478 58.7187 62.4792 58.4367 62.4792 58.186C62.5418 57.9353 62.5732 57.81 62.5732 57.81V57.528C62.5732 57.34 62.5732 57.3087 62.5732 57.434C62.6358 57.4967 62.6672 57.622 62.6672 57.81C62.6672 57.9353 62.6358 58.092 62.5732 58.28C62.5732 58.4053 62.5732 58.4367 62.5732 58.374C62.4478 58.374 62.3225 58.562 62.1972 58.938C62.1345 59.2513 62.0718 59.596 62.0092 59.972C61.9465 60.16 61.9152 60.2227 61.9152 60.16C61.9152 60.0973 61.9152 60.0033 61.9152 59.878C61.9152 59.69 61.9152 59.5333 61.9152 59.408C61.9152 59.2827 61.9152 59.2513 61.9152 59.314H61.6332C61.3825 59.8153 61.2258 60.0347 61.1632 59.972C61.1632 59.9093 60.8812 59.8153 60.3172 59.69C60.1918 59.3767 60.1292 59.1573 60.1292 59.032C60.1292 58.9067 60.1292 58.75 60.1292 58.562C60.0665 58.374 60.0038 58.3113 59.9412 58.374C59.8785 58.374 59.8158 58.4367 59.7532 58.562C59.6905 58.6873 59.6278 58.844 59.5652 59.032C59.5025 59.1573 59.4085 59.2513 59.2832 59.314L59.0012 59.784C58.8758 59.972 58.7192 59.9407 58.5312 59.69C58.3432 59.4393 58.2492 59.0007 58.2492 58.374C58.5625 57.4967 58.8758 56.3687 59.1892 54.99C59.5652 53.5487 59.9412 52.1073 60.3172 50.666C60.6932 49.162 61.0692 47.7207 61.4452 46.342C61.8212 44.9633 62.1658 43.8353 62.4792 42.958C62.5418 42.7073 62.5732 42.5193 62.5732 42.394C62.6358 42.206 62.6985 42.018 62.7612 41.83C63.0745 40.8273 63.4192 39.762 63.7952 38.634C64.1712 37.506 64.5158 36.472 64.8292 35.532C65.1425 34.5293 65.3932 33.652 65.5812 32.9C65.8318 32.0853 66.0198 31.5213 66.1452 31.208C66.2705 30.5813 66.4272 29.9233 66.6152 29.234C66.8032 28.5447 66.9285 27.8553 66.9912 27.166C67.1165 26.978 67.1478 26.79 67.0852 26.602C67.0852 26.414 67.1165 26.132 67.1792 25.756C67.8685 23.8133 68.4952 21.8707 69.0592 19.928C69.6858 17.9227 70.3125 15.8547 70.9392 13.724H70.7512L72.9132 6.486C72.9758 6.298 73.0385 6.07867 73.1012 5.828C73.1638 5.57733 73.2892 5.29534 73.4772 4.982C73.5398 4.794 73.6025 4.63733 73.6652 4.512C73.7278 4.38667 73.7592 4.23 73.7592 4.042C73.8845 3.91667 73.9785 3.82267 74.0412 3.76C74.1665 3.63467 74.2918 3.41533 74.4172 3.102V2.914ZM82.0312 38.634C82.0938 38.7593 82.1252 38.916 82.1252 39.104C82.1252 39.2293 82.1252 39.3547 82.1252 39.48C82.1878 39.6053 82.2192 39.7307 82.2192 39.856V40.232C82.3445 40.4827 82.3132 40.7647 82.1252 41.078V41.266C82.1252 41.266 82.0938 41.3287 82.0312 41.454C82.0312 41.5793 82.0312 41.7047 82.0312 41.83C82.0938 41.9553 82.0625 42.112 81.9372 42.3C81.8745 41.8613 81.8432 41.6107 81.8432 41.548C81.8432 41.4227 81.8432 41.3913 81.8432 41.454C81.9058 41.5167 81.9685 41.5793 82.0312 41.642C82.0938 41.642 82.1878 41.5793 82.3132 41.454C82.3758 41.3287 82.3445 41.3913 82.2192 41.642C82.1565 41.83 82.0938 41.9553 82.0312 42.018V42.3C82.0938 42.4253 82.0625 42.582 81.9372 42.77C81.8118 42.958 81.7492 43.1147 81.7492 43.24C81.7492 43.3653 81.6865 43.4593 81.5612 43.522C81.5612 43.6473 81.5298 43.71 81.4672 43.71C81.4045 43.71 81.3732 43.7413 81.3732 43.804C81.2478 43.8667 81.1852 43.9293 81.1852 43.992C81.1852 44.0547 81.1225 44.1487 80.9972 44.274C80.9345 44.274 80.9032 44.3053 80.9032 44.368C80.9032 44.4307 80.8405 44.462 80.7152 44.462C80.7152 44.462 80.7152 44.4933 80.7152 44.556L80.6212 44.932L80.5272 45.026H80.4332C80.3705 45.3393 80.2138 45.6213 79.9632 45.872L79.1172 46.436L78.4592 47.094C78.2085 47.2193 78.0205 47.282 77.8952 47.282C77.7698 47.282 77.6132 47.3447 77.4252 47.47C77.1745 47.5953 76.7672 47.658 76.2032 47.658L76.1092 47.752H75.5452L75.1692 47.658H75.0752H74.8872H74.6992C74.5738 47.658 74.5112 47.6267 74.5112 47.564L74.2292 47.47L73.9472 47.282L73.6652 47.094L73.3832 46.718C73.2578 46.718 73.1952 46.6867 73.1952 46.624V46.53C73.1952 46.4673 73.1325 46.3733 73.0072 46.248L72.9132 46.06H72.7252L72.6312 45.684L72.4432 45.59V45.496V45.308V45.026C72.2552 44.5873 72.1612 44.18 72.1612 43.804C71.9732 42.9267 71.9732 42.1433 72.1612 41.454C72.1612 40.9527 72.2552 40.608 72.4432 40.42C72.4432 40.2947 72.4432 40.138 72.4432 39.95C72.5058 39.762 72.5372 39.6053 72.5372 39.48C72.5372 39.3547 72.5685 39.292 72.6312 39.292C72.6938 39.2293 72.7252 39.1353 72.7252 39.01C72.5998 39.8873 72.3805 40.4513 72.0672 40.702C71.8165 40.89 71.8478 40.8587 72.1612 40.608L72.2552 40.42V40.326C72.2552 40.2633 72.3492 40.138 72.5372 39.95C72.5372 39.8247 72.5685 39.762 72.6312 39.762C72.6938 39.6993 72.7252 39.6053 72.7252 39.48C72.7252 39.48 72.7565 39.4173 72.8192 39.292C72.9445 39.292 73.0072 39.2607 73.0072 39.198V39.104C73.0698 39.104 73.1012 39.0727 73.1012 39.01C73.1012 39.01 73.1325 38.9787 73.1952 38.916V38.728C73.4458 38.352 73.6652 38.0387 73.8532 37.788C73.9785 37.6627 74.1038 37.5373 74.2292 37.412C74.3545 37.2867 74.4798 37.1613 74.6052 37.036L74.7932 36.848C74.9812 36.7227 75.1378 36.6287 75.2632 36.566C75.3885 36.4407 75.5452 36.3467 75.7332 36.284L75.8272 36.096L75.9212 36.002C75.9212 35.9393 75.9525 35.8767 76.0152 35.814H76.1092C76.3598 35.814 76.4852 35.7827 76.4852 35.72C76.6105 35.72 76.7358 35.6887 76.8612 35.626L77.4252 35.438C77.5505 35.438 77.6132 35.438 77.6132 35.438C77.6758 35.3753 77.7698 35.344 77.8952 35.344H77.9892L78.1772 35.25C78.8038 35.1247 79.2112 35.156 79.3992 35.344C79.5872 35.4067 79.6812 35.4693 79.6812 35.532C79.7438 35.5947 79.8065 35.6573 79.8692 35.72C79.9945 35.7827 80.1198 35.8453 80.2452 35.908C80.4332 35.9707 80.6212 36.1273 80.8092 36.378L81.1852 36.66C81.1852 36.7853 81.2165 36.8793 81.2792 36.942C81.3418 36.942 81.4045 37.0047 81.4672 37.13C81.5298 37.2553 81.5612 37.3493 81.5612 37.412C81.6238 37.412 81.6865 37.4747 81.7492 37.6L81.8432 37.976C81.8432 38.164 81.8745 38.258 81.9372 38.258C81.9372 38.3833 81.9372 38.446 81.9372 38.446C81.9998 38.446 82.0312 38.5087 82.0312 38.634ZM78.2712 36.942C77.6445 37.2553 77.2058 37.5687 76.9552 37.882C76.7672 38.1327 76.5165 38.5087 76.2032 39.01C76.0778 39.1353 76.0152 39.2293 76.0152 39.292C75.8898 39.48 75.8272 39.5427 75.8272 39.48C75.8272 39.4173 75.8272 39.3547 75.8272 39.292C75.8898 39.1667 75.9212 39.0727 75.9212 39.01C75.9838 38.9473 75.9838 39.0413 75.9212 39.292L75.8272 39.668C75.8272 39.7307 75.7958 39.762 75.7332 39.762C75.7332 39.762 75.7332 39.8247 75.7332 39.95C75.6078 40.0127 75.5452 40.1067 75.5452 40.232V40.514V40.702C75.5452 40.89 75.5138 41.1093 75.4512 41.36C75.3885 41.548 75.3572 41.736 75.3572 41.924C75.3572 42.1747 75.3572 42.3627 75.3572 42.488C75.4198 42.6133 75.4512 42.77 75.4512 42.958L75.5452 43.146C75.5452 43.3967 75.6078 43.6473 75.7332 43.898L75.8272 44.086V44.18V44.274C75.9525 44.274 76.0152 44.3367 76.0152 44.462H76.2032H76.2972C76.2972 44.5247 76.3285 44.556 76.3912 44.556H76.7672H76.8612L77.0492 44.462C77.2998 44.462 77.4878 44.3993 77.6132 44.274H77.7072C77.8325 44.1487 77.9578 44.086 78.0832 44.086L78.3652 43.71L78.5532 43.428C78.7412 43.428 78.8352 43.334 78.8352 43.146C79.1485 42.8327 79.3678 42.5193 79.4932 42.206C79.6812 41.83 79.9005 41.454 80.1512 41.078C80.2138 40.9527 80.1825 40.9213 80.0572 40.984C79.9318 40.984 79.9318 40.89 80.0572 40.702C80.1198 40.4513 80.1825 40.232 80.2452 40.044C80.3078 39.7933 80.3392 39.6053 80.3392 39.48L80.1512 40.326V39.762V39.292C80.1512 39.1667 80.1825 39.0413 80.2452 38.916C80.3078 38.728 80.2765 38.5713 80.1512 38.446C80.1512 38.3207 80.1198 38.2267 80.0572 38.164V37.694C79.9318 37.5687 79.8378 37.4433 79.7752 37.318H79.6812H79.5872C79.5245 37.318 79.4618 37.2867 79.3992 37.224L79.1172 37.13C78.9918 37.0047 78.8978 36.942 78.8352 36.942L78.6472 36.848L78.2712 36.942Z" fill="url(#paint2_linear_3224_12907)"/>
<path d="M122.857 13.818C122.794 13.9433 122.606 13.6927 122.293 13.066C122.293 13.1913 122.23 13.1287 122.105 12.878C121.979 12.7527 121.885 12.6587 121.823 12.596C121.823 12.4707 121.76 12.3453 121.635 12.22C121.509 12.0947 121.384 11.938 121.259 11.75C121.133 11.562 121.008 11.374 120.883 11.186C120.82 11.0607 120.757 10.998 120.695 10.998C120.632 10.9353 120.569 10.8413 120.507 10.716L120.413 10.434L120.037 10.058C119.911 9.93267 119.817 9.80733 119.755 9.682C119.817 9.80733 119.849 9.93267 119.849 10.058C119.849 10.1833 119.911 10.4027 120.037 10.716C120.225 11.2173 120.287 11.4993 120.225 11.562C120.225 11.6247 120.068 11.562 119.755 11.374C119.629 11.2487 119.535 11.1547 119.473 11.092C119.41 10.9667 119.316 10.8413 119.191 10.716C119.128 10.5907 119.065 10.528 119.003 10.528C119.003 10.4653 118.971 10.3713 118.909 10.246C118.783 10.1207 118.721 10.0267 118.721 9.964H118.627C118.501 10.0893 118.282 9.99533 117.969 9.682C117.843 9.55667 117.687 9.46267 117.499 9.4C117.373 9.27467 117.248 9.14933 117.123 9.024C116.997 8.96134 116.872 8.86734 116.747 8.742C116.621 8.742 116.496 8.67933 116.371 8.554C116.371 8.67933 116.308 8.742 116.183 8.742C116.12 8.742 116.057 8.77333 115.995 8.836C115.995 8.836 115.963 8.836 115.901 8.836C115.775 8.96133 115.619 9.024 115.431 9.024C115.305 8.96134 115.149 8.93 114.961 8.93C114.459 8.93 114.177 8.99267 114.115 9.118C114.052 9.18067 113.989 9.212 113.927 9.212C113.801 9.33733 113.613 9.46267 113.363 9.588C113.237 9.71334 112.861 9.776 112.235 9.776C111.733 9.90134 111.42 9.99533 111.295 10.058C111.107 10.1833 111.013 10.246 111.013 10.246C110.887 10.3087 110.793 10.34 110.731 10.34C110.731 10.34 110.668 10.3713 110.543 10.434C110.417 10.4967 110.292 10.5907 110.167 10.716C110.104 10.7787 109.979 10.8413 109.791 10.904C109.665 11.0293 109.54 11.1233 109.415 11.186C109.352 11.186 109.289 11.2487 109.227 11.374C109.039 11.4993 108.882 11.5933 108.757 11.656C108.694 11.656 108.6 11.7187 108.475 11.844C107.597 12.5333 106.72 13.2227 105.843 13.912C105.028 14.5387 104.213 15.228 103.399 15.98C103.336 16.0427 103.273 16.074 103.211 16.074C103.211 16.074 103.179 16.1053 103.117 16.168C102.991 16.2307 102.866 16.3247 102.741 16.45C102.678 16.5127 102.584 16.6067 102.459 16.732C102.459 16.7947 102.365 16.92 102.177 17.108C102.177 17.1707 102.145 17.202 102.083 17.202C102.083 17.202 102.083 17.2333 102.083 17.296C101.832 17.6093 101.613 17.954 101.425 18.33C101.237 18.706 101.017 19.0507 100.767 19.364C100.14 20.868 99.1999 22.2153 97.9465 23.406C97.3199 23.97 96.8812 24.5653 96.6305 25.192C96.3172 25.6933 96.0665 26.1633 95.8785 26.602C95.6905 27.0407 95.4712 27.5107 95.2205 28.012C94.7192 28.576 94.4372 29.234 94.3745 29.986V30.174C94.2492 30.2993 94.1552 30.4247 94.0925 30.55C94.0925 30.6753 94.0299 30.8007 93.9045 30.926C93.7792 31.2393 93.6539 31.5527 93.5285 31.866C93.4659 32.1167 93.3719 32.3987 93.2465 32.712V32.994C93.1839 33.1193 93.1525 33.2133 93.1525 33.276C93.1525 33.276 93.1212 33.3387 93.0585 33.464C92.9959 33.7773 92.9332 34.0593 92.8705 34.31C92.8079 34.498 92.7139 34.7487 92.5885 35.062C92.5259 35.1873 92.4632 35.3127 92.4005 35.438C92.4005 35.5633 92.3692 35.6887 92.3065 35.814V35.72V35.814H92.4005C92.2752 36.6287 92.1812 37.4433 92.1185 38.258C92.1185 39.01 92.1185 39.7307 92.1185 40.42C92.1185 41.2973 92.1185 42.0807 92.1185 42.77C92.1185 43.4593 92.1812 44.18 92.3065 44.932C92.3065 45.0573 92.3692 45.2453 92.4945 45.496C92.4945 45.5587 92.4945 45.6213 92.4945 45.684C92.5572 45.684 92.5885 45.7153 92.5885 45.778V46.06C92.7139 46.06 92.7765 46.1227 92.7765 46.248L92.9645 46.53C92.9019 46.53 92.9645 46.624 93.1525 46.812C93.5285 47.5013 93.9359 48.0967 94.3745 48.598V48.692C94.3745 48.7547 94.4059 48.8173 94.4685 48.88L94.5625 48.974L94.7505 49.162C94.8132 49.2873 94.8759 49.3813 94.9385 49.444C95.0639 49.5067 95.1892 49.6007 95.3145 49.726C95.4399 49.8513 95.5339 49.9453 95.5965 50.008C95.7219 50.0707 95.8785 50.1647 96.0665 50.29L96.1605 50.384C96.2232 50.384 96.2545 50.4153 96.2545 50.478C96.3172 50.478 96.3799 50.478 96.4425 50.478L96.7245 50.572C97.2885 50.8853 97.8525 51.0733 98.4165 51.136C98.4792 51.0733 98.5419 51.042 98.6045 51.042H98.8865C98.8865 51.1047 98.9179 51.136 98.9805 51.136H99.4505H99.9205L100.203 51.042H100.391H100.673L100.955 50.948H101.049L101.143 50.854L101.707 50.666C101.769 50.666 101.801 50.666 101.801 50.666C101.801 50.6033 101.832 50.572 101.895 50.572C101.957 50.5093 101.989 50.478 101.989 50.478C102.051 50.4153 102.177 50.4153 102.365 50.478H102.647H102.929C102.991 50.478 103.054 50.478 103.117 50.478C103.179 50.4153 103.242 50.384 103.305 50.384H103.399V50.29C103.399 50.29 103.461 50.2587 103.587 50.196C103.649 50.196 103.681 50.196 103.681 50.196C103.743 50.1333 103.806 50.102 103.869 50.102C103.994 50.0393 104.088 49.9767 104.151 49.914C104.213 49.8513 104.307 49.7887 104.433 49.726C104.558 49.6633 104.652 49.6007 104.715 49.538C104.777 49.4753 104.871 49.4127 104.997 49.35C105.059 49.2873 105.091 49.256 105.091 49.256C105.153 49.256 105.216 49.2247 105.279 49.162L105.655 48.974L106.125 48.598C106.563 48.2847 106.971 47.9713 107.347 47.658C107.723 47.3447 108.067 46.9687 108.381 46.53V46.436C108.443 46.3107 108.506 46.248 108.569 46.248C108.631 46.1853 108.694 46.0913 108.757 45.966C109.007 45.7153 109.164 45.5273 109.227 45.402C109.352 45.2767 109.477 45.1827 109.603 45.12C109.728 44.9947 109.853 44.8693 109.979 44.744C110.229 44.368 110.417 44.1173 110.543 43.992L110.637 43.898C110.825 43.71 111.044 43.3653 111.295 42.864C111.295 42.676 111.357 42.5193 111.483 42.394L111.765 41.83C111.89 41.7047 111.953 41.6107 111.953 41.548C112.078 41.2347 112.203 40.9527 112.329 40.702C112.454 40.4513 112.642 40.2007 112.893 39.95C113.081 39.762 113.206 39.6053 113.269 39.48L113.551 38.916C113.739 38.54 113.958 38.2267 114.209 37.976L114.115 37.788C114.303 37.224 114.522 36.6913 114.773 36.19C114.898 36.0647 115.023 35.8453 115.149 35.532C115.274 35.4067 115.337 35.3127 115.337 35.25C115.399 35.1247 115.462 34.9993 115.525 34.874L115.619 34.404C115.619 34.2787 115.681 34.1533 115.807 34.028L115.995 32.806C116.12 32.43 116.245 32.1167 116.371 31.866C116.496 31.3647 116.621 30.9887 116.747 30.738H116.841V30.832C116.841 30.5187 116.966 30.174 117.217 29.798C117.342 29.2967 117.467 29.046 117.593 29.046C117.655 28.9833 117.687 29.2027 117.687 29.704C117.687 29.6413 117.687 29.61 117.687 29.61C117.749 29.5473 117.781 29.4533 117.781 29.328C117.781 29.2653 117.749 29.234 117.687 29.234C117.687 29.1713 117.687 29.1087 117.687 29.046C117.687 28.9207 117.687 28.8267 117.687 28.764C117.749 28.6387 117.781 28.5133 117.781 28.388C117.969 27.824 118.125 27.26 118.251 26.696C118.313 26.508 118.345 26.2573 118.345 25.944C118.345 25.6307 118.439 25.38 118.627 25.192C118.752 24.5653 118.846 24.1267 118.909 23.876C119.034 23.2493 119.097 22.7793 119.097 22.466C119.097 22.3407 119.191 22.1213 119.379 21.808V21.714L119.473 21.62C119.347 20.9933 119.285 20.398 119.285 19.834C119.285 19.27 119.316 18.6747 119.379 18.048V17.954V17.484C119.316 17.296 119.347 17.1393 119.473 17.014C119.598 17.014 119.661 17.1393 119.661 17.39C119.661 17.39 119.692 17.4213 119.755 17.484V17.86C119.817 17.9227 119.849 18.0793 119.849 18.33L119.943 18.518V18.612V18.894V19.082C120.068 18.9567 120.162 18.8313 120.225 18.706C120.35 18.3927 120.538 18.3613 120.789 18.612C120.851 18.6747 120.883 18.8313 120.883 19.082C120.883 19.27 120.851 19.3953 120.789 19.458C120.914 19.458 120.977 19.5833 120.977 19.834C120.977 20.022 121.008 20.1787 121.071 20.304V20.68C121.196 20.68 121.29 20.7113 121.353 20.774L121.447 20.962C121.635 21.0247 121.76 21.2127 121.823 21.526C121.885 21.8393 121.979 22.0273 122.105 22.09C122.167 22.09 122.199 22.1213 122.199 22.184C122.324 22.3093 122.449 22.4347 122.575 22.56C122.7 22.6853 122.7 22.9673 122.575 23.406C122.575 23.782 122.543 24.064 122.481 24.252C122.481 24.3773 122.418 24.6907 122.293 25.192C122.293 25.3173 122.261 25.5053 122.199 25.756C122.199 25.944 122.199 26.132 122.199 26.32C122.136 27.3227 121.885 28.5447 121.447 29.986C121.384 30.0487 121.353 30.1113 121.353 30.174L121.259 30.644L121.165 30.926V31.02C121.227 31.3333 121.259 31.8033 121.259 32.43C121.321 32.806 121.29 33.3073 121.165 33.934C120.977 34.4353 120.757 34.8427 120.507 35.156C120.193 35.532 120.037 35.9393 120.037 36.378C119.911 36.5033 119.786 36.7853 119.661 37.224C119.598 37.3493 119.567 37.506 119.567 37.694C119.567 37.8193 119.535 37.976 119.473 38.164C119.285 38.352 119.128 38.6653 119.003 39.104L119.097 39.292C119.034 39.3547 118.94 39.5113 118.815 39.762C118.752 39.95 118.595 40.2947 118.345 40.796V40.984C118.282 40.984 118.251 41.0153 118.251 41.078V41.266L118.063 41.83C117.937 42.0807 117.812 42.394 117.687 42.77C117.624 43.146 117.467 43.4907 117.217 43.804C117.091 43.9293 116.997 44.086 116.935 44.274C116.872 44.3993 116.778 44.5247 116.653 44.65C116.653 44.7127 116.621 44.744 116.559 44.744C116.559 44.744 116.559 44.7753 116.559 44.838C116.496 44.838 116.465 44.8693 116.465 44.932C116.277 45.2453 116.089 45.5587 115.901 45.872C115.713 46.1853 115.525 46.4673 115.337 46.718C115.211 46.9687 115.055 47.188 114.867 47.376C114.741 47.564 114.616 47.7833 114.491 48.034C114.365 48.1593 114.271 48.2847 114.209 48.41C114.209 48.4727 114.146 48.5667 114.021 48.692C113.833 48.88 113.739 49.0053 113.739 49.068C113.613 49.1933 113.519 49.3187 113.457 49.444C113.394 49.5067 113.331 49.6007 113.269 49.726L113.081 50.008C112.893 50.1333 112.799 50.2273 112.799 50.29C112.736 50.3527 112.673 50.4153 112.611 50.478C112.548 50.478 112.485 50.5093 112.423 50.572C112.36 50.572 112.329 50.6033 112.329 50.666C112.141 50.854 112.015 51.0107 111.953 51.136L111.483 51.606C111.357 51.7313 111.263 51.8253 111.201 51.888C111.201 51.9507 111.138 52.0133 111.013 52.076C111.013 52.264 110.887 52.452 110.637 52.64C110.637 52.64 110.543 52.734 110.355 52.922L110.167 53.11L109.885 53.392L109.321 53.674H109.227C109.227 53.7993 109.195 53.8307 109.133 53.768C109.007 53.8307 108.882 53.8933 108.757 53.956C108.631 54.0187 108.506 54.0813 108.381 54.144H108.287C108.287 54.332 108.193 54.426 108.005 54.426H107.817C107.691 54.5513 107.566 54.614 107.441 54.614C107.315 54.614 107.19 54.6453 107.065 54.708C107.065 54.708 107.033 54.7393 106.971 54.802C106.219 55.366 105.435 55.8047 104.621 56.118C104.558 56.1807 104.433 56.212 104.245 56.212L104.151 56.306L103.869 56.4L103.775 56.494C103.712 56.5567 103.461 56.6507 103.023 56.776H102.459C102.333 56.8387 102.177 56.87 101.989 56.87H101.707C101.456 56.9953 101.237 57.0893 101.049 57.152C100.923 57.2147 100.798 57.2773 100.673 57.34H100.485C99.9832 57.4653 99.6072 57.4653 99.3565 57.34C99.2939 57.2773 99.1999 57.246 99.0745 57.246H98.7925C98.6672 57.246 98.5419 57.2147 98.4165 57.152H98.0405H97.9465C97.7585 57.2147 97.4765 57.1833 97.1005 57.058C97.1005 57.058 97.0692 57.0267 97.0065 56.964H96.6305C96.6305 56.9013 96.5992 56.87 96.5365 56.87C96.4112 56.87 96.3172 56.87 96.2545 56.87C96.2545 56.8073 96.2232 56.776 96.1605 56.776C96.0352 56.7133 95.8472 56.682 95.5965 56.682H95.3145C94.6879 56.5567 94.2805 56.4 94.0925 56.212V56.118C94.0925 56.118 94.1239 56.0867 94.1865 56.024C94.0612 56.024 93.9359 55.9927 93.8105 55.93C93.7479 55.8673 93.6539 55.8047 93.5285 55.742L93.4345 55.554C93.3719 55.4913 93.2779 55.46 93.1525 55.46C93.0899 55.3973 93.0272 55.3033 92.9645 55.178C92.5259 54.8647 91.9932 54.4573 91.3665 53.956C91.3665 53.956 91.3039 53.8933 91.1785 53.768C91.1785 53.768 91.1472 53.7053 91.0845 53.58C90.8965 53.5173 90.8025 53.392 90.8025 53.204L90.2385 52.64C90.1759 52.5147 90.1132 52.4207 90.0505 52.358C89.9879 52.2327 89.9252 52.1073 89.8625 51.982C89.7999 51.8567 89.7372 51.7627 89.6745 51.7C89.6745 51.6373 89.6432 51.5433 89.5805 51.418C89.4552 51.2927 89.3925 51.1987 89.3925 51.136L89.2985 51.042C89.3612 51.042 89.3612 50.8853 89.2985 50.572C89.1732 50.4467 89.0479 50.29 88.9225 50.102C88.8599 49.914 88.7659 49.6633 88.6405 49.35C88.5779 49.0993 88.4525 48.8487 88.2645 48.598C88.2645 48.598 88.2019 48.4727 88.0765 48.222V47.752C87.9512 47.376 87.8572 47.1253 87.7945 47C87.7319 46.8747 87.7005 46.7807 87.7005 46.718C87.7005 46.6553 87.6692 46.5927 87.6065 46.53C87.4812 45.778 87.3559 45.026 87.2305 44.274C87.1052 43.522 87.0112 42.77 86.9485 42.018V41.172C86.9485 40.8587 86.9799 40.6393 87.0425 40.514C86.8545 39.95 86.8859 39.2293 87.1365 38.352C87.2619 37.6627 87.3872 36.9733 87.5125 36.284C87.6379 35.5947 87.7632 34.9053 87.8885 34.216C88.1392 32.3987 88.6405 30.7067 89.3925 29.14C89.7059 28.388 90.0192 27.636 90.3325 26.884C90.6459 26.0693 91.0532 25.286 91.5545 24.534C91.6172 24.4087 91.6799 24.346 91.7425 24.346C91.8052 24.2833 91.8679 24.1893 91.9305 24.064C92.0559 23.876 92.1499 23.7193 92.2125 23.594C92.2752 23.406 92.3692 23.218 92.4945 23.03C92.5572 22.9047 92.6199 22.7793 92.6825 22.654C92.7452 22.5287 92.8079 22.4033 92.8705 22.278C92.9959 22.1527 93.0585 22.0587 93.0585 21.996C93.0585 21.8707 93.1212 21.7453 93.2465 21.62L93.5285 21.244L93.6225 21.056C93.6225 20.9307 93.6539 20.868 93.7165 20.868L93.9985 20.304V20.21C94.5625 19.27 95.2832 18.3613 96.1605 17.484C96.2859 17.3587 96.3799 17.296 96.4425 17.296V17.202C96.7559 16.5127 97.1945 15.886 97.7585 15.322C98.3852 14.6953 98.9805 14.1 99.5445 13.536V13.442C99.6699 13.3167 99.7325 13.1913 99.7325 13.066C99.9205 12.878 100.077 12.69 100.203 12.502C100.391 12.314 100.547 12.1573 100.673 12.032C101.174 11.5933 101.675 11.1547 102.177 10.716C102.678 10.2773 103.148 9.87 103.587 9.494C104.025 9.18067 104.433 8.86733 104.809 8.554C105.185 8.178 105.623 7.92733 106.125 7.802H106.219C107.033 7.17533 107.848 6.64267 108.663 6.204L108.945 6.016H109.133L109.227 5.922C109.415 5.79667 109.571 5.734 109.697 5.734C109.885 5.67133 110.041 5.57733 110.167 5.452C110.48 5.32667 110.762 5.23267 111.013 5.17C111.326 5.10734 111.639 5.076 111.953 5.076C112.767 5.01334 113.457 5.10733 114.021 5.358H114.115C114.177 5.358 114.209 5.38933 114.209 5.452C114.209 5.452 114.24 5.452 114.303 5.452C115.869 5.51467 117.311 6.17267 118.627 7.426C119.253 7.92733 119.817 8.52267 120.319 9.212C120.82 9.83867 121.321 10.528 121.823 11.28V11.374V11.468V11.656C122.011 11.9067 122.23 12.2827 122.481 12.784C122.857 13.348 122.982 13.6927 122.857 13.818ZM115.901 35.062C115.901 35.1873 115.838 35.3127 115.713 35.438C115.838 35.3127 115.932 35.25 115.995 35.25C115.995 34.9993 116.026 34.8113 116.089 34.686C116.151 34.6233 116.183 34.5607 116.183 34.498L115.901 35.062ZM112.705 48.88L112.799 48.786H112.705V48.88ZM105.091 51.324C104.903 51.5747 104.871 51.7 104.997 51.7C105.185 51.6373 105.341 51.5433 105.467 51.418C105.529 51.418 105.686 51.3553 105.937 51.23C105.874 51.1673 105.874 51.042 105.937 50.854C105.561 51.1047 105.279 51.2613 105.091 51.324ZM104.621 53.58C104.495 53.6427 104.37 53.7053 104.245 53.768C104.119 53.768 103.994 53.7993 103.869 53.862C103.931 53.9247 104.057 53.956 104.245 53.956C104.558 54.0187 104.683 54.144 104.621 54.332C104.746 54.2693 104.84 54.2067 104.903 54.144C104.965 54.0813 105.059 54.0187 105.185 53.956C105.373 53.8933 105.529 53.8307 105.655 53.768C105.78 53.6427 105.905 53.58 106.031 53.58C106.219 53.3293 106.125 53.2667 105.749 53.392C105.623 53.392 105.467 53.4233 105.279 53.486C105.153 53.5487 105.028 53.5487 104.903 53.486C104.84 53.486 104.809 53.5173 104.809 53.58C104.809 53.58 104.777 53.58 104.715 53.58H104.621ZM98.4165 51.136V51.23V51.136ZM93.4345 49.256V49.162V49.256Z" fill="url(#paint3_linear_3224_12907)"/>
<path d="M125.091 28.482C125.404 28.1687 125.717 27.9807 126.03 27.918C126.344 27.7927 126.657 27.8867 126.97 28.2V28.012C127.472 27.5733 127.942 27.354 128.38 27.354C128.882 27.354 129.383 27.2913 129.884 27.166C130.511 26.978 131.106 26.8527 131.67 26.79C132.297 26.6647 132.893 26.5393 133.456 26.414C133.645 26.3513 133.801 26.32 133.926 26.32C134.115 26.2573 134.271 26.0693 134.396 25.756H134.49C134.49 25.756 134.553 25.7247 134.678 25.662C134.741 25.474 134.804 25.3173 134.866 25.192C134.929 25.0667 134.992 24.9413 135.054 24.816H134.866C134.929 24.816 134.992 24.7847 135.054 24.722C135.43 23.782 135.806 22.8733 136.182 21.996C136.559 21.056 136.903 20.116 137.216 19.176C137.216 19.1133 137.248 19.082 137.311 19.082C137.373 19.0193 137.342 18.9253 137.216 18.8C136.778 18.5493 136.621 18.236 136.746 17.86C136.872 17.484 137.028 17.0767 137.216 16.638C137.216 16.5127 137.248 16.3873 137.311 16.262C137.436 16.0113 137.561 15.792 137.686 15.604C137.812 15.416 137.843 15.1653 137.78 14.852C137.655 14.5387 137.499 14.382 137.311 14.382C137.185 14.3193 137.06 14.2567 136.934 14.194C136.621 14.1313 136.277 14.1313 135.9 14.194C135.524 14.2567 135.18 14.3193 134.866 14.382C134.553 14.758 134.24 14.9773 133.926 15.04C133.613 15.1027 133.363 14.9773 133.174 14.664C132.924 14.3507 132.83 14.0373 132.892 13.724C132.955 13.4107 133.049 13.0973 133.174 12.784C132.673 12.7213 132.14 12.784 131.576 12.972C131.012 13.16 130.48 12.9093 129.979 12.22C129.916 12.0947 129.884 11.8753 129.884 11.562C130.01 10.998 130.198 10.7473 130.448 10.81C130.511 10.81 130.574 10.8413 130.636 10.904L132.14 10.716C132.14 10.6533 132.109 10.5907 132.046 10.528C132.36 10.152 132.642 9.90134 132.892 9.776C133.206 9.65067 133.519 9.83867 133.832 10.34C133.832 10.2773 133.832 10.246 133.832 10.246C133.895 10.1833 133.926 10.1207 133.926 10.058C134.428 9.494 134.929 9.212 135.43 9.212C135.932 9.212 136.433 9.14933 136.934 9.024C137.498 8.77333 138.062 8.61667 138.626 8.554C139.253 8.49134 139.88 8.39734 140.507 8.272C140.695 8.20933 140.851 8.14667 140.977 8.084C141.165 7.95867 141.29 7.73933 141.352 7.426C141.478 7.05 141.603 6.768 141.729 6.58C141.979 6.204 142.418 5.922 143.044 5.734C143.671 5.546 144.298 5.452 144.924 5.452C145.551 5.38933 146.084 5.42067 146.522 5.546C147.024 5.60867 147.212 5.734 147.086 5.922L147.18 6.016C147.18 6.26667 147.118 6.54867 146.992 6.862C146.867 7.11267 146.898 7.332 147.086 7.52C147.149 7.64533 147.274 7.708 147.462 7.708C147.713 7.64534 147.995 7.58267 148.308 7.52C147.87 7.52 147.838 7.426 148.214 7.238H149.061C149.687 7.11267 150.063 7.05 150.188 7.05C150.502 7.17533 150.972 7.11267 151.598 6.862C151.912 6.73667 152.162 6.83067 152.35 7.144H152.257H152.35C152.476 7.08133 152.632 7.05 152.82 7.05C153.384 7.05 153.949 7.05 154.512 7.05C155.076 6.98733 155.641 6.956 156.204 6.956C156.33 6.956 156.392 6.956 156.392 6.956C156.455 6.89333 156.549 6.862 156.674 6.862C157.301 6.61133 157.896 6.51733 158.46 6.58C159.087 6.64266 159.682 6.73667 160.246 6.862C160.56 6.862 160.873 6.89333 161.186 6.956C161.562 7.01867 161.907 7.20666 162.22 7.52C162.22 7.58267 162.189 7.64534 162.126 7.708H162.22V7.614L162.408 7.238C162.596 7.238 162.753 7.26933 162.878 7.332C162.878 7.20667 162.91 7.11267 162.972 7.05C163.223 6.79933 163.505 6.674 163.818 6.674C164.132 6.54867 164.414 6.54867 164.664 6.674C164.978 6.73667 165.291 6.862 165.604 7.05C165.604 7.11267 165.667 7.144 165.792 7.144C166.043 7.08133 166.482 7.11267 167.108 7.238C167.422 7.238 167.641 7.30067 167.766 7.426C168.017 7.426 168.205 7.39467 168.33 7.332C168.581 7.45733 168.863 7.48867 169.176 7.426C169.49 7.30067 169.772 7.426 170.022 7.802C169.897 7.99 169.709 8.11533 169.458 8.178C169.27 8.24067 169.083 8.30333 168.895 8.366C168.769 8.366 168.613 8.39733 168.424 8.46C168.299 8.52267 168.174 8.49133 168.048 8.366C167.986 8.366 167.892 8.42867 167.766 8.554C167.641 8.61667 167.453 8.648 167.202 8.648C166.764 8.52267 166.356 8.52267 165.98 8.648C165.604 8.77333 165.229 8.80467 164.852 8.742C164.727 8.742 164.696 8.80467 164.758 8.93C164.884 8.99267 164.946 9.08667 164.946 9.212C165.448 9.33733 165.918 9.36867 166.356 9.306C166.858 9.24333 167.359 9.306 167.86 9.494V9.4C167.86 9.4 167.892 9.36867 167.954 9.306L167.296 9.024C167.484 8.89867 167.672 8.86733 167.86 8.93C168.048 8.99267 168.205 9.05534 168.33 9.118C169.145 8.99267 169.96 8.99267 170.774 9.118C171.589 9.24334 172.372 9.36867 173.124 9.494C173.375 9.494 173.563 9.52533 173.688 9.588C173.939 9.46267 174.158 9.43133 174.346 9.494C174.535 9.55667 174.722 9.65067 174.91 9.776C175.224 9.71333 175.506 9.682 175.757 9.682C176.007 9.61933 176.289 9.588 176.602 9.588C176.728 9.588 176.916 9.65067 177.167 9.776C177.292 9.46267 177.448 9.306 177.636 9.306C177.887 9.306 178.106 9.33734 178.294 9.4C178.858 9.46267 179.391 9.52533 179.893 9.588C180.456 9.65067 180.989 9.776 181.49 9.964C181.616 10.0267 181.71 10.058 181.772 10.058C181.898 9.99533 181.992 9.99533 182.054 10.058C182.493 10.1833 182.712 10.4653 182.712 10.904C182.587 11.1547 182.43 11.3113 182.242 11.374C182.117 11.374 181.992 11.4053 181.866 11.468L180.926 11.186C180.237 11.3113 179.579 11.374 178.952 11.374C178.326 11.3113 177.668 11.2487 176.979 11.186C176.728 11.374 176.32 11.4053 175.757 11.28C175.443 11.5933 175.193 11.5933 175.005 11.28V11.186H174.91C174.722 11.186 174.535 11.1547 174.346 11.092C174.221 11.0293 174.064 11.0607 173.876 11.186H173.218C172.968 11.0607 172.623 11.0607 172.184 11.186H171.902L171.432 10.998V11.186L170.398 11.374H169.365C168.675 11.4993 167.954 11.4993 167.202 11.374C167.014 11.4993 166.826 11.4993 166.638 11.374C166.638 11.374 166.607 11.4053 166.544 11.468L166.356 11.844C166.419 11.844 166.451 11.8753 166.451 11.938C166.451 11.938 166.513 11.938 166.638 11.938L168.048 12.408L168.143 12.502C168.143 12.7527 168.048 12.9093 167.86 12.972V13.066C167.61 13.066 167.359 13.066 167.108 13.066C166.858 13.0033 166.607 12.972 166.356 12.972H165.134L165.04 13.066C164.915 13.1913 164.79 13.254 164.664 13.254C164.602 13.1913 164.508 13.16 164.382 13.16C163.818 13.16 163.443 13.066 163.255 12.878H163.16C162.659 13.066 162.189 13.1287 161.75 13.066C161.312 12.9407 160.873 12.9407 160.434 13.066C159.996 13.0033 159.557 13.0033 159.118 13.066C158.742 13.1287 158.335 13.2227 157.896 13.348C157.708 13.348 157.614 13.2227 157.614 12.972C157.489 12.784 157.333 12.7213 157.145 12.784C156.956 12.784 156.8 12.7213 156.674 12.596C156.048 12.6587 155.39 12.7527 154.701 12.878C154.074 12.9407 153.447 13.0347 152.82 13.16C153.071 13.16 153.259 13.1913 153.384 13.254C153.51 13.254 153.604 13.254 153.666 13.254C153.353 13.3793 153.008 13.442 152.632 13.442C152.256 13.3793 151.912 13.348 151.598 13.348C151.097 13.4733 150.564 13.5673 150 13.63C149.436 13.6927 148.904 13.7553 148.402 13.818C147.901 13.8807 147.4 13.9433 146.898 14.006C146.46 14.006 145.99 14.0687 145.488 14.194C145.363 14.194 145.269 14.1313 145.206 14.006V13.912C145.018 14.3507 144.83 14.758 144.642 15.134C144.454 15.51 144.329 15.9173 144.266 16.356C144.204 16.8573 144.047 17.296 143.796 17.672C143.608 17.9853 143.421 18.2987 143.232 18.612L142.951 19.27V19.552C142.825 20.304 142.574 20.9933 142.198 21.62C141.885 22.184 141.572 22.7793 141.258 23.406C141.258 23.6567 141.227 23.8447 141.164 23.97C141.415 23.8447 141.697 23.782 142.01 23.782C142.01 23.8447 141.948 23.9387 141.822 24.064C141.885 24.3147 141.854 24.5653 141.729 24.816C141.603 25.0667 141.634 25.2547 141.822 25.38C142.01 25.5053 142.23 25.5367 142.48 25.474C142.731 25.3487 142.95 25.3487 143.138 25.474C143.264 25.474 143.295 25.5053 143.232 25.568C143.17 25.568 143.076 25.568 142.951 25.568C142.888 25.568 142.794 25.568 142.668 25.568C142.606 25.5053 142.637 25.4427 142.762 25.38C143.139 25.38 143.389 25.474 143.514 25.662C143.953 25.5993 144.173 25.568 144.173 25.568C144.173 25.568 144.141 25.5993 144.078 25.662C144.016 25.662 143.984 25.662 143.984 25.662C144.047 25.662 144.298 25.6307 144.736 25.568C145.238 25.5053 145.864 25.474 146.616 25.474C147.431 25.4113 147.995 25.4113 148.308 25.474C148.308 25.662 148.402 25.7873 148.59 25.85C148.841 25.9127 148.935 26.038 148.872 26.226C148.872 26.602 148.966 26.884 149.154 27.072C149.342 27.26 149.53 27.448 149.718 27.636C149.969 27.7613 150.188 27.918 150.376 28.106C150.564 28.294 150.627 28.5447 150.564 28.858C149.875 28.9833 149.311 29.1713 148.872 29.422C148.434 29.61 147.87 29.6413 147.18 29.516C146.992 29.3907 146.804 29.3907 146.616 29.516C146.491 29.5787 146.335 29.7353 146.146 29.986C145.958 30.174 145.77 30.3933 145.582 30.644C145.457 30.832 145.3 30.9573 145.112 31.02C144.736 31.0827 144.486 31.114 144.36 31.114C144.235 31.0513 144.11 31.02 143.984 31.02C143.922 30.9573 143.828 30.926 143.702 30.926C143.577 30.926 143.327 30.9887 142.951 31.114C142.261 31.2393 141.572 31.3333 140.882 31.396C140.193 31.396 139.504 31.5213 138.814 31.772C138.752 31.772 138.689 31.772 138.626 31.772C138.626 31.7093 138.595 31.678 138.532 31.678L137.874 32.994C137.561 33.8087 137.248 34.7173 136.934 35.72C136.809 36.2213 136.652 36.754 136.464 37.318C136.276 37.8193 136.12 38.352 135.994 38.916C135.932 39.1667 135.9 39.4173 135.9 39.668C135.9 39.856 135.838 40.0753 135.712 40.326L135.43 40.89C135.18 41.454 135.023 41.7673 134.96 41.83C134.898 41.83 134.866 41.7987 134.866 41.736C134.866 41.6107 134.835 41.5793 134.772 41.642C134.71 41.642 134.585 41.9553 134.396 42.582C134.208 43.0833 133.989 43.5847 133.738 44.086C133.55 44.5247 133.425 45.0573 133.362 45.684C133.237 45.9347 133.174 46.1853 133.174 46.436C133.174 46.6867 133.143 46.906 133.08 47.094C132.955 47.3447 132.861 47.5953 132.798 47.846C132.736 48.0967 132.642 48.316 132.516 48.504C132.516 48.5667 132.454 48.6607 132.328 48.786C132.328 48.8487 132.297 48.9113 132.234 48.974C132.234 48.974 132.234 49.0053 132.234 49.068C132.234 49.444 132.141 49.7887 131.952 50.102C131.827 50.3527 131.702 50.6347 131.576 50.948C131.576 51.0733 131.545 51.1987 131.482 51.324C131.482 51.3867 131.514 51.4807 131.576 51.606C131.576 51.6687 131.514 51.8253 131.388 52.076C131.388 52.2013 131.357 52.2953 131.294 52.358C131.232 53.0473 131.106 53.674 130.918 54.238C130.73 54.802 130.574 55.3973 130.448 56.024L130.26 56.212C130.26 56.588 130.229 56.8387 130.166 56.964C130.104 57.0893 130.041 57.2147 129.979 57.34C129.916 57.4027 129.822 57.4967 129.696 57.622C129.634 57.6847 129.571 57.8727 129.508 58.186L129.32 59.314V60.348C129.258 60.6613 129.195 61.006 129.132 61.382C129.07 61.6953 128.945 61.9147 128.757 62.04C128.318 62.1653 128.098 61.946 128.098 61.382C127.973 61.0687 127.942 60.7553 128.004 60.442C128.067 60.1287 128.067 59.784 128.004 59.408C128.004 59.2827 128.004 59.1887 128.004 59.126C128.067 59.0633 128.098 58.9693 128.098 58.844C128.098 58.844 128.161 58.8127 128.286 58.75C128.6 59.5647 128.568 60.3793 128.192 61.194C128.318 61.194 128.412 61.1627 128.474 61.1C128.537 61.0373 128.631 60.9747 128.757 60.912C128.631 60.7867 128.568 60.63 128.568 60.442C128.568 60.3167 128.568 60.1913 128.568 60.066C128.631 59.878 128.662 59.7213 128.662 59.596C128.662 59.2827 128.662 59.0007 128.662 58.75C128.662 58.4367 128.694 58.1233 128.757 57.81C128.694 57.3087 128.694 56.8387 128.757 56.4C128.819 55.9613 128.882 55.4913 128.944 54.99V54.802C128.944 54.4887 128.882 54.3007 128.757 54.238C128.631 54.1753 128.537 54.238 128.474 54.426C128.474 54.614 128.412 54.7707 128.286 54.896C128.286 55.5853 128.161 56.024 127.91 56.212H127.722C127.722 56.6507 127.691 56.9013 127.629 56.964C127.629 56.964 127.597 56.9327 127.535 56.87C127.472 56.7447 127.347 56.588 127.159 56.4C127.033 56.212 126.877 56.118 126.688 56.118V56.024C126.563 55.8987 126.5 55.6793 126.5 55.366C126.375 55.1153 126.281 55.178 126.218 55.554C126.156 55.93 125.999 56.1493 125.748 56.212C125.686 56.212 125.655 56.2747 125.655 56.4C125.341 56.7133 125.153 56.7447 125.091 56.494C125.028 56.1807 125.028 55.8673 125.091 55.554C125.153 54.5513 125.247 53.5487 125.373 52.546C125.561 51.5433 125.811 50.6033 126.125 49.726C126.125 49.538 126.187 49.3187 126.313 49.068C126.313 49.068 126.344 49.0053 126.407 48.88C126.595 47.8147 126.751 47.0627 126.877 46.624C127.002 46.1853 127.096 45.8407 127.159 45.59C127.284 45.2767 127.44 44.932 127.629 44.556C127.817 44.1173 128.067 43.3967 128.38 42.394C128.506 42.0807 128.6 41.736 128.662 41.36C128.788 40.9213 128.882 40.514 128.944 40.138C129.07 39.6993 129.132 39.48 129.132 39.48C129.571 38.2893 130.01 37.13 130.448 36.002C130.887 34.874 131.326 33.6833 131.764 32.43L131.106 32.618C131.106 32.43 131.075 32.3047 131.012 32.242C130.95 31.9287 130.824 31.772 130.636 31.772C130.448 31.772 130.26 31.772 130.072 31.772C129.759 31.7093 129.415 31.7093 129.038 31.772C128.725 31.772 128.412 31.8033 128.098 31.866C127.534 32.4927 126.971 32.5867 126.407 32.148C125.968 31.772 125.968 31.1767 126.407 30.362C125.842 30.2993 125.279 30.362 124.715 30.55C124.15 30.738 123.618 30.55 123.117 29.986C123.054 29.8607 123.022 29.6413 123.022 29.328C123.085 29.14 123.117 28.9833 123.117 28.858C123.179 28.67 123.336 28.6073 123.587 28.67C123.587 28.67 123.649 28.7013 123.774 28.764L125.091 28.576V28.482ZM152.068 7.238C152.131 7.238 152.194 7.20667 152.257 7.144C152.006 7.144 151.786 7.17534 151.598 7.238H151.974H152.068ZM128.944 55.93C128.944 56.0553 128.913 56.1493 128.85 56.212C128.85 56.2747 128.882 56.3687 128.944 56.494V55.93ZM153.479 12.502C153.604 12.4393 153.604 12.408 153.479 12.408V12.502ZM126.97 56.024H126.877V56.118L126.97 56.024Z" fill="url(#paint4_linear_3224_12907)"/>
<path d="M143.725 28.482C144.039 28.1687 144.352 27.9807 144.665 27.918C144.979 27.7927 145.292 27.8867 145.605 28.2V28.012C146.107 27.5733 146.577 27.354 147.015 27.354C147.517 27.354 148.018 27.2913 148.519 27.166C149.146 26.978 149.741 26.8527 150.305 26.79C150.932 26.6647 151.527 26.5393 152.091 26.414C152.279 26.3513 152.436 26.32 152.561 26.32C152.749 26.2573 152.906 26.0693 153.031 25.756H153.125C153.125 25.756 153.188 25.7247 153.313 25.662C153.376 25.474 153.439 25.3173 153.501 25.192C153.564 25.0667 153.627 24.9413 153.689 24.816H153.501C153.564 24.816 153.627 24.7847 153.689 24.722C154.065 23.782 154.441 22.8733 154.817 21.996C155.193 21.056 155.538 20.116 155.851 19.176C155.851 19.1133 155.883 19.082 155.945 19.082C156.008 19.0193 155.977 18.9253 155.851 18.8C155.413 18.5493 155.256 18.236 155.381 17.86C155.507 17.484 155.663 17.0767 155.851 16.638C155.851 16.5127 155.883 16.3873 155.945 16.262C156.071 16.0113 156.196 15.792 156.321 15.604C156.447 15.416 156.478 15.1653 156.415 14.852C156.29 14.5387 156.133 14.382 155.945 14.382C155.82 14.3193 155.695 14.2567 155.569 14.194C155.256 14.1313 154.911 14.1313 154.535 14.194C154.159 14.2567 153.815 14.3193 153.501 14.382C153.188 14.758 152.875 14.9773 152.561 15.04C152.248 15.1027 151.997 14.9773 151.809 14.664C151.559 14.3507 151.465 14.0373 151.527 13.724C151.59 13.4107 151.684 13.0973 151.809 12.784C151.308 12.7213 150.775 12.784 150.211 12.972C149.647 13.16 149.115 12.9093 148.613 12.22C148.551 12.0947 148.519 11.8753 148.519 11.562C148.645 10.998 148.833 10.7473 149.083 10.81C149.146 10.81 149.209 10.8413 149.271 10.904L150.775 10.716C150.775 10.6533 150.744 10.5907 150.681 10.528C150.995 10.152 151.277 9.90134 151.527 9.776C151.841 9.65067 152.154 9.83867 152.467 10.34C152.467 10.2773 152.467 10.246 152.467 10.246C152.53 10.1833 152.561 10.1207 152.561 10.058C153.063 9.494 153.564 9.212 154.065 9.212C154.567 9.212 155.068 9.14933 155.569 9.024C156.133 8.77333 156.697 8.61667 157.261 8.554C157.888 8.49134 158.515 8.39734 159.141 8.272C159.329 8.20933 159.486 8.14667 159.611 8.084C159.799 7.95867 159.925 7.73933 159.987 7.426C160.113 7.05 160.238 6.768 160.363 6.58C160.614 6.204 161.053 5.922 161.679 5.734C162.306 5.546 162.933 5.452 163.559 5.452C164.186 5.38933 164.719 5.42067 165.157 5.546C165.659 5.60867 165.847 5.734 165.721 5.922L165.815 6.016C165.815 6.26667 165.753 6.54867 165.627 6.862C165.502 7.11267 165.533 7.332 165.721 7.52C165.784 7.64533 165.909 7.708 166.097 7.708C166.348 7.64534 166.63 7.58267 166.943 7.52C166.505 7.52 166.473 7.426 166.849 7.238H167.695C168.322 7.11267 168.698 7.05 168.823 7.05C169.137 7.17533 169.607 7.11267 170.233 6.862C170.547 6.73667 170.797 6.83067 170.985 7.144H170.891H170.985C171.111 7.08133 171.267 7.05 171.455 7.05C172.019 7.05 172.583 7.05 173.147 7.05C173.711 6.98733 174.275 6.956 174.839 6.956C174.965 6.956 175.027 6.956 175.027 6.956C175.09 6.89333 175.184 6.862 175.309 6.862C175.936 6.61133 176.531 6.51733 177.095 6.58C177.722 6.64266 178.317 6.73667 178.881 6.862C179.195 6.862 179.508 6.89333 179.821 6.956C180.197 7.01867 180.542 7.20666 180.855 7.52C180.855 7.58267 180.824 7.64534 180.761 7.708H180.855V7.614L181.043 7.238C181.231 7.238 181.388 7.26933 181.513 7.332C181.513 7.20667 181.545 7.11267 181.607 7.05C181.858 6.79933 182.14 6.674 182.453 6.674C182.767 6.54867 183.049 6.54867 183.299 6.674C183.613 6.73667 183.926 6.862 184.239 7.05C184.239 7.11267 184.302 7.144 184.427 7.144C184.678 7.08133 185.117 7.11267 185.743 7.238C186.057 7.238 186.276 7.30067 186.401 7.426C186.652 7.426 186.84 7.39467 186.965 7.332C187.216 7.45733 187.498 7.48867 187.811 7.426C188.125 7.30067 188.407 7.426 188.657 7.802C188.532 7.99 188.344 8.11533 188.093 8.178C187.905 8.24067 187.717 8.30333 187.529 8.366C187.404 8.366 187.247 8.39733 187.059 8.46C186.934 8.52267 186.809 8.49133 186.683 8.366C186.621 8.366 186.527 8.42867 186.401 8.554C186.276 8.61667 186.088 8.648 185.837 8.648C185.399 8.52267 184.991 8.52267 184.615 8.648C184.239 8.77333 183.863 8.80467 183.487 8.742C183.362 8.742 183.331 8.80467 183.393 8.93C183.519 8.99267 183.581 9.08667 183.581 9.212C184.083 9.33733 184.553 9.36867 184.991 9.306C185.493 9.24333 185.994 9.306 186.495 9.494V9.4C186.495 9.4 186.527 9.36867 186.589 9.306L185.931 9.024C186.119 8.89867 186.307 8.86733 186.495 8.93C186.683 8.99267 186.84 9.05534 186.965 9.118C187.78 8.99267 188.595 8.99267 189.409 9.118C190.224 9.24334 191.007 9.36867 191.759 9.494C192.01 9.494 192.198 9.52533 192.323 9.588C192.574 9.46267 192.793 9.43133 192.981 9.494C193.169 9.55667 193.357 9.65067 193.545 9.776C193.859 9.71333 194.141 9.682 194.391 9.682C194.642 9.61933 194.924 9.588 195.237 9.588C195.363 9.588 195.551 9.65067 195.801 9.776C195.927 9.46267 196.083 9.306 196.271 9.306C196.522 9.306 196.741 9.33734 196.929 9.4C197.493 9.46267 198.026 9.52533 198.527 9.588C199.091 9.65067 199.624 9.776 200.125 9.964C200.251 10.0267 200.345 10.058 200.407 10.058C200.533 9.99533 200.627 9.99533 200.689 10.058C201.128 10.1833 201.347 10.4653 201.347 10.904C201.222 11.1547 201.065 11.3113 200.877 11.374C200.752 11.374 200.627 11.4053 200.501 11.468L199.561 11.186C198.872 11.3113 198.214 11.374 197.587 11.374C196.961 11.3113 196.303 11.2487 195.613 11.186C195.363 11.374 194.955 11.4053 194.391 11.28C194.078 11.5933 193.827 11.5933 193.639 11.28V11.186H193.545C193.357 11.186 193.169 11.1547 192.981 11.092C192.856 11.0293 192.699 11.0607 192.511 11.186H191.853C191.603 11.0607 191.258 11.0607 190.819 11.186H190.537L190.067 10.998V11.186L189.033 11.374H187.999C187.31 11.4993 186.589 11.4993 185.837 11.374C185.649 11.4993 185.461 11.4993 185.273 11.374C185.273 11.374 185.242 11.4053 185.179 11.468L184.991 11.844C185.054 11.844 185.085 11.8753 185.085 11.938C185.085 11.938 185.148 11.938 185.273 11.938L186.683 12.408L186.777 12.502C186.777 12.7527 186.683 12.9093 186.495 12.972V13.066C186.245 13.066 185.994 13.066 185.743 13.066C185.493 13.0033 185.242 12.972 184.991 12.972H183.769L183.675 13.066C183.55 13.1913 183.425 13.254 183.299 13.254C183.237 13.1913 183.143 13.16 183.017 13.16C182.453 13.16 182.077 13.066 181.889 12.878H181.795C181.294 13.066 180.824 13.1287 180.385 13.066C179.947 12.9407 179.508 12.9407 179.069 13.066C178.631 13.0033 178.192 13.0033 177.753 13.066C177.377 13.1287 176.97 13.2227 176.531 13.348C176.343 13.348 176.249 13.2227 176.249 12.972C176.124 12.784 175.967 12.7213 175.779 12.784C175.591 12.784 175.435 12.7213 175.309 12.596C174.683 12.6587 174.025 12.7527 173.335 12.878C172.709 12.9407 172.082 13.0347 171.455 13.16C171.706 13.16 171.894 13.1913 172.019 13.254C172.145 13.254 172.239 13.254 172.301 13.254C171.988 13.3793 171.643 13.442 171.267 13.442C170.891 13.3793 170.547 13.348 170.233 13.348C169.732 13.4733 169.199 13.5673 168.635 13.63C168.071 13.6927 167.539 13.7553 167.037 13.818C166.536 13.8807 166.035 13.9433 165.533 14.006C165.095 14.006 164.625 14.0687 164.123 14.194C163.998 14.194 163.904 14.1313 163.841 14.006V13.912C163.653 14.3507 163.465 14.758 163.277 15.134C163.089 15.51 162.964 15.9173 162.901 16.356C162.839 16.8573 162.682 17.296 162.431 17.672C162.243 17.9853 162.055 18.2987 161.867 18.612L161.585 19.27V19.552C161.46 20.304 161.209 20.9933 160.833 21.62C160.52 22.184 160.207 22.7793 159.893 23.406C159.893 23.6567 159.862 23.8447 159.799 23.97C160.05 23.8447 160.332 23.782 160.645 23.782C160.645 23.8447 160.583 23.9387 160.457 24.064C160.52 24.3147 160.489 24.5653 160.363 24.816C160.238 25.0667 160.269 25.2547 160.457 25.38C160.645 25.5053 160.865 25.5367 161.115 25.474C161.366 25.3487 161.585 25.3487 161.773 25.474C161.899 25.474 161.93 25.5053 161.867 25.568C161.805 25.568 161.711 25.568 161.585 25.568C161.523 25.568 161.429 25.568 161.303 25.568C161.241 25.5053 161.272 25.4427 161.397 25.38C161.773 25.38 162.024 25.474 162.149 25.662C162.588 25.5993 162.807 25.568 162.807 25.568C162.807 25.568 162.776 25.5993 162.713 25.662C162.651 25.662 162.619 25.662 162.619 25.662C162.682 25.662 162.933 25.6307 163.371 25.568C163.873 25.5053 164.499 25.474 165.251 25.474C166.066 25.4113 166.63 25.4113 166.943 25.474C166.943 25.662 167.037 25.7873 167.225 25.85C167.476 25.9127 167.57 26.038 167.507 26.226C167.507 26.602 167.601 26.884 167.789 27.072C167.977 27.26 168.165 27.448 168.353 27.636C168.604 27.7613 168.823 27.918 169.011 28.106C169.199 28.294 169.262 28.5447 169.199 28.858C168.51 28.9833 167.946 29.1713 167.507 29.422C167.069 29.61 166.505 29.6413 165.815 29.516C165.627 29.3907 165.439 29.3907 165.251 29.516C165.126 29.5787 164.969 29.7353 164.781 29.986C164.593 30.174 164.405 30.3933 164.217 30.644C164.092 30.832 163.935 30.9573 163.747 31.02C163.371 31.0827 163.121 31.114 162.995 31.114C162.87 31.0513 162.745 31.02 162.619 31.02C162.557 30.9573 162.463 30.926 162.337 30.926C162.212 30.926 161.961 30.9887 161.585 31.114C160.896 31.2393 160.207 31.3333 159.517 31.396C158.828 31.396 158.139 31.5213 157.449 31.772C157.387 31.772 157.324 31.772 157.261 31.772C157.261 31.7093 157.23 31.678 157.167 31.678L156.509 32.994C156.196 33.8087 155.883 34.7173 155.569 35.72C155.444 36.2213 155.287 36.754 155.099 37.318C154.911 37.8193 154.755 38.352 154.629 38.916C154.567 39.1667 154.535 39.4173 154.535 39.668C154.535 39.856 154.473 40.0753 154.347 40.326L154.065 40.89C153.815 41.454 153.658 41.7673 153.595 41.83C153.533 41.83 153.501 41.7987 153.501 41.736C153.501 41.6107 153.47 41.5793 153.407 41.642C153.345 41.642 153.219 41.9553 153.031 42.582C152.843 43.0833 152.624 43.5847 152.373 44.086C152.185 44.5247 152.06 45.0573 151.997 45.684C151.872 45.9347 151.809 46.1853 151.809 46.436C151.809 46.6867 151.778 46.906 151.715 47.094C151.59 47.3447 151.496 47.5953 151.433 47.846C151.371 48.0967 151.277 48.316 151.151 48.504C151.151 48.5667 151.089 48.6607 150.963 48.786C150.963 48.8487 150.932 48.9113 150.869 48.974C150.869 48.974 150.869 49.0053 150.869 49.068C150.869 49.444 150.775 49.7887 150.587 50.102C150.462 50.3527 150.337 50.6347 150.211 50.948C150.211 51.0733 150.18 51.1987 150.117 51.324C150.117 51.3867 150.149 51.4807 150.211 51.606C150.211 51.6687 150.149 51.8253 150.023 52.076C150.023 52.2013 149.992 52.2953 149.929 52.358C149.867 53.0473 149.741 53.674 149.553 54.238C149.365 54.802 149.209 55.3973 149.083 56.024L148.895 56.212C148.895 56.588 148.864 56.8387 148.801 56.964C148.739 57.0893 148.676 57.2147 148.613 57.34C148.551 57.4027 148.457 57.4967 148.331 57.622C148.269 57.6847 148.206 57.8727 148.143 58.186L147.955 59.314V60.348C147.893 60.6613 147.83 61.006 147.767 61.382C147.705 61.6953 147.579 61.9147 147.391 62.04C146.953 62.1653 146.733 61.946 146.733 61.382C146.608 61.0687 146.577 60.7553 146.639 60.442C146.702 60.1287 146.702 59.784 146.639 59.408C146.639 59.2827 146.639 59.1887 146.639 59.126C146.702 59.0633 146.733 58.9693 146.733 58.844C146.733 58.844 146.796 58.8127 146.921 58.75C147.235 59.5647 147.203 60.3793 146.827 61.194C146.953 61.194 147.047 61.1627 147.109 61.1C147.172 61.0373 147.266 60.9747 147.391 60.912C147.266 60.7867 147.203 60.63 147.203 60.442C147.203 60.3167 147.203 60.1913 147.203 60.066C147.266 59.878 147.297 59.7213 147.297 59.596C147.297 59.2827 147.297 59.0007 147.297 58.75C147.297 58.4367 147.329 58.1233 147.391 57.81C147.329 57.3087 147.329 56.8387 147.391 56.4C147.454 55.9613 147.517 55.4913 147.579 54.99V54.802C147.579 54.4887 147.517 54.3007 147.391 54.238C147.266 54.1753 147.172 54.238 147.109 54.426C147.109 54.614 147.047 54.7707 146.921 54.896C146.921 55.5853 146.796 56.024 146.545 56.212H146.357C146.357 56.6507 146.326 56.9013 146.263 56.964C146.263 56.964 146.232 56.9327 146.169 56.87C146.107 56.7447 145.981 56.588 145.793 56.4C145.668 56.212 145.511 56.118 145.323 56.118V56.024C145.198 55.8987 145.135 55.6793 145.135 55.366C145.01 55.1153 144.916 55.178 144.853 55.554C144.791 55.93 144.634 56.1493 144.383 56.212C144.321 56.212 144.289 56.2747 144.289 56.4C143.976 56.7133 143.788 56.7447 143.725 56.494C143.663 56.1807 143.663 55.8673 143.725 55.554C143.788 54.5513 143.882 53.5487 144.007 52.546C144.195 51.5433 144.446 50.6033 144.759 49.726C144.759 49.538 144.822 49.3187 144.947 49.068C144.947 49.068 144.979 49.0053 145.041 48.88C145.229 47.8147 145.386 47.0627 145.511 46.624C145.637 46.1853 145.731 45.8407 145.793 45.59C145.919 45.2767 146.075 44.932 146.263 44.556C146.451 44.1173 146.702 43.3967 147.015 42.394C147.141 42.0807 147.235 41.736 147.297 41.36C147.423 40.9213 147.517 40.514 147.579 40.138C147.705 39.6993 147.767 39.48 147.767 39.48C148.206 38.2893 148.645 37.13 149.083 36.002C149.522 34.874 149.961 33.6833 150.399 32.43L149.741 32.618C149.741 32.43 149.71 32.3047 149.647 32.242C149.585 31.9287 149.459 31.772 149.271 31.772C149.083 31.772 148.895 31.772 148.707 31.772C148.394 31.7093 148.049 31.7093 147.673 31.772C147.36 31.772 147.047 31.8033 146.733 31.866C146.169 32.4927 145.605 32.5867 145.041 32.148C144.603 31.772 144.603 31.1767 145.041 30.362C144.477 30.2993 143.913 30.362 143.349 30.55C142.785 30.738 142.253 30.55 141.751 29.986C141.689 29.8607 141.657 29.6413 141.657 29.328C141.72 29.14 141.751 28.9833 141.751 28.858C141.814 28.67 141.971 28.6073 142.221 28.67C142.221 28.67 142.284 28.7013 142.409 28.764L143.725 28.576V28.482ZM170.703 7.238C170.766 7.238 170.829 7.20667 170.891 7.144C170.641 7.144 170.421 7.17534 170.233 7.238H170.609H170.703ZM147.579 55.93C147.579 56.0553 147.548 56.1493 147.485 56.212C147.485 56.2747 147.517 56.3687 147.579 56.494V55.93ZM172.113 12.502C172.239 12.4393 172.239 12.408 172.113 12.408V12.502ZM145.605 56.024H145.511V56.118L145.605 56.024Z" fill="url(#paint5_linear_3224_12907)"/>
<defs>
<linearGradient id="paint0_linear_3224_12907" x1="40.249" y1="-9.85354" x2="54.7008" y2="36.6049" gradientUnits="userSpaceOnUse">
<stop stop-color="#FF4040"/>
<stop offset="0.447917" stop-color="#FF6363"/>
<stop offset="0.80405" stop-color="#FF9417"/>
</linearGradient>
<linearGradient id="paint1_linear_3224_12907" x1="40.249" y1="-9.85354" x2="54.7008" y2="36.6049" gradientUnits="userSpaceOnUse">
<stop stop-color="#FF4040"/>
<stop offset="0.447917" stop-color="#FF6363"/>
<stop offset="0.80405" stop-color="#FF9417"/>
</linearGradient>
<linearGradient id="paint2_linear_3224_12907" x1="40.249" y1="-9.85354" x2="54.7008" y2="36.6049" gradientUnits="userSpaceOnUse">
<stop stop-color="#FF4040"/>
<stop offset="0.447917" stop-color="#FF6363"/>
<stop offset="0.80405" stop-color="#FF9417"/>
</linearGradient>
<linearGradient id="paint3_linear_3224_12907" x1="40.249" y1="-9.85354" x2="54.7008" y2="36.6049" gradientUnits="userSpaceOnUse">
<stop stop-color="#FF4040"/>
<stop offset="0.447917" stop-color="#FF6363"/>
<stop offset="0.80405" stop-color="#FF9417"/>
</linearGradient>
<linearGradient id="paint4_linear_3224_12907" x1="40.249" y1="-9.85354" x2="54.7008" y2="36.6049" gradientUnits="userSpaceOnUse">
<stop stop-color="#FF4040"/>
<stop offset="0.447917" stop-color="#FF6363"/>
<stop offset="0.80405" stop-color="#FF9417"/>
</linearGradient>
<linearGradient id="paint5_linear_3224_12907" x1="40.249" y1="-9.85354" x2="54.7008" y2="36.6049" gradientUnits="userSpaceOnUse">
<stop stop-color="#FF4040"/>
<stop offset="0.447917" stop-color="#FF6363"/>
<stop offset="0.80405" stop-color="#FF9417"/>
</linearGradient>
</defs>
</svg>
