<!--{
  "category": "Editor"
}-->
<svg width="16" height="16" fill="none" xmlns="http://www.w3.org/2000/svg"><path fill-rule="evenodd" clip-rule="evenodd" d="M3.94.98a.5.5 0 1 0-.31-.95c-.9.3-1.64.6-2.2 1.14-.58.55-.91 1.28-1.1 2.3A25.72 25.72 0 0 0 0 8.34v4.17a1402.78 1402.78 0 0 1 0 2.53A1 1 0 0 0 1 16H6a1 1 0 0 0 1-1V9.34a1 1 0 0 0-1-1H1l.02-.64c.03-1.84.1-3.12.28-4.04.18-.9.45-1.41.82-1.77.39-.37.94-.62 1.82-.91ZM1.01 9.34H6V15H1V9.34Zm12.25-9a.5.5 0 0 1-.32.64c-.88.29-1.43.54-1.82.91-.37.36-.64.87-.82 1.77a24.86 24.86 0 0 0-.3 4.68h5a1 1 0 0 1 1 1V15a1 1 0 0 1-1 1h-5a1 1 0 0 1-1-1.03V8.34l.02-.66c.03-1.84.1-3.2.3-4.2.2-1.03.53-1.76 1.1-2.31C11 .63 11.74.32 12.64.03a.5.5 0 0 1 .63.31Zm-3.25 9H15V15h-5V9.34Z" fill="#fff"/></svg>
