<?xml version="1.0" encoding="utf-8"?><svg xmlns="http://www.w3.org/2000/svg" xmlns:xlink="http://www.w3.org/1999/xlink"><symbol viewBox="0 0 16 16" id="0"><path fill-rule="evenodd" clip-rule="evenodd" d="M3 2c0 .6-.5 1-1 1a1 1 0 01-1-1c0-.6.4-1 1-1 .5 0 1 .4 1 1zm1 0a2 2 0 01-2 2C.9 4 0 3.1 0 2s.9-2 2-2c1 0 2 .9 2 2zm2-.5a.5.5 0 000 1h9.5a.5.5 0 000-1H5.9zM2 15c.5 0 1-.4 1-1s-.5-1-1-1a1 1 0 00-1 1c0 .6.4 1 1 1zm0 1c1 0 2-.9 2-2a2 2 0 00-2-2c-1.1 0-2 .9-2 2s.9 2 2 2zm4-2.5a.5.5 0 000 1h9.5a.5.5 0 000-1H5.9zM2 9c.5 0 1-.4 1-1s-.5-1-1-1a1 1 0 00-1 1c0 .6.4 1 1 1zm0 1c1 0 2-.9 2-2a2 2 0 00-2-2C.9 6 0 6.9 0 8s.9 2 2 2zm4-2.5a.5.5 0 000 1h9.5a.5.5 0 000-1H5.9z"/></symbol></svg>