<svg width="25" height="24" fill="none" xmlns="http://www.w3.org/2000/svg"><g clip-path="url(#a)"><path d="M24.02 12a12 12 0 1 1-24 0 12 12 0 0 1 24 0Z" fill="#fff"/><path d="M6.19 12c0 .7-.58 1.27-1.29 1.27-.7 0-1.28-.57-1.28-1.27 0-.7.57-1.27 1.28-1.27.71 0 1.29.57 1.29 1.27ZM19.13 13.27c.7 0 1.29-.57 1.29-1.27 0-.7-.58-1.27-1.3-1.27-.7 0-1.28.57-1.28 1.27 0 .7.58 1.27 1.29 1.27ZM14.59 7.21a4.87 4.87 0 0 0-3.3-.5c-1.03.23-1.93.94-2.1 2.12-.13.98.16 1.75.67 2.36.48.56 1.15.98 1.7 1.33.61.37 1.11.67 1.49 1.03.34.33.52.67.52 1.13 0 .51-.16.78-.32.93-.19.16-.48.28-.9.31-.85.06-1.9-.28-2.47-.72l-.91 1.16a5.57 5.57 0 0 0 3.5 1.03 2.94 2.94 0 0 0 1.8-.7c.52-.48.8-1.17.8-2.01 0-.94-.43-1.64-.97-2.18-.52-.5-1.2-.9-1.74-1.23a5.64 5.64 0 0 1-1.35-1.03 1.42 1.42 0 0 1-.34-1.2c.07-.44.38-.77.96-.9.61-.15 1.44-.05 2.25.37l.7-1.3Z" fill="#181B2B"/><path fill-rule="evenodd" clip-rule="evenodd" d="M12.02 23.13a11.12 11.12 0 1 0 0-22.25 11.12 11.12 0 0 0 0 22.25Zm12-11.13a12 12 0 1 1-24 0 12 12 0 0 1 24 0Z" fill="#202436"/></g><defs><clipPath id="a"><path fill="#fff" transform="translate(.02)" d="M0 0h24v24H0z"/></clipPath></defs></svg>