<svg width="32" height="32" viewBox="0 0 32 32" fill="none" xmlns="http://www.w3.org/2000/svg">
<path fill-rule="evenodd" clip-rule="evenodd" d="M7 10.5651L7.5753 13.3266L7.20981 13.5973L7.75127 14.0102L7.33841 14.335L7.87986 14.8291L7.54146 15.0728L8.3198 15.9865L7.14213 19.6548L8.23858 23.3976L12.0761 22.3418L12.8206 22.9509L14.3299 24H16.9222L18.4382 22.9509L19.1827 22.3418L23.0203 23.3976L24.1235 19.6548L22.9323 15.9865L23.7174 15.0728L23.379 14.8291L23.9205 14.335L23.5008 14.0102L24.0423 13.5973L23.6836 13.3266L24.2589 10.5651L23.3993 8L17.9103 10.0508L13.3486 10.0508L7.85279 8L7 10.5651Z" fill="#F6851B"/>
<path d="M23.3993 8L16.6649 13.0017L17.9103 10.0508L23.3993 8Z" fill="#FAC28D"/>
<path d="M7.85278 8L14.533 13.0491L13.3486 10.0508L7.85278 8Z" fill="#FAC28D"/>
<path d="M20.9763 19.5939L19.1827 22.3418L23.0203 23.3976L24.1235 19.6548L20.9763 19.5939Z" fill="#FAC28D"/>
<path d="M7.14215 19.6548L8.2386 23.3976L12.0762 22.3418L10.2826 19.5939L7.14215 19.6548Z" fill="#FAC28D"/>
<path d="M11.8596 14.9509L10.7902 16.5685L14.6007 16.7377L14.4653 12.643L11.8596 14.9509Z" fill="#FAC28D"/>
<path d="M19.3925 14.9509L16.7529 12.5956L16.6649 16.7377L20.4687 16.5685L19.3925 14.9509Z" fill="#FAC28D"/>
<path d="M12.0762 22.3418L14.3638 21.2251L12.3875 19.6819L12.0762 22.3418Z" fill="#FAC28D"/>
<path d="M16.8883 21.2251L19.1827 22.3418L18.8646 19.6819L16.8883 21.2251Z" fill="#FAC28D"/>
<path d="M19.1827 22.3418L16.8883 21.225L17.071 22.7208L17.0507 23.3502L19.1827 22.3418Z" fill="#FCDABB"/>
<path d="M12.0762 22.3418L14.2082 23.3502L14.1946 22.7208L14.3638 21.225L12.0762 22.3418Z" fill="#FCDABB"/>
<path d="M14.242 18.6937L12.3333 18.132L13.6802 17.5161L14.242 18.6937Z" fill="white"/>
<path d="M17.0102 18.6937L17.5719 17.5161L18.9256 18.132L17.0102 18.6937Z" fill="white"/>
<path d="M12.0762 22.3418L12.401 19.5939L10.2826 19.6548L12.0762 22.3418Z" fill="#F7D6B6"/>
<path d="M18.8579 19.5939L19.1828 22.3418L20.9763 19.6548L18.8579 19.5939Z" fill="#F7D6B6"/>
<path d="M20.4687 16.5685L16.6649 16.7377L17.0169 18.6938L17.5787 17.5161L18.9323 18.132L20.4687 16.5685Z" fill="#F7D6B6"/>
<path d="M12.3333 18.132L13.687 17.5161L14.242 18.6938L14.6007 16.7377L10.7902 16.5685L12.3333 18.132Z" fill="#F7D6B6"/>
<path d="M10.7902 16.5685L12.3875 19.6819L12.3333 18.132L10.7902 16.5685Z" fill="#FAC28D"/>
<path d="M18.9323 18.132L18.8646 19.6819L20.4687 16.5685L18.9323 18.132Z" fill="#FAC28D"/>
<path d="M14.6007 16.7377L14.2419 18.6937L14.6886 21.0017L14.7902 17.9628L14.6007 16.7377Z" fill="#FAC28D"/>
<path d="M16.665 16.7377L16.4822 17.956L16.5635 21.0017L17.0169 18.6937L16.665 16.7377Z" fill="#FAC28D"/>
<path d="M17.0169 18.6937L16.5634 21.0017L16.8883 21.225L18.8646 19.6819L18.9323 18.132L17.0169 18.6937Z" fill="#F9AA5F"/>
<path d="M12.3333 18.132L12.3875 19.6819L14.3638 21.225L14.6887 21.0017L14.242 18.6937L12.3333 18.132Z" fill="#F9AA5F"/>
<path d="M17.0508 23.3502L17.0711 22.7208L16.9019 22.5719H14.3503L14.1946 22.7208L14.2082 23.3502L12.0762 22.3418L12.8207 22.9509L14.33 24H16.9222L18.4383 22.9509L19.1828 22.3418L17.0508 23.3502Z" fill="#FAC28D"/>
<path d="M16.8883 21.225L16.5634 21.0017H14.6887L14.3638 21.225L14.1946 22.7208L14.3502 22.5719H16.9019L17.0711 22.7208L16.8883 21.225Z" fill="white"/>
<path d="M23.6836 13.3266L24.2589 10.5651L23.3993 8L16.8883 12.8325L19.3925 14.9509L22.9323 15.9865L23.7174 15.0728L23.379 14.8291L23.9205 14.335L23.5008 14.0102L24.0423 13.5973L23.6836 13.3266Z" fill="white"/>
<path d="M7 10.5651L7.5753 13.3266L7.20981 13.5973L7.75127 14.0102L7.33841 14.335L7.87986 14.8291L7.54146 15.0728L8.3198 15.9865L11.8596 14.9509L14.3638 12.8325L7.85279 8L7 10.5651Z" fill="white"/>
<path d="M22.9323 15.9865L19.3925 14.951L20.4687 16.5686L18.8646 19.6819L20.9763 19.6548H24.1235L22.9323 15.9865Z" fill="#F9AA5F"/>
<path d="M11.8596 14.951L8.31982 15.9865L7.14215 19.6548H10.2826L12.3875 19.6819L10.7902 16.5686L11.8596 14.951Z" fill="#F9AA5F"/>
<path d="M16.665 16.7377L16.8883 12.8325L17.9171 10.0508H13.3486L14.3638 12.8325L14.6007 16.7377L14.6819 17.9695L14.6887 21.0017H16.5635L16.577 17.9695L16.665 16.7377Z" fill="#F9AA5F"/>
</svg>
