<svg xmlns="http://www.w3.org/2000/svg" width="20" height="20" fill="none"><path fill="var(--product-color-2, #9FAAC4)" fill-rule="evenodd" d="M15 1H1v11.5h5.5c.6 0 1 .4 1 1V19H15v-6.2l1 .8V19c0 .6-.4 1-1 1H7a1 1 0 0 1-.7-.3l-6-6A1 1 0 0 1 0 13V1c0-.6.4-1 1-1h14c.6 0 1 .4 1 1v7.5l-1-.8zM6.5 18.5l-5-5h5z" clip-rule="evenodd"/><path fill="var(--product-color-1, #4E5472)" fill-rule="evenodd" d="M7.7 5.7a1 1 0 0 1 1-1.3l2.8.2.5.2 7 5.3c.5.5.9 1 1 1.7 0 .6-.1 1.3-.6 1.8-.9 1.1-2.4 1.3-3.5.5L9 8.8a1 1 0 0 1-.3-.5zm3.7 0-2.8-.3 1 2.6 7 5.3c.6.5 1.5.4 2-.3.3-.4.4-.7.4-1 0-.4-.3-.8-.7-1l-6.9-5.4z" clip-rule="evenodd"/></svg>