<svg xmlns="http://www.w3.org/2000/svg" width="24" height="24" fill="none"><path fill="var(--product-color-2, #9FAAC4)" d="M1 .8a.5.5 0 0 0-1 0V23c0 .6.4 1 1 1h22.2a.5.5 0 0 0 0-1H1z"/><path fill="var(--product-color-2, #9FAAC4)" d="M23 1.7a.5.5 0 0 0-1-.4l-4.3 10.9-8.5-3.7a.5.5 0 0 0-.7.3L4 18.3a.5.5 0 1 0 1 .4l4.2-9 8.5 3.6a.5.5 0 0 0 .7-.3z"/><path fill="var(--product-color-1, #4E5472)" d="M24 1.5a1.5 1.5 0 1 1-3 0 1.5 1.5 0 0 1 3 0m-4.7 10.8a1.5 1.5 0 1 1-3 0 1.5 1.5 0 0 1 3 0m-9.9-2a1.5 1.5 0 1 0 0-3 1.5 1.5 0 0 0 0 3"/></svg>