<svg xmlns="http://www.w3.org/2000/svg" width="28" height="18" fill="none"><path fill="var(--product-color-1, #4E5472)" fill-rule="evenodd" d="M14 3.2c1.6 0 2.9 1.3 2.9 2.8S15.6 8.8 14 8.8A2.8 2.8 0 0 1 11.1 6c0-1.5 1.3-2.8 2.9-2.8m0-1c2.1 0 3.9 1.7 3.9 3.8 0 2-1.8 3.8-3.9 3.8A3.8 3.8 0 0 1 10.1 6c0-2 1.8-3.8 3.9-3.8m0 9.2a6 6 0 0 1 5.3 3.7 8.5 8.5 0 0 1-10.6 0 6 6 0 0 1 5.3-3.7m0-1c3 0 5.5 2 6.5 5a9.5 9.5 0 0 1-13 0c1-3 3.5-5 6.5-5" clip-rule="evenodd"/><path fill="var(--product-color-2, #9FAAC4)" fill-rule="evenodd" d="M7.5 3c0-1-1-2-2.1-2C4 1 3.2 2 3.2 3c0 1.2 1 2.2 2.2 2.2s2.1-1 2.1-2.1zm1 0c0-1.6-1.4-3-3.1-3a3.1 3.1 0 0 0-3.2 3c0 1.8 1.4 3.2 3.2 3.2C7 6.2 8.5 4.8 8.5 3M8 8.8c-.7-.6-1.7-1-2.6-1-1.8 0-3.3 1.1-4.2 2.8A6.8 6.8 0 0 0 5.7 12c.6-1.2 1.4-2.3 2.3-3.2m.8-.7c-1-.8-2.1-1.3-3.4-1.3-2.5-.1-4.5 1.6-5.4 4a7.8 7.8 0 0 0 6.4 2 9.2 9.2 0 0 1 3.1-4L8.8 8zm16-5c0-1-1-2-2.2-2s-2.1 1-2.1 2c0 1.2 1 2.2 2.1 2.2 1.3 0 2.2-1 2.2-2.1zm1 0c0-1.6-1.4-3-3.2-3a3.1 3.1 0 0 0-3.1 3 3.1 3.1 0 1 0 6.3 0m1 7.5a4.7 4.7 0 0 0-4.2-2.8c-1 0-1.9.4-2.6 1 1 .9 1.7 2 2.3 3.2a7 7 0 0 0 4.5-1.4m1.2.3c-.9-2.4-3-4-5.4-4a5.3 5.3 0 0 0-4.1 2l.7.6c1 1 1.9 2.1 2.4 3.4a8 8 0 0 0 6.4-2" clip-rule="evenodd"/></svg>