<svg xmlns="http://www.w3.org/2000/svg" width="24" height="25" fill="none"><path fill="var(--product-color-3, #7A859E)" fill-rule="evenodd" d="M5.915 5.84 4.007 2.019a.6.6 0 0 1 .26-.783C6.78-.02 8.143.587 9.462 1.177c1.321.59 2.57 1.145 5.337.04.487-.196.972.333.737.802l-1.91 3.821zm.619-1L5.092 1.953c.929-.408 1.605-.486 2.137-.442.75.063 1.438.358 2.128.655.689.296 1.38.594 2.142.663.782.07 1.65-.02 2.68-.333L13.01 4.84zm-4.44 10.523c.723-2.293 2.092-4.842 4.03-7.357h7.305c1.774 2.257 3.108 4.474 3.963 6.494H12.25c-.414 0-.75.299-.75.667V17.5h-1.25c-.414 0-.75.299-.75.667v2.666c0 .368.336.667.75.667h1.25v2H6.275c-1.76 0-3.534-.609-4.311-2.299-.64-1.393-.637-3.408.13-5.838M6.275 24.5c-3.22 0-4.616-1.567-5.22-2.881-1.573-3.424.272-9.19 4.582-14.613h8.275c2.079 2.581 3.627 5.152 4.56 7.494h4.278c.414 0 .75.299.75.667v2.666c0 .368-.336.667-.75.667H21.5v2h1.25c.414 0 .75.299.75.667v2.666c0 .368-.336.667-.75.667zm16.225-7v-2H20v2zm-5.5 1v2h-6.5v-2zm3.5 2H18v-2h2.5zm-8 3v-2H20v2zm0-6v-2H19v2zm10 4v2H21v-2z" clip-rule="evenodd"/></svg>