<svg width="352" height="216" fill="none" xmlns="http://www.w3.org/2000/svg"><path d="M167.6 199.3c-31 0-60.4-7.7-82-19.2A88.6 88.6 0 0 1 60 160.4a35 35 0 0 1-9.5-22.4c0-13 5-24.9 15.3-34.2C76 94.5 92 87.6 113.9 84.7a352 352 0 0 0 50.8-10.4c39-11.5 67-9 85 .9a48 48 0 0 1 24.8 46.1c-1.9 37.6-39.8 80.6-107 78Z" fill="#15181F" stroke="#15181F" stroke-width="1.5"/><circle cx="148.2" cy="51.9" r="45" fill="url(#a)"/><path d="M104.1 208C50.3 196.1.4 141.9 39.1 100.5c.4-.3 0-1-.5-.8-29.4 10.7-37.2 35.2-37.5 62.6 0 .4.6.6.9.3l8.5-8.9c1.1-1.1 3.1-.6 3.6 1 7.4 23 39.2 48.3 90 53.3Z" fill="#8AFFCE" stroke="#15181F" stroke-width="1.5" stroke-linecap="round"/><path d="m165.6 171.5 21 28c25.7-4.7 47-13 55-19.5l-42-44-7-40.5-11-13.5c-2 3-10.5 10-15 10l6.5 8-4 13c-16 4-28.4.3-38.5-12a38.6 38.6 0 0 0-6.5-29c-5.5-5.5-13.3-5-13 .5l1.5 11-.5 8.5c-6.2 1-8.5 3.9-13 8.5-7 4.6-9.5 8.5-13.5 16l-8 11 17.5 26 70.5 18Z" fill="#FFD49C"/><path d="M196.6 140.5c-3.5 5.5-7 8-14 11-1 6.5-5 12.5-10 16.5m-14.5-24.5a29 29 0 0 0-16 5.5m26-32c-5.2 9.8-6 15-7.5 24" stroke="#15181F" stroke-width="1.5" stroke-linecap="round"/><path d="m112.5 88.8-.7-.2.7.2Zm-.2-8.5.8-.2-.8.2Zm-1.4-7.7-.8.1.8-.1Zm3.3-4.5v.8-.8Zm16 19.8.8-.2-.7.2Zm.6 9.3h.8-.8Zm-.1 3h.7-.7Zm.4 1.4.6-.5-.6.5Zm37.1 12 .1.8v-.7Zm1.8-1.4.7.1-.7-.1Zm3-12.2-.7-.1.7.1Zm20-2-.7.2.8-.1Zm6.6 38-.7.1v.3l.2.1.5-.5Zm-26.9-36.9.6-.5-.6.5Zm18.2-5.5-.6.5.6-.5Zm-92.8 7a.8.8 0 0 0 1 .9l-1-1Zm32.8 12.2-.8.2.8-.2Zm-1 4.8-.4-.6.4.6Zm-8.4-1.4a.8.8 0 0 0-.8 1.3l.8-1.3Zm-9-12.6a.8.8 0 1 0 1.6-.2l-1.5.2Zm1.4-3.6a.7.7 0 1 0-1.5 0h1.5Zm-29.4 17.1a.8.8 0 0 0 1.3.7l-1.3-.7Zm38.6 6.3-.7.3.7-.3Zm-2 5.6.2.7-.2-.7Zm-8.6-2.2a.7.7 0 1 0-.8 1.3l.8-1.3Zm-10.3-10.9a.8.8 0 0 0 1.5-.4l-1.5.4Zm.7-4.5a.7.7 0 1 0-1.5.2l1.5-.2ZM185 199a.8.8 0 0 0 1.2-1l-1.2 1Zm-19.4-27.5.6-.4-.1-.3h-.3l-.2.7Zm-69.3-17.3-.2.7.2-.7Zm-4.2-3-.6.4.6-.4Zm-14-21.7.6-.4-.6.4Zm0-3 .6.3-.7-.4Zm37.8 9.7-.7.3.7-.3Zm-4.4 7.2v.8-.8Zm-20.7-15.8a.8.8 0 0 0-1.3.8l1.3-.8Zm91.7-45.5a.7.7 0 1 0-1.3.8l1.3-.8Zm-14.6 10a.8.8 0 0 0-1.3.8l1.3-.8Zm-55-.5.4-2.7-1.5-.3-.4 2.8 1.5.2Zm.2-11.5-1.5-7.7-1.5.3 1.5 7.7 1.5-.3Zm1.2-11.2c4.1-.1 7.2 1 9.5 3.9a35 35 0 0 1 5.7 15.2l1.5-.3a36.7 36.7 0 0 0-6-15.9c-2.7-3.3-6.2-4.5-10.8-4.4v1.5ZM130 97l-.2 3 1.5.2.2-3-1.5-.2Zm.4 5c4.6 5.6 9 9.3 14.8 11.2 5.8 2 13 2.2 23 1.1l-.1-1.5c-10 1.1-17 .9-22.5-1a30.6 30.6 0 0 1-14-10.8l-1.2 1Zm40.2 10.2 3-12-1.4-.4-3 12 1.4.4Zm21.6-14.1 6.6 38 1.5-.3-6.6-38-1.5.3Zm6.8 38.3 42 43.9 1-1-42-44-1 1.1ZM193.8 98a9.7 9.7 0 0 0-2.4-4.8l-1 1c1 1.1 1.7 2.6 2 4.1l1.4-.3Zm-20 2.3c0-.6-.1-1.2-.5-1.6l-1.1 1v.3l1.5.3Zm-5.5 14.2c1.2-.1 2.1-1 2.4-2l-1.5-.4c-.1.5-.5.9-1 1l.1 1.4ZM130 100.2c0 .7.2 1.3.6 1.9l1.2-1c-.2-.2-.3-.5-.3-.8l-1.5-.1Zm-.4-12.2c.6 3 .8 6 .6 9.1l1.5.1c.2-3.1 0-6.3-.6-9.5l-1.5.3Zm-17.9-15.6c-.3-1.8 1-3.5 2.7-3.5v-1.5c-2.9 0-4.6 2.7-4.2 5.3l1.5-.3Zm1.7 16.5c.4-3 .3-5.9-.2-8.8l-1.5.3c.5 2.7.6 5.5.2 8.2l1.5.3Zm-14.1 12.6c7-8.1 13-10.3 18-8.2 2.6 1 5 3.2 7.2 6.6A52 52 0 0 1 130 113l1.5-.4c-1.7-5.5-3.7-10-6-13.6a18 18 0 0 0-7.8-7.1c-5.9-2.5-12.6.4-19.7 8.6l1 1Zm30.3 15.5c-1.9 1.2-5 1.1-8-.8l-.8 1.3c3.3 2 7.1 2.4 9.6.7l-.8-1.2ZM114 103.4c-.2-1-.2-2.2-.2-3.4h-1.5c0 1.3 0 2.5.2 3.6l1.5-.2Zm16 9.6c.3.8.4 1.7.3 2.4-.1.7-.4 1.2-1 1.6l.9 1.2c1-.6 1.4-1.6 1.6-2.6.1-1 0-2-.3-3l-1.5.4Zm-44.3 4.8c2.9-5.6 6-10.1 9.2-13.2 3.3-3 6.5-4.6 9.7-4.5 3 0 6.2 1.7 9.3 5.5a55 55 0 0 1 8.4 18l1.4-.4a55.7 55.7 0 0 0-8.7-18.5c-3.2-4-6.7-6-10.4-6.1-3.7 0-7.3 1.7-10.7 5a50.2 50.2 0 0 0-9.5 13.5l1.3.7Zm35 10.5c-2.3.7-5.3.2-8.3-1.5l-.8 1.3c3.3 1.8 6.7 2.5 9.6 1.6l-.4-1.4Zm-17.1-12.8a19 19 0 0 1-.8-4h-1.5c.1 1.6.4 3 .8 4.4l1.5-.4Zm18.7 8.2c.3 1 .3 2 0 2.9-.2.8-.7 1.4-1.5 1.7l.4 1.4a3.9 3.9 0 0 0 2.6-2.7 7 7 0 0 0 0-3.8l-1.5.5Zm63.8 74.4-20-27-1.2.9 20 27 1.2-1Zm-20.4-27.3-69.3-17.4-.4 1.5 69.3 17.3.4-1.4Zm-73-20-14-21.7-1.3.8 14 21.7 1.2-.8Zm-14.1-24C84.7 117 91 112.7 97 114c3.1.6 6.2 2.7 9.3 6.4 3 3.7 6 9 8.8 16.2l1.4-.6a60.5 60.5 0 0 0-9-16.5 18.3 18.3 0 0 0-10.2-7c-7-1.4-14 3.7-20 13.6l1.3.8Zm32.8 15.9c-4.1.2-7.4-.6-10.7-2.9a40.5 40.5 0 0 1-10-12.2l-1.3.8A42 42 0 0 0 100 141c3.5 2.5 7.2 3.4 11.6 3.2l-.1-1.5Zm3.7-6.2c1.1 2.9-.7 6-3.7 6.2v1.5c4.2-.2 6.5-4.5 5-8.3l-1.3.6ZM78.7 129c-.4-.7-.4-1.6 0-2.3l-1.3-.8a3.7 3.7 0 0 0 0 4l1.3-.9Zm17.8 24.3a6.2 6.2 0 0 1-3.8-2.6l-1.2.8c1 1.6 2.7 2.8 4.6 3.3l.4-1.5ZM181.2 83c2.3 3.9 5.4 7.1 9.1 11.2l1.1-1c-3.7-4.1-6.7-7.3-9-11l-1.2.8Zm-8 15.7A30 30 0 0 1 168 92l-1.3.8c1.5 2.6 3.3 4.4 5.6 6.7l1-1Z" fill="#15181F"/><path d="M139.6 110c-.4 4.5-1.5 7-3 8.5m-33 24c-2 1-3.5 3.5-4.5 6" stroke="#15181F" stroke-width="1.5" stroke-linecap="round"/><path d="m220.6 153-44 38.5 6.5 8.5c26-3 45.5-9 66.5-27l-17-6.5-12-13.5Z" fill="#8AFFCE"/><path d="m249.6 173-17-6.5-11-12.4c-.5-.6-1.5-.7-2.1-.1l-41.8 36.6c-.6.5-.7 1.4-.2 2l5.6 7.4" stroke="#15181F" stroke-width="1.5"/><path d="M347.8 67.8a37.6 37.6 0 0 0-25.5-23.6c-.4-.1-.7.1-.8.5l-2.1 20.7c0 .4.1.7.5.7l14.8 3.3h.2l12.4-.7c.4 0 .7-.5.5-.9Z" fill="#8AFFCE" stroke="#15181F" stroke-width="1.5" stroke-linecap="round"/><path d="m332.6 81.3-2.2-4.1-.3-.3-15-6.9-9.6 13.1-.1.4V88c0 .2 0 .4.2.5 2.6 1.7 10 1.1 14.7 0 4.7-1.2 10.8-4 12.3-6.8v-.5Z" fill="#8AFFCE"/><path d="M335.7 70.2c-4.1-14-18.2-38.7-31.5-46.5-.6-.3-1.3-.1-1.6.4-4 6.8-5 19.3-6.7 27.4-.6 2.7-12.3 8-10.3 32 0 2.1 7.4-3 10.6-3.7.8-.3 1.3.5 1.7 1.2.4.4.8.8 1.3 1 4.6 1.9 12 1.2 19-.7 7-1.6 13.7-4.5 17-8.4a3 3 0 0 0 .5-2.7Z" fill="#8AFFCE"/><path d="M296.5 50.6c-8.3 7.2-12.5 18.3-11 32.9.1.4.6.7 1 .5l11.3-5.3" stroke="#15181F" stroke-width="1.5" stroke-linecap="round"/><path d="M320.9 79.5c4.2-24.1-.2-39.6-17.3-54.5 2-.5 11.4 7.5 18.9 19.3l.4.3c15.2 3.4 18.5 11 24.8 23 .2.5 0 1-.5 1l-11.9.8c-.4 0-.6.4-.6.8l.3 1.5c0 .2 0 .4-.2.5l-4.4 4c-.2.2-.2.5-.1.7l2.1 4.7v.7c-3 3.2-4.9 4-9.5 5.4-3.6 1-6.6-5.7-2.4-7.7l.4-.5Z" fill="#15181F"/><path d="m330.3 77 2.3 4.3v.5c-1.5 2.7-7.6 5.6-12.3 6.8-4.7 1.1-12 1.7-14.7 0a.6.6 0 0 1-.2-.5v-4.8" stroke="#15181F" stroke-width="1.5" stroke-linecap="round"/><path d="M318 80.5c-3.5 1-7 1.7-10.3 1.8-3.2.2-6-.1-8.2-1-.7-.3-1.2-.9-1.3-1.7a109 109 0 0 1-1.6-28 63.4 63.4 0 0 1 6.6-27.1c.1-.2.4-.3.6-.1a65.5 65.5 0 0 1 19 20.6 110 110 0 0 1 12.1 25.4 2 2 0 0 1-.3 2 20 20 0 0 1-6.8 4.9c-3 1.4-6.3 2.5-9.8 3.2Z" stroke="#15181F" stroke-width="1.5"/><path d="M324.1 47c4 6.9 7.4 14 9.5 19.8" stroke="#FFD400" stroke-width="1.5" stroke-linecap="round"/><circle cx="310.5" cy="49.7" r="6.8" transform="rotate(-14 310.5 49.7)" fill="#15181F" stroke="#15181F" stroke-width="1.5"/><circle cx="224.2" cy="172" r="5" transform="rotate(-14 224.2 172)" fill="#15181F" stroke="#15181F" stroke-width="1.5"/><circle cx="223.2" cy="171" r="5" transform="rotate(-14 223.2 171)" fill="#FFD400" stroke="#15181F" stroke-width="1.5"/><path d="M124.6 124.8h-.2A8.4 8.4 0 0 1 118 135l-2 .4c5.7 7.5-4.6 17-14.4 9.1l-8-11c12.8 16.2 26 9.8 22.3 2h-.3l-3.5-8c4.7 4.3 11.2 2.4 11.5-2.6l-3-8.4c5.5 5 14 2 9.5-6a9 9 0 0 1-5.5 14.3Z" fill="#15181F"/><path d="M136.3 87.3a37.3 37.3 0 0 0 46.8-22.1m-67-32.3a37.3 37.3 0 0 1 64.2 0" stroke="#15181F" stroke-width="1.5" stroke-linecap="round"/><path d="M131 93.5a44.9 44.9 0 0 0 62.3-41.6A45 45 0 1 0 111.6 78" stroke="#15181F" stroke-width="1.5"/><path d="m255.3 32.1-54.2 9.5m-107.3 19-27.6 4.8M193 14.1l15.6-12.5M43.6 13 95 32" stroke="#15181F" stroke-width="1.5" stroke-linecap="round"/><path d="M112.6 84c-43.2 6.3-63 27.7-63 54 0 31.3 55.8 62 118 62 127 5 150.9-152.6 22.5-132.3" stroke="#15181F" stroke-width="1.5"/><path d="M314 103.2c2.5 1.8 4.6-.8 8.3-8.7.1-.3.4-.4.6-.2 19.3 18.8 0 68.7-20.5 83.6-.3.3-.6 0-.4-.3 1-2 4-5.7 4.9-9.7 0-.4-.4-.6-.7-.3-14.9 17.8-39.6 36-95.8 44.4 52.4-9.9 98-45.6 103.8-89 0-.5-.8-.8-1-.4a13.3 13.3 0 0 1-9 5c-.3 0-.5-.5-.3-.8a37.3 37.3 0 0 0 9.4-23.2c0-.4.5-.6.8-.4Z" fill="#FEC51B"/><path d="M210.4 212c52.4-9.9 98-45.6 103.8-89 0-.5-.8-.8-1-.4a13.3 13.3 0 0 1-9 5c-.3 0-.5-.5-.3-.8a37.3 37.3 0 0 0 9.4-23.2c0-.4.5-.6.8-.4 2.4 1.8 4.5-.8 8.2-8.7.1-.3.4-.4.6-.2 19.3 18.8 0 68.7-20.5 83.6-.3.3-.6 0-.4-.3 1-2 4-5.7 4.9-9.7 0-.4-.4-.6-.7-.3-14.9 17.8-39.6 36-95.8 44.4Zm0 0a157.2 157.2 0 0 1 0 0Z" stroke="#15181F" stroke-width="1.5" stroke-linecap="round"/><path d="M123.6 51.1c0 2.9-2.5 5.2-5.6 5.2-3 0-5.5-2.3-5.5-5.2 0-2.9 2.5-5.2 5.5-5.2 3.1 0 5.6 2.3 5.6 5.2Zm55.9 5.2c3 0 5.5-2.3 5.5-5.2 0-2.9-2.5-5.2-5.5-5.2-3.1 0-5.6 2.3-5.6 5.2 0 2.9 2.5 5.2 5.6 5.2Zm-19.6-24.9a22 22 0 0 0-14.3-2.1c-4.4 1-8.3 3.9-9 8.8-.6 4 .7 7.2 2.9 9.7 2 2.3 4.9 4 7.3 5.4 2.6 1.6 4.8 2.8 6.4 4.3 1.5 1.4 2.3 2.8 2.3 4.6 0 2.2-.7 3.2-1.4 3.9-.8.7-2 1.1-3.9 1.3-3.7.2-8.2-1.2-10.7-3l-4 4.8a25 25 0 0 0 15.2 4.2 13 13 0 0 0 7.8-2.9c2.2-2 3.4-4.8 3.4-8.3a12 12 0 0 0-4.2-9c-2.2-2-5.1-3.6-7.4-5a24.3 24.3 0 0 1-5.9-4.2 5.7 5.7 0 0 1-1.4-5c.2-1.8 1.6-3.2 4.1-3.7 2.6-.6 6.2-.2 9.7 1.5l3-5.3Z" fill="#181B2B"/><defs><radialGradient id="a" cx="0" cy="0" r="1" gradientUnits="userSpaceOnUse" gradientTransform="matrix(0 45 -45 0 148.2 52)"><stop offset=".1" stop-color="#FFC90A"/><stop offset=".5" stop-color="#FFC90A"/><stop offset="1" stop-color="#FD8517"/></radialGradient></defs></svg>