<svg xmlns="http://www.w3.org/2000/svg" width="40" height="40" viewBox="0 0 40 40" fill="none">
  <path d="M19 10C20.2033 10 21.3623 10.194 22.4473 10.5518C22.7047 10.6367 22.8443 10.9125 22.7588 11.168C22.6732 11.423 22.3958 11.5617 22.1387 11.4775C21.1523 11.1522 20.0967 10.9756 19 10.9756C13.4713 10.9756 8.98249 15.4599 8.98242 21C8.98242 26.5402 13.4713 31.0244 19 31.0244C24.5287 31.0244 29.0176 26.5402 29.0176 21C29.0176 19.8972 28.8397 18.8368 28.5117 17.8457C28.4271 17.59 28.5667 17.3137 28.8242 17.2295C29.082 17.1454 29.3606 17.2851 29.4453 17.541C29.8055 18.6293 30 19.7925 30 21C30 27.0715 25.0788 32 19 32C12.9212 32 8 27.0716 8 21C8.00006 14.9285 12.9212 10 19 10Z" fill="var(--product-color-2, #9FAAC4)"/>
  <path d="M18.998 14.5293C19.5966 14.5293 20.1773 14.6111 20.7285 14.7637C20.9894 14.8362 21.142 15.1042 21.0693 15.3633C20.9965 15.6225 20.726 15.7741 20.4648 15.7021C19.9987 15.5731 19.5064 15.5039 18.998 15.5039C15.9711 15.5039 13.5108 17.9605 13.5107 20.998C13.511 24.0354 15.9712 26.4912 18.998 26.4912C22.0249 26.4912 24.4851 24.0354 24.4854 20.998C24.4853 20.2747 24.3457 19.5842 24.0928 18.9531C23.9929 18.7031 24.1163 18.4198 24.3682 18.3203C24.6202 18.2208 24.9065 18.3427 25.0068 18.5928C25.305 19.3368 25.4687 20.1493 25.4688 20.998C25.4685 24.5668 22.575 27.4658 18.998 27.4658C15.4211 27.4658 12.5276 24.5668 12.5273 20.998C12.5274 17.4292 15.421 14.5293 18.998 14.5293Z" fill="var(--product-color-2, #9FAAC4)"/>
  <path d="M19.2031 19.0107C20.2114 19.1129 20.9995 19.9637 21 20.999L20.9893 21.2041C20.887 22.2126 20.0353 22.9998 19 23L18.7949 22.9893C17.7867 22.8867 17 22.0344 17 20.999C17.0005 19.8949 17.8959 19 19 19L19.2031 19.0107Z" fill="var(--product-color-2, #9FAAC4)"/>
  <path fill-rule="evenodd" clip-rule="evenodd" d="M27.611 8.16811C27.8905 7.8635 28.4112 7.99373 28.5026 8.39077L29.0427 10.7462L31.5319 10.9787C31.9515 11.0178 32.1488 11.4992 31.8698 11.8039L28.6042 15.3634L28.5124 15.4425C28.413 15.5092 28.2907 15.5399 28.1677 15.5285L25.5593 15.2853L19.8835 20.8527C19.6835 21.0484 19.3571 21.0503 19.154 20.8576C18.9511 20.6646 18.9483 20.3494 19.1481 20.1535L24.7917 14.6183L24.2282 12.1652C24.1926 12.0097 24.237 11.847 24.3464 11.7277L27.611 8.16811ZM25.2936 12.1974L25.778 14.3048L28.0046 14.5119L30.4245 11.8751L28.944 11.7384L28.1979 11.6681L27.7136 9.55971L25.2936 12.1974Z" fill="var(--product-color-1, #4E5472)"/>
</svg>
