<?xml version="1.0" encoding="utf-8"?><svg xmlns="http://www.w3.org/2000/svg" xmlns:xlink="http://www.w3.org/1999/xlink"><symbol fill="none" viewBox="0 0 302 140" id="0"><path fill="var(--mystic, #D2D6E7)" d="M44.546 98.127c-60.338-22.128-57.798-36.728 2.115-49.756l121.602-19.223c20.405 19.223 8.28-5.291 53.229 19.223l-85.046 77.292c-10.172 17.943-84.733-4.655-91.9-27.537"/><path fill="var(--porcelain, #ECEEF5)" d="M137.316 8.287c-27.194 2.153-68.682 12.015-94.91 24.652l21.44 53.552c13.033-3.352 28.616-8.884 44.555-16.344l2.679 1.434a266 266 0 0 0-12.332 6.381l23.199 56.095c44.849-13.536 67.409-24.997 93.116-47.074l18.438-6.047c10.491-17.43-4.638-40.49-17.086-39.799l-18.205 8.395c-9.044.503-17.672 1.406-26 2.73v-.445c-5.041-4.773-9.51-8.612-13.875-11.891l15.455-6.307C176.74 17.906 168.819 2.905 159.509 0z"/><path fill="var(--casper, #9FAAC4)" d="m140.195 10.003 3.38-.237c3.219 2.023 7.363 7.66 9.919 14.32l19.926-5.727a36.8 36.8 0 0 1 .37 15.255l-15.46 6.308c-4.523-3.397-8.936-6.193-13.76-8.802 3.075-2.087 5.694-4.132 7.727-6.08-3.208-6.635-7.871-12.425-12.102-15.037M94.658 62.793l13.737 7.351c-15.936 7.46-31.517 12.99-44.548 16.341L56.39 67.862v-5.457c9.139 0 21.672-2.684 34.793-6.841zM121.947 134.052c44.849-13.536 67.409-24.998 93.116-47.074l18.539-5.231c2.047-3.401 3.018-7.833 3.324-11.444l-22.494 6.278c-.923-10.043-6.772-21.338-10.938-24.385h-3.388c5.361 3.854 11.541 14.846 13.718 24.604-11.674 12.55-63.399 35.271-86.934 35.271l-6.807 17.474zM172.816 52.196c-16.019 1.782-36.716 8.818-51.66 15.119 10.196-6.301 25.243-13.69 46.389-19.83z"/><path fill="var(--casper, #9FAAC4)" d="M64.907 86.549c8.257-3.066 10.312-17.957 4.589-33.259S52.439 28.068 44.182 31.134s-10.312 17.957-4.589 33.26c5.723 15.301 17.056 25.221 25.314 22.155M122.565 134.431c8.135-3.075 9.794-18.532 3.706-34.525s-17.62-26.464-25.755-23.39c-8.136 3.075-9.795 18.533-3.706 34.526 6.088 15.992 17.619 26.464 25.755 23.389"/><path fill="var(--whale, #FCFDFE)" fill-rule="evenodd" d="M69.496 53.29c5.723 15.302 3.668 30.193-4.59 33.259s-19.59-6.854-25.313-22.156-3.668-30.193 4.589-33.259 19.59 6.854 25.314 22.156m-1.697 27.327c-.961 1.574-2.22 2.712-3.766 3.297-6.828 2.58-16.667-6.633-21.976-20.58-5.31-13.946-4.079-27.343 2.749-29.924 2.161-.817 4.624-.452 7.15.87l.25.134a9 9 0 0 0-.204.184c-4.705 4.398-5.274 15.465-.95 26.82 3.923 10.306 10.704 17.772 16.745 19.2zM126.271 99.906c6.088 15.993 4.429 31.45-3.706 34.525s-19.667-7.397-25.755-23.389c-6.089-15.993-4.43-31.45 3.706-34.526l.097-.035-12.786-7.793c0-9.96-1.778-21.014-5.022-30.211 12.202 7.419 24.508 16.254 38.683 28.703l-16.37 8.934c7.454 1.218 16.145 10.637 21.153 23.792m-19.47-20.578-.569-.197c-1.775-.557-3.478-.585-5.024 0-6.916 2.614-8.048 16.488-2.528 30.987 5.521 14.5 15.602 24.136 22.519 21.521 1.772-.669 3.164-2.078 4.162-4.047-6.28-1.429-13.553-9.646-17.858-20.953-4.258-11.185-4.33-22.025-.702-27.31" clip-rule="evenodd"/><path fill="var(--mystic, #D2D6E7)" fill-rule="evenodd" d="M248.111 22.185c-20.103-1.555-45.237-1.584-73.92.6-.248-1.753-.398-2.622-.457-2.975 28.905-2.21 54.275-2.189 74.608-.616 20.308 1.571 35.736 4.7 44.63 8.786 4.378 2.011 7.563 4.428 8.634 7.36 1.17 3.204-.37 6.278-3.574 8.948-3.206 2.672-8.424 5.283-15.701 7.798-4.608 1.593-10.088 3.162-16.483 4.688 3.281.205 6.074.498 8.416.87 2.441.387 4.434.866 5.996 1.439 1.538.563 2.789 1.264 3.61 2.177.886.986 1.231 2.187.927 3.45-.277 1.15-1.049 2.177-1.988 3.074-1.889 1.805-5.029 3.62-8.889 5.368-15.485 7.008-45.05 13.984-65.016 13.984a1.5 1.5 0 1 1 0-3c19.517 0 48.662-6.875 63.779-13.717 3.791-1.716 6.545-3.363 8.053-4.804.569-.543 1.621-1.551.903-2.35-.347-.385-1.071-.874-2.412-1.366-1.315-.482-3.102-.923-5.434-1.293-4.661-.74-11.333-1.172-20.417-1.172a1.5 1.5 0 0 1-.289-2.971c11.778-2.312 21.131-4.747 28.264-7.212 7.163-2.476 11.973-4.944 14.761-7.267 2.789-2.325 3.206-4.162 2.676-5.614-.629-1.723-2.805-3.705-7.069-5.664-8.392-3.856-23.38-6.956-43.608-8.52" clip-rule="evenodd"/></symbol></svg>