<?xml version="1.0" encoding="utf-8"?><svg xmlns="http://www.w3.org/2000/svg" xmlns:xlink="http://www.w3.org/1999/xlink"><symbol fill="none" viewBox="0 0 180 121" id="0"><path fill="var(--mystic, #D2D6E7)" d="M180 4.177A4.177 4.177 0 0 0 175.823 0H38.66a4.177 4.177 0 0 0-4.176 4.177v74.632a4.177 4.177 0 0 0 3.967 4.172l137.163 6.892A4.176 4.176 0 0 0 180 85.702z"/><path fill="var(--casper, #9FAAC4)" d="M12.68 91.086V21.754a8.354 8.354 0 0 1 8.354-8.354h123.197c.599 0 1.197.065 1.782.193l8.771 1.915a8.35 8.35 0 0 1 6.571 8.16v77.003a8.35 8.35 0 0 1-5.683 7.915l-10.54 3.555-81.006-8.052a8.36 8.36 0 0 0-4.677.9l-25.921 13.464a8.4 8.4 0 0 1-3.044.901l-16.994 1.65 8.631-15.89c1.93-3.553-.357-7.928-4.375-8.372a5.69 5.69 0 0 1-5.065-5.656Z"/><path fill="var(--porcelain, #ECEEF5)" d="M8.354 13.4h135.471a8.354 8.354 0 0 1 8.354 8.355l-.007 82.33c0 4.827-4.08 8.649-8.897 8.335l-99.184-6.466a8.36 8.36 0 0 0-4.506.981l-26.102 14.064v-15.707a2.784 2.784 0 0 0-2.479-2.768l-3.567-.394A8.354 8.354 0 0 1 0 93.827V21.754A8.354 8.354 0 0 1 8.354 13.4"/><path fill="var(--casper, #9FAAC4)" fill-rule="evenodd" d="M110.564 58.527c-.031 2.855 2.344 5.193 5.306 5.223s5.39-2.259 5.421-5.113-2.344-5.193-5.306-5.224c-2.962-.03-5.389 2.26-5.421 5.114m-39.204-.513c-.032 2.855 2.344 5.193 5.306 5.224 2.962.03 5.39-2.26 5.421-5.114s-2.344-5.193-5.306-5.223-5.39 2.259-5.421 5.113m-31.51 4.711c-2.963-.03-5.339-2.369-5.307-5.223.032-2.855 2.459-5.144 5.421-5.114s5.338 2.37 5.306 5.224c-.031 2.854-2.459 5.143-5.42 5.113" clip-rule="evenodd"/></symbol></svg>