<?xml version="1.0" encoding="utf-8"?><svg xmlns="http://www.w3.org/2000/svg" xmlns:xlink="http://www.w3.org/1999/xlink"><symbol fill="none" viewBox="0 0 40 40" id="0"><rect width="40" height="40" fill="#EDF8F5" rx="6"/><path fill="#B0EBDB" fill-rule="evenodd" d="M28.6 13.397c-.523 2.78-4.018 3.188-5.445 6.496-2.308 5.349 6.812 5.046 5.147 7.555-2.766 4.166-15.873-.555-17.162-6.665-.67-3.18 1.147-5.17 3.711-7.079 4.12-3.07 14.704-5.386 13.75-.307" clip-rule="evenodd"/><path fill="#393F56" fill-rule="evenodd" d="m21.429 9.42 1.215-2.403c.475.075.932.24 1.347.481l-.571 2.663zm-.454.899-2.535 5.015c-.358.707-.63 1.454-.813 2.225l-2.207 9.35 1.571.599 4.238-8.597c.367-.749.643-1.536.818-2.348l1.16-5.414zm3.18 1.182-1.13 5.272a11.2 11.2 0 0 1-.899 2.579l-4.39 8.906v2.14a.74.74 0 0 1-.349.631l-.003.002a9.9 9.9 0 0 0-2.73 2.48l-.679-.195.128.097.4.3c-.383.51-1.225.238-1.193-.428l.005-.124v-.004a11.1 11.1 0 0 0-.508-3.85.76.76 0 0 1 .154-.747l.004-.004 1.41-1.576 2.279-9.652c.201-.845.5-1.666.893-2.445l4.261-8.43V6.45a.83.83 0 0 1 .825-.447l.015.002.015.002.02.004a4.9 4.9 0 0 1 1.954.709c.287.18.432.525.36.855v.002l-.63 2.935 1.213.451a1.417 1.417 0 0 1 .838 1.821v.002l-3.584 9.634a.5.5 0 0 1-.937-.35l3.583-9.632a.417.417 0 0 0-.244-.536l-.003-.001zM14.103 33.413l.4.3.151-.201zm2.634-4.928-1.762-.675-1.177 1.314c.318 1.042.493 2.123.523 3.21a11 11 0 0 1 2.416-2.078z" clip-rule="evenodd"/></symbol></svg>