<?xml version="1.0" encoding="utf-8"?><svg xmlns="http://www.w3.org/2000/svg" xmlns:xlink="http://www.w3.org/1999/xlink"><symbol fill="none" viewBox="0 0 141 171" id="0"><g clip-path="url(#aa)"><path fill="var(--casper, #9FAAC4)" stroke="var(--casper, #9FAAC4)" stroke-width="2.009" d="M10.606 65.862a5.023 5.023 0 0 1 5.023-5.023h108.953c.731 0 1.453.16 2.115.467l9.613 4.463a5.02 5.02 0 0 1 2.907 4.555v86.493a5.02 5.02 0 0 1-1.855 3.898l-9.349 7.599a5.02 5.02 0 0 1-3.168 1.125H15.629a5.023 5.023 0 0 1-5.023-5.023z"/><path fill="var(--casper, #9FAAC4)" fill-rule="evenodd" d="M76.047 14.507H72.39c-17.753 0-32.144 14.391-32.144 32.144v20.237h67.944V46.65c0-17.753-14.391-32.144-32.144-32.144ZM72.39.443c-25.52 0-46.207 20.688-46.207 46.208v34.3h96.071v-34.3c0-25.52-20.688-46.208-46.208-46.208z" clip-rule="evenodd"/><path fill="var(--mystic, #D2D6E7)" fill-rule="evenodd" d="M69.012 14.507h-3.656c-17.753 0-32.144 14.391-32.144 32.144v20.237h67.944V46.65c0-17.753-14.392-32.144-32.144-32.144ZM65.356.443c-25.52 0-46.208 20.688-46.208 46.208v34.3h96.071v-34.3c0-25.52-20.688-46.208-46.207-46.208z" clip-rule="evenodd"/><path fill="var(--casper, #9FAAC4)" d="M19.148 59.872h16.71v-5.167l-16.71 3.568zm82.172 0h16.709v-5.167l-16.709 3.568z"/><rect width="130.767" height="110.609" x=".223" y="59.834" fill="var(--porcelain, #ECEEF5)" rx="6.027"/><mask id="ab" width="131" height="112" x="0" y="59" maskUnits="userSpaceOnUse" style="mask-type:alpha"><rect width="130.767" height="110.609" x=".223" y="59.834" fill="var(--porcelain, #ECEEF5)" rx="6.027"/></mask><g mask="url(#ab)"><path fill="var(--mystic, #D2D6E7)" d="M130.989 59.834v110.609H.223c89.84 0 115.621-70.299 115.621-110.609z"/></g><path fill="var(--casper, #9FAAC4)" d="M71.048 123.87c4.985-2.06 8.475-6.822 8.475-12.368 0-7.432-6.268-13.457-14-13.457-7.731 0-14 6.025-14 13.457 0 5.538 3.482 10.295 8.456 12.36v6.863c0 2.938 2.478 5.32 5.534 5.32 3.057 0 5.535-2.382 5.535-5.32z"/></g><defs><clipPath id="aa"><path fill="var(--white, #fff)" d="M.223.443h139.999v170H.223z"/></clipPath></defs></symbol></svg>