<?xml version="1.0" encoding="utf-8"?><svg xmlns="http://www.w3.org/2000/svg" xmlns:xlink="http://www.w3.org/1999/xlink"><symbol fill="none" viewBox="0 0 141 170" id="0"><g clip-path="url(#aa)"><path fill="var(--casper, #9FAAC4)" stroke="var(--casper, #9FAAC4)" stroke-width="2.009" d="M11.024 65.418a5.023 5.023 0 0 1 5.023-5.022H125c.731 0 1.453.159 2.115.467l9.612 4.463a5.02 5.02 0 0 1 2.908 4.555v86.493a5.02 5.02 0 0 1-1.855 3.897l-9.349 7.599a5.02 5.02 0 0 1-3.168 1.126l-109.216-.001a5.02 5.02 0 0 1-5.023-5.022z"/><path fill="var(--casper, #9FAAC4)" fill-rule="evenodd" d="M76.465 14.063h-3.656c-17.752 0-32.144 14.392-32.144 32.145v20.236h67.944V46.208c0-17.753-14.391-32.145-32.144-32.145M72.809 0C47.29 0 26.602 20.688 26.602 46.208v34.3h96.071v-34.3C122.673 20.688 101.985 0 76.465 0z" clip-rule="evenodd"/><path fill="var(--mystic, #D2D6E7)" fill-rule="evenodd" d="M69.43 14.063h-3.656c-17.753 0-32.144 14.392-32.144 32.145v20.236h67.944V46.208c0-17.753-14.391-32.145-32.144-32.145M65.773 0c-25.52 0-46.208 20.688-46.208 46.208v34.3h96.071v-34.3C115.637 20.688 94.949 0 69.43 0h-3.656Z" clip-rule="evenodd"/><path fill="var(--casper, #9FAAC4)" d="M19.566 59.429h16.71V54.26l-16.71 3.569v1.599Zm82.172 0h16.709V54.26l-16.709 3.569v1.599Z"/><rect width="130.767" height="110.609" x=".641" y="59.391" fill="var(--porcelain, #ECEEF5)" rx="6.027"/><mask id="ab" width="132" height="111" x="0" y="59" maskUnits="userSpaceOnUse" style="mask-type:alpha"><rect width="130.767" height="110.609" x=".641" y="59.391" fill="var(--porcelain, #ECEEF5)" rx="6.027"/></mask><g mask="url(#ab)"><path fill="var(--mystic, #D2D6E7)" d="M131.407 59.391V170H.641c89.84 0 115.621-70.299 115.621-110.609z"/></g><path fill="var(--casper, #9FAAC4)" d="M71.466 123.427c4.985-2.06 8.475-6.823 8.475-12.369 0-7.432-6.268-13.456-14-13.456s-14 6.024-14 13.456c0 5.539 3.482 10.296 8.456 12.36v6.864c0 2.938 2.478 5.32 5.534 5.32 3.057 0 5.535-2.382 5.535-5.32z"/></g><defs><clipPath id="aa"><path fill="var(--white, #fff)" d="M.64 0h140v170H.64z"/></clipPath></defs></symbol></svg>