<?xml version="1.0" encoding="utf-8"?><svg xmlns="http://www.w3.org/2000/svg" xmlns:xlink="http://www.w3.org/1999/xlink"><symbol fill="none" viewBox="0 0 180 124" id="0"><g clip-path="url(#aa)"><path fill="var(--athens,#F7F8FB)" d="M.02 15.168c7.426 32.42 25.243 54.924 57.725 67.772l-.02 20.263c10.726 11.959 19.1 15.356 34.507 20.807l6.074-20.668c8.404-.109 10.409-3.318 16.088-12.453.503-.81 1.007-1.62 1.501-2.43 3.131-5.104 4.414-11.247 2.528-16.935C103.945 27.828 39.711-6.063.296 14.704c-.118-.07-.375.355-.276.464"/><path stroke="var(--waterloo,#7A859E)" stroke-width="1.5" d="M52.63 46.936c7.64 0 13.836-6.194 13.836-13.835 0-7.64-6.195-13.835-13.837-13.835S38.793 25.46 38.793 33.101c0 7.64 6.195 13.835 13.836 13.835Z"/><path fill="var(--waterloo,#7A859E)" fill-rule="evenodd" d="m90.357 22.394 17.718-9.376.279.07c7.86 1.972 13.562 4.433 18.817 7.811 5.24 3.368 10.016 7.635 16.016 13.172l.582.536-15.62 15.19c1.762 3.594 2.23 6.354 1.531 9.359-.702 3.019-2.581 6.235-5.226 10.763l-.08.137a445 445 0 0 1-6.272 10.396l-.069.11c-2.778 4.464-4.75 7.634-7.099 9.668-2.332 2.02-4.992 2.895-8.992 3.017L95.8 114.148l-.747-.264c-7.698-2.724-13.702-4.955-19.127-8.017-5.441-3.071-10.279-6.965-15.688-12.996l-.192-.214.02-20.041C44.01 66.215 32.865 59.133 24.11 48.713 15.295 38.222 8.953 24.405 2.407 4.655a.93.93 0 0 1-.072-.595c.032-.16.098-.302.162-.41.063-.104.16-.235.295-.34a.92.92 0 0 1 .572-.199C23.87-.313 39.043-1.15 52.43 1.748c13.303 2.88 24.77 9.434 37.927 20.646M3.947 4.534c6.488 19.51 12.734 33.007 21.311 43.214C33.885 58.015 44.92 65.013 61.092 71.41l.475.187-.02 20.486c5.238 5.806 9.9 9.534 15.116 12.478 5.124 2.892 10.8 5.038 18.144 7.645l6.007-20.44.553-.007c4.092-.053 6.5-.857 8.585-2.662 2.156-1.867 4.012-4.834 6.876-9.437 2.14-3.44 4.21-6.871 6.251-10.36 2.735-4.683 4.494-7.708 5.14-10.484.625-2.685.212-5.188-1.654-8.833l-.253-.493 15.276-14.854c-5.732-5.278-10.279-9.295-15.228-12.475-5.037-3.238-10.512-5.622-18.092-7.548l-18.112 9.584-.387-.333C76.56 12.546 65.22 6.052 52.112 3.214 39.082.392 24.23 1.167 3.948 4.534" clip-rule="evenodd"/><path fill="var(--orange-light-2,#FFE7CA)" d="m159.567 121.334 11.317-3.832-.987-8.453c-2.301-19.641-18.863-34.503-38.635-34.67a3.46 3.46 0 0 0-2.973 1.648l-15.021 24.678a3.45 3.45 0 0 0-.02 3.555c9.471 15.889 28.779 23.018 46.319 17.074"/><path fill="var(--orange,#FFAD4D)" fill-rule="evenodd" d="M136.862 66.037a.75.75 0 0 1 .757-.743c21.265.19 39.082 16.176 41.556 37.299l.83 7.12-9.926 3.364c-19.021 6.454-39.952-1.276-50.236-18.525a.75.75 0 1 1 1.288-.768c9.923 16.642 30.116 24.099 48.466 17.873l8.778-2.975-.69-5.915c-2.386-20.372-19.57-35.79-40.08-35.973a.75.75 0 0 1-.743-.757" clip-rule="evenodd"/></g><defs><clipPath id="aa"><path fill="#fff" d="M0 0h180v124H0z"/></clipPath></defs></symbol></svg>