<?xml version="1.0" encoding="utf-8"?><svg xmlns="http://www.w3.org/2000/svg" xmlns:xlink="http://www.w3.org/1999/xlink"><symbol fill="none" viewBox="0 0 38 38" id="0"><circle cx="19" cy="19" r="18.5" fill="#fff" stroke="#E7EAF3"/><path fill="#2F354D" d="M9 18.65c0-.55.14-.97.4-1.24.28-.28.65-.42 1.1-.42q.705 0 1.11.42c.27.27.4.69.4 1.24 0 .57-.13 1-.4 1.27s-.64.41-1.1.41-.83-.14-1.1-.41c-.27-.28-.41-.7-.41-1.27m6.55 5.06a6.6 6.6 0 0 0 3.14.86c.66 0 1.22-.16 1.69-.49q.69-.495.69-1.59c0-.61-.14-1.12-.42-1.52s-.64-.75-1.07-1.07c-.44-.31-.9-.6-1.4-.87a7.6 7.6 0 0 1-1.41-.96 4 4 0 0 1-1.5-3.27c0-1.26.35-2.2 1.05-2.84s1.67-.96 2.94-.96c.82 0 1.54.07 2.14.22s1.13.35 1.57.6l-.57 1.78a6.3 6.3 0 0 0-2.87-.68c-.72 0-1.25.15-1.58.45-.34.3-.5.75-.5 1.39 0 .49.14.9.42 1.25s.64.66 1.07.95c.43.28.9.57 1.4.87a8 8 0 0 1 1.4 1.05c.44.4.8.89 1.08 1.45s.42 1.27.42 2.11c0 .55-.09 1.08-.27 1.57-.18.5-.46.92-.83 1.28-.37.37-.83.66-1.39.88-.55.21-1.2.32-1.94.32a9.2 9.2 0 0 1-2.3-.25 5.9 5.9 0 0 1-1.63-.66zm10.43-5.06c0-.55.14-.97.41-1.24.27-.28.64-.42 1.1-.42.47 0 .83.14 1.1.42.28.27.41.69.41 1.24 0 .57-.13 1-.4 1.27-.28.27-.64.41-1.1.41-.47 0-.84-.14-1.1-.41-.28-.28-.42-.7-.42-1.27"/></symbol></svg>