<?xml version="1.0" encoding="utf-8"?><svg xmlns="http://www.w3.org/2000/svg" xmlns:xlink="http://www.w3.org/1999/xlink"><symbol fill="none" viewBox="0 0 67 22" id="0"><path fill="var(--rhino,#2F354D)" d="M.544 15.256q.495.286 1.164.501.693.19 1.41.191.817 0 1.386-.382.57-.405.57-1.29 0-.74-.347-1.217a3.7 3.7 0 0 0-.891-.86 8 8 0 0 0-1.138-.692 7 7 0 0 1-1.164-.788 4 4 0 0 1-.866-1.074Q.322 9.024.322 8.069q0-1.528.841-2.292.867-.788 2.425-.788 1.015 0 1.758.19.743.168 1.287.478l-.47 1.433a4.8 4.8 0 0 0-1.09-.382 4.8 4.8 0 0 0-1.262-.167q-.89 0-1.311.358-.396.359-.396 1.122 0 .597.346 1.027.347.405.866.764.545.334 1.163.692a6 6 0 0 1 1.139.86q.545.477.89 1.17.347.667.347 1.695 0 .668-.222 1.265a2.8 2.8 0 0 1-.693 1.05q-.446.43-1.139.693-.667.264-1.584.263-1.09 0-1.88-.215-.793-.19-1.337-.525zM8.98 5.992q.72-.43 1.733-.669a9.7 9.7 0 0 1 2.178-.239q1.04 0 1.658.31.645.287.99.812.371.502.47 1.17.124.645.124 1.361 0 1.433-.074 2.794-.05 1.36-.05 2.579 0 .907.05 1.695.075.765.247 1.456h-1.36l-.421-1.408h-.1q-.37.62-1.088 1.074-.718.453-1.93.454-1.338 0-2.203-.884-.842-.907-.842-2.483 0-1.026.347-1.72a3.1 3.1 0 0 1 1.014-1.121 4.3 4.3 0 0 1 1.56-.597 10 10 0 0 1 2.029-.191h.495q.247 0 .52.024.074-.74.074-1.313 0-1.362-.42-1.91-.422-.55-1.535-.55-.693 0-1.51.215-.816.191-1.361.502zm5.371 5.778a5 5 0 0 0-.495-.024 5 5 0 0 0-.495-.024q-.594 0-1.163.095t-1.014.335-.718.644q-.248.405-.248 1.027 0 .955.47 1.48.495.526 1.263.526 1.04 0 1.608-.478.57-.477.792-1.05zM25.35 17.214V9.93q-.001-1.79-.446-2.578-.42-.812-1.535-.812-.99 0-1.633.573a3.36 3.36 0 0 0-.94 1.408v8.692h-1.782V5.275H20.3l.321 1.266h.075q.47-.645 1.262-1.099.816-.453 1.93-.453.792 0 1.386.215.618.215 1.015.74.42.502.618 1.36.223.86.223 2.174v7.736zM29.89.5h1.781v5.683h.075q1.014-1.194 2.697-1.194 1.906 0 2.846 1.456.965 1.457.965 4.608 0 3.224-1.287 4.8-1.261 1.575-3.588 1.575-1.14 0-2.079-.238-.94-.263-1.41-.597zm1.781 14.97q.347.192.842.31.52.097 1.089.096 1.287 0 2.029-1.17.767-1.193.767-3.653 0-1.026-.148-1.838-.124-.836-.421-1.433-.272-.597-.742-.907-.446-.334-1.09-.334-.89 0-1.484.525-.57.501-.842 1.385zM40.496 5.992q.718-.43 1.733-.669a9.7 9.7 0 0 1 2.178-.239q1.039 0 1.658.31.644.287.99.812.37.502.47 1.17.124.645.124 1.361 0 1.433-.075 2.794-.05 1.36-.05 2.579 0 .907.05 1.695.074.765.248 1.456H46.46l-.421-1.408h-.1q-.37.62-1.088 1.074-.718.453-1.93.454-1.336 0-2.203-.884-.84-.907-.841-2.483 0-1.026.346-1.72a3.1 3.1 0 0 1 1.015-1.121 4.3 4.3 0 0 1 1.559-.597 10 10 0 0 1 2.03-.191h.494q.247 0 .52.024.075-.74.074-1.313 0-1.362-.42-1.91-.422-.55-1.535-.55-.693 0-1.51.215-.816.191-1.36.502zm5.37 5.778a5 5 0 0 0-.494-.024 5 5 0 0 0-.495-.024q-.594 0-1.163.095t-1.015.335-.718.644q-.247.405-.247 1.027 0 .955.47 1.48.494.526 1.262.526 1.04 0 1.609-.478.57-.477.792-1.05zM50.331 15.256q.495.286 1.163.501.693.19 1.41.191.817 0 1.387-.382.57-.405.569-1.29 0-.74-.346-1.217a3.7 3.7 0 0 0-.891-.86 8 8 0 0 0-1.139-.692 7 7 0 0 1-1.163-.788 4 4 0 0 1-.866-1.074q-.347-.621-.347-1.576 0-1.528.842-2.292.866-.788 2.425-.788 1.015 0 1.757.19.743.168 1.287.478l-.47 1.433a4.8 4.8 0 0 0-1.089-.382 4.8 4.8 0 0 0-1.262-.167q-.89 0-1.312.358-.396.359-.396 1.122 0 .597.347 1.027.346.405.866.764.544.334 1.163.692.62.359 1.138.86.544.477.891 1.17.347.667.347 1.695 0 .668-.223 1.265a2.8 2.8 0 0 1-.693 1.05q-.445.43-1.138.693-.669.264-1.584.263-1.089 0-1.881-.215-.792-.19-1.336-.525zM66.291 16.402q-.594.525-1.51.811a6.4 6.4 0 0 1-1.93.287q-1.163 0-2.03-.43a4.06 4.06 0 0 1-1.41-1.265q-.544-.836-.817-1.982-.247-1.146-.247-2.579 0-3.056 1.163-4.656t3.291-1.6q.693 0 1.362.168.693.167 1.237.668.545.502.866 1.41.347.906.347 2.363 0 .405-.05.883-.024.454-.074.955h-6.286q0 1.027.173 1.863.173.835.545 1.432.37.573.94.908.594.31 1.46.31.669 0 1.312-.239.668-.239 1.014-.573zm-1.386-6.4q.05-1.79-.52-2.626t-1.559-.835q-1.138 0-1.806.835-.669.837-.792 2.627z"/></symbol></svg>