<?xml version="1.0" encoding="utf-8"?><svg xmlns="http://www.w3.org/2000/svg" xmlns:xlink="http://www.w3.org/1999/xlink"><symbol fill="none" viewBox="0 0 171 16" id="0"><path fill="var(--black,#181B2B)" d="M37.79 1.2c0-.35.11-.64.34-.87q.345-.33.9-.33c.38 0 .69.1.94.32.24.22.37.51.37.88 0 .36-.13.64-.37.84q-.375.3-.93.3c-.38 0-.68-.1-.91-.31a1.06 1.06 0 0 1-.34-.83m2.16 3.39v11.14h-1.83V4.6h1.83Zm-8.87 0h-1.56v1.45h1.56v6.86c0 1.09.18 1.87.54 2.35.37.49.98.73 1.83.73a6.8 6.8 0 0 0 2.65-.54l-.36-1.27c-.28.1-.55.2-.8.26-.25.07-.54.1-.88.1-.4 0-.7-.15-.88-.43a2.8 2.8 0 0 1-.27-1.42V6.04h2.76V4.59H32.9V1.87l-1.83.51V4.6ZM.56 13.9a5.95 5.95 0 0 0 2.66.65c.56 0 1.03-.12 1.42-.37q.6-.36.6-1.2c0-.46-.13-.84-.37-1.14a3.5 3.5 0 0 0-.9-.8 10 10 0 0 0-1.19-.67c-.42-.2-.82-.44-1.19-.72a3.7 3.7 0 0 1-.9-1A2.74 2.74 0 0 1 .33 7.2c0-.95.3-1.66.88-2.14a3.82 3.82 0 0 1 2.49-.73c.7 0 1.3.06 1.81.17s.95.26 1.33.46l-.49 1.33a5.8 5.8 0 0 0-2.42-.5c-.61 0-1.06.1-1.34.33-.28.22-.42.57-.42 1.04 0 .37.12.7.36.95.23.26.54.5.9.71.37.22.76.44 1.19.66.42.22.82.49 1.18.8a3.21 3.21 0 0 1 1.26 2.68 2.68 2.68 0 0 1-.92 2.15c-.32.27-.7.5-1.18.65a5 5 0 0 1-1.64.25c-.75 0-1.4-.06-1.94-.19-.55-.13-1-.3-1.38-.5l.56-1.4Z"/><path fill="var(--black,#181B2B)" fill-rule="evenodd" d="M11.06 4.64c-.7.14-1.3.35-1.8.62l.61 1.27a7 7 0 0 1 2.93-.67c.76 0 1.28.17 1.57.51s.43.94.43 1.78c0 .36-.03.77-.08 1.23a7 7 0 0 0-.53-.02h-.5c-.76 0-1.45.05-2.07.16a4.9 4.9 0 0 0-1.59.57c-.45.27-.8.62-1.04 1.05a3.2 3.2 0 0 0-.36 1.6c0 .99.29 1.75.87 2.31a3.1 3.1 0 0 0 2.24.84c.83 0 1.49-.14 1.98-.43a3.1 3.1 0 0 0 1.11-1h.1l.45 1.32h1.44c-.12-.44-.2-.9-.25-1.37-.04-.49-.07-1.01-.07-1.58 0-.75.03-1.56.07-2.4.04-.85.07-1.72.07-2.6q0-.675-.12-1.29c-.07-.4-.24-.77-.48-1.1a2.5 2.5 0 0 0-1.02-.75 4.6 4.6 0 0 0-1.73-.28c-.78 0-1.52.08-2.23.23m3.18 5.98c.17 0 .34.02.5.03v2.36c-.14.36-.41.69-.8.98-.39.3-.93.45-1.64.45-.52 0-.94-.16-1.27-.49s-.5-.79-.5-1.38c0-.39.1-.7.27-.96q.27-.375.72-.6c.3-.15.65-.25 1.03-.31a8 8 0 0 1 1.7-.08Z" clip-rule="evenodd"/><path fill="var(--black,#181B2B)" d="M26.13 15.73v-6.8a4.9 4.9 0 0 0-.45-2.41c-.3-.5-.83-.75-1.6-.75a2.6 2.6 0 0 0-1.68.54c-.44.35-.76.8-.97 1.31v8.11H19.6V4.6h1.33l.33 1.18h.08c.32-.4.76-.74 1.31-1.02a4.3 4.3 0 0 1 1.98-.43c.54 0 1.02.07 1.44.2.42.14.77.36 1.05.68s.5.75.64 1.28c.14.54.21 1.22.21 2.03v7.22h-1.83Zm23.19-6.62v6.62h1.83V7.71c.16-.6.43-1.07.8-1.41.4-.35.9-.53 1.55-.53.77 0 1.26.24 1.47.71.21.48.32 1.2.32 2.17v7.08h1.83V8.45c0-.8-.06-1.47-.17-2-.12-.53-.3-.95-.55-1.27a1.93 1.93 0 0 0-.97-.67 4.82 4.82 0 0 0-3.32.26c-.57.3-1 .7-1.31 1.22a2.45 2.45 0 0 0-.98-1.3 3.1 3.1 0 0 0-1.6-.37c-.77 0-1.4.14-1.89.4-.5.27-.92.62-1.27 1.05h-.08l-.33-1.18h-1.3v11.14h1.83V7.71c.16-.5.43-.95.83-1.35a2 2 0 0 1 1.47-.59c.4 0 .7.06.94.2.24.12.43.31.57.58.13.27.22.61.26 1.04.05.42.07.93.07 1.52"/><path fill="var(--black,#181B2B)" fill-rule="evenodd" d="M67.58 14.97c-.4.33-.92.58-1.55.76s-1.3.27-2 .27a4.9 4.9 0 0 1-2.07-.41 3.8 3.8 0 0 1-1.45-1.18 5.1 5.1 0 0 1-.85-1.84 10 10 0 0 1-.26-2.4q0-2.865 1.2-4.35c.8-1 1.92-1.5 3.39-1.5.47 0 .95.05 1.41.16a2.95 2.95 0 0 1 2.17 1.94c.23.56.35 1.3.35 2.2 0 .26-.02.53-.04.82l-.09.9h-6.48q0 .96.18 1.74c.18.78.3.96.56 1.32.25.37.58.65.98.85q.6.3 1.5.3c.45 0 .9-.07 1.36-.22a3 3 0 0 0 1.03-.54zM66.16 9c.03-1.11-.15-1.93-.54-2.45a1.9 1.9 0 0 0-1.6-.78c-.79 0-1.41.26-1.87.78s-.73 1.34-.82 2.45z" clip-rule="evenodd"/><path fill="var(--black,#181B2B)" d="M77.02 8.94v6.8h1.84V8.5c0-.81-.07-1.49-.22-2.03a3.16 3.16 0 0 0-.63-1.28 2.3 2.3 0 0 0-1.05-.68c-.42-.13-.9-.2-1.44-.2a4.3 4.3 0 0 0-1.98.43c-.55.28-.99.62-1.31 1.02h-.08l-.33-1.18h-1.33v11.14h1.84v-8.1c.2-.53.53-.97.97-1.32q.66-.54 1.68-.54c.77 0 1.3.25 1.6.75s.44 1.3.44 2.42Zm3.4-4.35h1.55v-2.2l1.84-.52V4.6h2.76v1.45H83.8v6.64c0 .65.09 1.13.27 1.42.18.28.47.43.88.43.34 0 .63-.03.88-.1s.51-.15.8-.26l.36 1.27a6.5 6.5 0 0 1-2.65.54c-.85 0-1.46-.24-1.83-.73-.36-.48-.55-1.26-.55-2.35V6.04h-1.55V4.59Z"/><path fill="var(--waterloo,#7A859E)" d="M97.56 9.94c0 .64-.57 1.16-1.28 1.16-.7 0-1.28-.52-1.28-1.16s.57-1.17 1.28-1.17c.7 0 1.28.53 1.28 1.17m7.37 3.95a5.6 5.6 0 0 0 2.57.65 2.6 2.6 0 0 0 1.4-.36c.37-.25.56-.66.56-1.21 0-.47-.11-.85-.35-1.15a3.3 3.3 0 0 0-.89-.8 8 8 0 0 0-1.14-.66c-.4-.21-.8-.46-1.16-.74a3.8 3.8 0 0 1-.86-1.01 2.9 2.9 0 0 1-.35-1.49c0-.96.28-1.67.84-2.15a3.6 3.6 0 0 1 2.43-.75c.67 0 1.26.06 1.75.18.5.1.93.26 1.29.45l-.47 1.35a5 5 0 0 0-1.09-.36 5.3 5.3 0 0 0-1.26-.15c-.6 0-1.03.1-1.31.33-.27.23-.4.58-.4 1.06 0 .37.12.7.35.96s.52.5.86.72l1.17.66c.4.22.79.49 1.13.8a3.28 3.28 0 0 1 1.24 2.7c0 .42-.07.82-.22 1.2-.15.37-.38.7-.7.98-.29.27-.67.49-1.13.65-.45.17-.97.25-1.58.25a8 8 0 0 1-1.89-.2 4.8 4.8 0 0 1-1.33-.5zm8.44-8.72a6.3 6.3 0 0 1 1.73-.63c.7-.15 1.42-.23 2.18-.23.7 0 1.24.1 1.66.3.43.18.76.43.99.76.24.32.4.68.47 1.1.08.4.12.83.12 1.28a45 45 0 0 1-.07 2.63 52 52 0 0 0 0 4.03c.05.47.13.93.24 1.37h-1.36l-.42-1.33h-.1a3.2 3.2 0 0 1-1.09 1.01c-.47.29-1.12.43-1.93.43-.89 0-1.62-.28-2.2-.83a3.2 3.2 0 0 1-.84-2.34c0-.65.11-1.18.35-1.62.24-.43.58-.79 1.01-1.06.45-.26.97-.45 1.56-.56.61-.12 1.29-.18 2.03-.18h.5l.51.03c.05-.47.08-.88.08-1.24q0-1.275-.42-1.8c-.28-.34-.8-.51-1.54-.51-.46 0-.96.06-1.5.2-.55.12-1 .27-1.37.47l-.6-1.28Zm5.37 5.44a6 6 0 0 0-.5-.03 7.5 7.5 0 0 0-1.66.07c-.37.06-.71.17-1 .32-.3.15-.55.35-.73.6-.16.26-.24.58-.24.97 0 .6.15 1.06.47 1.4.33.32.75.49 1.26.49.7 0 1.23-.15 1.6-.45.39-.3.65-.63.8-1zm11 5.12V8.88q0-1.695-.45-2.43c-.28-.51-.8-.76-1.53-.76-.66 0-1.2.18-1.64.53-.43.36-.74.8-.94 1.33v8.18h-1.78V4.49h1.29l.32 1.2h.07a3.91 3.91 0 0 1 3.2-1.47c.52 0 .99.07 1.38.2.41.14.75.37 1.02.7.28.32.48.75.62 1.28.14.54.22 1.23.22 2.05v7.28zM134.28 0h1.78v5.35h.07a3.46 3.46 0 0 1 2.7-1.13q1.905 0 2.85 1.38c.64.9.96 2.36.96 4.33 0 2.03-.43 3.53-1.28 4.52a4.45 4.45 0 0 1-3.6 1.48c-.75 0-1.45-.07-2.07-.22a4.8 4.8 0 0 1-1.41-.56zm1.78 14.09q.345.18.84.3c.35.05.7.08 1.09.08.86 0 1.53-.37 2.03-1.1.51-.75.76-1.9.76-3.44 0-.64-.04-1.22-.14-1.73a4.3 4.3 0 0 0-.42-1.35 2 2 0 0 0-1.84-1.16c-.59 0-1.08.16-1.48.49-.38.31-.66.75-.84 1.3zm8.82-8.92a6.3 6.3 0 0 1 1.74-.63c.69-.15 1.41-.23 2.17-.23.7 0 1.25.1 1.66.3a2.35 2.35 0 0 1 1.46 1.86c.09.4.13.83.13 1.28 0 .9-.03 1.78-.08 2.63-.03.86-.05 1.66-.05 2.43 0 .57.02 1.1.05 1.6.05.47.13.93.25 1.37h-1.36l-.42-1.33h-.1a3.1 3.1 0 0 1-1.1 1.01c-.47.29-1.11.43-1.92.43-.9 0-1.63-.28-2.2-.83a3.18 3.18 0 0 1-.85-2.34c0-.65.12-1.18.35-1.62.25-.43.59-.79 1.02-1.06a4.5 4.5 0 0 1 1.56-.56c.6-.12 1.28-.18 2.03-.18h.49l.52.03c.05-.47.07-.88.07-1.24q0-1.275-.42-1.8-.42-.51-1.53-.51c-.46 0-.97.06-1.51.2a5 5 0 0 0-1.36.47zm5.37 5.44a6 6 0 0 0-.5-.03 7.4 7.4 0 0 0-1.66.07c-.37.06-.7.17-1 .32q-.45.225-.72.6c-.17.26-.25.58-.25.97a2 2 0 0 0 .47 1.4c.33.32.75.49 1.26.49.7 0 1.23-.15 1.61-.45s.64-.63.8-1v-2.37Zm4.47 3.28a5.6 5.6 0 0 0 2.57.65c.55 0 1-.12 1.39-.36.38-.25.57-.66.57-1.21 0-.47-.12-.85-.35-1.15s-.53-.57-.89-.8a8 8 0 0 0-1.14-.66 7 7 0 0 1-1.16-.74 3.8 3.8 0 0 1-.87-1.01 2.87 2.87 0 0 1-.34-1.49c0-.96.28-1.67.84-2.15.57-.5 1.38-.75 2.42-.75.68 0 1.27.06 1.76.18.5.1.92.26 1.29.45l-.47 1.35a5 5 0 0 0-1.1-.36A5 5 0 0 0 158 5.7c-.6 0-1.04.1-1.32.33-.26.23-.4.58-.4 1.06 0 .37.12.7.35.96q.345.39.87.72l1.16.66c.42.22.8.49 1.14.8a3.28 3.28 0 0 1 1.24 2.7c0 .42-.07.82-.22 1.2-.15.37-.38.7-.7.98-.3.27-.67.49-1.14.65a4.4 4.4 0 0 1-1.58.25c-.72 0-1.35-.07-1.88-.2a4.8 4.8 0 0 1-1.34-.5l.55-1.41Zm15.96 1.08c-.4.33-.9.58-1.51.76a6.8 6.8 0 0 1-1.93.27c-.78 0-1.45-.13-2.03-.4a4 4 0 0 1-1.41-1.2 5.7 5.7 0 0 1-.82-1.86 11.2 11.2 0 0 1-.25-2.43c0-1.92.4-3.38 1.17-4.38s1.87-1.5 3.29-1.5c.46 0 .91.05 1.36.15.46.1.87.32 1.24.63.36.32.65.76.86 1.33a7.6 7.6 0 0 1 .3 3.06l-.07.9h-6.29c0 .64.06 1.22.17 1.74.12.53.3.98.55 1.35.25.36.56.65.94.86a3.95 3.95 0 0 0 3.79-.47zm-1.39-6.03c.03-1.12-.14-1.94-.52-2.47q-.57-.78-1.56-.78c-.75 0-1.36.26-1.8.78a4.27 4.27 0 0 0-.8 2.47z"/></symbol></svg>