<svg width="134" height="41" viewBox="0 0 134 41" fill="none" xmlns="http://www.w3.org/2000/svg">
<path d="M19.282 7.192C19.4887 7.27467 19.7367 7.33667 20.026 7.378C20.3153 7.41933 20.584 7.502 20.832 7.626C20.8733 7.626 20.9147 7.64667 20.956 7.688C20.9973 7.688 21.0593 7.688 21.142 7.688C21.0593 7.85333 20.956 7.998 20.832 8.122C20.46 8.122 20.1087 8.08067 19.778 7.998C19.4473 7.91533 19.0753 7.83267 18.662 7.75C18.6207 7.75 18.5793 7.77067 18.538 7.812C18.538 7.812 18.5173 7.812 18.476 7.812C18.104 7.77067 17.732 7.75 17.36 7.75C16.988 7.75 16.616 7.70867 16.244 7.626C16.244 7.626 16.2027 7.60533 16.12 7.564C16.0787 7.60533 15.996 7.626 15.872 7.626C15.7893 7.54333 15.7067 7.502 15.624 7.502C15.5827 7.502 15.5207 7.48133 15.438 7.44C15.2313 7.48133 15.0453 7.52267 14.88 7.564C14.7147 7.564 14.5287 7.52267 14.322 7.44H14.136C14.0947 7.48133 14.0327 7.502 13.95 7.502C13.826 7.54333 13.6813 7.564 13.516 7.564C13.392 7.564 13.268 7.564 13.144 7.564C13.1027 7.564 13.0407 7.564 12.958 7.564C12.9167 7.52267 12.8753 7.502 12.834 7.502C12.7513 7.502 12.648 7.52267 12.524 7.564C12.4413 7.564 12.3587 7.564 12.276 7.564L12.152 7.688C12.0693 7.77067 11.966 7.812 11.842 7.812C11.718 7.812 11.6147 7.83267 11.532 7.874C11.4493 7.874 11.5733 7.874 11.904 7.874C12.276 7.874 12.6687 7.874 13.082 7.874C13.5367 7.83267 13.95 7.812 14.322 7.812C14.694 7.812 14.8387 7.812 14.756 7.812C14.7147 7.812 14.6733 7.812 14.632 7.812C14.632 7.77067 14.6113 7.75 14.57 7.75C14.4047 7.70867 14.198 7.688 13.95 7.688H13.64H13.516C13.4333 7.688 13.3507 7.688 13.268 7.688C13.1853 7.64667 13.1027 7.626 13.02 7.626C12.7307 7.66733 12.462 7.66733 12.214 7.626L11.78 7.564H11.656H11.594H11.532C11.408 7.44 11.3047 7.46067 11.222 7.626V7.688C11.1807 7.688 11.16 7.70867 11.16 7.75C11.16 7.75 11.1187 7.79133 11.036 7.874C10.9947 7.91534 10.8913 8.06 10.726 8.308C10.726 8.51467 10.6847 8.70067 10.602 8.866C10.478 8.99 10.416 9.052 10.416 9.052C10.2093 9.25867 10.044 9.486 9.92 9.734C9.83733 9.94067 9.734 10.168 9.61 10.416C9.486 10.7053 9.38267 10.974 9.3 11.222C9.21733 11.47 9.114 11.7387 8.99 12.028C8.90733 12.2347 8.78333 12.4413 8.618 12.648C8.494 12.8133 8.45267 13.0407 8.494 13.33C8.45267 13.4127 8.41133 13.516 8.37 13.64C8.32867 13.764 8.308 13.8673 8.308 13.95C8.308 14.198 8.20467 14.384 7.998 14.508C7.998 14.5907 7.97733 14.632 7.936 14.632C7.936 14.6733 7.91533 14.7147 7.874 14.756C7.874 14.9627 7.79133 15.3347 7.626 15.872C7.46067 16.4093 7.35733 16.74 7.316 16.864C7.316 16.988 7.33667 17.0913 7.378 17.174C7.33667 17.2153 7.316 17.2567 7.316 17.298C7.316 17.298 7.29533 17.3187 7.254 17.36L7.316 17.422C7.35733 17.7113 7.254 17.98 7.006 18.228C6.79933 18.476 6.65467 18.724 6.572 18.972L6.448 19.096C6.448 19.22 6.40667 19.3233 6.324 19.406C6.40667 19.4473 6.46867 19.468 6.51 19.468C6.55133 19.468 6.61333 19.4887 6.696 19.53C6.82 19.53 6.944 19.53 7.068 19.53C7.23333 19.4887 7.378 19.4887 7.502 19.53C7.58467 19.53 7.64667 19.5093 7.688 19.468C7.85333 19.468 7.95667 19.4887 7.998 19.53H8.928C9.01067 19.53 9.052 19.53 9.052 19.53C9.09333 19.4887 9.15533 19.468 9.238 19.468H9.486C9.81667 19.4267 10.1473 19.468 10.478 19.592L10.788 19.654H10.974C11.1807 19.654 11.346 19.6747 11.47 19.716C11.5527 19.716 11.6147 19.7367 11.656 19.778C11.78 19.778 11.8833 19.8193 11.966 19.902H12.152C12.2347 19.902 12.2967 19.9227 12.338 19.964C12.462 19.964 12.5653 19.9847 12.648 20.026C12.6893 20.0673 12.7307 20.088 12.772 20.088C12.8133 20.088 12.8753 20.1087 12.958 20.15L13.144 20.212C13.1853 20.2533 13.206 20.274 13.206 20.274C13.2473 20.274 13.2887 20.2947 13.33 20.336C13.6193 20.5013 13.8673 20.6873 14.074 20.894C14.322 21.0593 14.5493 21.2453 14.756 21.452C14.7973 21.4933 14.818 21.5347 14.818 21.576C14.8593 21.6173 14.9213 21.6793 15.004 21.762C15.1693 21.9273 15.2727 22.0513 15.314 22.134C15.3553 22.134 15.4173 22.1753 15.5 22.258C15.5413 22.258 15.6033 22.2993 15.686 22.382C15.7273 22.4647 15.7893 22.5473 15.872 22.63C15.872 22.6713 15.872 22.7127 15.872 22.754C15.9133 22.754 15.934 22.7747 15.934 22.816C15.934 22.816 15.934 22.878 15.934 23.002C16.0167 23.0847 16.058 23.188 16.058 23.312V23.684V23.87V24.118C16.0993 24.1593 16.12 24.2213 16.12 24.304C16.0373 24.3867 15.996 24.5107 15.996 24.676C15.996 24.676 15.996 24.7793 15.996 24.986V25.234V25.358V25.482C15.996 25.5647 15.9753 25.606 15.934 25.606C15.934 25.6887 15.9133 25.7507 15.872 25.792C15.872 25.792 15.872 25.8127 15.872 25.854V25.916C15.9547 26.0813 15.9547 26.226 15.872 26.35C15.872 26.4327 15.8307 26.598 15.748 26.846C15.7067 26.97 15.6447 27.094 15.562 27.218C15.5207 27.342 15.4793 27.4867 15.438 27.652C15.314 27.8587 15.2313 27.8793 15.19 27.714C15.19 27.5487 15.1487 27.59 15.066 27.838C14.9833 27.9207 14.942 28.0033 14.942 28.086C14.942 28.1273 14.9213 28.1893 14.88 28.272L14.632 28.644C14.5493 28.768 14.4667 28.892 14.384 29.016C14.3427 29.14 14.2807 29.3053 14.198 29.512C14.1153 29.5947 14.074 29.698 14.074 29.822C14.074 29.946 14.012 30.0493 13.888 30.132C13.8467 30.2147 13.764 30.318 13.64 30.442C13.392 30.69 13.144 30.9587 12.896 31.248C12.648 31.5373 12.3793 31.806 12.09 32.054C11.9247 32.178 11.78 32.302 11.656 32.426C11.5733 32.55 11.47 32.674 11.346 32.798C11.1393 32.922 10.9947 33.046 10.912 33.17C10.788 33.2113 10.6433 33.3147 10.478 33.48C10.23 33.6867 9.96133 33.8727 9.672 34.038C9.424 34.162 9.19667 34.348 8.99 34.596C8.866 34.6787 8.76267 34.7613 8.68 34.844C8.59733 34.9267 8.47333 35.0093 8.308 35.092C8.184 35.1747 8.08067 35.2573 7.998 35.34C7.91533 35.3813 7.79133 35.4227 7.626 35.464C7.58467 35.464 7.54333 35.4847 7.502 35.526C7.502 35.526 7.46067 35.526 7.378 35.526L7.254 35.588C7.13 35.7533 6.96467 35.8773 6.758 35.96C6.55133 36.0013 6.34467 36.0633 6.138 36.146C6.09667 36.1873 6.03467 36.2907 5.952 36.456C5.91067 36.456 5.86933 36.4767 5.828 36.518C5.78667 36.518 5.74533 36.518 5.704 36.518L5.58 36.58C5.37333 36.828 5.06333 36.9933 4.65 37.076C4.23667 37.1173 3.844 37.1793 3.472 37.262L3.224 37.2C2.93467 37.4067 2.666 37.5307 2.418 37.572C2.17 37.572 2.12867 37.2827 2.294 36.704C2.294 36.704 2.31467 36.6833 2.356 36.642L2.418 36.58C2.45933 36.5387 2.45933 36.5593 2.418 36.642C2.37667 36.6833 2.37667 36.6833 2.418 36.642C2.50067 36.6007 2.58333 36.58 2.666 36.58C2.79 36.58 2.87267 36.5593 2.914 36.518C2.99667 36.4353 3.05867 36.394 3.1 36.394C3.18267 36.394 3.18267 36.3527 3.1 36.27C3.01733 36.1873 2.87267 36.208 2.666 36.332C2.542 36.4147 2.418 36.4973 2.294 36.58C2.21133 36.6213 2.08733 36.642 1.922 36.642L1.798 36.518C1.55 36.766 1.34333 36.9107 1.178 36.952C1.01267 36.952 0.826667 36.8487 0.62 36.642H0.682C0.599333 36.6007 0.62 36.518 0.744 36.394C0.785333 36.27 0.806 36.146 0.806 36.022C0.806 35.8567 0.723333 35.712 0.558 35.588L0.496 35.712C0.165333 35.6293 0 35.526 0 35.402C0.0413333 35.278 0.124 35.1747 0.248 35.092C0.661333 34.8027 1.054 34.534 1.426 34.286C1.798 33.9967 2.21133 33.7487 2.666 33.542C2.666 33.542 2.74867 33.5007 2.914 33.418C2.95533 33.418 2.99667 33.3973 3.038 33.356C3.82333 32.7773 4.60867 32.2193 5.394 31.682C6.17933 31.1033 6.944 30.5247 7.688 29.946C7.77067 29.822 7.85333 29.698 7.936 29.574C8.06 29.4087 8.184 29.2433 8.308 29.078C8.308 29.078 8.34933 28.9953 8.432 28.83C8.68 28.6647 8.88667 28.4993 9.052 28.334C9.25867 28.1273 9.46533 27.9207 9.672 27.714C9.75467 27.6313 9.83733 27.528 9.92 27.404C10.0027 27.2387 10.106 27.1147 10.23 27.032C10.23 26.9907 10.2093 27.032 10.168 27.156C10.168 27.2387 10.1473 27.342 10.106 27.466C10.0647 27.59 10.044 27.714 10.044 27.838C10.044 27.9207 10.044 27.962 10.044 27.962L10.354 27.59C10.602 27.2593 10.788 26.9287 10.912 26.598C11.0773 26.2673 11.2013 25.9367 11.284 25.606C11.3253 25.482 11.346 25.3167 11.346 25.11C11.47 24.9447 11.4907 24.7587 11.408 24.552C11.408 24.4693 11.408 24.3867 11.408 24.304C11.4493 24.18 11.4493 24.0767 11.408 23.994V23.87V23.808H11.346V23.746C11.346 23.746 11.3047 23.7253 11.222 23.684C11.222 23.684 11.1807 23.6633 11.098 23.622H10.974L10.912 23.684C10.912 23.6427 10.8913 23.622 10.85 23.622H10.602C10.478 23.5807 10.3333 23.56 10.168 23.56C10.0027 23.5187 9.858 23.4773 9.734 23.436C9.65133 23.436 9.548 23.436 9.424 23.436C9.3 23.436 9.238 23.3533 9.238 23.188C9.114 23.2293 8.928 23.25 8.68 23.25C8.51467 23.2087 8.34933 23.188 8.184 23.188C8.06 23.1467 7.89467 23.126 7.688 23.126C7.60533 23.1673 7.52267 23.188 7.44 23.188C7.35733 23.188 7.27467 23.2087 7.192 23.25C6.98533 23.126 6.77867 23.064 6.572 23.064C6.36533 23.0227 6.15867 22.9607 5.952 22.878C5.91067 22.9193 5.86933 22.94 5.828 22.94C5.74533 23.1053 5.60067 23.1467 5.394 23.064C5.27 23.1053 5.084 23.0847 4.836 23.002C4.62933 22.9193 4.464 22.9193 4.34 23.002C4.25733 22.878 4.13333 22.7747 3.968 22.692C3.80267 22.568 3.74067 22.4027 3.782 22.196C3.86467 21.9893 4.00933 21.8653 4.216 21.824C4.42267 21.7413 4.65 21.7 4.898 21.7C4.898 21.6173 4.898 21.5347 4.898 21.452C4.93933 21.3693 4.91867 21.2867 4.836 21.204V21.018L4.96 20.956C5.29067 21.204 5.394 21.4107 5.27 21.576L5.332 21.514C5.37333 21.4313 5.37333 21.39 5.332 21.39C5.332 21.3487 5.35267 21.3073 5.394 21.266C5.35267 21.1007 5.332 20.8527 5.332 20.522C5.29067 20.4807 5.27 20.3773 5.27 20.212H4.96C4.91867 20.1707 4.87733 20.15 4.836 20.15C4.836 20.1913 4.67067 20.2533 4.34 20.336C4.216 20.2947 4.13333 20.212 4.092 20.088C4.00933 20.0053 3.906 19.9227 3.782 19.84C3.658 19.7573 3.49267 19.7573 3.286 19.84V19.964C3.07933 20.1707 2.914 20.2327 2.79 20.15C2.70733 20.026 2.64533 19.8813 2.604 19.716C2.52133 19.2613 2.45933 18.8273 2.418 18.414C2.418 17.9593 2.50067 17.5047 2.666 17.05C2.666 16.8847 2.666 16.802 2.666 16.802C2.70733 16.7607 2.728 16.7193 2.728 16.678C2.76933 16.182 2.852 15.6447 2.976 15.066C3.1 14.446 3.24467 13.826 3.41 13.206C3.57533 12.5447 3.76133 11.9247 3.968 11.346C4.17467 10.726 4.38133 10.1887 4.588 9.734C4.67067 9.52733 4.73267 9.34133 4.774 9.176C4.81533 9.01067 4.87733 8.82467 4.96 8.618C4.96 8.45267 4.98067 8.34933 5.022 8.308C5.22867 7.97733 5.41467 7.688 5.58 7.44C5.78667 7.15067 6.03467 6.84067 6.324 6.51C6.40667 6.34467 6.51 6.2 6.634 6.076C6.758 5.952 6.882 5.80733 7.006 5.642L7.254 5.394L7.44 5.208C7.52267 5.16667 7.564 5.12533 7.564 5.084C7.60533 5.04267 7.66733 5.00133 7.75 4.96L7.812 4.898L7.874 4.836L8.06 4.65C8.26667 4.48467 8.494 4.34 8.742 4.216C9.03133 4.092 9.27933 3.98867 9.486 3.906C10.0647 3.69933 10.6433 3.63733 11.222 3.72H11.78L12.09 3.782H12.4V3.72C12.9787 3.72 13.3507 3.72 13.516 3.72C13.6813 3.72 13.8053 3.72 13.888 3.72C14.012 3.67867 14.1567 3.67867 14.322 3.72C14.4873 3.72 14.8593 3.76133 15.438 3.844H15.624C15.748 3.844 15.872 3.86467 15.996 3.906C17.0293 3.906 18.1453 4.07133 19.344 4.402C19.592 4.48467 19.778 4.56733 19.902 4.65C20.026 4.73267 19.9847 4.836 19.778 4.96C19.6953 4.96 19.6333 4.93933 19.592 4.898C19.5093 5.022 19.53 5.16667 19.654 5.332C19.778 5.49734 19.902 5.62134 20.026 5.704C20.1087 5.74533 20.1913 5.80733 20.274 5.89V5.952V5.89C20.2327 6.138 20.15 6.28267 20.026 6.324C19.902 6.324 19.6127 6.24133 19.158 6.076V6.2C19.0753 6.28267 18.9513 6.30333 18.786 6.262C18.662 6.22067 18.4967 6.17934 18.29 6.138C18.2073 6.17934 18.104 6.2 17.98 6.2C17.8973 6.15867 17.8767 6.17934 17.918 6.262C17.918 6.34467 17.9593 6.46867 18.042 6.634C18.166 6.758 18.2693 6.84067 18.352 6.882C18.4347 6.882 18.4967 6.90267 18.538 6.944C18.6207 6.944 18.6827 6.944 18.724 6.944C18.8067 6.98533 18.8687 7.006 18.91 7.006C18.9513 7.006 19.0133 7.02667 19.096 7.068L19.158 7.13C19.1993 7.13 19.2407 7.15067 19.282 7.192Z" fill="url(#paint0_linear_3224_12904)"/>
<path d="M36.8605 13.144C36.8605 13.144 36.9018 13.1233 36.9845 13.082C37.0258 13.2887 37.0671 13.4747 37.1085 13.64C37.1498 13.8053 37.2325 13.9913 37.3565 14.198L37.2945 14.26C37.2531 14.3427 37.2118 14.4047 37.1705 14.446C37.1291 14.446 37.0671 14.4873 36.9845 14.57C36.9431 14.7353 36.9225 14.88 36.9225 15.004C36.9225 15.128 36.9018 15.252 36.8605 15.376V15.872C36.8191 16.0373 36.7778 16.2027 36.7365 16.368C36.6951 16.492 36.6538 16.6367 36.6125 16.802H36.6745C36.6745 16.802 36.6331 16.8847 36.5505 17.05C36.5505 17.2567 36.4885 17.422 36.3645 17.546V17.608C36.4058 17.7733 36.4058 17.918 36.3645 18.042C36.3645 18.166 36.3645 18.2693 36.3645 18.352C36.3645 18.476 36.3851 18.5587 36.4265 18.6C36.3438 18.8893 36.2611 19.1787 36.1785 19.468C36.1371 19.716 36.0545 20.0053 35.9305 20.336L36.1165 20.398C35.9098 20.4393 35.8065 20.5013 35.8065 20.584C35.7651 20.6667 35.7238 20.77 35.6825 20.894C35.6825 21.018 35.6411 21.1213 35.5585 21.204C35.5585 21.2867 35.5378 21.3487 35.4965 21.39C35.4965 21.4727 35.4551 21.638 35.3725 21.886C35.3311 22.134 35.2691 22.4027 35.1865 22.692C35.1451 22.94 35.1038 23.188 35.0625 23.436C35.0211 23.6427 35.0211 23.808 35.0625 23.932L34.8145 24.18C34.8558 24.1387 34.9591 24.118 35.1245 24.118L35.7445 24.366C35.8271 24.4487 35.8685 24.5107 35.8685 24.552C35.8685 24.5933 35.9098 24.6553 35.9925 24.738C35.9925 24.738 35.9925 24.8 35.9925 24.924H35.9305C35.9718 24.9653 36.0751 25.0893 36.2405 25.296H36.1785C36.1785 25.3787 36.0958 25.4613 35.9305 25.544C35.8478 25.6267 35.7858 25.73 35.7445 25.854C35.7031 25.978 35.7238 26.102 35.8065 26.226L35.9305 26.164C36.2611 26.3707 36.1578 26.5567 35.6205 26.722C34.9178 26.97 34.2151 27.156 33.5125 27.28C33.2645 27.4453 33.1198 27.652 33.0785 27.9C33.0785 27.9827 33.0991 28.086 33.1405 28.21C33.1818 28.334 33.1818 28.4373 33.1405 28.52C33.0991 28.6027 33.0578 28.6647 33.0165 28.706C32.9751 28.706 32.9338 28.7267 32.8925 28.768C32.7685 29.0573 32.6858 29.2847 32.6445 29.45C32.6445 29.574 32.6445 29.698 32.6445 29.822C32.6445 29.9047 32.6238 30.0287 32.5825 30.194C32.5825 30.318 32.5411 30.5247 32.4585 30.814C32.3758 31.0207 32.2931 31.2273 32.2105 31.434C32.1278 31.6407 32.0865 31.8887 32.0865 32.178C32.0451 32.302 31.9831 32.5293 31.9005 32.86C31.8178 33.108 31.7765 33.3147 31.7765 33.48C31.7765 33.48 31.7351 33.5213 31.6525 33.604C31.6525 33.604 31.6318 33.6247 31.5905 33.666C31.5905 33.8727 31.5285 34.038 31.4045 34.162C31.3218 34.286 31.2391 34.41 31.1565 34.534C31.2391 34.6993 31.2805 34.8233 31.2805 34.906C31.2805 34.9887 31.2598 35.0507 31.2185 35.092C31.2185 35.092 31.1978 35.1333 31.1565 35.216C31.1978 35.5053 31.1978 35.7947 31.1565 36.084C31.1151 36.332 31.0531 36.58 30.9705 36.828C30.9291 36.8693 30.8878 36.89 30.8465 36.89C30.8051 36.89 30.7845 36.9107 30.7845 36.952C30.7845 37.2827 30.7431 37.5307 30.6605 37.696C30.5778 37.8613 30.3091 37.7167 29.8545 37.262V37.138V37.076C29.8131 36.9933 29.7925 36.952 29.7925 36.952C29.8338 36.9107 29.8545 36.8487 29.8545 36.766C29.8131 36.7247 29.7925 36.6833 29.7925 36.642C29.8338 36.6007 29.8338 36.5593 29.7925 36.518C29.7925 36.27 29.7098 36.1253 29.5445 36.084C29.4205 36.0427 29.3585 36.1253 29.3585 36.332C29.3171 36.456 29.2965 36.58 29.2965 36.704C29.2965 36.7867 29.2345 36.8693 29.1105 36.952H28.9245C29.0071 37.324 29.0278 37.5513 28.9865 37.634C28.9451 37.7167 28.7591 37.7373 28.4285 37.696C28.3458 37.6133 28.3045 37.5307 28.3045 37.448C28.1805 37.324 28.0771 37.2 27.9945 37.076C27.9531 36.952 27.8291 36.89 27.6225 36.89C27.5811 36.9313 27.5605 36.9933 27.5605 37.076C27.3538 37.2 27.2091 37.2 27.1265 37.076C27.0438 36.952 27.0025 36.8073 27.0025 36.642C26.9611 36.1873 26.9611 35.7327 27.0025 35.278C27.0438 34.8233 27.1471 34.3893 27.3125 33.976C27.3125 33.852 27.3331 33.7693 27.3745 33.728C27.4158 33.6867 27.4365 33.6453 27.4365 33.604C27.4778 33.108 27.4985 32.7153 27.4985 32.426C27.5398 32.0953 27.5605 31.7853 27.5605 31.496C27.6018 31.2067 27.6638 30.9173 27.7465 30.628C27.8291 30.2973 27.9325 29.9047 28.0565 29.45C28.1391 29.2847 28.1805 29.1193 28.1805 28.954C28.1805 28.7887 28.2218 28.6233 28.3045 28.458C28.3045 28.2927 28.2838 28.1687 28.2425 28.086C28.2838 28.0033 28.3251 27.9 28.3665 27.776C28.4491 27.652 28.5318 27.5487 28.6145 27.466C28.2838 27.466 27.9118 27.466 27.4985 27.466C27.1265 27.466 26.7131 27.4453 26.2585 27.404C25.8038 27.3627 25.2458 27.3213 24.5845 27.28C23.9231 27.2387 23.3858 27.1767 22.9725 27.094C22.6005 27.094 22.2078 27.0527 21.7945 26.97C20.5958 26.846 19.9345 26.722 19.8105 26.598C19.6451 26.474 19.4798 26.3293 19.3145 26.164C19.1905 26.04 19.0871 25.9367 19.0045 25.854C18.8805 25.73 18.7978 25.6267 18.7565 25.544C18.6738 25.3373 18.6118 25.1513 18.5705 24.986C18.5291 24.7793 18.5291 24.5727 18.5705 24.366V23.994V23.746L18.9425 21.948L19.0045 21.08C19.0045 20.9973 19.0458 20.7287 19.1285 20.274C19.2525 19.778 19.3971 19.1787 19.5625 18.476C19.7691 17.7733 19.9965 17.0087 20.2445 16.182C20.4925 15.314 20.7611 14.4667 21.0505 13.64C21.2985 12.6893 21.5671 11.656 21.8565 10.54C22.1871 9.38267 22.5591 8.37 22.9725 7.502C22.9311 7.46067 22.9105 7.41933 22.9105 7.378C22.8691 7.33667 22.8898 7.23334 22.9725 7.068C23.0551 6.61333 23.1998 6.15867 23.4065 5.704C23.6545 5.24933 23.8818 4.79467 24.0885 4.34L24.2125 4.216L24.2745 4.154C24.3571 4.03 24.4398 3.94733 24.5225 3.906C24.6465 3.86467 24.7498 3.906 24.8325 4.03C24.8738 4.07133 24.8738 4.11267 24.8325 4.154C24.9565 4.23667 25.0805 4.23667 25.2045 4.154C25.3698 4.03 25.5558 3.906 25.7625 3.782C25.8865 3.658 25.9898 3.57533 26.0725 3.534C26.3205 3.57533 26.4445 3.658 26.4445 3.782C26.4445 3.86467 26.2998 4.07133 26.0105 4.402H26.1345C26.1758 4.526 26.1758 4.65 26.1345 4.774C26.1345 4.774 26.2171 4.81533 26.3825 4.898C26.4651 4.98067 26.5065 5.022 26.5065 5.022C26.5478 4.98067 26.5685 4.93933 26.5685 4.898C26.5685 4.85667 26.5891 4.81533 26.6305 4.774C26.7131 4.60867 26.7958 4.50533 26.8785 4.464C26.8785 4.42267 26.8991 4.402 26.9405 4.402C26.9405 4.36067 26.9611 4.31933 27.0025 4.278C27.0025 4.23667 27.0851 4.154 27.2505 4.03C27.4158 3.86467 27.5605 3.74067 27.6845 3.658C27.8085 3.57533 27.8911 3.596 27.9325 3.72C27.9738 3.844 27.8705 4.17467 27.6225 4.712C27.6225 4.75333 27.6638 4.81533 27.7465 4.898C27.7051 5.10467 27.6431 5.332 27.5605 5.58C27.5191 5.78667 27.4571 6.014 27.3745 6.262C27.3745 6.42733 27.3538 6.572 27.3125 6.696V6.82L27.2505 7.006C27.2505 7.04734 27.2298 7.08867 27.1885 7.13C27.1885 7.13 27.1885 7.17133 27.1885 7.254C27.1885 7.33667 27.1885 7.41933 27.1885 7.502C27.2298 7.58467 27.2298 7.66733 27.1885 7.75C27.2298 7.79133 27.2505 7.812 27.2505 7.812C27.2918 7.812 27.3331 7.83267 27.3745 7.874C27.4571 7.95667 27.4778 8.03933 27.4365 8.122C27.4365 8.16333 27.4365 8.22534 27.4365 8.308C27.4365 8.432 27.3951 8.556 27.3125 8.68C27.2711 8.76267 27.2298 8.866 27.1885 8.99C27.1885 9.03133 27.1678 9.07267 27.1265 9.114C27.1265 9.114 27.1265 9.13467 27.1265 9.176C27.0851 9.21733 26.8991 9.672 26.5685 10.54C26.2791 11.3667 25.9071 12.3587 25.4525 13.516C25.3698 13.6813 25.3078 13.8467 25.2665 14.012C25.2665 14.136 25.2251 14.3013 25.1425 14.508H25.0185C24.5638 15.872 24.1918 17.0293 23.9025 17.98C23.6545 18.8893 23.5305 19.3647 23.5305 19.406V19.592V19.716V20.088H23.4685H23.5305C23.5718 20.1707 23.5098 20.274 23.3445 20.398C23.1791 20.4807 23.0758 20.584 23.0345 20.708V21.018V21.08H22.9725V21.142C22.8898 21.266 22.9311 21.328 23.0965 21.328H23.1585L22.6005 23.312H22.7245C22.8898 23.3947 23.0551 23.436 23.2205 23.436C23.3031 23.436 23.3858 23.436 23.4685 23.436C23.5925 23.3947 23.6958 23.3947 23.7785 23.436C23.8611 23.436 23.9025 23.4567 23.9025 23.498C23.9438 23.498 23.9851 23.498 24.0265 23.498C24.3158 23.5807 24.6051 23.6427 24.8945 23.684C25.1838 23.684 25.4731 23.7047 25.7625 23.746C26.0931 23.7873 26.4031 23.808 26.6925 23.808C26.9818 23.808 27.2918 23.808 27.6225 23.808C27.8705 23.8493 28.1185 23.8907 28.3665 23.932C28.6145 23.9733 28.8831 23.9527 29.1725 23.87C29.5031 23.87 29.7511 23.8493 29.9165 23.808H30.1645C30.1645 23.7253 30.2058 23.56 30.2885 23.312C30.3711 23.064 30.4538 22.816 30.5365 22.568C30.6605 22.32 30.7638 22.0927 30.8465 21.886C30.9291 21.638 30.9705 21.4727 30.9705 21.39C31.0118 21.1007 31.0945 20.832 31.2185 20.584C31.3838 20.2947 31.4458 20.0053 31.4045 19.716C31.4458 19.6747 31.4665 19.654 31.4665 19.654C31.5078 19.654 31.5491 19.6333 31.5905 19.592C31.7145 19.5507 31.7558 19.5093 31.7145 19.468C31.6731 19.4267 31.6318 19.3233 31.5905 19.158C31.5905 19.0753 31.5905 19.1373 31.5905 19.344C31.6318 19.5093 31.6525 19.5507 31.6525 19.468C31.7765 19.1373 31.8591 18.8273 31.9005 18.538C31.9831 18.2073 32.0451 17.8767 32.0865 17.546C32.0038 17.4633 32.0038 17.4013 32.0865 17.36C32.1691 17.2773 32.1898 17.1947 32.1485 17.112C32.1898 16.864 32.2725 16.6367 32.3965 16.43V16.368C32.3965 16.368 32.4171 16.3473 32.4585 16.306C32.6651 15.81 32.8511 15.314 33.0165 14.818C33.1818 14.322 33.4091 13.8467 33.6985 13.392C33.9051 13.0613 34.0704 12.7307 34.1945 12.4C34.3185 12.028 34.5458 11.7387 34.8765 11.532C34.9591 11.4493 35.0625 11.4287 35.1865 11.47L35.9925 11.408C36.0338 11.6973 36.1165 11.966 36.2405 12.214C36.3645 12.462 36.4265 12.7307 36.4265 13.02C36.5918 13.1027 36.7365 13.144 36.8605 13.144ZM28.4285 36.828H28.4905H28.4285Z" fill="url(#paint1_linear_3224_12904)"/>
<path d="M45.71 8.618C45.7513 8.70067 45.772 8.804 45.772 8.928C45.772 9.01067 45.772 9.09333 45.772 9.176C45.8133 9.25867 45.834 9.34134 45.834 9.424V9.672C45.9166 9.83733 45.896 10.0233 45.772 10.23V10.354C45.772 10.354 45.7513 10.3953 45.71 10.478C45.71 10.5607 45.71 10.6433 45.71 10.726C45.7513 10.8087 45.7307 10.912 45.648 11.036C45.6067 10.7467 45.586 10.5813 45.586 10.54C45.586 10.4573 45.586 10.4367 45.586 10.478C45.6273 10.5193 45.6687 10.5607 45.71 10.602C45.7513 10.602 45.8133 10.5607 45.896 10.478C45.9373 10.3953 45.9166 10.4367 45.834 10.602C45.7927 10.726 45.7513 10.8087 45.71 10.85V11.036C45.7513 11.1187 45.7307 11.222 45.648 11.346C45.5653 11.47 45.524 11.5733 45.524 11.656C45.524 11.7387 45.4827 11.8007 45.4 11.842C45.4 11.9247 45.3793 11.966 45.338 11.966C45.2966 11.966 45.276 11.9867 45.276 12.028C45.1933 12.0693 45.152 12.1107 45.152 12.152C45.152 12.1933 45.1107 12.2553 45.028 12.338C44.9867 12.338 44.966 12.3587 44.966 12.4C44.966 12.4413 44.9247 12.462 44.842 12.462C44.842 12.462 44.842 12.4827 44.842 12.524L44.78 12.772L44.718 12.834H44.656C44.6147 13.0407 44.5113 13.2267 44.346 13.392L43.788 13.764L43.354 14.198C43.1887 14.2807 43.0647 14.322 42.982 14.322C42.8993 14.322 42.796 14.3633 42.672 14.446C42.5066 14.5287 42.238 14.57 41.866 14.57L41.804 14.632H41.432L41.184 14.57H41.122H40.998H40.874C40.7913 14.57 40.75 14.5493 40.75 14.508L40.564 14.446L40.378 14.322L40.192 14.198L40.006 13.95C39.9233 13.95 39.882 13.9293 39.882 13.888V13.826C39.882 13.7847 39.8407 13.7227 39.758 13.64L39.696 13.516H39.572L39.51 13.268L39.386 13.206V13.144V13.02V12.834C39.262 12.5447 39.2 12.276 39.2 12.028C39.076 11.4493 39.076 10.9327 39.2 10.478C39.2 10.1473 39.262 9.92 39.386 9.796C39.386 9.71333 39.386 9.61 39.386 9.486C39.4273 9.362 39.448 9.25867 39.448 9.176C39.448 9.09333 39.4687 9.052 39.51 9.052C39.5513 9.01067 39.572 8.94867 39.572 8.866C39.4893 9.44467 39.3446 9.81667 39.138 9.982C38.9726 10.106 38.9933 10.0853 39.2 9.92L39.262 9.796V9.734C39.262 9.69267 39.324 9.61 39.448 9.486C39.448 9.40333 39.4687 9.362 39.51 9.362C39.5513 9.32067 39.572 9.25867 39.572 9.176C39.572 9.176 39.5927 9.13467 39.634 9.052C39.7167 9.052 39.758 9.03133 39.758 8.99V8.928C39.7993 8.928 39.82 8.90733 39.82 8.866C39.82 8.866 39.8407 8.84533 39.882 8.804V8.68C40.0473 8.432 40.192 8.22533 40.316 8.06C40.3987 7.97733 40.4813 7.89467 40.564 7.812C40.6467 7.72933 40.7293 7.64667 40.812 7.564L40.936 7.44C41.06 7.35734 41.1633 7.29533 41.246 7.254C41.3287 7.17133 41.432 7.10933 41.556 7.068L41.618 6.944L41.68 6.882C41.68 6.84067 41.7006 6.79933 41.742 6.758H41.804C41.9693 6.758 42.052 6.73733 42.052 6.696C42.1347 6.696 42.2173 6.67533 42.3 6.634L42.672 6.51C42.7547 6.51 42.796 6.51 42.796 6.51C42.8373 6.46867 42.8993 6.448 42.982 6.448H43.044L43.168 6.386C43.5813 6.30333 43.85 6.324 43.974 6.448C44.098 6.48933 44.16 6.53067 44.16 6.572C44.2013 6.61333 44.2427 6.65467 44.284 6.696C44.3667 6.73733 44.4493 6.77867 44.532 6.82C44.656 6.86133 44.78 6.96467 44.904 7.13L45.152 7.316C45.152 7.39867 45.1726 7.46067 45.214 7.502C45.2553 7.502 45.2966 7.54333 45.338 7.626C45.3793 7.70867 45.4 7.77067 45.4 7.812C45.4413 7.812 45.4827 7.85333 45.524 7.936L45.586 8.184C45.586 8.308 45.6067 8.37 45.648 8.37C45.648 8.45267 45.648 8.494 45.648 8.494C45.6893 8.494 45.71 8.53533 45.71 8.618ZM43.23 7.502C42.8167 7.70867 42.5273 7.91533 42.362 8.122C42.238 8.28733 42.0726 8.53533 41.866 8.866C41.7833 8.94867 41.742 9.01067 41.742 9.052C41.6593 9.176 41.618 9.21733 41.618 9.176C41.618 9.13467 41.618 9.09334 41.618 9.052C41.6593 8.96933 41.68 8.90733 41.68 8.866C41.7213 8.82467 41.7213 8.88667 41.68 9.052L41.618 9.3C41.618 9.34134 41.5973 9.362 41.556 9.362C41.556 9.362 41.556 9.40333 41.556 9.486C41.4733 9.52733 41.432 9.58933 41.432 9.672V9.858V9.982C41.432 10.106 41.4113 10.2507 41.37 10.416C41.3287 10.54 41.308 10.664 41.308 10.788C41.308 10.9533 41.308 11.0773 41.308 11.16C41.3493 11.2427 41.37 11.346 41.37 11.47L41.432 11.594C41.432 11.7593 41.4733 11.9247 41.556 12.09L41.618 12.214V12.276V12.338C41.7007 12.338 41.742 12.3793 41.742 12.462H41.866H41.928C41.928 12.5033 41.9487 12.524 41.99 12.524H42.238H42.3L42.424 12.462C42.5893 12.462 42.7133 12.4207 42.796 12.338H42.858C42.9407 12.2553 43.0233 12.214 43.106 12.214L43.292 11.966L43.416 11.78C43.54 11.78 43.602 11.718 43.602 11.594C43.8086 11.3873 43.9533 11.1807 44.036 10.974C44.16 10.726 44.3046 10.478 44.47 10.23C44.5113 10.1473 44.4907 10.1267 44.408 10.168C44.3253 10.168 44.3253 10.106 44.408 9.982C44.4493 9.81667 44.4907 9.672 44.532 9.548C44.5733 9.38267 44.594 9.25867 44.594 9.176L44.47 9.734V9.362V9.052C44.47 8.96933 44.4907 8.88667 44.532 8.804C44.5733 8.68 44.5527 8.57667 44.47 8.494C44.47 8.41133 44.4493 8.34933 44.408 8.308V7.998C44.3253 7.91533 44.2633 7.83267 44.222 7.75H44.16H44.098C44.0567 7.75 44.0153 7.72933 43.974 7.688L43.788 7.626C43.7053 7.54333 43.6433 7.502 43.602 7.502L43.478 7.44L43.23 7.502ZM49.926 1.922C50.1326 1.21933 50.298 0.826667 50.422 0.744001C50.546 0.661333 50.7733 0.847334 51.104 1.302C51.1867 1.38467 51.3106 1.488 51.476 1.612C51.6826 1.69467 51.8273 1.674 51.91 1.55C52.1993 1.01267 52.406 0.682001 52.53 0.558C52.6953 0.392666 53.0053 0.206666 53.46 0C53.832 0.0826656 54.018 0.516666 54.018 1.302C54.0593 2.08734 53.8733 3.18267 53.46 4.588L53.398 5.208C53.398 5.24933 53.3773 5.29067 53.336 5.332L53.274 5.394L53.15 5.89C53.15 6.014 53.1087 6.22067 53.026 6.51C52.9846 6.79933 52.9226 7.10933 52.84 7.44C52.7573 7.72933 52.6747 8.01867 52.592 8.308C52.5093 8.556 52.4473 8.742 52.406 8.866C52.4473 8.866 52.4887 8.84533 52.53 8.804C52.5713 8.72133 52.5506 8.804 52.468 9.052C52.3853 9.176 52.3027 9.32067 52.22 9.486C52.1786 9.61 52.1786 9.734 52.22 9.858C52.1373 9.94067 52.096 9.89933 52.096 9.734C51.972 10.1887 51.8273 10.5813 51.662 10.912C51.538 11.2427 51.414 11.6353 51.29 12.09L50.174 15.872C50.1327 16.12 50.0913 16.3887 50.05 16.678C50.0087 16.9673 49.8847 17.236 49.678 17.484C49.678 17.5667 49.6367 17.6493 49.554 17.732C49.5127 17.8147 49.492 17.918 49.492 18.042C49.2027 18.7447 49.058 19.1373 49.058 19.22C49.058 19.2613 49.0787 19.2613 49.12 19.22C49.2026 19.1373 49.244 19.1373 49.244 19.22C49.244 19.3027 49.12 19.716 48.872 20.46C48.6653 21.1213 48.4586 21.7413 48.252 22.32C48.0867 22.8573 47.942 23.4773 47.818 24.18C47.818 24.304 47.756 24.5313 47.632 24.862C47.5493 25.1513 47.446 25.482 47.322 25.854C47.2393 26.1847 47.136 26.5153 47.012 26.846C46.9293 27.1767 46.8673 27.4247 46.826 27.59L46.33 29.14L45.276 32.364C45.276 32.4053 45.276 32.3847 45.276 32.302C45.276 32.2193 45.276 32.116 45.276 31.992C45.276 31.868 45.2553 31.7647 45.214 31.682C45.214 31.558 45.214 31.496 45.214 31.496C45.1726 31.744 45.1726 31.93 45.214 32.054C45.2553 32.1367 45.276 32.2193 45.276 32.302C45.3173 32.3433 45.338 32.4053 45.338 32.488C45.3793 32.5707 45.3587 32.6947 45.276 32.86C45.1106 33.1907 44.966 33.542 44.842 33.914C44.842 33.9967 44.8007 34.0587 44.718 34.1C44.6767 34.1413 44.656 34.2033 44.656 34.286C44.6147 34.3273 44.594 34.3687 44.594 34.41V34.472C44.6353 35.2987 44.4907 36.084 44.16 36.828C43.8707 37.5307 43.664 38.2127 43.54 38.874V39.122C43.3333 39.618 43.044 39.7627 42.672 39.556C42.3413 39.3493 42.1553 38.9567 42.114 38.378C42.0727 38.3367 42.0313 38.3987 41.99 38.564C41.99 38.7293 41.9693 38.9153 41.928 39.122C41.928 39.2873 41.928 39.4527 41.928 39.618C41.928 39.742 41.928 39.7627 41.928 39.68C41.928 39.7213 41.928 39.6593 41.928 39.494C41.9693 39.3287 41.99 39.1427 41.99 38.936C42.0313 38.7293 42.052 38.5433 42.052 38.378C42.0933 38.2127 42.114 38.13 42.114 38.13V37.944C42.114 37.82 42.114 37.7993 42.114 37.882C42.1553 37.9233 42.176 38.006 42.176 38.13C42.176 38.2127 42.1553 38.316 42.114 38.44C42.114 38.5227 42.114 38.5433 42.114 38.502C42.0313 38.502 41.9487 38.626 41.866 38.874C41.8246 39.0807 41.7833 39.308 41.742 39.556C41.7006 39.68 41.68 39.7213 41.68 39.68C41.68 39.6387 41.68 39.5767 41.68 39.494C41.68 39.37 41.68 39.2667 41.68 39.184C41.68 39.1013 41.68 39.0807 41.68 39.122H41.494C41.3287 39.4527 41.2253 39.5973 41.184 39.556C41.184 39.5147 40.998 39.4527 40.626 39.37C40.5433 39.1633 40.502 39.0187 40.502 38.936C40.502 38.8533 40.502 38.75 40.502 38.626C40.4607 38.502 40.4193 38.4607 40.378 38.502C40.3367 38.502 40.2953 38.5433 40.254 38.626C40.2127 38.7087 40.1713 38.812 40.13 38.936C40.0886 39.0187 40.0266 39.0807 39.944 39.122L39.758 39.432C39.6753 39.556 39.572 39.5353 39.448 39.37C39.324 39.2047 39.262 38.9153 39.262 38.502C39.4686 37.9233 39.6753 37.1793 39.882 36.27C40.13 35.3193 40.378 34.3687 40.626 33.418C40.874 32.426 41.122 31.4753 41.37 30.566C41.618 29.6567 41.8453 28.9127 42.052 28.334C42.0933 28.1687 42.114 28.0447 42.114 27.962C42.1553 27.838 42.1967 27.714 42.238 27.59C42.4446 26.9287 42.672 26.226 42.92 25.482C43.168 24.738 43.3953 24.056 43.602 23.436C43.8086 22.7747 43.974 22.196 44.098 21.7C44.2633 21.1627 44.3873 20.7907 44.47 20.584C44.5527 20.1707 44.656 19.7367 44.78 19.282C44.904 18.8273 44.9867 18.3727 45.028 17.918C45.1107 17.794 45.1313 17.67 45.09 17.546C45.09 17.422 45.1106 17.236 45.152 16.988C45.6066 15.7067 46.02 14.4253 46.392 13.144C46.8053 11.8213 47.2187 10.4573 47.632 9.052H47.508L48.934 4.278C48.9753 4.154 49.0167 4.00933 49.058 3.844C49.0993 3.67867 49.182 3.49267 49.306 3.286C49.3473 3.162 49.3887 3.05867 49.43 2.976C49.4713 2.89333 49.492 2.79 49.492 2.666C49.5747 2.58333 49.6367 2.52133 49.678 2.48C49.7607 2.39733 49.8433 2.25267 49.926 2.046V1.922ZM54.948 25.482C54.9893 25.5647 55.01 25.668 55.01 25.792C55.01 25.8747 55.01 25.9573 55.01 26.04C55.0513 26.1227 55.072 26.2053 55.072 26.288V26.536C55.1547 26.7013 55.134 26.8873 55.01 27.094V27.218C55.01 27.218 54.9893 27.2593 54.948 27.342C54.948 27.4247 54.948 27.5073 54.948 27.59C54.9893 27.6727 54.9687 27.776 54.886 27.9C54.8447 27.6107 54.824 27.4453 54.824 27.404C54.824 27.3213 54.824 27.3007 54.824 27.342C54.8653 27.3833 54.9067 27.4247 54.948 27.466C54.9893 27.466 55.0513 27.4247 55.134 27.342C55.1753 27.2593 55.1547 27.3007 55.072 27.466C55.0307 27.59 54.9893 27.6727 54.948 27.714V27.9C54.9893 27.9827 54.9687 28.086 54.886 28.21C54.8033 28.334 54.762 28.4373 54.762 28.52C54.762 28.6027 54.7207 28.6647 54.638 28.706C54.638 28.7887 54.6173 28.83 54.576 28.83C54.5347 28.83 54.514 28.8507 54.514 28.892C54.4313 28.9333 54.39 28.9747 54.39 29.016C54.39 29.0573 54.3487 29.1193 54.266 29.202C54.2247 29.202 54.204 29.2227 54.204 29.264C54.204 29.3053 54.1627 29.326 54.08 29.326C54.08 29.326 54.08 29.3467 54.08 29.388L54.018 29.636L53.956 29.698H53.894C53.8527 29.9047 53.7493 30.0907 53.584 30.256L53.026 30.628L52.592 31.062C52.4267 31.1447 52.3027 31.186 52.22 31.186C52.1373 31.186 52.034 31.2273 51.91 31.31C51.7447 31.3927 51.476 31.434 51.104 31.434L51.042 31.496H50.67L50.422 31.434H50.36H50.236H50.112C50.0293 31.434 49.988 31.4133 49.988 31.372L49.802 31.31L49.616 31.186L49.43 31.062L49.244 30.814C49.1613 30.814 49.12 30.7933 49.12 30.752V30.69C49.12 30.6487 49.0787 30.5867 48.996 30.504L48.934 30.38H48.81L48.748 30.132L48.624 30.07V30.008V29.884V29.698C48.5 29.4087 48.438 29.14 48.438 28.892C48.314 28.3133 48.314 27.7967 48.438 27.342C48.438 27.0113 48.5 26.784 48.624 26.66C48.624 26.5773 48.624 26.474 48.624 26.35C48.6653 26.226 48.686 26.1227 48.686 26.04C48.686 25.9573 48.7066 25.916 48.748 25.916C48.7893 25.8747 48.81 25.8127 48.81 25.73C48.7273 26.3087 48.5827 26.6807 48.376 26.846C48.2107 26.97 48.2313 26.9493 48.438 26.784L48.5 26.66V26.598C48.5 26.5567 48.562 26.474 48.686 26.35C48.686 26.2673 48.7066 26.226 48.748 26.226C48.7893 26.1847 48.81 26.1227 48.81 26.04C48.81 26.04 48.8307 25.9987 48.872 25.916C48.9547 25.916 48.996 25.8953 48.996 25.854V25.792C49.0373 25.792 49.058 25.7713 49.058 25.73C49.058 25.73 49.0787 25.7093 49.12 25.668V25.544C49.2853 25.296 49.43 25.0893 49.554 24.924C49.6367 24.8413 49.7193 24.7587 49.802 24.676C49.8847 24.5933 49.9673 24.5107 50.05 24.428L50.174 24.304C50.298 24.2213 50.4013 24.1593 50.484 24.118C50.5667 24.0353 50.67 23.9733 50.794 23.932L50.856 23.808L50.918 23.746C50.918 23.7047 50.9387 23.6633 50.98 23.622H51.042C51.2073 23.622 51.29 23.6013 51.29 23.56C51.3727 23.56 51.4553 23.5393 51.538 23.498L51.91 23.374C51.9926 23.374 52.034 23.374 52.034 23.374C52.0753 23.3327 52.1373 23.312 52.22 23.312H52.282L52.406 23.25C52.8193 23.1673 53.088 23.188 53.212 23.312C53.336 23.3533 53.398 23.3947 53.398 23.436C53.4393 23.4773 53.4807 23.5187 53.522 23.56C53.6047 23.6013 53.6873 23.6427 53.77 23.684C53.894 23.7253 54.018 23.8287 54.142 23.994L54.39 24.18C54.39 24.2627 54.4107 24.3247 54.452 24.366C54.4933 24.366 54.5347 24.4073 54.576 24.49C54.6173 24.5727 54.638 24.6347 54.638 24.676C54.6793 24.676 54.7207 24.7173 54.762 24.8L54.824 25.048C54.824 25.172 54.8447 25.234 54.886 25.234C54.886 25.3167 54.886 25.358 54.886 25.358C54.9273 25.358 54.948 25.3993 54.948 25.482ZM52.468 24.366C52.0546 24.5727 51.7653 24.7793 51.6 24.986C51.476 25.1513 51.3107 25.3993 51.104 25.73C51.0213 25.8127 50.98 25.8747 50.98 25.916C50.8973 26.04 50.856 26.0813 50.856 26.04C50.856 25.9987 50.856 25.9573 50.856 25.916C50.8973 25.8333 50.918 25.7713 50.918 25.73C50.9593 25.6887 50.9593 25.7507 50.918 25.916L50.856 26.164C50.856 26.2053 50.8353 26.226 50.794 26.226C50.794 26.226 50.794 26.2673 50.794 26.35C50.7113 26.3913 50.67 26.4533 50.67 26.536V26.722V26.846C50.67 26.97 50.6493 27.1147 50.608 27.28C50.5667 27.404 50.546 27.528 50.546 27.652C50.546 27.8173 50.546 27.9413 50.546 28.024C50.5873 28.1067 50.608 28.21 50.608 28.334L50.67 28.458C50.67 28.6233 50.7113 28.7887 50.794 28.954L50.856 29.078V29.14V29.202C50.9387 29.202 50.98 29.2433 50.98 29.326H51.104H51.166C51.166 29.3673 51.1867 29.388 51.228 29.388H51.476H51.538L51.662 29.326C51.8273 29.326 51.9513 29.2847 52.034 29.202H52.096C52.1786 29.1193 52.2613 29.078 52.344 29.078L52.53 28.83L52.654 28.644C52.778 28.644 52.84 28.582 52.84 28.458C53.0466 28.2513 53.1913 28.0447 53.274 27.838C53.398 27.59 53.5426 27.342 53.708 27.094C53.7493 27.0113 53.7287 26.9907 53.646 27.032C53.5633 27.032 53.5633 26.97 53.646 26.846C53.6873 26.6807 53.7287 26.536 53.77 26.412C53.8113 26.2467 53.832 26.1227 53.832 26.04L53.708 26.598V26.226V25.916C53.708 25.8333 53.7287 25.7507 53.77 25.668C53.8113 25.544 53.7906 25.4407 53.708 25.358C53.708 25.2753 53.6873 25.2133 53.646 25.172V24.862C53.5633 24.7793 53.5013 24.6967 53.46 24.614H53.398H53.336C53.2947 24.614 53.2533 24.5933 53.212 24.552L53.026 24.49C52.9433 24.4073 52.8813 24.366 52.84 24.366L52.716 24.304L52.468 24.366Z" fill="url(#paint2_linear_3224_12904)"/>
<path d="M81.8754 9.114C81.834 9.19667 81.71 9.03133 81.5034 8.618C81.5034 8.70067 81.462 8.65934 81.3794 8.494C81.2967 8.41133 81.2347 8.34933 81.1934 8.308C81.1934 8.22534 81.152 8.14267 81.0694 8.06C80.9867 7.97733 80.904 7.874 80.8214 7.75C80.7387 7.626 80.656 7.502 80.5734 7.378C80.532 7.29533 80.4907 7.254 80.4494 7.254C80.408 7.21267 80.3667 7.15067 80.3254 7.068L80.2634 6.882L80.0154 6.634C79.9327 6.55133 79.8707 6.46867 79.8294 6.386C79.8707 6.46867 79.8914 6.55133 79.8914 6.634C79.8914 6.71667 79.9327 6.86134 80.0154 7.068C80.1394 7.39867 80.1807 7.58467 80.1394 7.626C80.1394 7.66733 80.036 7.626 79.8294 7.502C79.7467 7.41933 79.6847 7.35733 79.6434 7.316C79.602 7.23333 79.54 7.15067 79.4574 7.068C79.416 6.98533 79.3747 6.944 79.3334 6.944C79.3334 6.90267 79.3127 6.84067 79.2714 6.758C79.1887 6.67533 79.1474 6.61333 79.1474 6.572H79.0854C79.0027 6.65467 78.858 6.59267 78.6514 6.386C78.5687 6.30333 78.4654 6.24133 78.3414 6.2C78.2587 6.11733 78.176 6.03467 78.0934 5.952C78.0107 5.91067 77.928 5.84867 77.8454 5.766C77.7627 5.766 77.68 5.72467 77.5974 5.642C77.5974 5.72467 77.556 5.766 77.4734 5.766C77.432 5.766 77.3907 5.78667 77.3494 5.828C77.3494 5.828 77.3287 5.828 77.2874 5.828C77.2047 5.91067 77.1014 5.952 76.9774 5.952C76.8947 5.91067 76.7914 5.89 76.6674 5.89C76.3367 5.89 76.1507 5.93133 76.1094 6.014C76.068 6.05533 76.0267 6.076 75.9854 6.076C75.9027 6.15867 75.7787 6.24133 75.6134 6.324C75.5307 6.40667 75.2827 6.448 74.8694 6.448C74.5387 6.53067 74.332 6.59267 74.2494 6.634C74.1254 6.71667 74.0634 6.758 74.0634 6.758C73.9807 6.79933 73.9187 6.82 73.8774 6.82C73.8774 6.82 73.836 6.84067 73.7534 6.882C73.6707 6.92333 73.588 6.98533 73.5054 7.068C73.464 7.10933 73.3814 7.15067 73.2574 7.192C73.1747 7.27467 73.092 7.33667 73.0094 7.378C72.968 7.378 72.9267 7.41933 72.8854 7.502C72.7614 7.58467 72.658 7.64667 72.5754 7.688C72.534 7.688 72.472 7.72933 72.3894 7.812C71.8107 8.26667 71.232 8.72133 70.6534 9.176C70.116 9.58933 69.5787 10.044 69.0414 10.54C69 10.5813 68.9587 10.602 68.9174 10.602C68.9174 10.602 68.8967 10.6227 68.8554 10.664C68.7727 10.7053 68.69 10.7673 68.6074 10.85C68.566 10.8913 68.504 10.9533 68.4214 11.036C68.4214 11.0773 68.3594 11.16 68.2354 11.284C68.2354 11.3253 68.2147 11.346 68.1734 11.346C68.1734 11.346 68.1734 11.3667 68.1734 11.408C68.008 11.6147 67.8634 11.842 67.7394 12.09C67.6154 12.338 67.4707 12.5653 67.3054 12.772C66.892 13.764 66.272 14.6527 65.4454 15.438C65.032 15.81 64.7427 16.2027 64.5774 16.616C64.3707 16.9467 64.2054 17.2567 64.0814 17.546C63.9574 17.8353 63.8127 18.1453 63.6474 18.476C63.3167 18.848 63.1307 19.282 63.0894 19.778V19.902C63.0067 19.9847 62.9447 20.0673 62.9034 20.15C62.9034 20.2327 62.862 20.3153 62.7794 20.398C62.6967 20.6047 62.614 20.8113 62.5314 21.018C62.49 21.1833 62.428 21.3693 62.3454 21.576V21.762C62.304 21.8447 62.2834 21.9067 62.2834 21.948C62.2834 21.948 62.2627 21.9893 62.2214 22.072C62.18 22.2787 62.1387 22.4647 62.0974 22.63C62.056 22.754 61.994 22.9193 61.9114 23.126C61.87 23.2087 61.8287 23.2913 61.7874 23.374C61.7874 23.4567 61.7667 23.5393 61.7254 23.622V23.56V23.622H61.7874C61.7047 24.1593 61.6427 24.6967 61.6014 25.234C61.6014 25.73 61.6014 26.2053 61.6014 26.66C61.6014 27.2387 61.6014 27.7553 61.6014 28.21C61.6014 28.6647 61.6427 29.14 61.7254 29.636C61.7254 29.7187 61.7667 29.8427 61.8494 30.008C61.8494 30.0493 61.8494 30.0907 61.8494 30.132C61.8907 30.132 61.9114 30.1527 61.9114 30.194V30.38C61.994 30.38 62.0354 30.4213 62.0354 30.504L62.1594 30.69C62.118 30.69 62.1594 30.752 62.2834 30.876C62.5314 31.3307 62.8 31.7233 63.0894 32.054V32.116C63.0894 32.1573 63.11 32.1987 63.1514 32.24L63.2134 32.302L63.3374 32.426C63.3787 32.5087 63.42 32.5707 63.4614 32.612C63.544 32.6533 63.6267 32.7153 63.7094 32.798C63.792 32.8807 63.854 32.9427 63.8954 32.984C63.978 33.0253 64.0814 33.0873 64.2054 33.17L64.2674 33.232C64.3087 33.232 64.3294 33.2527 64.3294 33.294C64.3707 33.294 64.412 33.294 64.4534 33.294L64.6394 33.356C65.0114 33.5627 65.3834 33.6867 65.7554 33.728C65.7967 33.6867 65.838 33.666 65.8794 33.666H66.0654C66.0654 33.7073 66.086 33.728 66.1274 33.728H66.4374H66.7474L66.9334 33.666H67.0574H67.2434L67.4294 33.604H67.4914L67.5534 33.542L67.9254 33.418C67.9667 33.418 67.9874 33.418 67.9874 33.418C67.9874 33.3767 68.008 33.356 68.0494 33.356C68.0907 33.3147 68.1114 33.294 68.1114 33.294C68.1527 33.2527 68.2354 33.2527 68.3594 33.294H68.5454H68.7314C68.7727 33.294 68.814 33.294 68.8554 33.294C68.8967 33.2527 68.938 33.232 68.9794 33.232H69.0414V33.17C69.0414 33.17 69.0827 33.1493 69.1654 33.108C69.2067 33.108 69.2274 33.108 69.2274 33.108C69.2687 33.0667 69.31 33.046 69.3514 33.046C69.434 33.0047 69.496 32.9633 69.5374 32.922C69.5787 32.8807 69.6407 32.8393 69.7234 32.798C69.806 32.7567 69.868 32.7153 69.9094 32.674C69.9507 32.6327 70.0127 32.5913 70.0954 32.55C70.1367 32.5087 70.1574 32.488 70.1574 32.488C70.1987 32.488 70.24 32.4673 70.2814 32.426L70.5294 32.302L70.8394 32.054C71.1287 31.8473 71.3974 31.6407 71.6454 31.434C71.8934 31.2273 72.1207 30.9793 72.3274 30.69V30.628C72.3687 30.5453 72.41 30.504 72.4514 30.504C72.4927 30.4627 72.534 30.4007 72.5754 30.318C72.7407 30.1527 72.844 30.0287 72.8854 29.946C72.968 29.8633 73.0507 29.8013 73.1334 29.76C73.216 29.6773 73.2987 29.5947 73.3814 29.512C73.5467 29.264 73.6707 29.0987 73.7534 29.016L73.8154 28.954C73.9394 28.83 74.084 28.6027 74.2494 28.272C74.2494 28.148 74.2907 28.0447 74.3734 27.962L74.5594 27.59C74.642 27.5073 74.6834 27.4453 74.6834 27.404C74.766 27.1973 74.8487 27.0113 74.9314 26.846C75.014 26.6807 75.138 26.5153 75.3034 26.35C75.4274 26.226 75.51 26.1227 75.5514 26.04L75.7374 25.668C75.8614 25.42 76.006 25.2133 76.1714 25.048L76.1094 24.924C76.2334 24.552 76.378 24.2007 76.5434 23.87C76.626 23.7873 76.7087 23.6427 76.7914 23.436C76.874 23.3533 76.9154 23.2913 76.9154 23.25C76.9567 23.1673 76.998 23.0847 77.0394 23.002L77.1014 22.692C77.1014 22.6093 77.1427 22.5267 77.2254 22.444L77.3494 21.638C77.432 21.39 77.5147 21.1833 77.5974 21.018C77.68 20.6873 77.7627 20.4393 77.8454 20.274H77.9074V20.336C77.9074 20.1293 77.99 19.902 78.1554 19.654C78.238 19.3233 78.3207 19.158 78.4034 19.158C78.4447 19.1167 78.4654 19.2613 78.4654 19.592C78.4654 19.5507 78.4654 19.53 78.4654 19.53C78.5067 19.4887 78.5274 19.4267 78.5274 19.344C78.5274 19.3027 78.5067 19.282 78.4654 19.282C78.4654 19.2407 78.4654 19.1993 78.4654 19.158C78.4654 19.0753 78.4654 19.0133 78.4654 18.972C78.5067 18.8893 78.5274 18.8067 78.5274 18.724C78.6514 18.352 78.7547 17.98 78.8374 17.608C78.8787 17.484 78.8994 17.3187 78.8994 17.112C78.8994 16.9053 78.9614 16.74 79.0854 16.616C79.168 16.2027 79.23 15.9133 79.2714 15.748C79.354 15.3347 79.3954 15.0247 79.3954 14.818C79.3954 14.7353 79.4574 14.5907 79.5814 14.384V14.322L79.6434 14.26C79.5607 13.8467 79.5194 13.454 79.5194 13.082C79.5194 12.71 79.54 12.3173 79.5814 11.904V11.842V11.532C79.54 11.408 79.5607 11.3047 79.6434 11.222C79.726 11.222 79.7674 11.3047 79.7674 11.47C79.7674 11.47 79.788 11.4907 79.8294 11.532V11.78C79.8707 11.8213 79.8914 11.9247 79.8914 12.09L79.9534 12.214V12.276V12.462V12.586C80.036 12.5033 80.098 12.4207 80.1394 12.338C80.222 12.1313 80.346 12.1107 80.5114 12.276C80.5527 12.3173 80.5734 12.4207 80.5734 12.586C80.5734 12.71 80.5527 12.7927 80.5114 12.834C80.594 12.834 80.6354 12.9167 80.6354 13.082C80.6354 13.206 80.656 13.3093 80.6974 13.392V13.64C80.78 13.64 80.842 13.6607 80.8834 13.702L80.9454 13.826C81.0694 13.8673 81.152 13.9913 81.1934 14.198C81.2347 14.4047 81.2967 14.5287 81.3794 14.57C81.4207 14.57 81.4414 14.5907 81.4414 14.632C81.524 14.7147 81.6067 14.7973 81.6894 14.88C81.772 14.9627 81.772 15.1487 81.6894 15.438C81.6894 15.686 81.6687 15.872 81.6274 15.996C81.6274 16.0787 81.586 16.2853 81.5034 16.616C81.5034 16.6987 81.4827 16.8227 81.4414 16.988C81.4414 17.112 81.4414 17.236 81.4414 17.36C81.4 18.0213 81.2347 18.8273 80.9454 19.778C80.904 19.8193 80.8834 19.8607 80.8834 19.902L80.8214 20.212L80.7594 20.398V20.46C80.8007 20.6667 80.8214 20.9767 80.8214 21.39C80.8627 21.638 80.842 21.9687 80.7594 22.382C80.6354 22.7127 80.4907 22.9813 80.3254 23.188C80.1187 23.436 80.0154 23.7047 80.0154 23.994C79.9327 24.0767 79.85 24.2627 79.7674 24.552C79.726 24.6347 79.7054 24.738 79.7054 24.862C79.7054 24.9447 79.6847 25.048 79.6434 25.172C79.5194 25.296 79.416 25.5027 79.3334 25.792L79.3954 25.916C79.354 25.9573 79.292 26.0607 79.2094 26.226C79.168 26.35 79.0647 26.5773 78.8994 26.908V27.032C78.858 27.032 78.8374 27.0527 78.8374 27.094V27.218L78.7134 27.59C78.6307 27.7553 78.548 27.962 78.4654 28.21C78.424 28.458 78.3207 28.6853 78.1554 28.892C78.0727 28.9747 78.0107 29.078 77.9694 29.202C77.928 29.2847 77.866 29.3673 77.7834 29.45C77.7834 29.4913 77.7627 29.512 77.7214 29.512C77.7214 29.512 77.7214 29.5327 77.7214 29.574C77.68 29.574 77.6594 29.5947 77.6594 29.636C77.5354 29.8427 77.4114 30.0493 77.2874 30.256C77.1634 30.4627 77.0394 30.6487 76.9154 30.814C76.8327 30.9793 76.7294 31.124 76.6054 31.248C76.5227 31.372 76.44 31.5167 76.3574 31.682C76.2747 31.7647 76.2127 31.8473 76.1714 31.93C76.1714 31.9713 76.13 32.0333 76.0474 32.116C75.9234 32.24 75.8614 32.3227 75.8614 32.364C75.7787 32.4467 75.7167 32.5293 75.6754 32.612C75.634 32.6533 75.5927 32.7153 75.5514 32.798L75.4274 32.984C75.3034 33.0667 75.2414 33.1287 75.2414 33.17C75.2 33.2113 75.1587 33.2527 75.1174 33.294C75.076 33.294 75.0347 33.3147 74.9934 33.356C74.952 33.356 74.9314 33.3767 74.9314 33.418C74.8074 33.542 74.7247 33.6453 74.6834 33.728L74.3734 34.038C74.2907 34.1207 74.2287 34.1827 74.1874 34.224C74.1874 34.2653 74.146 34.3067 74.0634 34.348C74.0634 34.472 73.9807 34.596 73.8154 34.72C73.8154 34.72 73.7534 34.782 73.6294 34.906L73.5054 35.03L73.3194 35.216L72.9474 35.402H72.8854C72.8854 35.4847 72.8647 35.5053 72.8234 35.464C72.7407 35.5053 72.658 35.5467 72.5754 35.588C72.4927 35.6293 72.41 35.6707 72.3274 35.712H72.2654C72.2654 35.836 72.2034 35.898 72.0794 35.898H71.9554C71.8727 35.9807 71.79 36.022 71.7074 36.022C71.6247 36.022 71.542 36.0427 71.4594 36.084C71.4594 36.084 71.4387 36.1047 71.3974 36.146C70.9014 36.518 70.3847 36.8073 69.8474 37.014C69.806 37.0553 69.7234 37.076 69.5994 37.076L69.5374 37.138L69.3514 37.2L69.2894 37.262C69.248 37.3033 69.0827 37.3653 68.7934 37.448H68.4214C68.3387 37.4893 68.2354 37.51 68.1114 37.51H67.9254C67.76 37.5927 67.6154 37.6547 67.4914 37.696C67.4087 37.7373 67.326 37.7787 67.2434 37.82H67.1194C66.7887 37.9027 66.5407 37.9027 66.3754 37.82C66.334 37.7787 66.272 37.758 66.1894 37.758H66.0034C65.9207 37.758 65.838 37.7373 65.7554 37.696H65.5074H65.4454C65.3214 37.7373 65.1354 37.7167 64.8874 37.634C64.8874 37.634 64.8667 37.6133 64.8254 37.572H64.5774C64.5774 37.5307 64.5567 37.51 64.5154 37.51C64.4327 37.51 64.3707 37.51 64.3294 37.51C64.3294 37.4687 64.3087 37.448 64.2674 37.448C64.1847 37.4067 64.0607 37.386 63.8954 37.386H63.7094C63.296 37.3033 63.0274 37.2 62.9034 37.076V37.014C62.9034 37.014 62.924 36.9933 62.9654 36.952C62.8827 36.952 62.8 36.9313 62.7174 36.89C62.676 36.8487 62.614 36.8073 62.5314 36.766L62.4694 36.642C62.428 36.6007 62.366 36.58 62.2834 36.58C62.242 36.5387 62.2007 36.4767 62.1594 36.394C61.87 36.1873 61.5187 35.9187 61.1054 35.588C61.1054 35.588 61.064 35.5467 60.9814 35.464C60.9814 35.464 60.9607 35.4227 60.9194 35.34C60.7954 35.2987 60.7334 35.216 60.7334 35.092L60.3614 34.72C60.32 34.6373 60.2787 34.5753 60.2374 34.534C60.196 34.4513 60.1547 34.3687 60.1134 34.286C60.072 34.2033 60.0307 34.1413 59.9894 34.1C59.9894 34.0587 59.9687 33.9967 59.9274 33.914C59.8447 33.8313 59.8034 33.7693 59.8034 33.728L59.7414 33.666C59.7827 33.666 59.7827 33.5627 59.7414 33.356C59.6587 33.2733 59.576 33.17 59.4934 33.046C59.452 32.922 59.39 32.7567 59.3074 32.55C59.266 32.3847 59.1834 32.2193 59.0594 32.054C59.0594 32.054 59.018 31.9713 58.9354 31.806V31.496C58.8527 31.248 58.7907 31.0827 58.7494 31C58.708 30.9173 58.6874 30.8553 58.6874 30.814C58.6874 30.7727 58.6667 30.7313 58.6254 30.69C58.5427 30.194 58.46 29.698 58.3774 29.202C58.2947 28.706 58.2327 28.21 58.1914 27.714V27.156C58.1914 26.9493 58.212 26.8047 58.2534 26.722C58.1294 26.35 58.15 25.8747 58.3154 25.296C58.398 24.8413 58.4807 24.3867 58.5634 23.932C58.646 23.4773 58.7287 23.0227 58.8114 22.568C58.9767 21.3693 59.3074 20.2533 59.8034 19.22C60.01 18.724 60.2167 18.228 60.4234 17.732C60.63 17.1947 60.8987 16.678 61.2294 16.182C61.2707 16.0993 61.312 16.058 61.3534 16.058C61.3947 16.0167 61.436 15.9547 61.4774 15.872C61.56 15.748 61.622 15.6447 61.6634 15.562C61.7047 15.438 61.7667 15.314 61.8494 15.19C61.8907 15.1073 61.932 15.0247 61.9734 14.942C62.0147 14.8593 62.056 14.7767 62.0974 14.694C62.18 14.6113 62.2214 14.5493 62.2214 14.508C62.2214 14.4253 62.2627 14.3427 62.3454 14.26L62.5314 14.012L62.5934 13.888C62.5934 13.8053 62.614 13.764 62.6554 13.764L62.8414 13.392V13.33C63.2134 12.71 63.6887 12.1107 64.2674 11.532C64.35 11.4493 64.412 11.408 64.4534 11.408V11.346C64.66 10.8913 64.9494 10.478 65.3214 10.106C65.7347 9.69267 66.1274 9.3 66.4994 8.928V8.866C66.582 8.78333 66.6234 8.70067 66.6234 8.618C66.7474 8.494 66.8507 8.37 66.9334 8.246C67.0574 8.122 67.1607 8.01867 67.2434 7.936C67.574 7.64667 67.9047 7.35733 68.2354 7.068C68.566 6.77867 68.876 6.51 69.1654 6.262C69.4547 6.05533 69.7234 5.84867 69.9714 5.642C70.2194 5.394 70.5087 5.22867 70.8394 5.146H70.9014C71.4387 4.73267 71.976 4.38133 72.5134 4.092L72.6994 3.968H72.8234L72.8854 3.906C73.0094 3.82333 73.1127 3.782 73.1954 3.782C73.3194 3.74067 73.4227 3.67867 73.5054 3.596C73.712 3.51333 73.898 3.45133 74.0634 3.41C74.27 3.36867 74.4767 3.348 74.6834 3.348C75.2207 3.30667 75.6754 3.36867 76.0474 3.534H76.1094C76.1507 3.534 76.1714 3.55467 76.1714 3.596C76.1714 3.596 76.192 3.596 76.2334 3.596C77.2667 3.63733 78.2174 4.07133 79.0854 4.898C79.4987 5.22867 79.8707 5.62133 80.2014 6.076C80.532 6.48933 80.8627 6.944 81.1934 7.44V7.502V7.564V7.688C81.3174 7.85333 81.462 8.10133 81.6274 8.432C81.8754 8.804 81.958 9.03133 81.8754 9.114ZM77.2874 23.126C77.2874 23.2087 77.246 23.2913 77.1634 23.374C77.246 23.2913 77.308 23.25 77.3494 23.25C77.3494 23.0847 77.37 22.9607 77.4114 22.878C77.4527 22.8367 77.4734 22.7953 77.4734 22.754L77.2874 23.126ZM75.1794 32.24L75.2414 32.178H75.1794V32.24ZM70.1574 33.852C70.0334 34.0173 70.0127 34.1 70.0954 34.1C70.2194 34.0587 70.3227 33.9967 70.4054 33.914C70.4467 33.914 70.55 33.8727 70.7154 33.79C70.674 33.7487 70.674 33.666 70.7154 33.542C70.4674 33.7073 70.2814 33.8107 70.1574 33.852ZM69.8474 35.34C69.7647 35.3813 69.682 35.4227 69.5994 35.464C69.5167 35.464 69.434 35.4847 69.3514 35.526C69.3927 35.5673 69.4754 35.588 69.5994 35.588C69.806 35.6293 69.8887 35.712 69.8474 35.836C69.93 35.7947 69.992 35.7533 70.0334 35.712C70.0747 35.6707 70.1367 35.6293 70.2194 35.588C70.3434 35.5467 70.4467 35.5053 70.5294 35.464C70.612 35.3813 70.6947 35.34 70.7774 35.34C70.9014 35.1747 70.8394 35.1333 70.5914 35.216C70.5087 35.216 70.4054 35.2367 70.2814 35.278C70.1987 35.3193 70.116 35.3193 70.0334 35.278C69.992 35.278 69.9714 35.2987 69.9714 35.34C69.9714 35.34 69.9507 35.34 69.9094 35.34H69.8474ZM65.7554 33.728V33.79V33.728ZM62.4694 32.488V32.426V32.488Z" fill="url(#paint3_linear_3224_12904)"/>
<path d="M83.3488 18.786C83.5555 18.5793 83.7622 18.4553 83.9688 18.414C84.1755 18.3313 84.3822 18.3933 84.5888 18.6V18.476C84.9195 18.1867 85.2295 18.042 85.5188 18.042C85.8495 18.042 86.1802 18.0007 86.5108 17.918C86.9242 17.794 87.3168 17.7113 87.6888 17.67C88.1022 17.5873 88.4948 17.5047 88.8668 17.422C88.9908 17.3807 89.0942 17.36 89.1768 17.36C89.3008 17.3187 89.4042 17.1947 89.4868 16.988H89.5488C89.5488 16.988 89.5902 16.9673 89.6728 16.926C89.7142 16.802 89.7555 16.6987 89.7968 16.616C89.8382 16.5333 89.8795 16.4507 89.9208 16.368H89.7968C89.8382 16.368 89.8795 16.3473 89.9208 16.306C90.1688 15.686 90.4168 15.0867 90.6648 14.508C90.9128 13.888 91.1402 13.268 91.3468 12.648C91.3468 12.6067 91.3675 12.586 91.4088 12.586C91.4502 12.5447 91.4295 12.4827 91.3468 12.4C91.0575 12.2347 90.9542 12.028 91.0368 11.78C91.1195 11.532 91.2228 11.2633 91.3468 10.974C91.3468 10.8913 91.3675 10.8087 91.4088 10.726C91.4915 10.5607 91.5742 10.416 91.6568 10.292C91.7395 10.168 91.7602 10.0027 91.7188 9.796C91.6362 9.58933 91.5328 9.486 91.4088 9.486C91.3262 9.44467 91.2435 9.40333 91.1608 9.362C90.9542 9.32067 90.7268 9.32067 90.4788 9.362C90.2308 9.40333 90.0035 9.44467 89.7968 9.486C89.5902 9.734 89.3835 9.87867 89.1768 9.92C88.9702 9.96134 88.8048 9.87867 88.6808 9.672C88.5155 9.46533 88.4535 9.25867 88.4948 9.052C88.5362 8.84534 88.5982 8.63867 88.6808 8.432C88.3502 8.39067 87.9988 8.432 87.6268 8.556C87.2548 8.68 86.9035 8.51467 86.5728 8.06C86.5315 7.97733 86.5108 7.83267 86.5108 7.626C86.5935 7.254 86.7175 7.08867 86.8828 7.13C86.9242 7.13 86.9655 7.15067 87.0068 7.192L87.9988 7.068C87.9988 7.02667 87.9782 6.98533 87.9368 6.944C88.1435 6.696 88.3295 6.53067 88.4948 6.448C88.7015 6.36533 88.9082 6.48933 89.1148 6.82C89.1148 6.77867 89.1148 6.758 89.1148 6.758C89.1562 6.71667 89.1768 6.67533 89.1768 6.634C89.5075 6.262 89.8382 6.076 90.1688 6.076C90.4995 6.076 90.8302 6.03467 91.1608 5.952C91.5328 5.78667 91.9048 5.68333 92.2768 5.642C92.6902 5.60067 93.1035 5.53867 93.5168 5.456C93.6408 5.41467 93.7442 5.37333 93.8268 5.332C93.9508 5.24933 94.0335 5.10467 94.0748 4.898C94.1575 4.65 94.2402 4.464 94.3228 4.34C94.4882 4.092 94.7775 3.906 95.1908 3.782C95.6042 3.658 96.0175 3.596 96.4308 3.596C96.8442 3.55467 97.1955 3.57533 97.4848 3.658C97.8155 3.69933 97.9395 3.782 97.8568 3.906L97.9188 3.968C97.9188 4.13333 97.8775 4.31933 97.7948 4.526C97.7122 4.69133 97.7328 4.836 97.8568 4.96C97.8982 5.04267 97.9808 5.084 98.1048 5.084C98.2702 5.04267 98.4562 5.00133 98.6628 4.96C98.3735 4.96 98.3528 4.898 98.6008 4.774H99.1588C99.5722 4.69133 99.8202 4.65 99.9028 4.65C100.109 4.73267 100.42 4.69133 100.833 4.526C101.039 4.44333 101.205 4.50533 101.329 4.712H101.267H101.329C101.411 4.67067 101.515 4.65 101.639 4.65C102.011 4.65 102.383 4.65 102.755 4.65C103.127 4.60867 103.499 4.588 103.871 4.588C103.953 4.588 103.995 4.588 103.995 4.588C104.036 4.54667 104.098 4.526 104.181 4.526C104.594 4.36067 104.987 4.29867 105.359 4.34C105.772 4.38133 106.165 4.44333 106.537 4.526C106.743 4.526 106.95 4.54667 107.157 4.588C107.405 4.62933 107.632 4.75333 107.839 4.96C107.839 5.00133 107.818 5.04267 107.777 5.084H107.839V5.022L107.963 4.774C108.087 4.774 108.19 4.79467 108.273 4.836C108.273 4.75333 108.293 4.69133 108.335 4.65C108.5 4.48467 108.686 4.402 108.893 4.402C109.099 4.31933 109.285 4.31933 109.451 4.402C109.658 4.44333 109.864 4.526 110.071 4.65C110.071 4.69133 110.112 4.712 110.195 4.712C110.36 4.67067 110.649 4.69133 111.063 4.774C111.27 4.774 111.414 4.81533 111.497 4.898C111.662 4.898 111.786 4.87733 111.869 4.836C112.034 4.91867 112.22 4.93933 112.427 4.898C112.633 4.81533 112.819 4.898 112.985 5.146C112.902 5.27 112.778 5.35267 112.613 5.394C112.489 5.43533 112.365 5.47667 112.241 5.518C112.158 5.518 112.055 5.53867 111.931 5.58C111.848 5.62133 111.765 5.60067 111.683 5.518C111.641 5.518 111.579 5.55933 111.497 5.642C111.414 5.68333 111.29 5.704 111.125 5.704C110.836 5.62134 110.567 5.62134 110.319 5.704C110.071 5.78667 109.823 5.80733 109.575 5.766C109.492 5.766 109.471 5.80733 109.513 5.89C109.595 5.93133 109.637 5.99333 109.637 6.076C109.967 6.15867 110.278 6.17934 110.567 6.138C110.897 6.09667 111.228 6.138 111.559 6.262V6.2C111.559 6.2 111.579 6.17934 111.621 6.138L111.187 5.952C111.311 5.86933 111.435 5.84867 111.559 5.89C111.683 5.93133 111.786 5.97267 111.869 6.014C112.406 5.93133 112.944 5.93133 113.481 6.014C114.018 6.09667 114.535 6.17934 115.031 6.262C115.196 6.262 115.32 6.28267 115.403 6.324C115.568 6.24133 115.713 6.22067 115.837 6.262C115.961 6.30333 116.085 6.36533 116.209 6.448C116.415 6.40667 116.601 6.386 116.767 6.386C116.932 6.34467 117.118 6.324 117.325 6.324C117.407 6.324 117.531 6.36533 117.697 6.448C117.779 6.24134 117.883 6.138 118.007 6.138C118.172 6.138 118.317 6.15867 118.441 6.2C118.813 6.24133 119.164 6.28267 119.495 6.324C119.867 6.36533 120.218 6.448 120.549 6.572C120.632 6.61333 120.693 6.634 120.735 6.634C120.817 6.59267 120.879 6.59267 120.921 6.634C121.21 6.71667 121.355 6.90267 121.355 7.192C121.272 7.35733 121.169 7.46067 121.045 7.502C120.962 7.502 120.879 7.52267 120.797 7.564L120.177 7.378C119.722 7.46067 119.288 7.502 118.875 7.502C118.462 7.46067 118.027 7.41933 117.573 7.378C117.407 7.502 117.139 7.52267 116.767 7.44C116.56 7.64667 116.395 7.64667 116.271 7.44V7.378H116.209C116.085 7.378 115.961 7.35733 115.837 7.316C115.754 7.27467 115.651 7.29533 115.527 7.378H115.093C114.927 7.29533 114.7 7.29533 114.411 7.378H114.225L113.915 7.254V7.378L113.233 7.502H112.551C112.096 7.58467 111.621 7.58467 111.125 7.502C111.001 7.58467 110.877 7.58467 110.753 7.502C110.753 7.502 110.732 7.52267 110.691 7.564L110.567 7.812C110.608 7.812 110.629 7.83267 110.629 7.874C110.629 7.874 110.67 7.874 110.753 7.874L111.683 8.184L111.745 8.246C111.745 8.41133 111.683 8.51467 111.559 8.556V8.618C111.394 8.618 111.228 8.618 111.063 8.618C110.897 8.57667 110.732 8.556 110.567 8.556H109.761L109.699 8.618C109.616 8.70067 109.534 8.742 109.451 8.742C109.41 8.70067 109.347 8.68 109.265 8.68C108.893 8.68 108.645 8.618 108.521 8.494H108.459C108.128 8.618 107.818 8.65933 107.529 8.618C107.24 8.53533 106.95 8.53533 106.661 8.618C106.372 8.57667 106.082 8.57667 105.793 8.618C105.545 8.65933 105.276 8.72133 104.987 8.804C104.863 8.804 104.801 8.72133 104.801 8.556C104.718 8.432 104.615 8.39067 104.491 8.432C104.367 8.432 104.263 8.39067 104.181 8.308C103.767 8.34933 103.333 8.41133 102.879 8.494C102.465 8.53533 102.052 8.59733 101.639 8.68C101.804 8.68 101.928 8.70067 102.011 8.742C102.093 8.742 102.155 8.742 102.197 8.742C101.99 8.82467 101.763 8.866 101.515 8.866C101.267 8.82467 101.039 8.804 100.833 8.804C100.502 8.88667 100.151 8.94867 99.7788 8.99C99.4068 9.03133 99.0555 9.07267 98.7248 9.114C98.3942 9.15533 98.0635 9.19667 97.7328 9.238C97.4435 9.238 97.1335 9.27933 96.8028 9.362C96.7202 9.362 96.6582 9.32067 96.6168 9.238V9.176C96.4928 9.46533 96.3688 9.734 96.2448 9.982C96.1208 10.23 96.0382 10.4987 95.9968 10.788C95.9555 11.1187 95.8522 11.408 95.6868 11.656C95.5628 11.8627 95.4388 12.0693 95.3148 12.276L95.1288 12.71V12.896C95.0462 13.392 94.8808 13.8467 94.6328 14.26C94.4262 14.632 94.2195 15.0247 94.0128 15.438C94.0128 15.6033 93.9922 15.7273 93.9508 15.81C94.1162 15.7273 94.3022 15.686 94.5088 15.686C94.5088 15.7273 94.4675 15.7893 94.3848 15.872C94.4262 16.0373 94.4055 16.2027 94.3228 16.368C94.2402 16.5333 94.2608 16.6573 94.3848 16.74C94.5088 16.8227 94.6535 16.8433 94.8188 16.802C94.9842 16.7193 95.1288 16.7193 95.2528 16.802C95.3355 16.802 95.3562 16.8227 95.3148 16.864C95.2735 16.864 95.2115 16.864 95.1288 16.864C95.0875 16.864 95.0255 16.864 94.9428 16.864C94.9015 16.8227 94.9222 16.7813 95.0048 16.74C95.2528 16.74 95.4182 16.802 95.5008 16.926C95.7902 16.8847 95.9348 16.864 95.9348 16.864C95.9348 16.864 95.9142 16.8847 95.8728 16.926C95.8315 16.926 95.8108 16.926 95.8108 16.926C95.8522 16.926 96.0175 16.9053 96.3068 16.864C96.6375 16.8227 97.0508 16.802 97.5468 16.802C98.0842 16.7607 98.4562 16.7607 98.6628 16.802C98.6628 16.926 98.7248 17.0087 98.8488 17.05C99.0142 17.0913 99.0762 17.174 99.0348 17.298C99.0348 17.546 99.0968 17.732 99.2208 17.856C99.3448 17.98 99.4688 18.104 99.5928 18.228C99.7582 18.3107 99.9028 18.414 100.027 18.538C100.151 18.662 100.192 18.8273 100.151 19.034C99.6962 19.1167 99.3242 19.2407 99.0348 19.406C98.7455 19.53 98.3735 19.5507 97.9188 19.468C97.7948 19.3853 97.6708 19.3853 97.5468 19.468C97.4642 19.5093 97.3608 19.6127 97.2368 19.778C97.1128 19.902 96.9888 20.0467 96.8648 20.212C96.7822 20.336 96.6788 20.4187 96.5548 20.46C96.3068 20.5013 96.1415 20.522 96.0588 20.522C95.9762 20.4807 95.8935 20.46 95.8108 20.46C95.7695 20.4187 95.7075 20.398 95.6248 20.398C95.5422 20.398 95.3768 20.4393 95.1288 20.522C94.6742 20.6047 94.2195 20.6667 93.7648 20.708C93.3102 20.708 92.8555 20.7907 92.4008 20.956C92.3595 20.956 92.3182 20.956 92.2768 20.956C92.2768 20.9147 92.2562 20.894 92.2148 20.894L91.7808 21.762C91.5742 22.2993 91.3675 22.8987 91.1608 23.56C91.0782 23.8907 90.9748 24.242 90.8508 24.614C90.7268 24.9447 90.6235 25.296 90.5408 25.668C90.4995 25.8333 90.4788 25.9987 90.4788 26.164C90.4788 26.288 90.4375 26.4327 90.3548 26.598L90.1688 26.97C90.0035 27.342 89.9002 27.5487 89.8588 27.59C89.8175 27.59 89.7968 27.5693 89.7968 27.528C89.7968 27.4453 89.7762 27.4247 89.7348 27.466C89.6935 27.466 89.6108 27.6727 89.4868 28.086C89.3628 28.4167 89.2182 28.7473 89.0528 29.078C88.9288 29.3673 88.8462 29.7187 88.8048 30.132C88.7222 30.2973 88.6808 30.4627 88.6808 30.628C88.6808 30.7933 88.6602 30.938 88.6188 31.062C88.5362 31.2273 88.4742 31.3927 88.4328 31.558C88.3915 31.7233 88.3295 31.868 88.2468 31.992C88.2468 32.0333 88.2055 32.0953 88.1228 32.178C88.1228 32.2193 88.1022 32.2607 88.0608 32.302C88.0608 32.302 88.0608 32.3227 88.0608 32.364C88.0608 32.612 87.9988 32.8393 87.8748 33.046C87.7922 33.2113 87.7095 33.3973 87.6268 33.604C87.6268 33.6867 87.6062 33.7693 87.5648 33.852C87.5648 33.8933 87.5855 33.9553 87.6268 34.038C87.6268 34.0793 87.5855 34.1827 87.5028 34.348C87.5028 34.4307 87.4822 34.4927 87.4408 34.534C87.3995 34.9887 87.3168 35.402 87.1928 35.774C87.0688 36.146 86.9655 36.5387 86.8828 36.952L86.7588 37.076C86.7588 37.324 86.7382 37.4893 86.6968 37.572C86.6555 37.6547 86.6142 37.7373 86.5728 37.82C86.5315 37.8613 86.4695 37.9233 86.3868 38.006C86.3455 38.0473 86.3042 38.1713 86.2628 38.378L86.1388 39.122V39.804C86.0975 40.0107 86.0562 40.238 86.0148 40.486C85.9735 40.6927 85.8908 40.8373 85.7668 40.92C85.4775 41.0027 85.3328 40.858 85.3328 40.486C85.2502 40.2793 85.2295 40.0727 85.2708 39.866C85.3122 39.6593 85.3122 39.432 85.2708 39.184C85.2708 39.1013 85.2708 39.0393 85.2708 38.998C85.3122 38.9567 85.3328 38.8947 85.3328 38.812C85.3328 38.812 85.3742 38.7913 85.4568 38.75C85.6635 39.2873 85.6428 39.8247 85.3948 40.362C85.4775 40.362 85.5395 40.3413 85.5808 40.3C85.6222 40.2587 85.6842 40.2173 85.7668 40.176C85.6842 40.0933 85.6428 39.99 85.6428 39.866C85.6428 39.7833 85.6428 39.7007 85.6428 39.618C85.6842 39.494 85.7048 39.3907 85.7048 39.308C85.7048 39.1013 85.7048 38.9153 85.7048 38.75C85.7048 38.5433 85.7255 38.3367 85.7668 38.13C85.7255 37.7993 85.7255 37.4893 85.7668 37.2C85.8082 36.9107 85.8495 36.6007 85.8908 36.27V36.146C85.8908 35.9393 85.8495 35.8153 85.7668 35.774C85.6842 35.7327 85.6222 35.774 85.5808 35.898C85.5808 36.022 85.5395 36.1253 85.4568 36.208C85.4568 36.6627 85.3742 36.952 85.2088 37.076H85.0848C85.0848 37.3653 85.0642 37.5307 85.0228 37.572C85.0228 37.572 85.0022 37.5513 84.9608 37.51C84.9195 37.4273 84.8368 37.324 84.7128 37.2C84.6302 37.076 84.5268 37.014 84.4028 37.014V36.952C84.3202 36.8693 84.2788 36.7247 84.2788 36.518C84.1962 36.3527 84.1342 36.394 84.0928 36.642C84.0515 36.89 83.9482 37.0347 83.7828 37.076C83.7415 37.076 83.7208 37.1173 83.7208 37.2C83.5142 37.4067 83.3902 37.4273 83.3488 37.262C83.3075 37.0553 83.3075 36.8487 83.3488 36.642C83.3902 35.9807 83.4522 35.3193 83.5348 34.658C83.6588 33.9967 83.8242 33.3767 84.0308 32.798C84.0308 32.674 84.0722 32.5293 84.1548 32.364C84.1548 32.364 84.1755 32.3227 84.2168 32.24C84.3408 31.5373 84.4442 31.0413 84.5268 30.752C84.6095 30.4627 84.6715 30.2353 84.7128 30.07C84.7955 29.8633 84.8988 29.636 85.0228 29.388C85.1468 29.0987 85.3122 28.6233 85.5188 27.962C85.6015 27.7553 85.6635 27.528 85.7048 27.28C85.7875 26.9907 85.8495 26.722 85.8908 26.474C85.9735 26.1847 86.0148 26.04 86.0148 26.04C86.3042 25.2547 86.5935 24.49 86.8828 23.746C87.1722 23.002 87.4615 22.2167 87.7508 21.39L87.3168 21.514C87.3168 21.39 87.2962 21.3073 87.2548 21.266C87.2135 21.0593 87.1308 20.956 87.0068 20.956C86.8828 20.956 86.7588 20.956 86.6348 20.956C86.4282 20.9147 86.2008 20.9147 85.9528 20.956C85.7462 20.956 85.5395 20.9767 85.3328 21.018C84.9608 21.4313 84.5888 21.4933 84.2168 21.204C83.9275 20.956 83.9275 20.5633 84.2168 20.026C83.8448 19.9847 83.4728 20.026 83.1008 20.15C82.7288 20.274 82.3775 20.15 82.0468 19.778C82.0055 19.6953 81.9848 19.5507 81.9848 19.344C82.0262 19.22 82.0468 19.1167 82.0468 19.034C82.0882 18.91 82.1915 18.8687 82.3568 18.91C82.3568 18.91 82.3982 18.9307 82.4808 18.972L83.3488 18.848V18.786ZM101.143 4.774C101.184 4.774 101.225 4.75333 101.267 4.712C101.102 4.712 100.957 4.73267 100.833 4.774H101.081H101.143ZM85.8908 36.89C85.8908 36.9727 85.8702 37.0347 85.8288 37.076C85.8288 37.1173 85.8495 37.1793 85.8908 37.262V36.89ZM102.073 8.246C102.155 8.20467 102.155 8.184 102.073 8.184V8.246ZM84.5888 36.952H84.5268V37.014L84.5888 36.952Z" fill="url(#paint4_linear_3224_12904)"/>
<path d="M95.6398 18.786C95.8465 18.5793 96.0532 18.4553 96.2598 18.414C96.4665 18.3313 96.6732 18.3933 96.8798 18.6V18.476C97.2105 18.1867 97.5205 18.042 97.8098 18.042C98.1405 18.042 98.4712 18.0007 98.8018 17.918C99.2152 17.794 99.6078 17.7113 99.9798 17.67C100.393 17.5873 100.786 17.5047 101.158 17.422C101.282 17.3807 101.385 17.36 101.468 17.36C101.592 17.3187 101.695 17.1947 101.778 16.988H101.84C101.84 16.988 101.881 16.9673 101.964 16.926C102.005 16.802 102.047 16.6987 102.088 16.616C102.129 16.5333 102.171 16.4507 102.212 16.368H102.088C102.129 16.368 102.171 16.3473 102.212 16.306C102.46 15.686 102.708 15.0867 102.956 14.508C103.204 13.888 103.431 13.268 103.638 12.648C103.638 12.6067 103.659 12.586 103.7 12.586C103.741 12.5447 103.721 12.4827 103.638 12.4C103.349 12.2347 103.245 12.028 103.328 11.78C103.411 11.532 103.514 11.2633 103.638 10.974C103.638 10.8913 103.659 10.8087 103.7 10.726C103.783 10.5607 103.865 10.416 103.948 10.292C104.031 10.168 104.051 10.0027 104.01 9.796C103.927 9.58933 103.824 9.486 103.7 9.486C103.617 9.44467 103.535 9.40333 103.452 9.362C103.245 9.32067 103.018 9.32067 102.77 9.362C102.522 9.40333 102.295 9.44467 102.088 9.486C101.881 9.734 101.675 9.87867 101.468 9.92C101.261 9.96134 101.096 9.87867 100.972 9.672C100.807 9.46533 100.745 9.25867 100.786 9.052C100.827 8.84534 100.889 8.63867 100.972 8.432C100.641 8.39067 100.29 8.432 99.9178 8.556C99.5458 8.68 99.1945 8.51467 98.8638 8.06C98.8225 7.97733 98.8018 7.83267 98.8018 7.626C98.8845 7.254 99.0085 7.08867 99.1738 7.13C99.2152 7.13 99.2565 7.15067 99.2978 7.192L100.29 7.068C100.29 7.02667 100.269 6.98533 100.228 6.944C100.435 6.696 100.621 6.53067 100.786 6.448C100.993 6.36533 101.199 6.48933 101.406 6.82C101.406 6.77867 101.406 6.758 101.406 6.758C101.447 6.71667 101.468 6.67533 101.468 6.634C101.799 6.262 102.129 6.076 102.46 6.076C102.791 6.076 103.121 6.03467 103.452 5.952C103.824 5.78667 104.196 5.68333 104.568 5.642C104.981 5.60067 105.395 5.53867 105.808 5.456C105.932 5.41467 106.035 5.37333 106.118 5.332C106.242 5.24933 106.325 5.10467 106.366 4.898C106.449 4.65 106.531 4.464 106.614 4.34C106.779 4.092 107.069 3.906 107.482 3.782C107.895 3.658 108.309 3.596 108.722 3.596C109.135 3.55467 109.487 3.57533 109.776 3.658C110.107 3.69933 110.231 3.782 110.148 3.906L110.21 3.968C110.21 4.13333 110.169 4.31933 110.086 4.526C110.003 4.69133 110.024 4.836 110.148 4.96C110.189 5.04267 110.272 5.084 110.396 5.084C110.561 5.04267 110.747 5.00133 110.954 4.96C110.665 4.96 110.644 4.898 110.892 4.774H111.45C111.863 4.69133 112.111 4.65 112.194 4.65C112.401 4.73267 112.711 4.69133 113.124 4.526C113.331 4.44333 113.496 4.50533 113.62 4.712H113.558H113.62C113.703 4.67067 113.806 4.65 113.93 4.65C114.302 4.65 114.674 4.65 115.046 4.65C115.418 4.60867 115.79 4.588 116.162 4.588C116.245 4.588 116.286 4.588 116.286 4.588C116.327 4.54667 116.389 4.526 116.472 4.526C116.885 4.36067 117.278 4.29867 117.65 4.34C118.063 4.38133 118.456 4.44333 118.828 4.526C119.035 4.526 119.241 4.54667 119.448 4.588C119.696 4.62933 119.923 4.75333 120.13 4.96C120.13 5.00133 120.109 5.04267 120.068 5.084H120.13V5.022L120.254 4.774C120.378 4.774 120.481 4.79467 120.564 4.836C120.564 4.75333 120.585 4.69133 120.626 4.65C120.791 4.48467 120.977 4.402 121.184 4.402C121.391 4.31933 121.577 4.31933 121.742 4.402C121.949 4.44333 122.155 4.526 122.362 4.65C122.362 4.69133 122.403 4.712 122.486 4.712C122.651 4.67067 122.941 4.69133 123.354 4.774C123.561 4.774 123.705 4.81533 123.788 4.898C123.953 4.898 124.077 4.87733 124.16 4.836C124.325 4.91867 124.511 4.93933 124.718 4.898C124.925 4.81533 125.111 4.898 125.276 5.146C125.193 5.27 125.069 5.35267 124.904 5.394C124.78 5.43533 124.656 5.47667 124.532 5.518C124.449 5.518 124.346 5.53867 124.222 5.58C124.139 5.62133 124.057 5.60067 123.974 5.518C123.933 5.518 123.871 5.55933 123.788 5.642C123.705 5.68333 123.581 5.704 123.416 5.704C123.127 5.62134 122.858 5.62134 122.61 5.704C122.362 5.78667 122.114 5.80733 121.866 5.766C121.783 5.766 121.763 5.80733 121.804 5.89C121.887 5.93133 121.928 5.99333 121.928 6.076C122.259 6.15867 122.569 6.17934 122.858 6.138C123.189 6.09667 123.519 6.138 123.85 6.262V6.2C123.85 6.2 123.871 6.17934 123.912 6.138L123.478 5.952C123.602 5.86933 123.726 5.84867 123.85 5.89C123.974 5.93133 124.077 5.97267 124.16 6.014C124.697 5.93133 125.235 5.93133 125.772 6.014C126.309 6.09667 126.826 6.17934 127.322 6.262C127.487 6.262 127.611 6.28267 127.694 6.324C127.859 6.24133 128.004 6.22067 128.128 6.262C128.252 6.30333 128.376 6.36533 128.5 6.448C128.707 6.40667 128.893 6.386 129.058 6.386C129.223 6.34467 129.409 6.324 129.616 6.324C129.699 6.324 129.823 6.36533 129.988 6.448C130.071 6.24134 130.174 6.138 130.298 6.138C130.463 6.138 130.608 6.15867 130.732 6.2C131.104 6.24133 131.455 6.28267 131.786 6.324C132.158 6.36533 132.509 6.448 132.84 6.572C132.923 6.61333 132.985 6.634 133.026 6.634C133.109 6.59267 133.171 6.59267 133.212 6.634C133.501 6.71667 133.646 6.90267 133.646 7.192C133.563 7.35733 133.46 7.46067 133.336 7.502C133.253 7.502 133.171 7.52267 133.088 7.564L132.468 7.378C132.013 7.46067 131.579 7.502 131.166 7.502C130.753 7.46067 130.319 7.41933 129.864 7.378C129.699 7.502 129.43 7.52267 129.058 7.44C128.851 7.64667 128.686 7.64667 128.562 7.44V7.378H128.5C128.376 7.378 128.252 7.35733 128.128 7.316C128.045 7.27467 127.942 7.29533 127.818 7.378H127.384C127.219 7.29533 126.991 7.29533 126.702 7.378H126.516L126.206 7.254V7.378L125.524 7.502H124.842C124.387 7.58467 123.912 7.58467 123.416 7.502C123.292 7.58467 123.168 7.58467 123.044 7.502C123.044 7.502 123.023 7.52267 122.982 7.564L122.858 7.812C122.899 7.812 122.92 7.83267 122.92 7.874C122.92 7.874 122.961 7.874 123.044 7.874L123.974 8.184L124.036 8.246C124.036 8.41133 123.974 8.51467 123.85 8.556V8.618C123.685 8.618 123.519 8.618 123.354 8.618C123.189 8.57667 123.023 8.556 122.858 8.556H122.052L121.99 8.618C121.907 8.70067 121.825 8.742 121.742 8.742C121.701 8.70067 121.639 8.68 121.556 8.68C121.184 8.68 120.936 8.618 120.812 8.494H120.75C120.419 8.618 120.109 8.65933 119.82 8.618C119.531 8.53533 119.241 8.53533 118.952 8.618C118.663 8.57667 118.373 8.57667 118.084 8.618C117.836 8.65933 117.567 8.72133 117.278 8.804C117.154 8.804 117.092 8.72133 117.092 8.556C117.009 8.432 116.906 8.39067 116.782 8.432C116.658 8.432 116.555 8.39067 116.472 8.308C116.059 8.34933 115.625 8.41133 115.17 8.494C114.757 8.53533 114.343 8.59733 113.93 8.68C114.095 8.68 114.219 8.70067 114.302 8.742C114.385 8.742 114.447 8.742 114.488 8.742C114.281 8.82467 114.054 8.866 113.806 8.866C113.558 8.82467 113.331 8.804 113.124 8.804C112.793 8.88667 112.442 8.94867 112.07 8.99C111.698 9.03133 111.347 9.07267 111.016 9.114C110.685 9.15533 110.355 9.19667 110.024 9.238C109.735 9.238 109.425 9.27933 109.094 9.362C109.011 9.362 108.949 9.32067 108.908 9.238V9.176C108.784 9.46533 108.66 9.734 108.536 9.982C108.412 10.23 108.329 10.4987 108.288 10.788C108.247 11.1187 108.143 11.408 107.978 11.656C107.854 11.8627 107.73 12.0693 107.606 12.276L107.42 12.71V12.896C107.337 13.392 107.172 13.8467 106.924 14.26C106.717 14.632 106.511 15.0247 106.304 15.438C106.304 15.6033 106.283 15.7273 106.242 15.81C106.407 15.7273 106.593 15.686 106.8 15.686C106.8 15.7273 106.759 15.7893 106.676 15.872C106.717 16.0373 106.697 16.2027 106.614 16.368C106.531 16.5333 106.552 16.6573 106.676 16.74C106.8 16.8227 106.945 16.8433 107.11 16.802C107.275 16.7193 107.42 16.7193 107.544 16.802C107.627 16.802 107.647 16.8227 107.606 16.864C107.565 16.864 107.503 16.864 107.42 16.864C107.379 16.864 107.317 16.864 107.234 16.864C107.193 16.8227 107.213 16.7813 107.296 16.74C107.544 16.74 107.709 16.802 107.792 16.926C108.081 16.8847 108.226 16.864 108.226 16.864C108.226 16.864 108.205 16.8847 108.164 16.926C108.123 16.926 108.102 16.926 108.102 16.926C108.143 16.926 108.309 16.9053 108.598 16.864C108.929 16.8227 109.342 16.802 109.838 16.802C110.375 16.7607 110.747 16.7607 110.954 16.802C110.954 16.926 111.016 17.0087 111.14 17.05C111.305 17.0913 111.367 17.174 111.326 17.298C111.326 17.546 111.388 17.732 111.512 17.856C111.636 17.98 111.76 18.104 111.884 18.228C112.049 18.3107 112.194 18.414 112.318 18.538C112.442 18.662 112.483 18.8273 112.442 19.034C111.987 19.1167 111.615 19.2407 111.326 19.406C111.037 19.53 110.665 19.5507 110.21 19.468C110.086 19.3853 109.962 19.3853 109.838 19.468C109.755 19.5093 109.652 19.6127 109.528 19.778C109.404 19.902 109.28 20.0467 109.156 20.212C109.073 20.336 108.97 20.4187 108.846 20.46C108.598 20.5013 108.433 20.522 108.35 20.522C108.267 20.4807 108.185 20.46 108.102 20.46C108.061 20.4187 107.999 20.398 107.916 20.398C107.833 20.398 107.668 20.4393 107.42 20.522C106.965 20.6047 106.511 20.6667 106.056 20.708C105.601 20.708 105.147 20.7907 104.692 20.956C104.651 20.956 104.609 20.956 104.568 20.956C104.568 20.9147 104.547 20.894 104.506 20.894L104.072 21.762C103.865 22.2993 103.659 22.8987 103.452 23.56C103.369 23.8907 103.266 24.242 103.142 24.614C103.018 24.9447 102.915 25.296 102.832 25.668C102.791 25.8333 102.77 25.9987 102.77 26.164C102.77 26.288 102.729 26.4327 102.646 26.598L102.46 26.97C102.295 27.342 102.191 27.5487 102.15 27.59C102.109 27.59 102.088 27.5693 102.088 27.528C102.088 27.4453 102.067 27.4247 102.026 27.466C101.985 27.466 101.902 27.6727 101.778 28.086C101.654 28.4167 101.509 28.7473 101.344 29.078C101.22 29.3673 101.137 29.7187 101.096 30.132C101.013 30.2973 100.972 30.4627 100.972 30.628C100.972 30.7933 100.951 30.938 100.91 31.062C100.827 31.2273 100.765 31.3927 100.724 31.558C100.683 31.7233 100.621 31.868 100.538 31.992C100.538 32.0333 100.497 32.0953 100.414 32.178C100.414 32.2193 100.393 32.2607 100.352 32.302C100.352 32.302 100.352 32.3227 100.352 32.364C100.352 32.612 100.29 32.8393 100.166 33.046C100.083 33.2113 100.001 33.3973 99.9178 33.604C99.9178 33.6867 99.8972 33.7693 99.8559 33.852C99.8559 33.8933 99.8765 33.9553 99.9178 34.038C99.9178 34.0793 99.8765 34.1827 99.7938 34.348C99.7938 34.4307 99.7732 34.4927 99.7318 34.534C99.6905 34.9887 99.6078 35.402 99.4838 35.774C99.3598 36.146 99.2565 36.5387 99.1738 36.952L99.0498 37.076C99.0498 37.324 99.0292 37.4893 98.9878 37.572C98.9465 37.6547 98.9052 37.7373 98.8638 37.82C98.8225 37.8613 98.7605 37.9233 98.6778 38.006C98.6365 38.0473 98.5952 38.1713 98.5538 38.378L98.4298 39.122V39.804C98.3885 40.0107 98.3472 40.238 98.3058 40.486C98.2645 40.6927 98.1818 40.8373 98.0578 40.92C97.7685 41.0027 97.6238 40.858 97.6238 40.486C97.5412 40.2793 97.5205 40.0727 97.5618 39.866C97.6032 39.6593 97.6032 39.432 97.5618 39.184C97.5618 39.1013 97.5618 39.0393 97.5618 38.998C97.6032 38.9567 97.6238 38.8947 97.6238 38.812C97.6238 38.812 97.6652 38.7913 97.7478 38.75C97.9545 39.2873 97.9338 39.8247 97.6858 40.362C97.7685 40.362 97.8305 40.3413 97.8718 40.3C97.9132 40.2587 97.9752 40.2173 98.0578 40.176C97.9752 40.0933 97.9338 39.99 97.9338 39.866C97.9338 39.7833 97.9338 39.7007 97.9338 39.618C97.9752 39.494 97.9958 39.3907 97.9958 39.308C97.9958 39.1013 97.9958 38.9153 97.9958 38.75C97.9958 38.5433 98.0165 38.3367 98.0578 38.13C98.0165 37.7993 98.0165 37.4893 98.0578 37.2C98.0992 36.9107 98.1405 36.6007 98.1818 36.27V36.146C98.1818 35.9393 98.1405 35.8153 98.0578 35.774C97.9752 35.7327 97.9132 35.774 97.8718 35.898C97.8718 36.022 97.8305 36.1253 97.7478 36.208C97.7478 36.6627 97.6652 36.952 97.4998 37.076H97.3758C97.3758 37.3653 97.3552 37.5307 97.3138 37.572C97.3138 37.572 97.2932 37.5513 97.2518 37.51C97.2105 37.4273 97.1278 37.324 97.0038 37.2C96.9212 37.076 96.8178 37.014 96.6938 37.014V36.952C96.6112 36.8693 96.5698 36.7247 96.5698 36.518C96.4872 36.3527 96.4252 36.394 96.3839 36.642C96.3425 36.89 96.2392 37.0347 96.0738 37.076C96.0325 37.076 96.0118 37.1173 96.0118 37.2C95.8052 37.4067 95.6812 37.4273 95.6398 37.262C95.5985 37.0553 95.5985 36.8487 95.6398 36.642C95.6812 35.9807 95.7432 35.3193 95.8258 34.658C95.9498 33.9967 96.1152 33.3767 96.3218 32.798C96.3218 32.674 96.3632 32.5293 96.4458 32.364C96.4458 32.364 96.4665 32.3227 96.5078 32.24C96.6318 31.5373 96.7352 31.0413 96.8178 30.752C96.9005 30.4627 96.9625 30.2353 97.0038 30.07C97.0865 29.8633 97.1898 29.636 97.3138 29.388C97.4378 29.0987 97.6032 28.6233 97.8098 27.962C97.8925 27.7553 97.9545 27.528 97.9958 27.28C98.0785 26.9907 98.1405 26.722 98.1818 26.474C98.2645 26.1847 98.3058 26.04 98.3058 26.04C98.5952 25.2547 98.8845 24.49 99.1738 23.746C99.4632 23.002 99.7525 22.2167 100.042 21.39L99.6078 21.514C99.6078 21.39 99.5872 21.3073 99.5458 21.266C99.5045 21.0593 99.4218 20.956 99.2978 20.956C99.1738 20.956 99.0499 20.956 98.9258 20.956C98.7192 20.9147 98.4918 20.9147 98.2438 20.956C98.0372 20.956 97.8305 20.9767 97.6238 21.018C97.2518 21.4313 96.8798 21.4933 96.5078 21.204C96.2185 20.956 96.2185 20.5633 96.5078 20.026C96.1358 19.9847 95.7638 20.026 95.3918 20.15C95.0198 20.274 94.6685 20.15 94.3378 19.778C94.2965 19.6953 94.2758 19.5507 94.2758 19.344C94.3172 19.22 94.3378 19.1167 94.3378 19.034C94.3792 18.91 94.4825 18.8687 94.6478 18.91C94.6478 18.91 94.6892 18.9307 94.7718 18.972L95.6398 18.848V18.786ZM113.434 4.774C113.475 4.774 113.517 4.75333 113.558 4.712C113.393 4.712 113.248 4.73267 113.124 4.774H113.372H113.434ZM98.1818 36.89C98.1818 36.9727 98.1612 37.0347 98.1198 37.076C98.1198 37.1173 98.1405 37.1793 98.1818 37.262V36.89ZM114.364 8.246C114.447 8.20467 114.447 8.184 114.364 8.184V8.246ZM96.8798 36.952H96.8178V37.014L96.8798 36.952Z" fill="url(#paint5_linear_3224_12904)"/>
<defs>
<linearGradient id="paint0_linear_3224_12904" x1="33.0649" y1="-8.74751" x2="91.5969" y2="52.6103" gradientUnits="userSpaceOnUse">
<stop stop-color="#FF4040"/>
<stop offset="0.447917" stop-color="#FF6363"/>
<stop offset="0.80405" stop-color="#FF9417"/>
</linearGradient>
<linearGradient id="paint1_linear_3224_12904" x1="33.0649" y1="-8.74751" x2="91.5969" y2="52.6103" gradientUnits="userSpaceOnUse">
<stop stop-color="#FF4040"/>
<stop offset="0.447917" stop-color="#FF6363"/>
<stop offset="0.80405" stop-color="#FF9417"/>
</linearGradient>
<linearGradient id="paint2_linear_3224_12904" x1="33.0649" y1="-8.74751" x2="91.5969" y2="52.6103" gradientUnits="userSpaceOnUse">
<stop stop-color="#FF4040"/>
<stop offset="0.447917" stop-color="#FF6363"/>
<stop offset="0.80405" stop-color="#FF9417"/>
</linearGradient>
<linearGradient id="paint3_linear_3224_12904" x1="33.0649" y1="-8.74751" x2="91.5969" y2="52.6103" gradientUnits="userSpaceOnUse">
<stop stop-color="#FF4040"/>
<stop offset="0.447917" stop-color="#FF6363"/>
<stop offset="0.80405" stop-color="#FF9417"/>
</linearGradient>
<linearGradient id="paint4_linear_3224_12904" x1="33.0649" y1="-8.74751" x2="91.5969" y2="52.6103" gradientUnits="userSpaceOnUse">
<stop stop-color="#FF4040"/>
<stop offset="0.447917" stop-color="#FF6363"/>
<stop offset="0.80405" stop-color="#FF9417"/>
</linearGradient>
<linearGradient id="paint5_linear_3224_12904" x1="33.0649" y1="-8.74751" x2="91.5969" y2="52.6103" gradientUnits="userSpaceOnUse">
<stop stop-color="#FF4040"/>
<stop offset="0.447917" stop-color="#FF6363"/>
<stop offset="0.80405" stop-color="#FF9417"/>
</linearGradient>
</defs>
</svg>
