<svg width="670" height="320" viewBox="0 0 670 320" fill="none" xmlns="http://www.w3.org/2000/svg">
<g clip-path="url(#clip0_3193_13636)">
<path d="M669.307 116.463C669.307 206.23 596.625 279 506.967 279C417.309 279 344.627 206.23 344.627 116.463C344.627 26.6961 417.309 -46.0742 506.967 -46.0742C596.625 -46.0742 669.307 26.6961 669.307 116.463Z" fill="#181B2B"/>
<path d="M622.924 112.04C622.924 187.15 562.109 248.04 487.089 248.04C412.069 248.04 351.253 187.15 351.253 112.04C351.253 36.9285 412.069 -23.9609 487.089 -23.9609C562.109 -23.9609 622.924 36.9285 622.924 112.04Z" fill="#7A809A"/>
<path fill-rule="evenodd" clip-rule="evenodd" d="M506.967 277.341C595.71 277.341 667.651 205.314 667.651 116.463C667.651 27.6121 595.71 -44.4157 506.967 -44.4157C418.224 -44.4157 346.283 27.6121 346.283 116.463C346.283 205.314 418.224 277.341 506.967 277.341ZM506.967 279C596.625 279 669.307 206.23 669.307 116.463C669.307 26.6961 596.625 -46.0742 506.967 -46.0742C417.309 -46.0742 344.627 26.6961 344.627 116.463C344.627 206.23 417.309 279 506.967 279Z" fill="#181B2B"/>
<path d="M597.524 186.122C597.524 208.716 579.23 227.032 556.663 227.032C534.096 227.032 515.802 208.716 515.802 186.122C515.802 163.527 534.096 145.211 556.663 145.211C579.23 145.211 597.524 163.527 597.524 186.122Z" fill="#181B2B"/>
<path fill-rule="evenodd" clip-rule="evenodd" d="M556.663 225.374C578.315 225.374 595.867 207.8 595.867 186.122C595.867 164.443 578.315 146.869 556.663 146.869C535.011 146.869 517.458 164.443 517.458 186.122C517.458 207.8 535.011 225.374 556.663 225.374ZM556.663 227.032C579.23 227.032 597.524 208.716 597.524 186.122C597.524 163.527 579.23 145.211 556.663 145.211C534.096 145.211 515.802 163.527 515.802 186.122C515.802 208.716 534.096 227.032 556.663 227.032Z" fill="#E7EAF3"/>
<path d="M598.629 32.4301C598.629 44.0326 589.234 53.4383 577.646 53.4383C566.057 53.4383 556.663 44.0326 556.663 32.4301C556.663 20.8276 566.057 11.4219 577.646 11.4219C589.234 11.4219 598.629 20.8276 598.629 32.4301Z" fill="#181B2B"/>
<path fill-rule="evenodd" clip-rule="evenodd" d="M577.646 51.7797C588.319 51.7797 596.972 43.1166 596.972 32.4301C596.972 21.7436 588.319 13.0804 577.646 13.0804C566.972 13.0804 558.32 21.7436 558.32 32.4301C558.32 43.1166 566.972 51.7797 577.646 51.7797ZM577.646 53.4383C589.234 53.4383 598.629 44.0326 598.629 32.4301C598.629 20.8276 589.234 11.4219 577.646 11.4219C566.057 11.4219 556.663 20.8276 556.663 32.4301C556.663 44.0326 566.057 53.4383 577.646 53.4383Z" fill="#E7EAF3"/>
<path d="M515.802 81.0764C515.802 97.5642 502.452 110.93 485.984 110.93C469.516 110.93 456.167 97.5642 456.167 81.0764C456.167 64.5886 469.516 51.2227 485.984 51.2227C502.452 51.2227 515.802 64.5886 515.802 81.0764Z" fill="#181B2B"/>
<path fill-rule="evenodd" clip-rule="evenodd" d="M485.984 109.272C501.537 109.272 514.145 96.6482 514.145 81.0764C514.145 65.5046 501.537 52.8812 485.984 52.8812C470.431 52.8812 457.823 65.5046 457.823 81.0764C457.823 96.6482 470.431 109.272 485.984 109.272ZM485.984 110.93C502.452 110.93 515.802 97.5642 515.802 81.0764C515.802 64.5886 502.452 51.2227 485.984 51.2227C469.516 51.2227 456.167 64.5886 456.167 81.0764C456.167 97.5642 469.516 110.93 485.984 110.93Z" fill="#E7EAF3"/>
<path d="M470.523 129.729C470.523 137.668 464.095 144.104 456.166 144.104C448.237 144.104 441.81 137.668 441.81 129.729C441.81 121.791 448.237 115.355 456.166 115.355C464.095 115.355 470.523 121.791 470.523 129.729Z" fill="#181B2B"/>
<path fill-rule="evenodd" clip-rule="evenodd" d="M456.166 142.445C463.18 142.445 468.867 136.752 468.867 129.729C468.867 122.707 463.18 117.014 456.166 117.014C449.152 117.014 443.466 122.707 443.466 129.729C443.466 136.752 449.152 142.445 456.166 142.445ZM456.166 144.104C464.095 144.104 470.523 137.668 470.523 129.729C470.523 121.791 464.095 115.355 456.166 115.355C448.237 115.355 441.81 121.791 441.81 129.729C441.81 137.668 448.237 144.104 456.166 144.104Z" fill="#E7EAF3"/>
<path d="M418.834 95.5006C418.834 137.727 384.644 171.958 342.469 171.958C300.294 171.958 266.104 137.727 266.104 95.5006C266.104 53.2742 300.294 19.043 342.469 19.043C384.644 19.043 418.834 53.2742 418.834 95.5006Z" fill="#181B2B"/>
<path fill-rule="evenodd" clip-rule="evenodd" d="M342.469 170.497C383.838 170.497 417.375 136.92 417.375 95.5006C417.375 54.0813 383.838 20.5043 342.469 20.5043C301.1 20.5043 267.564 54.0813 267.564 95.5006C267.564 136.92 301.1 170.497 342.469 170.497ZM342.469 171.958C384.644 171.958 418.834 137.727 418.834 95.5006C418.834 53.2742 384.644 19.043 342.469 19.043C300.294 19.043 266.104 53.2742 266.104 95.5006C266.104 137.727 300.294 171.958 342.469 171.958Z" fill="#181B2B"/>
<path d="M424.387 182.363L388.347 168.252L296.593 167.395L278.279 172.085C274.242 173.119 270.586 175.314 267.864 178.473C262.979 184.143 258.202 190.11 253.851 196.209L229.147 240.429C224.742 250.841 221.153 261.626 218.546 272.704C216.657 280.727 219.721 289.378 227.028 293.176C234.718 297.173 241.977 298.502 252.853 299.763L253.844 305.76L265.247 303.479C264.111 324.02 268.385 343.99 270.093 351.693L397.744 350.836L389.369 328.643C400.438 317.897 434.652 244.684 437.335 202.033C437.842 193.97 433.226 185.824 424.387 182.363Z" fill="#8AFFCE"/>
<path d="M272.641 178.859C273.312 191.957 268.28 204.719 264.926 206.734C266.24 211.6 268.009 214.43 271.299 218.824C273.536 200.407 274.653 193.972 272.641 178.859Z" fill="#181B2B"/>
<path d="M296.736 167.423L300.475 158.375L383.997 157.367L388.358 168.114C362.502 190.018 309.786 185.029 296.894 168.702C296.606 168.337 296.558 167.852 296.736 167.423Z" fill="#181B2B"/>
<path d="M307.14 65.6704C315.19 57.5992 322.377 54.3524 335.333 57.0734L356.194 56.4034C366.73 55.1024 373.231 58.4639 380.42 65.6732C385.756 71.025 391.754 75.6784 398.032 79.8834C421.519 95.6148 417.449 114.267 396.905 133.824C391.137 147.55 378.884 162.6 343.659 162.918C308.562 162.599 296.42 147.51 290.626 133.824C270.082 114.267 266.039 95.6148 289.525 79.8834C295.803 75.6784 301.803 71.0218 307.14 65.6704Z" fill="#FD9317"/>
<path d="M359.818 142.752C353.828 136.259 350.18 132.448 343.468 130.631C336.756 132.448 333.108 136.259 327.117 142.752C326.648 143.261 325.833 143.242 325.438 142.675C323.672 140.139 322.631 136.965 322.1 130.839C322.025 129.967 321.048 129.476 320.317 129.955L314.239 133.942C313.9 134.164 313.466 134.194 313.115 133.99C309.144 131.675 305.9 126.378 304.572 121.272C304.402 120.616 303.725 120.213 303.079 120.415L300.538 121.21C300.058 121.36 299.536 121.175 299.248 120.762C296.559 116.911 294.541 115.216 290.567 113.76C290.31 113.666 290.09 113.959 290.245 114.185C296.974 123.966 300.979 130.789 305.057 142.628C305.264 143.226 305.914 143.548 306.512 143.343L313.654 140.885C314.172 140.707 314.743 140.924 315.019 141.396C318.648 147.611 321.406 150.683 326.691 154.212C327.217 154.564 327.928 154.405 328.276 153.876C331.218 149.399 334.684 145.434 337.513 144.013C337.918 143.81 338.398 143.929 338.711 144.258L343.468 149.272L348.225 144.258C348.537 143.929 349.017 143.81 349.422 144.013C352.252 145.434 355.717 149.399 358.66 153.876C359.008 154.405 359.718 154.564 360.245 154.212C365.53 150.683 368.287 147.611 371.917 141.396C372.193 140.924 372.764 140.707 373.281 140.885L380.423 143.343C381.021 143.548 381.672 143.226 381.878 142.628C385.956 130.789 389.962 123.966 396.69 114.185C396.846 113.959 396.626 113.666 396.368 113.76C392.395 115.216 390.377 116.911 387.688 120.762C387.399 121.175 386.878 121.36 386.397 121.21L383.857 120.415C383.211 120.213 382.534 120.616 382.363 121.272C381.035 126.378 377.792 131.675 373.82 133.99C373.469 134.194 373.036 134.164 372.696 133.942L366.619 129.955C365.888 129.476 364.911 129.967 364.835 130.839C364.305 136.965 363.263 140.139 361.498 142.675C361.103 143.242 360.287 143.261 359.818 142.752Z" fill="#181B2B"/>
<path d="M377.764 102.046L363.14 114.415C362.837 114.672 362.901 115.09 363.154 115.297L362.698 115.465L362.722 115.581C362.875 116.351 363.539 116.92 364.323 116.947C381.017 117.523 387.779 113.407 386.169 98.3824C386.03 97.085 384.52 96.4851 383.495 97.2912L377.801 101.771L377.764 102.046Z" fill="#181B2B"/>
<path d="M322.851 42.3616C342.726 42.2345 337.887 60.4729 328.507 62.1197C332.211 74.3937 350.163 73.5378 355.292 65.2688C358.964 45.1841 350.594 30.9916 326.575 32.6975C326.187 32.725 325.832 32.9539 325.65 33.2979L323.378 37.5902L321.768 40.6319C321.35 41.4204 321.96 42.3673 322.851 42.3616Z" fill="#14C393"/>
<path d="M309.215 102.056L323.827 114.415C324.128 114.67 324.067 115.086 323.816 115.295L324.279 115.465L324.256 115.581C324.102 116.351 323.438 116.92 322.654 116.947C305.96 117.523 299.199 113.407 300.808 98.3824C300.947 97.085 302.457 96.4851 303.482 97.2912L309.177 101.771L309.215 102.056Z" fill="#181B2B"/>
<path d="M347.55 121.969L346.596 117.669C346.472 117.112 347.152 116.739 347.555 117.142L352.451 122.043C352.789 122.383 352.584 122.964 352.107 123.014L349.398 123.3C348.534 123.391 347.739 122.818 347.55 121.969Z" fill="#FBB80D"/>
<path d="M339.374 121.969L340.329 117.669C340.452 117.112 339.773 116.739 339.369 117.142L334.474 122.043C334.135 122.383 334.341 122.964 334.818 123.014L337.527 123.3C338.391 123.391 339.186 122.818 339.374 121.969Z" fill="#FBB80D"/>
<path d="M313.231 262.153L363.21 263.497L353.483 283.647L253.86 305.812C249.808 277.178 253.458 262.42 273.986 238.98L313.231 262.153Z" fill="#14C393"/>
<path d="M272.644 224.275C272.165 229.065 271.701 235.388 271.511 236.146L272.936 240.425L265.262 249.721C257.882 245.355 246.207 246.067 238.092 254.759L229.176 240.212C228.032 238.373 227.76 236.07 228.711 234.123C229.674 232.152 230.651 230.911 232.259 229.872L232.051 229.179C231.429 227.102 231.766 224.798 233.226 223.196C235.015 221.232 236.52 220.395 238.815 220.113L237.694 215.448C237.278 213.72 237.497 211.858 238.576 210.447C240.482 207.953 242.742 206.455 246.164 206.478L234.586 178.36C233.64 176.063 234.997 173.467 237.421 172.936L238.848 172.624C240.636 172.232 242.46 173.109 243.274 174.75L258.699 205.871L258.986 204.852C259.773 202.055 263.745 202.09 264.484 204.9L266.097 211.04L271.471 219.334C272.417 220.795 272.817 222.542 272.644 224.275Z" fill="#1FAC85"/>
<path d="M377.51 351.979L373.806 335.717C343.351 337.312 328.523 334.408 305.42 321.167C330.78 332.578 355 332.293 381.5 320.596C395.183 301.971 464.167 182.554 343.748 182.554L387.354 168.113L428.612 184.569C436.279 191.779 437.913 194.784 437.668 202.033C430.989 261.477 394.398 328.98 389.367 327.972L398.088 351.979H377.51Z" fill="#181B2B"/>
<path d="M325.977 32.4375L325.306 34.4525C345.812 35.3942 350.799 66.3875 345.096 71.0587C339.394 75.7299 421.574 75.4246 396.082 135.204C421.779 108.337 422.382 93.1408 387.36 72.4021L377.555 62.5847C371.958 56.9811 363.902 54.6072 356.165 56.2819C353.943 37.1634 346.247 33.0814 325.977 32.4375Z" fill="#181B2B"/>
<path fill-rule="evenodd" clip-rule="evenodd" d="M258.272 204.665C259.261 201.153 264.25 201.196 265.178 204.726L266.762 210.753L272.071 218.948C273.112 220.554 273.547 222.468 273.358 224.359C273.161 226.332 272.967 228.564 272.792 230.565C272.755 230.988 272.719 231.4 272.684 231.798C272.585 232.935 272.494 233.95 272.415 234.729C272.358 235.305 272.303 235.796 272.252 236.107L273.617 240.206C273.744 240.589 273.538 241.003 273.155 241.13C272.773 241.258 272.36 241.051 272.232 240.668L270.74 236.187L270.792 235.98C270.823 235.856 270.883 235.385 270.963 234.583C271.04 233.814 271.131 232.807 271.231 231.67C271.265 231.274 271.301 230.863 271.338 230.441C271.512 228.441 271.708 226.196 271.906 224.214C272.063 222.639 271.7 221.06 270.847 219.744L265.41 211.351L263.766 205.098C263.217 203.008 260.262 202.982 259.676 205.062L259.38 206.115C259.27 206.504 258.867 206.73 258.479 206.62C258.091 206.511 257.865 206.107 257.975 205.719L258.272 204.665Z" fill="#181B2B"/>
<path fill-rule="evenodd" clip-rule="evenodd" d="M243.173 200.273C244.509 196.033 248.843 193.714 253.374 194.35C253.773 194.406 254.051 194.775 253.995 195.175C253.939 195.575 253.57 195.853 253.171 195.797C249.225 195.243 245.652 197.264 244.565 200.712C244.444 201.097 244.034 201.311 243.65 201.189C243.265 201.068 243.052 200.658 243.173 200.273Z" fill="#181B2B"/>
<path fill-rule="evenodd" clip-rule="evenodd" d="M251.703 246.419C255.88 245.734 260.237 246.362 264.709 248.626C265.069 248.808 265.213 249.247 265.031 249.607C264.849 249.967 264.411 250.112 264.051 249.93C259.838 247.798 255.793 247.229 251.939 247.861C248.075 248.494 244.358 250.343 240.829 253.121C233.759 258.686 227.546 267.902 222.58 278.129C222.403 278.492 221.967 278.643 221.604 278.467C221.242 278.29 221.091 277.853 221.267 277.49C226.274 267.18 232.605 257.736 239.927 251.972C243.595 249.085 247.536 247.102 251.703 246.419Z" fill="#181B2B"/>
<path fill-rule="evenodd" clip-rule="evenodd" d="M313.704 261.712C313.928 262.048 313.837 262.501 313.502 262.725C309.467 265.42 307.393 270.039 306.66 275.096C305.927 280.149 306.552 285.531 307.804 289.574C307.924 289.96 307.708 290.369 307.323 290.488C306.939 290.608 306.53 290.392 306.41 290.007C305.1 285.777 304.449 280.175 305.216 274.886C305.982 269.602 308.184 264.52 312.692 261.51C313.028 261.286 313.481 261.376 313.704 261.712Z" fill="#181B2B"/>
<path fill-rule="evenodd" clip-rule="evenodd" d="M350.88 41.0887C346.38 35.4429 338.484 32.3553 326.595 33.1997C326.378 33.2151 326.179 33.3447 326.079 33.5335L322.197 40.8675C321.97 41.2966 322.296 41.861 322.833 41.8575C327.738 41.8262 331.231 42.8968 333.546 44.6235C335.873 46.3582 336.967 48.7229 337.121 51.1649C337.425 55.9908 334.054 61.1515 329.363 62.4392C329.299 62.4568 329.248 62.4993 329.22 62.5481C329.193 62.594 329.192 62.6351 329.205 62.6711C331.195 68.1527 336.31 70.7099 341.632 70.9058C346.977 71.1025 352.354 68.9101 354.785 65.1046C354.793 65.0925 354.8 65.0744 354.804 65.0522C356.598 55.1148 355.393 46.7502 350.88 41.0887ZM351.666 40.4603C356.435 46.4422 357.614 55.1512 355.795 65.2314C355.769 65.3747 355.715 65.5178 355.633 65.6474C352.951 69.8459 347.171 72.1179 341.595 71.9126C335.998 71.7066 330.43 68.9954 328.259 63.0153C328.006 62.318 328.471 61.6395 329.097 61.4676C333.288 60.317 336.393 55.6199 336.116 51.2283C335.98 49.0616 335.019 46.9777 332.945 45.4315C330.861 43.8772 327.607 42.8345 322.839 42.865C321.593 42.873 320.7 41.5435 321.308 40.3957L325.19 33.0617C325.455 32.5625 325.965 32.2344 326.524 32.1947C338.604 31.3367 346.886 34.4627 351.666 40.4603Z" fill="#181B2B"/>
<path fill-rule="evenodd" clip-rule="evenodd" d="M282.769 113.171C283.097 112.937 283.552 113.013 283.787 113.341C284.741 114.679 285.494 116.465 286.2 118.502C286.679 119.887 287.15 121.429 287.649 123.064C287.884 123.833 288.126 124.623 288.377 125.427C289.957 130.481 291.981 136.222 295.556 141.643C302.66 152.417 316.012 162.105 344.741 162.105C345.144 162.105 345.47 162.432 345.47 162.836C345.47 163.239 345.144 163.566 344.741 163.566C315.625 163.566 301.765 153.712 294.338 142.448C290.646 136.849 288.574 130.947 286.984 125.864C286.725 125.035 286.48 124.233 286.243 123.457C285.749 121.839 285.292 120.34 284.821 118.981C284.124 116.969 283.426 115.349 282.599 114.191C282.365 113.862 282.441 113.406 282.769 113.171Z" fill="#181B2B"/>
<path fill-rule="evenodd" clip-rule="evenodd" d="M404.43 113.171C404.102 112.937 403.646 113.013 403.412 113.341C402.458 114.679 401.705 116.465 400.999 118.502C400.519 119.887 400.048 121.429 399.549 123.064C399.314 123.833 399.073 124.623 398.822 125.427C397.241 130.481 395.218 136.222 391.643 141.643C384.538 152.417 371.186 162.105 342.458 162.105C342.055 162.105 341.728 162.432 341.728 162.836C341.728 163.239 342.055 163.566 342.458 163.566C371.573 163.566 385.434 153.712 392.861 142.448C396.553 136.849 398.625 130.947 400.215 125.864C400.474 125.035 400.719 124.233 400.956 123.457C401.45 121.839 401.907 120.34 402.378 118.981C403.075 116.969 403.773 115.349 404.6 114.191C404.834 113.862 404.758 113.406 404.43 113.171Z" fill="#181B2B"/>
<path fill-rule="evenodd" clip-rule="evenodd" d="M319.128 56.5433C323.717 55.0118 328.903 54.8995 335.483 56.2886L335.182 57.7185C328.771 56.365 323.862 56.5038 319.59 57.9296C315.311 59.3575 311.591 62.102 307.6 66.1048C302.22 71.4993 296.179 76.1856 289.873 80.4089C278.254 88.1915 273.624 96.5688 274.248 105.285C274.877 114.08 280.864 123.47 291.097 133.212L290.092 134.271C279.781 124.456 273.461 114.742 272.792 105.389C272.117 95.9575 277.195 87.1431 289.062 79.1943C295.312 75.0075 301.273 70.3806 306.567 65.0723C310.636 60.992 314.545 58.0728 319.128 56.5433Z" fill="#181B2B"/>
<path fill-rule="evenodd" clip-rule="evenodd" d="M369.766 57.0892C365.789 55.4542 361.4 54.9335 356.031 55.5964L356.21 57.0467C361.377 56.4086 365.507 56.9181 369.211 58.441C372.927 59.9682 376.27 62.5371 379.83 66.1076C385.21 71.5025 391.248 76.1856 397.553 80.4088C409.173 88.1915 413.803 96.5688 413.179 105.285C412.55 114.08 406.563 123.47 396.329 133.212L397.335 134.271C407.645 124.456 413.965 114.742 414.635 105.389C415.31 95.9575 410.232 87.143 398.365 79.1943C392.114 75.0075 386.157 70.3837 380.863 65.0751C377.234 61.4363 373.732 58.7197 369.766 57.0892Z" fill="#181B2B"/>
<path fill-rule="evenodd" clip-rule="evenodd" d="M342.454 170.505C383.823 170.505 417.359 136.928 417.359 95.5085C417.359 54.0891 383.823 20.5121 342.454 20.5121C301.085 20.5121 267.548 54.0891 267.548 95.5085C267.548 136.928 301.085 170.505 342.454 170.505ZM342.454 171.966C384.629 171.966 418.819 137.735 418.819 95.5085C418.819 53.282 384.629 19.0508 342.454 19.0508C300.279 19.0508 266.089 53.282 266.089 95.5085C266.089 137.735 300.279 171.966 342.454 171.966Z" fill="#181B2B"/>
<path d="M347.543 121.973L346.589 117.673C346.465 117.116 347.145 116.742 347.548 117.146L352.443 122.047C352.782 122.387 352.576 122.968 352.1 123.018L349.391 123.304C348.526 123.395 347.731 122.822 347.543 121.973Z" fill="#181B2B"/>
<path fill-rule="evenodd" clip-rule="evenodd" d="M348.064 116.633C347.144 115.712 345.594 116.564 345.876 117.835L346.83 122.134C347.099 123.346 348.234 124.163 349.467 124.033L352.176 123.748C353.263 123.633 353.732 122.308 352.959 121.534L348.064 116.633ZM347.42 118.055L351.69 122.33L349.314 122.58C348.819 122.632 348.363 122.304 348.255 121.817L347.42 118.055Z" fill="#181B2B"/>
<path fill-rule="evenodd" clip-rule="evenodd" d="M383.796 97.8313C384.4 97.3252 385.275 97.7206 385.319 98.4608C385.844 107.195 383.923 111.533 380.437 113.799C378.654 114.958 376.39 115.627 373.657 116.002C370.924 116.378 367.779 116.454 364.258 116.465C363.349 116.468 362.925 115.32 363.63 114.729L383.796 97.8313ZM386.776 98.373C386.657 96.3884 384.346 95.465 382.859 96.7107L362.693 113.608C360.949 115.07 361.977 117.933 364.262 117.926C367.785 117.915 371.017 117.84 373.856 117.45C376.694 117.06 379.196 116.348 381.232 115.024C385.383 112.326 387.313 107.296 386.776 98.373Z" fill="#181B2B"/>
<path d="M339.367 121.973L340.321 117.673C340.445 117.116 339.765 116.742 339.362 117.146L334.467 122.047C334.128 122.387 334.333 122.968 334.81 123.018L337.519 123.304C338.383 123.395 339.178 122.822 339.367 121.973Z" fill="#181B2B"/>
<path fill-rule="evenodd" clip-rule="evenodd" d="M338.846 116.633C339.765 115.712 341.316 116.564 341.034 117.835L340.079 122.134C339.81 123.346 338.676 124.163 337.443 124.033L334.734 123.748C333.646 123.633 333.178 122.308 333.951 121.534L338.846 116.633ZM339.49 118.055L335.22 122.33L337.595 122.58C338.091 122.632 338.546 122.304 338.655 121.817L339.49 118.055Z" fill="#181B2B"/>
<path fill-rule="evenodd" clip-rule="evenodd" d="M303.106 97.8313C302.502 97.3252 301.627 97.7206 301.583 98.4608C301.058 107.195 302.979 111.533 306.465 113.799C308.248 114.958 310.512 115.627 313.245 116.002C315.978 116.378 319.124 116.454 322.644 116.465C323.553 116.468 323.977 115.32 323.272 114.729L303.106 97.8313ZM300.126 98.373C300.245 96.3884 302.556 95.465 304.043 96.7107L324.209 113.608C325.953 115.07 324.925 117.933 322.64 117.926C319.117 117.915 315.885 117.84 313.046 117.45C310.208 117.06 307.706 116.348 305.67 115.024C301.519 112.326 299.589 107.296 300.126 98.373Z" fill="#181B2B"/>
<path fill-rule="evenodd" clip-rule="evenodd" d="M395.248 114.998C393.976 115.556 392.943 116.17 392.002 116.935C390.739 117.962 389.607 119.287 388.281 121.186C387.815 121.853 386.967 122.161 386.175 121.913L383.634 121.118C383.411 121.048 383.137 121.184 383.065 121.462C381.708 126.68 378.38 132.18 374.183 134.626C373.571 134.983 372.84 134.918 372.292 134.558L366.214 130.572C365.96 130.405 365.587 130.568 365.558 130.907C365.022 137.09 363.963 140.411 362.092 143.098C361.404 144.086 360.031 144.07 359.277 143.253C353.314 136.789 349.892 133.152 343.508 131.382C343.445 131.364 343.374 131.364 343.311 131.382C336.978 133.138 333.663 136.732 327.774 143.115L327.646 143.253C326.893 144.07 325.52 144.086 324.832 143.098C322.961 140.411 321.901 137.09 321.366 130.907C321.337 130.568 320.963 130.405 320.709 130.572L314.632 134.558C314.084 134.918 313.353 134.983 312.741 134.626C308.544 132.18 305.216 126.68 303.859 121.462C303.786 121.184 303.512 121.048 303.289 121.118L300.748 121.913C299.957 122.161 299.108 121.853 298.642 121.186C297.316 119.287 296.184 117.962 294.922 116.935C293.98 116.17 292.948 115.556 291.676 114.998C297.931 124.179 301.806 130.975 305.74 142.395C305.816 142.617 306.055 142.73 306.268 142.657L313.41 140.199C314.261 139.906 315.193 140.265 315.641 141.033C319.225 147.168 321.91 150.151 327.088 153.61C327.265 153.727 327.524 153.684 327.659 153.479C329.146 151.216 330.772 149.073 332.392 147.309C334.003 145.556 335.648 144.134 337.179 143.365C337.913 142.997 338.733 143.234 339.232 143.76L343.589 148.351L347.676 143.811C347.676 143.811 347.677 143.81 347.677 143.81C348.173 143.255 349.015 142.996 349.77 143.378C351.297 144.151 352.937 145.572 354.544 147.323C356.16 149.084 357.781 151.222 359.265 153.479C359.399 153.684 359.659 153.727 359.835 153.61C365.014 150.151 367.699 147.168 371.282 141.033C371.731 140.265 372.662 139.906 373.514 140.199L380.656 142.657C380.868 142.73 381.107 142.617 381.184 142.395C385.117 130.975 388.993 124.179 395.248 114.998ZM396.113 113.08C397.076 112.727 397.823 113.826 397.286 114.605C390.582 124.352 386.613 131.115 382.563 142.871C382.227 143.847 381.164 144.377 380.181 144.039L373.039 141.581C372.856 141.518 372.645 141.593 372.542 141.771C368.866 148.065 366.037 151.225 360.645 154.825C359.768 155.411 358.607 155.137 358.046 154.283C356.595 152.075 355.021 150.002 353.469 148.312C351.908 146.611 350.408 145.339 349.111 144.682C349.034 144.643 348.89 144.644 348.765 144.785L348.762 144.787L344.63 149.377C344.084 149.984 343.137 149.997 342.574 149.404L338.174 144.767C338.049 144.634 337.909 144.634 337.833 144.672C336.534 145.324 335.032 146.595 333.466 148.298C331.911 149.991 330.333 152.069 328.878 154.283C328.316 155.137 327.155 155.411 326.278 154.825C320.887 151.225 318.058 148.065 314.382 141.771C314.278 141.593 314.067 141.518 313.884 141.581L306.742 144.039C305.759 144.377 304.696 143.847 304.36 142.871C300.31 131.115 296.342 124.352 289.637 114.605C289.101 113.826 289.848 112.727 290.811 113.08C292.849 113.826 294.424 114.649 295.842 115.801C297.254 116.949 298.476 118.397 299.838 120.349C299.949 120.508 300.144 120.571 300.313 120.518L302.854 119.723C303.923 119.389 305.002 120.06 305.271 121.094C306.57 126.088 309.729 131.18 313.475 133.364C313.565 133.416 313.701 133.422 313.832 133.336L319.909 129.349C321.117 128.557 322.698 129.377 322.82 130.781C323.346 136.852 324.369 139.878 326.029 142.262C326.131 142.409 326.389 142.462 326.574 142.262C326.666 142.162 326.757 142.063 326.848 141.965C332.608 135.72 336.186 131.842 342.922 129.973C343.24 129.885 343.579 129.885 343.897 129.973C350.74 131.87 354.423 135.838 360.35 142.262C360.534 142.462 360.792 142.409 360.895 142.262C362.555 139.878 363.578 136.852 364.103 130.781C364.225 129.377 365.806 128.557 367.014 129.349L373.091 133.336C373.222 133.422 373.359 133.416 373.448 133.364C377.194 131.18 380.354 126.088 381.652 121.094C381.921 120.06 383 119.389 384.07 119.723L386.61 120.518C386.779 120.571 386.974 120.508 387.085 120.349C388.448 118.397 389.67 116.949 391.082 115.801C392.499 114.649 394.075 113.826 396.113 113.08Z" fill="#181B2B"/>
<path fill-rule="evenodd" clip-rule="evenodd" d="M296.045 166.968L299.608 158.559L300.952 159.129L297.388 167.538C297.235 167.9 297.309 168.286 297.553 168.534C305.606 176.739 321.374 181.837 338.547 182.296C355.694 182.754 374.032 178.578 387.156 168.477C387.489 168.222 387.61 167.763 387.437 167.356L383.951 159.129L385.295 158.559L388.781 166.785C389.204 167.784 388.923 168.961 388.046 169.636C374.577 180.002 355.875 184.22 338.508 183.756C321.167 183.293 304.947 178.153 296.512 169.559C295.823 168.857 295.678 167.832 296.045 166.968Z" fill="#181B2B"/>
<path fill-rule="evenodd" clip-rule="evenodd" d="M424.109 183.054L388.069 168.943L388.6 167.582L424.64 181.693C433.779 185.271 439.499 194.552 438.07 204.309C431.934 246.208 419.589 277.847 396.129 321.124C391.577 329.52 383.271 335.409 373.718 336.209C354.054 337.855 338.291 336.038 323.147 330.394C308.018 324.754 293.553 315.312 276.469 301.781L275.279 300.838L352.783 282.886L378.299 230.657L378.33 230.612C383.11 223.651 392.675 215.316 403.429 208.269C413.879 201.421 425.559 195.72 435.223 193.677C433.154 188.94 429.209 185.051 424.109 183.054ZM435.764 195.056C426.312 197.001 414.698 202.631 404.228 209.492C393.563 216.481 384.197 224.671 379.563 231.396L353.789 284.153L278.567 301.576C295.087 314.566 309.088 323.594 323.656 329.024C338.559 334.579 354.101 336.385 373.597 334.752C382.616 333.997 390.507 328.43 394.846 320.427C418.255 277.245 430.522 245.773 436.626 204.097C437.084 200.968 436.75 197.887 435.764 195.056Z" fill="#181B2B"/>
<path fill-rule="evenodd" clip-rule="evenodd" d="M370.295 300.963C364.291 292.746 357.647 286.326 353.327 283.954L353.811 283.07C358.323 285.548 365.072 292.108 371.107 300.368C377.149 308.636 382.539 318.693 384.268 328.212C384.318 328.486 384.136 328.748 383.863 328.798C383.59 328.848 383.328 328.666 383.278 328.393C381.587 319.083 376.292 309.17 370.295 300.963Z" fill="#181B2B"/>
<path fill-rule="evenodd" clip-rule="evenodd" d="M278.085 171.386L296.399 166.695L296.761 168.111L278.447 172.802C274.547 173.8 271.023 175.919 268.404 178.959C263.53 184.616 258.767 190.565 254.432 196.642L253.244 195.793C257.611 189.673 262.402 183.688 267.299 178.004C270.123 174.726 273.911 172.455 278.085 171.386ZM217.823 272.546C220.44 261.424 224.043 250.6 228.462 240.152L229.806 240.722C225.417 251.099 221.841 261.845 219.243 272.881C217.416 280.643 220.396 288.922 227.351 292.536C234.916 296.468 242.205 297.793 253.067 299.052L252.9 300.503C242.009 299.241 234.494 297.895 226.679 293.833C219.02 289.853 215.873 280.829 217.823 272.546Z" fill="#181B2B"/>
<path fill-rule="evenodd" clip-rule="evenodd" d="M273.949 238.379L313.31 261.391L362.986 262.528L362.953 263.989L312.899 262.843L274.186 240.21C263.126 251.397 257.343 262.243 254.748 272.971C252.179 283.592 252.721 294.152 254.433 304.903L276.774 300.485L277.056 301.919L253.236 306.63L253.114 305.885C251.292 294.787 250.635 283.764 253.329 272.627C256.026 261.478 262.067 250.271 273.551 238.777L273.949 238.379Z" fill="#181B2B"/>
<path fill-rule="evenodd" clip-rule="evenodd" d="M265.257 302.981C265.534 302.997 265.747 303.234 265.732 303.512C264.599 323.979 268.86 343.891 270.566 351.589C270.627 351.861 270.456 352.13 270.184 352.19C269.913 352.25 269.644 352.079 269.584 351.807C267.876 344.1 263.586 324.072 264.727 303.456C264.742 303.179 264.98 302.966 265.257 302.981Z" fill="#181B2B"/>
<path fill-rule="evenodd" clip-rule="evenodd" d="M238.685 171.918C240.8 171.455 242.958 172.492 243.921 174.434L261.356 209.612L267.351 224.76C267.5 225.136 267.316 225.56 266.942 225.709C266.567 225.858 266.143 225.674 265.994 225.299L260.022 210.207L242.613 175.083C241.949 173.742 240.458 173.026 238.997 173.346L237.57 173.658C235.589 174.092 234.48 176.213 235.253 178.09L246.832 206.207L251.391 217.335C251.544 217.708 251.366 218.135 250.993 218.288C250.62 218.441 250.194 218.263 250.041 217.889L245.671 207.224C242.798 207.338 240.857 208.663 239.148 210.899C238.234 212.095 238.019 213.717 238.396 215.285L241.452 227.997C241.547 228.389 241.306 228.784 240.914 228.878C240.522 228.973 240.128 228.731 240.034 228.339L238.256 220.945C237.47 221.093 236.802 221.326 236.176 221.672C235.382 222.11 234.62 222.75 233.758 223.696C232.503 225.074 232.18 227.098 232.743 228.977L235.173 237.087C235.289 237.474 235.07 237.881 234.684 237.997C234.298 238.113 233.891 237.894 233.775 237.507L231.848 231.074C230.831 231.909 230.105 232.929 229.365 234.441C228.538 236.131 228.761 238.174 229.804 239.838L238.703 254.041C238.917 254.383 238.814 254.834 238.472 255.048C238.131 255.263 237.68 255.159 237.466 254.818L228.567 240.614C227.302 238.594 226.97 236.013 228.054 233.798C228.967 231.934 229.921 230.645 231.399 229.578L231.345 229.397C230.664 227.123 231.016 224.538 232.679 222.712C233.607 221.694 234.492 220.933 235.471 220.392C236.232 219.972 237.028 219.696 237.914 219.523L236.977 215.627C236.523 213.74 236.746 211.637 237.989 210.011C239.798 207.645 241.969 206.071 245.084 205.798L233.904 178.647C232.785 175.929 234.39 172.859 237.258 172.231L238.685 171.918Z" fill="#181B2B"/>
<path fill-rule="evenodd" clip-rule="evenodd" d="M272.266 174.096C272.666 174.044 273.032 174.327 273.084 174.727C275.097 190.325 274.106 199.318 272.719 211.905C272.469 214.172 272.206 216.555 271.946 219.115C271.905 219.516 271.547 219.808 271.146 219.767C270.745 219.727 270.453 219.368 270.494 218.967C270.756 216.39 271.02 213.997 271.27 211.726C272.654 199.158 273.626 190.331 271.636 174.914C271.584 174.514 271.867 174.148 272.266 174.096Z" fill="#181B2B"/>
<path fill-rule="evenodd" clip-rule="evenodd" d="M258.124 211.459C258.371 211.778 258.312 212.237 257.994 212.484C249.277 219.241 241.377 229.965 236.862 242.397C236.724 242.776 236.306 242.972 235.927 242.834C235.548 242.696 235.353 242.277 235.49 241.897C240.093 229.224 248.151 218.266 257.1 211.329C257.419 211.082 257.877 211.14 258.124 211.459Z" fill="#181B2B"/>
<path fill-rule="evenodd" clip-rule="evenodd" d="M370.075 58.8102C366.707 57.2575 363.024 56.565 358.545 56.8285C358.143 56.8521 357.797 56.5448 357.774 56.1419C357.75 55.7391 358.057 55.3934 358.459 55.3697C363.152 55.0937 367.078 55.8195 370.685 57.4829C374.282 59.1414 377.522 61.7138 380.87 65.0712C386.164 70.3799 392.117 75.0012 398.368 79.1875C409.51 86.6492 414.674 94.8751 414.701 103.674C414.728 112.421 409.671 121.497 400.942 130.673C400.664 130.965 400.202 130.976 399.91 130.698C399.619 130.419 399.607 129.957 399.885 129.665C408.521 120.587 413.267 111.862 413.242 103.678C413.217 95.5466 408.473 87.7125 397.557 80.4021C391.251 76.1792 385.217 71.4986 379.838 66.1037C376.552 62.8093 373.453 60.3678 370.075 58.8102Z" fill="#FD9317"/>
<path fill-rule="evenodd" clip-rule="evenodd" d="M351.086 41.3437C346.754 35.7052 339.138 32.5315 327.666 33.13C327.388 33.1445 327.152 32.931 327.137 32.6532C327.123 32.3753 327.336 32.1383 327.613 32.1239C339.285 31.515 347.281 34.7392 351.884 40.7294C356.474 46.7022 357.591 55.2994 355.798 65.2276C355.773 65.3711 355.719 65.5142 355.636 65.6437C354.097 68.0537 351.537 69.824 348.603 70.8574C348.341 70.9497 348.054 70.8118 347.962 70.5494C347.869 70.2869 348.007 69.9993 348.269 69.907C351.049 68.9276 353.4 67.275 354.789 65.1009C354.796 65.0887 354.804 65.0704 354.808 65.0484C356.575 55.2615 355.432 46.9995 351.086 41.3437Z" fill="#14C393"/>
<path fill-rule="evenodd" clip-rule="evenodd" d="M431.649 195.32C431.766 195.706 431.547 196.114 431.162 196.231C424.043 198.386 416.105 202.195 408.519 206.784C408.174 206.993 407.725 206.882 407.517 206.537C407.308 206.192 407.419 205.742 407.764 205.534C415.418 200.903 423.469 197.033 430.739 194.832C431.125 194.715 431.532 194.934 431.649 195.32Z" fill="#1FAC85"/>
<path fill-rule="evenodd" clip-rule="evenodd" d="M387.257 169.318C387.495 169.643 387.426 170.1 387.101 170.339C379.834 175.684 371.143 179.309 362.012 181.435C361.62 181.526 361.227 181.282 361.136 180.889C361.045 180.496 361.289 180.103 361.682 180.012C370.661 177.92 379.161 174.366 386.237 169.161C386.561 168.922 387.018 168.992 387.257 169.318Z" fill="#14C393"/>
<path fill-rule="evenodd" clip-rule="evenodd" d="M309.538 36.1168C309.853 36.6624 309.667 37.3604 309.122 37.676C298.531 43.8101 289.781 52.7775 283.906 63.5422C283.605 64.0952 282.912 64.2986 282.36 63.9964C281.807 63.6943 281.604 63.0009 281.906 62.4479C287.981 51.3157 297.028 42.0436 307.98 35.7004C308.525 35.3848 309.223 35.5713 309.538 36.1168ZM280.336 68.2046C280.917 68.4484 281.19 69.1171 280.946 69.6983C279.771 72.5042 278.781 75.4074 277.993 78.3925C277.832 79.0019 277.208 79.3652 276.599 79.2041C275.991 79.043 275.628 78.4185 275.789 77.8092C276.604 74.7211 277.628 71.7178 278.844 68.8154C279.088 68.2342 279.756 67.9607 280.336 68.2046Z" fill="#FD9317"/>
<path fill-rule="evenodd" clip-rule="evenodd" d="M307.93 163.691C308.517 163.92 308.808 164.582 308.58 165.169L306.232 171.214C306.003 171.802 305.343 172.093 304.755 171.865C304.168 171.636 303.878 170.974 304.106 170.387L306.454 164.342C306.682 163.754 307.343 163.463 307.93 163.691Z" fill="#FD9317"/>
<path d="M341.832 200.189C341.471 200.059 341.116 200.331 341.068 200.712C339.867 210.398 336.893 219.181 331.389 221.782L333.268 205.398C333.302 205.108 332.974 204.916 332.738 205.088L325.355 210.469L319.432 202.703C319.248 202.462 318.865 202.569 318.832 202.87L316.993 219.388C312.277 215.076 311.393 205.62 312.423 195.881C312.461 195.525 312.216 195.194 311.858 195.195C306.047 195.218 299.119 208.341 297.291 224.26C296.47 231.425 297.385 238.243 298.457 243.657C298.575 244.255 299.371 244.391 299.702 243.878C302.509 239.531 306.148 235.542 309.636 236.124C316.56 237.274 321.932 240.32 320.422 253.472C321.926 240.32 327.785 239.141 334.709 240.297C338.208 240.88 340.819 245.932 342.541 251.05C342.737 251.63 343.545 251.69 343.801 251.134C346.045 246.279 348.443 240.04 349.261 232.904C351.077 217.034 347.389 202.187 341.832 200.189Z" fill="#2F354D"/>
<path d="M315.314 225.922C314.447 225.778 313.84 224.851 313.954 223.845C314.068 222.845 314.863 222.151 315.729 222.295C316.589 222.438 317.197 223.372 317.082 224.366C316.968 225.371 316.174 226.066 315.314 225.922ZM332.603 228.795C331.737 228.652 331.135 227.724 331.249 226.724C331.364 225.725 332.152 225.024 333.018 225.168C333.884 225.312 334.492 226.245 334.378 227.245C334.263 228.245 333.469 228.939 332.603 228.795ZM323.694 231.202C323.778 231.214 323.856 231.226 323.934 231.232C324.44 231.274 324.819 231.16 325.065 230.962C325.294 230.777 325.528 230.429 325.613 229.699C325.685 229.041 325.522 228.52 325.162 227.969C324.771 227.377 324.211 226.85 323.537 226.191C322.912 225.581 322.172 224.851 321.684 223.941C321.161 222.965 320.92 221.816 321.251 220.439C321.648 218.775 322.857 217.943 324.151 217.805C324.512 217.769 324.891 217.781 325.276 217.847C326.226 218.003 327.207 218.47 328.079 219.206L327.014 220.918C326.359 220.373 325.667 220.056 325.041 219.954C324.795 219.912 324.554 219.906 324.337 219.93C323.597 220.008 323.17 220.409 323.02 221.026C322.839 221.774 322.96 222.313 323.236 222.821C323.543 223.396 324.049 223.923 324.71 224.563C325.318 225.156 326.07 225.856 326.617 226.682C327.195 227.556 327.586 228.64 327.435 229.993C327.297 231.196 326.852 232.124 326.13 232.704C325.432 233.267 324.596 233.405 323.826 233.345C323.706 233.333 323.579 233.321 323.459 233.297C322.057 233.063 320.608 232.189 319.747 231.166L321.047 229.687C321.63 230.382 322.707 231.034 323.694 231.202ZM325.992 209.616C318.526 208.377 311.65 214.501 310.646 223.294C309.635 232.094 314.875 240.234 322.34 241.474C329.806 242.713 336.682 236.589 337.686 227.79C338.697 218.996 333.457 210.855 325.992 209.616Z" fill="#181B2B"/>
<path d="M315.723 222.296C314.856 222.152 314.062 222.853 313.948 223.846C313.834 224.852 314.441 225.774 315.307 225.924C316.168 226.067 316.962 225.373 317.076 224.367C317.19 223.368 316.583 222.44 315.723 222.296Z" fill="#E7EAF3"/>
<path d="M333.01 225.167C332.144 225.023 331.356 225.724 331.241 226.723C331.127 227.723 331.729 228.651 332.595 228.795C333.461 228.938 334.255 228.244 334.37 227.244C334.484 226.245 333.876 225.311 333.01 225.167Z" fill="#E7EAF3"/>
<path d="M325.27 217.859C324.891 217.793 324.512 217.781 324.145 217.817C322.852 217.954 321.643 218.786 321.246 220.451C320.915 221.827 321.155 222.977 321.679 223.952C322.166 224.862 322.906 225.593 323.532 226.203C324.205 226.856 324.765 227.388 325.156 227.981C325.517 228.532 325.685 229.052 325.607 229.711C325.523 230.441 325.288 230.788 325.06 230.974C324.813 231.171 324.434 231.285 323.929 231.243C323.85 231.237 323.766 231.225 323.688 231.213C322.701 231.052 321.625 230.399 321.041 229.711L319.742 231.189C320.602 232.213 322.046 233.087 323.453 233.32C323.58 233.338 323.7 233.356 323.82 233.368C324.59 233.428 325.427 233.29 326.124 232.728C326.84 232.147 327.291 231.219 327.43 230.016C327.586 228.663 327.189 227.58 326.612 226.706C326.064 225.874 325.312 225.174 324.705 224.587C324.049 223.952 323.544 223.42 323.231 222.845C322.954 222.336 322.84 221.797 323.014 221.049C323.165 220.433 323.592 220.032 324.332 219.954C324.548 219.93 324.789 219.936 325.036 219.978C325.655 220.079 326.353 220.397 327.009 220.941L328.074 219.229C327.201 218.481 326.221 218.014 325.27 217.859Z" fill="#E7EAF3"/>
<path d="M322.342 241.481C314.877 240.235 309.637 232.101 310.648 223.295C311.659 214.502 318.529 208.372 325.994 209.617C333.46 210.862 338.699 218.997 337.689 227.791C336.684 236.596 329.808 242.72 322.342 241.481ZM326.138 208.36C318.083 207.019 310.672 213.628 309.583 223.116C308.494 232.603 314.143 241.385 322.198 242.72C330.253 244.055 337.665 237.452 338.753 227.964C339.842 218.483 334.194 209.701 326.138 208.36Z" fill="#505573"/>
<path d="M240.693 113.962C259.646 130.634 248.461 144.197 240.036 150.838C236.373 153.726 234.305 158.522 235.663 162.988C201.533 155.264 187.78 111.362 223.929 124.377C159.939 72.3216 235.327 34.7202 247.736 72.3219C222.665 54.6054 213.608 90.1375 240.693 113.962Z" fill="#FD9317"/>
<path fill-rule="evenodd" clip-rule="evenodd" d="M199.628 88.8729C201.324 98.8911 208.468 110.858 224.39 123.81L223.682 125.065C214.691 121.827 209.093 122.246 206.145 124.421C203.26 126.551 202.581 130.646 204.138 135.69C207.172 145.511 218.466 157.887 234.676 162C233.882 157.554 236.061 153.043 239.585 150.264C243.759 146.974 248.498 142.053 249.921 135.994C251.322 130.026 249.549 122.725 240.211 114.511C226.524 102.472 221.862 87.3817 223.941 77.4149C224.983 72.4199 227.753 68.6187 232.036 67.3053C235.862 66.1315 240.697 67.0086 246.254 70.4612C242.95 62.7415 236.646 58.8421 229.694 57.9975C222.102 57.0751 213.723 59.8011 207.672 65.2706C201.64 70.7222 197.936 78.8834 199.628 88.8729ZM229.87 56.5469C237.943 57.5276 245.231 62.4042 248.428 72.0929L249.123 74.1966L247.315 72.919C241.138 68.554 236.109 67.5843 232.463 68.7025C228.843 69.813 226.34 73.0621 225.37 77.7137C223.424 87.04 227.777 101.628 241.175 113.414C250.79 121.871 252.901 129.688 251.342 136.329C249.804 142.88 244.738 148.062 240.488 151.413C237.003 154.16 235.11 158.662 236.361 162.776L236.726 163.978L235.502 163.701C218.195 159.784 206.011 146.698 202.744 136.121C201.116 130.85 201.643 125.928 205.28 123.245C208.363 120.97 213.429 120.518 220.594 122.535C206.501 110.364 199.857 98.9677 198.189 89.1172C196.406 78.5909 200.326 69.9414 206.694 64.1859C213.042 58.4484 221.837 55.5708 229.87 56.5469Z" fill="#181B2B"/>
<path d="M2.5618 101.332C18.0216 108.116 31.1869 126.192 32.1094 153.898C33.0317 126.194 45.758 108.119 61.1708 101.333C62.011 100.963 62.0116 99.6712 61.1722 99.2992C45.7588 92.4685 33.0318 73.9555 32.1094 46.25C31.1869 73.9576 18.0208 92.4713 2.56037 99.3008C1.72058 99.6717 1.72112 100.963 2.5618 101.332Z" fill="#7A859E"/>
<path fill-rule="evenodd" clip-rule="evenodd" d="M32.1021 55.1154C28.9708 78.1729 16.9007 93.7656 2.85497 99.9701C2.74744 100.018 2.66058 100.136 2.66069 100.317C2.6608 100.499 2.74765 100.616 2.85479 100.663C16.8973 106.826 28.9704 122.064 32.1021 145.049C35.1562 122.075 46.8699 106.832 60.8771 100.665C60.9842 100.618 61.0715 100.5 61.0716 100.317C61.0717 100.135 60.9844 100.016 60.8769 99.9683C46.8666 93.7594 35.1557 78.1624 32.1021 55.1154ZM31.38 46.2266L32.8388 46.2266C33.7544 73.73 46.3746 91.9433 61.4676 98.632C62.1994 98.9563 62.5315 99.6696 62.5311 100.318C62.5308 100.967 62.1977 101.68 61.4646 102.003C46.369 108.649 33.7542 126.427 32.8388 153.924H31.38C30.4649 126.437 17.4197 108.65 2.26887 102.002C1.53533 101.68 1.20156 100.967 1.20117 100.318C1.20079 99.6695 1.53355 98.9567 2.26582 98.6332C17.4139 91.9417 30.4647 73.7205 31.38 46.2266Z" fill="#181B2B"/>
<path d="M79.4138 180.453C88.6782 184.995 96.4084 196.104 96.967 212.84C97.5255 196.107 104.997 184.999 114.217 180.455C115.041 180.049 115.042 178.715 114.219 178.305C104.998 173.72 97.5255 162.356 96.967 145.621C96.4084 162.359 88.6769 173.724 79.4115 178.308C78.588 178.715 78.5887 180.048 79.4138 180.453Z" fill="#7A859E"/>
<path fill-rule="evenodd" clip-rule="evenodd" d="M96.9593 152.967C94.7188 165.955 87.845 174.948 79.7351 178.96L79.4118 178.305L79.7351 178.96C79.6271 179.013 79.5243 179.155 79.5245 179.378C79.5247 179.601 79.6275 179.741 79.735 179.794C87.8426 183.769 94.7184 192.57 96.9593 205.505C99.142 192.581 105.82 183.776 113.895 179.797C114.002 179.744 114.106 179.603 114.106 179.378C114.106 179.153 114.003 179.011 113.895 178.957C105.818 174.94 99.1415 165.945 96.9593 152.967ZM96.2379 145.594L97.6966 145.594C98.2486 162.131 105.621 173.211 114.544 177.648C115.258 178.003 115.566 178.733 115.565 179.379C115.565 180.025 115.256 180.755 114.539 181.108C105.615 185.506 98.2483 196.331 97.6966 212.862H96.2379C95.6865 196.339 88.0688 185.507 79.0931 181.106C78.3755 180.754 78.0655 180.026 78.0649 179.379C78.0644 178.733 78.373 178.004 79.0885 177.65C88.0632 173.21 95.6863 162.123 96.2379 145.594Z" fill="#181B2B"/>
</g>
<defs>
<filter id="ab" x="246.245" y="14.155" width="198.647" height="198.776" filterUnits="userSpaceOnUse" color-interpolation-filters="sRGB">
<feFlood flood-opacity="0" result="BackgroundImageFix"/>
<feBlend mode="normal" in="SourceGraphic" in2="BackgroundImageFix" result="shape"/>
<feGaussianBlur stdDeviation="34.4733" result="effect1_foregroundBlur_3193_13636"/>
</filter>
<clipPath id="clip0_3193_13636">
<rect width="670" height="320" fill="white"/>
</clipPath>
</defs>
</svg>
