<svg xmlns="http://www.w3.org/2000/svg" width="16" height="16" fill="none"><path fill="#7A859E" fill-rule="evenodd" d="M.885.885a3.022 3.022 0 0 1 5.16 2.137v1.956h3.91V3.022a3.023 3.023 0 1 1 3.023 3.022h-1.956v3.912h1.956a3.023 3.023 0 1 1-3.022 3.022v-1.956H6.044v1.956a3.022 3.022 0 1 1-3.022-3.022h1.956V6.044H3.022A3.022 3.022 0 0 1 .885.885m4.093 4.093V3.022a1.956 1.956 0 1 0-1.956 1.956zm1.066 1.066v3.912h3.912V6.044zm-1.066 4.978H3.022a1.956 1.956 0 1 0 1.956 1.956zm6.044 0v1.956a1.956 1.956 0 1 0 1.956-1.956zm0-6.044h1.956a1.956 1.956 0 1 0-1.956-1.956z" clip-rule="evenodd"/></svg>