<svg xmlns="http://www.w3.org/2000/svg" width="16" height="16" fill="none"><path fill="#7A859E" fill-rule="evenodd" d="M6.42.757A1 1 0 0 1 7.39 0h1.22a1 1 0 0 1 .97.757l.338 1.355 1.008.336.956-.637a1 1 0 0 1 1.261.125l.92.92a1 1 0 0 1 .126 1.262L13.6 5l.72 1.08.995.332A1 1 0 0 1 16 7.36v1.28a1 1 0 0 1-.684.948l-.995.332L13.6 11l.588.882a1 1 0 0 1-.125 1.261l-.92.92a1 1 0 0 1-1.262.126l-.956-.637-1.008.335-.338 1.355a1 1 0 0 1-.97.758H7.39a1 1 0 0 1-.97-.758l-.338-1.355-1.008-.335-.956.637a1 1 0 0 1-1.261-.125l-.92-.92a1 1 0 0 1-.126-1.262l.637-.956-.336-1.008L.757 9.58A1 1 0 0 1 0 8.61V7.39a1 1 0 0 1 .757-.97l1.355-.338.336-1.008-.637-.956a1 1 0 0 1 .125-1.261l.92-.92a1 1 0 0 1 1.262-.126l.956.637 1.008-.336zM8.61 1H7.39l-.338 1.355a1 1 0 0 1-.654.706l-1.008.336a1 1 0 0 1-.87-.117l-.956-.637-.92.92.636.956a1 1 0 0 1 .117.871l-.336 1.008a1 1 0 0 1-.706.654L1 7.39v1.22l1.355.338a1 1 0 0 1 .706.654l.336 1.008a1 1 0 0 1-.117.87l-.637.956.92.92.956-.636a1 1 0 0 1 .871-.117l1.008.336a1 1 0 0 1 .654.706L7.39 15h1.22l.338-1.355a1 1 0 0 1 .654-.706l1.008-.336a1 1 0 0 1 .87.117l.956.637.92-.92-.587-.882a1 1 0 0 1 0-1.11l.72-1.08a1 1 0 0 1 .516-.394L15 8.64V7.36l-.995-.331a1 1 0 0 1-.516-.394l-.72-1.08a1 1 0 0 1 0-1.11l.588-.881-.92-.92-.956.636a1 1 0 0 1-.871.117l-1.008-.336a1 1 0 0 1-.654-.706zM8 5.5a2.5 2.5 0 1 0 0 5 2.5 2.5 0 0 0 0-5M4.5 8a3.5 3.5 0 1 1 7 0 3.5 3.5 0 0 1-7 0" clip-rule="evenodd"/></svg>