<svg xmlns="http://www.w3.org/2000/svg" width="15" height="19" fill="none"><path fill="#7A859E" d="M10.097 2.25c.25.14.338.455.198.705l-1.57 2.79a.519.519 0 0 1-.904-.508l1.57-2.79a.52.52 0 0 1 .706-.197M5.017.011c.28-.059.556.12.615.4a9.1 9.1 0 0 1-.041 4.007l-.03.121a.518.518 0 0 1-1.008-.241l.03-.122a8.05 8.05 0 0 0 .035-3.55.52.52 0 0 1 .4-.615M14.653 6.257a.518.518 0 1 0-.343-.977 9.1 9.1 0 0 0-3.407 2.12l-.088.087a.517.517 0 1 0 .73.735l.089-.088a8.1 8.1 0 0 1 3.02-1.877"/><path fill="#7A859E" fill-rule="evenodd" d="M1.802 7.256a12.53 12.53 0 0 1 8.355 4.654l.048.06.002.003v.005l-.002.004q0 0-.002.003l-3.422 2.41a9.66 9.66 0 0 0-5.294-2.98l.311-4.156v-.002m-.389 5.199-.37 4.949a.518.518 0 0 0 .815.461l4.073-2.868a8.63 8.63 0 0 0-4.518-2.542m.39-5.199.002-.001h.001m9.168 4.01a13.56 13.56 0 0 0-9.047-5.039 1.04 1.04 0 0 0-1.159.954l-.76 10.147c-.097 1.309 1.374 2.141 2.448 1.384l8.348-5.88c.492-.347.59-1.034.217-1.505z" clip-rule="evenodd"/></svg>