<svg xmlns="http://www.w3.org/2000/svg" width="20" height="15" fill="none"><path fill="#2F354D" fill-rule="evenodd" d="M13.63 13.497c.514.642 1.13 1.387 1.13 1.387A6.26 6.26 0 0 0 20 12.28a22.9 22.9 0 0 0-2.466-9.983A8.47 8.47 0 0 0 12.723.5l-.24.274a11.4 11.4 0 0 1 4.264 2.166 14 14 0 0 0-5.155-1.644 14.5 14.5 0 0 0-3.45.06 2 2 0 0 0-.291.034 12.9 12.9 0 0 0-3.887 1.07c-.634.283-1.01.497-1.01.497A11.56 11.56 0 0 1 7.449.714L7.277.5a8.47 8.47 0 0 0-4.811 1.798A22.9 22.9 0 0 0 0 12.28a6.21 6.21 0 0 0 5.223 2.603l.467-.577.68-.845a5.33 5.33 0 0 1-2.997-2.02c.612.407 1.267.746 1.952 1.01.815.322 1.658.568 2.517.736 1.465.282 2.969.288 4.435.018a11.3 11.3 0 0 0 2.483-.737 9.8 9.8 0 0 0 1.97-1.01 5.4 5.4 0 0 1-3.1 2.038M5.552 7.496c.324-.352.769-.57 1.246-.609a1.813 1.813 0 0 1 1.747 1.9 1.823 1.823 0 0 1-1.747 1.901 1.907 1.907 0 0 1-1.246-3.192m6.396-.368c.334-.19.717-.273 1.1-.241a1.82 1.82 0 0 1 1.747 1.9 1.907 1.907 0 1 1-2.847-1.66" clip-rule="evenodd"/></svg>