<svg xmlns="http://www.w3.org/2000/svg" width="14" height="14" fill="none"><path fill="#9FAAC4" fill-rule="evenodd" d="M7.17 14c3.68 0 6.66-3.13 6.66-7s-2.98-7-6.66-7S.51 3.13.51 7s2.98 7 6.66 7M8.85 3.59a3.2 3.2 0 0 0-.95-.32V2.5a.3.3 0 0 0-.08-.21.3.3 0 0 0-.21-.09h-.9a.3.3 0 0 0-.2.09.3.3 0 0 0-.09.2v.75q-.48.09-.9.3a2.2 2.2 0 0 0-1.15 1.13c-.1.24-.16.5-.16.79 0 .33.04.61.13.85s.22.44.4.62.4.33.68.45.6.22.97.3c.4.11.76.2 1.06.26.31.07.57.14.77.21.22.07.37.16.48.26.1.1.15.24.15.4 0 .17-.05.31-.14.43-.1.11-.22.2-.38.29-.15.07-.33.12-.54.16a4.5 4.5 0 0 1-1.34-.02A2 2 0 0 1 6 9.48a1 1 0 0 1-.3-.25l-.18-.29a.5.5 0 0 0-.17-.2.5.5 0 0 0-.28-.06H4.3a.32.32 0 0 0-.22.09.24.24 0 0 0-.08.2c.01.28.09.54.22.78.13.22.3.43.52.6a3.35 3.35 0 0 0 1.69.7v.75q0 .12.09.21c.09.09.13.09.2.09h.9c.08 0 .15-.03.2-.09a.3.3 0 0 0 .1-.2v-.76a3.8 3.8 0 0 0 1.02-.27c.3-.13.55-.3.76-.5a1.97 1.97 0 0 0 .65-1.47c0-.3-.05-.57-.14-.8a1.44 1.44 0 0 0-.41-.62c-.2-.18-.44-.34-.75-.46a6 6 0 0 0-1.11-.34L6.9 6.36a5 5 0 0 1-.69-.21c-.18-.08-.3-.17-.39-.28a.7.7 0 0 1-.12-.41c0-.14.04-.27.11-.38a.9.9 0 0 1 .3-.27q.195-.12.45-.18c.18-.04.36-.06.55-.06.44 0 .77.06 1 .2.22.14.39.3.5.48.05.08.1.14.16.2.07.04.16.06.29.06h.77a.3.3 0 0 0 .2-.08c.07-.05.1-.13.1-.22a2.05 2.05 0 0 0-.58-1.14 2.7 2.7 0 0 0-.69-.48Z" clip-rule="evenodd"/></svg>