<svg xmlns="http://www.w3.org/2000/svg" width="20" height="12" fill="none"><path fill="#14C393" fill-rule="evenodd" d="M12.3.88a.67.67 0 0 0-.4-.85.63.63 0 0 0-.8.43L7.7 11.12c-.12.35.06.73.4.85.33.11.7-.08.8-.43zM6.2 11.8a.62.62 0 0 1-.9 0L.18 6.47a.69.69 0 0 1 0-.94L5.29.2a.62.62 0 0 1 .9 0c.26.26.26.68 0 .94L1.55 6l4.66 4.86c.25.26.25.68 0 .94zM13.8.2a.62.62 0 0 1 .9 0l5.11 5.33c.25.26.25.68 0 .94l-5.1 5.33a.62.62 0 0 1-.9 0 .69.69 0 0 1 0-.94L18.45 6 13.8 1.14a.69.69 0 0 1 0-.94" clip-rule="evenodd"/></svg>