<svg xmlns="http://www.w3.org/2000/svg" width="16" height="16" fill="none"><path fill="#FF6363" fill-rule="evenodd" d="m1.61 6.52 4.9-4.9a2.1 2.1 0 0 1 2.97 0l4.9 4.9a2.1 2.1 0 0 1 0 2.96l-4.9 4.9a2.1 2.1 0 0 1-2.96 0l-4.9-4.9a2.1 2.1 0 0 1 0-2.96Zm-.7 3.67a3.1 3.1 0 0 1 0-4.38L5.8.91a3.1 3.1 0 0 1 4.38 0l4.9 4.9a3.1 3.1 0 0 1 0 4.38l-4.9 4.9a3.1 3.1 0 0 1-4.38 0l-4.9-4.9ZM7.99 4c.28 0 .5.22.5.5v3.83a.5.5 0 0 1-1 0V4.5c0-.28.23-.5.5-.5m.76 6.5a.75.75 0 1 1-1.5 0 .75.75 0 0 1 1.5 0" clip-rule="evenodd"/></svg>