<svg xmlns="http://www.w3.org/2000/svg" width="12" height="12" fill="none"><path fill="#F3F4FA" fill-rule="evenodd" d="M11.322 2.34a.456.456 0 0 0 .052-.675.54.54 0 0 0-.726-.048l-2.23 1.798C7.57 2.87 6.709 2.5 6 2.5c-1.42 0-3.463 1.49-4.767 2.906a.875.875 0 0 0 0 1.19c.439.476.96.96 1.515 1.394L.678 9.66a.456.456 0 0 0-.052.676c.186.2.511.221.726.048l2.23-1.798C4.43 9.13 5.291 9.5 6 9.5c1.42 0 3.463-1.49 4.767-2.906a.875.875 0 0 0 0-1.19c-.439-.476-.96-.96-1.515-1.394zM6.855 4.677A1.67 1.67 0 0 0 6 4.443c-.896 0-1.623.697-1.623 1.556 0 .206.042.402.117.582zM5.146 7.323l2.36-1.904q.116.271.117.58c0 .86-.727 1.557-1.623 1.557-.313 0-.606-.086-.854-.233" clip-rule="evenodd"/></svg>