<svg xmlns="http://www.w3.org/2000/svg" width="17" height="15" fill="none"><path fill="#7A859E" fill-rule="evenodd" d="M15.906.172a.5.5 0 0 1-.05.706L12.267 3.99c1.035.831 1.99 1.814 2.663 2.71l.226.3-.226.3c-.783 1.041-1.945 2.2-3.173 3.103C10.552 11.289 9.187 12 8.016 12c-1.067 0-2.294-.59-3.415-1.364L.858 13.882a.5.5 0 1 1-.655-.756l3.578-3.102C2.739 9.189 1.778 8.2 1.101 7.3L.877 7l.226-.3c.782-1.041 1.945-2.2 3.172-3.103C5.48 2.711 6.844 2 8.016 2c1.072 0 2.306.596 3.432 1.376L15.2.122a.5.5 0 0 1 .705.05M8.016 3c.714 0 1.655.396 2.65 1.054l-1.117.969A2.5 2.5 0 0 0 8.016 4.5 2.502 2.502 0 0 0 5.84 8.239L4.55 9.357A15.4 15.4 0 0 1 2.135 7a15.4 15.4 0 0 1 2.732-2.597C6.042 3.539 7.183 3 8.016 3m3.482 1.656L10.202 5.78A2.502 2.502 0 0 1 8.016 9.5c-.57 0-1.095-.19-1.516-.51l-1.116.968C6.372 10.608 7.306 11 8.016 11c.832 0 1.973-.539 3.149-1.403A15.4 15.4 0 0 0 13.895 7a15.4 15.4 0 0 0-2.397-2.344" clip-rule="evenodd"/></svg>