<svg xmlns="http://www.w3.org/2000/svg" width="12" height="16" fill="none"><path fill="#7A859E" fill-rule="evenodd" d="M5.33.56a.5.5 0 0 1 .4-.03c.41.14.79.48 1.1.86.32.4.61.9.86 1.45.48 1.08.78 2.45.55 3.65a.5.5 0 1 1-.98-.2 5.44 5.44 0 0 0-.49-3.05 5.5 5.5 0 0 0-.9-1.41c-.08.3-.22.67-.44 1.11a14 14 0 0 1-2.61 3.39 5.7 5.7 0 0 0-1.79 3.32c-.12 1 .13 1.93.54 2.71A6 6 0 0 0 3.2 14.3c.02-.16.05-.34.1-.54a4.3 4.3 0 0 1 1.1-1.67c.74-.78.99-1.59 1.21-2.33a.5.5 0 0 1 .7-.3c1.1.55 1.8 1.68 2.24 2.72.28.7.47 1.42.56 2 1.43-.83 1.95-2.52 1.88-4.33-.03-1-.24-2-.54-2.79-.15-.4-.32-.73-.5-1a1.7 1.7 0 0 0-.45-.5.5.5 0 0 1 .53-.85c.3.19.55.48.76.81.22.34.42.74.6 1.19.33.9.57 2 .6 3.1.08 2.21-.63 4.69-3.14 5.59a.5.5 0 0 1-.67-.48c0-.44-.16-1.4-.56-2.36a4.94 4.94 0 0 0-1.25-1.88 5.6 5.6 0 0 1-1.24 2.1c-.6.63-.79 1-.86 1.27a2 2 0 0 0-.09.48c0 .14-.03.31-.06.5a.58.58 0 0 1-.55.47.96.96 0 0 1-.43-.09c-.23-.1-.5-.27-.77-.5a7 7 0 0 1-1.68-2.08 5.64 5.64 0 0 1-.65-3.3 6.7 6.7 0 0 1 2.07-3.9 13 13 0 0 0 2.43-3.14c.32-.64.43-1.1.5-1.44L5.1.88a.5.5 0 0 1 .24-.32Z" clip-rule="evenodd"/></svg>