<svg xmlns="http://www.w3.org/2000/svg" width="16" height="15" fill="none"><path fill="#5275FF" d="M8.16.44c.6-.32 1.3-.51 1.97-.42.31.05.62.2.82.44a.97.97 0 0 1-.43 1.52c-.24.1-.5.08-.74.04-.36-.06-.7-.14-1.06-.18-.22-.04-.37.15-.48.3-.47.72-.6 1.58-.8 2.4l4-.1c.26 0 .53.09.7.3.18.26.27.57.35.87.32-.38.66-.76 1.07-1.05.18-.12.35-.24.55-.33.35-.2.78-.3 1.18-.18a.94.94 0 0 1 .13 1.74c-.3.14-.65.14-.98.18-.2.02-.38.1-.54.22-.42.34-.73.78-1.02 1.23l.38 1.8c.1.5.29.98.63 1.36.07.07.14.14.23.17.07-.02.08-.1.1-.15.08-.18.16-.37.3-.51a.86.86 0 0 1 1.08-.12c.24.16.39.44.4.73v.05c0 .36-.2.7-.48.93-.31.26-.67.5-1.08.54a2.35 2.35 0 0 1-1.54-.38 2.9 2.9 0 0 1-.75-.83 6.4 6.4 0 0 1-.74-1.49c-.19.25-.36.5-.56.73-.35.42-.72.83-1.22 1.07-.34.17-.72.25-1.1.18-.36-.07-.7-.32-.85-.66a1 1 0 0 1 .16-1.04.9.9 0 0 1 .82-.32c.25.03.46.2.62.39.34-.31.64-.66.9-1.03l.78-1.13-.38-1.63-3.51-.06-.98 3.99a7.8 7.8 0 0 1-1.34 3.02c-.39.5-.88.94-1.43 1.26-.63.37-1.37.56-2.1.51a1.4 1.4 0 0 1-.97-.43c-.16-.17-.23-.4-.25-.62v-.04c0-.25.1-.5.29-.67.25-.25.63-.32.98-.28.36.02.71.07 1.07.08.25 0 .51 0 .74-.1.14-.07.2-.22.27-.36.1-.23.19-.47.25-.72.15-.5.26-1 .39-1.51L5 6.02H3.3l.37-1.48h1.7c.24-.88.51-1.76 1-2.53A4.44 4.44 0 0 1 8.16.44"/></svg>