<svg xmlns="http://www.w3.org/2000/svg" width="21" height="20" fill="none"><path fill="#505573" fill-rule="evenodd" d="M12.481 18.781c1.143-2.562 1.471-5.505 1.515-8.281H7.004c.044 2.776.372 5.719 1.515 8.281a9.25 9.25 0 0 0 3.962 0M7.004 9.5c.044-2.776.372-5.719 1.515-8.281a9.24 9.24 0 0 1 3.962 0c1.143 2.562 1.471 5.505 1.515 8.281zm7.992 1c-.047 3.078-.53 5.856-1.286 7.91a9 9 0 0 0 5.776-7.91zm4.49-1h-4.49c-.047-3.077-.529-5.856-1.286-7.91a9 9 0 0 1 5.776 7.91m-13.482 0h-4.49A9 9 0 0 1 7.29 1.59C6.533 3.643 6.051 6.422 6.004 9.5m-4.49 1h4.49c.047 3.078.53 5.856 1.286 7.91a9 9 0 0 1-5.776-7.91M20.5 10c0 4.594-3.097 8.464-7.318 9.636-1.745.485-3.62.485-5.364 0C3.598 18.464.5 14.594.5 10c0-5.523 4.477-10 10-10s10 4.477 10 10" clip-rule="evenodd"/></svg>