<svg xmlns="http://www.w3.org/2000/svg" width="27" height="24" fill="none"><path fill="#F6851B" fill-rule="evenodd" d="m.5 3.85.86 4.14-.55.4.82.63L1 9.5l.81.74-.5.37 1.16 1.37-1.77 5.5 1.65 5.62 5.75-1.6 1.12.92L11.5 24h3.9l2.27-1.57 1.11-.92 5.76 1.59 1.66-5.62-1.8-5.5 1.19-1.37-.51-.37.81-.74-.63-.48.81-.62-.53-.41.86-4.14L25.09 0l-8.22 3.08h-6.85L1.78 0z" clip-rule="evenodd"/><path fill="#E2761B" d="M25.1 0 15 7.5l1.87-4.42z"/><path fill="#E4761B" d="M1.78 0 11.8 7.57l-1.78-4.5zm19.68 17.4-2.69 4.11 5.76 1.59 1.66-5.62-4.73-.09zm-20.75.08 1.65 5.62 5.74-1.6-2.68-4.1-4.7.1z"/><path fill="#E4761B" d="m7.79 10.43-1.6 2.42 5.71.26-.2-6.15zm11.3 0-3.96-3.54-.13 6.22 5.7-.26zM8.11 21.51l3.44-1.67-2.97-2.32-.47 4zm7.22-1.67 3.44 1.67-.47-3.99z"/><path fill="#D7C1B3" d="m18.77 21.51-3.44-1.67.28 2.24-.03.95 3.2-1.52zm-10.66 0 3.2 1.52-.02-.95.26-2.24L8.1 21.5z"/><path fill="#233447" d="M11.36 16.04 8.5 15.2l2.02-.93zm4.16 0 .84-1.77 2.03.93z"/><path fill="#CD6116" d="m8.11 21.51.5-4.12-3.19.1 2.7 4.02zm10.18-4.11.48 4.11 2.7-4.03-3.18-.09zm2.41-4.55-5.7.26.53 2.93.84-1.77 2.03.93zM8.5 15.2l2.03-.93.83 1.77.54-2.93-5.71-.26z"/><path fill="#E4751F" d="m6.19 12.85 2.4 4.67-.09-2.32zM18.4 15.2l-.1 2.32 2.4-4.67zm-6.5-2.1-.54 2.94.67 3.46.16-4.56-.29-1.83zm3.1 0-.28 1.83.13 4.57.68-3.46-.53-2.93z"/><path fill="#F6851B" d="m15.53 16.04-.68 3.46.48.34 2.97-2.32.1-2.32zM8.5 15.2l.08 2.32 2.97 2.32.48-.34-.67-3.46z"/><path fill="#C0AD9E" d="m15.58 23.03.03-.95-.26-.22h-3.82l-.24.22.02.95-3.2-1.52 1.12.92L11.5 24h3.9l2.27-1.57 1.11-.92z"/><path fill="#161616" d="m15.33 19.84-.48-.34h-2.82l-.48.34-.26 2.24.24-.22h3.82l.26.22z"/><path fill="#763D16" d="m25.53 7.99.86-4.14L25.09 0l-9.76 7.25 3.76 3.18 5.3 1.55 1.19-1.37-.51-.37.81-.74-.63-.48.81-.62zM.5 3.85l.86 4.14-.55.4.82.63L1 9.5l.81.74-.5.37 1.16 1.37 5.3-1.55 3.77-3.18L1.78 0z"/><path fill="#F6851B" d="m24.4 11.98-5.31-1.55 1.61 2.42-2.4 4.67 3.16-.04h4.73l-1.8-5.5zM7.79 10.43l-5.31 1.55-1.77 5.5h4.71l3.16.04-2.4-4.67zM15 13.1l.33-5.85 1.55-4.17h-6.86l1.53 4.17.35 5.86.12 1.84.01 4.55h2.82l.02-4.55.13-1.84z"/></svg>