<svg xmlns="http://www.w3.org/2000/svg" width="16" height="16" fill="none"><path fill="#7A809A" d="M2.5 3.5A.5.5 0 0 1 3 3h5a.5.5 0 0 1 0 1H3a.5.5 0 0 1-.5-.5"/><path fill="#7A809A" fill-rule="evenodd" d="M0 1a1 1 0 0 1 1-1h14a1 1 0 0 1 1 1v5a1 1 0 0 1-1 1H1a1 1 0 0 1-1-1zm1 0h14v5H1z" clip-rule="evenodd"/><path fill="#7A809A" d="M3 12a.5.5 0 0 0 0 1h5a.5.5 0 0 0 0-1z"/><path fill="#7A809A" fill-rule="evenodd" d="M0 10a1 1 0 0 1 1-1h14a1 1 0 0 1 1 1v5a1 1 0 0 1-1 1H1a1 1 0 0 1-1-1zm1 0h14v5H1z" clip-rule="evenodd"/></svg>