<svg xmlns="http://www.w3.org/2000/svg" width="16" height="14"><path d="M16 6.6c0-1.1-.9-1.9-1.9-1.9-.5 0-.9.2-1.2.4a9.9 9.9 0 0 0-4.3-1.3l.8-2.6 2.3.5c.1.8.8 1.5 1.6 1.5.9 0 1.6-.7 1.6-1.6a1.6 1.6 0 0 0-3-.7L9.2.2c-.2 0-.4.1-.5.3l-1 3.3C6 3.8 4.4 4.3 3.1 5c-.3-.2-.7-.4-1.2-.4-1 0-1.9.9-1.9 2 0 .7.3 1.2.8 1.6v.5c0 1.3.8 2.6 2.2 3.5a9 9 0 0 0 5 1.4 9 9 0 0 0 5-1.4c1.4-.9 2.2-2.1 2.2-3.5v-.4c.4-.5.8-1.1.8-1.7M4.5 7.7c0-.6.5-1.1 1.1-1.1s1.1.5 1.1 1.1-.5 1.1-1.1 1.1-1.1-.5-1.1-1.1m6.1 3.2c-.6.6-1.4.8-2.6.8s-2.1-.3-2.6-.8q-.3-.3 0-.6t.6 0c.4.4 1 .6 2 .6s1.6-.2 2-.6q.3-.3.6 0c.2.2.2.5 0 .6m-.2-2.1c-.6 0-1.1-.5-1.1-1.1s.5-1.1 1.1-1.1 1.1.5 1.1 1.1-.5 1.1-1.1 1.1"/></svg>