<svg xmlns="http://www.w3.org/2000/svg" width="13" height="12" fill="none"><path fill="#fff" d="m3.424 11.878.858-.86a.435.435 0 0 0 0-.606.434.434 0 0 0-.605 0l-.859.86a.435.435 0 0 0 0 .606.434.434 0 0 0 .606 0M3.185 9.933a.435.435 0 0 0 0-.607.434.434 0 0 0-.605 0l-1.363 1.365a.435.435 0 0 0 0 .606.434.434 0 0 0 .606 0zM2.087 8.833a.435.435 0 0 0 0-.606.434.434 0 0 0-.606 0l-.858.859a.435.435 0 0 0 0 .606.434.434 0 0 0 .606 0zM5.13 9.844l.378-.38c.404.57.745 1.2.985 1.858.1.265.429.353.656.177l1.54-1.314a2.11 2.11 0 0 0 .618-2.325l-.101-.215 1.83-1.831a4.5 4.5 0 0 0 1.3-2.818L12.5.886a.822.822 0 0 0-.884-.884L9.51.167a4.43 4.43 0 0 0-2.814 1.3L4.865 3.3l-.228-.076a2.1 2.1 0 0 0-2.322.619L1.003 5.37a.41.41 0 0 0 .177.657q1.003.36 1.855.986l-.379.379a.374.374 0 0 0 0 .518l1.956 1.933a.373.373 0 0 0 .518 0M7.527 4.98a1.22 1.22 0 0 1 0-1.73c.48-.48 1.25-.48 1.73 0 .479.48.479 1.25 0 1.73-.48.48-1.25.48-1.73 0"/></svg>