<svg xmlns="http://www.w3.org/2000/svg" width="16" height="20" fill="none"><path fill="#7A859E" d="M8.001 17.65c.276 0 .5.21.5.47v1.41c0 .26-.224.47-.5.47s-.5-.21-.5-.47v-1.41c0-.26.224-.47.5-.47m2.357.213a.52.52 0 0 1 .697.115l.86 1.156a.45.45 0 0 1-.122.654.52.52 0 0 1-.696-.116l-.86-1.154a.453.453 0 0 1 .121-.655m-5.405.115a.52.52 0 0 1 .697-.116c.226.15.28.442.122.655l-.86 1.154a.52.52 0 0 1-.697.116.45.45 0 0 1-.122-.654zM6.715 2.635c.913-.906 1.83-.785 2.571 0 .743.786 4.033 3.383 2.57 8.54l1.83.8c.28.182.307.498.314.808v3.584c.007.335-.348.567-.68.464l-2.387-.697c-.32.542-.92.904-1.636.904l-2.86-.004a1.99 1.99 0 0 1-1.518-.874l-2.26.661c-.333.06-.65-.16-.657-.474v-3.584c-.006-.293-.01-.537.153-.715l1.989-.873C2.726 5.257 5.8 3.541 6.714 2.636m1.32.2c-.125-.004-.364.043-.709.386C6.732 3.81 5.94 4.278 5.31 5.42c-.59 1.07-1.002 2.764-.331 5.565l.163.68-2.284.959c.004 1.09 0 2.18 0 3.27l1.813-.534.618-.182.35.529c.194.292.546.496.927.496h2.73c.41 0 .726-.2.893-.485l.338-.575.652.19 1.964.574-.008-3.255-2.3-1.01.196-.69c.67-2.364.246-4.088-.395-5.306-.663-1.259-1.542-1.981-1.98-2.446-.274-.289-.488-.36-.622-.365m-.032 3.641c.946.021 1.712.786 1.71 1.71-.002.922-.772 1.653-1.718 1.632s-1.712-.786-1.71-1.709.772-1.654 1.718-1.633m-.002.836a.826.826 0 0 0-.858.816c-.001.461.381.844.854.855a.827.827 0 0 0 .858-.817.866.866 0 0 0-.854-.854"/></svg>