<svg xmlns="http://www.w3.org/2000/svg" width="14" height="19" fill="none"><path fill="#7A859E" fill-rule="evenodd" d="m11.502 11.14.06-.401a9.5 9.5 0 0 0 .117-2.652 9.4 9.4 0 0 0-1.44-3.976L8.274 1.113C7.588.05 6.067.024 5.387 1.06L3.502 3.836a9 9 0 0 0-1.507 4.356c-.06.74.004 1.512.13 2.224l.127.681L.703 12.15a1.17 1.17 0 0 0-.463.948l.013 4.26a.596.596 0 0 0 .778.57l2.48-.728c.375.624 1.06 1.068 1.836 1.082l3.073.055a2.08 2.08 0 0 0 1.859-1.047l2.672.88a.58.58 0 0 0 .774-.54l-.012-4.291a1.21 1.21 0 0 0-.5-.966zm-10.25 5.675 2.708-.794.406.677c.208.346.58.577.978.584l3.073.055c.431.008.792-.211.994-.561l.397-.688 2.916.961-.011-3.728a.2.2 0 0 0-.069-.137l-.005-.004-2.219-1.6.156-1.024.002-.011c.14-.79.19-1.586.107-2.369a8.4 8.4 0 0 0-1.282-3.534L7.438 1.643a.718.718 0 0 0-1.211-.021l-.004.007-1.889 2.779v.001a8 8 0 0 0-1.342 3.88v.004c-.052.632.002 1.314.117 1.965l.243 1.312-2.046 1.391a.2.2 0 0 0-.045.057.2.2 0 0 0-.02.098zm6.7-9.063a.946.946 0 0 1-.986.932.994.994 0 0 1-.976-.982.946.946 0 0 1 .986-.932c.554.014.979.466.976.982m1 .025a1.92 1.92 0 0 1-1.99 1.907c-1.095-.028-1.977-.926-1.972-2.007A1.92 1.92 0 0 1 6.98 5.77c1.095.028 1.977.927 1.972 2.007" clip-rule="evenodd"/></svg>