<svg xmlns="http://www.w3.org/2000/svg" width="14" height="14" fill="none"><path fill="#7A859E" d="M5 8a3 3 0 0 1 2.96 2.51H14l-.001 1H7.946C7.686 12.933 6.47 14 5 14a3 3 0 0 1-2.958-2.5H0v-1h2.043A3 3 0 0 1 5 8m0 1a2.001 2.001 0 0 0 0 4c1.076 0 1.976-.874 1.999-2.01A2 2 0 0 0 5 9m4-9c1.51 0 2.78 1.125 2.974 2.605H14v1h-2.07C11.634 4.98 10.436 6 9 6a3.004 3.004 0 0 1-2.94-2.395H0v-1h6.027A3 3 0 0 1 9 0m0 1c-1.112 0-2 .905-2 2 0 1.112.905 2 2 2 1.076 0 1.976-.874 1.999-2.01A2 2 0 0 0 9 1"/></svg>