<svg xmlns="http://www.w3.org/2000/svg" width="18" height="18" fill="none"><path fill="#14C393" fill-rule="evenodd" d="M9 .9a8.1 8.1 0 1 0 0 16.2A8.1 8.1 0 0 0 9 .9M1.9 9a7.1 7.1 0 1 1 14.2 0A7.1 7.1 0 0 1 1.9 9m4.3-3.3a1.3 1.3 0 1 0 0 2.6 1.3 1.3 0 0 0 0-2.6m5.6 0a1.3 1.3 0 1 0 0 2.6 1.3 1.3 0 0 0 0-2.6m-6.317 4.578a.58.58 0 1 0-.965.644l.085.13.001.001c.256.391.649.99 1.27 1.496.715.584 1.711 1.031 3.126 1.031 1.416 0 2.411-.447 3.127-1.03.621-.507 1.013-1.106 1.27-1.497v-.002l.086-.13a.58.58 0 0 0-.965-.643l-.091.138c-.26.395-.559.848-1.033 1.234-.511.417-1.249.77-2.394.77-1.144 0-1.882-.353-2.393-.77-.474-.386-.773-.839-1.033-1.233v-.002z" clip-rule="evenodd"/></svg>