<svg xmlns="http://www.w3.org/2000/svg" width="16" height="16" fill="none"><path fill="#8358FF" fill-rule="evenodd" d="M12.938 12.707a1 1 0 0 1 .245-.452A6.56 6.56 0 0 0 15 7.731C15 4.046 11.899 1 8 1S1 4.046 1 7.731c0 3.76 3.166 7.027 6.922 6.734.228-.017.53-.089.83-.176.18-.052.37-.116.543-.165h.002c.021-.006.15-.044.285-.051.133-.008.242.014.259.018.166.033.315.088.52.158.226.079.516.183.805.288.503.183 1.016.374 1.215.448a.2.2 0 0 0 .014-.04zm.972.235-.543 2.239c-.144.593-.698.942-1.232.779l-.037-.013c-.216-.08-2.361-.881-2.46-.876-.106.006-.968.34-1.638.391-4.407.344-8-3.461-8-7.73S3.582 0 8 0s8 3.461 8 7.731a7.56 7.56 0 0 1-2.09 5.211M4 6a.5.5 0 0 1 .5-.5h7a.5.5 0 0 1 0 1h-7A.5.5 0 0 1 4 6m.5 3.5a.5.5 0 1 0 0 1h7a.5.5 0 0 0 0-1z" clip-rule="evenodd"/></svg>