<svg xmlns="http://www.w3.org/2000/svg" width="16" height="16" fill="none"><path fill="#7A859E" fill-rule="evenodd" d="m9.604 4.483-1.497-3.41c-.016-.038-.033-.05-.043-.056A.12.12 0 0 0 8 1a.12.12 0 0 0-.064.017c-.01.006-.027.018-.043.055L6.396 4.483a2.12 2.12 0 0 1-1.67 1.252l-3.62.464a.1.1 0 0 0-.06.023.13.13 0 0 0-.038.06.14.14 0 0 0-.005.072c.003.015.01.034.036.06l2.745 2.7a2.13 2.13 0 0 1 .6 1.905l-.71 3.83a.12.12 0 0 0 .005.073.13.13 0 0 0 .045.054.12.12 0 0 0 .062.024c.01 0 .03 0 .061-.019l3.081-1.813a2.11 2.11 0 0 1 2.144 0l3.08 1.813c.033.02.051.02.062.019a.12.12 0 0 0 .061-.024.13.13 0 0 0 .046-.054.12.12 0 0 0 .005-.074l-.71-3.829a2.13 2.13 0 0 1 .6-1.906l2.745-2.7a.1.1 0 0 0 .036-.06.14.14 0 0 0-.005-.072.14.14 0 0 0-.038-.059.1.1 0 0 0-.06-.023l-3.62-.464a2.12 2.12 0 0 1-1.67-1.252M9.023.67C8.63-.223 7.37-.223 6.977.67L5.48 4.081c-.158.36-.493.612-.881.662l-3.621.464c-.928.119-1.309 1.262-.64 1.92l2.745 2.7c.267.262.386.64.317 1.01l-.709 3.83c-.175.947.837 1.663 1.663 1.176l3.082-1.813c.348-.205.78-.205 1.128 0l3.082 1.813c.826.487 1.838-.23 1.663-1.177l-.71-3.83a1.13 1.13 0 0 1 .318-1.01l2.745-2.7c.669-.657.287-1.8-.64-1.92l-3.62-.463c-.39-.05-.724-.301-.882-.662z" clip-rule="evenodd"/></svg>