<svg xmlns="http://www.w3.org/2000/svg" width="20" height="20" fill="none"><path fill="#7A859E" fill-rule="evenodd" d="M8.78 10.526c.636-.622 1.449-1.427 2.252-2.25l-.925.583a594 594 0 0 0-3.554 2.265l-.661.426c-1.353-.412-2.72-.781-4.056-1.252l-.195-.097c-.551-.365-.691-.987-.626-1.457.055-.405.294-.907.79-1.142.102-.064.211-.122.3-.167.15-.077.338-.165.553-.262.43-.194.996-.435 1.65-.705 1.31-.541 2.997-1.21 4.705-1.878a855 855 0 0 1 7.73-2.97c.5-.19 1.071-.165 1.54.162.477.333.717.887.717 1.47 0 .276-.054.688-.123 1.129a52 52 0 0 1-.3 1.672c-.246 1.27-.572 2.818-.897 4.313a464 464 0 0 1-1.19 5.31l-.131.557c-.204.646-.688 1.107-1.295 1.235-.578.122-1.14-.115-1.597-.51-.82-.712-1.74-1.307-2.601-1.963-.357.323-.81.76-1.306 1.284-.195.207-.385.38-.57.509a1.6 1.6 0 0 1-.674.286 1.1 1.1 0 0 1-.874-.255 1.26 1.26 0 0 1-.371-.58 1 1 0 0 1-.043-.365l.289-3.937.286-.272.065-.062.245-.235zm-3.02 0h-.003c-.437-.132-2.611-.762-3.63-1.12-.36-.24-.246-.849.102-.965.759-.602 13.241-5.337 14.825-5.936.499-.189 1.04.064 1.04.747 0 1.5-2.597 12.688-2.597 12.688-.216.686-.935.747-1.418.321-.322-.283-.87-.687-1.495-1.147a61 61 0 0 1-1.746-1.317c-.71.564-1.342 1.224-1.976 1.875a3 3 0 0 1-.357.319c-.297.215-.59.19-.559-.233l.248-3.377 7.04-7.423s-8.653 5.039-9.473 5.567" clip-rule="evenodd"/></svg>