<?xml version="1.0" encoding="utf-8"?><svg xmlns="http://www.w3.org/2000/svg" xmlns:xlink="http://www.w3.org/1999/xlink"><symbol fill="none" viewBox="0 0 793 194" id="0"><path d="M348.365 137.969v16.78h-39.447v39.332H-6.722c180.828-8.832 287.424-30.561 355.087-101.402v45.29z" fill="var(--green-light-1, #EDF8F5)"/><path d="M717.762 194.043V85.247l35.779-10.78-35.197-23.234 22.499-24.648 23.082 25.28V128.6l29.002 14.381v51.061h-75.165zm-64.278 0v-27.136l-84.918.001v27.135h84.918zm-145.679 0v-44.24l-84.918-33.699v77.939h84.918zm-124.137 0v-32.587a101.901 101.901 0 00-30.708-72.907l-2.595-2.534v71.11h-39.447v36.918h72.75z" fill="var(--green-light-3, #B0EBDB)"/><path d="M667.597 21.016l79.11 52.459-95.456 28.935-6.32-14.972-53.634 7.359 41.643-40.268 20.673 3.442-8.682-15.037 22.666-21.918z" fill="var(--yellow, #FFCB47)"/><path fill-rule="evenodd" clip-rule="evenodd" d="M749.029 73.815l-81.551-54.077-23.805 23.02 8.013 13.879-19.081-3.178-44.203 42.744 55.904-7.67 6.372 15.095 98.351-29.813zm-8.504-3.24l-93.674-28.109 20.862-20.173 72.812 48.283zM633.271 55.599l106.774 17.78-145.857 20.013 39.083-37.793z" fill="var(--green, #14C393)"/><path d="M482.047 58.622l20.529-29.1h79.512v164.63H482.047V58.622zM380.5 91.171l20.529-22.73h35.302l19.797 59.22v66.491H380.5V91.172zm238.842 69.287l20.528-29.101 105.831 35.347v27.448H619.342v-33.694z" fill="var(--porcelain, #ECEEF5)"/><path d="M583.084 28.521h-81.03l-21.011 29.784v135.698h22.529V30.522h60.434v108.717l-25.894 25.895v28.869h2v-28.041l25.894-25.894V30.521h15.078v163.482h2V28.522z" fill="var(--mystic, #D2D6E7)"/><path fill-rule="evenodd" clip-rule="evenodd" d="M746.697 194.003v-28.019l-107.219-35.811-21.14 29.968v33.862h22.528v-45.23l103.831 34.905v10.325h2zm-2-26.578v13.899l-103.831-34.679v-13.899l103.831 34.679z" fill="var(--mystic, #D2D6E7)"/><path d="M457.124 194.003v-66.504l-20.076-60.058H400.58l-21.084 23.345v103.217h22.529V69.441h9.244v68.678l9.762 11.035v44.849h2v-45.606l-9.762-11.036v-67.92h22.338l19.517 58.383v66.179h2z" fill="var(--mystic, #D2D6E7)"/><path fill-rule="evenodd" clip-rule="evenodd" d="M494.689 57.558c26.518-7.485 66.832-12.107 121.925-10.484a1 1 0 01-.059 2c-54.978-1.62-95.071 2.999-121.323 10.409-13.132 3.706-22.743 8.095-29.02 12.707-6.296 4.627-9.073 9.347-8.965 13.714.077 3.136 1.854 6.01 5.121 8.698 3.269 2.69 7.92 5.095 13.468 7.278 11.093 4.364 25.498 7.734 38.905 10.766l2.733.617c12.28 2.77 23.505 5.302 29.959 8.116 1.742.759 3.202 1.565 4.258 2.443 1.046.871 1.821 1.919 1.907 3.17.088 1.269-.552 2.436-1.629 3.489-1.078 1.054-2.703 2.106-4.878 3.183-3.174 1.57-7.901 3.066-13.859 4.598-5.975 1.537-13.257 3.129-21.576 4.875-3.168.666-6.488 1.354-9.945 2.07-14.714 3.05-31.923 6.617-50.564 11.143-34.397 8.352-73.614 19.957-110.87 37.552h-4.632c38.559-18.702 79.421-30.85 115.03-39.496 18.678-4.534 35.927-8.11 50.642-11.16 3.454-.715 6.768-1.402 9.928-2.066 8.318-1.746 15.561-3.33 21.488-4.854 5.944-1.529 10.497-2.983 13.471-4.455 2.095-1.037 3.506-1.979 4.367-2.82.861-.843 1.063-1.472 1.032-1.921-.032-.467-.336-1.059-1.191-1.77-.846-.704-2.11-1.421-3.778-2.148-6.27-2.733-17.317-5.226-29.72-8.025l-2.614-.59c-13.377-3.025-27.935-6.426-39.196-10.856-5.628-2.214-10.502-4.71-14.007-7.594-3.507-2.886-5.753-6.253-5.85-10.194-.131-5.32 3.256-10.58 9.781-15.374 6.543-4.809 16.407-9.28 29.661-13.021z" fill="var(--yellow, #FFCB47)"/><path fill-rule="evenodd" clip-rule="evenodd" d="M503.426 55.316c26.335-6.137 63.827-9.696 113.186-8.242a1 1 0 11-.059 2c-49.249-1.451-86.558 2.104-112.674 8.19a1 1 0 11-.453-1.948zm-.746 55.561a1 1 0 011.205-.74c4.514 1.079 9.055 2.103 13.454 3.096 10.609 2.393 20.397 4.602 27.016 6.945 2.352.833 4.356 1.699 5.879 2.622 1.49.904 2.681 1.957 3.154 3.234.518 1.399.084 2.775-1.011 4.017-1.063 1.205-2.829 2.396-5.287 3.613-3.646 1.804-9.354 3.514-16.648 5.297-7.316 1.789-16.314 3.671-26.586 5.801a1 1 0 11-.407-1.958c10.281-2.132 19.243-4.007 26.518-5.786 7.296-1.784 12.809-3.451 16.235-5.147 2.382-1.179 3.87-2.23 4.675-3.143.774-.877.822-1.497.636-1.999-.231-.624-.93-1.378-2.316-2.219-1.354-.82-3.212-1.634-5.509-2.447-6.501-2.301-16.095-4.466-26.638-6.844-4.429-.999-9.025-2.036-13.63-3.137a1 1 0 01-.74-1.205zm-45.747 43.059a1.001 1.001 0 01-.742 1.204c-16.968 4.022-35.231 8.827-53.939 14.757a1 1 0 11-.605-1.906c18.768-5.95 37.081-10.767 54.082-14.797a1 1 0 011.204.742z" fill="var(--green, #14C393)"/></symbol></svg>