<svg width="706" height="320" fill="none" xmlns="http://www.w3.org/2000/svg"><g clip-path="url(#a)"><path d="M1072 206.145C1072 335.037 856.225 475 598.916 475c-257.309 0-482.637-71.204-427.546-290.133C226.46-34.061 456.343-159 713.652-159S1072 77.254 1072 206.145Z" fill="var(--mystic, #343A52)"/><mask id="b" style="mask-type:alpha" maskUnits="userSpaceOnUse" x="0" y="0" width="670" height="320"><path d="M670 0H0v320h670V0Z" fill="#fff"/></mask><g mask="url(#b)"><path d="M669.307 116.463c0 89.767-72.682 162.537-162.34 162.537s-162.34-72.77-162.34-162.537c0-89.767 72.682-162.537 162.34-162.537s162.34 72.77 162.34 162.537Z" fill="#181B2B"/><path d="M622.924 112.04c0 75.11-60.815 136-135.835 136-75.02 0-135.836-60.89-135.836-136 0-75.112 60.816-136 135.836-136 75.02 0 135.835 60.889 135.835 136Z" fill="#7A809A"/><path fill-rule="evenodd" clip-rule="evenodd" d="M506.967 277.341c88.743 0 160.684-72.027 160.684-160.878 0-88.85-71.941-160.879-160.684-160.879S346.283 27.612 346.283 116.463c0 88.851 71.941 160.878 160.684 160.878Zm0 1.659c89.658 0 162.34-72.77 162.34-162.537 0-89.767-72.682-162.537-162.34-162.537s-162.34 72.77-162.34 162.537c0 89.767 72.682 162.537 162.34 162.537Z" fill="#181B2B"/><path d="M597.524 186.122c0 22.594-18.294 40.91-40.861 40.91-22.567 0-40.861-18.316-40.861-40.91 0-22.595 18.294-40.911 40.861-40.911 22.567 0 40.861 18.316 40.861 40.911Z" fill="#181B2B"/><path fill-rule="evenodd" clip-rule="evenodd" d="M556.663 225.374c21.652 0 39.204-17.574 39.204-39.252 0-21.679-17.552-39.253-39.204-39.253s-39.205 17.574-39.205 39.253c0 21.678 17.553 39.252 39.205 39.252Zm0 1.658c22.567 0 40.861-18.316 40.861-40.91 0-22.595-18.294-40.911-40.861-40.911-22.567 0-40.861 18.316-40.861 40.911 0 22.594 18.294 40.91 40.861 40.91Z" fill="#E7EAF3"/><path d="M598.629 32.43c0 11.603-9.395 21.008-20.983 21.008-11.589 0-20.983-9.405-20.983-21.008 0-11.602 9.394-21.008 20.983-21.008 11.588 0 20.983 9.406 20.983 21.008Z" fill="#181B2B"/><path fill-rule="evenodd" clip-rule="evenodd" d="M577.646 51.78c10.673 0 19.326-8.663 19.326-19.35 0-10.686-8.653-19.35-19.326-19.35-10.674 0-19.326 8.664-19.326 19.35 0 10.687 8.652 19.35 19.326 19.35Zm0 1.658c11.588 0 20.983-9.405 20.983-21.008 0-11.602-9.395-21.008-20.983-21.008-11.589 0-20.983 9.406-20.983 21.008 0 11.603 9.394 21.008 20.983 21.008Z" fill="#E7EAF3"/><path d="M515.802 81.076c0 16.488-13.35 29.854-29.818 29.854-16.468 0-29.817-13.366-29.817-29.854 0-16.487 13.349-29.853 29.817-29.853s29.818 13.366 29.818 29.853Z" fill="#181B2B"/><path fill-rule="evenodd" clip-rule="evenodd" d="M485.984 109.272c15.553 0 28.161-12.624 28.161-28.196 0-15.571-12.608-28.195-28.161-28.195s-28.161 12.624-28.161 28.195c0 15.572 12.608 28.196 28.161 28.196Zm0 1.658c16.468 0 29.818-13.366 29.818-29.854 0-16.487-13.35-29.853-29.818-29.853-16.468 0-29.817 13.366-29.817 29.853 0 16.488 13.349 29.854 29.817 29.854Z" fill="#E7EAF3"/><path d="M470.523 129.729c0 7.939-6.428 14.375-14.357 14.375-7.929 0-14.356-6.436-14.356-14.375 0-7.938 6.427-14.374 14.356-14.374s14.357 6.436 14.357 14.374Z" fill="#181B2B"/><path fill-rule="evenodd" clip-rule="evenodd" d="M456.166 142.445c7.014 0 12.701-5.693 12.701-12.716 0-7.022-5.687-12.715-12.701-12.715s-12.7 5.693-12.7 12.715c0 7.023 5.686 12.716 12.7 12.716Zm0 1.659c7.929 0 14.357-6.436 14.357-14.375 0-7.938-6.428-14.374-14.357-14.374-7.929 0-14.356 6.436-14.356 14.374 0 7.939 6.427 14.375 14.356 14.375Z" fill="#E7EAF3"/><path d="M418.834 95.5c0 42.227-34.19 76.458-76.365 76.458s-76.365-34.231-76.365-76.457c0-42.227 34.19-76.458 76.365-76.458s76.365 34.231 76.365 76.458Z" fill="#181B2B"/><path fill-rule="evenodd" clip-rule="evenodd" d="M342.469 170.497c41.369 0 74.906-33.577 74.906-74.996 0-41.42-33.537-74.997-74.906-74.997-41.369 0-74.905 33.577-74.905 74.997 0 41.419 33.536 74.996 74.905 74.996Zm0 1.461c42.175 0 76.365-34.231 76.365-76.457 0-42.227-34.19-76.458-76.365-76.458s-76.365 34.231-76.365 76.458c0 42.226 34.19 76.457 76.365 76.457Z" fill="#181B2B"/><path d="m424.387 182.363-36.04-14.111-91.754-.857-18.314 4.69c-4.037 1.034-7.693 3.229-10.415 6.388-4.885 5.67-9.662 11.637-14.013 17.736l-24.704 44.22c-4.405 10.412-7.994 21.197-10.601 32.275-1.889 8.023 1.175 16.674 8.482 20.472 7.69 3.997 14.949 5.326 25.825 6.587l.991 5.997 11.403-2.281c-1.136 20.541 3.138 40.511 4.846 48.214l127.651-.857-8.375-22.193c11.069-10.746 45.283-83.959 47.966-126.61.507-8.063-4.109-16.209-12.948-19.67Z" fill="#8AFFCE"/><path d="M272.641 178.859c.671 13.098-4.361 25.86-7.715 27.875 1.314 4.866 3.083 7.696 6.373 12.09 2.237-18.417 3.354-24.852 1.342-39.965ZM296.736 167.423l3.739-9.048 83.522-1.008 4.361 10.747c-25.856 21.904-78.572 16.915-91.464.588a1.265 1.265 0 0 1-.158-1.279Z" fill="#181B2B"/><path d="M307.14 65.67c8.05-8.07 15.237-11.318 28.193-8.597l20.861-.67c10.536-1.3 17.037 2.06 24.226 9.27 5.336 5.352 11.334 10.005 17.612 14.21 23.487 15.732 19.417 34.384-1.127 53.941-5.768 13.726-18.021 28.776-53.246 29.094-35.097-.319-47.239-15.408-53.033-29.094-20.544-19.557-24.587-38.21-1.101-53.94 6.278-4.206 12.278-8.862 17.615-14.214Z" fill="#FD9317"/><path d="M359.818 142.752c-5.99-6.493-9.638-10.304-16.35-12.121-6.712 1.817-10.36 5.628-16.351 12.121-.469.509-1.284.49-1.679-.077-1.766-2.536-2.807-5.709-3.338-11.836-.075-.872-1.052-1.363-1.783-.884l-6.078 3.987a1.07 1.07 0 0 1-1.124.048c-3.971-2.315-7.215-7.612-8.543-12.718-.17-.656-.847-1.059-1.493-.857l-2.541.795a1.157 1.157 0 0 1-1.29-.448c-2.689-3.851-4.707-5.546-8.681-7.002-.257-.094-.477.199-.322.425 6.729 9.781 10.734 16.604 14.812 28.443.207.598.857.92 1.455.715l7.142-2.458a1.151 1.151 0 0 1 1.365.511c3.629 6.215 6.387 9.287 11.672 12.816a1.142 1.142 0 0 0 1.585-.336c2.942-4.477 6.408-8.442 9.237-9.863.405-.203.885-.084 1.198.245l4.757 5.014 4.757-5.014c.312-.329.792-.448 1.197-.245 2.83 1.421 6.295 5.386 9.238 9.863a1.142 1.142 0 0 0 1.585.336c5.285-3.529 8.042-6.601 11.672-12.816a1.15 1.15 0 0 1 1.364-.511l7.142 2.458a1.148 1.148 0 0 0 1.455-.715c4.078-11.839 8.084-18.662 14.812-28.443.156-.226-.064-.519-.322-.425-3.973 1.456-5.991 3.151-8.68 7.002-.288.413-.81.598-1.291.448l-2.54-.795c-.646-.202-1.323.201-1.494.857-1.328 5.106-4.571 10.403-8.543 12.718a1.07 1.07 0 0 1-1.124-.048l-6.077-3.987c-.731-.479-1.708.012-1.784.884-.53 6.127-1.572 9.3-3.337 11.836-.395.567-1.211.586-1.68.077Z" fill="#181B2B"/><path d="m377.764 102.046-14.624 12.369c-.303.257-.239.675.014.882l-.456.168.024.116c.153.77.817 1.339 1.601 1.366 16.694.576 23.456-3.54 21.846-18.565-.139-1.297-1.649-1.897-2.674-1.09l-5.694 4.479-.037.275Z" fill="#181B2B"/><path d="M322.851 42.362c19.875-.128 15.036 18.11 5.656 19.758 3.704 12.274 21.656 11.418 26.785 3.149 3.672-20.085-4.698-34.277-28.717-32.572a1.144 1.144 0 0 0-.925.6l-2.272 4.293-1.61 3.042c-.418.788.192 1.735 1.083 1.73Z" fill="#14C393"/><path d="m309.215 102.056 14.612 12.359c.301.255.24.671-.011.88l.463.17-.023.116a1.7 1.7 0 0 1-1.602 1.366c-16.694.576-23.455-3.54-21.846-18.565.139-1.297 1.649-1.897 2.674-1.09l5.695 4.479.038.285Z" fill="#181B2B"/><path d="m347.55 121.969-.954-4.3c-.124-.557.556-.93.959-.527l4.896 4.901a.571.571 0 0 1-.344.971l-2.709.286a1.71 1.71 0 0 1-1.848-1.331ZM339.374 121.969l.955-4.3c.123-.557-.556-.93-.96-.527l-4.895 4.901a.57.57 0 0 0 .344.971l2.709.286a1.71 1.71 0 0 0 1.847-1.331Z" fill="#FBB80D"/><path d="m313.231 262.153 49.979 1.344-9.727 20.15-99.623 22.165c-4.052-28.634-.402-43.392 20.126-66.832l39.245 23.173Z" fill="#14C393"/><path d="M272.644 224.275c-.479 4.79-.943 11.113-1.133 11.871l1.425 4.279-7.674 9.296c-7.38-4.366-19.055-3.654-27.17 5.038l-8.916-14.547c-1.144-1.839-1.416-4.142-.465-6.089.963-1.971 1.94-3.212 3.548-4.251l-.208-.693c-.622-2.077-.285-4.381 1.175-5.983 1.789-1.964 3.294-2.801 5.589-3.083l-1.121-4.665c-.416-1.728-.197-3.59.882-5.001 1.906-2.494 4.166-3.992 7.588-3.969l-11.578-28.118c-.946-2.297.411-4.893 2.835-5.424l1.427-.312a3.988 3.988 0 0 1 4.426 2.126l15.425 31.121.287-1.019c.787-2.797 4.759-2.762 5.498.048l1.613 6.14 5.374 8.294a7.68 7.68 0 0 1 1.173 4.941Z" fill="#1FAC85"/><path d="m377.51 351.979-3.704-16.262c-30.455 1.595-45.283-1.309-68.386-14.55 25.36 11.411 49.58 11.126 76.08-.571 13.683-18.625 82.667-138.042-37.752-138.042l43.606-14.441 41.258 16.456c7.667 7.21 9.301 10.215 9.056 17.464-6.679 59.444-43.27 126.947-48.302 125.939l8.722 24.007H377.51ZM325.977 32.438l-.671 2.014c20.506.942 25.493 31.936 19.79 36.607-5.702 4.67 76.478 4.366 50.986 64.145 25.697-26.867 26.3-42.063-8.722-62.802l-9.805-9.817a23.271 23.271 0 0 0-21.39-6.303c-2.222-19.119-9.918-23.2-30.188-23.844Z" fill="#181B2B"/><path fill-rule="evenodd" clip-rule="evenodd" d="M258.272 204.665c.989-3.512 5.978-3.469 6.906.061l1.584 6.027 5.309 8.195a8.404 8.404 0 0 1 1.287 5.411c-.197 1.973-.391 4.205-.566 6.206l-.108 1.233c-.099 1.137-.19 2.152-.269 2.931a24.985 24.985 0 0 1-.163 1.378l1.365 4.099a.73.73 0 0 1-1.385.462l-1.492-4.481.052-.207c.031-.124.091-.595.171-1.397.077-.769.168-1.776.268-2.913l.107-1.229c.174-2 .37-4.245.568-6.227a6.943 6.943 0 0 0-1.059-4.47l-5.437-8.393-1.644-6.253c-.549-2.09-3.504-2.116-4.09-.036l-.296 1.053a.73.73 0 1 1-1.405-.396l.297-1.054ZM243.173 200.273c1.336-4.24 5.67-6.559 10.201-5.923a.73.73 0 0 1-.203 1.447c-3.946-.554-7.519 1.467-8.606 4.915a.73.73 0 1 1-1.392-.439ZM251.703 246.419c4.177-.685 8.534-.057 13.006 2.207a.73.73 0 0 1-.658 1.304c-4.213-2.132-8.258-2.701-12.112-2.069-3.864.633-7.581 2.482-11.11 5.26-7.07 5.565-13.283 14.781-18.249 25.008a.73.73 0 1 1-1.313-.639c5.007-10.31 11.338-19.754 18.66-25.518 3.668-2.887 7.609-4.87 11.776-5.553ZM313.704 261.712a.73.73 0 0 1-.202 1.013c-4.035 2.695-6.109 7.314-6.842 12.371-.733 5.053-.108 10.435 1.144 14.478a.73.73 0 1 1-1.394.433c-1.31-4.23-1.961-9.832-1.194-15.121.766-5.284 2.968-10.366 7.476-13.376a.728.728 0 0 1 1.012.202ZM350.88 41.089c-4.5-5.646-12.396-8.734-24.285-7.89a.641.641 0 0 0-.516.334l-3.882 7.334c-.227.43.099.994.636.99 4.905-.03 8.398 1.04 10.713 2.767 2.327 1.734 3.421 4.099 3.575 6.54.304 4.827-3.067 9.987-7.758 11.275a.24.24 0 0 0-.143.11.14.14 0 0 0-.015.122c1.99 5.482 7.105 8.039 12.427 8.235 5.345.197 10.722-1.996 13.153-5.801a.143.143 0 0 0 .019-.053c1.794-9.937.589-18.302-3.924-23.963Zm.786-.629c4.769 5.982 5.948 14.691 4.129 24.771-.026.144-.08.287-.162.416-2.682 4.199-8.462 6.47-14.038 6.266-5.597-.206-11.165-2.918-13.336-8.898-.253-.697.212-1.376.838-1.547 4.191-1.151 7.296-5.848 7.019-10.24-.136-2.166-1.097-4.25-3.171-5.797-2.084-1.554-5.338-2.596-10.106-2.566-1.246.008-2.139-1.322-1.531-2.47l3.882-7.333c.265-.5.775-.828 1.334-.867 12.08-.858 20.362 2.268 25.142 8.265ZM282.769 113.171a.73.73 0 0 1 1.018.17c.954 1.338 1.707 3.124 2.413 5.161.479 1.385.95 2.927 1.449 4.562.235.769.477 1.559.728 2.363 1.58 5.054 3.604 10.795 7.179 16.216 7.104 10.774 20.456 20.462 49.185 20.462a.73.73 0 0 1 0 1.461c-29.116 0-42.976-9.854-50.403-21.118-3.692-5.599-5.764-11.501-7.354-16.584a389.09 389.09 0 0 1-.741-2.407c-.494-1.618-.951-3.117-1.422-4.476-.697-2.012-1.395-3.632-2.222-4.79a.732.732 0 0 1 .17-1.02Z" fill="#181B2B"/><path fill-rule="evenodd" clip-rule="evenodd" d="M404.43 113.171a.73.73 0 0 0-1.018.17c-.954 1.338-1.707 3.124-2.413 5.161-.48 1.385-.951 2.927-1.45 4.562-.235.769-.476 1.559-.727 2.363-1.581 5.054-3.604 10.795-7.179 16.216-7.105 10.774-20.457 20.462-49.185 20.462a.73.73 0 0 0 0 1.461c29.115 0 42.976-9.854 50.403-21.118 3.692-5.599 5.764-11.501 7.354-16.584.259-.829.504-1.631.741-2.407.494-1.618.951-3.117 1.422-4.476.697-2.012 1.395-3.632 2.222-4.79a.732.732 0 0 0-.17-1.02ZM319.128 56.543c4.589-1.531 9.775-1.643 16.355-.254l-.301 1.43c-6.411-1.354-11.32-1.215-15.592.21-4.279 1.428-7.999 4.173-11.99 8.176-5.38 5.394-11.421 10.08-17.727 14.304-11.619 7.782-16.249 16.16-15.625 24.876.629 8.795 6.616 18.185 16.849 27.927l-1.005 1.059c-10.311-9.815-16.631-19.529-17.3-28.882-.675-9.431 4.403-18.246 16.27-26.195 6.25-4.187 12.211-8.813 17.505-14.122 4.069-4.08 7.978-7 12.561-8.529Z" fill="#181B2B"/><path fill-rule="evenodd" clip-rule="evenodd" d="M369.766 57.09c-3.977-1.636-8.366-2.157-13.735-1.494l.179 1.45c5.167-.637 9.297-.128 13.001 1.395 3.716 1.527 7.059 4.096 10.619 7.667 5.38 5.394 11.418 10.078 17.723 14.3 11.62 7.784 16.25 16.16 15.626 24.877-.629 8.795-6.616 18.185-16.85 27.927l1.006 1.059c10.31-9.815 16.63-19.529 17.3-28.882.675-9.431-4.403-18.246-16.27-26.195-6.251-4.187-12.208-8.81-17.502-14.119-3.629-3.639-7.131-6.355-11.097-7.986Z" fill="#181B2B"/><path fill-rule="evenodd" clip-rule="evenodd" d="M342.454 170.505c41.369 0 74.905-33.577 74.905-74.996 0-41.42-33.536-74.997-74.905-74.997s-74.906 33.577-74.906 74.996c0 41.42 33.537 74.997 74.906 74.997Zm0 1.461c42.175 0 76.365-34.231 76.365-76.458 0-42.226-34.19-76.457-76.365-76.457s-76.365 34.231-76.365 76.457c0 42.227 34.19 76.458 76.365 76.458Z" fill="#181B2B"/><path d="m347.543 121.973-.954-4.3c-.124-.557.556-.931.959-.527l4.895 4.901a.57.57 0 0 1-.343.971l-2.709.286a1.71 1.71 0 0 1-1.848-1.331Z" fill="#181B2B"/><path fill-rule="evenodd" clip-rule="evenodd" d="M348.064 116.633c-.92-.921-2.47-.069-2.188 1.202l.954 4.299a2.44 2.44 0 0 0 2.637 1.899l2.709-.285c1.087-.115 1.556-1.44.783-2.214l-4.895-4.901Zm-.644 1.422 4.27 4.275-2.376.25a.98.98 0 0 1-1.059-.763l-.835-3.762ZM383.796 97.831c.604-.506 1.479-.11 1.523.63.525 8.734-1.396 13.072-4.882 15.338-1.783 1.159-4.047 1.828-6.78 2.203-2.733.376-5.878.452-9.399.463-.909.003-1.333-1.145-.628-1.736l20.166-16.898Zm2.98.542c-.119-1.985-2.43-2.908-3.917-1.662l-20.166 16.897c-1.744 1.462-.716 4.325 1.569 4.318 3.523-.011 6.755-.086 9.594-.476 2.838-.39 5.34-1.102 7.376-2.426 4.151-2.698 6.081-7.728 5.544-16.651Z" fill="#181B2B"/><path d="m339.367 121.973.954-4.3c.124-.557-.556-.931-.959-.527l-4.895 4.901a.57.57 0 0 0 .343.971l2.709.286a1.71 1.71 0 0 0 1.848-1.331Z" fill="#181B2B"/><path fill-rule="evenodd" clip-rule="evenodd" d="M338.846 116.633c.919-.921 2.47-.069 2.188 1.202l-.955 4.299a2.439 2.439 0 0 1-2.636 1.899l-2.709-.285c-1.088-.115-1.556-1.44-.783-2.214l4.895-4.901Zm.644 1.422-4.27 4.275 2.375.25a.981.981 0 0 0 1.06-.763l.835-3.762ZM303.106 97.831c-.604-.506-1.479-.11-1.523.63-.525 8.734 1.396 13.072 4.882 15.338 1.783 1.159 4.047 1.828 6.78 2.203 2.733.376 5.879.452 9.399.463.909.003 1.333-1.145.628-1.736l-20.166-16.898Zm-2.98.542c.119-1.985 2.43-2.908 3.917-1.662l20.166 16.897c1.744 1.462.716 4.325-1.569 4.318-3.523-.011-6.755-.086-9.594-.476-2.838-.39-5.34-1.102-7.376-2.426-4.151-2.698-6.081-7.728-5.544-16.651Z" fill="#181B2B"/><path fill-rule="evenodd" clip-rule="evenodd" d="M395.248 114.998c-1.272.558-2.305 1.172-3.246 1.937-1.263 1.027-2.395 2.352-3.721 4.251a1.886 1.886 0 0 1-2.106.727l-2.541-.795c-.223-.07-.497.066-.569.344-1.357 5.218-4.685 10.718-8.882 13.164a1.795 1.795 0 0 1-1.891-.068l-6.078-3.986a.43.43 0 0 0-.656.335c-.536 6.183-1.595 9.504-3.466 12.191-.688.988-2.061.972-2.815.155-5.963-6.464-9.385-10.101-15.769-11.871a.366.366 0 0 0-.197 0c-6.333 1.756-9.648 5.35-15.537 11.733l-.128.138c-.753.817-2.126.833-2.814-.155-1.871-2.687-2.931-6.008-3.466-12.191a.431.431 0 0 0-.657-.335l-6.077 3.986a1.795 1.795 0 0 1-1.891.068c-4.197-2.446-7.525-7.946-8.882-13.164-.073-.278-.347-.414-.57-.344l-2.541.795a1.886 1.886 0 0 1-2.106-.727c-1.326-1.899-2.458-3.224-3.72-4.251-.942-.765-1.974-1.379-3.246-1.937 6.255 9.181 10.13 15.977 14.064 27.397a.417.417 0 0 0 .528.262l7.142-2.458a1.879 1.879 0 0 1 2.231.834c3.584 6.135 6.269 9.118 11.447 12.577a.414.414 0 0 0 .571-.131c1.487-2.263 3.113-4.406 4.733-6.17 1.611-1.753 3.256-3.175 4.787-3.944.734-.368 1.554-.131 2.053.395l4.357 4.591 4.087-4.54.001-.001c.496-.555 1.338-.814 2.093-.432 1.527.773 3.167 2.194 4.774 3.945 1.616 1.761 3.237 3.899 4.721 6.156a.413.413 0 0 0 .57.131c5.179-3.459 7.864-6.442 11.447-12.577a1.88 1.88 0 0 1 2.232-.834l7.142 2.458a.418.418 0 0 0 .528-.262c3.933-11.42 7.809-18.216 14.064-27.397Zm.865-1.918c.963-.353 1.71.746 1.173 1.525-6.704 9.747-10.673 16.51-14.723 28.266a1.876 1.876 0 0 1-2.382 1.168l-7.142-2.458a.42.42 0 0 0-.497.19c-3.676 6.294-6.505 9.454-11.897 13.054-.877.586-2.038.312-2.599-.542-1.451-2.208-3.025-4.281-4.577-5.971-1.561-1.701-3.061-2.973-4.358-3.63-.077-.039-.221-.038-.346.103l-.003.002-4.132 4.59a1.4 1.4 0 0 1-2.056.027l-4.4-4.637c-.125-.133-.265-.133-.341-.095-1.299.652-2.801 1.923-4.367 3.626-1.555 1.693-3.133 3.771-4.588 5.985-.562.854-1.723 1.128-2.6.542-5.391-3.6-8.22-6.76-11.896-13.054a.421.421 0 0 0-.498-.19l-7.142 2.458a1.876 1.876 0 0 1-2.382-1.168c-4.05-11.756-8.018-18.519-14.723-28.266-.536-.779.211-1.878 1.174-1.525 2.038.746 3.613 1.569 5.031 2.721 1.412 1.148 2.634 2.596 3.996 4.548a.427.427 0 0 0 .475.169l2.541-.795c1.069-.334 2.148.337 2.417 1.371 1.299 4.994 4.458 10.086 8.204 12.27.09.052.226.058.357-.028l6.077-3.987c1.208-.792 2.789.028 2.911 1.432.526 6.071 1.549 9.097 3.209 11.481.102.147.36.2.545 0l.274-.297c5.76-6.245 9.338-10.123 16.074-11.992.318-.088.657-.088.975 0 6.843 1.897 10.526 5.865 16.453 12.289.184.2.442.147.545 0 1.66-2.384 2.683-5.41 3.208-11.481.122-1.404 1.703-2.224 2.911-1.432l6.077 3.987c.131.086.268.08.357.028 3.746-2.184 6.906-7.276 8.204-12.27.269-1.034 1.348-1.705 2.418-1.371l2.54.795a.427.427 0 0 0 .475-.169c1.363-1.952 2.585-3.4 3.997-4.548 1.417-1.152 2.993-1.975 5.031-2.721ZM296.045 166.968l3.563-8.409 1.344.57-3.564 8.409c-.153.362-.079.748.165.996 8.053 8.205 23.821 13.303 40.994 13.762 17.147.458 35.485-3.718 48.609-13.819a.942.942 0 0 0 .281-1.121l-3.486-8.227 1.344-.57 3.486 8.226a2.408 2.408 0 0 1-.735 2.851c-13.469 10.366-32.171 14.584-49.538 14.12-17.341-.463-33.561-5.603-41.996-14.197-.689-.702-.834-1.727-.467-2.591Z" fill="#181B2B"/><path fill-rule="evenodd" clip-rule="evenodd" d="m424.109 183.054-36.04-14.111.531-1.361 36.04 14.111c9.139 3.578 14.859 12.859 13.43 22.616-6.136 41.899-18.481 73.538-41.941 116.815-4.552 8.396-12.858 14.285-22.411 15.085-19.664 1.646-35.427-.171-50.571-5.815-15.129-5.64-29.594-15.082-46.678-28.613l-1.19-.943 77.504-17.952 25.517-52.229.03-.045c4.78-6.961 14.345-15.296 25.099-22.343 10.45-6.848 22.13-12.549 31.794-14.592-2.069-4.737-6.014-8.626-11.114-10.623Zm11.655 12.002c-9.452 1.945-21.066 7.575-31.536 14.436-10.665 6.989-20.031 15.179-24.665 21.904l-25.774 52.757-75.222 17.423c16.52 12.99 30.521 22.018 45.089 27.448 14.903 5.555 30.445 7.361 49.941 5.728 9.019-.755 16.91-6.322 21.249-14.325 23.409-43.182 35.676-74.654 41.78-116.33a19.03 19.03 0 0 0-.862-9.041Z" fill="#181B2B"/><path fill-rule="evenodd" clip-rule="evenodd" d="M370.295 300.963c-6.004-8.217-12.648-14.637-16.968-17.009l.484-.884c4.512 2.478 11.261 9.038 17.296 17.298 6.042 8.268 11.432 18.325 13.161 27.844a.504.504 0 0 1-.99.181c-1.691-9.31-6.986-19.223-12.983-27.43ZM278.085 171.386l18.314-4.691.362 1.416-18.314 4.691c-3.9.998-7.424 3.117-10.043 6.157-4.874 5.657-9.637 11.606-13.972 17.683l-1.188-.849c4.367-6.12 9.158-12.105 14.055-17.789 2.824-3.278 6.612-5.549 10.786-6.618Zm-60.262 101.16c2.617-11.122 6.22-21.946 10.639-32.394l1.344.57c-4.389 10.377-7.965 21.123-10.563 32.159-1.827 7.762 1.153 16.041 8.108 19.655 7.565 3.932 14.854 5.257 25.716 6.516l-.167 1.451c-10.891-1.262-18.406-2.608-26.221-6.67-7.659-3.98-10.806-13.004-8.856-21.287Z" fill="#181B2B"/><path fill-rule="evenodd" clip-rule="evenodd" d="m273.949 238.379 39.361 23.012 49.676 1.137-.033 1.461-50.054-1.146-38.713-22.633c-11.06 11.187-16.843 22.033-19.438 32.761-2.569 10.621-2.027 21.181-.315 31.932l22.341-4.418.282 1.434-23.82 4.71-.122-.744c-1.822-11.098-2.479-22.121.215-33.258 2.697-11.149 8.738-22.356 20.222-33.85l.398-.398Z" fill="#181B2B"/><path fill-rule="evenodd" clip-rule="evenodd" d="M265.257 302.981c.277.016.49.253.475.531-1.133 20.467 3.128 40.379 4.834 48.077a.502.502 0 1 1-.982.218c-1.708-7.707-5.998-27.735-4.857-48.351a.504.504 0 0 1 .53-.475ZM238.685 171.918a4.718 4.718 0 0 1 5.236 2.516l17.435 35.178 5.995 15.148a.731.731 0 0 1-1.357.539l-5.972-15.092-17.409-35.124a3.257 3.257 0 0 0-3.616-1.737l-1.427.312a3.264 3.264 0 0 0-2.317 4.432l11.579 28.117 4.559 11.128a.73.73 0 1 1-1.35.554l-4.37-10.665c-2.873.114-4.814 1.439-6.523 3.675-.914 1.196-1.129 2.818-.752 4.386l3.056 12.712a.73.73 0 1 1-1.418.342l-1.778-7.394a6.79 6.79 0 0 0-2.08.727c-.794.438-1.556 1.078-2.418 2.024-1.255 1.378-1.578 3.402-1.015 5.281l2.43 8.11a.73.73 0 1 1-1.398.42l-1.927-6.433c-1.017.835-1.743 1.855-2.483 3.367-.827 1.69-.604 3.733.439 5.397l8.899 14.203a.73.73 0 0 1-1.237.777l-8.899-14.204c-1.265-2.02-1.597-4.601-.513-6.816.913-1.864 1.867-3.153 3.345-4.22l-.054-.181c-.681-2.274-.329-4.859 1.334-6.685.928-1.018 1.813-1.779 2.792-2.32a8.212 8.212 0 0 1 2.443-.869l-.937-3.896c-.454-1.887-.231-3.99 1.012-5.616 1.809-2.366 3.98-3.94 7.095-4.213l-11.18-27.151c-1.119-2.718.486-5.788 3.354-6.416l1.427-.313ZM272.266 174.096a.73.73 0 0 1 .818.631c2.013 15.598 1.022 24.591-.365 37.178-.25 2.267-.513 4.65-.773 7.21a.73.73 0 1 1-1.452-.148c.262-2.577.526-4.97.776-7.241 1.384-12.568 2.356-21.395.366-36.812a.73.73 0 0 1 .63-.818Z" fill="#181B2B"/><path fill-rule="evenodd" clip-rule="evenodd" d="M258.124 211.459a.732.732 0 0 1-.13 1.025c-8.717 6.757-16.617 17.481-21.132 29.913a.73.73 0 1 1-1.372-.5c4.603-12.673 12.661-23.631 21.61-30.568a.73.73 0 0 1 1.024.13Z" fill="#181B2B"/><path fill-rule="evenodd" clip-rule="evenodd" d="M370.075 58.81c-3.368-1.553-7.051-2.245-11.53-1.982a.73.73 0 0 1-.086-1.458c4.693-.276 8.619.45 12.226 2.113 3.597 1.658 6.837 4.23 10.185 7.588 5.294 5.309 11.247 9.93 17.498 14.117 11.142 7.461 16.306 15.687 16.333 24.486.027 8.747-5.03 17.823-13.759 26.999a.73.73 0 1 1-1.057-1.008c8.636-9.078 13.382-17.803 13.357-25.987-.025-8.131-4.769-15.965-15.685-23.276-6.306-4.223-12.34-8.903-17.719-14.298-3.286-3.295-6.385-5.736-9.763-7.294Z" fill="#FD9317"/><path fill-rule="evenodd" clip-rule="evenodd" d="M351.086 41.344c-4.332-5.639-11.948-8.813-23.42-8.214a.504.504 0 0 1-.053-1.006c11.672-.609 19.668 2.615 24.271 8.605 4.59 5.973 5.707 14.57 3.914 24.499a1.135 1.135 0 0 1-.162.416c-1.539 2.41-4.099 4.18-7.033 5.213a.503.503 0 0 1-.334-.95c2.78-.98 5.131-2.632 6.52-4.806a.168.168 0 0 0 .019-.053c1.767-9.787.624-18.049-3.722-23.704Z" fill="#14C393"/><path fill-rule="evenodd" clip-rule="evenodd" d="M431.649 195.32a.731.731 0 0 1-.487.911c-7.119 2.155-15.057 5.964-22.643 10.553a.73.73 0 1 1-.755-1.25c7.654-4.631 15.705-8.501 22.975-10.702a.73.73 0 0 1 .91.488Z" fill="#1FAC85"/><path fill-rule="evenodd" clip-rule="evenodd" d="M387.257 169.318a.731.731 0 0 1-.156 1.021c-7.267 5.345-15.958 8.97-25.089 11.096a.73.73 0 1 1-.33-1.423c8.979-2.092 17.479-5.646 24.555-10.851a.728.728 0 0 1 1.02.157Z" fill="#14C393"/><path fill-rule="evenodd" clip-rule="evenodd" d="M309.538 36.117a1.142 1.142 0 0 1-.416 1.559 67.051 67.051 0 0 0-25.216 25.866 1.138 1.138 0 0 1-1.546.454 1.141 1.141 0 0 1-.454-1.548A69.326 69.326 0 0 1 307.98 35.7a1.14 1.14 0 0 1 1.558.417Zm-29.202 32.088c.581.243.854.912.61 1.493a66.348 66.348 0 0 0-2.953 8.695 1.14 1.14 0 1 1-2.204-.584 68.526 68.526 0 0 1 3.055-8.994 1.14 1.14 0 0 1 1.492-.61ZM307.93 163.691c.587.229.878.891.65 1.478l-2.348 6.045a1.141 1.141 0 1 1-2.126-.827l2.348-6.045a1.14 1.14 0 0 1 1.476-.651Z" fill="#FD9317"/><path d="M341.832 200.189c-.361-.13-.716.142-.764.523-1.201 9.686-4.175 18.469-9.679 21.07l1.879-16.384a.335.335 0 0 0-.53-.31l-7.383 5.381-5.923-7.766a.335.335 0 0 0-.6.167l-1.839 16.518c-4.716-4.312-5.6-13.768-4.57-23.507.038-.356-.207-.687-.565-.686-5.811.023-12.739 13.146-14.567 29.065-.821 7.165.094 13.983 1.166 19.397.118.598.914.734 1.245.221 2.807-4.347 6.446-8.336 9.934-7.754 6.924 1.15 12.296 4.196 10.786 17.348 1.504-13.152 7.363-14.331 14.287-13.175 3.499.583 6.11 5.635 7.832 10.753.196.58 1.004.64 1.26.084 2.244-4.855 4.642-11.094 5.46-18.23 1.816-15.87-1.872-30.717-7.429-32.715Z" fill="#2F354D"/><path d="M315.314 225.922c-.867-.144-1.474-1.071-1.36-2.077.114-1 .909-1.694 1.775-1.55.86.143 1.468 1.077 1.353 2.071-.114 1.005-.908 1.7-1.768 1.556Zm17.289 2.873c-.866-.143-1.468-1.071-1.354-2.071.115-.999.903-1.7 1.769-1.556.866.144 1.474 1.077 1.36 2.077-.115 1-.909 1.694-1.775 1.55Zm-8.909 2.407c.084.012.162.024.24.03.506.042.885-.072 1.131-.27.229-.185.463-.533.548-1.263.072-.658-.091-1.179-.451-1.73-.391-.592-.951-1.119-1.625-1.778-.625-.61-1.365-1.34-1.853-2.25-.523-.976-.764-2.125-.433-3.502.397-1.664 1.606-2.496 2.9-2.634.361-.036.74-.024 1.125.042.95.156 1.931.623 2.803 1.359l-1.065 1.712c-.655-.545-1.347-.862-1.973-.964a2.555 2.555 0 0 0-.704-.024c-.74.078-1.167.479-1.317 1.096-.181.748-.06 1.287.216 1.795.307.575.813 1.102 1.474 1.742.608.593 1.36 1.293 1.907 2.119.578.874.969 1.958.818 3.311-.138 1.203-.583 2.131-1.305 2.711-.698.563-1.534.701-2.304.641-.12-.012-.247-.024-.367-.048-1.402-.234-2.851-1.108-3.712-2.131l1.3-1.479c.583.695 1.66 1.347 2.647 1.515Zm2.298-21.586c-7.466-1.239-14.342 4.885-15.346 13.678-1.011 8.8 4.229 16.94 11.694 18.18 7.466 1.239 14.342-4.885 15.346-13.684 1.011-8.794-4.229-16.935-11.694-18.174Z" fill="#181B2B"/><path d="M315.723 222.296c-.867-.144-1.661.557-1.775 1.55-.114 1.006.493 1.928 1.359 2.078.861.143 1.655-.551 1.769-1.557.114-.999-.493-1.927-1.353-2.071ZM333.01 225.167c-.866-.144-1.654.557-1.769 1.556-.114 1 .488 1.928 1.354 2.072.866.143 1.66-.551 1.775-1.551.114-.999-.494-1.933-1.36-2.077ZM325.27 217.859a4.182 4.182 0 0 0-1.125-.042c-1.293.137-2.502.969-2.899 2.634-.331 1.376-.091 2.526.433 3.501.487.91 1.227 1.641 1.853 2.251.673.653 1.233 1.185 1.624 1.778.361.551.529 1.071.451 1.73-.084.73-.319 1.077-.547 1.263-.247.197-.626.311-1.131.269a3.236 3.236 0 0 1-.241-.03c-.987-.161-2.063-.814-2.647-1.502l-1.299 1.478c.86 1.024 2.304 1.898 3.711 2.131.127.018.247.036.367.048.77.06 1.607-.078 2.304-.64.716-.581 1.167-1.509 1.306-2.712.156-1.353-.241-2.436-.818-3.31-.548-.832-1.3-1.532-1.907-2.119-.656-.635-1.161-1.167-1.474-1.742-.277-.509-.391-1.048-.217-1.796.151-.616.578-1.017 1.318-1.095.216-.024.457-.018.704.024.619.101 1.317.419 1.973.963l1.065-1.712c-.873-.748-1.853-1.215-2.804-1.37Z" fill="#E7EAF3"/><path d="M322.342 241.481c-7.465-1.246-12.705-9.38-11.694-18.186 1.011-8.793 7.881-14.923 15.346-13.678 7.466 1.245 12.705 9.38 11.695 18.174-1.005 8.805-7.881 14.929-15.347 13.69Zm3.796-33.121c-8.055-1.341-15.466 5.268-16.555 14.756-1.089 9.487 4.56 18.269 12.615 19.604 8.055 1.335 15.467-5.268 16.555-14.756 1.089-9.481-4.559-18.263-12.615-19.604Z" fill="#505573"/><path d="M240.693 113.962c18.953 16.672 7.768 30.235-.657 36.876-3.663 2.888-5.731 7.684-4.373 12.15-34.13-7.724-47.883-51.626-11.734-38.611-63.99-52.055 11.398-89.657 23.807-52.055-25.071-17.717-34.128 17.816-7.043 41.64Z" fill="#FD9317"/><path fill-rule="evenodd" clip-rule="evenodd" d="M199.628 88.873c1.696 10.018 8.84 21.985 24.762 34.937l-.708 1.255c-8.991-3.238-14.589-2.819-17.537-.644-2.885 2.13-3.564 6.225-2.007 11.269 3.034 9.821 14.328 22.197 30.538 26.31-.794-4.446 1.385-8.957 4.909-11.736 4.174-3.29 8.913-8.211 10.336-14.27 1.401-5.968-.372-13.269-9.71-21.483-13.687-12.039-18.349-27.13-16.27-37.096 1.042-4.995 3.812-8.796 8.095-10.11 3.826-1.174 8.661-.296 14.218 3.156-3.304-7.72-9.608-11.619-16.56-12.463-7.592-.923-15.971 1.803-22.022 7.273-6.032 5.451-9.736 13.612-8.044 23.602Zm30.242-32.326c8.073.98 15.361 5.857 18.558 15.546l.695 2.104-1.808-1.278c-6.177-4.365-11.206-5.335-14.852-4.216-3.62 1.11-6.123 4.36-7.093 9.01-1.946 9.327 2.407 23.915 15.805 35.701 9.615 8.457 11.726 16.274 10.167 22.915-1.538 6.551-6.604 11.733-10.854 15.084-3.485 2.747-5.378 7.249-4.127 11.363l.365 1.202-1.224-.277c-17.307-3.917-29.491-17.003-32.758-27.58-1.628-5.271-1.101-10.193 2.536-12.876 3.083-2.275 8.149-2.727 15.314-.71-14.093-12.171-20.737-23.567-22.405-33.418-1.783-10.526 2.137-19.176 8.505-24.931 6.348-5.738 15.143-8.615 23.176-7.64Z" fill="#181B2B"/><path d="M2.562 101.332c15.46 6.784 28.625 24.86 29.547 52.566.923-27.704 13.649-45.779 29.062-52.565.84-.37.84-1.662.001-2.034C45.76 92.47 33.032 73.955 32.11 46.25 31.187 73.958 18.021 92.471 2.56 99.3c-.84.372-.839 1.663.002 2.032Z" fill="#7A859E"/><path fill-rule="evenodd" clip-rule="evenodd" d="M32.102 55.115C28.971 78.173 16.901 93.765 2.855 99.97c-.108.048-.194.166-.194.347 0 .182.087.299.194.346 14.042 6.163 26.115 21.401 29.247 44.386 3.054-22.974 14.768-38.217 28.775-44.384.107-.047.194-.165.195-.348 0-.182-.088-.301-.195-.349-14.01-6.209-25.721-21.806-28.775-44.853Zm-.722-8.888h1.459c.915 27.503 13.536 45.716 28.629 52.405.731.324 1.063 1.038 1.063 1.686 0 .649-.333 1.362-1.066 1.685-15.096 6.646-27.71 24.424-28.626 51.921H31.38c-.915-27.487-13.96-45.274-29.111-51.922-.734-.322-1.067-1.035-1.068-1.684 0-.648.333-1.361 1.065-1.685 15.148-6.691 28.199-24.912 29.114-52.406Z" fill="#181B2B"/><path d="M79.414 180.453c9.264 4.542 16.994 15.651 17.553 32.387.558-16.733 8.03-27.841 17.25-32.385.824-.406.825-1.74.002-2.15-9.221-4.585-16.694-15.949-17.252-32.684-.559 16.738-8.29 28.103-17.555 32.687-.824.407-.823 1.74.002 2.145Z" fill="#7A859E"/><path fill-rule="evenodd" clip-rule="evenodd" d="M96.96 152.967c-2.241 12.988-9.115 21.981-17.225 25.993l-.323-.655.323.655c-.108.053-.21.195-.21.418 0 .223.102.363.21.416 8.108 3.975 14.983 12.776 17.224 25.711 2.183-12.924 8.861-21.729 16.936-25.708.107-.053.211-.194.211-.419 0-.225-.103-.367-.211-.421-8.077-4.017-14.754-13.012-16.936-25.99Zm-.722-7.373h1.459c.552 16.537 7.924 27.617 16.847 32.054.714.355 1.022 1.085 1.021 1.731 0 .646-.309 1.376-1.026 1.729-8.924 4.398-16.29 15.223-16.842 31.754h-1.46c-.55-16.523-8.168-27.355-17.144-31.756-.718-.352-1.028-1.08-1.028-1.727 0-.646.308-1.375 1.023-1.729 8.975-4.44 16.598-15.527 17.15-32.056Z" fill="#181B2B"/></g></g><defs><clipPath id="a"><path fill="#fff" d="M0 0h706v320H0z"/></clipPath></defs></svg>