<svg width="134" height="41" fill="none" xmlns="http://www.w3.org/2000/svg"><path d="M19.282 7.192c.207.083.455.145.744.186.29.041.558.124.806.248.041 0 .083.02.124.062h.186c-.083.165-.186.31-.31.434-.372 0-.723-.041-1.054-.124-.33-.083-.703-.165-1.116-.248-.041 0-.083.02-.124.062h-.062a10.1 10.1 0 0 0-1.116-.062 5.13 5.13 0 0 1-1.116-.124l-.124-.062c-.041.041-.124.062-.248.062-.083-.083-.165-.124-.248-.124a.476.476 0 0 1-.186-.062c-.207.041-.393.083-.558.124-.165 0-.351-.041-.558-.124h-.186c-.041.041-.103.062-.186.062a1.374 1.374 0 0 1-.434.062h-.558c-.041-.041-.083-.062-.124-.062-.083 0-.186.02-.31.062h-.248l-.124.124a.42.42 0 0 1-.31.124.69.69 0 0 0-.31.062H13.082c.455-.041.868-.062 1.24-.062h.434-.124c0-.041-.02-.062-.062-.062a2.608 2.608 0 0 0-.62-.062H13.268a.55.55 0 0 0-.248-.062c-.29.041-.558.041-.806 0l-.434-.062h-.248c-.124-.124-.227-.103-.31.062v.062c-.041 0-.062.02-.062.062l-.124.124a4.376 4.376 0 0 0-.31.434c0 .207-.041.393-.124.558l-.186.186a2.616 2.616 0 0 0-.496.682 9.092 9.092 0 0 1-.31.682c-.124.29-.227.558-.31.806-.083.248-.186.517-.31.806a2.467 2.467 0 0 1-.372.62c-.124.165-.165.393-.124.682a2.408 2.408 0 0 0-.124.31 1.02 1.02 0 0 0-.062.31.609.609 0 0 1-.31.558c0 .083-.02.124-.062.124 0 .041-.02.083-.062.124 0 .207-.083.579-.248 1.116-.165.537-.269.868-.31.992 0 .124.02.227.062.31-.041.041-.062.083-.062.124l-.062.062.062.062c.041.29-.062.558-.31.806a2.322 2.322 0 0 0-.434.744l-.124.124a.42.42 0 0 1-.124.31.476.476 0 0 0 .186.062c.041 0 .103.02.186.062h.372a.772.772 0 0 1 .434 0c.083 0 .145-.02.186-.062.165 0 .269.02.31.062h1.054c.041-.041.103-.062.186-.062h.248c.33-.041.661 0 .992.124l.31.062h.186c.207 0 .372.02.496.062.083 0 .145.02.186.062a.42.42 0 0 1 .31.124h.186c.083 0 .145.02.186.062a.69.69 0 0 1 .31.062c.041.041.083.062.124.062.041 0 .103.02.186.062l.186.062.062.062c.041 0 .083.02.124.062.29.165.537.351.744.558.248.165.475.351.682.558.041.041.062.083.062.124l.186.186c.165.165.269.29.31.372.041 0 .103.041.186.124.041 0 .103.041.186.124a.97.97 0 0 0 .186.248v.124c.041 0 .062.02.062.062v.186a.42.42 0 0 1 .124.31v.806c.041.041.062.103.062.186-.083.083-.124.207-.124.372v.806c0 .083-.02.124-.062.124 0 .083-.02.145-.062.186v.124c.083.165.083.31 0 .434 0 .083-.041.248-.124.496a1.562 1.562 0 0 1-.186.372 5.962 5.962 0 0 0-.124.434c-.124.207-.207.227-.248.062 0-.165-.041-.124-.124.124-.083.083-.124.165-.124.248 0 .041-.02.103-.062.186l-.248.372-.248.372c-.041.124-.103.29-.186.496a.42.42 0 0 0-.124.31c0 .124-.062.227-.186.31a1.328 1.328 0 0 1-.248.31c-.248.248-.496.517-.744.806-.248.29-.517.558-.806.806a4.05 4.05 0 0 0-.434.372 2.465 2.465 0 0 1-.31.372c-.207.124-.351.248-.434.372-.124.041-.269.145-.434.31a5.575 5.575 0 0 1-.806.558c-.248.124-.475.31-.682.558a2.032 2.032 0 0 0-.31.248 1.443 1.443 0 0 1-.372.248 2.032 2.032 0 0 0-.31.248 1.922 1.922 0 0 1-.372.124c-.041 0-.083.02-.124.062h-.124l-.124.062c-.124.165-.29.29-.496.372a3.529 3.529 0 0 0-.62.186 1.435 1.435 0 0 0-.186.31c-.041 0-.083.02-.124.062h-.124l-.124.062c-.207.248-.517.413-.93.496-.413.041-.806.103-1.178.186l-.248-.062c-.29.207-.558.33-.806.372-.248 0-.29-.29-.124-.868l.062-.062.062-.062c.041-.041.041-.02 0 .062-.041.041-.041.041 0 0a.55.55 0 0 1 .248-.062c.124 0 .207-.02.248-.062.083-.083.145-.124.186-.124.083 0 .083-.041 0-.124-.083-.083-.227-.062-.434.062l-.372.248a.864.864 0 0 1-.372.062l-.124-.124c-.248.248-.455.393-.62.434-.165 0-.351-.103-.558-.31h.062c-.083-.041-.062-.124.062-.248a1.17 1.17 0 0 0 .062-.372c0-.165-.083-.31-.248-.434l-.062.124c-.33-.083-.496-.186-.496-.31a.598.598 0 0 1 .248-.31c.413-.29.806-.558 1.178-.806.372-.29.785-.537 1.24-.744l.248-.124c.041 0 .083-.02.124-.062a82.506 82.506 0 0 1 2.356-1.674 110.61 110.61 0 0 0 2.294-1.736l.248-.372.372-.496.124-.248c.248-.165.455-.33.62-.496l.62-.62c.083-.083.165-.186.248-.31a.937.937 0 0 1 .31-.372c0-.041-.02 0-.062.124 0 .083-.02.186-.062.31a1.171 1.171 0 0 0-.062.372v.124l.31-.372a4.01 4.01 0 0 0 .558-.992c.165-.33.29-.661.372-.992.041-.124.062-.29.062-.496a.54.54 0 0 0 .062-.558v-.248c.041-.124.041-.227 0-.31v-.186h-.062v-.062l-.124-.062-.124-.062h-.124l-.062.062c0-.041-.02-.062-.062-.062h-.248a1.375 1.375 0 0 0-.434-.062 5.962 5.962 0 0 1-.434-.124h-.31c-.124 0-.186-.083-.186-.248-.124.041-.31.062-.558.062a2.04 2.04 0 0 0-.496-.062 1.614 1.614 0 0 0-.496-.062.55.55 0 0 1-.248.062.55.55 0 0 0-.248.062 1.196 1.196 0 0 0-.62-.186 3.529 3.529 0 0 1-.62-.186c-.041.041-.083.062-.124.062-.083.165-.227.207-.434.124-.124.041-.31.02-.558-.062-.207-.083-.372-.083-.496 0a.936.936 0 0 0-.372-.31.462.462 0 0 1-.186-.496.567.567 0 0 1 .434-.372 1.82 1.82 0 0 1 .682-.124v-.248c.041-.083.02-.165-.062-.248v-.186l.124-.062c.33.248.434.455.31.62l.062-.062c.041-.083.041-.124 0-.124 0-.041.02-.083.062-.124-.041-.165-.062-.413-.062-.744-.041-.041-.062-.145-.062-.31h-.31c-.041-.041-.083-.062-.124-.062 0 .041-.165.103-.496.186a.373.373 0 0 1-.248-.248 2.032 2.032 0 0 0-.31-.248c-.124-.083-.29-.083-.496 0v.124c-.207.207-.372.269-.496.186a1.378 1.378 0 0 1-.186-.434 16.436 16.436 0 0 1-.186-1.302c0-.455.083-.91.248-1.364v-.248c.041-.041.062-.083.062-.124.041-.496.124-1.033.248-1.612.124-.62.269-1.24.434-1.86.165-.661.351-1.281.558-1.86.207-.62.413-1.157.62-1.612.083-.207.145-.393.186-.558.041-.165.103-.351.186-.558 0-.165.02-.269.062-.31.207-.33.393-.62.558-.868.207-.29.455-.6.744-.93.083-.165.186-.31.31-.434s.248-.269.372-.434l.248-.248.186-.186c.083-.041.124-.083.124-.124a.721.721 0 0 1 .186-.124l.062-.062.062-.062.186-.186c.207-.165.434-.31.682-.434.29-.124.537-.227.744-.31a3.585 3.585 0 0 1 1.736-.186h.558l.31.062h.31V3.72h1.488a.771.771 0 0 1 .434 0c.165 0 .537.041 1.116.124h.186c.124 0 .248.02.372.062 1.033 0 2.15.165 3.348.496.248.083.434.165.558.248.124.083.083.186-.124.31-.083 0-.145-.02-.186-.062-.083.124-.062.269.062.434.124.165.248.29.372.372a.971.971 0 0 1 .248.186v.062-.062c-.041.248-.124.393-.248.434-.124 0-.413-.083-.868-.248V6.2c-.083.083-.207.103-.372.062a4.29 4.29 0 0 0-.496-.124.69.69 0 0 1-.31.062c-.083-.041-.103-.02-.062.062 0 .083.041.207.124.372.124.124.227.207.31.248.083 0 .145.02.186.062h.186a.476.476 0 0 0 .186.062c.041 0 .103.02.186.062l.062.062c.041 0 .083.02.124.062Z" fill="url(#a)"/><path d="m36.86 13.144.124-.062c.042.207.083.393.124.558.042.165.125.351.248.558l-.062.062a.723.723 0 0 1-.123.186c-.042 0-.104.041-.187.124-.04.165-.062.31-.062.434s-.02.248-.061.372v.496l-.124.496a5.911 5.911 0 0 0-.125.434h.063l-.124.248a.67.67 0 0 1-.187.496v.062a.772.772 0 0 1 0 .434v.31c0 .124.021.207.063.248l-.248.868a4.767 4.767 0 0 1-.248.868l.186.062c-.207.041-.31.103-.31.186a2.393 2.393 0 0 0-.125.31.42.42 0 0 1-.123.31c0 .083-.021.145-.063.186 0 .083-.04.248-.123.496a7.382 7.382 0 0 1-.186.806l-.124.744c-.042.207-.042.372 0 .496l-.248.248c.04-.041.144-.062.31-.062l.62.248c.082.083.123.145.123.186 0 .041.042.103.124.186v.186h-.061c.04.041.144.165.31.372h-.063c0 .083-.082.165-.247.248a.778.778 0 0 0-.186.31.41.41 0 0 0 .062.372l.123-.062c.331.207.228.393-.31.558-.702.248-1.405.434-2.107.558-.248.165-.393.372-.434.62 0 .083.02.186.062.31.04.124.04.227 0 .31a.723.723 0 0 1-.124.186c-.042 0-.083.02-.125.062-.123.29-.206.517-.248.682v.372c0 .083-.02.207-.061.372 0 .124-.042.33-.124.62l-.248.62a2.002 2.002 0 0 0-.124.744c-.042.124-.104.351-.187.682a2.04 2.04 0 0 0-.123.62l-.125.124-.062.062a.67.67 0 0 1-.186.496l-.247.372c.082.165.123.29.123.372 0 .083-.02.145-.062.186l-.061.124c.04.29.04.579 0 .868a4.912 4.912 0 0 1-.186.744c-.042.041-.083.062-.125.062-.04 0-.061.02-.061.062 0 .33-.042.579-.125.744-.082.165-.35.02-.805-.434v-.186l-.063-.124c.042-.041.063-.103.063-.186-.042-.041-.063-.083-.063-.124.042-.041.042-.083 0-.124 0-.248-.082-.393-.248-.434-.123-.041-.186.041-.186.248a1.168 1.168 0 0 0-.061.372c0 .083-.063.165-.187.248h-.186c.083.372.104.6.063.682-.042.083-.228.103-.558.062-.083-.083-.124-.165-.124-.248a2.46 2.46 0 0 1-.31-.372c-.042-.124-.166-.186-.373-.186-.04.041-.061.103-.061.186-.207.124-.352.124-.434 0a.764.764 0 0 1-.124-.434 7.505 7.505 0 0 1 0-1.364c.04-.455.144-.889.31-1.302 0-.124.02-.207.062-.248.04-.041.061-.083.061-.124.042-.496.063-.889.063-1.178.04-.33.062-.64.062-.93.04-.29.103-.579.186-.868.082-.33.186-.723.31-1.178.082-.165.123-.33.123-.496 0-.165.042-.33.125-.496 0-.165-.021-.29-.063-.372.042-.083.083-.186.124-.31.083-.124.166-.227.248-.31h-1.116c-.372 0-.785-.02-1.24-.062a61.021 61.021 0 0 0-1.674-.124 12.473 12.473 0 0 1-1.611-.186 6.01 6.01 0 0 1-1.178-.124c-1.2-.124-1.86-.248-1.985-.372a4.65 4.65 0 0 1-.495-.434l-.31-.31a1.328 1.328 0 0 1-.248-.31 4.39 4.39 0 0 1-.187-.558 1.563 1.563 0 0 1 0-.62v-.62l.372-1.798.063-.868c0-.083.04-.351.123-.806.125-.496.27-1.095.434-1.798.207-.703.434-1.467.682-2.294a45.64 45.64 0 0 1 .806-2.542c.248-.95.517-1.984.806-3.1.331-1.157.703-2.17 1.116-3.038-.04-.041-.062-.083-.062-.124-.04-.041-.02-.145.063-.31.082-.455.227-.91.434-1.364.247-.455.475-.91.681-1.364l.124-.124.063-.062a.701.701 0 0 1 .248-.248c.123-.041.227 0 .31.124.04.041.04.083 0 .124a.31.31 0 0 0 .372 0c.165-.124.35-.248.558-.372a1.33 1.33 0 0 1 .31-.248c.247.041.372.124.372.248 0 .083-.145.29-.434.62h.123a.574.574 0 0 1 0 .372l.248.124.124.124c.042-.041.063-.083.063-.124 0-.041.02-.083.062-.124.082-.165.165-.269.247-.31 0-.041.021-.062.063-.062 0-.041.02-.083.062-.124 0-.041.082-.124.247-.248.166-.165.31-.29.434-.372.124-.083.207-.062.248.062.042.124-.061.455-.31.992 0 .041.042.103.125.186a5.758 5.758 0 0 1-.186.682 5.758 5.758 0 0 1-.186.682c0 .165-.021.31-.063.434v.124l-.062.186c0 .041-.02.083-.061.124v.372a.264.264 0 0 1 0 .248l.061.062c.042 0 .083.02.125.062.082.083.103.165.061.248v.186a.667.667 0 0 1-.123.372 2.391 2.391 0 0 0-.124.31c0 .041-.021.083-.063.124v.062c-.04.041-.227.496-.558 1.364-.289.827-.66 1.819-1.116 2.976a2.42 2.42 0 0 0-.186.496c0 .124-.04.29-.123.496h-.125a141.863 141.863 0 0 0-1.116 3.472c-.248.91-.372 1.385-.372 1.426V20.088h-.062.063c.04.083-.021.186-.186.31-.166.083-.27.186-.31.31v.372h-.063v.062c-.082.124-.04.186.124.186h.063l-.558 1.984h.123a1.1 1.1 0 0 0 .497.124h.247c.125-.041.228-.041.31 0 .083 0 .125.02.125.062h.123c.29.083.58.145.869.186.289 0 .578.02.867.062.331.041.641.062.93.062h.93l.744.124c.248.041.517.02.806-.062.331 0 .58-.02.744-.062h.248c0-.083.042-.248.124-.496l.248-.744c.124-.248.228-.475.31-.682.083-.248.125-.413.125-.496.04-.29.123-.558.247-.806.166-.29.228-.579.186-.868l.063-.062c.04 0 .082-.02.123-.062.125-.041.166-.083.125-.124-.042-.041-.083-.145-.125-.31v.186c.042.165.063.207.063.124.123-.33.206-.64.248-.93.082-.33.144-.661.186-.992-.083-.083-.083-.145 0-.186.082-.083.103-.165.061-.248.042-.248.124-.475.248-.682v-.062l.063-.062c.206-.496.392-.992.557-1.488.166-.496.393-.971.683-1.426.206-.33.371-.661.495-.992.124-.372.352-.661.682-.868.083-.083.187-.103.31-.062l.806-.062c.042.29.125.558.248.806.124.248.186.517.186.806.166.083.31.124.434.124ZM28.43 36.828h.062-.063Z" fill="url(#b)"/><path d="M45.71 8.618a.69.69 0 0 1 .062.31v.248a.55.55 0 0 1 .062.248v.248c.083.165.062.351-.062.558v.124l-.062.124v.248c.041.083.02.186-.062.31a6.994 6.994 0 0 1-.062-.496v-.062l.124.124c.041 0 .103-.041.186-.124l-.062.124a.673.673 0 0 1-.124.248v.186c.041.083.02.186-.062.31-.083.124-.124.227-.124.31 0 .083-.041.145-.124.186 0 .083-.02.124-.062.124-.041 0-.062.02-.062.062-.083.041-.124.083-.124.124 0 .041-.041.103-.124.186-.041 0-.062.02-.062.062 0 .041-.041.062-.124.062v.062l-.062.248-.062.062h-.062a1.08 1.08 0 0 1-.31.558l-.558.372-.434.434c-.165.083-.29.124-.372.124-.083 0-.186.041-.31.124-.165.083-.434.124-.806.124l-.062.062h-.372l-.248-.062h-.31c-.083 0-.124-.02-.124-.062l-.186-.062-.186-.124-.186-.124-.186-.248c-.083 0-.124-.02-.124-.062v-.062c0-.041-.041-.103-.124-.186l-.062-.124h-.124l-.062-.248-.124-.062v-.372a2.058 2.058 0 0 1-.186-.806c-.124-.579-.124-1.095 0-1.55 0-.33.062-.558.186-.682v-.31c.041-.124.062-.227.062-.31 0-.083.02-.124.062-.124.041-.041.062-.103.062-.186-.083.579-.227.95-.434 1.116-.165.124-.145.103.062-.062l.062-.124v-.062c0-.041.062-.124.186-.248 0-.083.02-.124.062-.124.041-.041.062-.103.062-.186l.062-.124c.083 0 .124-.02.124-.062v-.062c.041 0 .062-.02.062-.062l.062-.062V8.68c.165-.248.31-.455.434-.62l.248-.248.248-.248.124-.124a3.03 3.03 0 0 1 .31-.186.778.778 0 0 1 .31-.186l.062-.124.062-.062c0-.041.02-.083.062-.124h.062c.165 0 .248-.02.248-.062a.55.55 0 0 0 .248-.062l.372-.124h.124c.041-.041.103-.062.186-.062h.062l.124-.062c.413-.083.682-.062.806.062.124.041.186.083.186.124l.124.124.248.124c.124.041.248.145.372.31l.248.186c0 .083.02.145.062.186.041 0 .083.041.124.124a.476.476 0 0 1 .062.186c.041 0 .083.041.124.124l.062.248c0 .124.02.186.062.186v.124c.041 0 .062.041.062.124Zm-2.48-1.116c-.413.207-.703.413-.868.62-.124.165-.29.413-.496.744-.083.083-.124.145-.124.186-.083.124-.124.165-.124.124v-.124a.476.476 0 0 0 .062-.186c.041-.041.041.02 0 .186l-.062.248c0 .041-.02.062-.062.062v.124c-.083.041-.124.103-.124.186v.31c0 .124-.02.269-.062.434a1.171 1.171 0 0 0-.062.372v.372a.69.69 0 0 1 .062.31l.062.124c0 .165.041.33.124.496l.062.124v.124c.083 0 .124.041.124.124h.186c0 .041.02.062.062.062h.31l.124-.062c.165 0 .29-.041.372-.124h.062c.083-.083.165-.124.248-.124l.186-.248.124-.186c.124 0 .186-.062.186-.186a1.89 1.89 0 0 0 .434-.62 6.92 6.92 0 0 1 .434-.744c.041-.083.02-.103-.062-.062-.083 0-.083-.062 0-.186.041-.165.083-.31.124-.434.041-.165.062-.29.062-.372l-.124.558V9.052a.55.55 0 0 1 .062-.248c.041-.124.02-.227-.062-.31 0-.083-.02-.145-.062-.186v-.31a.97.97 0 0 1-.186-.248h-.124c-.041 0-.083-.02-.124-.062l-.186-.062c-.083-.083-.145-.124-.186-.124l-.124-.062-.248.062Zm6.696-5.58c.207-.703.372-1.095.496-1.178.124-.083.351.103.682.558.083.083.207.186.372.31.207.083.351.062.434-.062.29-.537.496-.868.62-.992.165-.165.475-.351.93-.558.372.083.558.517.558 1.302.041.785-.145 1.88-.558 3.286l-.062.62c0 .041-.02.083-.062.124l-.062.062-.124.496c0 .124-.041.33-.124.62-.041.29-.103.6-.186.93l-.248.868-.186.558c.041 0 .083-.02.124-.062.041-.083.02 0-.062.248a4.054 4.054 0 0 0-.248.434.573.573 0 0 0 0 .372c-.083.083-.124.041-.124-.124a6.428 6.428 0 0 1-.434 1.178c-.124.33-.248.723-.372 1.178l-1.116 3.782a35.25 35.25 0 0 0-.124.806c-.041.29-.165.558-.372.806 0 .083-.041.165-.124.248a.69.69 0 0 0-.062.31c-.29.703-.434 1.095-.434 1.178 0 .041.02.041.062 0 .083-.083.124-.083.124 0s-.124.496-.372 1.24a49.194 49.194 0 0 1-.62 1.86c-.165.537-.31 1.157-.434 1.86 0 .124-.062.351-.186.682-.083.29-.186.62-.31.992a9.14 9.14 0 0 1-.31.992l-.186.744-.496 1.55-1.054 3.224v-.372a.69.69 0 0 0-.062-.31v-.186c-.041.248-.041.434 0 .558a.55.55 0 0 1 .062.248c.041.041.062.103.062.186.041.083.02.207-.062.372-.165.33-.31.682-.434 1.054 0 .083-.041.145-.124.186-.041.041-.062.103-.062.186-.041.041-.062.083-.062.124v.062a5.095 5.095 0 0 1-.434 2.356c-.29.703-.496 1.385-.62 2.046v.248c-.207.496-.496.64-.868.434-.33-.207-.517-.6-.558-1.178-.041-.041-.083.02-.124.186 0 .165-.02.351-.062.558v.558-.186c.041-.165.062-.351.062-.558.041-.207.062-.393.062-.558l.062-.248v-.248c.041.041.062.124.062.248 0 .083-.02.186-.062.31v.062c-.083 0-.165.124-.248.372-.041.207-.083.434-.124.682-.041.124-.062.165-.062.124v-.558h-.186c-.165.33-.269.475-.31.434 0-.041-.186-.103-.558-.186-.083-.207-.124-.351-.124-.434v-.31c-.041-.124-.083-.165-.124-.124-.041 0-.083.041-.124.124a2.408 2.408 0 0 0-.124.31.406.406 0 0 1-.186.186l-.186.31c-.083.124-.186.103-.31-.062-.124-.165-.186-.455-.186-.868.207-.579.413-1.323.62-2.232l.744-2.852c.248-.992.496-1.943.744-2.852.248-.91.475-1.653.682-2.232.041-.165.062-.29.062-.372l.124-.372c.207-.661.434-1.364.682-2.108l.682-2.046c.207-.661.372-1.24.496-1.736.165-.537.29-.91.372-1.116.083-.413.186-.847.31-1.302.124-.455.207-.91.248-1.364a.41.41 0 0 0 .062-.372c0-.124.02-.31.062-.558a69.189 69.189 0 0 0 1.24-3.844c.413-1.323.827-2.687 1.24-4.092h-.124l1.426-4.774c.041-.124.083-.269.124-.434a2.11 2.11 0 0 1 .248-.558c.041-.124.083-.227.124-.31a.69.69 0 0 0 .062-.31l.186-.186c.083-.083.165-.227.248-.434v-.124Zm5.022 23.56a.69.69 0 0 1 .062.31v.248a.55.55 0 0 1 .062.248v.248c.083.165.062.351-.062.558v.124l-.062.124v.248c.041.083.02.186-.062.31a6.994 6.994 0 0 1-.062-.496v-.062l.124.124c.041 0 .103-.041.186-.124l-.062.124a.673.673 0 0 1-.124.248v.186c.041.083.02.186-.062.31-.083.124-.124.227-.124.31 0 .083-.041.145-.124.186 0 .083-.02.124-.062.124-.041 0-.062.02-.062.062-.083.041-.124.083-.124.124 0 .041-.041.103-.124.186-.041 0-.062.02-.062.062 0 .041-.041.062-.124.062v.062l-.062.248-.062.062h-.062a1.08 1.08 0 0 1-.31.558l-.558.372-.434.434c-.165.083-.29.124-.372.124-.083 0-.186.041-.31.124-.165.083-.434.124-.806.124l-.062.062h-.372l-.248-.062h-.31c-.083 0-.124-.02-.124-.062l-.186-.062-.186-.124-.186-.124-.186-.248c-.083 0-.124-.02-.124-.062v-.062c0-.041-.041-.103-.124-.186l-.062-.124h-.124l-.062-.248-.124-.062v-.372a2.058 2.058 0 0 1-.186-.806c-.124-.579-.124-1.095 0-1.55 0-.33.062-.558.186-.682v-.31a1.02 1.02 0 0 0 .062-.31c0-.083.02-.124.062-.124.041-.041.062-.103.062-.186-.083.579-.227.95-.434 1.116-.165.124-.145.103.062-.062l.062-.124v-.062c0-.041.062-.124.186-.248 0-.083.02-.124.062-.124.041-.041.062-.103.062-.186l.062-.124c.083 0 .124-.02.124-.062v-.062c.041 0 .062-.02.062-.062l.062-.062v-.124c.165-.248.31-.455.434-.62a16361615866715.19 16361615866715.19 0 0 1 .496-.496l.124-.124c.124-.083.227-.145.31-.186a.778.778 0 0 1 .31-.186l.062-.124.062-.062c0-.041.02-.083.062-.124h.062c.165 0 .248-.02.248-.062a.55.55 0 0 0 .248-.062l.372-.124h.124c.041-.041.103-.062.186-.062h.062l.124-.062c.413-.083.682-.062.806.062.124.041.186.083.186.124l.124.124.248.124c.124.041.248.145.372.31l.248.186c0 .083.02.145.062.186.041 0 .083.041.124.124a.477.477 0 0 1 .062.186c.041 0 .083.041.124.124l.062.248c0 .124.02.186.062.186v.124c.041 0 .062.041.062.124Zm-2.48-1.116c-.413.207-.703.413-.868.62-.124.165-.29.413-.496.744-.083.083-.124.145-.124.186-.083.124-.124.165-.124.124v-.124a.477.477 0 0 0 .062-.186c.041-.041.041.02 0 .186l-.062.248c0 .041-.02.062-.062.062v.124c-.083.041-.124.103-.124.186v.31c0 .124-.02.269-.062.434a1.171 1.171 0 0 0-.062.372v.372a.69.69 0 0 1 .062.31l.062.124c0 .165.041.33.124.496l.062.124v.124c.083 0 .124.041.124.124h.186c0 .041.02.062.062.062h.31l.124-.062c.165 0 .29-.041.372-.124h.062c.083-.083.165-.124.248-.124l.186-.248.124-.186c.124 0 .186-.062.186-.186a1.89 1.89 0 0 0 .434-.62 6.92 6.92 0 0 1 .434-.744c.041-.083.02-.103-.062-.062-.083 0-.083-.062 0-.186.041-.165.083-.31.124-.434.041-.165.062-.29.062-.372l-.124.558V25.916a.55.55 0 0 1 .062-.248c.041-.124.02-.227-.062-.31 0-.083-.02-.145-.062-.186v-.31a.97.97 0 0 1-.186-.248h-.124c-.041 0-.083-.02-.124-.062l-.186-.062c-.083-.083-.145-.124-.186-.124l-.124-.062-.248.062Z" fill="url(#c)"/><path d="M81.875 9.114c-.041.083-.165-.083-.372-.496 0 .083-.041.041-.124-.124l-.186-.186c0-.083-.041-.165-.124-.248a2.026 2.026 0 0 1-.248-.31l-.248-.372c-.041-.083-.082-.124-.124-.124a.719.719 0 0 1-.124-.186l-.062-.186-.248-.248a.97.97 0 0 1-.186-.248.55.55 0 0 1 .062.248c0 .083.042.227.124.434.124.33.166.517.124.558 0 .041-.103 0-.31-.124l-.186-.186a.975.975 0 0 0-.186-.248c-.041-.083-.082-.124-.124-.124a.476.476 0 0 0-.062-.186c-.082-.083-.124-.145-.124-.186h-.062c-.082.083-.227.02-.434-.186a.778.778 0 0 0-.31-.186l-.248-.248a.97.97 0 0 1-.248-.186c-.082 0-.165-.041-.248-.124 0 .083-.041.124-.124.124-.041 0-.082.02-.124.062h-.062a.42.42 0 0 1-.31.124.69.69 0 0 0-.31-.062c-.33 0-.516.041-.558.124-.041.041-.082.062-.124.062a1.444 1.444 0 0 1-.372.248c-.082.083-.33.124-.744.124-.33.083-.537.145-.62.186l-.186.124a.476.476 0 0 1-.186.062l-.124.062a.97.97 0 0 0-.248.186.674.674 0 0 1-.248.124.973.973 0 0 1-.248.186c-.041 0-.082.041-.124.124a3.04 3.04 0 0 1-.31.186c-.041 0-.103.041-.186.124l-1.736 1.364c-.537.413-1.074.868-1.612 1.364-.041.041-.082.062-.124.062l-.062.062a.968.968 0 0 0-.248.186l-.186.186c0 .041-.062.124-.186.248 0 .041-.02.062-.062.062v.062c-.165.207-.31.434-.434.682a3.83 3.83 0 0 1-.434.682 7.79 7.79 0 0 1-1.86 2.666c-.413.372-.702.765-.868 1.178-.206.33-.372.64-.496.93-.124.29-.268.6-.434.93-.33.372-.516.806-.558 1.302v.124a.97.97 0 0 0-.186.248c0 .083-.041.165-.124.248l-.248.62a4.422 4.422 0 0 1-.186.558v.186a.475.475 0 0 0-.062.186l-.062.124c-.041.207-.082.393-.124.558-.041.124-.103.29-.186.496l-.124.248a.55.55 0 0 1-.062.248v-.062.062h.062a21.35 21.35 0 0 0-.186 1.612v2.976c0 .455.042.93.124 1.426 0 .083.042.207.124.372v.124c.042 0 .062.02.062.062v.186c.083 0 .124.041.124.124l.124.186c-.041 0 0 .062.124.186.248.455.517.847.806 1.178v.062c0 .041.021.083.062.124l.062.062.124.124a.718.718 0 0 0 .124.186.972.972 0 0 1 .248.186l.186.186c.083.041.186.103.31.186l.062.062c.042 0 .062.02.062.062h.124l.186.062c.372.207.744.33 1.116.372.042-.041.083-.062.124-.062h.186c0 .041.021.062.062.062h.62l.186-.062h.31l.186-.062h.062l.062-.062.372-.124h.062c0-.041.021-.062.062-.062l.062-.062c.042-.041.124-.041.248 0h.496c.042-.041.083-.062.124-.062h.062v-.062l.124-.062h.062c.042-.041.083-.062.124-.062a.724.724 0 0 0 .186-.124.72.72 0 0 1 .186-.124.724.724 0 0 0 .186-.124.72.72 0 0 1 .186-.124l.062-.062c.042 0 .083-.02.124-.062l.248-.124.31-.248c.29-.207.558-.413.806-.62a3.95 3.95 0 0 0 .682-.744v-.062c.042-.083.083-.124.124-.124a.723.723 0 0 0 .124-.186c.166-.165.269-.29.31-.372a.968.968 0 0 1 .248-.186l.248-.248a3.69 3.69 0 0 1 .372-.496l.062-.062c.124-.124.269-.351.434-.682a.42.42 0 0 1 .124-.31l.186-.372c.083-.083.124-.145.124-.186a7.34 7.34 0 0 1 .248-.558 1.94 1.94 0 0 1 .372-.496c.124-.124.207-.227.248-.31l.186-.372c.124-.248.269-.455.434-.62l-.062-.124c.124-.372.269-.723.434-1.054.083-.083.166-.227.248-.434.083-.083.124-.145.124-.186l.124-.248.062-.31c0-.083.042-.165.124-.248l.124-.806c.083-.248.166-.455.248-.62.083-.33.166-.579.248-.744h.062v.062c0-.207.083-.434.248-.682.083-.33.166-.496.248-.496.042-.041.062.103.062.434v-.062c.042-.041.062-.103.062-.186 0-.041-.02-.062-.062-.062v-.31a.55.55 0 0 0 .062-.248c.124-.372.228-.744.31-1.116.042-.124.062-.29.062-.496a.67.67 0 0 1 .186-.496c.083-.413.145-.703.186-.868.083-.413.124-.723.124-.93 0-.083.062-.227.186-.434v-.062l.062-.062a6.01 6.01 0 0 1-.124-1.178c0-.372.021-.765.062-1.178v-.372c-.041-.124-.02-.227.062-.31.083 0 .124.083.124.248l.062.062v.248c.042.041.062.145.062.31l.062.124v.372a.975.975 0 0 0 .186-.248c.083-.207.207-.227.372-.062.042.041.062.145.062.31 0 .124-.02.207-.062.248.083 0 .124.083.124.248 0 .124.021.227.062.31v.248c.083 0 .145.02.186.062l.062.124c.124.041.207.165.248.372.042.207.104.33.186.372.042 0 .062.02.062.062l.248.248c.083.083.083.269 0 .558 0 .248-.02.434-.062.558 0 .083-.041.29-.124.62 0 .083-.02.207-.062.372v.372c-.041.661-.206 1.467-.496 2.418-.041.041-.062.083-.062.124l-.062.31-.062.186v.062c.042.207.062.517.062.93.042.248.021.579-.062.992-.124.33-.268.6-.434.806-.206.248-.31.517-.31.806-.082.083-.165.269-.248.558a.69.69 0 0 0-.062.31c0 .083-.02.186-.062.31-.124.124-.227.33-.31.62l.062.124a1.43 1.43 0 0 0-.186.31 6.474 6.474 0 0 1-.31.682v.124c-.041 0-.062.02-.062.062v.124l-.124.372a4.795 4.795 0 0 0-.248.62 1.464 1.464 0 0 1-.31.682.778.778 0 0 0-.186.31.975.975 0 0 1-.186.248c0 .041-.02.062-.062.062v.062c-.041 0-.062.02-.062.062l-.372.62a6.523 6.523 0 0 1-.372.558c-.082.165-.186.31-.31.434a4.04 4.04 0 0 0-.248.434.97.97 0 0 0-.186.248c0 .041-.041.103-.124.186-.124.124-.186.207-.186.248a.97.97 0 0 0-.186.248.718.718 0 0 0-.124.186l-.124.186c-.124.083-.186.145-.186.186l-.124.124c-.041 0-.082.02-.124.062-.041 0-.062.02-.062.062a1.328 1.328 0 0 0-.248.31l-.31.31-.186.186c0 .041-.041.083-.124.124 0 .124-.082.248-.248.372l-.186.186-.124.124-.186.186-.372.186h-.062c0 .083-.02.103-.062.062l-.248.124-.248.124h-.062c0 .124-.062.186-.186.186h-.124c-.082.083-.165.124-.248.124a.55.55 0 0 0-.248.062l-.062.062a6.427 6.427 0 0 1-1.55.868c-.041.041-.124.062-.248.062l-.062.062-.186.062-.062.062c-.041.041-.206.103-.496.186h-.372a.69.69 0 0 1-.31.062h-.186c-.165.083-.31.145-.434.186l-.248.124h-.124c-.33.083-.578.083-.744 0-.041-.041-.103-.062-.186-.062h-.186a.55.55 0 0 1-.248-.062h-.31c-.124.041-.31.02-.558-.062l-.062-.062h-.248c0-.041-.02-.062-.062-.062h-.186c0-.041-.02-.062-.062-.062a.864.864 0 0 0-.372-.062h-.186c-.413-.083-.682-.186-.806-.31v-.062l.062-.062a.55.55 0 0 1-.248-.062.724.724 0 0 0-.186-.124l-.062-.124c-.041-.041-.103-.062-.186-.062a.718.718 0 0 1-.124-.186c-.289-.207-.64-.475-1.054-.806l-.124-.124-.062-.124c-.124-.041-.186-.124-.186-.248l-.372-.372a.723.723 0 0 0-.124-.186l-.124-.248a.723.723 0 0 0-.124-.186.477.477 0 0 0-.062-.186c-.082-.083-.124-.145-.124-.186l-.062-.062c.042 0 .042-.103 0-.31a2.027 2.027 0 0 1-.248-.31 9.642 9.642 0 0 0-.186-.496 1.398 1.398 0 0 0-.248-.496l-.124-.248v-.31A4.578 4.578 0 0 0 58.75 31a.475.475 0 0 1-.062-.186c0-.041-.02-.083-.062-.124l-.248-1.488a18.254 18.254 0 0 1-.186-1.488v-.558c0-.207.021-.351.062-.434-.124-.372-.103-.847.062-1.426l.248-1.364.248-1.364a11.23 11.23 0 0 1 .992-3.348l.62-1.488a7.9 7.9 0 0 1 .806-1.55c.042-.083.083-.124.124-.124a.723.723 0 0 0 .124-.186c.083-.124.145-.227.186-.31.042-.124.104-.248.186-.372a286.515 286.515 0 0 1 .248-.496c.083-.083.124-.145.124-.186 0-.083.042-.165.124-.248l.186-.248.062-.124c0-.083.021-.124.062-.124l.186-.372v-.062c.372-.62.848-1.22 1.426-1.798.083-.083.145-.124.186-.124v-.062c.207-.455.496-.868.868-1.24L66.5 8.928v-.062c.083-.083.124-.165.124-.248.124-.124.228-.248.31-.372l.31-.31.992-.868c.331-.29.641-.558.93-.806.29-.207.558-.413.806-.62a1.84 1.84 0 0 1 .868-.496h.062a11.919 11.919 0 0 1 1.612-1.054l.186-.124h.124l.062-.062c.124-.083.228-.124.31-.124a.778.778 0 0 0 .31-.186c.207-.083.393-.145.558-.186.207-.041.414-.062.62-.062.538-.041.992.02 1.364.186h.062c.042 0 .062.02.062.062h.062c1.034.041 1.984.475 2.852 1.302.414.33.786.723 1.116 1.178.331.413.662.868.992 1.364v.248c.124.165.269.413.434.744.248.372.331.6.248.682Zm-4.588 14.012c0 .083-.041.165-.124.248.083-.083.145-.124.186-.124 0-.165.021-.29.062-.372.042-.041.062-.083.062-.124l-.186.372ZM75.18 32.24l.062-.062h-.062v.062Zm-5.022 1.612c-.124.165-.144.248-.062.248a.778.778 0 0 0 .31-.186c.042 0 .145-.041.31-.124-.041-.041-.041-.124 0-.248-.248.165-.434.269-.558.31Zm-.31 1.488-.248.124a.55.55 0 0 0-.248.062c.042.041.124.062.248.062.207.041.29.124.248.248a.724.724 0 0 0 .186-.124.72.72 0 0 1 .186-.124c.124-.041.228-.083.31-.124.083-.083.166-.124.248-.124.124-.165.062-.207-.186-.124-.082 0-.186.02-.31.062a.264.264 0 0 1-.248 0c-.041 0-.062.02-.062.062h-.124Zm-4.092-1.612v.062-.062Zm-3.286-1.24v-.062.062Z" fill="url(#d)"/><path d="M83.349 18.786c.206-.207.413-.33.62-.372.207-.083.413-.02.62.186v-.124c.33-.29.64-.434.93-.434.33 0 .661-.041.992-.124a6.677 6.677 0 0 1 1.178-.248c.413-.083.806-.165 1.178-.248.124-.041.227-.062.31-.062.124-.041.227-.165.31-.372h.062l.124-.062c.041-.124.082-.227.124-.31l.124-.248h-.124c.041 0 .082-.02.124-.062.248-.62.496-1.22.744-1.798.248-.62.475-1.24.682-1.86 0-.041.02-.062.062-.062.041-.041.02-.103-.062-.186-.29-.165-.393-.372-.31-.62.082-.248.186-.517.31-.806a.55.55 0 0 1 .062-.248c.082-.165.165-.31.248-.434.083-.124.103-.29.062-.496-.083-.207-.186-.31-.31-.31a573.03 573.03 0 0 0-.248-.124 1.887 1.887 0 0 0-.682 0c-.248.041-.475.083-.682.124-.207.248-.413.393-.62.434-.207.041-.372-.041-.496-.248-.165-.207-.227-.413-.186-.62.041-.207.103-.413.186-.62-.33-.041-.682 0-1.054.124s-.724-.041-1.054-.496c-.041-.083-.062-.227-.062-.434.083-.372.207-.537.372-.496.041 0 .083.02.124.062l.992-.124c0-.041-.02-.083-.062-.124.207-.248.392-.413.558-.496.206-.083.413.041.62.372v-.062c.041-.041.062-.083.062-.124.33-.372.661-.558.992-.558.33 0 .661-.041.992-.124a3.764 3.764 0 0 1 1.116-.31c.413-.041.826-.103 1.24-.186.124-.041.227-.083.31-.124.124-.083.207-.227.248-.434.082-.248.165-.434.248-.558.165-.248.455-.434.868-.558a4.297 4.297 0 0 1 1.24-.186c.413-.041.764-.02 1.054.062.33.041.454.124.372.248l.062.062c0 .165-.041.351-.124.558-.083.165-.062.31.062.434.041.083.124.124.248.124.165-.041.351-.083.558-.124-.29 0-.31-.062-.062-.186h.558c.413-.083.661-.124.744-.124.206.083.517.041.93-.124.206-.083.372-.02.496.186h-.062.062a.688.688 0 0 1 .31-.062h1.116a10.1 10.1 0 0 1 1.116-.062h.124c.041-.041.103-.062.186-.062.413-.165.806-.227 1.178-.186.413.041.806.103 1.178.186.206 0 .413.02.62.062.248.041.475.165.682.372 0 .041-.021.083-.062.124h.062v-.062l.124-.248c.124 0 .227.02.31.062 0-.083.02-.145.062-.186a.77.77 0 0 1 .558-.248c.206-.083.392-.083.558 0 .207.041.413.124.62.248 0 .041.041.062.124.062.165-.041.454-.02.868.062.207 0 .351.041.434.124.165 0 .289-.02.372-.062a.845.845 0 0 0 .558.062c.206-.083.392 0 .558.248a.604.604 0 0 1-.372.248l-.372.124c-.083 0-.186.02-.31.062-.083.041-.166.02-.248-.062-.042 0-.104.041-.186.124a.866.866 0 0 1-.372.062 1.339 1.339 0 0 0-.806 0 1.527 1.527 0 0 1-.744.062c-.083 0-.104.041-.062.124.082.041.124.103.124.186.33.083.641.103.93.062.33-.041.661 0 .992.124V6.2l.062-.062-.434-.186a.41.41 0 0 1 .372-.062c.124.041.227.083.31.124a5.27 5.27 0 0 1 1.612 0c.537.083 1.054.165 1.55.248.165 0 .289.02.372.062.165-.083.31-.103.434-.062.124.041.248.103.372.186.206-.041.392-.062.558-.062.165-.041.351-.062.558-.062.082 0 .206.041.372.124.082-.207.186-.31.31-.31.165 0 .31.02.434.062.372.041.723.083 1.054.124.372.041.723.124 1.054.248a.474.474 0 0 0 .186.062c.082-.041.144-.041.186 0 .289.083.434.269.434.558-.083.165-.186.269-.31.31a.547.547 0 0 0-.248.062l-.62-.186a7.29 7.29 0 0 1-1.302.124c-.413-.041-.848-.083-1.302-.124-.166.124-.434.145-.806.062-.207.207-.372.207-.496 0v-.062h-.062a1.17 1.17 0 0 1-.372-.062c-.083-.041-.186-.02-.31.062h-.434c-.166-.083-.393-.083-.682 0h-.186l-.31-.124v.124l-.682.124h-.682c-.455.083-.93.083-1.426 0a.31.31 0 0 1-.372 0l-.062.062-.124.248c.041 0 .062.02.062.062h.124l.93.31.062.062c0 .165-.062.269-.186.31v.062h-.496a2.045 2.045 0 0 0-.496-.062h-.806l-.062.062c-.083.083-.165.124-.248.124-.041-.041-.104-.062-.186-.062-.372 0-.62-.062-.744-.186h-.062a1.878 1.878 0 0 1-.93.124 1.55 1.55 0 0 0-.868 0 3.054 3.054 0 0 0-.868 0 7.334 7.334 0 0 0-.806.186c-.124 0-.186-.083-.186-.248-.083-.124-.186-.165-.31-.124a.42.42 0 0 1-.31-.124c-.414.041-.848.103-1.302.186a12.78 12.78 0 0 0-1.24.186c.165 0 .289.02.372.062h.186a1.822 1.822 0 0 1-.682.124 4.181 4.181 0 0 0-.682-.062 7.984 7.984 0 0 1-1.054.186c-.372.041-.724.083-1.054.124l-.992.124c-.29 0-.6.041-.93.124-.083 0-.145-.041-.186-.124v-.062c-.124.29-.248.558-.372.806a2.619 2.619 0 0 0-.248.806c-.041.33-.145.62-.31.868l-.372.62-.186.434v.186c-.083.496-.248.95-.496 1.364-.207.372-.413.765-.62 1.178 0 .165-.02.29-.062.372a1.23 1.23 0 0 1 .558-.124c0 .041-.041.103-.124.186a.7.7 0 0 1-.062.496c-.083.165-.062.29.062.372a.522.522 0 0 0 .434.062c.165-.083.31-.083.434 0 .082 0 .103.02.062.062h-.372c-.041-.041-.02-.083.062-.124.248 0 .413.062.496.186l.434-.062-.062.062h-.062c.041 0 .206-.02.496-.062.33-.041.744-.062 1.24-.062.537-.041.91-.041 1.116 0 0 .124.062.207.186.248.165.041.227.124.186.248 0 .248.062.434.186.558l.372.372c.165.083.31.186.434.31s.165.29.124.496c-.455.083-.827.207-1.116.372-.29.124-.661.145-1.116.062a.31.31 0 0 0-.372 0c-.083.041-.186.145-.31.31a4.05 4.05 0 0 0-.372.434.597.597 0 0 1-.31.248 3.81 3.81 0 0 1-.496.062.55.55 0 0 0-.248-.062c-.042-.041-.104-.062-.186-.062-.083 0-.248.041-.496.124-.455.083-.91.145-1.364.186-.455 0-.91.083-1.364.248h-.124c0-.041-.02-.062-.062-.062l-.434.868a29.842 29.842 0 0 0-.62 1.798c-.083.33-.186.682-.31 1.054-.124.33-.227.682-.31 1.054a2.04 2.04 0 0 0-.062.496.999.999 0 0 1-.124.434l-.186.372c-.165.372-.269.579-.31.62-.041 0-.062-.02-.062-.062 0-.083-.02-.103-.062-.062-.041 0-.124.207-.248.62-.124.33-.269.661-.434.992-.124.29-.207.64-.248 1.054-.083.165-.124.33-.124.496 0 .165-.02.31-.062.434a2.43 2.43 0 0 0-.186.496c-.042.165-.104.31-.186.434 0 .041-.041.103-.124.186 0 .041-.02.083-.062.124v.062a1.3 1.3 0 0 1-.186.682 7.42 7.42 0 0 0-.248.558.55.55 0 0 1-.062.248c0 .041.02.103.062.186 0 .041-.041.145-.124.31 0 .083-.02.145-.062.186a5.488 5.488 0 0 1-.248 1.24 9.81 9.81 0 0 0-.31 1.178l-.124.124c0 .248-.02.413-.062.496l-.124.248-.186.186c-.041.041-.083.165-.124.372l-.124.744v.682a21.93 21.93 0 0 0-.124.682c-.041.207-.124.351-.248.434-.29.083-.434-.062-.434-.434a1.073 1.073 0 0 1-.062-.62 1.884 1.884 0 0 0 0-.682v-.186c.041-.041.062-.103.062-.186l.124-.062a1.994 1.994 0 0 1-.062 1.612c.083 0 .145-.02.186-.062a.724.724 0 0 1 .186-.124.42.42 0 0 1-.124-.31v-.248c.041-.124.062-.227.062-.31v-.558c0-.207.02-.413.062-.62a3.502 3.502 0 0 1 0-.93c.041-.29.083-.6.124-.93v-.124c0-.207-.041-.33-.124-.372-.083-.041-.145 0-.186.124a.42.42 0 0 1-.124.31c0 .455-.083.744-.248.868h-.124c0 .29-.02.455-.062.496l-.062-.062a1.328 1.328 0 0 0-.248-.31c-.083-.124-.186-.186-.31-.186v-.062c-.083-.083-.124-.227-.124-.434-.083-.165-.145-.124-.186.124-.041.248-.145.393-.31.434-.041 0-.062.041-.062.124-.207.207-.33.227-.372.062a1.567 1.567 0 0 1 0-.62c.041-.661.103-1.323.186-1.984.124-.661.29-1.281.496-1.86a1 1 0 0 1 .124-.434l.062-.124c.124-.703.227-1.199.31-1.488.082-.29.144-.517.186-.682.083-.207.186-.434.31-.682.124-.29.29-.765.496-1.426.082-.207.144-.434.186-.682.082-.29.145-.558.186-.806l.124-.434c.29-.785.579-1.55.868-2.294.29-.744.579-1.53.868-2.356l-.434.124c0-.124-.02-.207-.062-.248-.041-.207-.124-.31-.248-.31h-.372a1.889 1.889 0 0 0-.682 0c-.207 0-.413.02-.62.062-.372.413-.744.475-1.116.186-.29-.248-.29-.64 0-1.178-.372-.041-.744 0-1.116.124-.372.124-.724 0-1.054-.372-.041-.083-.062-.227-.062-.434.041-.124.062-.227.062-.31.041-.124.145-.165.31-.124l.124.062.868-.124v-.062Zm17.794-14.012c.041 0 .082-.02.124-.062-.165 0-.31.02-.434.062h.31ZM85.891 36.89c0 .083-.02.145-.062.186 0 .041.02.103.062.186v-.372Zm16.182-28.644c.082-.041.082-.062 0-.062v.062ZM84.589 36.952h-.062v.062l.062-.062Z" fill="url(#e)"/><path d="M95.64 18.786c.207-.207.413-.33.62-.372.206-.083.413-.02.62.186v-.124c.33-.29.64-.434.93-.434.33 0 .661-.041.992-.124a6.677 6.677 0 0 1 1.178-.248c.413-.083.806-.165 1.178-.248a1.02 1.02 0 0 1 .31-.062c.124-.041.227-.165.31-.372h.062l.124-.062c.041-.124.083-.227.124-.31l.124-.248h-.124c.041 0 .083-.02.124-.062.248-.62.496-1.22.744-1.798.248-.62.475-1.24.682-1.86 0-.041.021-.062.062-.062.041-.041.021-.103-.062-.186-.289-.165-.393-.372-.31-.62.083-.248.186-.517.31-.806 0-.083.021-.165.062-.248.083-.165.165-.31.248-.434.083-.124.103-.29.062-.496-.083-.207-.186-.31-.31-.31l-.248-.124a1.887 1.887 0 0 0-.682 0c-.248.041-.475.083-.682.124-.207.248-.413.393-.62.434-.207.041-.372-.041-.496-.248-.165-.207-.227-.413-.186-.62.041-.207.103-.413.186-.62-.331-.041-.682 0-1.054.124s-.724-.041-1.054-.496c-.041-.083-.062-.227-.062-.434.082-.372.206-.537.372-.496.041 0 .082.02.124.062l.992-.124c0-.041-.021-.083-.062-.124.207-.248.393-.413.558-.496.207-.083.413.041.62.372v-.062c.041-.041.062-.083.062-.124.331-.372.661-.558.992-.558.331 0 .661-.041.992-.124a3.764 3.764 0 0 1 1.116-.31c.413-.041.827-.103 1.24-.186.124-.041.227-.083.31-.124.124-.083.207-.227.248-.434a2.43 2.43 0 0 1 .248-.558c.165-.248.455-.434.868-.558a4.296 4.296 0 0 1 1.24-.186c.413-.041.765-.02 1.054.062.331.041.455.124.372.248l.062.062c0 .165-.041.351-.124.558-.083.165-.062.31.062.434.041.083.124.124.248.124.165-.041.351-.083.558-.124-.289 0-.31-.062-.062-.186h.558c.413-.083.661-.124.744-.124.207.083.517.041.93-.124.207-.083.372-.02.496.186h-.062.062a.691.691 0 0 1 .31-.062h1.116a10.1 10.1 0 0 1 1.116-.062h.124c.041-.041.103-.062.186-.062.413-.165.806-.227 1.178-.186.413.041.806.103 1.178.186.207 0 .413.02.62.062.248.041.475.165.682.372 0 .041-.021.083-.062.124h.062v-.062l.124-.248c.124 0 .227.02.31.062 0-.083.021-.145.062-.186a.77.77 0 0 1 .558-.248c.207-.083.393-.083.558 0 .207.041.413.124.62.248 0 .041.041.062.124.062.165-.041.455-.02.868.062.207 0 .351.041.434.124.165 0 .289-.02.372-.062a.845.845 0 0 0 .558.062c.207-.083.393 0 .558.248a.604.604 0 0 1-.372.248l-.372.124c-.083 0-.186.02-.31.062-.083.041-.165.02-.248-.062-.041 0-.103.041-.186.124a.866.866 0 0 1-.372.062 1.339 1.339 0 0 0-.806 0 1.527 1.527 0 0 1-.744.062c-.083 0-.103.041-.062.124.083.041.124.103.124.186.331.083.641.103.93.062.331-.041.661 0 .992.124V6.2l.062-.062-.434-.186a.41.41 0 0 1 .372-.062c.124.041.227.083.31.124a5.27 5.27 0 0 1 1.612 0c.537.083 1.054.165 1.55.248.165 0 .289.02.372.062.165-.083.31-.103.434-.062.124.041.248.103.372.186a2.88 2.88 0 0 1 .558-.062c.165-.041.351-.062.558-.062.083 0 .207.041.372.124.083-.207.186-.31.31-.31.165 0 .31.02.434.062.372.041.723.083 1.054.124.372.041.723.124 1.054.248a.48.48 0 0 0 .186.062c.083-.041.145-.041.186 0 .289.083.434.269.434.558-.083.165-.186.269-.31.31a.55.55 0 0 0-.248.062l-.62-.186a7.29 7.29 0 0 1-1.302.124c-.413-.041-.847-.083-1.302-.124-.165.124-.434.145-.806.062-.207.207-.372.207-.496 0v-.062h-.062a1.17 1.17 0 0 1-.372-.062c-.083-.041-.186-.02-.31.062h-.434c-.165-.083-.393-.083-.682 0h-.186l-.31-.124v.124l-.682.124h-.682c-.455.083-.93.083-1.426 0a.31.31 0 0 1-.372 0l-.062.062-.124.248c.041 0 .062.02.062.062h.124l.93.31.062.062c0 .165-.062.269-.186.31v.062h-.496a2.038 2.038 0 0 0-.496-.062h-.806l-.062.062c-.083.083-.165.124-.248.124-.041-.041-.103-.062-.186-.062-.372 0-.62-.062-.744-.186h-.062a1.878 1.878 0 0 1-.93.124 1.55 1.55 0 0 0-.868 0 3.054 3.054 0 0 0-.868 0 7.334 7.334 0 0 0-.806.186c-.124 0-.186-.083-.186-.248-.083-.124-.186-.165-.31-.124a.421.421 0 0 1-.31-.124c-.413.041-.847.103-1.302.186-.413.041-.827.103-1.24.186.165 0 .289.02.372.062h.186a1.822 1.822 0 0 1-.682.124 4.171 4.171 0 0 0-.682-.062 7.987 7.987 0 0 1-1.054.186c-.372.041-.723.083-1.054.124l-.992.124c-.289 0-.599.041-.93.124-.083 0-.145-.041-.186-.124v-.062c-.124.29-.248.558-.372.806a2.608 2.608 0 0 0-.248.806c-.041.33-.145.62-.31.868l-.372.62-.186.434v.186c-.083.496-.248.95-.496 1.364a30.7 30.7 0 0 0-.62 1.178c0 .165-.021.29-.062.372.165-.083.351-.124.558-.124 0 .041-.041.103-.124.186a.7.7 0 0 1-.062.496c-.083.165-.062.29.062.372a.522.522 0 0 0 .434.062c.165-.083.31-.083.434 0 .083 0 .103.02.062.062h-.372c-.041-.041-.021-.083.062-.124.248 0 .413.062.496.186l.434-.062-.062.062h-.062c.041 0 .207-.02.496-.062.331-.041.744-.062 1.24-.062.537-.041.909-.041 1.116 0 0 .124.062.207.186.248.165.041.227.124.186.248 0 .248.062.434.186.558l.372.372c.165.083.31.186.434.31s.165.29.124.496c-.455.083-.827.207-1.116.372-.289.124-.661.145-1.116.062a.31.31 0 0 0-.372 0c-.083.041-.186.145-.31.31a4.05 4.05 0 0 0-.372.434.599.599 0 0 1-.31.248 3.804 3.804 0 0 1-.496.062.55.55 0 0 0-.248-.062c-.041-.041-.103-.062-.186-.062s-.248.041-.496.124c-.455.083-.909.145-1.364.186-.455 0-.909.083-1.364.248h-.124c0-.041-.021-.062-.062-.062l-.434.868a29.772 29.772 0 0 0-.62 1.798c-.083.33-.186.682-.31 1.054-.124.33-.227.682-.31 1.054-.041.165-.062.33-.062.496a.994.994 0 0 1-.124.434l-.186.372c-.165.372-.269.579-.31.62-.041 0-.062-.02-.062-.062 0-.083-.021-.103-.062-.062-.041 0-.124.207-.248.62-.124.33-.269.661-.434.992-.124.29-.207.64-.248 1.054-.083.165-.124.33-.124.496 0 .165-.021.31-.062.434-.083.165-.145.33-.186.496-.041.165-.103.31-.186.434 0 .041-.041.103-.124.186 0 .041-.021.083-.062.124v.062a1.3 1.3 0 0 1-.186.682 7.457 7.457 0 0 0-.248.558.55.55 0 0 1-.062.248c0 .041.02.103.062.186 0 .041-.042.145-.124.31 0 .083-.02.145-.062.186a5.488 5.488 0 0 1-.248 1.24 9.81 9.81 0 0 0-.31 1.178l-.124.124c0 .248-.02.413-.062.496l-.124.248-.186.186c-.041.041-.083.165-.124.372l-.124.744v.682a21.93 21.93 0 0 0-.124.682c-.041.207-.124.351-.248.434-.29.083-.434-.062-.434-.434a1.073 1.073 0 0 1-.062-.62 1.884 1.884 0 0 0 0-.682v-.186c.041-.041.062-.103.062-.186l.124-.062a1.994 1.994 0 0 1-.062 1.612c.082 0 .144-.02.186-.062a.724.724 0 0 1 .186-.124.42.42 0 0 1-.124-.31v-.248c.041-.124.062-.227.062-.31v-.558c0-.207.02-.413.062-.62a3.502 3.502 0 0 1 0-.93c.041-.29.082-.6.124-.93v-.124c0-.207-.041-.33-.124-.372-.083-.041-.145 0-.186.124a.42.42 0 0 1-.124.31c0 .455-.083.744-.248.868h-.124c0 .29-.02.455-.062.496l-.062-.062a1.328 1.328 0 0 0-.248-.31c-.083-.124-.186-.186-.31-.186v-.062c-.083-.083-.124-.227-.124-.434-.083-.165-.145-.124-.186.124-.041.248-.145.393-.31.434-.041 0-.062.041-.062.124-.207.207-.33.227-.372.062a1.567 1.567 0 0 1 0-.62c.041-.661.103-1.323.186-1.984.124-.661.29-1.281.496-1.86a1 1 0 0 1 .124-.434l.062-.124c.124-.703.227-1.199.31-1.488.082-.29.145-.517.186-.682.082-.207.186-.434.31-.682.124-.29.29-.765.496-1.426.082-.207.144-.434.186-.682.083-.29.145-.558.186-.806l.124-.434c.29-.785.579-1.55.868-2.294.29-.744.578-1.53.868-2.356l-.434.124c0-.124-.02-.207-.062-.248-.042-.207-.124-.31-.248-.31h-.372a1.889 1.889 0 0 0-.682 0c-.207 0-.413.02-.62.062-.372.413-.744.475-1.116.186-.29-.248-.29-.64 0-1.178-.372-.041-.744 0-1.116.124-.372.124-.724 0-1.054-.372-.041-.083-.062-.227-.062-.434.041-.124.062-.227.062-.31.041-.124.145-.165.31-.124l.124.062.868-.124v-.062Zm17.794-14.012c.041 0 .083-.02.124-.062-.165 0-.31.02-.434.062h.31ZM98.182 36.89c0 .083-.02.145-.062.186 0 .041.02.103.062.186v-.372Zm16.182-28.644c.083-.041.083-.062 0-.062v.062ZM96.88 36.952h-.062v.062l.062-.062Z" fill="url(#f)"/><defs><linearGradient id="a" x1="33.065" y1="-8.748" x2="91.597" y2="52.61" gradientUnits="userSpaceOnUse"><stop stop-color="#FF4040"/><stop offset=".448" stop-color="#FF6363"/><stop offset=".804" stop-color="#FF9417"/></linearGradient><linearGradient id="b" x1="33.065" y1="-8.748" x2="91.597" y2="52.61" gradientUnits="userSpaceOnUse"><stop stop-color="#FF4040"/><stop offset=".448" stop-color="#FF6363"/><stop offset=".804" stop-color="#FF9417"/></linearGradient><linearGradient id="c" x1="33.065" y1="-8.748" x2="91.597" y2="52.61" gradientUnits="userSpaceOnUse"><stop stop-color="#FF4040"/><stop offset=".448" stop-color="#FF6363"/><stop offset=".804" stop-color="#FF9417"/></linearGradient><linearGradient id="d" x1="33.065" y1="-8.748" x2="91.597" y2="52.61" gradientUnits="userSpaceOnUse"><stop stop-color="#FF4040"/><stop offset=".448" stop-color="#FF6363"/><stop offset=".804" stop-color="#FF9417"/></linearGradient><linearGradient id="e" x1="33.065" y1="-8.748" x2="91.597" y2="52.61" gradientUnits="userSpaceOnUse"><stop stop-color="#FF4040"/><stop offset=".448" stop-color="#FF6363"/><stop offset=".804" stop-color="#FF9417"/></linearGradient><linearGradient id="f" x1="33.065" y1="-8.748" x2="91.597" y2="52.61" gradientUnits="userSpaceOnUse"><stop stop-color="#FF4040"/><stop offset=".448" stop-color="#FF6363"/><stop offset=".804" stop-color="#FF9417"/></linearGradient></defs></svg>