<svg width="202" height="63" fill="none" xmlns="http://www.w3.org/2000/svg"><path d="M30.362 14.288c.063.501.063.971 0 1.41a6.99 6.99 0 0 1-.282 1.222c-.125.376-.25.815-.376 1.316-.125.25-.25.627-.376 1.128-.313.69-.595 1.347-.846 1.974-.25.627-.501 1.285-.752 1.974a36.025 36.025 0 0 1-1.034 2.256l-.94 2.068c-.313.439-.564 1.034-.752 1.786-.125.125-.22.25-.282.376-.063.125-.157.25-.282.376a1746.023 1746.023 0 0 1-2.82 4.136 66.255 66.255 0 0 1-2.726 3.948 44.993 44.993 0 0 1-1.504 1.786 7.237 7.237 0 0 0-1.128 1.786c-.25.313-.47.595-.658.846-.188.25-.376.533-.564.846a9.916 9.916 0 0 1-.564.846c-.188.25-.407.47-.658.658-.063.125-.125.22-.188.282-.063 0-.125.031-.188.094l-.376.282a2.254 2.254 0 0 1-.752 1.128l-.94.94a1.18 1.18 0 0 0-.282.47c0 .125-.063.282-.188.47l-.188.188c0 .063-.031.125-.094.188l-.188.282c-.25.439-.564.846-.94 1.222-.313.376-.627.72-.94 1.034H9.4c1.755-.063 3.29-.188 4.606-.376 1.316-.188 2.57-.22 3.76-.094H18.612a12.341 12.341 0 0 1 2.632.094c.877.063 1.849.188 2.914.376.313.063.564.157.752.282.188.125.063.313-.376.564-.063-.063-.157-.094-.282-.094-.125.313.094.658.658 1.034.125.063.25.157.376.282 0 .376-.125.595-.376.658-.188.063-.627-.031-1.316-.282v.188a1.159 1.159 0 0 1-.658.188 2.082 2.082 0 0 0-.658-.094h-.47c-.188 0-.313.063-.376.188.063.125.157.157.282.094.188-.063.345-.063.47 0 .063.063.22.094.47.094a.72.72 0 0 0 .282.094.72.72 0 0 1 .282.094c.063 0 .125.031.188.094h.188c.376.125.783.282 1.222.47.439.125.815.25 1.128.376l.188.564c-1.253 0-2.475-.125-3.666-.376-.063 0-.125.031-.188.094h-.094c-.564 0-1.128.031-1.692.094-.501 0-1.097-.063-1.786-.188H18.048c-.063-.063-.157-.094-.282-.094a.72.72 0 0 1-.282-.094l-.94.188a1.625 1.625 0 0 1-.94-.094.834.834 0 0 1-.376.094c-.063 0-.125.031-.188.094h-.094c-.188.063-.595.094-1.222.094h-.752c-.25-.063-.47-.063-.658 0a4.671 4.671 0 0 0-1.598-.094c-.439.063-.909.125-1.41.188-.188 0-.564-.031-1.128-.094-.501-.063-1.034-.125-1.598-.188-.25 0-.47.031-.658.094a1.773 1.773 0 0 1-.564.094 2.57 2.57 0 0 1-.564-.094c-.188-.125-.439-.157-.752-.094h-.188c0 .125-.094.282-.282.47l-.094.094-.094.094-.094.094-.752-.376v-.188c-.627.125-1.065.188-1.316.188a.834.834 0 0 0-.376.094l-.282-.282a3.645 3.645 0 0 1-.188-.47.72.72 0 0 0-.282-.094h.094c.063.063.125.094.188.094-.125-.313-.188-.846-.188-1.598-.125-.063-.188-.188-.188-.376.063-.25.188-.501.376-.752v-.094a2.535 2.535 0 0 1 .846-1.41c.501-.877.971-1.692 1.41-2.444a20.228 20.228 0 0 1 1.692-2.35c.125-.125.188-.22.188-.282l.282-.282.282-.282c1.504-2.319 2.945-4.387 4.324-6.204a225.387 225.387 0 0 0 4.512-6.11 9.27 9.27 0 0 0 .752-1.222c.25-.439.47-.877.658-1.316.125-.125.22-.25.282-.376.125-.188.22-.345.282-.47a40.38 40.38 0 0 0 1.41-2.068c.501-.752.971-1.473 1.41-2.162.501-.752.94-1.473 1.316-2.162.439-.752.815-1.504 1.128-2.256a18.2 18.2 0 0 0 .846-1.504c.25-.564.501-1.097.752-1.598.376-1.065.658-2.068.846-3.008.063-.188.063-.313 0-.376 0-.125.031-.22.094-.282v-.282a.72.72 0 0 0 .094-.282.72.72 0 0 1-.094-.282.72.72 0 0 0-.094-.282l-.094-.188v-.094a1.095 1.095 0 0 0-.188-.282c-.063-.063-.094-.157-.094-.282a.834.834 0 0 0-.376-.094 1.474 1.474 0 0 1-.376-.282v.094c-.501-.188-1.285-.282-2.35-.282-.125 0-.22.031-.282.094h-.47c-.313 0-.533.031-.658.094-.376 0-.627.031-.752.094H17.672c-.063.063-.125.094-.188.094s-.094.031-.094.094h-.094c-.125 0-.188.031-.188.094-.125 0-.22.031-.282.094 0 .063-.031.094-.094.094h-.188a1.18 1.18 0 0 1-.47.282c-.125 0-.282.063-.47.188l-.47.47c-.188.125-.407.125-.658 0l2.632-1.222-.564.376c-.439.188-.846.376-1.222.564-.376.188-.72.47-1.034.846l-.658.376-.658.658a3.05 3.05 0 0 0-1.41.564 8.464 8.464 0 0 1-1.222.846c-.063.063-.094.125-.094.188a2.392 2.392 0 0 1-.564.564 3.733 3.733 0 0 1-.564.47c-.313.313-.72.564-1.222.752-.439.188-.815.533-1.128 1.034-.313 0-.72.063-1.222.188-.439.125-.658-.031-.658-.47.063-.313.188-.595.376-.846l.846-.846.188-.376.094-.094c0-.125-.094-.157-.282-.094a2.57 2.57 0 0 1-.564-.094l-.376.188c-.25-.313.063-.627.94-.94v-.094l.376-.376a3.08 3.08 0 0 0 .47-.376c.188-.125.25-.22.188-.282-.125-.125-.22-.157-.282-.094a1.094 1.094 0 0 1-.282.188l-.282.282c-.125.125-.282.157-.47.094h-.094l-.094.094c-.313.125-.501.188-.564.188-.063-.063.125-.407.564-1.034v-.094c-.501.188-.815.22-.94.094-.063-.188.188-.533.752-1.034.376-.501.783-1.034 1.222-1.598a4.622 4.622 0 0 1 1.598-1.316c.313-.313.595-.533.846-.658a4.37 4.37 0 0 0 .846-.658l.282-.282c.125-.125.25-.188.376-.188a1.18 1.18 0 0 0 .47-.282c.501-.501 1.16-.94 1.974-1.316a.841.841 0 0 1 .564-.47c.063-.125.157-.157.282-.094.188.063.345.031.47-.094.25-.313.69-.564 1.316-.752a17.06 17.06 0 0 1 1.598-.564c.25 0 .439-.063.564-.188l.188-.094a.721.721 0 0 0 .282-.094c.188-.125.125-.157-.188-.094-.25.063-.564.157-.94.282-.313.125-.595.25-.846.376-.25.125-.282.157-.094.094l.846-.282c.376-.125.69-.188.94-.188.063-.063.188-.094.376-.094h.376c.188-.063.439-.094.752-.094s.564.031.752.094h.752c.25.063.376.063.376 0 .063-.125.22-.157.47-.094h.47c.125 0 .188.031.188.094h.282c.125.063.25.094.376.094.188 0 .345.031.47.094.063-.063.188-.063.376 0s.345.094.47.094h.846c0 .063.125.094.376.094a.638.638 0 0 0 .47.188c.501.25.909.564 1.222.94.376.376.72.783 1.034 1.222.125.125.22.25.282.376.063.125.157.25.282.376l.188.188v.282l.188.47c.125.188.22.376.282.564.063.125.094.282.094.47l.282.47v.282c.063.063.094.157.094.282v.47c.063.188.094.47.094.846.063.188.094.47.094.846v.094Zm-6.674 39.104h-.094.094Z" fill="url(#a)"/><path d="M53.539 10.34a.72.72 0 0 0-.282.094h-.282c.063.125.063.22 0 .282.125.063.22.125.282.188l.376.188c0-.063.031-.094.094-.094.063.313.094.595.094.846v.846c-.25.125-.439.25-.564.376-.125.188-.22.407-.282.658a.906.906 0 0 1-.376.47c-.125.125-.188.25-.188.376 0 .063-.063.157-.188.282-.126.501-.22.971-.282 1.41 0 .439-.25.846-.752 1.222.125.125.157.282.094.47s-.032.345.094.47a4.135 4.135 0 0 0-.658 1.41c-.063.439-.25.846-.564 1.222-.439.501-.72 1.034-.846 1.598l-.376 1.504c0 .188-.063.376-.188.564-.063.125-.094.313-.094.564.125.313.063.595-.188.846a2.508 2.508 0 0 0-.47.658c-.063 0-.094.031-.094.094.125 0 .25.031.376.094h.47c.25 0 .47-.031.658-.094.188-.063.376-.094.564-.094.125 0 .25.031.376.094.188.063.407.094.658.094.501-.125.94-.188 1.316-.188.313-.063.595-.094.846-.094.313-.063.595-.125.846-.188.188 0 .407.25.658.752.25.501.438 1.065.564 1.692.188.564.22 1.128.094 1.692-.063.501-.345.783-.846.846-.188 0-.376.031-.564.094a2.76 2.76 0 0 1-.658-.094c-.188-.125-.47-.157-.846-.094h-.846a2.86 2.86 0 0 1-1.034 0c-.376-.063-.815-.063-1.316 0-.126 0-.188-.031-.188-.094s-.063-.094-.188-.094h-.94c-.502 0-.909.031-1.222.094 0 .063-.032.125-.094.188l.094.188c-.126.125-.22.282-.282.47a4.615 4.615 0 0 1-.282.47l-.188.188a.72.72 0 0 0-.094.282.722.722 0 0 1-.094.282c.063.063.063.125 0 .188s-.094.125-.094.188c-.063 0-.094.031-.094.094-.126.25-.25.439-.376.564-.063.376-.094.72-.094 1.034 0 .313-.063.658-.188 1.034-.376.376-.564.94-.564 1.692-.125.313-.25.658-.376 1.034a1.896 1.896 0 0 0-.094 1.034c.063.25-.032.564-.282.94.125.125.125.25 0 .376-.25.877-.502 1.723-.752 2.538l-.564 2.444c-.126.376-.25.72-.376 1.034a2.759 2.759 0 0 0-.188 1.034c-.063.25-.094.595-.094 1.034-.126.125-.157.282-.094.47.063.125.031.25-.094.376-.25.125-.345.188-.282.188v.188c0 .25-.063.47-.188.658a2.375 2.375 0 0 1-.282.564c0 .188.125.345.376.47-.063.125-.157.25-.282.376-.063.063-.094.125-.094.188.125.439.094.846-.094 1.222-.126.376-.25.783-.376 1.222.063 0 .031.063-.094.188.125.439-.032.658-.47.658-.376 0-.627-.094-.752-.282 0-.063.031-.125.094-.188l-.188-.094a.637.637 0 0 1-.188-.47c.063-.063.063-.188 0-.376 0-.313-.126-.501-.376-.564-.125-.063-.188-.031-.188.094a.722.722 0 0 1-.094.282c0 .439-.094.752-.282.94-.063 0-.125-.031-.188-.094.125.501.156.846.094 1.034-.063.125-.313.157-.752.094-.126-.063-.188-.188-.188-.376a6.133 6.133 0 0 1-.658-.564c-.188-.188-.407-.25-.658-.188l.094.188c-.313.188-.69.188-1.128 0-.376-.188-.564-.407-.564-.658a21.822 21.822 0 0 1-.094-1.974c0-.69.063-1.316.188-1.88-.126-.188-.094-.345.094-.47l.094-.094c.125-1.441.407-2.82.846-4.136a39.962 39.962 0 0 0 1.222-3.948v-.846c.063-.25.094-.501.094-.752 0-.188.094-.376.282-.564.188-.752.376-1.535.564-2.35.25-.815.501-1.66.752-2.538a5.391 5.391 0 0 0 .564-1.88 9.11 9.11 0 0 1 .658-1.974h-.376c-.815.063-1.504.063-2.068 0-.502-.125-1.19-.25-2.068-.376a18.328 18.328 0 0 1-.846-.188c-.188-.125-.157-.282.094-.47h.282c.063-.376-.188-.72-.752-1.034-.25 0-.376-.063-.376-.188-.188-.564.25-.69 1.316-.376 0-.063-.031-.125-.094-.188.313-.125.72-.125 1.222 0h.376c.125 0 .22-.063.282-.188 0-.125-.094-.188-.282-.188l-.376-.188h-.376c-.063-.063-.126-.094-.188-.094h-.282c-.063-.063-.157-.094-.282-.094-.063-.063-.125-.094-.188-.094h-.188a3.55 3.55 0 0 0-1.128-.188 17.18 17.18 0 0 1-1.316-.282l-.094-.752c1.065 0 2.13.094 3.196.282h.094c.063-.063.125-.094.188-.094h1.598a4.671 4.671 0 0 1 1.598.094h.188c.063-.063.188-.094.376-.094.25.125.47.188.658.188.25-.063.376-.125.376-.188s.157-.031.47.094l.188-.094c.125 0 .22-.031.282-.094h.282c-.25-.125-.314-.25-.188-.376.125-.188.25-.345.376-.47.501-1.63.971-2.945 1.41-3.948.501-1.003.846-1.974 1.034-2.914.188-.125.282-.313.282-.564.501-1.065.877-2.287 1.128-3.666.25-1.379.658-2.695 1.222-3.948-.439 0-.72.031-.846.094-.126 0-.407.063-.846.188-.25.063-.282.094-.094.094.25 0 .25.031 0 .094s-.439.125-.564.188c-.063 0-.22-.031-.47-.094H42.54a3.55 3.55 0 0 1-1.128.188h-.94a3.651 3.651 0 0 1-.47.188c-.126 0-.22.031-.282.094h-.47c-.063 0-.125.031-.188.094h-.094a9.996 9.996 0 0 1-1.88.376c-.627.063-1.253.157-1.88.282h-.282c0-.063-.032-.094-.094-.094-.627.188-1.16.313-1.598.376-.376 0-.313-.345.188-1.034 0-.063.031-.094.094-.094s.125-.031.188-.094a.72.72 0 0 1 .282-.094.834.834 0 0 1 .376-.094c.25-.125.438-.188.564-.188.376-.25.564-.407.564-.47-.063-.125-.188-.157-.376-.094h-.47l-.752.188c-.188.063-.407.063-.658 0l-.188-.188c-.69.313-1.19.47-1.504.47a.841.841 0 0 1-.564-.47c0-.125.157-.25.47-.376.125-.125.25-.282.376-.47.125-.188.125-.345 0-.47h-.282c-.502-.125-.658-.25-.47-.376a4.17 4.17 0 0 1 .752-.376c.94-.313 1.88-.564 2.82-.752.94-.25 1.942-.439 3.008-.564.188-.063.407-.094.658-.094h.282a49.309 49.309 0 0 1 6.204-1.128c2.13-.313 4.293-.595 6.486-.846.376.313.72.627 1.034.94.376.313.69.658.94 1.034l.282 2.82Zm-20.774.094h-.094.094Zm3.76 45.12-.094-.094.094.094Zm6.58-16.45c.063 0 .125.031.188.094l-.094-.094h-.094Z" fill="url(#b)"/><path d="M68.025 13.066c.063.125.094.282.094.47v.376c.063.125.094.25.094.376v.376c.126.25.094.533-.094.846v.188l-.094.188v.376c.063.125.031.282-.094.47-.063-.439-.094-.69-.094-.752v-.094l.188.188c.063 0 .157-.063.282-.188l-.094.188c-.063.188-.125.313-.188.376v.282c.063.125.031.282-.094.47s-.188.345-.188.47-.063.22-.188.282c0 .125-.031.188-.094.188s-.094.031-.094.094c-.125.063-.188.125-.188.188s-.063.157-.188.282c-.063 0-.094.031-.094.094s-.063.094-.188.094v.094l-.094.376-.094.094h-.094a1.64 1.64 0 0 1-.47.846l-.846.564-.658.658c-.25.125-.439.188-.564.188-.125 0-.282.063-.47.188-.25.125-.658.188-1.222.188l-.094.094h-.564l-.376-.094H60.693c-.125 0-.188-.031-.188-.094l-.282-.094-.282-.188-.282-.188-.282-.376c-.125 0-.188-.031-.188-.094v-.094c0-.063-.063-.157-.188-.282l-.094-.188h-.188l-.094-.376-.188-.094V19.458c-.188-.439-.282-.846-.282-1.222-.188-.877-.188-1.66 0-2.35 0-.501.094-.846.282-1.034v-.47c.063-.188.094-.345.094-.47s.032-.188.094-.188c.063-.063.094-.157.094-.282-.125.877-.345 1.441-.658 1.692-.25.188-.22.157.094-.094l.094-.188v-.094c0-.063.094-.188.282-.376 0-.125.032-.188.094-.188.063-.063.094-.157.094-.282l.094-.188c.125 0 .188-.031.188-.094v-.094c.063 0 .094-.031.094-.094l.094-.094v-.188c.25-.376.47-.69.658-.94l.376-.376.376-.376.188-.188c.188-.125.345-.22.47-.282a1.18 1.18 0 0 1 .47-.282l.094-.188.094-.094c0-.063.032-.125.094-.188h.094c.25 0 .376-.031.376-.094.126 0 .25-.031.376-.094l.564-.188h.188c.063-.063.157-.094.282-.094h.094l.188-.094c.627-.125 1.034-.094 1.222.094.188.063.282.125.282.188l.188.188.376.188c.188.063.376.22.564.47l.376.282c0 .125.031.22.094.282.063 0 .126.063.188.188.063.125.094.22.094.282.063 0 .125.063.188.188l.094.376c0 .188.031.282.094.282v.188c.063 0 .094.063.094.188Zm-3.76-1.692c-.627.313-1.065.627-1.316.94-.188.25-.438.627-.752 1.128-.125.125-.188.22-.188.282-.125.188-.188.25-.188.188v-.188a.722.722 0 0 0 .094-.282c.063-.063.063.031 0 .282l-.094.376c0 .063-.031.094-.094.094v.188c-.125.063-.188.157-.188.282v.47c0 .188-.031.407-.094.658a1.773 1.773 0 0 0-.094.564v.564c.063.125.094.282.094.47l.094.188c0 .25.063.501.188.752l.094.188v.188c.126 0 .188.063.188.188H62.291c0 .063.032.094.094.094h.47l.188-.094c.25 0 .439-.063.564-.188h.094c.126-.125.25-.188.376-.188l.282-.376.188-.282c.188 0 .282-.094.282-.282.314-.313.533-.627.658-.94.188-.376.407-.752.658-1.128.063-.125.032-.157-.094-.094-.125 0-.125-.094 0-.282.063-.25.126-.47.188-.658.063-.25.094-.439.094-.564l-.188.846V13.724c0-.125.032-.25.094-.376.063-.188.031-.345-.094-.47 0-.125-.031-.22-.094-.282v-.47a1.47 1.47 0 0 1-.282-.376h-.188c-.063 0-.125-.031-.188-.094l-.282-.094c-.125-.125-.22-.188-.282-.188l-.188-.094-.376.094Zm10.152-8.46c.314-1.065.564-1.66.752-1.786.188-.125.533.157 1.034.846.126.125.313.282.564.47.314.125.533.094.658-.094.439-.815.752-1.316.94-1.504.25-.25.72-.533 1.41-.846.564.125.846.783.846 1.974.063 1.19-.22 2.851-.846 4.982l-.094.94c0 .063-.031.125-.094.188l-.094.094-.188.752c0 .188-.063.501-.188.94-.063.439-.157.909-.282 1.41l-.376 1.316-.282.846c.063 0 .125-.031.188-.094.063-.125.032 0-.094.376-.125.188-.25.407-.376.658a.87.87 0 0 0 0 .564c-.125.125-.188.063-.188-.188a9.747 9.747 0 0 1-.658 1.786 20.559 20.559 0 0 0-.564 1.786l-1.692 5.734c-.063.376-.125.783-.188 1.222-.063.439-.25.846-.564 1.222 0 .125-.063.25-.188.376a1.046 1.046 0 0 0-.094.47c-.439 1.065-.658 1.66-.658 1.786 0 .063.031.063.094 0 .126-.125.188-.125.188 0s-.188.752-.564 1.88a74.392 74.392 0 0 1-.94 2.82c-.25.815-.47 1.755-.658 2.82 0 .188-.094.533-.282 1.034-.125.439-.282.94-.47 1.504a13.862 13.862 0 0 1-.47 1.504l-.282 1.128-.752 2.35-1.598 4.888v-.564c0-.188-.031-.345-.094-.47v-.282c-.063.376-.063.658 0 .846.063.125.094.25.094.376.063.063.094.157.094.282.063.125.032.313-.094.564-.25.501-.47 1.034-.658 1.598 0 .125-.063.22-.188.282-.063.063-.094.157-.094.282-.063.063-.094.125-.094.188v.094a7.726 7.726 0 0 1-.658 3.572 15.818 15.818 0 0 0-.94 3.102v.376c-.313.752-.752.971-1.316.658-.501-.313-.783-.909-.846-1.786-.063-.063-.125.031-.188.282 0 .25-.031.533-.094.846v.846-.282c.063-.25.094-.533.094-.846.063-.313.094-.595.094-.846l.094-.376v-.376c.063.063.094.188.094.376 0 .125-.031.282-.094.47v.094c-.125 0-.25.188-.376.564-.063.313-.125.658-.188 1.034-.063.188-.094.25-.094.188v-.846h-.282c-.25.501-.407.72-.47.658 0-.063-.282-.157-.846-.282-.125-.313-.188-.533-.188-.658v-.47c-.063-.188-.125-.25-.188-.188-.063 0-.125.063-.188.188a3.63 3.63 0 0 0-.188.47.615.615 0 0 1-.282.282l-.282.47c-.125.188-.282.157-.47-.094-.188-.25-.282-.69-.282-1.316.313-.877.627-2.005.94-3.384l1.128-4.324c.376-1.504.752-2.945 1.128-4.324.376-1.379.72-2.507 1.034-3.384.063-.25.094-.439.094-.564l.188-.564a178.21 178.21 0 0 1 1.034-3.196l1.034-3.102c.314-1.003.564-1.88.752-2.632.25-.815.439-1.379.564-1.692.126-.627.282-1.285.47-1.974.188-.69.314-1.379.376-2.068.126-.188.157-.376.094-.564 0-.188.032-.47.094-.846.69-1.943 1.316-3.885 1.88-5.828a386.134 386.134 0 0 0 1.88-6.204h-.188l2.162-7.238c.063-.188.126-.407.188-.658.063-.25.188-.533.376-.846.063-.188.126-.345.188-.47.063-.125.094-.282.094-.47l.282-.282c.126-.125.25-.345.376-.658v-.188Zm7.614 35.72c.063.125.094.282.094.47v.376c.063.125.094.25.094.376v.376c.126.25.094.533-.094.846v.188l-.094.188v.376c.063.125.031.282-.094.47-.063-.439-.094-.69-.094-.752v-.094l.188.188c.063 0 .157-.063.282-.188l-.094.188c-.063.188-.125.313-.188.376v.282c.063.125.031.282-.094.47s-.188.345-.188.47-.063.22-.188.282c0 .125-.031.188-.094.188s-.094.031-.094.094c-.125.063-.188.125-.188.188s-.063.157-.188.282c-.063 0-.094.031-.094.094s-.063.094-.188.094v.094l-.094.376-.094.094h-.094a1.64 1.64 0 0 1-.47.846l-.846.564-.658.658c-.25.125-.439.188-.564.188-.125 0-.282.063-.47.188-.25.125-.658.188-1.222.188l-.094.094h-.564l-.376-.094H74.7c-.125 0-.188-.031-.188-.094l-.282-.094-.282-.188-.282-.188-.282-.376c-.125 0-.188-.031-.188-.094v-.094c0-.063-.063-.157-.188-.282l-.094-.188h-.188l-.094-.376-.188-.094V45.026c-.188-.439-.282-.846-.282-1.222-.188-.877-.188-1.66 0-2.35 0-.501.094-.846.282-1.034v-.47c.063-.188.094-.345.094-.47s.031-.188.094-.188c.063-.063.094-.157.094-.282-.125.877-.344 1.441-.658 1.692-.25.188-.22.157.094-.094l.094-.188v-.094c0-.063.094-.188.282-.376 0-.125.031-.188.094-.188.063-.063.094-.157.094-.282l.094-.188c.126 0 .188-.031.188-.094v-.094c.063 0 .094-.031.094-.094l.094-.094v-.188c.25-.376.47-.69.658-.94l.376-.376.376-.376.188-.188c.188-.125.345-.22.47-.282a1.18 1.18 0 0 1 .47-.282l.094-.188.094-.094c0-.063.031-.125.094-.188h.094c.25 0 .376-.031.376-.094.126 0 .25-.031.376-.094l.564-.188h.188c.063-.063.157-.094.282-.094h.094l.188-.094c.627-.125 1.034-.094 1.222.094.188.063.282.125.282.188l.188.188.376.188c.188.063.376.22.564.47l.376.282c0 .125.031.22.094.282.063 0 .126.063.188.188.063.125.094.22.094.282.063 0 .125.063.188.188l.094.376c0 .188.031.282.094.282v.188c.063 0 .094.063.094.188Zm-3.76-1.692c-.627.313-1.065.627-1.316.94-.188.25-.439.627-.752 1.128-.125.125-.188.22-.188.282-.125.188-.188.25-.188.188v-.188a.722.722 0 0 0 .094-.282c.063-.063.063.031 0 .282l-.094.376c0 .063-.031.094-.094.094v.188c-.125.063-.188.157-.188.282v.47c0 .188-.031.407-.094.658a1.773 1.773 0 0 0-.094.564v.564c.063.125.094.282.094.47l.094.188c0 .25.063.501.188.752l.094.188v.188c.126 0 .188.063.188.188H76.297c0 .063.032.094.094.094h.47l.188-.094c.25 0 .439-.063.564-.188h.094c.126-.125.25-.188.376-.188l.282-.376.188-.282c.188 0 .282-.094.282-.282.314-.313.533-.627.658-.94.188-.376.407-.752.658-1.128.063-.125.032-.157-.094-.094-.125 0-.125-.094 0-.282.063-.25.126-.47.188-.658.063-.25.094-.439.094-.564l-.188.846V39.292c0-.125.032-.25.094-.376.063-.188.031-.345-.094-.47 0-.125-.031-.22-.094-.282v-.47a1.47 1.47 0 0 1-.282-.376h-.188c-.063 0-.125-.031-.188-.094l-.282-.094c-.125-.125-.22-.188-.282-.188l-.188-.094-.376.094Z" fill="url(#c)"/><path d="M122.857 13.818c-.063.125-.251-.125-.564-.752 0 .125-.063.063-.188-.188l-.282-.282c0-.125-.063-.25-.188-.376a3.02 3.02 0 0 1-.376-.47l-.376-.564c-.063-.125-.126-.188-.188-.188a1.07 1.07 0 0 1-.188-.282l-.094-.282-.376-.376a1.442 1.442 0 0 1-.282-.376c.062.125.094.25.094.376 0 .125.062.345.188.658.188.501.25.783.188.846 0 .063-.157 0-.47-.188l-.282-.282a1.489 1.489 0 0 0-.282-.376c-.063-.125-.126-.188-.188-.188a.733.733 0 0 0-.094-.282c-.126-.125-.188-.22-.188-.282h-.094c-.126.125-.345.031-.658-.282a1.185 1.185 0 0 0-.47-.282l-.376-.376a1.456 1.456 0 0 1-.376-.282c-.126 0-.251-.063-.376-.188 0 .125-.063.188-.188.188-.063 0-.126.031-.188.094h-.094a.639.639 0 0 1-.47.188 1.048 1.048 0 0 0-.47-.094c-.502 0-.784.063-.846.188-.063.063-.126.094-.188.094a2.21 2.21 0 0 1-.564.376c-.126.125-.502.188-1.128.188-.502.125-.815.22-.94.282l-.282.188a.728.728 0 0 1-.282.094l-.188.094a1.457 1.457 0 0 0-.376.282c-.063.063-.188.125-.376.188-.126.125-.251.22-.376.282-.063 0-.126.063-.188.188-.188.125-.345.22-.47.282-.063 0-.157.063-.282.188l-2.632 2.068a35.485 35.485 0 0 0-2.444 2.068c-.063.063-.126.094-.188.094l-.094.094a1.457 1.457 0 0 0-.376.282l-.282.282c0 .063-.094.188-.282.376 0 .063-.032.094-.094.094v.094c-.251.313-.47.658-.658 1.034a5.84 5.84 0 0 1-.658 1.034c-.627 1.504-1.567 2.851-2.82 4.042-.627.564-1.066 1.16-1.317 1.786a10.48 10.48 0 0 0-.751 1.41c-.189.439-.408.909-.659 1.41a3.311 3.311 0 0 0-.846 1.974v.188c-.125.125-.219.25-.281.376 0 .125-.063.25-.189.376l-.376.94c-.062.25-.156.533-.282.846v.282a.722.722 0 0 0-.093.282l-.095.188c-.062.313-.125.595-.188.846-.062.188-.156.439-.282.752l-.188.376c0 .125-.03.25-.094.376v-.094.094h.094c-.125.815-.219 1.63-.282 2.444V42.77c0 .69.063 1.41.189 2.162 0 .125.062.313.188.564v.188c.062 0 .093.031.093.094v.282c.126 0 .189.063.189.188l.188.282c-.063 0 0 .094.188.282.375.69.783 1.285 1.221 1.786v.094c0 .063.032.125.095.188l.094.094.188.188c.062.125.125.22.188.282.125.063.25.157.376.282l.282.282c.125.063.282.157.47.282l.094.094c.062 0 .093.031.093.094h.188l.283.094a4.5 4.5 0 0 0 1.692.564c.062-.063.125-.094.188-.094h.281c0 .063.032.094.095.094h.94l.282-.094h.47l.282-.094h.094l.094-.094.564-.188h.094c0-.063.031-.094.094-.094l.094-.094c.062-.063.188-.063.376 0h.752c.062-.063.125-.094.188-.094h.094v-.094l.188-.094h.094c.062-.063.125-.094.188-.094.125-.063.219-.125.282-.188a1.07 1.07 0 0 1 .282-.188c.125-.063.219-.125.282-.188a1.07 1.07 0 0 1 .282-.188l.094-.094c.062 0 .125-.031.188-.094l.376-.188.47-.376c.438-.313.846-.627 1.222-.94.376-.313.72-.69 1.034-1.128v-.094c.062-.125.125-.188.188-.188a1.12 1.12 0 0 0 .188-.282c.25-.25.407-.439.47-.564.125-.125.25-.22.376-.282l.376-.376c.25-.376.438-.627.564-.752l.094-.094c.188-.188.407-.533.658-1.034 0-.188.062-.345.188-.47l.282-.564c.125-.125.188-.22.188-.282.125-.313.25-.595.376-.846a2.93 2.93 0 0 1 .564-.752c.188-.188.313-.345.376-.47l.282-.564c.188-.376.407-.69.658-.94l-.094-.188c.188-.564.407-1.097.658-1.598.125-.125.25-.345.376-.658.125-.125.188-.22.188-.282l.188-.376.094-.47c0-.125.062-.25.188-.376l.188-1.222c.125-.376.25-.69.376-.94.125-.501.25-.877.376-1.128h.094v.094c0-.313.125-.658.376-1.034.125-.501.25-.752.376-.752.062-.063.094.157.094.658v-.094c.062-.063.094-.157.094-.282 0-.063-.032-.094-.094-.094v-.47a.843.843 0 0 0 .094-.376c.188-.564.344-1.128.47-1.692.062-.188.094-.439.094-.752s.094-.564.282-.752c.125-.627.219-1.065.282-1.316.125-.627.188-1.097.188-1.41 0-.125.094-.345.282-.658v-.094l.094-.094a9.067 9.067 0 0 1-.188-1.786c0-.564.031-1.16.094-1.786v-.564c-.063-.188-.032-.345.094-.47.125 0 .188.125.188.376l.094.094v.376c.062.063.094.22.094.47l.094.188V19.082c.125-.125.219-.25.282-.376.125-.313.313-.345.564-.094.062.063.094.22.094.47 0 .188-.032.313-.094.376.125 0 .188.125.188.376 0 .188.031.345.094.47v.376c.125 0 .219.031.282.094l.094.188c.188.063.313.25.376.564.062.313.156.501.282.564.062 0 .094.031.094.094l.376.376c.125.125.125.407 0 .846 0 .376-.032.658-.094.846 0 .125-.063.439-.188.94 0 .125-.032.313-.094.564v.564c-.063 1.003-.314 2.225-.752 3.666-.063.063-.094.125-.094.188l-.094.47-.094.282v.094c.062.313.094.783.094 1.41.062.376.031.877-.094 1.504-.188.501-.408.909-.658 1.222-.314.376-.47.783-.47 1.222-.126.125-.251.407-.376.846a1.042 1.042 0 0 0-.094.47c0 .125-.032.282-.094.47-.188.188-.345.501-.47.94l.094.188c-.063.063-.157.22-.282.47-.063.188-.22.533-.47 1.034v.188c-.063 0-.094.031-.094.094v.188l-.188.564c-.126.25-.251.564-.376.94-.063.376-.22.72-.47 1.034-.126.125-.22.282-.282.47-.063.125-.157.25-.282.376 0 .063-.032.094-.094.094v.094c-.063 0-.094.031-.094.094l-.564.94a9.916 9.916 0 0 1-.564.846c-.126.25-.282.47-.47.658a5.976 5.976 0 0 0-.376.658c-.126.125-.22.25-.282.376 0 .063-.063.157-.188.282-.188.188-.282.313-.282.376-.126.125-.22.25-.282.376a1.07 1.07 0 0 0-.188.282l-.188.282c-.188.125-.282.22-.282.282l-.188.188c-.063 0-.126.031-.188.094-.063 0-.094.031-.094.094-.188.188-.314.345-.376.47l-.47.47-.282.282c0 .063-.063.125-.188.188 0 .188-.126.376-.376.564l-.282.282-.188.188-.282.282-.564.282h-.094c0 .125-.032.157-.094.094a131.72 131.72 0 0 0-.752.376h-.094c0 .188-.094.282-.282.282h-.188c-.126.125-.251.188-.376.188a.83.83 0 0 0-.376.094l-.094.094a9.753 9.753 0 0 1-2.35 1.316c-.063.063-.188.094-.376.094l-.094.094-.282.094-.094.094c-.063.063-.314.157-.752.282h-.564a1.048 1.048 0 0 1-.47.094h-.282c-.251.125-.47.22-.658.282l-.376.188h-.188c-.502.125-.878.125-1.129 0-.062-.063-.156-.094-.281-.094h-.282a.834.834 0 0 1-.377-.094h-.47c-.188.063-.47.031-.846-.094l-.093-.094h-.377c0-.063-.03-.094-.093-.094h-.283c0-.063-.03-.094-.094-.094-.125-.063-.313-.094-.563-.094h-.282c-.627-.125-1.034-.282-1.222-.47v-.094l.093-.094a.834.834 0 0 1-.376-.094 1.091 1.091 0 0 0-.282-.188l-.094-.188c-.062-.063-.156-.094-.281-.094a1.097 1.097 0 0 1-.189-.282c-.438-.313-.97-.72-1.597-1.222l-.189-.188s-.03-.063-.093-.188c-.188-.063-.282-.188-.282-.376l-.564-.564a1.092 1.092 0 0 0-.189-.282l-.188-.376a1.092 1.092 0 0 0-.188-.282.72.72 0 0 0-.094-.282c-.125-.125-.188-.22-.188-.282l-.093-.094c.062 0 .062-.157 0-.47a3.085 3.085 0 0 1-.377-.47 14.279 14.279 0 0 0-.281-.752 2.117 2.117 0 0 0-.377-.752l-.188-.376v-.47a6.896 6.896 0 0 0-.281-.752.722.722 0 0 1-.094-.282c0-.063-.032-.125-.094-.188l-.376-2.256a27.75 27.75 0 0 1-.282-2.256v-.846c0-.313.03-.533.094-.658-.189-.564-.157-1.285.093-2.162l.377-2.068.375-2.068a17.03 17.03 0 0 1 1.504-5.076l.94-2.256a11.99 11.99 0 0 1 1.223-2.35c.062-.125.125-.188.188-.188.062-.063.125-.157.188-.282.125-.188.219-.345.282-.47.062-.188.156-.376.282-.564a658.597 658.597 0 0 0 .376-.752c.125-.125.188-.22.188-.282 0-.125.062-.25.188-.376l.281-.376.094-.188c0-.125.032-.188.094-.188l.283-.564v-.094c.564-.94 1.284-1.849 2.162-2.726.125-.125.219-.188.281-.188v-.094a6.385 6.385 0 0 1 1.317-1.88l1.785-1.786v-.094c.126-.125.189-.25.189-.376a3.78 3.78 0 0 0 .47-.564l.47-.47 1.504-1.316c.501-.439.971-.846 1.41-1.222.438-.313.846-.627 1.222-.94a2.786 2.786 0 0 1 1.316-.752h.094a18.018 18.018 0 0 1 2.444-1.598l.282-.188h.188l.094-.094c.188-.125.344-.188.47-.188.188-.063.344-.157.47-.282.313-.125.595-.22.846-.282.313-.063.626-.094.94-.094.814-.063 1.504.031 2.068.282h.094c.062 0 .094.031.094.094h.094c1.566.063 3.008.72 4.324 1.974a9.238 9.238 0 0 1 1.692 1.786 29.882 29.882 0 0 1 1.504 2.068v.376c.188.25.407.627.658 1.128.376.564.501.909.376 1.034Zm-6.956 21.244c0 .125-.063.25-.188.376.125-.125.219-.188.282-.188 0-.25.031-.439.094-.564.062-.063.094-.125.094-.188l-.282.564Zm-3.196 13.818.094-.094h-.094v.094Zm-7.614 2.444c-.188.25-.22.376-.094.376.188-.063.344-.157.47-.282.062 0 .219-.063.47-.188-.063-.063-.063-.188 0-.376-.376.25-.658.407-.846.47Zm-.47 2.256-.376.188a.83.83 0 0 0-.376.094c.062.063.188.094.376.094.313.063.438.188.376.376.125-.063.219-.125.282-.188a1.07 1.07 0 0 1 .282-.188c.188-.063.344-.125.47-.188.125-.125.25-.188.376-.188.188-.25.094-.313-.282-.188-.126 0-.282.031-.47.094a.4.4 0 0 1-.376 0c-.063 0-.094.031-.094.094h-.188Zm-6.204-2.444v.094-.094Zm-4.983-1.88v-.094.094Z" fill="url(#d)"/><path d="M125.091 28.482c.313-.313.626-.501.939-.564.314-.125.627-.031.94.282v-.188c.502-.439.972-.658 1.41-.658.502 0 1.003-.063 1.504-.188a10.136 10.136 0 0 1 1.786-.376c.627-.125 1.223-.25 1.786-.376.189-.063.345-.094.47-.094.189-.063.345-.25.47-.564h.094l.188-.094c.063-.188.126-.345.188-.47l.188-.376h-.188c.063 0 .126-.031.188-.094.376-.94.752-1.849 1.128-2.726.377-.94.721-1.88 1.034-2.82 0-.063.032-.094.095-.094.062-.063.031-.157-.095-.282-.438-.25-.595-.564-.47-.94.126-.376.282-.783.47-1.222 0-.125.032-.25.095-.376.125-.25.25-.47.375-.658.126-.188.157-.439.094-.752-.125-.313-.281-.47-.469-.47l-.377-.188a2.86 2.86 0 0 0-1.034 0c-.376.063-.72.125-1.034.188-.313.376-.626.595-.94.658-.313.063-.563-.063-.752-.376-.25-.313-.344-.627-.282-.94.063-.313.157-.627.282-.94-.501-.063-1.034 0-1.598.188-.564.188-1.096-.063-1.597-.752-.063-.125-.095-.345-.095-.658.126-.564.314-.815.564-.752.063 0 .126.031.188.094l1.504-.188c0-.063-.031-.125-.094-.188.314-.376.596-.627.846-.752.314-.125.627.063.94.564v-.094c.063-.063.094-.125.094-.188.502-.564 1.003-.846 1.504-.846.502 0 1.003-.063 1.504-.188a5.706 5.706 0 0 1 1.692-.47 19.465 19.465 0 0 0 1.881-.282c.188-.063.344-.125.47-.188.188-.125.313-.345.375-.658.126-.376.251-.658.377-.846.25-.376.689-.658 1.315-.846a6.519 6.519 0 0 1 1.88-.282c.627-.063 1.16-.031 1.598.094.502.063.69.188.564.376l.094.094c0 .25-.062.533-.188.846-.125.25-.094.47.094.658.063.125.188.188.376.188.251-.063.533-.125.846-.188-.438 0-.47-.094-.094-.282h.847c.626-.125 1.002-.188 1.127-.188.314.125.784.063 1.41-.188.314-.125.564-.031.752.282h-.093.093c.126-.063.282-.094.47-.094h1.692a15.323 15.323 0 0 1 1.692-.094h.188c.063-.063.157-.094.282-.094.627-.25 1.222-.345 1.786-.282a15.2 15.2 0 0 1 1.786.282c.314 0 .627.031.94.094.376.063.721.25 1.034.564 0 .063-.031.125-.094.188h.094v-.094l.188-.376c.188 0 .345.031.47.094 0-.125.032-.22.094-.282.251-.25.533-.376.846-.376.314-.125.596-.125.846 0 .314.063.627.188.94.376 0 .063.063.094.188.094.251-.063.69-.031 1.316.094.314 0 .533.063.658.188.251 0 .439-.031.564-.094.251.125.533.157.846.094.314-.125.596 0 .846.376a.91.91 0 0 1-.564.376l-.563.188c-.126 0-.282.031-.471.094-.125.063-.25.031-.376-.094-.062 0-.156.063-.282.188-.125.063-.313.094-.564.094-.438-.125-.846-.125-1.222 0a2.313 2.313 0 0 1-1.128.094c-.125 0-.156.063-.094.188.126.063.188.157.188.282a3.66 3.66 0 0 0 1.41.094c.502-.063 1.003 0 1.504.188V9.4l.094-.094-.658-.282c.188-.125.376-.157.564-.094.188.063.345.125.47.188a7.99 7.99 0 0 1 2.444 0c.815.125 1.598.25 2.35.376.251 0 .439.031.564.094.251-.125.47-.157.658-.094.189.063.376.157.564.282.314-.063.596-.094.847-.094.25-.063.532-.094.845-.094.126 0 .314.063.565.188.125-.313.281-.47.469-.47.251 0 .47.031.658.094.564.063 1.097.125 1.599.188a6.612 6.612 0 0 1 1.597.376c.126.063.22.094.282.094.126-.063.22-.063.282 0 .439.125.658.407.658.846-.125.25-.282.407-.47.47a.837.837 0 0 0-.376.094l-.94-.282c-.689.125-1.347.188-1.974.188-.626-.063-1.284-.125-1.973-.188-.251.188-.659.22-1.222.094-.314.313-.564.313-.752 0v-.094h-.095c-.188 0-.375-.031-.564-.094-.125-.063-.282-.031-.47.094h-.658c-.25-.125-.595-.125-1.034 0h-.282l-.47-.188v.188l-1.034.188h-1.033a6.267 6.267 0 0 1-2.163 0 .47.47 0 0 1-.564 0l-.094.094-.188.376c.063 0 .095.031.095.094h.187l1.41.47.095.094c0 .25-.095.407-.283.47v.094h-.752a3.083 3.083 0 0 0-.752-.094h-1.222l-.094.094c-.125.125-.25.188-.376.188-.062-.063-.156-.094-.282-.094-.564 0-.939-.094-1.127-.282h-.095c-.501.188-.971.25-1.41.188a2.35 2.35 0 0 0-1.316 0 4.627 4.627 0 0 0-1.316 0c-.376.063-.783.157-1.222.282-.188 0-.282-.125-.282-.376-.125-.188-.281-.25-.469-.188a.64.64 0 0 1-.471-.188c-.626.063-1.284.157-1.973.282a19.49 19.49 0 0 0-1.881.282c.251 0 .439.031.564.094h.282a2.76 2.76 0 0 1-1.034.188 6.319 6.319 0 0 0-1.034-.094c-.501.125-1.034.22-1.598.282-.564.063-1.096.125-1.598.188l-1.504.188c-.438 0-.908.063-1.41.188-.125 0-.219-.063-.282-.188v-.094c-.188.439-.376.846-.564 1.222a3.976 3.976 0 0 0-.376 1.222c-.062.501-.219.94-.47 1.316-.188.313-.375.627-.564.94l-.281.658v.282a5.864 5.864 0 0 1-.753 2.068c-.313.564-.626 1.16-.94 1.786 0 .25-.031.439-.094.564.251-.125.533-.188.846-.188 0 .063-.062.157-.188.282.063.25.032.501-.093.752-.126.25-.095.439.093.564.188.125.408.157.658.094.251-.125.47-.125.658 0 .126 0 .157.031.094.094H142.668c-.062-.063-.031-.125.094-.188.377 0 .627.094.752.282l.659-.094-.095.094h-.094c.063 0 .314-.031.752-.094a15.588 15.588 0 0 1 1.88-.094c.815-.063 1.379-.063 1.692 0 0 .188.094.313.282.376.251.063.345.188.282.376 0 .376.094.658.282.846l.564.564c.251.125.47.282.658.47.188.188.251.439.188.752-.689.125-1.253.313-1.692.564-.438.188-1.002.22-1.692.094a.47.47 0 0 0-.564 0c-.125.063-.281.22-.47.47a6.133 6.133 0 0 0-.564.658.905.905 0 0 1-.47.376c-.376.063-.626.094-.752.094a.83.83 0 0 0-.376-.094c-.062-.063-.156-.094-.282-.094-.125 0-.375.063-.751.188-.69.125-1.379.22-2.069.282a6.02 6.02 0 0 0-2.068.376h-.188c0-.063-.031-.094-.094-.094l-.658 1.316a45.845 45.845 0 0 0-.94 2.726 21.616 21.616 0 0 1-.47 1.598 11.994 11.994 0 0 0-.47 1.598c-.062.25-.094.501-.094.752 0 .188-.062.407-.188.658l-.282.564c-.25.564-.407.877-.47.94-.062 0-.094-.031-.094-.094 0-.125-.031-.157-.094-.094-.062 0-.187.313-.376.94a15.573 15.573 0 0 1-.658 1.504c-.188.439-.313.971-.376 1.598-.125.25-.188.501-.188.752 0 .25-.031.47-.094.658-.125.25-.219.501-.282.752-.062.25-.156.47-.282.658 0 .063-.062.157-.188.282 0 .063-.031.125-.094.188v.094c0 .376-.093.72-.282 1.034-.125.25-.25.533-.376.846a.83.83 0 0 1-.094.376c0 .063.032.157.094.282 0 .063-.062.22-.188.47 0 .125-.031.22-.094.282a8.287 8.287 0 0 1-.376 1.88c-.188.564-.344 1.16-.47 1.786l-.188.188c0 .376-.031.627-.094.752l-.187.376-.283.282c-.062.063-.125.25-.188.564l-.188 1.128v1.034c-.062.313-.125.658-.188 1.034-.062.313-.187.533-.375.658-.439.125-.659-.094-.659-.658a1.633 1.633 0 0 1-.094-.94 2.846 2.846 0 0 0 0-1.034v-.282c.063-.063.094-.157.094-.282l.188-.094c.314.815.282 1.63-.094 2.444.126 0 .22-.031.282-.094.063-.063.157-.125.283-.188a.636.636 0 0 1-.189-.47v-.376c.063-.188.094-.345.094-.47v-.846c0-.313.032-.627.095-.94a5.277 5.277 0 0 1 0-1.41c.062-.439.125-.909.187-1.41v-.188c0-.313-.062-.501-.187-.564-.126-.063-.22 0-.283.188a.635.635 0 0 1-.188.47c0 .69-.125 1.128-.376 1.316h-.188c0 .439-.031.69-.093.752l-.094-.094c-.063-.125-.188-.282-.376-.47-.126-.188-.282-.282-.471-.282v-.094c-.125-.125-.188-.345-.188-.658-.125-.25-.219-.188-.282.188-.062.376-.219.595-.47.658-.062 0-.093.063-.093.188-.314.313-.502.345-.564.094a2.361 2.361 0 0 1 0-.94 47.76 47.76 0 0 1 .282-3.008 18.45 18.45 0 0 1 .752-2.82c0-.188.062-.407.188-.658l.094-.188c.188-1.065.344-1.817.47-2.256.125-.439.219-.783.282-1.034.125-.313.281-.658.47-1.034.188-.439.438-1.16.751-2.162.126-.313.22-.658.282-1.034.126-.439.22-.846.282-1.222l.188-.658c.439-1.19.878-2.35 1.316-3.478.439-1.128.878-2.319 1.316-3.572l-.658.188c0-.188-.031-.313-.094-.376-.062-.313-.188-.47-.376-.47h-.564a2.86 2.86 0 0 0-1.034 0c-.313 0-.626.031-.94.094-.564.627-1.127.72-1.691.282-.439-.376-.439-.971 0-1.786a3.922 3.922 0 0 0-1.692.188c-.565.188-1.097 0-1.598-.564-.063-.125-.095-.345-.095-.658.063-.188.095-.345.095-.47.062-.188.219-.25.47-.188l.187.094 1.317-.188v-.094Zm26.977-21.244c.063 0 .126-.031.189-.094-.251 0-.471.031-.659.094h.47ZM128.944 55.93c0 .125-.031.22-.094.282 0 .063.032.157.094.282v-.564Zm24.535-43.428c.125-.063.125-.094 0-.094v.094ZM126.97 56.024h-.093v.094l.093-.094Z" fill="url(#e)"/><path d="M143.725 28.482c.314-.313.627-.501.94-.564.314-.125.627-.031.94.282v-.188c.502-.439.972-.658 1.41-.658.502 0 1.003-.063 1.504-.188a10.136 10.136 0 0 1 1.786-.376c.627-.125 1.222-.25 1.786-.376.188-.063.345-.094.47-.094.188-.063.345-.25.47-.564h.094l.188-.094c.063-.188.126-.345.188-.47l.188-.376h-.188c.063 0 .126-.031.188-.094.376-.94.752-1.849 1.128-2.726.376-.94.721-1.88 1.034-2.82 0-.063.032-.094.094-.094.063-.063.032-.157-.094-.282-.438-.25-.595-.564-.47-.94.126-.376.282-.783.47-1.222 0-.125.032-.25.094-.376.126-.25.251-.47.376-.658.126-.188.157-.439.094-.752-.125-.313-.282-.47-.47-.47l-.376-.188a2.86 2.86 0 0 0-1.034 0c-.376.063-.72.125-1.034.188-.313.376-.626.595-.94.658-.313.063-.564-.063-.752-.376-.25-.313-.344-.627-.282-.94.063-.313.157-.627.282-.94-.501-.063-1.034 0-1.598.188-.564.188-1.096-.063-1.598-.752-.062-.125-.094-.345-.094-.658.126-.564.314-.815.564-.752.063 0 .126.031.188.094l1.504-.188c0-.063-.031-.125-.094-.188.314-.376.596-.627.846-.752.314-.125.627.063.94.564v-.094c.063-.063.094-.125.094-.188.502-.564 1.003-.846 1.504-.846.502 0 1.003-.063 1.504-.188a5.706 5.706 0 0 1 1.692-.47 19.399 19.399 0 0 0 1.88-.282c.188-.063.345-.125.47-.188.188-.125.314-.345.376-.658.126-.376.251-.658.376-.846.251-.376.69-.658 1.316-.846a6.519 6.519 0 0 1 1.88-.282c.627-.063 1.16-.031 1.598.094.502.063.69.188.564.376l.094.094c0 .25-.062.533-.188.846-.125.25-.094.47.094.658.063.125.188.188.376.188.251-.063.533-.125.846-.188-.438 0-.47-.094-.094-.282h.846c.627-.125 1.003-.188 1.128-.188.314.125.784.063 1.41-.188.314-.125.564-.031.752.282h-.094.094c.126-.063.282-.094.47-.094h1.692a15.31 15.31 0 0 1 1.692-.094h.188c.063-.063.157-.094.282-.094.627-.25 1.222-.345 1.786-.282a15.2 15.2 0 0 1 1.786.282c.314 0 .627.031.94.094.376.063.721.25 1.034.564 0 .063-.031.125-.094.188h.094v-.094l.188-.376c.188 0 .345.031.47.094 0-.125.032-.22.094-.282.251-.25.533-.376.846-.376.314-.125.596-.125.846 0 .314.063.627.188.94.376 0 .063.063.094.188.094.251-.063.69-.031 1.316.094.314 0 .533.063.658.188.251 0 .439-.031.564-.094.251.125.533.157.846.094.314-.125.596 0 .846.376a.91.91 0 0 1-.564.376l-.564.188c-.125 0-.282.031-.47.094-.125.063-.25.031-.376-.094-.062 0-.156.063-.282.188-.125.063-.313.094-.564.094-.438-.125-.846-.125-1.222 0a2.314 2.314 0 0 1-1.128.094c-.125 0-.156.063-.094.188.126.063.188.157.188.282a3.66 3.66 0 0 0 1.41.094c.502-.063 1.003 0 1.504.188V9.4l.094-.094-.658-.282c.188-.125.376-.157.564-.094.188.063.345.125.47.188a7.99 7.99 0 0 1 2.444 0c.815.125 1.598.25 2.35.376.251 0 .439.031.564.094.251-.125.47-.157.658-.094.188.063.376.157.564.282.314-.063.596-.094.846-.094.251-.063.533-.094.846-.094.126 0 .314.063.564.188.126-.313.282-.47.47-.47.251 0 .47.031.658.094.564.063 1.097.125 1.598.188a6.609 6.609 0 0 1 1.598.376c.126.063.22.094.282.094.126-.063.22-.063.282 0 .439.125.658.407.658.846-.125.25-.282.407-.47.47a.837.837 0 0 0-.376.094l-.94-.282c-.689.125-1.347.188-1.974.188-.626-.063-1.284-.125-1.974-.188-.25.188-.658.22-1.222.094-.313.313-.564.313-.752 0v-.094h-.094c-.188 0-.376-.031-.564-.094-.125-.063-.282-.031-.47.094h-.658c-.25-.125-.595-.125-1.034 0h-.282l-.47-.188v.188l-1.034.188h-1.034a6.261 6.261 0 0 1-2.162 0 .47.47 0 0 1-.564 0l-.094.094-.188.376c.063 0 .094.031.094.094h.188l1.41.47.094.094c0 .25-.094.407-.282.47v.094h-.752a3.083 3.083 0 0 0-.752-.094h-1.222l-.094.094c-.125.125-.25.188-.376.188-.062-.063-.156-.094-.282-.094-.564 0-.94-.094-1.128-.282h-.094c-.501.188-.971.25-1.41.188a2.35 2.35 0 0 0-1.316 0 4.627 4.627 0 0 0-1.316 0c-.376.063-.783.157-1.222.282-.188 0-.282-.125-.282-.376-.125-.188-.282-.25-.47-.188a.639.639 0 0 1-.47-.188c-.626.063-1.284.157-1.974.282-.626.063-1.253.157-1.88.282.251 0 .439.031.564.094h.282a2.76 2.76 0 0 1-1.034.188 6.319 6.319 0 0 0-1.034-.094c-.501.125-1.034.22-1.598.282-.564.063-1.096.125-1.598.188l-1.504.188c-.438 0-.908.063-1.41.188-.125 0-.219-.063-.282-.188v-.094c-.188.439-.376.846-.564 1.222a3.976 3.976 0 0 0-.376 1.222c-.062.501-.219.94-.47 1.316l-.564.94-.282.658v.282a5.843 5.843 0 0 1-.752 2.068c-.313.564-.626 1.16-.94 1.786 0 .25-.031.439-.094.564.251-.125.533-.188.846-.188 0 .063-.062.157-.188.282.063.25.032.501-.094.752-.125.25-.094.439.094.564.188.125.408.157.658.094.251-.125.47-.125.658 0 .126 0 .157.031.094.094h-.564c-.062-.063-.031-.125.094-.188.376 0 .627.094.752.282l.658-.094-.094.094h-.094c.063 0 .314-.031.752-.094a15.588 15.588 0 0 1 1.88-.094c.815-.063 1.379-.063 1.692 0 0 .188.094.313.282.376.251.063.345.188.282.376 0 .376.094.658.282.846l.564.564c.251.125.47.282.658.47.188.188.251.439.188.752-.689.125-1.253.313-1.692.564-.438.188-1.002.22-1.692.094a.47.47 0 0 0-.564 0c-.125.063-.282.22-.47.47a6.133 6.133 0 0 0-.564.658.905.905 0 0 1-.47.376c-.376.063-.626.094-.752.094a.83.83 0 0 0-.376-.094c-.062-.063-.156-.094-.282-.094-.125 0-.376.063-.752.188a23.37 23.37 0 0 1-2.068.282 6.02 6.02 0 0 0-2.068.376h-.188c0-.063-.031-.094-.094-.094l-.658 1.316a45.845 45.845 0 0 0-.94 2.726 21.616 21.616 0 0 1-.47 1.598 11.994 11.994 0 0 0-.47 1.598c-.062.25-.094.501-.094.752 0 .188-.062.407-.188.658l-.282.564c-.25.564-.407.877-.47.94-.062 0-.094-.031-.094-.094 0-.125-.031-.157-.094-.094-.062 0-.188.313-.376.94a15.573 15.573 0 0 1-.658 1.504c-.188.439-.313.971-.376 1.598-.125.25-.188.501-.188.752 0 .25-.031.47-.094.658-.125.25-.219.501-.282.752-.062.25-.156.47-.282.658 0 .063-.062.157-.188.282 0 .063-.031.125-.094.188v.094c0 .376-.094.72-.282 1.034-.125.25-.25.533-.376.846a.83.83 0 0 1-.094.376c0 .063.032.157.094.282 0 .063-.062.22-.188.47 0 .125-.031.22-.094.282a8.287 8.287 0 0 1-.376 1.88c-.188.564-.344 1.16-.47 1.786l-.188.188c0 .376-.031.627-.094.752l-.188.376-.282.282c-.062.063-.125.25-.188.564l-.188 1.128v1.034c-.062.313-.125.658-.188 1.034-.062.313-.188.533-.376.658-.438.125-.658-.094-.658-.658a1.633 1.633 0 0 1-.094-.94 2.846 2.846 0 0 0 0-1.034v-.282c.063-.063.094-.157.094-.282l.188-.094c.314.815.282 1.63-.094 2.444.126 0 .22-.031.282-.094.063-.063.157-.125.282-.188a.639.639 0 0 1-.188-.47v-.376c.063-.188.094-.345.094-.47v-.846c0-.313.032-.627.094-.94a5.362 5.362 0 0 1 0-1.41c.063-.439.126-.909.188-1.41v-.188c0-.313-.062-.501-.188-.564-.125-.063-.219 0-.282.188a.635.635 0 0 1-.188.47c0 .69-.125 1.128-.376 1.316h-.188c0 .439-.031.69-.094.752l-.094-.094c-.062-.125-.188-.282-.376-.47-.125-.188-.282-.282-.47-.282v-.094c-.125-.125-.188-.345-.188-.658-.125-.25-.219-.188-.282.188-.062.376-.219.595-.47.658-.062 0-.094.063-.094.188-.313.313-.501.345-.564.094a2.399 2.399 0 0 1 0-.94 49.3 49.3 0 0 1 .282-3.008c.188-1.003.439-1.943.752-2.82 0-.188.063-.407.188-.658l.094-.188c.188-1.065.345-1.817.47-2.256.126-.439.22-.783.282-1.034.126-.313.282-.658.47-1.034.188-.439.439-1.16.752-2.162.126-.313.22-.658.282-1.034.126-.439.22-.846.282-1.222l.188-.658c.439-1.19.878-2.35 1.316-3.478.439-1.128.878-2.319 1.316-3.572l-.658.188c0-.188-.031-.313-.094-.376-.062-.313-.188-.47-.376-.47h-.564a2.86 2.86 0 0 0-1.034 0c-.313 0-.626.031-.94.094-.564.627-1.128.72-1.692.282-.438-.376-.438-.971 0-1.786a3.923 3.923 0 0 0-1.692.188c-.564.188-1.096 0-1.598-.564-.062-.125-.094-.345-.094-.658.063-.188.094-.345.094-.47.063-.188.22-.25.47-.188l.188.094 1.316-.188v-.094Zm26.978-21.244c.063 0 .126-.031.188-.094-.25 0-.47.031-.658.094h.47ZM147.579 55.93c0 .125-.031.22-.094.282 0 .063.032.157.094.282v-.564Zm24.534-43.428c.126-.063.126-.094 0-.094v.094Zm-26.508 43.522h-.094v.094l.094-.094Z" fill="url(#f)"/><defs><linearGradient id="a" x1="40.249" y1="-9.854" x2="54.701" y2="36.605" gradientUnits="userSpaceOnUse"><stop stop-color="#FF4040"/><stop offset=".448" stop-color="#FF6363"/><stop offset=".804" stop-color="#FF9417"/></linearGradient><linearGradient id="b" x1="40.249" y1="-9.854" x2="54.701" y2="36.605" gradientUnits="userSpaceOnUse"><stop stop-color="#FF4040"/><stop offset=".448" stop-color="#FF6363"/><stop offset=".804" stop-color="#FF9417"/></linearGradient><linearGradient id="c" x1="40.249" y1="-9.854" x2="54.701" y2="36.605" gradientUnits="userSpaceOnUse"><stop stop-color="#FF4040"/><stop offset=".448" stop-color="#FF6363"/><stop offset=".804" stop-color="#FF9417"/></linearGradient><linearGradient id="d" x1="40.249" y1="-9.854" x2="54.701" y2="36.605" gradientUnits="userSpaceOnUse"><stop stop-color="#FF4040"/><stop offset=".448" stop-color="#FF6363"/><stop offset=".804" stop-color="#FF9417"/></linearGradient><linearGradient id="e" x1="40.249" y1="-9.854" x2="54.701" y2="36.605" gradientUnits="userSpaceOnUse"><stop stop-color="#FF4040"/><stop offset=".448" stop-color="#FF6363"/><stop offset=".804" stop-color="#FF9417"/></linearGradient><linearGradient id="f" x1="40.249" y1="-9.854" x2="54.701" y2="36.605" gradientUnits="userSpaceOnUse"><stop stop-color="#FF4040"/><stop offset=".448" stop-color="#FF6363"/><stop offset=".804" stop-color="#FF9417"/></linearGradient></defs></svg>