<?xml version="1.0" encoding="utf-8"?><svg xmlns="http://www.w3.org/2000/svg" xmlns:xlink="http://www.w3.org/1999/xlink"><symbol fill="none" viewBox="0 0 116 133" id="0"><g opacity=".5"><path d="M39.531 96.944c4.282-2.336 3.21-9.149-3.479-13.237 0 0 .534 4.283-3.211 7.397-3.746 3.117 2.408 8.178 6.69 5.84z" fill="url(#aa)"/><path d="M102.413 69.7s-13.379 5.645-9.098 12.459c4.28 6.813 15.25 3.309 13.646-.389-1.606-3.7-9.632-4.672-4.548-12.07z" fill="url(#ab)"/><path d="M115.976 108.931c-1.204-20.513-29.5-10.745-28.897-28.813.603-18.068 16.255-28.812 16.255-28.812s-22.275 2.442-25.888 18.557c-3.612 16.114-19.867 11.721-14.448-.977 5.416-12.697 9.633-24.417-.603-35.648 0 0-39.733 25.395-25.286 37.115 14.449 11.72 18.062 27.348 4.817 30.765-13.245 3.416-23.48-9.278-16.857-16.115 6.622-6.837-8.43-17.58-8.43-17.58s4.817 18.07-7.825 22.464c-12.642 4.395-16.857 35.16 23.48 39.555 4.857.531 9.775 3.074 14.666 3.338a48.197 48.197 0 01-2.88-.782c-11.239-3.441-8.83-18.172-8.83-18.172.267 8.095 19.532 9.714 17.66 4.858-1.875-4.858-1.07-11.333 8.83-12.749 9.9-1.416 7.223-10.928 7.223-10.928 4.015 1.821 11.775 8.903 5.084 13.154-6.69 4.249-4.013 11.333 3.211 10.119 7.226-1.214 10.703-7.488 10.703-7.488s3.211 6.881-7.76 14.571c-3.829 2.683-8.018 6.604-12.323 7.633 27.093-1.023 48.947-9.62 48.098-24.065z" fill="url(#ac)"/><path d="M78.063 33.484c-1.605 7.981-4.818 13.63-4.818 13.63s13-6.386 13.379-13.044c.535-9.346-7.223-12.85-17.66-14.797 0 0 10.706 6.228 9.099 14.211z" fill="url(#ad)"/><path d="M59.333 21.415S46.756 10.123 55.32 0c0 0-14.182 4.088-9.098 11.487 5.082 7.397 13.11 9.928 13.11 9.928z" fill="url(#ae)"/></g><defs><linearGradient id="aa" x1="33.893" y1="84.184" x2="35.979" y2="97.442" gradientUnits="userSpaceOnUse"><stop offset=".161" stop-color="#FF8E02"/><stop offset=".328" stop-color="#FFB507" stop-opacity=".92"/><stop offset=".599" stop-color="#FFE81D" stop-opacity=".69"/><stop offset=".969" stop-color="#FFFA32" stop-opacity=".01"/></linearGradient><linearGradient id="ab" x1="95.585" y1="70.263" x2="97.666" y2="86.029" gradientUnits="userSpaceOnUse"><stop offset=".161" stop-color="#FF8E02"/><stop offset=".328" stop-color="#FFB507" stop-opacity=".92"/><stop offset=".599" stop-color="#FFE81D" stop-opacity=".69"/><stop offset=".969" stop-color="#FFFA32" stop-opacity=".01"/></linearGradient><linearGradient id="ac" x1="24.667" y1="36.678" x2="34.534" y2="133.641" gradientUnits="userSpaceOnUse"><stop offset=".161" stop-color="#FF8E02"/><stop offset=".328" stop-color="#FFB507" stop-opacity=".92"/><stop offset=".599" stop-color="#FFE81D" stop-opacity=".69"/><stop offset=".969" stop-color="#FFFA32" stop-opacity=".01"/></linearGradient><linearGradient id="ad" x1="72.724" y1="20.233" x2="77.646" y2="46.657" gradientUnits="userSpaceOnUse"><stop offset=".161" stop-color="#FF8E02"/><stop offset=".328" stop-color="#FFB507" stop-opacity=".92"/><stop offset=".599" stop-color="#FFE81D" stop-opacity=".69"/><stop offset=".969" stop-color="#FFFA32" stop-opacity=".01"/></linearGradient><linearGradient id="ae" x1="48.144" y1=".738" x2="51.778" y2="21.121" gradientUnits="userSpaceOnUse"><stop offset=".161" stop-color="#FF8E02"/><stop offset=".328" stop-color="#FFB507" stop-opacity=".92"/><stop offset=".599" stop-color="#FFE81D" stop-opacity=".69"/><stop offset=".969" stop-color="#FFFA32" stop-opacity=".01"/></linearGradient></defs></symbol></svg>