<svg xmlns="http://www.w3.org/2000/svg" width="220" height="226" fill="none"><g clip-path="url(#a)"><path fill="#1C1F31" d="M38.197 74.08c27.322-20.894 47.295-37.018 70.288-50.299 10.522-6.078 22.094-10.485 34.242-10.796 34.929-.896 85.756 15.116 76.067 81.042-8.297 46.02-103.004 131.239-186.776 79.222-44.084-27.373-28.422-71.328 6.179-99.17"/><path fill="#A9BAFF" d="m193.009 61.713 21.674 31.566-29.895 25.029-18.871-2.241-24.29-35.302 30.643-27.27zM93.048 36.31l8.034 30.633-16.255 63.88-70.44-10.087L0 94.4l17.003-70.043z"/><path fill="#375BE9" d="m172.829 54.616 23.356 33.06 18.31 4.856-21.487-30.445zM76.045 106.167.187 94.587l13.826 25.402 70.814 10.647z"/><path fill="#5275FF" d="m124.252 131.57 42.787 32.5 1.495 28.764-37.182 33.247-32.697-28.951-12.706-31.379z"/><path stroke="#1C1F31" stroke-linecap="round" stroke-width="1.279" d="M151.714 194.702c37.369-12.888 55.018-58.659 41.853-94.138m-28.015-41.707C144.398 23.706 126.036 3.332 96.67.987c-31.969-2.552-51.507 31.638-49.95 63.66"/><path stroke="#1C1F31" stroke-linecap="round" stroke-width="1.279" d="m166.864 163.64 1.682 29.325-37.369 33.06m35.687-62.385-42.787 36.983m42.787-36.983-42.787-32.126m0 69.109 7.1 25.402m-7.1-25.402-38.116-34.928m38.116 34.928c-22.795-30.819 0-69.109 0-69.109m0 69.109c-10.837-10.833-19.992-13.075-25.224-3.175m32.324 28.577-32.324-28.577m25.224-65.934-38.116 34.181m0 0 12.892 31.753M172.093 53.626 196.57 88.18m-24.477-34.555-30.455 27.083m30.455-27.083 20.553 8.032m3.924 26.523-30.643 27.643m30.643-27.643 18.31 5.043m-18.31-5.043c-6.934-14.233-7.562-19.894-3.924-26.523m3.924 26.523c-20.553-21.667-54.932-7.472-54.932-7.472m24.289 35.115-24.289-35.115m24.289 35.115 18.685 2.428 30.268-25.028m0 0-22.234-31.567M85.025 131.327l-9.155-25.029m9.155 25.029 15.695-64.253-7.847-31.38m-7.848 95.633-70.44-11.02m61.285-14.009 17.003-70.603M75.87 106.298.012 94.531m75.858 11.767C20.476 92.069 7.572 73.716 16.64 24.114m59.23 82.184c-29.03-4.971-44.502-6.138-61.285 14.009m78.288-84.612L16.64 24.115m0 0L.01 94.53m0 0 14.574 25.776"/><path fill="#1C1F31" stroke="#1C1F31" stroke-linecap="round" stroke-width="1.279" d="m93.048 36.311 7.847 30.82L85.2 130.075l-9.155-23.908z"/><path fill="#1C1F31" d="m214.87 93.467-30.268 25.028-18.498-2.988 30.642-27.27zM166.852 164.07l1.868 28.765-37.369 33.247-7.287-25.402z"/><path stroke="#FFCB47" stroke-linecap="round" stroke-width="1.279" d="m93.774 39.3 6.68 26.71m-14.849 62.945 14.691-60.144M168.157 116.115l15.508 2.015m28.889-22.982-26.647 22.033M151.713 194.703a62.7 62.7 0 0 0 15.883-8.18m25.97-85.959c3.655 9.85 4.935 20.493 4.077 31.006M132.282 15.96c11.446 9.655 21.678 23.75 32.625 41.831"/></g><defs><clipPath id="a"><path fill="#fff" d="M0 0h220v225.969H0z"/></clipPath></defs></svg>