<?xml version="1.0" encoding="utf-8"?><svg xmlns="http://www.w3.org/2000/svg" xmlns:xlink="http://www.w3.org/1999/xlink"><symbol fill="none" viewBox="0 0 33 18" id="0"><path d="M2.94 6.816l20.242 7.661-.548-1.738c-1.093-3.472 1.685-6.94 5.233-6.532l2.338.268-3.75-3.02a15.486 15.486 0 00-19.733.192l-3.783 3.17z" fill="#FF6363"/><path d="M.99 4.721a1.748 1.748 0 012.311-.95l20.096 8.736c.895.389 1.312 1.446.931 2.36l-.85 2.038a1.748 1.748 0 01-2.31.95L1.072 9.12C.177 8.73-.24 7.673.142 6.76L.99 4.721zm31.984.311c.233 1.96-1.134 3.74-3.052 3.978-1.918.238-3.661-1.157-3.894-3.117-.233-1.959 1.133-3.74 3.051-3.977 1.918-.238 3.662 1.157 3.895 3.116z" fill="#D2D6E7"/></symbol></svg>