<svg width="600" height="440" fill="none" xmlns="http://www.w3.org/2000/svg"><path opacity=".8" d="M458.9 390.4c-70.2 30.4-134.8 31.8-243 4-4.7-1.2-9.3-2.4-13.9-4a271.5 271.5 0 0 1-72.4-32.7c-2.8-1.8-5.6-3.8-8.3-5.8-2.6-1.8-5.2-3.8-7.6-5.8-42.7-33.7-70.2-83.6-70.2-154 0-6.4.2-13 .8-20C52.6 53.6 120.2 33.4 169 37.4c49 4 61-40 104.4-33.4 43.5 6.5 60.9 55.5 105.6 83.7 44.8 28.1 104 14.6 154.4 78.2 50.2 63.6 7 189.4-74.6 224.6Z" fill="#EDF8F5"/><path d="M533.3 299.1c11.3 24-35.3 108.3-115.4 109.5-80 1.2-71.7-109.5-245.9-82.9C-2.2 352.3-5.3 262.4 12.2 219.2c17.5-43.3 53.2-48 89.5-59.7 36.3-11.6 85.1-49.6 114.5-49.6 29.4 0 57.6 63.6 180.8 67.4C520.2 181 522 275.2 533.3 299Z" fill="#DCF6EF"/><path fill-rule="evenodd" clip-rule="evenodd" d="M72.6 351.1h308.5v-2H72.6v2ZM510 361H90.6v2h107.6v50.4h2V363h12.4v57.2h2V363h295.3v-2Z" fill="#4E5472"/><path d="M271 124.7c.7 8.6-55 7.9-59.8-10-3.3-12.6 1.1-15.9 4.3-24.8l2.6-15c.7-23-1-22.8-3.4-31.2-8-27.3 14.6-40.6 16-4.2.6 19.2-3.5 34.3-3 49.4.4 15 42.7 27.3 43.3 35.8Z" fill="#E7EAF3"/><path d="M263 136.4h-91c-3.1 0-5.5-2-5.5-4 0-2.3 2.6-4 5.6-4h90.7c3.1 0 5.6 1.9 5.6 4 .2 2.2-2.2 4-5.4 4Z" fill="#8AFFCE"/><path fill-rule="evenodd" clip-rule="evenodd" d="M223.2 3a1 1 0 0 0-2 0c-1.1 76.1-1 77.3-.3 89.3l.2 2.5-2.9-1.7a2 2 0 0 0-2 0l-2.5 1.5V10.1a1 1 0 1 0-2 0v85.7l-47.8 29c-1.7 1.1-1 3.8 1 3.8H271c2 0 2.8-2.7 1-3.8L223.3 96l-.3-3.8c-.7-12-.8-13.1.3-89.2Zm-6 91.8 53.8 31.8H165l52.2-31.8Z" fill="#4E5472"/><path d="M544 351.3c-14.3 6.7-79.6-1.1-89.8-1.1-10.2 0-38.3 8.3-38.2-8.1 0-16.5 37 8.4 45.1-8.4 8.1-16.7 29.7-13.6 50-40.6 18.3-24.4 22.5-99.5 67.3-94.4 25.3 2.9 7.1 47.4-5 85-9.4 29.1-15.1 60.8-29.4 67.6Z" fill="#E7EAF3"/><path fill-rule="evenodd" clip-rule="evenodd" d="M441.9 351v.1h-51.6c-3 0-5.3-2.5-5.3-5.3 0-2.7 2.3-5.3 5.3-5.3h53l41.2-122a19 19 0 0 1 17.8-13h.1c1.7 0 81.8-6.4 85 0 3.2 6.7-34.9 139-44.4 144.8-8.6 5.4-87 1.5-101.1.7Zm-1.6-1.9h-50a3.3 3.3 0 0 1-3.3-3.3c0-1.7 1.4-3.3 3.3-3.3h52.3l-2.2 6.4v.2Zm3.6 0h-1.4l44-130a17 17 0 0 1 15.8-11.5 2.3 2.3 0 0 0 .3 0c.8 0 21.2-1.7 41.8-2.5a392 392 0 0 1 28.5-.3 74.7 74.7 0 0 1 12.2 1.6l.4.2v1.5a282.4 282.4 0 0 1-4.3 21.6 1041.7 1041.7 0 0 1-28.7 95.8c-2.4 6.6-4.6 12.2-6.5 16.4a48.9 48.9 0 0 1-4 6.8l-2.1.7-4.3.7c-3.4.4-7.7.7-12.8.8-10 .4-22.6.2-35 0a1591.2 1591.2 0 0 1-44-1.8Z" fill="#4E5472"/><path d="M544.7 286a10.3 10.3 0 1 0 0-20.4 10.3 10.3 0 0 0 0 20.5Z" fill="#D2D6E7"/><path d="M238.5 291.1C270 306 294.2 264 291.1 233c-3.1-31-17.3-42.7-34.7-26-17.3 16.7-42.7 26-43.9 39.6-1.2 13.6-5.5 29.7 26 44.5ZM338 210c-27.7 37.7-33.4 49.9-18.5 60.4 14.8 10.5 59 0 50.4-32-8.5-31.9-4.3-66-32-28.3ZM142 210c-27.7 37.7-33.3 49.9-18.5 60.4 14.9 10.5 59 0 50.5-32-8.6-31.9-4.3-66-32-28.3Z" fill="#8AFFCE"/><path fill-rule="evenodd" clip-rule="evenodd" d="M143.3 295.3V278H92v-27.3l39.8-66.3h48V246h12.2V278h-12.3v17.2h-36.3Zm34.3-108.8V248H190V276h-12.3v17.2h-32.3V276H94v-24.8l39-64.8h44.7Zm-32.3 27.9L125.1 248h20.2v-33.6Zm-2 7.2L128.7 246h14.6v-24.4Zm62.5 58a65 65 0 0 1-12.1-39.6c0-14.8 4-29 12.1-39.6a45.1 45.1 0 0 1 37.2-17.5c16.6 0 29 6.8 37.2 17.5a64.7 64.7 0 0 1 12.2 39.6c0 14.8-4 29-12.2 39.7a45 45 0 0 1-37.2 17.5 45 45 0 0 1-37.2-17.5Zm46.8-20.4c2.1-4 3.3-10.3 3.3-19.2 0-9-1.2-15.2-3.3-19.1-1.1-2-2.4-3.3-4-4.1-1.4-.9-3.3-1.4-5.6-1.4s-4.1.5-5.6 1.4c-1.5.8-2.8 2.2-4 4.1-2 4-3.3 10.1-3.3 19 0 9 1.2 15.3 3.4 19.3 1 2 2.4 3.3 3.9 4.1a11 11 0 0 0 5.6 1.4 11 11 0 0 0 5.7-1.4c1.5-.8 2.8-2.2 3.9-4.1Zm92.9 36v-17H294v-27.4l39.8-66.3h48V246H394V278h-12.3v17.2h-36.3Zm34.3-108.7V248h12.3V276h-12.3v17.2h-32.3V276H296v-24.8l39-64.8h44.7Zm-32.3 27.9L327.3 248h20.2v-33.6Zm-2 7.2L330.9 246h14.6v-24.4ZM243 295.2c-31.8 0-47.3-26.3-47.3-55.2 0-29 15.5-55 47.3-55 31.9 0 47.4 26 47.4 55s-15.5 55.2-47.4 55.2Zm0-28.5c10.3 0 14.9-8.6 14.9-26.7 0-18-4.6-26.6-14.9-26.6-10.2 0-14.9 8.5-14.9 26.6 0 18 4.7 26.7 15 26.7Z" fill="#4E5472"/></svg>