<svg width="16" height="16" viewBox="0 0 16 16" fill="none" xmlns="http://www.w3.org/2000/svg">
<path fill-rule="evenodd" clip-rule="evenodd" d="M4.54081 1.22528C4.69256 1.45599 4.62855 1.76603 4.39785 1.91779C2.3329 3.27606 1 5.50146 1 8.00187C1 10.4999 2.33035 12.7234 4.39193 14.0821C4.6225 14.234 4.68624 14.5441 4.53428 14.7747C4.38233 15.0053 4.07223 15.069 3.84165 14.917C1.52928 13.3931 0 10.8705 0 8.00187C0 5.1305 1.53221 2.60579 3.8483 1.08232C4.07901 0.930571 4.38905 0.994576 4.54081 1.22528ZM11.4598 1.22528C11.6116 0.994576 11.9216 0.930571 12.1523 1.08232C14.4684 2.60579 16.0006 5.1305 16.0006 8.00187C16.0006 10.8705 14.4714 13.3931 12.159 14.917C11.9284 15.069 11.6183 15.0053 11.4664 14.7747C11.3144 14.5441 11.3781 14.234 11.6087 14.0821C13.6703 12.7234 15.0006 10.4999 15.0006 8.00187C15.0006 5.50146 13.6677 3.27606 11.6028 1.91779C11.3721 1.76603 11.3081 1.45599 11.4598 1.22528Z" fill="#9FAAC4"/>
<path d="M11 8C11 9.65685 9.65685 11 8 11C6.34315 11 5 9.65685 5 8C5 6.34315 6.34315 5 8 5C9.65685 5 11 6.34315 11 8Z" fill="#3FB898"/>
</svg>
