<svg width="302" height="140" viewBox="0 0 302 140" fill="none" xmlns="http://www.w3.org/2000/svg">
  <path d="M44.5463 98.1265C-15.7923 75.9988 -13.2525 61.3987 46.6606 48.3709L168.263 29.1484C188.668 48.3709 176.543 23.8568 221.492 48.3709L136.446 125.663C126.274 143.606 51.7134 121.008 44.5463 98.1265Z" fill="var(--mystic, #D2D6E7)"/>
  <path d="M137.316 8.2872C110.122 10.4395 68.6339 20.3022 42.4062 32.939L63.8468 86.4905C76.8793 83.1394 92.4623 77.6073 108.401 70.1472L111.08 71.5806C106.976 73.5672 102.872 75.6934 98.748 77.9624L121.947 134.057C166.796 120.521 189.356 109.06 215.063 86.9833L233.501 80.9355C243.992 63.5063 228.863 40.4461 216.415 41.137L198.21 49.532C189.166 50.0348 180.538 50.9384 172.21 52.2626V51.8169C167.169 47.0444 162.7 43.2048 158.335 39.9257L173.79 33.6194C176.74 17.9057 168.819 2.90526 159.509 0L137.316 8.2872Z" fill="var(--porcelain, #ECEEF5)"/>
  <path d="M140.195 10.0033L143.575 9.76562C146.794 11.789 150.938 17.4269 153.494 24.0857L173.42 18.3594C174.542 23.0694 174.787 28.301 173.79 33.6141L158.33 39.9222C153.807 36.525 149.394 33.7292 144.57 31.1203C147.645 29.0328 150.264 26.9879 152.297 25.0405C149.089 18.4051 144.426 12.6149 140.195 10.0033Z" fill="var(--casper, #9FAAC4)"/>
  <path d="M94.6576 62.7932L108.395 70.1443C92.4588 77.6032 76.8779 83.1345 63.8468 86.4852L56.3906 67.8621V62.4045C65.5299 62.4045 78.0626 59.7206 91.1842 55.5638L94.6576 62.7932Z" fill="var(--casper, #9FAAC4)"/>
  <path d="M121.947 134.052C166.796 120.516 189.356 109.054 215.063 86.9779L233.602 81.7468C235.649 78.3459 236.62 73.914 236.926 70.3026L214.432 76.5812C213.509 66.538 207.66 55.2431 203.494 52.1955H200.106C205.467 56.0504 211.647 67.0415 213.824 76.8C202.15 89.3509 150.425 112.071 126.89 112.071L120.083 129.545L121.947 134.052Z" fill="var(--casper, #9FAAC4)"/>
  <path d="M172.816 52.1955C156.797 53.9778 136.1 61.0136 121.156 67.3149C131.352 61.0136 146.399 53.6243 167.545 47.4844L172.816 52.1955Z" fill="var(--casper, #9FAAC4)"/>
  <path d="M64.9068 86.5489C73.1642 83.4829 75.2187 68.5924 69.4957 53.29C63.7728 37.9877 52.4394 28.0682 44.182 31.1343C35.9247 34.2003 33.8701 49.0908 39.5931 64.3932C45.3161 79.6955 56.6494 89.615 64.9068 86.5489Z" fill="var(--casper, #9FAAC4)"/>
  <path d="M122.565 134.431C130.7 131.356 132.359 115.899 126.271 99.906C120.182 83.9133 108.651 73.4415 100.516 76.5165C92.3805 79.5915 90.7212 95.0489 96.8098 111.042C102.898 127.034 114.429 137.506 122.565 134.431Z" fill="var(--casper, #9FAAC4)"/>
  <path fill-rule="evenodd" clip-rule="evenodd" d="M69.4957 53.29C75.2187 68.5924 73.1642 83.4829 64.9068 86.5489C56.6494 89.615 45.3161 79.6955 39.5931 64.3932C33.8701 49.0908 35.9247 34.2003 44.182 31.1343C52.4394 28.0682 63.7728 37.9877 69.4957 53.29ZM67.7989 80.6174C66.8378 82.191 65.579 83.3295 64.0334 83.9137C57.2054 86.4945 47.366 77.2811 42.0565 63.3348C36.747 49.3885 37.978 35.9907 44.8059 33.4099C46.9673 32.5929 49.4304 32.9577 51.956 34.2804C52.0392 34.3239 52.1224 34.3685 52.2057 34.4141C52.1367 34.4744 52.0687 34.5358 52.0017 34.5983C47.297 38.9959 46.7282 50.0629 51.0514 61.4183C54.9751 71.7244 61.7564 79.1898 67.797 80.6174L67.7989 80.6174Z" fill="var(--whale, #FCFDFE)"/>
  <path fill-rule="evenodd" clip-rule="evenodd" d="M126.271 99.906C132.359 115.899 130.7 131.356 122.565 134.431C114.429 137.506 102.898 127.034 96.8098 111.042C90.7212 95.0489 92.3805 79.5915 100.516 76.5165C100.548 76.5043 100.58 76.4923 100.613 76.4806L87.827 68.688C87.827 58.7287 86.0494 47.6737 82.8047 38.4766C95.0075 45.8959 107.313 54.7309 121.488 67.1804L105.118 76.1144C112.572 77.3319 121.263 86.7513 126.271 99.906ZM106.801 79.3281L106.232 79.1306C104.457 78.574 102.754 78.5465 101.208 79.1306C94.2918 81.7449 93.1601 95.6186 98.6803 110.118C104.201 124.618 114.282 134.254 121.199 131.639C122.971 130.97 124.363 129.561 125.361 127.592C119.081 126.163 111.808 117.946 107.503 106.639C103.245 95.4544 103.173 84.6135 106.801 79.3281Z" fill="var(--whale, #FCFDFE)"/>
  <path fill-rule="evenodd" clip-rule="evenodd" d="M248.111 22.1853C228.008 20.6303 202.874 20.6008 174.191 22.7843C173.943 21.032 173.793 20.1632 173.734 19.8104C202.639 17.5998 228.009 17.6214 248.342 19.1943C268.65 20.7652 284.078 23.8935 292.972 27.9796C297.35 29.9912 300.535 32.4083 301.606 35.3405C302.776 38.5443 301.236 41.6185 298.032 44.2885C294.826 46.9604 289.608 49.5711 282.331 52.086C277.723 53.6786 272.243 55.248 265.848 56.7741C269.129 56.9786 271.922 57.2717 274.264 57.6433C276.705 58.0308 278.698 58.5099 280.26 59.0825C281.798 59.6462 283.049 60.3473 283.87 61.2599C284.756 62.2457 285.101 63.4473 284.797 64.7103C284.52 65.8595 283.748 66.8866 282.809 67.7839C280.92 69.5891 277.78 71.4047 273.92 73.1517C258.435 80.1603 228.87 87.1359 208.904 87.1359C208.075 87.1359 207.404 86.4644 207.404 85.6359C207.404 84.8075 208.075 84.1359 208.904 84.1359C228.421 84.1359 257.566 77.2608 272.683 70.4186C276.474 68.703 279.228 67.0559 280.736 65.6149C281.305 65.072 282.357 64.0637 281.639 63.2657C281.292 62.8798 280.568 62.3906 279.227 61.8992C277.912 61.4168 276.125 60.9762 273.793 60.6062C269.132 59.8665 262.46 59.4344 253.376 59.4344C252.604 59.4344 251.958 58.8482 251.883 58.0796C251.808 57.311 252.329 56.6113 253.087 56.4625C264.865 54.1505 274.218 51.7156 281.351 49.2505C288.514 46.7752 293.324 44.3071 296.112 41.9839C298.901 39.6588 299.318 37.8217 298.788 36.3701C298.159 34.647 295.983 32.6648 291.719 30.7056C283.327 26.85 268.339 23.7501 248.111 22.1853Z" fill="var(--mystic, #D2D6E7)"/>
</svg>

