<svg width="456" height="257" fill="none" xmlns="http://www.w3.org/2000/svg">
  <!-- <g clip-path="url(#clip0_34841_58988)"> -->
  <rect width="456" height="257" rx="8" fill="var(--white,#FFFFFF)" />
  <path
    d="M19.466 150.143L27.7575 173.068L42.6392 148.601L56.9486 139.425L78.9297 98.9699L100.978 176.95L113.355 117.573L116.45 129.053L132.332 50.799L139.004 85.9691L147.344 77.0425L163.366 196.613H192.346L211.173 88.1912L223.204 82.1749L236.548 11L245.8 100.943L251.142 70.1031L271.239 196.613H282.057L284.401 184.515L296.169 186.859L306.153 164.746L314.413 168.818L329.072 103.375L341.062 92.2429L349.944 56.7914L367.645 129.163L371.341 118.132L376.576 137.989L386.124 143.977L398.382 177.865L412.951 143.977L416.769 161.36L422.925 164.746L428.594 61.0564L436.038 187.242L444.867 156.507L449.127 164.746L456 126.033V196.613H282.057L276.113 227.297L271.239 196.613H192.346L189.32 214.036L179.734 217.454L169.984 246L163.366 196.613H0V158.395L10.6353 169.332L19.466 150.143Z"
    fill="var(--green-light-1,#EDF8F5)" />
  <path
    d="M220.395 102.805C220.395 102.27 220.547 101.836 220.853 101.501C221.159 101.167 221.561 101 222.059 101C222.557 101 222.97 101.162 223.298 101.485C223.626 101.808 223.791 102.248 223.791 102.805C223.791 103.34 223.626 103.758 223.298 104.059C222.97 104.36 222.557 104.51 222.059 104.51C221.561 104.51 221.16 104.354 220.854 104.042C220.548 103.73 220.395 103.318 220.395 102.805Z"
    fill="var(--mystic,#D2D6E7)" />
  <path d="M223.281 107.886V124.599H220.837V107.886H223.281Z" fill="var(--mystic,#D2D6E7)" />
  <path
    d="M211.465 107.886H209.394V110.058H211.465V120.354C211.465 121.981 211.709 123.157 212.195 123.881C212.682 124.605 213.491 124.967 214.623 124.967C215.279 124.967 215.907 124.895 216.507 124.75C217.107 124.605 217.656 124.41 218.154 124.165L217.679 122.26C217.294 122.416 216.937 122.543 216.609 122.644C216.281 122.744 215.89 122.794 215.438 122.794C214.895 122.794 214.504 122.577 214.267 122.142C214.029 121.708 213.91 121.001 213.91 120.02V110.059H217.577V107.887H213.91V103.808L211.465 104.577V107.886Z"
    fill="var(--mystic,#D2D6E7)" />
  <path
    d="M170.856 121.858C171.309 122.126 171.846 122.354 172.469 122.543C173.091 122.732 173.731 122.827 174.387 122.827C175.134 122.827 175.768 122.643 176.288 122.273C176.809 121.903 177.069 121.304 177.069 120.474C177.069 119.78 176.91 119.209 176.594 118.76C176.277 118.312 175.876 117.908 175.389 117.55C174.902 117.192 174.376 116.862 173.81 116.562C173.244 116.262 172.717 115.902 172.231 115.48C171.744 115.057 171.342 114.558 171.025 113.981C170.708 113.403 170.55 112.67 170.55 111.782C170.55 110.361 170.94 109.29 171.721 108.568C172.502 107.845 173.606 107.485 175.032 107.485C175.96 107.485 176.764 107.569 177.442 107.736C178.121 107.902 178.71 108.132 179.208 108.421L178.563 110.426C178.134 110.203 177.635 110.02 177.069 109.874C176.503 109.73 175.926 109.657 175.338 109.657C174.523 109.657 173.929 109.824 173.555 110.159C173.181 110.493 172.995 111.017 172.995 111.73C172.995 112.287 173.153 112.761 173.47 113.15C173.787 113.541 174.189 113.897 174.675 114.22C175.162 114.544 175.688 114.872 176.254 115.206C176.819 115.541 177.346 115.936 177.833 116.393C178.32 116.85 178.721 117.396 179.039 118.03C179.356 118.665 179.514 119.463 179.514 120.42C179.514 121.045 179.412 121.635 179.208 122.192C179.005 122.749 178.693 123.234 178.275 123.646C177.855 124.059 177.335 124.387 176.713 124.632C176.09 124.877 175.36 125 174.523 125C173.527 125 172.666 124.905 171.942 124.716C171.218 124.527 170.606 124.276 170.108 123.964L170.856 121.858Z"
    fill="var(--mystic,#D2D6E7)" />
  <path
    d="M165 116.676C165 116.11 165.153 115.685 165.46 115.402C165.766 115.119 166.18 114.977 166.703 114.977C167.225 114.977 167.639 115.119 167.946 115.402C168.253 115.685 168.405 116.11 168.405 116.676C168.405 117.264 168.253 117.698 167.946 117.981C167.639 118.264 167.225 118.406 166.703 118.406C166.18 118.406 165.766 118.264 165.46 117.981C165.153 117.698 165 117.264 165 116.676Z"
    fill="var(--mystic,#D2D6E7)" />
  <path fill-rule="evenodd" clip-rule="evenodd"
    d="M184.829 107.953C183.889 108.176 183.091 108.488 182.435 108.888L183.244 110.791C183.738 110.502 184.354 110.261 185.095 110.072C185.835 109.883 186.518 109.788 187.147 109.788C188.155 109.788 188.851 110.044 189.233 110.557C189.613 111.069 189.805 111.96 189.805 113.231C189.805 113.766 189.771 114.379 189.704 115.07C189.456 115.047 189.22 115.036 188.996 115.036H188.323C187.313 115.036 186.397 115.12 185.578 115.287C184.758 115.454 184.051 115.739 183.457 116.139C182.861 116.541 182.401 117.065 182.075 117.711C181.749 118.357 181.587 119.159 181.587 120.117C181.587 121.588 181.974 122.741 182.75 123.577C183.525 124.413 184.519 124.83 185.733 124.83C186.834 124.83 187.71 124.619 188.362 124.196C189.013 123.773 189.507 123.271 189.844 122.691H189.979L190.572 124.664H192.487C192.328 124.017 192.22 123.332 192.161 122.608C192.102 121.884 192.074 121.099 192.074 120.251C192.074 119.115 192.102 117.912 192.161 116.642C192.219 115.372 192.248 114.069 192.248 112.731C192.248 112.063 192.198 111.423 192.096 110.809C191.994 110.197 191.778 109.651 191.451 109.172C191.122 108.694 190.67 108.314 190.092 108.036C189.515 107.758 188.751 107.618 187.8 107.618C186.759 107.618 185.769 107.73 184.829 107.953ZM189.064 116.928C189.289 116.939 189.511 116.956 189.735 116.978H189.734V120.521C189.533 121.056 189.176 121.546 188.661 121.992C188.147 122.437 187.42 122.66 186.481 122.66C185.788 122.66 185.223 122.415 184.787 121.924C184.35 121.434 184.133 120.744 184.133 119.852C184.133 119.273 184.25 118.794 184.485 118.415C184.72 118.036 185.039 117.735 185.441 117.512C185.843 117.29 186.302 117.134 186.817 117.044C187.332 116.956 187.857 116.911 188.394 116.911C188.617 116.911 188.841 116.917 189.064 116.928Z"
    fill="var(--mystic,#D2D6E7)" />
  <path
    d="M204.878 124.599V114.404C204.878 112.733 204.679 111.524 204.283 110.778C203.886 110.031 203.179 109.658 202.161 109.658C201.255 109.658 200.508 109.926 199.92 110.461C199.331 110.996 198.901 111.653 198.629 112.433V124.6H196.185V107.886H197.95L198.392 109.657H198.494C198.924 109.055 199.507 108.544 200.242 108.12C200.978 107.696 201.856 107.485 202.874 107.485C203.599 107.485 204.238 107.585 204.792 107.786C205.347 107.986 205.811 108.326 206.185 108.805C206.558 109.285 206.841 109.925 207.034 110.727C207.226 111.53 207.323 112.544 207.323 113.769V124.599H204.878Z"
    fill="var(--mystic,#D2D6E7)" />
  <path
    d="M235.743 114.672V124.598H238.187V112.565C238.391 111.674 238.748 110.967 239.257 110.443C239.766 109.919 240.451 109.657 241.311 109.657C242.33 109.657 242.98 110.014 243.263 110.727C243.546 111.441 243.688 112.521 243.688 113.97V124.598H246.132V113.668C246.132 112.465 246.052 111.467 245.894 110.676C245.736 109.886 245.492 109.25 245.164 108.771C244.836 108.292 244.406 107.957 243.874 107.768C243.342 107.579 242.703 107.484 241.956 107.484C241.05 107.484 240.219 107.707 239.46 108.152C238.702 108.599 238.119 109.211 237.712 109.991C237.395 109.055 236.959 108.403 236.404 108.036C235.849 107.668 235.141 107.484 234.282 107.484C233.263 107.484 232.425 107.685 231.769 108.086C231.113 108.488 230.547 109.012 230.072 109.657H229.969L229.528 107.886H227.797V124.598H230.241V112.565C230.446 111.808 230.813 111.134 231.345 110.543C231.876 109.953 232.527 109.657 233.297 109.657C233.818 109.657 234.236 109.752 234.553 109.942C234.871 110.131 235.119 110.426 235.3 110.827C235.481 111.229 235.601 111.747 235.657 112.382C235.714 113.017 235.743 113.781 235.743 114.672Z"
    fill="var(--mystic,#D2D6E7)" />
  <path fill-rule="evenodd" clip-rule="evenodd"
    d="M260.053 123.462C259.51 123.952 258.819 124.332 257.982 124.598C257.144 124.866 256.261 124.999 255.334 124.999C254.27 124.999 253.347 124.793 252.566 124.381C251.785 123.969 251.141 123.378 250.631 122.609C250.122 121.841 249.749 120.922 249.511 119.852C249.274 118.782 249.154 117.579 249.154 116.242C249.154 113.39 249.686 111.217 250.751 109.724C251.815 108.231 253.319 107.484 255.266 107.484C255.9 107.484 256.528 107.562 257.151 107.718C257.773 107.874 258.334 108.186 258.832 108.654C259.33 109.122 259.731 109.78 260.037 110.626C260.343 111.473 260.495 112.576 260.495 113.935C260.495 114.315 260.478 114.721 260.444 115.155C260.41 115.59 260.37 116.041 260.326 116.51H251.701C251.701 117.468 251.78 118.337 251.939 119.117C252.097 119.897 252.346 120.56 252.686 121.106C253.026 121.652 253.461 122.075 253.993 122.376C254.525 122.678 255.187 122.828 255.979 122.828C256.591 122.828 257.196 122.717 257.796 122.493C258.395 122.27 258.854 122.003 259.172 121.691L260.053 123.462ZM258.152 114.505C258.198 112.834 257.96 111.608 257.439 110.828C256.918 110.048 256.205 109.658 255.301 109.658C254.259 109.658 253.433 110.049 252.822 110.828C252.21 111.608 251.849 112.834 251.735 114.505H258.152Z"
    fill="var(--mystic,#D2D6E7)" />
  <path
    d="M272.616 114.404V124.599H275.06V113.769C275.06 112.544 274.963 111.53 274.771 110.727C274.578 109.925 274.296 109.285 273.922 108.805C273.549 108.326 273.085 107.986 272.53 107.786C271.975 107.585 271.336 107.485 270.612 107.485C269.594 107.485 268.717 107.696 267.981 108.12C267.246 108.544 266.662 109.055 266.233 109.657H266.13L265.689 107.886H263.923V124.6H266.368V112.433C266.64 111.653 267.069 110.996 267.658 110.461C268.246 109.926 268.993 109.658 269.899 109.658C270.918 109.658 271.625 110.031 272.022 110.778C272.418 111.524 272.616 112.733 272.616 114.404Z"
    fill="var(--mystic,#D2D6E7)" />
  <path
    d="M277.132 107.886H279.203V104.577L281.648 103.808V107.887H285.314V110.059H281.648V120.02C281.648 121.001 281.766 121.708 282.005 122.142C282.242 122.577 282.632 122.794 283.176 122.794C283.628 122.794 284.018 122.744 284.347 122.644C284.674 122.543 285.031 122.416 285.417 122.26L285.892 124.165C285.394 124.41 284.845 124.605 284.246 124.75C283.645 124.895 283.018 124.967 282.361 124.967C281.228 124.967 280.42 124.605 279.933 123.881C279.447 123.157 279.203 121.981 279.203 120.354V110.058H277.132V107.886Z"
    fill="var(--mystic,#D2D6E7)" />
  <path
    d="M288.054 115.139C287.747 115.423 287.595 115.847 287.595 116.413C287.595 117.001 287.747 117.435 288.054 117.718C288.361 118.001 288.775 118.143 289.297 118.143C289.82 118.143 290.234 118.001 290.54 117.718C290.847 117.435 291 117.001 291 116.413C291 115.847 290.847 115.423 290.54 115.139C290.234 114.856 289.82 114.714 289.297 114.714C288.775 114.714 288.361 114.856 288.054 115.139Z"
    fill="var(--mystic,#D2D6E7)" />
  <path d="M455.999 196V197H0V196L455.999 196Z" fill="var(--green-light-1,#B0EBDB)" />
  <path
    d="M40.9052 38.3196L53.62 113.675L60.1566 118.023L77.1661 176.674L97.0562 130.535L125.276 222.816L150.966 178.598L155.771 185.721L171.998 156.04L179.565 177.314L185.914 172.117L203.808 225.727L211.233 207.937L214.911 217.593L228.741 162.134L235.395 175.117H240.97L251.136 209.73L284.52 162.859L295.136 171.18L322.015 101.382L341.139 162.633L350.37 153.641L358.192 218.768L363.324 217.088L369.355 233.211L386.503 135.646L391.244 132.042L400.343 96.2971L407.379 90.7791L412.927 61.5073L413.958 56.3343L414.878 61.5073L427.161 142.535L437.118 122.082L443.822 138.177L455.998 86.4787V90.6707L444.09 141.417L437.046 124.512L426.656 145.861L413.902 61.7322L408.292 91.3348L401.228 96.8733L392.128 132.627L387.42 136.205L369.706 237L362.724 218.337L357.345 220.099L349.618 155.769L340.641 164.516L321.865 104.479L295.574 172.794L284.727 164.291L250.757 211.986L240.222 176.117H234.785L229.094 165.016L215.088 220.867L211.19 210.635L203.704 228.574L185.425 173.809L179.099 178.988L171.804 158.479L155.861 187.643L151.029 180.479L124.99 225.299L96.896 133.431L76.9815 179.628L59.2983 118.653L52.706 114.269L39.8573 38.1222L26.6249 99.7476L19.4223 91.2L5.96729 134.601L-0.00195312 129.499V128.183L5.46147 132.853L19.0093 89.1569L26.0752 97.5424L38.835 38.1222L39.9666 33L40.9052 38.3196Z"
    fill="var(--green-light-1,#B0EBDB)" />
  <!-- </g> -->
  <!-- <defs>
    <clipPath id="clip0_34841_58988">
      <rect width="456" height="257" rx="8" fill="white" />
    </clipPath>
  </defs> -->
</svg>