<svg width="70" height="88" viewBox="0 0 70 88" fill="none" xmlns="http://www.w3.org/2000/svg">
<path d="M20.2255 46.0128C23.5545 48.8682 25.4181 54.5396 21.2439 59.6239C17.0697 64.7082 9.36444 64.4957 6.03547 61.6404C-1.57154 53.0688 10.5968 40.4658 20.2255 46.0128Z" fill="var(--fill,#FBB80D)"/>
<path fill-rule="evenodd" clip-rule="evenodd" d="M20.4857 45.6451C23.852 48.5547 27.3661 55.5 22.8744 61.4433C18.6534 66.6244 9.63089 65.3975 6.26459 62.4879C2.89829 59.5782 1.33029 53.9856 5.55129 48.8046C9.77229 43.6235 17.1194 42.7354 20.4857 45.6451ZM8.58338 62.7427C17.8994 65.2887 27.6699 54.3716 19.8384 46.4396C18.4572 45.2457 16.1165 44.7394 13.5139 45.2122C10.9401 45.6798 8.26736 47.0842 6.32262 49.4713C4.37758 51.8587 3.81336 54.2695 4.06224 56.3725C4.31382 58.4983 5.40641 60.3922 6.91186 61.6934C7.35201 62.0738 7.92024 62.4302 8.58338 62.7427Z" fill="#15181F"/>
<path fill-rule="evenodd" clip-rule="evenodd" d="M19.1772 50.6265C20.2196 51.5718 20.2745 53.245 19.2997 54.3636C18.325 55.4823 16.6897 55.6227 15.6473 54.6774C14.6049 53.7321 14.55 52.0589 15.5248 50.9402C16.4995 49.8216 18.1348 49.6811 19.1772 50.6265ZM18.4927 51.4213C19.0693 51.9442 19.1549 52.9384 18.5292 53.6565C17.9009 54.3776 16.9125 54.4092 16.3317 53.8825C15.7552 53.3596 15.6695 52.3654 16.2953 51.6473C16.9236 50.9263 17.912 50.8947 18.4927 51.4213Z" fill="#15181F"/>
<path d="M9.75627 51.108C10.1645 51.4744 10.1718 52.1419 9.77273 52.5991C9.37363 53.0562 8.7192 53.1299 8.31102 52.7635C7.90284 52.3972 7.89547 51.7296 8.29457 51.2725C8.69367 50.8153 9.34809 50.7417 9.75627 51.108Z" fill="#15181F"/>
<path d="M12.3471 55.2457C13.1766 55.9933 13.2132 57.3307 12.4287 58.2329C11.6442 59.1351 10.3358 59.2605 9.50626 58.513C8.67671 57.7655 8.64016 56.4281 9.42463 55.5258C10.2091 54.6236 11.5175 54.4982 12.3471 55.2457Z" fill="#15181F"/>
<path fill-rule="evenodd" clip-rule="evenodd" d="M24.1565 51.0372C24.4513 50.934 24.7866 51.053 24.9054 51.303C26.3781 54.4024 26.6591 58.1827 23.8854 61.3002C22.0907 63.3173 19.4609 64.4674 16.6954 64.9883C16.3845 65.0468 16.0789 64.8802 16.0127 64.6161C15.9466 64.3521 16.1449 64.0905 16.4558 64.032C19.0305 63.547 21.385 62.4944 22.9699 60.7131C25.4108 57.9697 25.2213 54.5885 23.8378 51.6768C23.719 51.4268 23.8617 51.1404 24.1565 51.0372Z" fill="var(--shadow,#14C393)"/>
<path fill-rule="evenodd" clip-rule="evenodd" d="M66 66.7606C66 76.2816 58.4016 84 49.0286 84C39.6555 84 33 76.2816 33 66.7606C33 57.2395 41.5412 50 50.9143 50C60.2873 50 66 57.2395 66 66.7606Z" fill="#15181F"/>
<path d="M58.1575 79.5344C56.5134 80.4676 54.5994 81 52.4323 81C44.1971 81 37 72.9817 37 64.8285C37 58.4538 40.542 53.5606 46.0234 51.7291C47.6219 51.2548 49.3069 51 51.0273 51C55.4066 51 58.871 52.663 61.2518 55.3788C63.6442 58.108 65 61.9694 65 66.4399C65 71.8693 62.2916 76.6635 58.1575 79.5344Z" fill="var(--fill,#FFCB47)"/>
<path fill-rule="evenodd" clip-rule="evenodd" d="M34.6682 59.0608C34.9183 59.1929 35.0109 59.4969 34.8751 59.74C33.733 61.7833 33.0662 64.0889 33.0303 66.5655C32.929 73.5551 36.7394 79.5451 42.6862 82.0392C42.9476 82.1488 43.068 82.4436 42.9553 82.6975C42.8425 82.9515 42.5392 83.0685 42.2779 82.9589C35.9079 80.2873 31.8932 73.9011 31.9996 66.5513C32.038 63.9052 32.7512 61.4411 33.9693 59.2618C34.1051 59.0188 34.418 58.9288 34.6682 59.0608Z" fill="var(--shadow,#8AFFCE)"/>
<path fill-rule="evenodd" clip-rule="evenodd" d="M49.2726 62.8488C51.1569 62.2885 52.3363 60.335 51.9069 58.4855C51.4775 56.6361 49.6019 55.5909 47.7176 56.1512C45.8334 56.7115 44.654 58.665 45.0833 60.5145C45.5127 62.3639 47.3883 63.4091 49.2726 62.8488ZM49.0524 61.8803C50.5931 61.4222 51.3352 59.9224 51.0612 58.7423C50.7858 57.5563 49.48 56.6611 47.9378 57.1197C46.3971 57.5778 45.6551 59.0776 45.929 60.2577C46.2044 61.4437 47.5102 62.3389 49.0524 61.8803Z" fill="#15181F"/>
<path d="M57.9284 60.1593C58.1348 60.9221 57.7006 61.7896 56.9587 62.097C56.2168 62.4044 55.4481 62.0353 55.2418 61.2726C55.0354 60.5098 55.4696 59.6423 56.2115 59.3349C56.9534 59.0275 57.7221 59.3966 57.9284 60.1593Z" fill="#15181F"/>
<path fill-rule="evenodd" clip-rule="evenodd" d="M58.9133 69.1627C59.296 70.7533 58.2997 72.4175 56.688 72.88C55.0764 73.3424 53.4596 72.4279 53.0769 70.8373C52.6943 69.2467 53.6905 67.5825 55.3022 67.12C56.9139 66.6576 58.5306 67.5721 58.9133 69.1627ZM57.941 69.3966C58.1934 70.4456 57.5302 71.598 56.4122 71.9188C55.3238 72.2311 54.293 71.6165 54.0492 70.6034C53.7968 69.5544 54.46 68.402 55.578 68.0812C56.6664 67.7689 57.6973 68.3835 57.941 69.3966Z" fill="#15181F"/>
<path d="M47.015 70.0977C47.1541 70.6065 46.8663 71.1831 46.3722 71.3857C45.878 71.5882 45.3646 71.3399 45.2255 70.8311C45.0863 70.3224 45.3741 69.7457 45.8683 69.5432C46.3624 69.3407 46.8758 69.589 47.015 70.0977Z" fill="#15181F"/>
<path d="M43.3528 69.796C44.342 69.3861 44.9209 68.2294 44.6458 67.2124C44.3707 66.1955 43.3458 65.7033 42.3566 66.1132C41.3673 66.5231 40.7885 67.6798 41.0636 68.6968C41.3387 69.7137 42.3636 70.2059 43.3528 69.796Z" fill="#15181F"/>
<path d="M62.0017 23.8789C61.9997 5.93939 35.5016 -8.12495 20.2788 11.5235C3.50072 38.9473 40.426 57.4354 56.2059 37.8665C60.2792 33.2819 62.0022 28.4544 62.0017 23.8789Z" fill="#15181F"/>
<path d="M18.6883 17.1323C19.3262 15.4904 20.1564 13.8076 21.1993 12.0927C25.7905 6.17356 31.3941 3.48631 36.9065 3.06084C42.4562 2.6325 47.9804 4.49292 52.3473 7.78817C56.7162 11.085 59.8661 15.7706 60.7488 20.9273C61.6258 26.0507 60.2854 31.7504 55.4751 37.1789L55.4545 37.2021L55.4353 37.2266C55.3924 37.2814 55.3494 37.336 55.3063 37.3903C52.0589 40.4303 47.8351 42.404 43.3961 42.8637C28.4689 44.4094 14.733 32.6191 18.6883 17.1323Z" fill="var(--fill,#FFCB47)"/>
<path fill-rule="evenodd" clip-rule="evenodd" d="M18.2607 34.0629C18.5022 33.926 18.8041 34.02 18.9349 34.2726C23.8961 43.855 35.9111 48.7478 46.3143 44.3036C46.5687 44.195 46.8591 44.3226 46.9629 44.5886C47.0668 44.8546 46.9449 45.1583 46.6905 45.2669C35.8104 49.9148 23.2595 44.8106 18.0601 34.7681C17.9293 34.5154 18.0191 34.1997 18.2607 34.0629Z" fill="var(--shadow,#8AFFCE)"/>
<path d="M38.3404 13.725C40.4477 12.766 41.5876 10.5836 40.8864 8.85053C40.1853 7.11748 37.9086 6.49005 35.8014 7.44911C33.6941 8.40818 32.5542 10.5906 33.2553 12.3236C33.9126 13.9484 35.9547 14.6014 37.9437 13.8864C38.0763 13.8387 38.2087 13.785 38.3404 13.725Z" fill="#15181F"/>
<path d="M46.2373 25.5858C47.4407 24.6736 47.8553 23.0572 47.1634 21.9754C46.4714 20.8936 44.9349 20.7561 43.7315 21.6683C42.5281 22.5804 42.1134 24.1969 42.8054 25.2786C43.4973 26.3604 45.0338 26.4979 46.2373 25.5858Z" fill="#15181F"/>
<path fill-rule="evenodd" clip-rule="evenodd" d="M55.2876 27.2105C56.6374 29.0566 56.0268 31.9758 53.9239 33.7307C51.8209 35.4856 49.022 35.4116 47.6722 33.5655C46.3225 31.7194 46.9331 28.8002 49.036 27.0453C51.1389 25.2904 53.9379 25.3644 55.2876 27.2105ZM54.4813 27.8229C55.4171 29.1028 55.1056 31.42 53.2868 32.9377C51.4766 34.4483 49.3794 34.1852 48.4785 32.9531C47.5427 31.6731 47.8543 29.356 49.673 27.8383C51.4833 26.3277 53.5805 26.5908 54.4813 27.8229Z" fill="#15181F"/>
<path d="M30.8054 34.3286C31.8296 33.7017 32.312 32.4295 31.8829 31.487C31.4539 30.5445 30.2758 30.2887 29.2516 30.9156C28.2274 31.5425 27.7449 32.8147 28.174 33.7572C28.6031 34.6997 29.7812 34.9555 30.8054 34.3286Z" fill="#15181F"/>
<path fill-rule="evenodd" clip-rule="evenodd" d="M31.5863 23.0262C32.541 24.6192 31.9426 26.8652 30.2498 28.0427C28.5571 29.2202 26.4109 28.8833 25.4562 27.2903C24.5015 25.6973 25.0998 23.4514 26.7926 22.2739C28.4854 21.0963 30.6316 21.4332 31.5863 23.0262ZM30.7281 23.5604C31.3536 24.6042 31.0171 26.2681 29.683 27.1961C28.368 28.1109 26.911 27.7517 26.3143 26.7561C25.6888 25.7123 26.0253 24.0484 27.3595 23.1204C28.6745 22.2056 30.1314 22.5648 30.7281 23.5604Z" fill="#15181F"/>
</svg>