<svg xmlns="http://www.w3.org/2000/svg" width="64" height="64" fill="none"><g clip-path="url(#a)"><path fill="var(--green-light-3, #B0EBDB)" d="M12.633 48.646c1.428.844 2.385 2.199 3.415 3.659 1.807 2.558 3.841 5.44 9.045 6.463 7.151 4.321 9.817 3.43 13.158 2.313.928-.31 1.907-.638 3.048-.876 2.952 1.19 11.237-2.61 10.111-5.95-4.638-.66-8.5-6.195-4.496-9.743-4.838-5.893 2.343-16.229 7.554-12.428 1.134-6.885 5.56-8.728 8.99-7.585.448-1.038.033-4.95-3.933-6.55-.628-.951-1.076-1.854-1.501-2.71-1.53-3.08-2.752-5.54-10.959-7.41-4.414-2.856-9.338.027-12.489.586-1.798.32-2.092-1.637-3.717-2.024-2.929-1.181-8.914.28-10.88 4.838-1.906-.127-5.42 2.179-6.744 5.881-3.026.595-4.415 5.109-4.865 10.274-2.738 3.038-1.99 8.888.162 10.384-1.966 4.558 1.172 9.698 4.1 10.878Z"/><path fill="var(--green-light-2, #DCF6EF)" d="M6.633 47.247c1.428.87 2.385 2.264 3.415 3.768 1.806 2.635 3.841 5.602 9.045 6.656 7.151 4.45 9.817 3.533 13.158 2.382.928-.319 1.907-.656 3.048-.901 2.952 1.225 11.237-2.69 10.111-6.128-4.638-.68-8.5-6.38-4.496-10.035-4.838-6.07 2.343-16.714 7.554-12.8 1.134-7.09 5.56-8.989 8.99-7.811.448-1.07.033-5.099-3.933-6.746-.628-.98-1.076-1.91-1.501-2.79-1.53-3.174-2.752-5.706-10.959-7.634-4.414-2.94-7.963-2.29-11.114-1.715-1.798.329-3.467.634-5.092.235-2.929-1.216-8.914.289-10.88 4.983-1.906-.13-5.42 2.244-6.744 6.057-3.026.612-4.415 5.261-4.865 10.58-2.738 3.13-1.99 9.155.162 10.696-1.966 4.693 1.172 9.987 4.1 11.203Z"/><path fill="var(--green-light-3, #B0EBDB)" d="M60.602 45.603c0 1.99-2.884 4.397-5.06 4.397-2.176 0-3.94-2.407-3.94-4.397 0-1.99 1.764-3.603 3.94-3.603 2.175 0 5.06 1.613 5.06 3.603ZM61.602 35.252c0 1.243-1.603 2.748-2.812 2.748-1.208 0-2.188-1.505-2.188-2.748 0-1.244.98-2.252 2.188-2.252 1.21 0 2.812 1.008 2.812 2.252ZM25.293 23c3.143 0 7.309-3.611 7.309-6.596 0-2.984-4.166-5.404-7.31-5.404-3.143 0-5.69 2.42-5.69 5.404 0 2.985 2.547 6.596 5.69 6.596ZM22.67 47c5.561 0 12.932-6.018 12.932-10.993 0-4.974-7.37-9.007-12.932-9.007-5.56 0-10.068 4.033-10.068 9.007C12.602 40.982 17.11 47 22.67 47Z"/><path fill="var(--green, #14C393)" d="M41.728 16.947a3.47 3.47 0 0 0 2.816-4.048 3.529 3.529 0 0 0-4.07-2.846A3.47 3.47 0 0 0 37.66 14.1a3.529 3.529 0 0 0 4.07 2.846ZM22.37 38.33c.908 3.182-.94 6.51-4.126 7.431a5.97 5.97 0 0 1-7.412-4.091c-.907-3.182.941-6.51 4.127-7.431a5.97 5.97 0 0 1 7.412 4.091ZM33.407 52.432c-.534 1.28-1.998 1.902-3.272 1.387a2.467 2.467 0 0 1-1.338-3.25c.533-1.281 1.998-1.903 3.27-1.388a2.467 2.467 0 0 1 1.34 3.25ZM22.42 13.991a2.984 2.984 0 0 1-1.794 3.834 3.015 3.015 0 0 1-3.843-1.816 2.984 2.984 0 0 1 1.794-3.834 3.015 3.015 0 0 1 3.843 1.816ZM30.915 32.852c2.397.63 4.87-.808 5.526-3.211a4.45 4.45 0 0 0-3.153-5.493c-2.396-.63-4.87.808-5.526 3.212a4.45 4.45 0 0 0 3.153 5.492Z"/></g><defs><clipPath id="a"><path fill="#fff" d="M0 0h64v64H0z"/></clipPath></defs></svg>
