<svg xmlns="http://www.w3.org/2000/svg" width="162" height="187" fill="none" viewBox="0 0 162 187"><g clip-path="url(#a)"><path fill="var(--mystic, #D2D6E7)" d="M.227 5.67A5.67 5.67 0 0 1 5.897 0H95.37a5.67 5.67 0 0 1 5.67 5.67v16.895A5.67 5.67 0 0 0 103 26.85l3.229 2.796a5.67 5.67 0 0 1 1.959 4.287v56.14a5.669 5.669 0 0 1-1.384 3.712l-4.379 5.054a5.669 5.669 0 0 0-1.384 3.713v19.959a5.67 5.67 0 0 1-5.67 5.669H5.896a5.67 5.67 0 0 1-5.67-5.669V5.67Z"/><path fill="var(--casper, #9FAAC4)" d="M26.121 25.151a5.493 5.493 0 0 1 2.916-4.85l3.944-2.096a5.504 5.504 0 0 1 2.714-.642l85.873 2.053a5.497 5.497 0 0 1 5.368 5.492v17.284c0 1.593.692 3.108 1.897 4.151l3.352 2.902a5.492 5.492 0 0 1 1.898 4.152v56.289a5.49 5.49 0 0 1-1.341 3.595l-4.098 4.731a5.485 5.485 0 0 0-1.259 4.54l3.276 18.735c.588 3.361-2.001 6.439-5.416 6.439H31.62a5.496 5.496 0 0 1-5.499-5.493V25.152Z"/><path fill="var(--porcelain, #ECEEF5)" d="M30.703 22.491a5.496 5.496 0 0 1 5.5-5.493h89.816a5.496 5.496 0 0 1 5.499 5.493v17.154c0 1.593.692 3.108 1.897 4.151l3.352 2.902a5.492 5.492 0 0 1 1.898 4.152v56.289a5.488 5.488 0 0 1-1.341 3.595l-4.466 5.155a5.492 5.492 0 0 0-1.34 3.594v20.203a5.496 5.496 0 0 1-5.499 5.493H36.202a5.496 5.496 0 0 1-5.499-5.493V22.491Z"/><path fill="var(--mystic, #D2D6E7)" d="M39.848 48.482c0-.808.615-1.463 1.374-1.463h35.386c.759 0 1.374.655 1.374 1.463 0 .809-.615 1.464-1.374 1.464H41.222c-.759 0-1.374-.655-1.374-1.464ZM39.848 70.437c0-.827.463-1.498 1.035-1.498H67.54c.572 0 1.035.67 1.035 1.498 0 .827-.463 1.498-1.035 1.498H40.883c-.572 0-1.035-.67-1.035-1.498ZM40.883 91.907c-.572 0-1.035.67-1.035 1.498 0 .827.463 1.498 1.035 1.498H67.54c.572 0 1.035-.67 1.035-1.498s-.463-1.498-1.035-1.498H40.883Z"/><path fill="var(--casper, #9FAAC4)" fill-rule="evenodd" d="M66.992 58.44c0-1.347 1.026-2.438 2.291-2.438h57.15c1.265 0 2.291 1.09 2.291 2.437 0 1.346-1.026 2.438-2.291 2.438h-57.15c-1.265 0-2.29-1.092-2.29-2.438ZM66.992 79.358c0-1.347 1.026-2.438 2.291-2.438h57.15c1.265 0 2.291 1.091 2.291 2.438 0 1.346-1.026 2.437-2.291 2.437h-57.15c-1.265 0-2.29-1.091-2.29-2.437ZM66.992 101.361c0-1.346 1.026-2.438 2.291-2.438h57.15c1.265 0 2.291 1.092 2.291 2.438s-1.026 2.438-2.291 2.438h-57.15c-1.265 0-2.29-1.092-2.29-2.438Z" clip-rule="evenodd"/><path fill="var(--casper, #9FAAC4)" fill-rule="evenodd" d="M129.076 119.184c20.393-11.487 29.411-36.66 20.169-58.776-9.969-23.853-37.407-35.117-61.284-25.158-23.877 9.959-35.152 37.369-25.184 61.222 9.243 22.117 33.503 33.41 56.018 27.001l4.257 10.186-.101.043a3.66 3.66 0 0 0-1.97 4.79l17.623 42.169c1.987 4.756 7.457 7.002 12.218 5.016 6.368-2.019 9.57-5.444 9.634-9.328.021-1.261-.497-2.451-1.07-3.574l-21.167-41.473a3.667 3.667 0 0 0-4.795-1.968l-.09.037-4.258-10.187Zm15.094-56.66c8.799 21.055-1.153 45.248-22.227 54.038-21.075 8.79-45.293-1.152-54.091-22.206-8.799-21.054 1.153-45.247 22.228-54.037 21.074-8.79 45.292 1.152 54.09 22.206Z" clip-rule="evenodd"/><path fill="var(--casper, #9FAAC4)" d="M129.665 123.266a46.706 46.706 0 0 0 5.056-2.475l-1.723-4.122-10.51 4 1.859 4.448a46.71 46.71 0 0 0 5.318-1.851Z"/><path fill="var(--mystic, #D2D6E7)" fill-rule="evenodd" d="M133.311 117.42c20.389-11.489 29.406-36.66 20.164-58.774-9.968-23.854-37.406-35.118-61.283-25.159-23.878 9.959-35.153 37.37-25.184 61.223 9.243 22.117 33.505 33.411 56.022 26.999l4.257 10.186-.102.042a3.662 3.662 0 0 0-1.97 4.791l17.623 42.169c1.987 4.756 7.458 7.001 12.218 5.016 4.76-1.986 7.008-7.45 5.021-12.206l-17.624-42.169a3.668 3.668 0 0 0-4.795-1.969l-.09.038-4.257-10.187Zm15.09-56.658c8.799 21.054-1.153 45.247-22.228 54.037-21.075 8.79-45.292-1.152-54.09-22.206-8.8-21.053 1.152-45.247 22.227-54.037s45.292 1.152 54.091 22.206Z" clip-rule="evenodd"/><path fill="var(--casper, #9FAAC4)" d="m137.567 127.61-11.043 4.629-.696-1.488 11.739-3.141Z"/></g><defs><clipPath id="a"><path fill="var(--white, #fff)" d="M.227 0h161v187h-161z"/></clipPath></defs></svg>
