<svg width="167" height="194" fill="none" xmlns="http://www.w3.org/2000/svg">
   <g clip-path="url(#a)">
      <path d="M.063 6.347a5.67 5.67 0 0 1 5.67-5.67h92.605a5.67 5.67 0 0 1 5.67 5.67v17.704c0 1.645.714 3.208 1.956 4.285l3.456 2.995a5.67 5.67 0 0 1 1.957 4.285V93.71a5.67 5.67 0 0 1-1.383 3.71l-4.604 5.32a5.675 5.675 0 0 0-1.382 3.71v20.851a5.67 5.67 0 0 1-5.67 5.67H5.732a5.67 5.67 0 0 1-5.67-5.67V6.347Z" fill="var(--mystic, #D2D6E7)"/>
      <path d="M26.758 26.636a5.67 5.67 0 0 1 3.006-5.005l4.066-2.164a5.668 5.668 0 0 1 2.8-.663l88.539 2.12a5.67 5.67 0 0 1 5.534 5.668V44.43c0 1.644.714 3.208 1.957 4.284l3.456 2.995a5.671 5.671 0 0 1 1.956 4.285v58.096a5.675 5.675 0 0 1-1.382 3.71l-4.226 4.882a5.673 5.673 0 0 0-1.298 4.686l3.379 19.337c.606 3.469-2.064 6.645-5.585 6.645H32.428a5.67 5.67 0 0 1-5.67-5.67V26.636Z" fill="var(--casper, #9FAAC4)"/>
      <path d="M31.484 23.89a5.67 5.67 0 0 1 5.67-5.669h92.606a5.67 5.67 0 0 1 5.67 5.67v17.704c0 1.644.714 3.208 1.956 4.284l3.456 2.995a5.669 5.669 0 0 1 1.957 4.285v58.096a5.67 5.67 0 0 1-1.383 3.71l-4.604 5.32a5.666 5.666 0 0 0-1.382 3.71v20.85a5.67 5.67 0 0 1-5.67 5.67H37.154a5.67 5.67 0 0 1-5.67-5.67V23.891Z" fill="var(--porcelain, #ECEEF5)"/>
      <path d="M40.969 50.734c0-.783.634-1.418 1.417-1.418H78.87a1.417 1.417 0 0 1 0 2.835H42.386a1.417 1.417 0 0 1-1.417-1.417ZM40.969 73.177c0-.783.634-1.418 1.417-1.418h24.081a1.418 1.418 0 0 1 0 2.835h-24.08a1.417 1.417 0 0 1-1.418-1.417ZM42.386 95.427a1.417 1.417 0 0 0 0 2.835h26.652a1.417 1.417 0 1 0 0-2.835H42.386Z" fill="var(--mystic, #D2D6E7)"/>
      <path fill-rule="evenodd" clip-rule="evenodd" d="M71.136 58.866a2.362 2.362 0 0 0 0 4.725h58.924a2.363 2.363 0 1 0 0-4.725H71.136ZM64.793 83.59a2.362 2.362 0 0 1 2.362-2.363h62.906a2.363 2.363 0 1 1 0 4.725H67.155a2.362 2.362 0 0 1-2.362-2.362Zm6.681 21.487a2.363 2.363 0 0 1 2.363-2.363h56.224a2.363 2.363 0 0 1 0 4.725H73.837a2.363 2.363 0 0 1-2.363-2.362Z" fill="var(--casper, #9FAAC4)"/>
      <path fill-rule="evenodd" clip-rule="evenodd" d="M132.912 123.686c21.026-11.856 30.324-37.837 20.795-60.662C143.429 38.405 115.139 26.78 90.52 37.06 65.9 47.337 54.276 75.626 64.554 100.245c9.53 22.826 34.543 34.482 57.758 27.867l4.389 10.514-.104.043a3.78 3.78 0 0 0-2.032 4.944l18.171 43.523c2.049 4.908 7.689 7.225 12.597 5.176 6.566-2.084 9.868-5.619 9.934-9.627.021-1.301-.513-2.529-1.104-3.689l-21.824-42.803a3.78 3.78 0 0 0-4.944-2.032l-.094.039-4.389-10.514Zm15.563-58.477c9.072 21.729-1.189 46.698-22.918 55.77-21.73 9.072-46.699-1.189-55.77-22.918-9.073-21.73 1.188-46.699 22.917-55.77 21.73-9.072 46.699 1.188 55.771 22.918Z" fill="var(--casper, #9FAAC4)"/>
      <path d="M133.524 127.899a47.876 47.876 0 0 0 5.213-2.555l-1.775-4.253-10.837 4.128 1.917 4.591a47.987 47.987 0 0 0 5.482-1.911Z" fill="var(--casper, #9FAAC4)"/>
      <path fill-rule="evenodd" clip-rule="evenodd" d="M137.279 121.865c21.023-11.858 30.32-37.836 20.791-60.66-10.278-24.619-38.568-36.244-63.187-25.966C70.264 45.518 58.64 73.807 68.917 98.426c9.53 22.827 34.546 34.483 57.762 27.865l4.39 10.514-.105.043a3.78 3.78 0 0 0-2.032 4.945l18.17 43.522c2.05 4.908 7.69 7.226 12.598 5.176 4.908-2.049 7.226-7.689 5.177-12.597l-18.171-43.522a3.78 3.78 0 0 0-4.944-2.032l-.093.039-4.39-10.514Zm15.559-58.476c9.072 21.73-1.189 46.699-22.918 55.771-21.729 9.072-46.699-1.189-55.77-22.918-9.073-21.73 1.188-46.699 22.918-55.77 21.729-9.073 46.698 1.188 55.77 22.917Z" fill="var(--mystic, #D2D6E7)"/>
      <path d="m141.666 132.383-11.386 4.776-.718-1.534 12.104-3.242Z" fill="var(--casper, #9FAAC4)"/>
   </g>
   <defs>
      <clipPath id="a">
         <path fill="var(--white, #fff)" transform="translate(.063 .678)" d="M0 0h166v193H0z"/>
      </clipPath>
   </defs>
</svg>
