<svg width="40" height="40" viewBox="0 0 40 40" fill="none" xmlns="http://www.w3.org/2000/svg">
<rect width="40" height="40" rx="6" fill="#EDF8F5"/>
<path fill-rule="evenodd" clip-rule="evenodd" d="M28.6003 13.3967C28.0773 16.1768 24.5816 16.5851 23.1548 19.8927C20.8473 25.2419 29.9674 24.9391 28.3021 27.4485C25.5358 31.614 12.429 26.8934 11.1399 20.7827C10.4701 17.6035 12.2868 15.6125 14.8513 13.704C18.9709 10.6349 29.5545 8.3182 28.6003 13.3967Z" fill="#B0EBDB"/>
<path fill-rule="evenodd" clip-rule="evenodd" d="M21.4286 9.42052L22.6437 7.01652C23.1192 7.09189 23.5761 7.25662 23.9906 7.49831L23.4196 10.1607L21.4286 9.42052ZM20.9747 10.3186L18.4399 15.3336L18.4398 15.3338C18.0818 16.041 17.8107 16.7883 17.6268 17.5586L17.6267 17.5592L15.42 26.9082L16.9915 27.508L21.2287 18.9109L21.2289 18.9106C21.5965 18.1621 21.8719 17.3751 22.0466 16.5627L23.2076 11.1488L20.9747 10.3186ZM24.1549 11.501L23.0243 16.7727L23.0242 16.7729C22.8319 17.667 22.5293 18.5314 22.1263 19.3518L22.126 19.3524L17.7367 28.2579V30.3985C17.7367 30.65 17.6095 30.8899 17.387 31.029L17.3842 31.0307C16.3265 31.6819 15.4008 32.5205 14.6544 33.5112L14.6541 33.5116L13.9753 33.3165L14.1034 33.4126L14.5034 33.7126C14.1205 34.2231 13.2779 33.9506 13.3102 33.2852L13.3147 33.1608L13.3148 33.1567C13.3719 31.854 13.201 30.5474 12.8073 29.3073C12.7144 29.0315 12.7921 28.753 12.961 28.5599L12.9648 28.5556L12.9648 28.5556L14.3754 26.9805L16.6537 17.3283L16.654 17.3271C16.8555 16.4828 17.1531 15.6615 17.5474 14.8825L17.5476 14.8822L21.8083 6.45242L21.8089 6.45129C21.9671 6.13609 22.305 5.97045 22.6327 6.00435L22.6482 6.00595L22.6635 6.0085L22.6827 6.01171C23.381 6.10476 24.0473 6.34981 24.6367 6.72078C24.9244 6.90134 25.069 7.24572 24.9966 7.57593L24.9962 7.57815L24.3668 10.5129L25.5804 10.9641C26.3216 11.2359 26.6857 12.0588 26.4177 12.7853L26.4173 12.7865L22.8344 22.4205C22.7381 22.6793 22.4503 22.8111 22.1914 22.7148C21.9326 22.6186 21.8008 22.3307 21.8971 22.0719L25.4795 12.4392L25.4797 12.4386C25.5598 12.2207 25.4475 11.9802 25.2357 11.9028L25.2331 11.9019L25.2331 11.9019L24.1549 11.501ZM14.1034 33.4126L14.5034 33.7126L14.6541 33.5116L14.1034 33.4126ZM16.7367 28.4851L14.9754 27.8095L13.7978 29.1244C14.1163 30.1655 14.2913 31.2467 14.321 32.3339C15.02 31.5272 15.8338 30.8285 16.7367 30.2561V28.4851Z" fill="#393F56"/>
</svg>
