<svg width="135" height="40" fill="none" xmlns="http://www.w3.org/2000/svg"><path d="M130 40H5a5 5 0 0 1-5-5V5a5 5 0 0 1 5-5h125a5 5 0 0 1 5 5v30a5 5 0 0 1-5 5Z" fill="#000"/><path d="M47.4 10.2c0 .8-.2 1.5-.7 2a3 3 0 0 1-2.2.9 3 3 0 0 1-2.2-.9 3 3 0 0 1-.9-2.2c0-.9.3-1.6.9-2.2a3 3 0 0 1 3.4-.6c.4.2.7.4.9.7l-.5.5c-.4-.5-.9-.7-1.6-.7a2 2 0 0 0-1.6.7c-.5.4-.7 1-.7 1.7s.2 1.3.7 1.7c.5.4 1 .7 1.6.7.7 0 1.2-.2 1.7-.7.3-.3.5-.7.5-1.2h-2.2v-.7h2.9v.3ZM52 7.7h-2.7v1.9h2.5v.7h-2.5v1.9H52v.8h-3.5V7H52v.7ZM55.3 13h-.8V7.7h-1.7V7H57v.7h-1.7V13ZM59.9 13V7h.8v6h-.8ZM64.1 13h-.8V7.7h-1.7V7h4.1v.7H64V13h.1ZM73.6 12.2a3 3 0 0 1-2.2.9 3 3 0 0 1-2.2-.9 3 3 0 0 1-.9-2.2c0-.9.3-1.6.9-2.2a3 3 0 0 1 2.2-.9 3 3 0 0 1 2.2.9c.6.6.9 1.3.9 2.2a3 3 0 0 1-.9 2.2Zm-3.8-.5c.4.4 1 .7 1.6.7a2 2 0 0 0 1.6-.7c.4-.4.7-1 .7-1.7s-.2-1.3-.7-1.7c-.4-.4-1-.7-1.6-.7a2 2 0 0 0-1.6.7c-.4.4-.7 1-.7 1.7s.2 1.3.7 1.7ZM75.6 13V7h.9l2.9 4.7V7h.8v6h-.8l-3.1-4.9V13h-.7Z" fill="#fff" stroke="#fff" stroke-width=".2" stroke-miterlimit="10"/><path d="M68.1 21.8a4.2 4.2 0 0 0-4.3 4.3c0 2.4 1.9 4.3 4.3 4.3s4.3-1.8 4.3-4.3c0-2.6-1.9-4.3-4.3-4.3Zm0 6.8c-1.3 0-2.4-1.1-2.4-2.6s1.1-2.6 2.4-2.6c1.3 0 2.4 1 2.4 2.6 0 1.5-1.1 2.6-2.4 2.6Zm-9.3-6.8a4.2 4.2 0 0 0-4.3 4.3c0 2.4 1.9 4.3 4.3 4.3s4.3-1.8 4.3-4.3c0-2.6-1.9-4.3-4.3-4.3Zm0 6.8c-1.3 0-2.4-1.1-2.4-2.6s1.1-2.6 2.4-2.6c1.3 0 2.4 1 2.4 2.6 0 1.5-1.1 2.6-2.4 2.6Zm-11.1-5.5v1.8H52c-.1 1-.5 1.8-1 2.3-.6.6-1.6 1.3-3.3 1.3a4.7 4.7 0 0 1-4.7-4.8 4.7 4.7 0 0 1 8-3.5l1.3-1.3a6.4 6.4 0 0 0-4.5-1.8c-3.6 0-6.7 3-6.7 6.6 0 3.6 3.1 6.6 6.7 6.6a6 6 0 0 0 6.2-6.1l-.1-1.1h-6.2Zm45.4 1.4c-.4-1-1.4-2.7-3.6-2.7s-4 1.7-4 4.3c0 2.4 1.8 4.3 4.2 4.3 1.9 0 3.1-1.2 3.5-1.9l-1.4-1c-.5.7-1.1 1.2-2.1 1.2s-1.6-.4-2.1-1.3l5.7-2.4-.2-.5Zm-5.8 1.4c0-1.6 1.3-2.5 2.2-2.5.7 0 1.4.4 1.6.9l-3.8 1.6ZM82.6 30h1.9V17.5h-1.9V30Zm-3-7.3c-.5-.5-1.3-1-2.3-1a4.3 4.3 0 0 0-4.1 4.3c0 2.4 1.9 4.2 4.1 4.2 1 0 1.8-.5 2.2-1h.1v.6c0 1.6-.9 2.5-2.3 2.5-1.1 0-1.9-.8-2.1-1.5l-1.6.7a4.1 4.1 0 0 0 3.8 2.5c2.2 0 4-1.3 4-4.4V22h-1.8v.7Zm-2.2 5.9c-1.3 0-2.4-1.1-2.4-2.6s1.1-2.6 2.4-2.6c1.3 0 2.3 1.1 2.3 2.6s-1 2.6-2.3 2.6Zm24.4-11.1h-4.5V30h1.9v-4.7h2.6c2.1 0 4.1-1.5 4.1-3.9s-2-3.9-4.1-3.9Zm.1 6h-2.7v-4.3h2.7c1.4 0 2.2 1.2 2.2 2.1-.1 1.1-.9 2.2-2.2 2.2Zm11.5-1.8c-1.4 0-2.8.6-3.3 1.9l1.7.7c.4-.7 1-.9 1.7-.9 1 0 1.9.6 2 1.6v.1a4 4 0 0 0-1.9-.5c-1.8 0-3.6 1-3.6 2.8 0 1.7 1.5 2.8 3.1 2.8 1.3 0 1.9-.6 2.4-1.2h.1v1h1.8v-4.8c-.2-2.2-1.9-3.5-4-3.5Zm-.2 6.9c-.6 0-1.5-.3-1.5-1.1 0-1 1.1-1.3 2-1.3.8 0 1.2.2 1.7.4-.2 1.2-1.2 2-2.2 2Zm10.5-6.6-2.1 5.4h-.1l-2.2-5.4h-2l3.3 7.6-1.9 4.2h1.9l5.1-11.8h-2Zm-16.8 8h1.9V17.5h-1.9V30Z" fill="#fff"/><path d="M10.4 7.5a2 2 0 0 0-.5 1.4V31c0 .6.2 1.1.5 1.4l.1.1 12.4-12.4v-.2L10.4 7.5Z" fill="#00D2FF"/><path d="m27 24.3-4.1-4.1V19.9l4.1-4.1.1.1 4.9 2.8c1.4.8 1.4 2.1 0 2.9l-5 2.7Z" fill="#FFBD00"/><path d="M27.1 24.2 22.9 20 10.4 32.5c.5.5 1.2.5 2.1.1l14.6-8.4Z" fill="#FF3A44"/><path d="M27.1 15.8 12.5 7.5c-.9-.5-1.6-.4-2.1.1L22.9 20l4.2-4.2Z" fill="#00F076"/><path opacity=".2" d="m27 24.1-14.5 8.2c-.8.5-1.5.4-2 0l-.1.1.1.1c.5.4 1.2.5 2 0L27 24.1Z" fill="#000"/><path opacity=".1" d="M10.4 32.3c-.3-.3-.4-.8-.4-1.4v.1c0 .6.2 1.1.5 1.4v-.1h-.1ZM32 21.3l-5 2.8.1.1 4.9-2.8c.7-.4 1-.9 1-1.4 0 .5-.4.9-1 1.3Z" fill="#000"/><path opacity=".3" d="M12.5 7.6 32 18.7c.6.4 1 .8 1 1.3 0-.5-.3-1-1-1.4L12.5 7.5C11.1 6.7 10 7.4 10 9v.1c0-1.6 1.1-2.3 2.5-1.5Z" fill="#fff"/></svg>
