<svg width="191" height="182" viewBox="0 0 191 182" fill="none" xmlns="http://www.w3.org/2000/svg">
  <g clip-path="url(#clip0_16203_83341)">
    <path d="M50.2689 135.166C50.3634 131.021 55.2161 127.379 63.254 124.938C63.37 126.374 63.5496 128.248 63.8324 129.801C64.1218 131.389 64.6761 132.962 65.1933 134.347C65.7045 135.717 66.3698 136.976 67.2536 137.832L67.6251 138.17C69.5608 139.847 72.7083 141.241 76.5301 142.264C80.6402 143.364 85.6498 144.067 91.0537 144.195L92.0046 144.211C96.7438 144.263 101.17 143.858 104.93 143.103C108.917 142.302 112.238 141.091 114.374 139.547L114.595 139.382C116.839 137.635 118.369 134.417 119.201 131.407C119.645 129.799 119.931 128.135 120.13 126.579C121.285 127.01 122.291 127.416 123.3 127.891C128.786 130.47 132.026 133.649 131.95 137.026C131.769 144.963 113.338 150.98 90.7822 150.466C68.2267 149.952 50.0881 143.102 50.2689 135.166Z" fill="var(--porcelain, #ECEEF5)"/>
    <path fill-rule="evenodd" clip-rule="evenodd" d="M124.53 45.5531C125.648 48.9773 126.215 52.6437 126.129 56.4455C125.832 69.4524 117.967 80.5203 106.807 85.5976C103.584 87.0635 101.723 87.9106 101.164 88.2443C100.83 88.4437 100.824 88.8704 101.164 89.092C101.73 89.4593 103.545 90.3871 106.662 91.9801C117.579 97.5608 124.932 108.978 124.636 121.985C124.547 125.902 123.77 129.643 122.425 133.097C121.774 134.768 121.038 136.665 119.974 138.131C117.255 141.88 107.38 144.607 95.1282 144.909L75.8807 149.137C60.6669 146.962 49.6946 140.806 50.2697 134.974C50.4393 131.752 53.4775 128.86 58.8879 126.519C58.6054 124.664 58.3826 122.416 58.4268 120.476C58.7236 107.467 66.5915 96.3967 77.7546 91.3203C81.0565 89.8188 82.9284 88.9674 83.4334 88.6522C83.7413 88.46 83.7123 88.0433 83.4334 87.8551C82.9176 87.507 81.0916 86.5736 77.9 84.943C66.9798 79.3634 59.6244 67.946 59.9205 54.937C60.0445 49.5002 61.4899 44.4005 63.9463 39.9369C70.1831 28.6042 110.308 28.1662 120.306 37.9594C122.434 40.0438 123.618 42.7614 124.53 45.5531ZM66.3532 61.0304C68.0891 70.6779 73.8457 78.7025 81.612 82.7336C82.6774 83.2866 83.8344 83.6544 84.8832 84.2325C87.487 85.6677 88.2482 88.264 87.0642 90.2752C86.2579 91.6447 84.865 92.2507 83.4334 92.765C80.1788 93.9342 77.3932 95.7596 74.6786 97.8446C69.9191 101.5 66.2714 106.538 64.4533 112.577C62.8358 117.95 62.9135 123.631 63.9121 129.114C64.2015 130.702 64.5915 132.289 65.1086 133.674C65.469 134.64 65.906 135.55 66.4422 136.303C67.1087 137.239 68.045 137.966 69.0096 138.575C70.913 139.777 73.4762 140.795 76.4459 141.59C85.509 144.015 95.6491 144.276 104.846 142.429C107.636 141.868 110.1 141.107 112.06 140.171C113.003 139.721 113.934 139.197 114.738 138.524C116.847 136.755 118.15 133.845 118.953 130.938C120.515 125.282 120.708 119.175 118.953 113.546C117.989 110.455 116.515 107.488 114.678 104.808C113.661 103.324 112.527 101.922 111.301 100.631C108.192 97.0124 104.445 94.791 100.218 92.765C99.044 92.2021 97.9604 91.4864 97.3551 90.2752C96.3386 88.2413 97.1714 85.9116 99.5715 84.732C100.408 84.3208 101.33 84.0964 102.194 83.7494C112.598 79.5715 120.178 68.5044 120.478 55.3413C120.511 53.8762 120.45 52.4332 120.306 51.0185C112.274 57.1893 86.4951 64.5335 66.3532 61.0304Z" fill="var(--mystic, #D2D6E7)"/>
    <path d="M52.6763 35.3887C53.3808 40.8873 71.2332 45.6748 93.2602 46.1766C114.942 46.6706 132.77 42.8317 134.234 37.5033C134.196 38.8329 134.139 40.8686 134.118 41.815C133.989 47.4784 115.599 51.6525 93.0433 51.1387C70.4877 50.6248 52.4732 45.6675 52.6023 40.0041C52.6346 38.5869 52.597 36.542 52.6763 35.3887Z" fill="var(--casper, #9FAAC4)"/>
    <path d="M91.627 25.6836L93.7275 25.7187C105.002 25.9756 115.182 27.3553 122.525 29.3779C126.197 30.3894 129.158 31.5609 131.19 32.8311C133.099 34.0238 134.177 35.2947 134.278 36.5918L134.285 36.8516C134.254 38.2386 133.103 39.5493 131.011 40.7275C128.922 41.9038 125.912 42.9391 122.197 43.7822C115.234 45.3629 105.806 46.2661 95.3643 46.1611L93.2627 46.126C81.9879 45.8691 71.8081 44.4895 64.4648 42.4668C60.7931 41.4554 57.8335 40.2838 55.8008 39.0137C53.8921 37.821 52.8142 36.5499 52.7129 35.2529L52.7061 34.9932C52.7377 33.6061 53.8886 32.2954 55.9805 31.1172C58.0689 29.941 61.079 28.9056 64.793 28.0625C71.7567 26.4817 81.1853 25.5786 91.627 25.6836Z" fill="var(--porcelain, #ECEEF5)" stroke="var(--porcelain, #ECEEF5)" stroke-width="0.101219"/>
    <path d="M52.6511 34.9867C52.522 40.65 70.7023 45.6577 93.2578 46.1716C96.4543 46.2445 99.5672 46.2231 102.556 46.1167C110.615 38.1575 53.9106 34.9792 81.1284 25.8721C64.701 26.8307 52.755 30.4259 52.6511 34.9867Z" fill="var(--mystic, #D2D6E7)"/>
    <path d="M92.8641 107.016C91.83 108.285 90.96 109.218 90.3886 109.801C85.7776 114.501 80.4407 119.281 73.151 121.172C70.5457 121.848 67.7725 122.055 65.2025 121.947C65.1839 120.052 65.3621 118.151 65.7201 116.29C66.7088 112.688 68.8037 109.761 72.8265 108.122C79.0347 105.593 85.6502 108.412 92.8641 107.016Z" fill="#6CC5AE"/>
    <path d="M65.2031 121.947C76.8415 122.334 84.2648 116.025 90.4078 109.764C95.3447 104.732 101.428 94.0615 108.959 101.199C110.55 102.707 112.009 104.42 113.284 106.28C116.491 110.959 118.484 116.499 118.494 121.91C118.464 124.918 118.1 127.951 117.298 130.854C116.496 133.758 115.265 136.276 113.514 137.641C112.201 138.633 110.654 139.291 109.107 139.822C105.713 140.985 101.071 141.798 95.854 142.02C89.5747 142.287 83.1612 141.824 77.0801 140.196C74.1089 139.401 70.9384 138.336 68.6225 136.227C68.0317 135.655 67.4861 134.699 67.0141 133.434C66.5234 132.119 66.1441 130.555 65.8623 128.949C65.4111 126.376 65.2208 123.752 65.2031 121.947Z" fill="var(--green-light-3, #B0EBDB)"/>
    <path d="M50.2639 135.141C50.0833 143.077 68.2274 149.951 90.7828 150.465C113.338 150.979 131.769 144.962 131.95 137.026C131.954 136.861 131.946 136.697 131.934 136.534C132.093 138.729 131.846 141.105 131.806 142.847C131.625 150.784 113.194 156.801 90.6387 156.287C68.0834 155.773 49.9457 148.922 50.1263 140.986C50.1655 139.268 50.16 136.872 50.2744 134.947C50.2705 135.011 50.2654 135.076 50.2639 135.141Z" fill="var(--casper, #9FAAC4)"/>
    <path d="M82.0127 1.41171C130.831 -5.04234 175.908 28.9092 183.007 77.7381C184.694 89.3445 184.084 100.763 181.517 111.528L189.777 115.103L169.522 128.625L165.543 104.614L173.613 108.107C175.653 98.7919 176.082 88.957 174.628 78.954C168.196 34.7124 127.353 3.95003 83.1209 9.79802C76.7692 10.6604 75.6866 2.28661 82.0127 1.41171Z" fill="var(--porcelain, #ECEEF5)"/>
    <path d="M25.7269 67.0277L16.3106 64.3197C12.1264 76.3301 10.6877 89.4947 12.6456 102.959C19.1073 147.39 60.1387 178.285 104.576 172.412C111.334 171.476 112.435 179.897 105.689 180.835C56.6446 187.317 11.3581 153.219 4.22644 104.18C2.09082 89.4943 3.62217 75.1127 8.1262 61.9667L0.230469 59.697L18.6681 43.625L25.7269 67.0277Z" fill="var(--mystic, #D2D6E7)"/>
  </g>

  <defs>
    <clipPath id="clip0_16203_83341">
      <rect width="190" height="182" fill="var(--white, #FFFFFF)" transform="translate(0.115234)"/>
    </clipPath>
  </defs>
</svg>

