<svg width="141" height="171" fill="none" xmlns="http://www.w3.org/2000/svg">
   <g clip-path="url(#a)">
      <path d="M10.606 65.862a5.023 5.023 0 0 1 5.023-5.023h108.953c.731 0 1.453.16 2.115.467l9.613 4.463a5.022 5.022 0 0 1 2.907 4.555v86.493a5.023 5.023 0 0 1-1.855 3.898l-9.349 7.599a5.02 5.02 0 0 1-3.168 1.125H15.629a5.023 5.023 0 0 1-5.023-5.023V65.862Z" fill="var(--casper, #9FAAC4)" stroke="var(--casper, #9FAAC4)" stroke-width="2.009"/>
      <path fill-rule="evenodd" clip-rule="evenodd" d="M76.047 14.507H72.39c-17.753 0-32.144 14.391-32.144 32.144v20.237h67.944V46.65c0-17.753-14.391-32.144-32.144-32.144ZM72.39.443c-25.52 0-46.207 20.688-46.207 46.208v34.3h96.071v-34.3c0-25.52-20.688-46.208-46.208-46.208H72.39Z" fill="var(--casper, #9FAAC4)"/>
      <path fill-rule="evenodd" clip-rule="evenodd" d="M69.012 14.507h-3.656c-17.753 0-32.144 14.391-32.144 32.144v20.237h67.944V46.65c0-17.753-14.392-32.144-32.144-32.144ZM65.356.443c-25.52 0-46.208 20.688-46.208 46.208v34.3h96.071v-34.3c0-25.52-20.688-46.208-46.207-46.208h-3.656Z" fill="var(--mystic, #D2D6E7)"/>
      <path d="M19.148 59.872h16.71v-5.167l-16.71 3.568v1.6ZM101.32 59.872h16.709v-5.167l-16.709 3.568v1.6Z" fill="var(--casper, #9FAAC4)"/>
      <rect x=".223" y="59.834" width="130.767" height="110.609" rx="6.027" fill="var(--porcelain, #ECEEF5)"/>
      <mask id="b" style="mask-type:alpha" maskUnits="userSpaceOnUse" x="0" y="59" width="131" height="112">
         <rect x=".223" y="59.834" width="130.767" height="110.609" rx="6.027" fill="var(--porcelain, #ECEEF5)"/>
      </mask>
      <g mask="url(#b)">
         <path d="M130.989 59.834v110.609H.223c89.84 0 115.621-70.299 115.621-110.609h15.145Z" fill="var(--mystic, #D2D6E7)"/>
      </g>
      <path d="M71.048 123.87c4.985-2.06 8.475-6.822 8.475-12.368 0-7.432-6.268-13.457-14-13.457-7.731 0-14 6.025-14 13.457 0 5.538 3.482 10.295 8.456 12.36v6.863c0 2.938 2.478 5.32 5.534 5.32 3.057 0 5.535-2.382 5.535-5.32v-6.855Z" fill="var(--casper, #9FAAC4)"/>
   </g>
   <defs>
      <clipPath id="a">
         <path fill="var(--white, #fff)" transform="translate(.223 .443)" d="M0 0h139.999v170H0z"/>
      </clipPath>
   </defs>
</svg>
