<svg xmlns="http://www.w3.org/2000/svg" width="67" height="22" viewBox="0 0 67 22" fill="none">
  <path
    d="M0.539454 14.8876C0.866396 15.0674 1.25055 15.2247 1.69192 15.3596C2.14964 15.4794 2.61554 15.5393 3.0896 15.5393C3.62906 15.5393 4.08677 15.4195 4.46276 15.1798C4.83874 14.9251 5.02673 14.5206 5.02673 13.9663C5.02673 13.5019 4.9123 13.1199 4.68344 12.8202C4.45459 12.5206 4.16034 12.2509 3.8007 12.0112C3.45741 11.7715 3.08143 11.5543 2.67275 11.3596C2.26407 11.1498 1.87992 10.9026 1.52028 10.618C1.17699 10.3333 0.890916 9.99625 0.662057 9.60674C0.433198 9.21723 0.318768 8.72285 0.318768 8.1236C0.318768 7.16479 0.596668 6.44569 1.15247 5.96629C1.72462 5.47191 2.52563 5.22472 3.55549 5.22472C4.22572 5.22472 4.80605 5.28464 5.29646 5.40449C5.78687 5.50936 6.2119 5.65918 6.57153 5.85393L6.10564 7.20225C5.79505 7.05243 5.43541 6.93258 5.02673 6.8427C4.61805 6.73783 4.2012 6.68539 3.77618 6.68539C3.18768 6.68539 2.75449 6.79775 2.47659 7.02247C2.21503 7.24719 2.08425 7.59925 2.08425 8.07865C2.08425 8.45318 2.19869 8.77528 2.42754 9.04494C2.6564 9.29963 2.94248 9.53933 3.28577 9.76405C3.6454 9.97378 4.02956 10.191 4.43824 10.4157C4.84692 10.6404 5.2229 10.9101 5.56619 11.2247C5.92582 11.5243 6.22007 11.8914 6.44893 12.3258C6.67779 12.7453 6.79222 13.2772 6.79222 13.9213C6.79222 14.3408 6.71866 14.7378 6.57153 15.1124C6.42441 15.4869 6.19555 15.8165 5.88496 16.1011C5.59071 16.3708 5.21472 16.588 4.75701 16.7528C4.31563 16.9176 3.79253 17 3.18768 17C2.46841 17 1.84722 16.9326 1.32412 16.7978C0.801008 16.6779 0.359636 16.5131 0 16.3034L0.539454 14.8876Z"
    fill="var(--rhino,#2F354D)" />
  <path
    d="M8.89831 6.16854C9.37238 5.89888 9.94453 5.68914 10.6148 5.53933C11.3013 5.38951 12.0206 5.31461 12.7726 5.31461C13.4592 5.31461 14.0068 5.41199 14.4155 5.60674C14.8405 5.78652 15.1674 6.0412 15.3963 6.37079C15.6415 6.68539 15.7968 7.05243 15.8622 7.47191C15.9439 7.8764 15.9848 8.30337 15.9848 8.75281C15.9848 9.65169 15.9603 10.5281 15.9112 11.382C15.8785 12.236 15.8622 13.0449 15.8622 13.809C15.8622 14.3783 15.8785 14.9101 15.9112 15.4045C15.9603 15.8839 16.042 16.3408 16.1564 16.7753H14.8078L14.3909 15.4494H14.2929C14.0476 15.839 13.688 16.176 13.2139 16.4607C12.7399 16.7453 12.1023 16.8876 11.3013 16.8876C10.4186 16.8876 9.69115 16.6105 9.119 16.0562C8.5632 15.4869 8.2853 14.7079 8.2853 13.7191C8.2853 13.0749 8.39973 12.5356 8.62859 12.1011C8.87379 11.6667 9.20891 11.3146 9.63393 11.0449C10.0753 10.7753 10.5902 10.588 11.1787 10.4831C11.7836 10.3633 12.4538 10.3034 13.1894 10.3034C13.3529 10.3034 13.5164 10.3034 13.6798 10.3034C13.8433 10.3034 14.015 10.3109 14.1948 10.3258C14.2438 9.86142 14.2683 9.44944 14.2683 9.08989C14.2683 8.23596 14.1294 7.6367 13.8515 7.29214C13.5736 6.94757 13.0668 6.77528 12.3312 6.77528C11.8735 6.77528 11.3749 6.8427 10.8354 6.97753C10.296 7.09738 9.84645 7.25468 9.48681 7.44944L8.89831 6.16854ZM14.2193 11.6067C14.0558 11.5918 13.8924 11.5843 13.7289 11.5843C13.5654 11.5693 13.4019 11.5618 13.2385 11.5618C12.8461 11.5618 12.462 11.5918 12.086 11.6517C11.71 11.7116 11.3749 11.8165 11.0807 11.9663C10.7864 12.1161 10.5494 12.3184 10.3696 12.573C10.2061 12.8277 10.1243 13.1498 10.1243 13.5393C10.1243 14.1386 10.2796 14.603 10.5902 14.9326C10.9172 15.2622 11.334 15.427 11.8408 15.427C12.5274 15.427 13.0587 15.2772 13.4346 14.9775C13.8106 14.6779 14.0722 14.3483 14.2193 13.9888V11.6067Z"
    fill="var(--rhino,#2F354D)" />
  <path
    d="M25.116 16.7303V9.8764C25.116 8.75281 24.9689 7.94382 24.6747 7.44944C24.3968 6.94008 23.89 6.68539 23.1544 6.68539C22.5005 6.68539 21.961 6.86517 21.536 7.22472C21.111 7.58427 20.8004 8.02622 20.6042 8.55056V16.7303H18.8388V5.49438H20.1138L20.4326 6.68539H20.5062C20.8168 6.2809 21.2336 5.93633 21.7567 5.65169C22.2962 5.36704 22.9337 5.22472 23.6693 5.22472C24.1924 5.22472 24.6501 5.29214 25.0425 5.42697C25.4512 5.5618 25.7863 5.79401 26.0478 6.1236C26.3257 6.4382 26.5301 6.86517 26.6608 7.40449C26.808 7.94382 26.8815 8.62547 26.8815 9.44944V16.7303H25.116Z"
    fill="var(--rhino,#2F354D)" />
  <path
    d="M29.6144 1H31.3799V6.34831H31.4535C32.1237 5.59925 33.0146 5.22472 34.1262 5.22472C35.385 5.22472 36.3249 5.68165 36.9461 6.59551C37.5836 7.50936 37.9024 8.95506 37.9024 10.9326C37.9024 12.9551 37.4774 14.4607 36.6273 15.4494C35.7936 16.4382 34.6085 16.9326 33.0718 16.9326C32.3199 16.9326 31.6333 16.8577 31.0121 16.7079C30.3909 16.5431 29.925 16.3558 29.6144 16.1461V1ZM31.3799 15.0899C31.6088 15.2097 31.8867 15.3071 32.2136 15.382C32.5569 15.4419 32.9165 15.4719 33.2925 15.4719C34.1426 15.4719 34.8128 15.1049 35.3032 14.3708C35.81 13.6217 36.0634 12.4757 36.0634 10.9326C36.0634 10.2884 36.0143 9.71161 35.9162 9.20225C35.8345 8.6779 35.6956 8.22847 35.4994 7.85393C35.3196 7.4794 35.0744 7.19476 34.7638 7C34.4695 6.79026 34.1099 6.68539 33.6849 6.68539C33.0964 6.68539 32.6059 6.85019 32.2136 7.17978C31.8376 7.49438 31.5597 7.92884 31.3799 8.48315V15.0899Z"
    fill="var(--rhino,#2F354D)" />
  <path
    d="M40.1238 6.16854C40.5979 5.89888 41.17 5.68914 41.8403 5.53933C42.5268 5.38951 43.2461 5.31461 43.9981 5.31461C44.6847 5.31461 45.2323 5.41199 45.641 5.60674C46.066 5.78652 46.3929 6.0412 46.6218 6.37079C46.867 6.68539 47.0223 7.05243 47.0877 7.47191C47.1694 7.8764 47.2103 8.30337 47.2103 8.75281C47.2103 9.65169 47.1858 10.5281 47.1367 11.382C47.104 12.236 47.0877 13.0449 47.0877 13.809C47.0877 14.3783 47.104 14.9101 47.1367 15.4045C47.1858 15.8839 47.2675 16.3408 47.3819 16.7753H46.0333L45.6164 15.4494H45.5184C45.2732 15.839 44.9135 16.176 44.4395 16.4607C43.9654 16.7453 43.3279 16.8876 42.5269 16.8876C41.6441 16.8876 40.9167 16.6105 40.3445 16.0562C39.7887 15.4869 39.5108 14.7079 39.5108 13.7191C39.5108 13.0749 39.6252 12.5356 39.8541 12.1011C40.0993 11.6667 40.4344 11.3146 40.8594 11.0449C41.3008 10.7753 41.8158 10.588 42.4043 10.4831C43.0091 10.3633 43.6793 10.3034 44.4149 10.3034C44.5784 10.3034 44.7419 10.3034 44.9054 10.3034C45.0688 10.3034 45.2405 10.3109 45.4203 10.3258C45.4693 9.86142 45.4939 9.44944 45.4939 9.08989C45.4939 8.23596 45.3549 7.6367 45.077 7.29214C44.7991 6.94757 44.2923 6.77528 43.5567 6.77528C43.099 6.77528 42.6004 6.8427 42.061 6.97753C41.5215 7.09738 41.072 7.25468 40.7123 7.44944L40.1238 6.16854ZM45.4448 11.6067C45.2813 11.5918 45.1179 11.5843 44.9544 11.5843C44.7909 11.5693 44.6274 11.5618 44.464 11.5618C44.0716 11.5618 43.6875 11.5918 43.3115 11.6517C42.9355 11.7116 42.6004 11.8165 42.3062 11.9663C42.0119 12.1161 41.7749 12.3184 41.5951 12.573C41.4316 12.8277 41.3499 13.1498 41.3499 13.5393C41.3499 14.1386 41.5052 14.603 41.8158 14.9326C42.1427 15.2622 42.5595 15.427 43.0663 15.427C43.7529 15.427 44.2842 15.2772 44.6601 14.9775C45.0361 14.6779 45.2977 14.3483 45.4448 13.9888V11.6067Z"
    fill="var(--rhino,#2F354D)" />
  <path
    d="M49.8681 14.8876C50.195 15.0674 50.5792 15.2247 51.0206 15.3596C51.4783 15.4794 51.9442 15.5393 52.4182 15.5393C52.9577 15.5393 53.4154 15.4195 53.7914 15.1798C54.1674 14.9251 54.3554 14.5206 54.3554 13.9663C54.3554 13.5019 54.241 13.1199 54.0121 12.8202C53.7832 12.5206 53.489 12.2509 53.1293 12.0112C52.7861 11.7715 52.4101 11.5543 52.0014 11.3596C51.5927 11.1498 51.2086 10.9026 50.8489 10.618C50.5056 10.3333 50.2196 9.99625 49.9907 9.60674C49.7619 9.21723 49.6474 8.72285 49.6474 8.1236C49.6474 7.16479 49.9253 6.44569 50.4811 5.96629C51.0533 5.47191 51.8543 5.22472 52.8841 5.22472C53.5544 5.22472 54.1347 5.28464 54.6251 5.40449C55.1155 5.50936 55.5405 5.65918 55.9002 5.85393L55.4343 7.20225C55.1237 7.05243 54.7641 6.93258 54.3554 6.8427C53.9467 6.73783 53.5299 6.68539 53.1048 6.68539C52.5163 6.68539 52.0831 6.79775 51.8052 7.02247C51.5437 7.24719 51.4129 7.59925 51.4129 8.07865C51.4129 8.45318 51.5273 8.77528 51.7562 9.04494C51.985 9.29963 52.2711 9.53933 52.6144 9.76405C52.9741 9.97378 53.3582 10.191 53.7669 10.4157C54.1756 10.6404 54.5515 10.9101 54.8948 11.2247C55.2545 11.5243 55.5487 11.8914 55.7776 12.3258C56.0064 12.7453 56.1209 13.2772 56.1209 13.9213C56.1209 14.3408 56.0473 14.7378 55.9002 15.1124C55.7531 15.4869 55.5242 15.8165 55.2136 16.1011C54.9194 16.3708 54.5434 16.588 54.0857 16.7528C53.6443 16.9176 53.1212 17 52.5163 17C51.7971 17 51.1759 16.9326 50.6528 16.7978C50.1297 16.6779 49.6883 16.5131 49.3286 16.3034L49.8681 14.8876Z"
    fill="var(--rhino,#2F354D)" />
  <path
    d="M65.6812 15.9663C65.2889 16.2959 64.7903 16.5506 64.1855 16.7303C63.5806 16.9101 62.9431 17 62.2729 17C61.5046 17 60.8343 16.8652 60.2622 16.5955C59.7064 16.3109 59.2405 15.9139 58.8645 15.4045C58.5049 14.8801 58.2351 14.2584 58.0553 13.5393C57.8918 12.8202 57.8101 12.0112 57.8101 11.1124C57.8101 9.19476 58.1943 7.73408 58.9626 6.73034C59.7309 5.72659 60.818 5.22472 62.2238 5.22472C62.6815 5.22472 63.1311 5.27715 63.5725 5.38202C64.0302 5.48689 64.4389 5.69663 64.7985 6.01124C65.1581 6.32584 65.4442 6.76779 65.6567 7.33708C65.8856 7.90637 66 8.64794 66 9.5618C66 9.81648 65.9837 10.0936 65.951 10.3933C65.9346 10.6779 65.9101 10.9775 65.8774 11.2921H59.6492C59.6492 11.9363 59.7064 12.5206 59.8208 13.0449C59.9352 13.5693 60.1151 14.0187 60.3603 14.3933C60.6055 14.7528 60.9161 15.0375 61.292 15.2472C61.6844 15.4419 62.1666 15.5393 62.7388 15.5393C63.1801 15.5393 63.6133 15.4644 64.0384 15.3146C64.4797 15.1648 64.8148 14.985 65.0437 14.7753L65.6812 15.9663ZM64.3081 9.94382C64.3408 8.82022 64.1691 7.99625 63.7931 7.47191C63.4172 6.94757 62.9022 6.68539 62.2483 6.68539C61.4964 6.68539 60.8997 6.94757 60.4583 7.47191C60.017 7.99625 59.7554 8.82022 59.6737 9.94382H64.3081Z"
    fill="var(--rhino,#2F354D)" />
</svg>