<svg xmlns="http://www.w3.org/2000/svg" width="72" height="18" viewBox="0 0 72 18" fill="none">
  <path
    d="M0.588495 15.6236C0.945159 15.8258 1.36424 16.0028 1.84574 16.1545C2.34507 16.2893 2.85331 16.3567 3.37047 16.3567C3.95897 16.3567 4.4583 16.2219 4.86846 15.9522C5.27863 15.6657 5.48371 15.2107 5.48371 14.5871C5.48371 14.0646 5.35888 13.6348 5.10921 13.2978C4.85955 12.9607 4.53855 12.6573 4.14622 12.3876C3.77172 12.118 3.36156 11.8736 2.91573 11.6545C2.4699 11.4185 2.05082 11.1404 1.65849 10.8202C1.28399 10.5 0.971909 10.1208 0.722244 9.68258C0.472579 9.24438 0.347747 8.6882 0.347747 8.01405C0.347747 6.93539 0.650911 6.1264 1.25724 5.58708C1.8814 5.0309 2.75523 4.75281 3.87872 4.75281C4.60988 4.75281 5.24296 4.82023 5.77796 4.95506C6.31295 5.07303 6.77662 5.24157 7.16895 5.46067L6.6607 6.97753C6.32187 6.80899 5.92954 6.67416 5.48371 6.57303C5.03788 6.45506 4.58313 6.39607 4.11947 6.39607C3.47747 6.39607 3.00489 6.52247 2.70173 6.77528C2.4164 7.02809 2.27373 7.42416 2.27373 7.96348C2.27373 8.38483 2.39857 8.74719 2.64823 9.05056C2.8979 9.33708 3.20998 9.60674 3.58447 9.85955C3.9768 10.0955 4.39588 10.3399 4.84171 10.5927C5.28754 10.8455 5.69771 11.1489 6.0722 11.5028C6.46453 11.8399 6.78553 12.2528 7.0352 12.7416C7.28486 13.2135 7.40969 13.8118 7.40969 14.5365C7.40969 15.0084 7.32945 15.4551 7.16895 15.8764C7.00845 16.2978 6.75878 16.6685 6.41995 16.9888C6.09895 17.2921 5.68879 17.5365 5.18946 17.7219C4.70796 17.9073 4.1373 18 3.47747 18C2.69281 18 2.01515 17.9242 1.44449 17.7725C0.873827 17.6376 0.39233 17.4522 0 17.2163L0.588495 15.6236Z"
    fill="#2F354D" />
  <path
    d="M9.70725 5.81461C10.2244 5.51124 10.8486 5.27528 11.5797 5.10674C12.3287 4.9382 13.1134 4.85393 13.9337 4.85393C14.6827 4.85393 15.2801 4.96348 15.726 5.18258C16.1896 5.38483 16.5463 5.67135 16.7959 6.04214C17.0634 6.39607 17.2329 6.80899 17.3042 7.2809C17.3934 7.73596 17.4379 8.21629 17.4379 8.72191C17.4379 9.73315 17.4112 10.7191 17.3577 11.6798C17.322 12.6405 17.3042 13.5506 17.3042 14.4101C17.3042 15.0506 17.322 15.6489 17.3577 16.2051C17.4112 16.7444 17.5004 17.2584 17.6252 17.7472H16.154L15.6992 16.2556H15.5922C15.3247 16.6938 14.9324 17.073 14.4152 17.3933C13.8981 17.7135 13.2026 17.8736 12.3287 17.8736C11.3657 17.8736 10.5722 17.5618 9.948 16.9382C9.34167 16.2978 9.0385 15.4213 9.0385 14.309C9.0385 13.5843 9.16334 12.9775 9.413 12.4888C9.6805 12 10.0461 11.6039 10.5097 11.3006C10.9912 10.9972 11.553 10.7865 12.195 10.6685C12.8548 10.5337 13.586 10.4663 14.3885 10.4663C14.5668 10.4663 14.7451 10.4663 14.9235 10.4663C15.1018 10.4663 15.289 10.4747 15.4852 10.4916C15.5387 9.9691 15.5655 9.50562 15.5655 9.10112C15.5655 8.14045 15.4139 7.46629 15.1107 7.07865C14.8075 6.69101 14.2547 6.49719 13.4522 6.49719C12.9529 6.49719 12.409 6.57303 11.8205 6.72472C11.232 6.85955 10.7416 7.03652 10.3492 7.25562L9.70725 5.81461ZM15.512 11.9326C15.3336 11.9157 15.1553 11.9073 14.977 11.9073C14.7986 11.8905 14.6203 11.882 14.442 11.882C14.014 11.882 13.5949 11.9157 13.1847 11.9831C12.7746 12.0506 12.409 12.1685 12.088 12.3371C11.767 12.5056 11.5084 12.7331 11.3122 13.0197C11.1339 13.3062 11.0447 13.6685 11.0447 14.1067C11.0447 14.7809 11.2142 15.3034 11.553 15.6742C11.9096 16.0449 12.3644 16.2303 12.9172 16.2303C13.6662 16.2303 14.2458 16.0618 14.656 15.7247C15.0661 15.3876 15.3515 15.0169 15.512 14.6124V11.9326Z"
    fill="#2F354D" />
  <path
    d="M27.3993 17.6966V9.98596C27.3993 8.72191 27.2388 7.8118 26.9178 7.25562C26.6147 6.68259 26.0618 6.39607 25.2593 6.39607C24.546 6.39607 23.9575 6.59831 23.4938 7.00281C23.0302 7.4073 22.6914 7.90449 22.4774 8.49438V17.6966H20.5514V5.05618H21.9424L22.2901 6.39607H22.3704C22.7092 5.94101 23.1639 5.55337 23.7346 5.23315C24.3231 4.91292 25.0186 4.75281 25.8211 4.75281C26.3917 4.75281 26.8911 4.82865 27.3191 4.98034C27.7649 5.13202 28.1305 5.39326 28.4158 5.76405C28.719 6.11798 28.9419 6.59831 29.0846 7.20506C29.2451 7.8118 29.3253 8.57865 29.3253 9.50562V17.6966H27.3993Z"
    fill="#2F354D" />
  <path
    d="M32.3066 0H34.2326V6.01685H34.3129C35.044 5.17416 36.016 4.75281 37.2286 4.75281C38.6018 4.75281 39.6272 5.26685 40.3048 6.29494C41.0003 7.32303 41.3481 8.94944 41.3481 11.1742C41.3481 13.4494 40.8844 15.1433 39.9571 16.2556C39.0476 17.368 37.7547 17.9242 36.0784 17.9242C35.258 17.9242 34.509 17.8399 33.8314 17.6714C33.1537 17.486 32.6455 17.2753 32.3066 17.0393V0ZM34.2326 15.8511C34.4823 15.986 34.7855 16.0955 35.1421 16.1798C35.5166 16.2472 35.909 16.2809 36.3191 16.2809C37.2464 16.2809 37.9776 15.868 38.5126 15.0421C39.0654 14.1994 39.3418 12.9101 39.3418 11.1742C39.3418 10.4494 39.2883 9.80056 39.1813 9.22753C39.0922 8.63764 38.9406 8.13202 38.7266 7.71068C38.5304 7.28933 38.2629 6.9691 37.9241 6.75C37.6031 6.51405 37.2108 6.39607 36.7471 6.39607C36.1051 6.39607 35.5701 6.58146 35.1421 6.95225C34.732 7.30618 34.4288 7.79494 34.2326 8.41854V15.8511Z"
    fill="#2F354D" />
  <path
    d="M43.7714 5.81461C44.2886 5.51124 44.9128 5.27528 45.6439 5.10674C46.3929 4.9382 47.1776 4.85393 47.9979 4.85393C48.7469 4.85393 49.3443 4.96348 49.7901 5.18258C50.2538 5.38483 50.6105 5.67135 50.8601 6.04214C51.1276 6.39607 51.2971 6.80899 51.3684 7.2809C51.4576 7.73596 51.5021 8.21629 51.5021 8.72191C51.5021 9.73315 51.4754 10.7191 51.4219 11.6798C51.3862 12.6405 51.3684 13.5506 51.3684 14.4101C51.3684 15.0506 51.3862 15.6489 51.4219 16.2051C51.4754 16.7444 51.5646 17.2584 51.6894 17.7472H50.2181L49.7634 16.2556H49.6564C49.3889 16.6938 48.9966 17.073 48.4794 17.3933C47.9622 17.7135 47.2668 17.8736 46.3929 17.8736C45.4299 17.8736 44.6364 17.5618 44.0122 16.9382C43.4059 16.2978 43.1027 15.4213 43.1027 14.309C43.1027 13.5843 43.2275 12.9775 43.4772 12.4888C43.7447 12 44.1103 11.6039 44.5739 11.3006C45.0554 10.9972 45.6172 10.7865 46.2592 10.6685C46.919 10.5337 47.6502 10.4663 48.4527 10.4663C48.631 10.4663 48.8093 10.4663 48.9877 10.4663C49.166 10.4663 49.3532 10.4747 49.5494 10.4916C49.6029 9.9691 49.6297 9.50562 49.6297 9.10112C49.6297 8.14045 49.4781 7.46629 49.1749 7.07865C48.8717 6.69101 48.3189 6.49719 47.5164 6.49719C47.0171 6.49719 46.4732 6.57303 45.8847 6.72472C45.2962 6.85955 44.8058 7.03652 44.4134 7.25562L43.7714 5.81461ZM49.5762 11.9326C49.3978 11.9157 49.2195 11.9073 49.0412 11.9073C48.8628 11.8905 48.6845 11.882 48.5062 11.882C48.0782 11.882 47.6591 11.9157 47.2489 11.9831C46.8388 12.0506 46.4732 12.1685 46.1522 12.3371C45.8312 12.5056 45.5726 12.7331 45.3764 13.0197C45.1981 13.3062 45.1089 13.6685 45.1089 14.1067C45.1089 14.7809 45.2784 15.3034 45.6172 15.6742C45.9738 16.0449 46.4286 16.2303 46.9814 16.2303C47.7304 16.2303 48.31 16.0618 48.7202 15.7247C49.1303 15.3876 49.4157 15.0169 49.5762 14.6124V11.9326Z"
    fill="#2F354D" />
  <path
    d="M54.4016 15.6236C54.7582 15.8258 55.1773 16.0028 55.6588 16.1545C56.1581 16.2893 56.6664 16.3567 57.1835 16.3567C57.772 16.3567 58.2714 16.2219 58.6815 15.9522C59.0917 15.6657 59.2968 15.2107 59.2968 14.5871C59.2968 14.0646 59.1719 13.6348 58.9223 13.2978C58.6726 12.9607 58.3516 12.6573 57.9593 12.3876C57.5848 12.118 57.1746 11.8736 56.7288 11.6545C56.283 11.4185 55.8639 11.1404 55.4716 10.8202C55.0971 10.5 54.785 10.1208 54.5353 9.68258C54.2857 9.24438 54.1608 8.6882 54.1608 8.01405C54.1608 6.93539 54.464 6.1264 55.0703 5.58708C55.6945 5.0309 56.5683 4.75281 57.6918 4.75281C58.423 4.75281 59.056 4.82023 59.591 4.95506C60.126 5.07303 60.5897 5.24157 60.982 5.46067L60.4738 6.97753C60.1349 6.80899 59.7426 6.67416 59.2968 6.57303C58.8509 6.45506 58.3962 6.39607 57.9325 6.39607C57.2905 6.39607 56.818 6.52247 56.5148 6.77528C56.2295 7.02809 56.0868 7.42416 56.0868 7.96348C56.0868 8.38483 56.2116 8.74719 56.4613 9.05056C56.711 9.33708 57.023 9.60674 57.3975 9.85955C57.7899 10.0955 58.2089 10.3399 58.6548 10.5927C59.1006 10.8455 59.5108 11.1489 59.8853 11.5028C60.2776 11.8399 60.5986 12.2528 60.8483 12.7416C61.0979 13.2135 61.2228 13.8118 61.2228 14.5365C61.2228 15.0084 61.1425 15.4551 60.982 15.8764C60.8215 16.2978 60.5718 16.6685 60.233 16.9888C59.912 17.2921 59.5019 17.5365 59.0025 17.7219C58.521 17.9073 57.9504 18 57.2905 18C56.5059 18 55.8282 17.9242 55.2576 17.7725C54.6869 17.6376 54.2054 17.4522 53.8131 17.2163L54.4016 15.6236Z"
    fill="#2F354D" />
  <path
    d="M71.6523 16.8371C71.2243 17.2079 70.6804 17.4944 70.0205 17.6966C69.3607 17.8989 68.6652 18 67.934 18C67.0959 18 66.3647 17.8483 65.7406 17.5449C65.1342 17.2247 64.626 16.7781 64.2158 16.2051C63.8235 15.6152 63.5292 14.9157 63.3331 14.1067C63.1547 13.2978 63.0656 12.3876 63.0656 11.3764C63.0656 9.2191 63.4847 7.57584 64.3228 6.44663C65.161 5.31742 66.3469 4.75281 67.8805 4.75281C68.3799 4.75281 68.8703 4.8118 69.3518 4.92978C69.8511 5.04775 70.2969 5.28371 70.6893 5.63764C71.0816 5.99157 71.3937 6.48877 71.6255 7.12921C71.8752 7.76966 72 8.60393 72 9.63202C72 9.91854 71.9822 10.2303 71.9465 10.5674C71.9287 10.8876 71.9019 11.2247 71.8663 11.5787H65.0718C65.0718 12.3034 65.1342 12.9607 65.2591 13.5506C65.3839 14.1404 65.5801 14.6461 65.8475 15.0674C66.1151 15.4719 66.4539 15.7921 66.864 16.0281C67.292 16.2472 67.8181 16.3567 68.4423 16.3567C68.9238 16.3567 69.3964 16.2725 69.86 16.1039C70.3415 15.9354 70.7071 15.7331 70.9568 15.4972L71.6523 16.8371ZM70.1543 10.0618C70.1899 8.79775 70.0027 7.87079 69.5925 7.2809C69.1824 6.69101 68.6206 6.39607 67.9073 6.39607C67.087 6.39607 66.436 6.69101 65.9546 7.2809C65.4731 7.87079 65.1877 8.79775 65.0986 10.0618H70.1543Z"
    fill="#2F354D" />
</svg>