<svg width="67" height="22" viewBox="0 0 67 22" fill="none" xmlns="http://www.w3.org/2000/svg">
  <path
    d="M0.544462 15.2556C0.874439 15.4466 1.26216 15.6138 1.70763 15.757C2.1696 15.8844 2.63982 15.948 3.11828 15.948C3.66275 15.948 4.12471 15.8207 4.50419 15.566C4.88366 15.2954 5.0734 14.8656 5.0734 14.2767C5.0734 13.7832 4.95791 13.3773 4.72692 13.059C4.49594 12.7406 4.19896 12.4541 3.83599 12.1994C3.48951 11.9448 3.11003 11.714 2.69756 11.507C2.28509 11.2842 1.89737 11.0215 1.53439 10.7191C1.18792 10.4167 0.899187 10.0585 0.668203 9.64466C0.437219 9.2308 0.321728 8.70552 0.321728 8.06882C0.321728 7.05009 0.602208 6.28605 1.16317 5.77669C1.74063 5.2514 2.54907 4.98876 3.5885 4.98876C4.26495 4.98876 4.85066 5.05243 5.34563 5.17978C5.8406 5.2912 6.26957 5.45037 6.63254 5.6573L6.16232 7.08989C5.84885 6.93071 5.48587 6.80337 5.0734 6.70787C4.66093 6.59644 4.24021 6.54073 3.81124 6.54073C3.21728 6.54073 2.78006 6.66011 2.49958 6.89888C2.2356 7.13764 2.1036 7.5117 2.1036 8.02107C2.1036 8.41901 2.2191 8.76124 2.45008 9.04775C2.68106 9.31835 2.96979 9.57303 3.31627 9.8118C3.67924 10.0346 4.06697 10.2654 4.47944 10.5042C4.89191 10.743 5.27138 11.0295 5.61786 11.3638C5.98084 11.6821 6.27782 12.0721 6.5088 12.5337C6.73978 12.9794 6.85528 13.5445 6.85528 14.2289C6.85528 14.6746 6.78103 15.0964 6.63254 15.4944C6.48405 15.8923 6.25307 16.2425 5.93959 16.5449C5.64261 16.8315 5.26314 17.0623 4.80117 17.2374C4.3557 17.4125 3.82774 17.5 3.21728 17.5C2.49133 17.5 1.86437 17.4284 1.33641 17.2851C0.808444 17.1578 0.362975 16.9827 0 16.7598L0.544462 15.2556Z"
    fill="var(--rhino,#2F354D)" />
  <path
    d="M8.98092 5.99157C9.45939 5.70506 10.0368 5.48221 10.7133 5.32303C11.4063 5.16386 12.1322 5.08427 12.8911 5.08427C13.5841 5.08427 14.1368 5.18773 14.5493 5.39466C14.9783 5.58567 15.3082 5.85627 15.5392 6.20646C15.7867 6.54073 15.9434 6.93071 16.0094 7.3764C16.0919 7.80618 16.1332 8.25983 16.1332 8.73736C16.1332 9.69242 16.1084 10.6236 16.0589 11.5309C16.0259 12.4382 16.0094 13.2978 16.0094 14.1096C16.0094 14.7144 16.0259 15.2795 16.0589 15.8048C16.1084 16.3141 16.1909 16.7996 16.3064 17.2612H14.9453L14.5245 15.8525H14.4255C14.1781 16.2664 13.8151 16.6245 13.3366 16.927C12.8582 17.2294 12.2147 17.3806 11.4063 17.3806C10.5153 17.3806 9.78112 17.0861 9.20366 16.4972C8.64269 15.8923 8.36221 15.0646 8.36221 14.014C8.36221 13.3296 8.47771 12.7566 8.70869 12.2949C8.95617 11.8333 9.2944 11.4593 9.72337 11.1728C10.1688 10.8862 10.6886 10.6873 11.2825 10.5758C11.893 10.4485 12.5694 10.3848 13.3119 10.3848C13.4769 10.3848 13.6418 10.3848 13.8068 10.3848C13.9718 10.3848 14.1451 10.3928 14.3266 10.4087C14.376 9.91526 14.4008 9.47753 14.4008 9.09551C14.4008 8.1882 14.2606 7.5515 13.9801 7.18539C13.6996 6.81929 13.1881 6.63624 12.4457 6.63624C11.9837 6.63624 11.4805 6.70787 10.936 6.85112C10.3916 6.97846 9.93786 7.1456 9.57488 7.35253L8.98092 5.99157ZM14.3513 11.7697C14.1863 11.7537 14.0213 11.7458 13.8563 11.7458C13.6913 11.7299 13.5264 11.7219 13.3614 11.7219C12.9654 11.7219 12.5777 11.7537 12.1982 11.8174C11.8187 11.8811 11.4805 11.9925 11.1835 12.1517C10.8865 12.3109 10.6473 12.5257 10.4658 12.7963C10.3008 13.0669 10.2183 13.4092 10.2183 13.823C10.2183 14.4597 10.3751 14.9532 10.6886 15.3034C11.0185 15.6536 11.4393 15.8287 11.9507 15.8287C12.6437 15.8287 13.1799 15.6695 13.5594 15.3511C13.9388 15.0328 14.2028 14.6826 14.3513 14.3006V11.7697Z"
    fill="var(--rhino,#2F354D)" />
  <path
    d="M25.3492 17.2135V9.93118C25.3492 8.73736 25.2007 7.87781 24.9037 7.35253C24.6233 6.81133 24.1118 6.54073 23.3693 6.54073C22.7094 6.54073 22.1649 6.73174 21.736 7.11376C21.307 7.49579 20.9935 7.96536 20.7955 8.52247V17.2135H19.0136V5.27528H20.3006L20.6223 6.54073H20.6965C21.01 6.11096 21.4307 5.74485 21.9587 5.44242C22.5032 5.13998 23.1466 4.98876 23.8891 4.98876C24.417 4.98876 24.879 5.06039 25.275 5.20365C25.6874 5.34691 26.0257 5.59363 26.2896 5.94382C26.5701 6.27809 26.7764 6.73174 26.9083 7.30478C27.0568 7.87781 27.1311 8.60206 27.1311 9.47753V17.2135H25.3492Z"
    fill="var(--rhino,#2F354D)" />
  <path
    d="M29.8894 0.5H31.6712V6.18258H31.7455C32.4219 5.3867 33.3211 4.98876 34.443 4.98876C35.7135 4.98876 36.6621 5.47425 37.2891 6.44522C37.9325 7.4162 38.2543 8.95225 38.2543 11.0534C38.2543 13.2022 37.8253 14.802 36.9674 15.8525C36.1259 16.9031 34.9298 17.4284 33.3789 17.4284C32.6199 17.4284 31.927 17.3488 31.3 17.1896C30.6731 17.0145 30.2028 16.8155 29.8894 16.5927V0.5ZM31.6712 15.4705C31.9022 15.5978 32.1827 15.7013 32.5127 15.7809C32.8591 15.8446 33.2221 15.8764 33.6016 15.8764C34.4595 15.8764 35.136 15.4864 35.631 14.7065C36.1424 13.9106 36.3982 12.6929 36.3982 11.0534C36.3982 10.3689 36.3487 9.75609 36.2497 9.21489C36.1672 8.65777 36.0269 8.18024 35.8289 7.7823C35.6475 7.38436 35.4 7.08193 35.0865 6.875C34.7895 6.65215 34.4265 6.54073 33.9976 6.54073C33.4036 6.54073 32.9086 6.71582 32.5127 7.06601C32.1332 7.40028 31.8527 7.86189 31.6712 8.45084V15.4705Z"
    fill="var(--rhino,#2F354D)" />
  <path
    d="M40.4963 5.99157C40.9748 5.70506 41.5522 5.48221 42.2287 5.32303C42.9216 5.16386 43.6476 5.08427 44.4065 5.08427C45.0995 5.08427 45.6522 5.18773 46.0647 5.39466C46.4937 5.58567 46.8236 5.85627 47.0546 6.20646C47.3021 6.54073 47.4588 6.93071 47.5248 7.3764C47.6073 7.80618 47.6486 8.25983 47.6486 8.73736C47.6486 9.69242 47.6238 10.6236 47.5743 11.5309C47.5413 12.4382 47.5248 13.2978 47.5248 14.1096C47.5248 14.7144 47.5413 15.2795 47.5743 15.8048C47.6238 16.3141 47.7063 16.7996 47.8218 17.2612H46.4607L46.0399 15.8525H45.9409C45.6935 16.2664 45.3305 16.6245 44.852 16.927C44.3735 17.2294 43.7301 17.3806 42.9217 17.3806C42.0307 17.3806 41.2965 17.0861 40.7191 16.4972C40.1581 15.8923 39.8776 15.0646 39.8776 14.014C39.8776 13.3296 39.9931 12.7566 40.2241 12.2949C40.4716 11.8333 40.8098 11.4593 41.2388 11.1728C41.6842 10.8862 42.204 10.6873 42.7979 10.5758C43.4084 10.4485 44.0848 10.3848 44.8273 10.3848C44.9923 10.3848 45.1572 10.3848 45.3222 10.3848C45.4872 10.3848 45.6605 10.3928 45.8419 10.4087C45.8914 9.91526 45.9162 9.47753 45.9162 9.09551C45.9162 8.1882 45.7759 7.5515 45.4955 7.18539C45.215 6.81929 44.7035 6.63624 43.9611 6.63624C43.4991 6.63624 42.9959 6.70787 42.4514 6.85112C41.907 6.97846 41.4533 7.1456 41.0903 7.35253L40.4963 5.99157ZM45.8667 11.7697C45.7017 11.7537 45.5367 11.7458 45.3717 11.7458C45.2067 11.7299 45.0418 11.7219 44.8768 11.7219C44.4808 11.7219 44.0931 11.7537 43.7136 11.8174C43.3341 11.8811 42.9959 11.9925 42.6989 12.1517C42.4019 12.3109 42.1627 12.5257 41.9812 12.7963C41.8162 13.0669 41.7337 13.4092 41.7337 13.823C41.7337 14.4597 41.8905 14.9532 42.2039 15.3034C42.5339 15.6536 42.9546 15.8287 43.4661 15.8287C44.1591 15.8287 44.6953 15.6695 45.0748 15.3511C45.4542 15.0328 45.7182 14.6826 45.8667 14.3006V11.7697Z"
    fill="var(--rhino,#2F354D)" />
  <path
    d="M50.3311 15.2556C50.661 15.4466 51.0488 15.6138 51.4942 15.757C51.9562 15.8844 52.4264 15.948 52.9049 15.948C53.4493 15.948 53.9113 15.8207 54.2908 15.566C54.6703 15.2954 54.86 14.8656 54.86 14.2767C54.86 13.7832 54.7445 13.3773 54.5135 13.059C54.2825 12.7406 53.9855 12.4541 53.6226 12.1994C53.2761 11.9448 52.8966 11.714 52.4842 11.507C52.0717 11.2842 51.684 11.0215 51.321 10.7191C50.9745 10.4167 50.6858 10.0585 50.4548 9.64466C50.2238 9.2308 50.1083 8.70552 50.1083 8.06882C50.1083 7.05009 50.3888 6.28605 50.9498 5.77669C51.5272 5.2514 52.3357 4.98876 53.3751 4.98876C54.0516 4.98876 54.6373 5.05243 55.1322 5.17978C55.6272 5.2912 56.0562 5.45037 56.4191 5.6573L55.9489 7.08989C55.6354 6.93071 55.2725 6.80337 54.86 6.70787C54.4475 6.59644 54.0268 6.54073 53.5978 6.54073C53.0039 6.54073 52.5667 6.66011 52.2862 6.89888C52.0222 7.13764 51.8902 7.5117 51.8902 8.02107C51.8902 8.41901 52.0057 8.76124 52.2367 9.04775C52.4677 9.31835 52.7564 9.57303 53.1029 9.8118C53.4658 10.0346 53.8536 10.2654 54.266 10.5042C54.6785 10.743 55.058 11.0295 55.4044 11.3638C55.7674 11.6821 56.0644 12.0721 56.2954 12.5337C56.5264 12.9794 56.6419 13.5445 56.6419 14.2289C56.6419 14.6746 56.5676 15.0964 56.4191 15.4944C56.2706 15.8923 56.0397 16.2425 55.7262 16.5449C55.4292 16.8315 55.0497 17.0623 54.5878 17.2374C54.1423 17.4125 53.6143 17.5 53.0039 17.5C52.2779 17.5 51.651 17.4284 51.123 17.2851C50.595 17.1578 50.1496 16.9827 49.7866 16.7598L50.3311 15.2556Z"
    fill="var(--rhino,#2F354D)" />
  <path
    d="M66.291 16.4017C65.895 16.7519 65.3918 17.0225 64.7813 17.2135C64.1709 17.4045 63.5274 17.5 62.851 17.5C62.0755 17.5 61.3991 17.3567 60.8216 17.0702C60.2607 16.7678 59.7904 16.346 59.411 15.8048C59.048 15.2477 58.7758 14.5871 58.5943 13.823C58.4293 13.059 58.3468 12.1994 58.3468 11.2444C58.3468 9.20693 58.7345 7.65496 59.51 6.58848C60.2854 5.522 61.3826 4.98876 62.8015 4.98876C63.2635 4.98876 63.7172 5.04448 64.1626 5.1559C64.6246 5.26732 65.0371 5.49017 65.4001 5.82444C65.763 6.15871 66.0518 6.62828 66.2662 7.23315C66.4972 7.83802 66.6127 8.62594 66.6127 9.59691C66.6127 9.86751 66.5962 10.162 66.5632 10.4803C66.5467 10.7828 66.522 11.1011 66.489 11.4354H60.2029C60.2029 12.1198 60.2607 12.7406 60.3762 13.2978C60.4916 13.8549 60.6731 14.3324 60.9206 14.7303C61.1681 15.1124 61.4816 15.4148 61.861 15.6376C62.257 15.8446 62.7437 15.948 63.3212 15.948C63.7667 15.948 64.2039 15.8684 64.6329 15.7093C65.0783 15.5501 65.4165 15.3591 65.6475 15.1362L66.291 16.4017ZM64.9051 10.0028C64.9381 8.80899 64.7648 7.93352 64.3854 7.3764C64.0059 6.81929 63.4862 6.54073 62.8262 6.54073C62.0673 6.54073 61.4651 6.81929 61.0196 7.3764C60.5741 7.93352 60.3102 8.80899 60.2277 10.0028H64.9051Z"
    fill="var(--rhino,#2F354D)" />
</svg>