<svg width="113" height="22" fill="none" xmlns="http://www.w3.org/2000/svg"><path d="M49.7 1.7c0-.5.1-1 .4-1.2.3-.3.6-.5 1-.5.5 0 .9.1 1.2.4.3.3.4.7.4 1.3 0 .4-.1.8-.4 1.1-.3.3-.7.4-1.1.4-.5 0-.8-.1-1.1-.4-.3-.3-.4-.7-.4-1.1ZM52.3 6.3v15.3H50V6.3h2.2ZM41.7 6.3h-1.9v2h1.9v9.4a6 6 0 0 0 .6 3.3c.5.6 1.2 1 2.2 1a7 7 0 0 0 3.2-.8l-.5-1.7-1 .3-1 .2c-.5 0-.8-.2-1-.6-.2-.4-.3-1-.3-2V8.3h3.3v-2h-3.3V2.6l-2.2.7v3ZM5.3 19.1a6.6 6.6 0 0 0 3.1 1c.7 0 1.3-.3 1.7-.6.5-.3.7-.9.7-1.6 0-.7-.1-1.2-.4-1.6l-1-1.1-1.5-1c-.5-.2-1-.5-1.4-1A4.2 4.2 0 0 1 5 9.9c0-1.2.3-2.2 1-2.9.7-.6 1.7-1 3-1a9 9 0 0 1 2.2.3 6 6 0 0 1 1.5.6l-.5 1.8a6.3 6.3 0 0 0-3-.7c-.7 0-1.2.2-1.5.5-.4.3-.5.8-.5 1.4 0 .5.1 1 .4 1.3l1 1 1.5 1c.5.2 1 .6 1.4 1a5 5 0 0 1 1.5 3.7c0 .6 0 1.1-.3 1.6-.1.5-.4 1-.8 1.4l-1.4.9a9 9 0 0 1-4.3 0c-.6-.1-1.2-.4-1.6-.6l.7-2ZM0 14.4c0-.5.1-1 .4-1.2.3-.3.7-.4 1.1-.4.5 0 .9.1 1.1.4.3.3.5.7.5 1.2s-.2 1-.5 1.2c-.2.2-.6.4-1 .4-.5 0-1-.2-1.2-.4-.3-.3-.4-.7-.4-1.2Z" fill="var(--black,#181B2B)"/><path fill-rule="evenodd" clip-rule="evenodd" d="M17.8 6.4c-.9.2-1.6.5-2.2.8l.8 1.8c.4-.3 1-.5 1.6-.7.7-.2 1.3-.2 1.9-.2.9 0 1.5.2 1.8.7.4.4.5 1.2.5 2.4V13a7 7 0 0 0-.7 0H21c-.9 0-1.7 0-2.4.2-.8.1-1.4.4-2 .8-.5.3-.9.8-1.2 1.4a5 5 0 0 0-.4 2.2c0 1.4.3 2.4 1 3.2.7.8 1.6 1.1 2.7 1.1 1 0 1.8-.1 2.4-.5.5-.4 1-.9 1.3-1.4h.1l.5 1.8h1.8a27.4 27.4 0 0 1-.3-7.4 80.7 80.7 0 0 0-.1-5.3c0-.6-.3-1-.6-1.5a3 3 0 0 0-1.2-1c-.5-.3-1.2-.4-2-.4-1 0-1.9 0-2.7.3Zm3.8 8.2h.6V18c-.2.5-.5 1-1 1.3-.4.5-1 .7-2 .7a2 2 0 0 1-1.5-.7c-.3-.5-.5-1.1-.5-2 0-.4 0-.9.3-1.2.2-.4.5-.7.8-.9l1.3-.4a8.2 8.2 0 0 1 2-.1Z" fill="var(--black,#181B2B)"/><path d="M35.8 21.6v-9.3c0-1.5-.2-2.7-.6-3.3-.3-.7-1-1-1.9-1-.8 0-1.5.2-2 .7-.5.5-.9 1-1.1 1.8v11.1H28V6.3h1.6l.3 1.6h.1c.4-.5 1-1 1.6-1.4.7-.4 1.5-.6 2.4-.6a5 5 0 0 1 1.7.3c.5.2.9.5 1.2 1 .4.4.6 1 .8 1.7.2.8.3 1.7.3 2.8v10h-2.2ZM63.4 12.5v9.1h2.2v-11a4 4 0 0 1 1-2c.5-.4 1-.7 1.8-.7 1 0 1.5.4 1.8 1 .2.7.4 1.7.4 3v9.7h2.2v-10c0-1-.1-2-.3-2.7 0-.8-.3-1.3-.6-1.8-.3-.4-.7-.7-1.2-.9a5 5 0 0 0-1.7-.3 4.3 4.3 0 0 0-3.8 2.3c-.3-.8-.7-1.4-1.2-1.8-.5-.3-1.1-.5-1.9-.5-.9 0-1.6.2-2.2.6-.6.4-1.1.8-1.5 1.4h-.1l-.4-1.6h-1.6v15.3h2.2v-11c.2-.7.5-1.3 1-1.9.5-.5 1-.8 1.8-.8.4 0 .8.1 1 .3.4.2.6.4.7.8l.4 1.4v2.1Z" fill="var(--black,#181B2B)"/><path fill-rule="evenodd" clip-rule="evenodd" d="M85.2 20.6a5 5 0 0 1-1.8 1c-.8.3-1.6.4-2.4.4-1 0-1.8-.2-2.5-.6-.7-.3-1.2-.9-1.7-1.6-.5-.7-.8-1.5-1-2.5-.2-1-.3-2.1-.3-3.3 0-2.6.4-4.6 1.4-6 1-1.4 2.3-2 4-2 .6 0 1.2 0 1.7.2.6.1 1.1.4 1.6.8.4.4.8 1 1 1.8.3.8.4 1.8.4 3a14.6 14.6 0 0 1-.1 2.4h-7.7c0 .9 0 1.7.2 2.4.1.7.3 1.3.6 1.8s.7 1 1.2 1.2c.5.3 1 .4 1.8.4a4.5 4.5 0 0 0 2.9-1l.7 1.6Zm-1.7-8.2c0-1.6-.1-2.7-.6-3.4-.5-.7-1.1-1-2-1-.9 0-1.6.3-2.1 1-.6.7-1 1.8-1 3.4h5.7Z" fill="var(--black,#181B2B)"/><path d="M96.5 12.3v9.3h2.2v-9.9c0-1.1 0-2-.3-2.8-.1-.7-.4-1.3-.7-1.7-.4-.5-.8-.8-1.3-1a5 5 0 0 0-1.7-.3 4.6 4.6 0 0 0-4 2l-.4-1.6h-1.6v15.3H91V10.5c.3-.7.6-1.3 1.2-1.8.5-.5 1.2-.8 2-.8.9 0 1.5.4 1.9 1 .3.7.5 1.9.5 3.4ZM100.6 6.3h1.8v-3l2.2-.7v3.7h3.3v2h-3.3v9.1c0 1 .1 1.6.3 2 .2.4.6.6 1 .6.5 0 .8 0 1.1-.2l1-.3.4 1.7a7 7 0 0 1-3.1.8c-1 0-1.8-.4-2.2-1a6 6 0 0 1-.7-3.3V8.3h-1.8v-2ZM110.4 13c-.3.2-.5.6-.5 1.1 0 .6.2 1 .5 1.2.2.3.6.4 1 .4.5 0 1-.1 1.2-.4.3-.2.4-.6.4-1.2 0-.5-.1-.9-.4-1.1-.3-.3-.7-.4-1.1-.4-.5 0-.9.1-1.1.4Z" fill="var(--black,#181B2B)"/></svg>
