<svg xmlns="http://www.w3.org/2000/svg" width="20" height="20" viewBox="0 0 20 20" fill="none">
  <path
    d="M11.1186 2.64908C10.7358 2.61964 10.3824 2.59019 9.99957 2.59019C9.61675 2.59019 9.26337 2.59019 8.88055 2.61964L9.99957 1L11.1186 2.64908Z"
    fill="#FBB80D" />
  <path
    d="M14.6441 4.19293C14.3273 3.97602 14.036 3.77383 13.7044 3.58242C13.3729 3.39101 13.0669 3.21432 12.7206 3.04841L14.4995 2.20528L14.6441 4.19293Z"
    fill="#FBB80D" />
  <path
    d="M16.9257 7.29317C16.7598 6.94691 16.6086 6.62616 16.4172 6.29462C16.2257 5.96309 16.0491 5.65706 15.8321 5.34025L17.7943 5.49953L16.9257 7.29317Z"
    fill="#FBB80D" />
  <path
    d="M17.3509 11.1186C17.3804 10.7358 17.4098 10.3824 17.4098 9.99957C17.4098 9.61675 17.4098 9.26337 17.3804 8.88055L19 9.99957L17.3509 11.1186Z"
    fill="#FBB80D" />
  <path
    d="M15.8071 14.6441C16.024 14.3273 16.2262 14.036 16.4176 13.7044C16.609 13.3729 16.7857 13.0669 16.9516 12.7206L17.7947 14.4995L15.8071 14.6441Z"
    fill="#FBB80D" />
  <path
    d="M12.7068 16.9257C13.0531 16.7598 13.3738 16.6086 13.7054 16.4172C14.0369 16.2257 14.3429 16.0491 14.6598 15.8321L14.5005 17.7943L12.7068 16.9257Z"
    fill="#FBB80D" />
  <path
    d="M8.88141 17.3509C9.26423 17.3804 9.6176 17.4098 10.0004 17.4098C10.3833 17.4098 10.7366 17.4098 11.1194 17.3804L10.0004 19L8.88141 17.3509Z"
    fill="#FBB80D" />
  <path
    d="M5.35591 15.8071C5.67272 16.024 5.96403 16.2262 6.29557 16.4176C6.6271 16.609 6.93313 16.7857 7.27939 16.9516L5.50047 17.7947L5.35591 15.8071Z"
    fill="#FBB80D" />
  <path
    d="M3.07434 12.7068C3.24025 13.0531 3.39143 13.3738 3.58285 13.7054C3.77426 14.0369 3.95095 14.3429 4.16786 14.6598L2.2057 14.5005L3.07434 12.7068Z"
    fill="#FBB80D" />
  <path
    d="M2.64908 8.88141C2.61964 9.26423 2.59019 9.61761 2.59019 10.0004C2.59019 10.3833 2.59019 10.7366 2.61964 11.1194L1 10.0004L2.64908 8.88141Z"
    fill="#FBB80D" />
  <path
    d="M4.19293 5.35591C3.97602 5.67272 3.77383 5.96403 3.58242 6.29557C3.39101 6.6271 3.21432 6.93313 3.04841 7.27939L2.20528 5.50047L4.19293 5.35591Z"
    fill="#FBB80D" />
  <path
    d="M7.29317 3.07434C6.94691 3.24025 6.62616 3.39143 6.29462 3.58285C5.96309 3.77426 5.65706 3.95095 5.34025 4.16786L5.49953 2.2057L7.29317 3.07434Z"
    fill="#FBB80D" />
  <path
    d="M16.6316 10C16.6316 13.6625 13.6625 16.6316 10 16.6316C6.33748 16.6316 3.36842 13.6625 3.36842 10C3.36842 6.33748 6.33748 3.36842 10 3.36842C13.6625 3.36842 16.6316 6.33748 16.6316 10Z"
    fill="#FBB80D" />
</svg>