<svg xmlns="http://www.w3.org/2000/svg" width="16" height="16" fill="none"><path fill="#9FAAC4" fill-rule="evenodd" d="M4.54 1.225a.5.5 0 0 1-.142.693C2.333 3.276 1 5.5 1 8.002c0 2.498 1.33 4.721 3.392 6.08a.5.5 0 1 1-.55.835C1.529 13.393 0 10.871 0 8.002c0-2.872 1.532-5.396 3.848-6.92a.5.5 0 0 1 .693.143m6.92 0a.5.5 0 0 1 .692-.143c2.316 1.524 3.849 4.048 3.849 6.92 0 2.868-1.53 5.391-3.842 6.915a.5.5 0 1 1-.55-.835C13.67 12.723 15 10.5 15 8.002c0-2.5-1.333-4.726-3.398-6.084a.5.5 0 0 1-.143-.693" clip-rule="evenodd"/><path fill="#3FB898" d="M11 8a3 3 0 1 1-6 0 3 3 0 0 1 6 0"/></svg>