<svg xmlns="http://www.w3.org/2000/svg" width="456" height="257" fill="none"><rect width="456" height="257" fill="var(--white,#FFFFFF)" rx="8"/><path fill="var(--green-light-1,#EDF8F5)" d="m19.466 150.143 8.292 22.925 14.881-24.467 14.31-9.176 21.98-40.455 22.049 77.98 12.377-59.377 3.095 11.48 15.882-78.254 6.672 35.17 8.34-8.926 16.022 119.57h28.98l18.827-108.422 12.031-6.016L236.548 11l9.252 89.943 5.342-30.84 20.097 126.51h10.818l2.344-12.098 11.768 2.344 9.984-22.113 8.26 4.072 14.659-65.443 11.99-11.132 8.882-35.452 17.701 72.372 3.696-11.031 5.235 19.857 9.548 5.988 12.258 33.888 14.569-33.888 3.818 17.383 6.156 3.386 5.669-103.69 7.444 126.186 8.829-30.735 4.26 8.239L456 126.033v70.58H282.057l-5.944 30.684-4.874-30.684h-78.893l-3.026 17.423-9.586 3.418-9.75 28.546-6.618-49.387H0v-38.218l10.635 10.937z"/><path fill="var(--mystic,#D2D6E7)" d="M220.395 102.805q0-.802.458-1.304.459-.501 1.206-.501t1.239.485q.493.484.493 1.32 0 .802-.493 1.254-.492.451-1.239.451-.746 0-1.205-.468t-.459-1.237M223.281 107.886v16.713h-2.444v-16.713zM211.465 107.886h-2.071v2.172h2.071v10.296q0 2.44.73 3.527.73 1.086 2.428 1.086.984 0 1.884-.217a8 8 0 0 0 1.647-.585l-.475-1.905q-.578.233-1.07.384-.492.15-1.171.15-.815 0-1.171-.652-.357-.65-.357-2.122v-9.961h3.667v-2.172h-3.667v-4.079l-2.445.769zM170.856 121.858q.679.402 1.613.685a6.6 6.6 0 0 0 1.918.284q1.12 0 1.901-.554t.781-1.799q0-1.04-.475-1.714a5.3 5.3 0 0 0-1.205-1.21 13 13 0 0 0-1.579-.988 8.4 8.4 0 0 1-1.579-1.082 5.4 5.4 0 0 1-1.206-1.499q-.475-.867-.475-2.199 0-2.131 1.171-3.214t3.311-1.083q1.392 0 2.41.251a6.7 6.7 0 0 1 1.766.685l-.645 2.005a7 7 0 0 0-1.494-.552 7 7 0 0 0-1.731-.217q-1.222 0-1.783.502-.56.501-.56 1.571 0 .836.475 1.42.476.586 1.205 1.07.73.486 1.579.986.848.502 1.579 1.187a5.8 5.8 0 0 1 1.206 1.637q.475.953.475 2.39 0 .937-.306 1.772a3.9 3.9 0 0 1-.933 1.454q-.63.619-1.562.986-.935.368-2.19.368-1.495 0-2.581-.284-1.087-.284-1.834-.752zM165 116.676q0-.85.46-1.274.459-.425 1.243-.425.783 0 1.243.425t.459 1.274q0 .881-.459 1.305-.46.425-1.243.425t-1.243-.425q-.46-.424-.46-1.305"/><path fill="var(--mystic,#D2D6E7)" fill-rule="evenodd" d="M184.829 107.953q-1.41.335-2.394.935l.809 1.903q.74-.434 1.851-.719 1.11-.284 2.052-.284 1.513 0 2.086.769.571.768.572 2.674 0 .802-.101 1.839a8 8 0 0 0-.708-.034h-.673q-1.516 0-2.745.251t-2.121.852a4.1 4.1 0 0 0-1.382 1.572q-.488.969-.488 2.406 0 2.206 1.163 3.46 1.162 1.254 2.983 1.253 1.651 0 2.629-.634.977-.635 1.482-1.505h.135l.593 1.973h1.915a13 13 0 0 1-.326-2.056 29 29 0 0 1-.087-2.357q0-1.704.087-3.609.087-1.904.087-3.911 0-1.002-.152-1.922a4.05 4.05 0 0 0-.645-1.637 3.4 3.4 0 0 0-1.359-1.136q-.865-.418-2.292-.418-1.561 0-2.971.335m4.235 8.975q.336.017.671.05h-.001v3.543q-.301.802-1.073 1.471-.771.668-2.18.668-1.04 0-1.694-.736-.655-.735-.654-2.072 0-.869.352-1.437a2.57 2.57 0 0 1 .956-.903 4.4 4.4 0 0 1 1.376-.468 9.3 9.3 0 0 1 1.577-.133q.335 0 .67.017" clip-rule="evenodd"/><path fill="var(--mystic,#D2D6E7)" d="M204.878 124.599v-10.195q0-2.507-.595-3.626-.595-1.12-2.122-1.12-1.359 0-2.241.803a4.7 4.7 0 0 0-1.291 1.972V124.6h-2.444v-16.714h1.765l.442 1.771h.102q.645-.902 1.748-1.537 1.105-.636 2.632-.635 1.087 0 1.918.301.832.3 1.393 1.019.56.72.849 1.922.288 1.204.289 3.042v10.83zM235.743 114.672v9.926h2.444v-12.033q.306-1.336 1.07-2.122t2.054-.786q1.528 0 1.952 1.07.425 1.07.425 3.243v10.628h2.444v-10.93q0-1.805-.238-2.992-.237-1.186-.73-1.905a2.58 2.58 0 0 0-1.29-1.003q-.798-.284-1.918-.284-1.358 0-2.496.668a4.53 4.53 0 0 0-1.748 1.839q-.476-1.404-1.308-1.955t-2.122-.552q-1.529 0-2.513.602a6 6 0 0 0-1.697 1.571h-.103l-.441-1.771h-1.731v16.712h2.444v-12.033a4.9 4.9 0 0 1 1.104-2.022q.797-.886 1.952-.886.781 0 1.256.285.476.283.747.885.272.603.357 1.555.086.953.086 2.29"/><path fill="var(--mystic,#D2D6E7)" fill-rule="evenodd" d="M260.053 123.462q-.815.736-2.071 1.136a8.6 8.6 0 0 1-2.648.401q-1.596 0-2.768-.618a5.2 5.2 0 0 1-1.935-1.772q-.763-1.152-1.12-2.757-.356-1.605-.357-3.61 0-4.278 1.597-6.518 1.595-2.24 4.515-2.24a7.7 7.7 0 0 1 1.885.234 3.77 3.77 0 0 1 1.681.936q.746.703 1.205 1.972t.458 3.309q0 .57-.051 1.22-.051.652-.118 1.355h-8.625q0 1.437.238 2.607.237 1.17.747 1.989t1.307 1.27q.798.453 1.986.452.918 0 1.817-.335.899-.334 1.376-.802zm-1.901-8.957q.069-2.507-.713-3.677t-2.138-1.17q-1.563 0-2.479 1.17t-1.087 3.677z" clip-rule="evenodd"/><path fill="var(--mystic,#D2D6E7)" d="M272.616 114.404v10.195h2.444v-10.83q0-1.837-.289-3.042-.289-1.203-.849-1.922a3.05 3.05 0 0 0-1.392-1.019q-.832-.301-1.918-.301-1.527 0-2.631.635t-1.748 1.537h-.103l-.441-1.771h-1.766V124.6h2.445v-12.167a4.7 4.7 0 0 1 1.29-1.972q.882-.803 2.241-.803 1.528 0 2.123 1.12.594 1.12.594 3.626M277.132 107.886h2.071v-3.309l2.445-.769v4.079h3.666v2.172h-3.666v9.961q0 1.471.357 2.122.355.652 1.171.652.678 0 1.171-.15.49-.15 1.07-.384l.475 1.905a8 8 0 0 1-1.646.585 8 8 0 0 1-1.885.217q-1.698 0-2.428-1.086t-.73-3.527v-10.296h-2.071zM288.054 115.139q-.46.425-.459 1.274 0 .881.459 1.305.46.425 1.243.425t1.243-.425.46-1.305q0-.849-.46-1.274-.459-.425-1.243-.425-.783 0-1.243.425"/><path fill="var(--green-light-1,#B0EBDB)" d="M455.999 196v1H0v-1z"/><path fill="var(--green-light-1,#B0EBDB)" d="m40.905 38.32 12.715 75.355 6.537 4.348 17.01 58.651 19.89-46.139 28.219 92.281 25.69-44.218 4.805 7.123 16.227-29.681 7.567 21.274 6.349-5.197 17.894 53.61 7.425-17.79 3.678 9.656 13.83-55.459 6.654 12.983h5.575l10.166 34.613 33.384-46.871 10.616 8.321 26.879-69.798 19.124 61.251 9.231-8.992 7.822 65.127 5.132-1.68 6.031 16.123 17.148-97.565 4.741-3.604 9.099-35.745 7.036-5.518 5.548-29.272 1.031-5.173.92 5.173 12.283 81.028 9.957-20.453 6.704 16.095 12.176-51.698v4.192l-11.908 50.746-7.044-16.905-10.39 21.349-12.754-84.129-5.61 29.603-7.064 5.538-9.1 35.754-4.708 3.578L369.706 237l-6.982-18.663-5.379 1.762-7.727-64.33-8.977 8.747-18.776-60.037-26.291 68.315-10.847-8.503-33.97 47.695-10.535-35.869h-5.437l-5.691-11.101-14.006 55.851-3.898-10.232-7.486 17.939-18.279-54.765-6.326 5.179-7.295-20.509-15.943 29.164-4.832-7.164-26.039 44.82-28.094-91.868-19.915 46.197-17.683-60.975-6.592-4.384-12.849-76.147-13.232 61.626-7.203-8.548-13.455 43.401-5.969-5.102v-1.316l5.463 4.67L19.01 89.157l7.066 8.385 12.76-59.42L39.967 33z"/></svg>