<svg xmlns="http://www.w3.org/2000/svg" width="128" height="98" fill="none"><path fill="var(--athens,#F7F8FB)" d="M0 12A12 12 0 0 1 12 0h98a12 12 0 0 1 12 12v54a12 12 0 0 1-12 12H12A12 12 0 0 1 0 66z"/><path fill="var(--waterloo,#7A859E)" fill-rule="evenodd" d="M107 82.2h9c5.8 0 10.5-4.7 10.5-10.5V16c0-5.8-4.7-10.5-10.5-10.5H16C10.2 5.5 5.5 10.2 5.5 16v55.7c0 5.8 4.7 10.5 10.5 10.5h64.6c3 0 5.8 1 8.1 2.7l14.1 10.6 4.3-13.3ZM103.7 98 87.8 86.1a12 12 0 0 0-7.2-2.4H16a12 12 0 0 1-12-12V16A12 12 0 0 1 16 4h100a12 12 0 0 1 12 12v55.7a12 12 0 0 1-12 12h-7.8L103.6 98Z" clip-rule="evenodd"/><path fill="var(--waterloo,#7A859E)" fill-rule="evenodd" d="M41 46a3 3 0 1 1-6 0 3 3 0 0 1 6 0m28 0a3 3 0 1 1-6 0 3 3 0 0 1 6 0m25 3a3 3 0 1 0 0-6 3 3 0 0 0 0 6" clip-rule="evenodd"/></svg>