<svg xmlns="http://www.w3.org/2000/svg" width="162" height="187" fill="none"><g clip-path="url(#a)"><path fill="var(--mystic, #D2D6E7)" d="M.227 5.67A5.67 5.67 0 0 1 5.897 0H95.37a5.67 5.67 0 0 1 5.67 5.67v16.895A5.67 5.67 0 0 0 103 26.85l3.229 2.796a5.67 5.67 0 0 1 1.959 4.287v56.14a5.67 5.67 0 0 1-1.384 3.712l-4.379 5.054a5.67 5.67 0 0 0-1.384 3.713v19.959a5.67 5.67 0 0 1-5.67 5.669H5.896a5.67 5.67 0 0 1-5.67-5.669z"/><path fill="var(--casper, #9FAAC4)" d="M26.121 25.151a5.49 5.49 0 0 1 2.916-4.85l3.944-2.096a5.5 5.5 0 0 1 2.714-.642l85.873 2.053a5.497 5.497 0 0 1 5.368 5.492v17.284a5.5 5.5 0 0 0 1.897 4.151l3.352 2.902a5.5 5.5 0 0 1 1.898 4.152v56.289a5.5 5.5 0 0 1-1.341 3.595l-4.098 4.731a5.49 5.49 0 0 0-1.259 4.54l3.276 18.735c.588 3.361-2.001 6.439-5.416 6.439H31.62a5.496 5.496 0 0 1-5.499-5.493V25.152Z"/><path fill="var(--porcelain, #ECEEF5)" d="M30.703 22.491a5.496 5.496 0 0 1 5.5-5.493h89.816a5.496 5.496 0 0 1 5.499 5.493v17.154a5.5 5.5 0 0 0 1.897 4.151l3.352 2.902a5.5 5.5 0 0 1 1.898 4.152v56.289a5.5 5.5 0 0 1-1.341 3.595l-4.466 5.155a5.5 5.5 0 0 0-1.34 3.594v20.203a5.496 5.496 0 0 1-5.499 5.493H36.202a5.496 5.496 0 0 1-5.499-5.493z"/><path fill="var(--mystic, #D2D6E7)" d="M39.848 48.482c0-.808.615-1.463 1.374-1.463h35.386c.759 0 1.374.655 1.374 1.463 0 .809-.615 1.464-1.374 1.464H41.222c-.759 0-1.374-.655-1.374-1.464m0 21.955c0-.827.463-1.498 1.035-1.498H67.54c.572 0 1.035.67 1.035 1.498 0 .827-.463 1.498-1.035 1.498H40.883c-.572 0-1.035-.67-1.035-1.498m1.035 21.47c-.572 0-1.035.67-1.035 1.498 0 .827.463 1.498 1.035 1.498H67.54c.572 0 1.035-.67 1.035-1.498s-.463-1.498-1.035-1.498z"/><path fill="var(--casper, #9FAAC4)" fill-rule="evenodd" d="M66.992 58.44c0-1.347 1.026-2.438 2.291-2.438h57.15c1.265 0 2.291 1.09 2.291 2.437s-1.026 2.438-2.291 2.438h-57.15c-1.265 0-2.29-1.092-2.29-2.438Zm0 20.918c0-1.347 1.026-2.438 2.291-2.438h57.15c1.265 0 2.291 1.091 2.291 2.438 0 1.346-1.026 2.437-2.291 2.437h-57.15c-1.265 0-2.29-1.091-2.29-2.437Zm0 22.003c0-1.346 1.026-2.438 2.291-2.438h57.15c1.265 0 2.291 1.092 2.291 2.438s-1.026 2.438-2.291 2.438h-57.15c-1.265 0-2.29-1.092-2.29-2.438Z" clip-rule="evenodd"/><path fill="var(--casper, #9FAAC4)" fill-rule="evenodd" d="M129.076 119.184c20.393-11.487 29.411-36.66 20.169-58.776-9.969-23.853-37.407-35.117-61.284-25.158S52.809 72.619 62.777 96.472c9.243 22.117 33.503 33.41 56.018 27.001l4.257 10.186-.101.043a3.66 3.66 0 0 0-1.97 4.79l17.623 42.169c1.987 4.756 7.457 7.002 12.218 5.016 6.368-2.019 9.57-5.444 9.634-9.328.021-1.261-.497-2.451-1.07-3.574l-21.167-41.473a3.667 3.667 0 0 0-4.795-1.968l-.09.037zm15.094-56.66c8.799 21.055-1.153 45.248-22.227 54.038S76.65 115.41 67.852 94.356s1.153-45.247 22.228-54.037c21.074-8.79 45.292 1.152 54.09 22.206Z" clip-rule="evenodd"/><path fill="var(--casper, #9FAAC4)" d="M129.665 123.266a47 47 0 0 0 5.056-2.475l-1.723-4.122-10.51 4 1.859 4.448a47 47 0 0 0 5.318-1.851"/><path fill="var(--mystic, #D2D6E7)" fill-rule="evenodd" d="M133.311 117.42c20.389-11.489 29.406-36.66 20.164-58.774-9.968-23.854-37.406-35.118-61.283-25.159S57.039 70.857 67.008 94.71c9.243 22.117 33.505 33.411 56.022 26.999l4.257 10.186-.102.042a3.66 3.66 0 0 0-1.97 4.791l17.623 42.169c1.987 4.756 7.458 7.001 12.218 5.016s7.008-7.45 5.021-12.206l-17.624-42.169a3.67 3.67 0 0 0-4.795-1.969l-.09.038zm15.09-56.658c8.799 21.054-1.153 45.247-22.228 54.037s-45.292-1.152-54.09-22.206c-8.8-21.053 1.152-45.247 22.227-54.037s45.292 1.152 54.091 22.206" clip-rule="evenodd"/><path fill="var(--casper, #9FAAC4)" d="m137.567 127.61-11.043 4.629-.696-1.488z"/></g><defs><clipPath id="a"><path fill="var(--white, #fff)" d="M.227 0h161v187h-161z"/></clipPath></defs></svg>