<svg xmlns="http://www.w3.org/2000/svg" width="191" height="182" fill="none"><g clip-path="url(#a)"><path fill="var(--porcelain, #ECEEF5)" d="M50.269 135.166c.094-4.145 4.947-7.787 12.985-10.228.116 1.436.296 3.31.578 4.863.29 1.588.844 3.161 1.361 4.546.511 1.37 1.177 2.629 2.06 3.485l.372.338c1.936 1.677 5.083 3.071 8.905 4.094 4.11 1.1 9.12 1.803 14.524 1.931l.95.016c4.74.052 9.166-.353 12.926-1.108 3.987-.801 7.308-2.012 9.444-3.556l.221-.165c2.244-1.747 3.774-4.965 4.606-7.975.444-1.608.73-3.272.929-4.828 1.155.431 2.161.837 3.17 1.312 5.486 2.579 8.726 5.758 8.65 9.135-.181 7.937-18.612 13.954-41.168 13.44-22.555-.514-40.694-7.364-40.513-15.3"/><path fill="var(--mystic, #D2D6E7)" fill-rule="evenodd" d="M124.53 45.553a32.7 32.7 0 0 1 1.599 10.893c-.297 13.006-8.162 24.074-19.322 29.152-3.223 1.466-5.084 2.313-5.643 2.646-.334.2-.34.626 0 .848.566.367 2.381 1.295 5.498 2.888 10.917 5.58 18.27 16.998 17.974 30.005a32.6 32.6 0 0 1-2.211 11.112c-.651 1.671-1.387 3.568-2.451 5.034-2.719 3.749-12.594 6.476-24.846 6.778l-19.247 4.228c-15.214-2.175-26.186-8.331-25.611-14.163.17-3.222 3.207-6.114 8.618-8.455-.283-1.855-.505-4.103-.461-6.043.297-13.009 8.164-24.08 19.328-29.156 3.302-1.501 5.173-2.353 5.678-2.668.308-.192.28-.609 0-.797-.515-.348-2.341-1.281-5.533-2.912-10.92-5.58-18.276-16.997-17.98-30.006a32.56 32.56 0 0 1 4.026-15c6.237-11.333 46.362-11.77 56.36-1.978 2.128 2.085 3.312 4.802 4.224 7.594M66.353 61.03c1.736 9.648 7.493 17.673 15.259 21.704 1.065.553 2.222.92 3.271 1.499 2.604 1.435 3.365 4.031 2.181 6.042-.806 1.37-2.199 1.976-3.63 2.49-3.255 1.17-6.04 2.995-8.755 5.08-4.76 3.655-8.408 8.693-10.226 14.732-1.617 5.373-1.54 11.054-.54 16.537.288 1.588.678 3.175 1.196 4.56.36.966.797 1.876 1.333 2.629.667.936 1.603 1.663 2.568 2.272 1.903 1.202 4.466 2.22 7.436 3.015 9.063 2.425 19.203 2.686 28.4.839 2.79-.561 5.254-1.322 7.214-2.258.943-.45 1.874-.974 2.678-1.647 2.109-1.769 3.412-4.679 4.215-7.586 1.562-5.656 1.755-11.763 0-17.392-.964-3.091-2.438-6.058-4.275-8.738a34 34 0 0 0-3.377-4.177c-3.109-3.619-6.856-5.84-11.083-7.866-1.174-.563-2.258-1.279-2.863-2.49-1.016-2.034-.184-4.363 2.216-5.543.837-.411 1.759-.636 2.623-.983 10.404-4.177 17.984-15.245 18.284-28.408a35 35 0 0 0-.172-4.322c-8.032 6.17-33.81 13.515-53.953 10.011" clip-rule="evenodd"/><path fill="var(--casper, #9FAAC4)" d="M52.676 35.389c.705 5.498 18.557 10.286 40.584 10.788 21.682.494 39.51-3.345 40.974-8.674-.038 1.33-.095 3.366-.116 4.312-.129 5.663-18.519 9.838-41.075 9.324-22.555-.514-40.57-5.472-40.44-11.135.032-1.417-.006-3.462.073-4.615"/><path fill="var(--porcelain, #ECEEF5)" stroke="var(--porcelain, #ECEEF5)" stroke-width=".101" d="m91.627 25.684 2.1.035c11.275.257 21.455 1.636 28.798 3.659 3.672 1.011 6.633 2.183 8.665 3.453 1.909 1.193 2.987 2.464 3.088 3.76l.007.26c-.031 1.388-1.182 2.698-3.274 3.877-2.089 1.176-5.099 2.211-8.814 3.054-6.963 1.58-16.391 2.484-26.833 2.38l-2.101-.036c-11.275-.257-21.455-1.636-28.798-3.66-3.672-1.01-6.632-2.182-8.664-3.452-1.909-1.193-2.987-2.464-3.088-3.761l-.007-.26c.032-1.387 1.183-2.698 3.274-3.876 2.089-1.176 5.099-2.211 8.813-3.055 6.964-1.58 16.392-2.483 26.834-2.378Z"/><path fill="var(--mystic, #D2D6E7)" d="M52.651 34.987c-.129 5.663 18.051 10.67 40.607 11.185 3.196.073 6.31.051 9.298-.055 8.059-7.96-48.645-11.138-21.428-20.245-16.427.959-28.373 4.554-28.477 9.115"/><path fill="var(--green-light-4, #6CC5AE)" d="M92.864 107.016a41 41 0 0 1-2.475 2.785c-4.611 4.7-9.948 9.48-17.238 11.371-2.605.676-5.379.883-7.948.775-.02-1.895.16-3.796.517-5.657.989-3.602 3.084-6.529 7.106-8.168 6.209-2.529 12.824.29 20.038-1.106"/><path fill="var(--green-light-3, #B0EBDB)" d="M65.203 121.947c11.638.387 19.062-5.922 25.205-12.183 4.937-5.032 11.02-15.702 18.551-8.565a31.7 31.7 0 0 1 4.325 5.081c3.207 4.679 5.2 10.219 5.21 15.63-.03 3.008-.394 6.041-1.196 8.944s-2.033 5.422-3.784 6.787c-1.313.992-2.86 1.65-4.407 2.181-3.394 1.163-8.036 1.976-13.253 2.198-6.28.267-12.693-.196-18.774-1.824-2.971-.795-6.142-1.86-8.457-3.969-.591-.572-1.137-1.528-1.609-2.793-.49-1.315-.87-2.879-1.152-4.485a45.6 45.6 0 0 1-.659-7.002"/><path fill="var(--casper, #9FAAC4)" d="M50.264 135.141c-.18 7.936 17.963 14.81 40.519 15.324s40.986-5.503 41.167-13.439a5 5 0 0 0-.016-.492c.159 2.195-.088 4.571-.128 6.313-.181 7.937-18.612 13.954-41.167 13.44s-40.693-7.365-40.513-15.301c.04-1.718.034-4.114.148-6.039q-.007.096-.01.194"/><path fill="var(--porcelain, #ECEEF5)" d="M82.013 1.412c48.818-6.454 93.895 27.497 100.994 76.326 1.687 11.606 1.077 23.025-1.49 33.79l8.26 3.575-20.255 13.522-3.979-24.011 8.07 3.493c2.04-9.315 2.469-19.15 1.015-29.153-6.432-44.242-47.275-75.004-91.507-69.156-6.352.862-7.434-7.511-1.108-8.386"/><path fill="var(--mystic, #D2D6E7)" d="M25.727 67.028 16.31 64.32c-4.185 12.01-5.623 25.175-3.665 38.639 6.461 44.431 47.493 75.326 91.93 69.453 6.758-.936 7.859 7.485 1.113 8.423-49.044 6.482-94.33-27.616-101.463-76.655-2.135-14.686-.604-29.067 3.9-42.213L.23 59.697l18.438-16.072z"/></g><defs><clipPath id="a"><path fill="var(--white, #FFFFFF)" d="M.115 0h190v182h-190z"/></clipPath></defs></svg>