<svg xmlns="http://www.w3.org/2000/svg" width="233" height="140" fill="none"><g clip-path="url(#a)"><path fill="var(--casper, #9FAAC4)" d="M80.536 14.588 107.676.693c7.404-1.146 30.991 2.569 46.769 11.175l-16.233 32.448zm67.244 71.64c-6.733 13.792-17.141 22.443-23.248 19.321-6.106-3.121-5.598-16.832 1.135-30.624 6.732-13.793 17.141-22.443 23.247-19.322s5.599 16.833-1.134 30.625m-92.178 20.356-5.387-35.805 58.444 36.891-11.848 31.007-6.112-.667c-16.049-8.066-31.676-24.609-35.097-31.426"/><path fill="var(--porcelain, #ECEEF5)" d="M64.907 81.644C35.362 66.167 12.249 40.326-.207 8.844 32.034.778 66.035 4.856 95.58 20.333l48.095 25.195-30.673 61.311z"/><path fill="var(--porcelain, #ECEEF5)" d="m86.895 16.064 25.95-14.045c7.404-1.146 30.991 2.57 46.77 11.175L143.69 45.547c10.388 14.25-6.855 57.86-30.611 61.28l-16.25 31.852c-16.049-8.066-32.785-25.475-36.206-32.291l-3.614-29.22C31.247 61.422 11.116 37.464-.207 8.846c29.604-7.407 60.693-4.575 88.453 7.92l-1.351-.701Z"/><path fill="var(--mystic, #D2D6E7)" d="m86.894 16.063 25.951-14.045c.872-.135 1.969-.202 3.251-.202a35 35 0 0 1 .901.01c1.221.028 2.584.11 4.06.245q1.314.12 2.738.298c10.433 1.303 24.972 4.908 35.819 10.825l-15.925 32.352zM-.207 8.844c38.023 48.664 92.612 65.939 146.776 44.852 2.195 18.268-13.294 50.223-33.491 53.131l-16.25 31.852c-16.048-8.067-32.784-25.476-36.205-32.292l-3.614-29.219v-.001C41.874 67.915 28.682 55.83 18.079 41.63A142.3 142.3 0 0 1-.207 8.844"/><path fill="var(--casper, #9FAAC4)" fill-rule="evenodd" d="m93.593 19.683 45.114 23.24L93.16 11.228l-6.419 4.865zM62.721 80.216l49.346 25.85-56.208-23.268.01-6.172z" clip-rule="evenodd"/><path fill="var(--casper, #9FAAC4)" d="M74.15 30.181c7.613 3.988 10.625 13.536 6.728 21.326s-13.228 10.872-20.84 6.884c-7.613-3.988-10.625-13.536-6.728-21.326s13.228-10.872 20.84-6.884"/><path fill="var(--mystic, #D2D6E7)" d="M77.357 30.96c7.613 3.988 10.625 13.536 6.728 21.326s-13.228 10.872-20.84 6.884c-7.613-3.988-10.625-13.535-6.728-21.325s13.228-10.872 20.84-6.884Z"/><path fill="var(--casper, #9FAAC4)" d="M76.312 33.127c6.463 3.385 9.02 11.491 5.711 18.104-3.308 6.614-11.23 9.23-17.693 5.845-6.462-3.386-9.02-11.491-5.711-18.105 3.309-6.613 11.23-9.23 17.693-5.844"/><path fill="var(--whale, #FCFDFE)" d="M74.211 33.847c6.027 3.157 8.411 10.716 5.326 16.883s-10.472 8.607-16.498 5.45-8.412-10.716-5.326-16.883c3.085-6.167 10.471-8.607 16.498-5.45"/><path fill="var(--mystic, #D2D6E7)" d="M233.12 126.594c-19.794-4.298-39.191 14.205-48.823-5.053-2.135 9.13 2.919 13.761 11.395 18.223-22.704 2.155-28.969-10.589-54.083-32.883 23.406-1.217 28.66-26.68 18.285-38.986 22.793-2.187 34.062 1.982 48.493 18.668-5.106-1.034-8.812-2.064-12.776-.325-24.533 10.762 22.834 37.169 37.509 40.356"/></g><defs><clipPath id="a"><path fill="var(--white, #fff)" d="M.227 0h232v140h-232z"/></clipPath></defs></svg>