<svg xmlns="http://www.w3.org/2000/svg" width="205" height="122" fill="none"><g clip-path="url(#a)"><path fill="var(--casper, #9FAAC4)" d="M71.6 13.36 95.463 1.35c6.51-.99 27.25 2.221 41.124 9.66l-14.273 28.044zm59.127 61.918c-5.92 11.92-15.072 19.397-20.441 16.699-5.37-2.698-4.923-14.548.997-26.469 5.92-11.92 15.072-19.396 20.442-16.699 5.369 2.698 4.923 14.548-.998 26.469M49.674 92.871l-4.736-30.945 51.39 31.883-10.418 26.8-5.375-.577c-14.111-6.971-27.853-21.27-30.86-27.16Z"/><path fill="var(--porcelain, #ECEEF5)" d="M57.86 71.316C31.883 57.939 11.559 35.605.606 8.396a120.88 120.88 0 0 1 84.227 9.93l42.29 21.775-26.971 52.99-42.29-21.775Z"/><path fill="var(--porcelain, #ECEEF5)" d="m77.195 14.635 22.818-12.138c6.511-.99 27.251 2.22 41.125 9.659l-14.003 27.962c9.135 12.316-6.027 50.007-26.916 52.963L85.93 120.61c-14.112-6.971-28.828-22.018-31.836-27.909l-3.178-25.253C28.264 53.838 10.563 33.13.606 8.396a120.86 120.86 0 0 1 77.777 6.846z"/><path fill="var(--mystic, #D2D6E7)" d="m77.194 14.635 22.819-12.138c.767-.117 1.731-.175 2.859-.175a34 34 0 0 1 .792.009c1.074.023 2.272.094 3.57.211q1.156.105 2.408.258c9.174 1.126 21.958 4.242 31.496 9.355l-14.003 27.962-49.94-25.482ZM.605 8.396c33.434 42.06 81.435 56.99 129.062 38.765 1.93 15.789-11.69 43.407-29.448 45.92l-14.29 27.529c-14.111-6.971-28.827-22.018-31.835-27.909l-3.178-25.253v-.002a121.7 121.7 0 0 1-34.232-30.713A122.4 122.4 0 0 1 .605 8.396"/><path fill="var(--casper, #9FAAC4)" fill-rule="evenodd" d="m83.083 17.765 39.669 20.085-40.05-27.393-5.644 4.205zM55.936 70.082l43.39 22.342-49.424-20.11.008-5.335z" clip-rule="evenodd"/><path fill="var(--casper, #9FAAC4)" d="M65.988 26.838c6.694 3.446 9.342 11.698 5.915 18.431-3.426 6.733-11.63 9.397-18.325 5.95s-9.342-11.699-5.915-18.432 11.631-9.396 18.325-5.95Z"/><path fill="var(--mystic, #D2D6E7)" d="M68.808 27.51c6.694 3.448 9.342 11.7 5.916 18.432-3.427 6.733-11.632 9.397-18.325 5.95-6.694-3.447-9.343-11.699-5.916-18.431s11.631-9.397 18.325-5.95Z"/><path fill="var(--casper, #9FAAC4)" d="M67.888 29.383c5.683 2.926 7.932 9.932 5.022 15.648-2.909 5.716-9.874 7.977-15.557 5.051s-7.931-9.932-5.022-15.647c2.91-5.716 9.874-7.978 15.557-5.052"/><path fill="var(--whale, #FCFDFE)" d="M66.041 30.006c5.3 2.728 7.397 9.261 4.684 14.591s-9.208 7.44-14.508 4.71c-5.299-2.728-7.396-9.26-4.683-14.59s9.208-7.44 14.508-4.711Z"/><path fill="var(--mystic, #D2D6E7)" d="M205.771 110.165c-17.405-3.715-34.461 12.277-42.93-4.367-1.878 7.891 2.566 11.894 10.019 15.75-19.964 1.863-25.473-9.152-47.555-28.42 20.58-1.052 25.201-23.06 16.078-33.696 20.041-1.89 29.951 1.713 42.64 16.135-4.49-.894-7.748-1.784-11.234-.28-21.572 9.3 20.078 32.124 32.982 34.878"/></g><defs><clipPath id="a"><path fill="var(--white, #fff)" d="M.984.752h204v121h-204z"/></clipPath></defs></svg>