<svg xmlns="http://www.w3.org/2000/svg" width="67" height="22" fill="none"><path fill="var(--rhino,#2F354D)" d="M.54 14.888q.489.27 1.152.472.687.18 1.398.18.81 0 1.373-.36.564-.383.564-1.214 0-.696-.344-1.146t-.882-.809a8 8 0 0 0-1.128-.651 7 7 0 0 1-1.153-.742 3.8 3.8 0 0 1-.858-1.011Q.32 9.022.32 8.124q0-1.439.833-2.158.86-.741 2.403-.741 1.006 0 1.741.18.736.156 1.276.449l-.466 1.348a5 5 0 0 0-1.08-.36 5 5 0 0 0-1.25-.157q-.883 0-1.3.337-.392.337-.392 1.057 0 .561.344.966.342.382.858.719.54.315 1.152.652.614.336 1.128.809.54.45.883 1.1.343.63.343 1.596 0 .63-.22 1.191a2.64 2.64 0 0 1-.687.99q-.441.404-1.128.65-.661.248-1.57.248-1.078 0-1.863-.202-.784-.18-1.324-.495zM8.898 6.169q.712-.405 1.717-.63 1.03-.225 2.158-.224 1.03 0 1.643.292.637.27.98.764.367.471.466 1.1.123.607.123 1.282 0 1.348-.074 2.629a64 64 0 0 0-.049 2.427q0 .854.05 1.596.072.719.244 1.37h-1.348l-.417-1.326h-.098q-.367.585-1.08 1.012-.71.427-1.912.427-1.323 0-2.182-.832-.834-.854-.834-2.337 0-.966.344-1.618.367-.651 1.005-1.056.662-.405 1.545-.562.908-.18 2.01-.18h.49q.246 0 .516.023.073-.697.073-1.236 0-1.28-.417-1.798-.416-.517-1.52-.517a6.2 6.2 0 0 0-1.496.203q-.809.18-1.348.471zm5.321 5.438a5 5 0 0 0-.49-.023 5 5 0 0 0-.49-.022q-.59 0-1.153.09t-1.005.314a1.9 1.9 0 0 0-.711.607q-.246.383-.246.966 0 .9.466 1.394.49.495 1.25.494 1.03 0 1.595-.45.564-.45.784-.988zM25.116 16.73V9.876q0-1.684-.441-2.427-.417-.764-1.52-.764-.982 0-1.619.54-.638.54-.932 1.326v8.18H18.84V5.493h1.275l.319 1.191h.073q.466-.607 1.25-1.033.81-.427 1.913-.427.785 0 1.374.202a2.1 2.1 0 0 1 1.005.697q.417.471.613 1.28.22.81.22 2.045v7.281zM29.614 1h1.766v5.348h.073q1.006-1.123 2.673-1.123 1.888 0 2.82 1.37.956 1.371.956 4.338 0 3.034-1.275 4.516-1.25 1.484-3.555 1.484a8.8 8.8 0 0 1-2.06-.225q-.931-.247-1.398-.562zm1.766 14.09q.343.18.834.292.515.09 1.078.09 1.275 0 2.011-1.101.76-1.124.76-3.438 0-.967-.147-1.73-.121-.787-.417-1.35A2 2 0 0 0 34.764 7q-.442-.315-1.08-.315-.882 0-1.47.495-.564.471-.834 1.303zM40.124 6.169q.711-.405 1.716-.63 1.03-.225 2.158-.224 1.03 0 1.643.292.638.27.98.764.369.471.467 1.1.122.607.122 1.282 0 1.348-.073 2.629a64 64 0 0 0-.05 2.427q0 .854.05 1.596.073.719.245 1.37h-1.349l-.417-1.326h-.098q-.368.585-1.078 1.012-.712.427-1.913.427-1.324 0-2.183-.832-.833-.854-.833-2.337 0-.966.343-1.618.367-.651 1.005-1.056.663-.405 1.545-.562.907-.18 2.01-.18h.491q.246 0 .515.023.074-.697.074-1.236 0-1.28-.417-1.798-.417-.517-1.52-.517-.687 0-1.496.203-.81.18-1.349.471zm5.32 5.438a5 5 0 0 0-.49-.023 5 5 0 0 0-.49-.022q-.588 0-1.152.09-.565.09-1.006.314a1.9 1.9 0 0 0-.71.607q-.246.383-.246.966 0 .9.466 1.394.49.495 1.25.494 1.03 0 1.594-.45t.785-.988zM49.868 14.888q.49.27 1.153.472.686.18 1.397.18.81 0 1.373-.36.564-.383.564-1.214 0-.696-.343-1.146t-.883-.809a8 8 0 0 0-1.128-.651 7 7 0 0 1-1.152-.742 3.8 3.8 0 0 1-.858-1.011q-.345-.585-.344-1.483 0-1.439.834-2.158.858-.741 2.403-.741 1.005 0 1.741.18.736.156 1.275.449l-.466 1.348a5 5 0 0 0-1.079-.36 5 5 0 0 0-1.25-.157q-.883 0-1.3.337-.392.337-.392 1.057 0 .561.343.966.343.382.858.719.54.315 1.153.652.613.336 1.128.809.54.45.883 1.1.343.63.343 1.596 0 .63-.22 1.191a2.64 2.64 0 0 1-.687.99q-.442.404-1.128.65-.663.248-1.57.248-1.079 0-1.863-.202-.785-.18-1.324-.495zM65.681 15.966q-.588.495-1.495.764-.908.27-1.913.27-1.153 0-2.01-.404a3.96 3.96 0 0 1-1.398-1.191q-.54-.787-.81-1.866-.245-1.078-.245-2.427 0-2.876 1.153-4.382 1.152-1.505 3.26-1.505.688 0 1.35.157.686.157 1.226.63.54.471.858 1.325.343.854.343 2.225 0 .382-.049.831-.024.427-.074.9H59.65q0 .965.172 1.752.171.786.54 1.348.367.54.931.854.589.292 1.447.292.661 0 1.3-.224.66-.225 1.005-.54zm-1.373-6.022q.05-1.686-.515-2.472-.563-.787-1.545-.787-1.128 0-1.79.787-.662.786-.784 2.472z"/></svg>