<svg xmlns="http://www.w3.org/2000/svg" width="72" height="18" fill="none"><path fill="#2F354D" d="M.588 15.624q.535.303 1.258.53.75.203 1.524.203.883 0 1.498-.405.616-.429.616-1.365 0-.783-.375-1.29-.374-.505-.963-.91a8.6 8.6 0 0 0-1.23-.732 7.6 7.6 0 0 1-1.258-.835q-.561-.48-.936-1.137-.374-.658-.374-1.669 0-1.618.91-2.427.935-.834 2.62-.834 1.098 0 1.9.202.803.177 1.391.506L6.66 6.978a5.3 5.3 0 0 0-1.177-.405 5.3 5.3 0 0 0-1.365-.177q-.963 0-1.417.38-.429.378-.428 1.187 0 .632.374 1.088.375.43.936.809.59.354 1.258.733.669.378 1.23.91.59.506.963 1.239.375.707.375 1.794 0 .709-.241 1.34-.24.633-.749 1.113-.481.454-1.23.733Q4.466 18 3.476 18q-1.176 0-2.033-.227Q.59 17.57 0 17.216zM9.707 5.815q.776-.456 1.873-.708a10.7 10.7 0 0 1 2.354-.253q1.123 0 1.792.329.696.302 1.07.86.401.53.508 1.238.135.683.134 1.44a53 53 0 0 1-.08 2.959q-.054 1.44-.054 2.73 0 .96.054 1.795.08.81.267 1.542h-1.471l-.455-1.491h-.107q-.401.657-1.177 1.137-.775.48-2.086.48-1.445 0-2.381-.935-.91-.96-.91-2.629 0-1.088.375-1.82A3.3 3.3 0 0 1 10.51 11.3a4.7 4.7 0 0 1 1.685-.633q.99-.202 2.194-.202h.535q.267 0 .561.026.08-.784.08-1.39 0-1.443-.454-2.023-.455-.582-1.659-.582-.75 0-1.632.228-.882.203-1.47.53zm5.805 6.118a6 6 0 0 0-.535-.026 6 6 0 0 0-.535-.025q-.642 0-1.257.101t-1.097.354-.776.683q-.267.43-.267 1.087 0 1.01.508 1.567.535.556 1.364.556 1.124 0 1.739-.505t.856-1.113zM27.4 17.697V9.986q0-1.896-.482-2.73-.455-.86-1.659-.86-1.07 0-1.765.607a3.55 3.55 0 0 0-1.017 1.491v9.203h-1.926V5.057h1.391l.348 1.34h.08q.51-.684 1.365-1.164.883-.48 2.086-.48.856 0 1.498.227.67.228 1.097.784.454.53.669 1.441.24.91.24 2.3v8.192zM32.307 0h1.926v6.017h.08q1.097-1.264 2.916-1.264 2.06 0 3.076 1.542 1.043 1.542 1.043 4.88 0 3.411-1.39 5.08-1.365 1.67-3.88 1.67-1.23 0-2.247-.254-1.016-.278-1.524-.632zm1.926 15.851q.375.203.91.329.561.1 1.176.1 1.391 0 2.194-1.238.828-1.264.829-3.868 0-1.087-.16-1.946-.135-.885-.455-1.517-.295-.633-.803-.961-.48-.354-1.177-.354-.963 0-1.605.556-.615.531-.91 1.467zM43.771 5.815q.777-.456 1.873-.708a10.7 10.7 0 0 1 2.354-.253q1.123 0 1.792.329.696.302 1.07.86.402.53.508 1.238.135.683.134 1.44a53 53 0 0 1-.08 2.959q-.054 1.44-.054 2.73 0 .96.054 1.795.08.81.267 1.542h-1.47l-.456-1.491h-.107q-.401.657-1.177 1.137-.775.48-2.086.48-1.445 0-2.38-.935-.91-.96-.91-2.629 0-1.088.374-1.82a3.3 3.3 0 0 1 1.097-1.188 4.7 4.7 0 0 1 1.685-.633q.99-.202 2.194-.202h.535q.267 0 .561.026.08-.784.08-1.39.001-1.443-.454-2.023-.455-.582-1.659-.582-.749 0-1.631.228-.884.203-1.472.53zm5.805 6.118a6 6 0 0 0-.535-.026 6 6 0 0 0-.535-.025q-.642 0-1.257.101t-1.097.354-.776.683q-.267.43-.267 1.087 0 1.01.508 1.567.536.556 1.364.556 1.124 0 1.74-.505t.855-1.113zM54.402 15.624q.534.303 1.257.53.749.203 1.525.203.882 0 1.498-.405.615-.429.615-1.365 0-.783-.375-1.29-.374-.505-.963-.91a8.6 8.6 0 0 0-1.23-.732 7.6 7.6 0 0 1-1.257-.835q-.562-.48-.937-1.137-.375-.658-.374-1.669 0-1.618.91-2.427.936-.834 2.62-.834 1.098 0 1.9.202.803.177 1.391.506l-.508 1.517a5.3 5.3 0 0 0-1.177-.405 5.3 5.3 0 0 0-1.364-.177q-.963 0-1.418.38-.428.378-.428 1.187 0 .632.374 1.088.375.43.937.809.587.354 1.257.733.669.378 1.23.91.59.506.963 1.239.375.707.375 1.794 0 .709-.241 1.34-.24.633-.749 1.113-.482.454-1.23.733Q58.28 18 57.29 18q-1.178 0-2.033-.227-.857-.202-1.445-.557zM71.652 16.837q-.642.555-1.632.86a7 7 0 0 1-2.086.303q-1.258 0-2.193-.455a4.36 4.36 0 0 1-1.525-1.34q-.588-.885-.883-2.098-.267-1.215-.267-2.73 0-3.237 1.257-4.93 1.257-1.694 3.558-1.694.75 0 1.47.177a3 3 0 0 1 1.338.708q.59.53.937 1.491.374.96.374 2.503 0 .43-.053.935-.027.48-.08 1.012h-6.795q0 1.086.187 1.972.188.885.588 1.516a3 3 0 0 0 1.017.961q.642.33 1.578.329.722 0 1.418-.253.722-.252 1.097-.607zm-1.498-6.775q.054-1.896-.561-2.781t-1.686-.885q-1.23 0-1.952.885-.723.885-.856 2.78z"/></svg>