<svg xmlns="http://www.w3.org/2000/svg" width="20" height="20" fill="none"><path fill="#FBB80D" d="M11.119 2.65c-.383-.03-.737-.06-1.12-.06-.382 0-.736 0-1.118.03L10 1zM14.644 4.193c-.317-.217-.608-.42-.94-.61-.331-.192-.637-.369-.983-.535l1.778-.843zM16.926 7.293c-.166-.346-.317-.667-.509-.998-.191-.332-.368-.638-.585-.955l1.962.16zM17.35 11.119c.03-.383.06-.737.06-1.12 0-.382 0-.736-.03-1.118L19 10zM15.807 14.644c.217-.317.42-.608.61-.94.192-.331.369-.637.535-.983l.843 1.778zM12.707 16.926c.346-.166.667-.317.998-.509.332-.191.638-.368.955-.585l-.16 1.962zM8.881 17.35c.383.03.737.06 1.12.06.382 0 .736 0 1.118-.03L10 19zM5.356 15.807c.317.217.608.42.94.61.331.192.637.369.983.535l-1.779.843zM3.074 12.707c.166.346.317.667.509.998.191.332.368.638.585.955l-1.962-.16zM2.65 8.881c-.03.383-.06.737-.06 1.12 0 .382 0 .736.03 1.118L1 10zM4.193 5.356c-.217.317-.42.608-.61.94-.192.331-.369.637-.535.983L2.205 5.5zM7.293 3.074c-.346.166-.667.317-.998.509-.332.191-.638.368-.955.585l.16-1.962z"/><path fill="#FBB80D" d="M16.632 10a6.632 6.632 0 1 1-13.264 0 6.632 6.632 0 0 1 13.264 0"/></svg>