<svg width="15" height="16" fill="none" xmlns="http://www.w3.org/2000/svg"><path fill-rule="evenodd" clip-rule="evenodd" d="M10.4 2a2 2 0 0 1-2 2 2 2 0 0 1-2-2 2 2 0 0 1 4 0Zm4 2.6c0 1-.8 1.7-1.7 1.7-1 0-1.7-.8-1.7-1.7 0-1 .7-1.7 1.7-1.7s1.7.7 1.7 1.7Zm-.8 6.3c.8 0 1.4-.7 1.4-1.5S14.4 8 13.6 8c-.8 0-1.5.6-1.5 1.4 0 .8.7 1.5 1.5 1.5ZM12 13.7c0 .6-.5 1.2-1.1 1.2-.7 0-1.2-.6-1.2-1.2s.5-1.1 1.2-1.1c.6 0 1.1.5 1.1 1.1ZM5.8 16c.6 0 1.1-.5 1.1-1.1 0-.7-.5-1.2-1.1-1.2-.7 0-1.2.5-1.2 1.2 0 .6.5 1.1 1.2 1.1Zm-3.5-4.3c0 .5-.4.9-.9.9a.9.9 0 0 1-.8-.9c0-.5.4-.8.8-.8.5 0 1 .3 1 .8ZM.6 7.4c.3 0 .6-.2.6-.5 0-.4-.3-.6-.6-.6s-.6.2-.6.6c0 .3.3.5.6.5ZM4 3c0 .3-.2.5-.5.5a.6.6 0 0 1-.6-.5c0-.4.2-.6.6-.6.3 0 .5.2.5.6Z" fill="#fff"/></svg>
