<svg width="120" height="122" fill="none" xmlns="http://www.w3.org/2000/svg"><path d="M1 118.7 28.2 31 90 89.2 2.3 120a1 1 0 0 1-1.3-1.2Z" fill="#8AFFCE"/><path fill-rule="evenodd" clip-rule="evenodd" d="M91 89.8c4.4-4.8-6-22.4-23.4-39.4s-35.2-27-39.7-22.2a4 4 0 0 0-.8 1.6L0 119.4c-.5 1.6 1 3 2.6 2.5L88.2 91c1-.1 1.8-.4 2.5-1l.3-.3ZM55.2 71.4l-3.9-3.7C39 55.5 30 43 27.5 35L2.4 118.8l52.8-47.4Z" fill="#3E3075"/><path fill-rule="evenodd" clip-rule="evenodd" d="M34.6 3.6c14.2 13.9 16.2 36 5.8 52.1l3.3 2.3A46 46 0 0 0 37.4.6a2 2 0 0 0-2.8 0c-.8.9-.8 2.2 0 3Z" fill="#8358FF"/><path fill-rule="evenodd" clip-rule="evenodd" d="M114.5 81.4a41.3 41.3 0 0 0-52.1-3.9L60 74.2a45.4 45.4 0 0 1 57.4 4.3c.8.8.8 2 0 2.9a2 2 0 0 1-2.9 0Z" fill="#FFCB47"/><path fill-rule="evenodd" clip-rule="evenodd" d="M86 10.6c.2 1-.5 2.1-1.7 2.4l-3.2.6c-3 .6-4.9 3.3-4.4 6.1l.2.9c.7 3.9-1.7 7.7-5.7 9.1-2.4.9-3.6 3.5-2.5 5.8l1.8 3.7a2 2 0 0 1-1 2.6c-1.1.5-2.4 0-2.9-1l-1.8-3.6c-2.1-4.4.1-9.6 5-11.2 2-.8 3.2-2.7 2.9-4.8l-.2-.8c-.9-5 2.5-9.7 7.7-10.7l3.2-.7c1.2-.2 2.3.5 2.6 1.6ZM114.4 55a5.3 5.3 0 0 0-7.5-.6l-.7.6a8.2 8.2 0 0 1-10.8-.1 4.3 4.3 0 0 0-6.3.8l-2.4 3.4a2 2 0 0 1-2.9.5c-.9-.7-1-2-.4-3l2.4-3.4c2.9-4 8.5-4.8 12.3-1.5 1.6 1.4 3.9 1.4 5.5 0l.7-.5c4-3.3 9.8-2.8 13.1 1.1l2 2.4c.8.9.8 2.2 0 3a2 2 0 0 1-3-.2l-2-2.4Z" fill="#F85454"/><path d="M115.4 28a5.5 5.5 0 1 1-9.8-5 5.5 5.5 0 0 1 9.8 5Z" fill="#FF6363"/><path d="M109.6 43a3.5 3.5 0 1 1-6.2-3 3.5 3.5 0 0 1 6.2 3Z" fill="#6339DD"/><path d="M58.7 16.6a2.5 2.5 0 1 1-4.4-2.2 2.5 2.5 0 0 1 4.4 2.2Z" fill="#FFCB47"/><path d="M107.7 85.6a2.5 2.5 0 1 1-4.4-2.2 2.5 2.5 0 0 1 4.4 2.2Z" fill="#FF6363"/><path d="M93.6 80.8a4 4 0 1 1-7.2-3.6 4 4 0 0 1 7.2 3.6Z" fill="#6339DD"/><path d="M90.3 39.4a6.5 6.5 0 1 1-11.6-5.8 6.5 6.5 0 0 1 11.6 5.8Z" fill="#FFCB47"/><path d="M60.5 59.5a4.5 4.5 0 1 1-8-4 4.5 4.5 0 0 1 8 4Z" fill="#FF6363"/><path fill-rule="evenodd" clip-rule="evenodd" d="M33.2 43.4c4 6.7 10.6 14.8 18.9 22.8 8.2 8 16.6 14.3 23.4 18 3.3 2 6.3 3.1 8.6 3.6 2.4.5 3.8.1 4.5-.6l1.4 1.4c-1.4 1.5-3.8 1.7-6.3 1.1-2.6-.5-5.7-1.8-9.2-3.7-7-3.9-15.4-10.3-23.8-18.4a121 121 0 0 1-19.2-23.1c-2-3.4-3.5-6.5-4.1-9.1-.7-2.5-.6-4.9.9-6.4l1.4 1.4c-.7.7-1 2.1-.4 4.5.5 2.3 1.9 5.2 3.9 8.5Z" fill="#3E3075"/><path fill-rule="evenodd" clip-rule="evenodd" d="M87 89c0 .6-.5 1-1 1a29 29 0 0 1-12-4.6c-4.7-2.8-10.1-6.7-15.6-11.6a1 1 0 0 1-.2-1.4 1 1 0 0 1 1.4-.2C65.1 77 70.4 81 75 83.6c4.6 2.7 8.5 4.2 11 4.3.6 0 1 .6 1 1.1Z" fill="#8AFFCE"/></svg>
