<svg width="104" height="122" fill="none" xmlns="http://www.w3.org/2000/svg"><path d="M4 40a1 1 0 0 0-1 1v80c0 .6.4 1 1 1h94a3 3 0 0 0 3-3V41c0-.6-.4-1-1-1H4Z" fill="#3E3075"/><path fill-rule="evenodd" clip-rule="evenodd" d="M100 57c.6 0 1 .4 1 1v8.3a1 1 0 0 1-2 0V58c0-.6.4-1 1-1Zm0 14.2c.6 0 1 .4 1 1V120a2 2 0 0 1-2 2H77a1 1 0 0 1 0-2h22V72.2c0-.6.4-1 1-1Z" fill="#B0EBDB"/><path fill-rule="evenodd" clip-rule="evenodd" d="M11 57a2 2 0 0 1 2 2v55h3.6a2 2 0 1 1 0 4H12a3 3 0 0 1-3-3V59c0-1.1.9-2 2-2Zm10.6 59c0-1.1 1-2 2-2H33a2 2 0 1 1 0 4h-9.4a2 2 0 0 1-2-2Z" fill="#8358FF"/><path d="M0 33c0-.6.4-1 1-1h102c.6 0 1 .4 1 1v17c0 .6-.4 1-1 1H1a1 1 0 0 1-1-1V33Z" fill="#4E3995"/><path d="M66 34H38v15h3v73h22V49h3V34Z" fill="#8AFFCE"/><path fill-rule="evenodd" clip-rule="evenodd" d="M48 11.7 52 28l4-16.2C58.9 0 74.2-4 82.7 4.8A15.1 15.1 0 0 1 74 30.3L64 32H103c.6 0 1 .4 1 1v17c0 .6-.4 1-1 1H1a1 1 0 0 1-1-1V33c0-.6.4-1 1-1h39.1l-10-1.7a15.1 15.1 0 0 1-8.8-25.5C29.8-4 45 0 48 11.8Zm7.8 17.7 17.4-3c9.2-1.5 13-12.3 6.6-18.9-6.4-6.6-17.8-3.7-20 5.1l-4 16.8Zm-7.6 0-4-16.8C42 3.8 30.5 1 24.1 7.6a11.3 11.3 0 0 0 6.6 18.9l17.4 2.9ZM2 49V34h100v15H2Z" fill="#3E3075"/></svg>
