<?xml version="1.0" encoding="utf-8"?><svg xmlns="http://www.w3.org/2000/svg" xmlns:xlink="http://www.w3.org/1999/xlink"><symbol fill="none" viewBox="0 0 791 194" id="0"><path fill="var(--orange, #FFAD4D)" fill-rule="evenodd" d="M721.713 15.58a83 83 0 0 1 23.912 15.561c-4.041 3.49-8.57 5.245-12.037 5.245a.997.997 0 0 0-.995.998c0 .552.445.999.995.999 3.996 0 9.45 2.392 13.93 7.217 4.449 4.793 7.882 11.936 7.882 21.323 0 .552.445.999.995.999a.996.996 0 0 0 .994-.999c0-6.297 1.57-11.585 3.964-15.832 12.127 21.421 14.683 47.915 4.671 72.158q-.732 1.772-1.537 3.489c-18.068 13.754-32.811 1.906-32.472-9.791-14.592 19.634-63.492 4.55-35.824-45.105 20.347-36.516-5.609-35.516-29.886-34.58-14.736.569-28.854 1.113-31.622-6.771v-.05c22.615-21.059 56.442-27.968 87.03-14.86m2.615 40.929a.997.997 0 0 0-.995-.999.996.996 0 0 0-.994.999c0 10.912-8.028 16.347-12.563 16.347a.997.997 0 0 0-.995.998c0 .552.445 1 .995 1 2.224 0 5.349 1.345 7.943 4.139 2.564 2.761 4.554 6.888 4.554 12.336 0 .551.445.998.995.998a.996.996 0 0 0 .994-.998c0-5.443 2.02-9.569 4.616-12.332 2.627-2.796 5.786-4.144 8.013-4.144.55 0 .995-.447.995-.999a.997.997 0 0 0-.995-.998c-4.535 0-12.563-5.434-12.563-16.347" clip-rule="evenodd"/><path fill="var(--orange, #FFAD4D)" d="M609.035 89.628q-.002 1.457.049 2.91l.006-.003a81 81 0 0 1-.055-2.907"/><path fill="var(--yellow, #FFCB47)" d="M764.624 126.587c-18.085 13.736-32.948 1.626-32.609-10.026-14.592 19.545-63.024 4.72-35.356-44.712 20.347-36.353-6.077-35.547-30.354-34.615-14.736.565-28.854 1.107-31.622-6.742-8.18 7.558-14.893 16.95-19.455 27.901a80.16 80.16 0 0 0-6.138 33.866l19.615-11.153-6.875-10.826 39.143-2.02-18.278 35.157-8.191-13.16-19.244 11.07 114.44 61.165c14.778-7.783 27.278-19.865 34.924-35.905"/><path fill="var(--yellow, #FFCB47)" d="M753.344 114.868c4.988-1.268 13-15.193 11.776-19.744s-6.261-7.213-11.248-5.945c-11.074 2.815-6.146 27.118-.528 25.689"/><path fill="var(--athens, #F3F4FA)" d="m167.227 194.54 614.89-1.093L582.722 86.54l-163.686 76.791-47.008-24.785-.427.792-40.898-22.253-68.976 33.451-.319-.664z"/><path fill="var(--porcelain, #ECEEF5)" d="m256.283 143.236 74.36 23.483L430.94 95.414l1.794-1.312 112.655 70.455 62.282-38.942 108.456 57.866s40.391-33.766 74.589-66.816l.38 77.437H143.371z"/><path fill="var(--mystic, #D2D6E7)" d="M544.649 162.584 433.001 92.161l-102.58 73.312-74.358-23.75-114.395 52.168 4.334.124 110.184-50.151 72.202 23.062-37.087 27.235H420.45c-26.994-30.087-22.182-62.055 9.371-97.27l3.249-2.323 111.063 70.055 52.955 29.527h3.363c-12.102-20.414-11.007-50.851 7.143-67.41l126.669 67.347h9.133c1.053-24.23 16.561-46.612 47.24-77.137v-1.586L716.729 182.5 607.53 124.44z"/><path fill="var(--orange, #FFAD4D)" d="M541.924 132.641 432.668 62.023l-105.199 76.29-73.699-24.87-169.551 80.58h15.597l154.393-73.049 74.452 25.124 104.007-74.262 109.085 68.936 93.572-53.02 7.261 11.483 14.735-28.406-31.831 1.37 6.095 9.64z"/><path fill="var(--yellow-hover, #FBB80D)" d="M739.266 37.506c6.868-2.365 14.523-9.123 17.182-19.915 2.658 10.787 10.307 17.544 17.174 19.911-3.35 1.171-6.878 3.39-9.918 6.57-3.253 3.401-5.975 7.928-7.357 13.519-1.362-5.588-4.045-10.113-7.26-13.516-3.002-3.178-6.493-5.397-9.821-6.57"/></symbol></svg>