<?xml version="1.0" encoding="utf-8"?><svg xmlns="http://www.w3.org/2000/svg" xmlns:xlink="http://www.w3.org/1999/xlink"><symbol viewBox="0 0 16 16" id="0"><g clip-path="url(#aa)"><path d="m10.97 3.1.96-3.05c.03-.07.11-.07.14 0l.96 3.06c0 .02.02.04.04.04l2.88 1.02c.07.03.07.12 0 .14l-2.88 1.02a.07.07 0 0 0-.04.05l-.96 3.57a.07.07 0 0 1-.14 0l-.96-3.57a.07.07 0 0 0-.04-.05L8.05 4.31c-.07-.02-.07-.11 0-.14l2.88-1.02c.02 0 .04-.02.04-.04Z"/><path fill-rule="evenodd" d="M4.4 3.42c.17-.56 1.03-.56 1.2 0l1 3.18 3 1.07c.53.2.53.9 0 1.1l-3 1.04-1 3.74c-.16.59-1.06.59-1.22 0l-1-3.74L.4 8.76a.57.57 0 0 1 0-1.1l3-1.06zM5 5.03l-.64 2.04a.6.6 0 0 1-.38.38l-2.14.77 2.14.76c.2.07.34.22.39.4L5 11.74l.63-2.36a.6.6 0 0 1 .39-.4l2.14-.76-2.14-.77a.6.6 0 0 1-.38-.38z" clip-rule="evenodd"/><path d="m10.94 9.04-.71 2.37c0 .02-.02.03-.04.04l-2.15.8c-.05.01-.05.09 0 .11l2.15.8c.02 0 .03.02.04.04l.71 2.75c.02.07.1.07.12 0l.71-2.75c0-.02.02-.04.04-.05l2.15-.79c.05-.02.05-.1 0-.12l-2.15-.8a.06.06 0 0 1-.04-.03l-.71-2.37a.06.06 0 0 0-.12 0"/></g><defs><clipPath id="aa"><path d="M0 0h16v16H0z"/></clipPath></defs></symbol></svg>