<?xml version="1.0" encoding="utf-8"?><svg xmlns="http://www.w3.org/2000/svg" xmlns:xlink="http://www.w3.org/1999/xlink"><symbol viewBox="0 0 16 16" id="0"><path fill-rule="evenodd" d="M10.8 0H1.2C.5 0 0 .5 0 1.2v9.6c0 .7.5 1.2 1.2 1.2h9.6c.7 0 1.2-.5 1.2-1.2V1.2c0-.7-.5-1.2-1.2-1.2M1 1.2c0-.1 0-.2.2-.2h9.6c.1 0 .2 0 .2.2v9.6c0 .1 0 .2-.2.2H1.2c-.1 0-.2 0-.2-.2zM13.7 4a.5.5 0 0 0 0 1H15v10H5v-1.5a.5.5 0 1 0-1 0v1.8c0 .4.3.7.7.7h10.6c.4 0 .7-.3.7-.7V4.7c0-.4-.3-.7-.7-.7z" clip-rule="evenodd"/></symbol></svg>