<?xml version="1.0" encoding="utf-8"?><svg xmlns="http://www.w3.org/2000/svg" xmlns:xlink="http://www.w3.org/1999/xlink"><symbol viewBox="0 0 12 12" id="0"><path fill-rule="evenodd" d="M1 1h3v3H1zM0 1a1 1 0 0 1 1-1h3a1 1 0 0 1 1 1v3a1 1 0 0 1-1 1H1a1 1 0 0 1-1-1zm8 0h3v3H8zM7 1a1 1 0 0 1 1-1h3a1 1 0 0 1 1 1v3a1 1 0 0 1-1 1H8a1 1 0 0 1-1-1zm4 7H8v3h3zM8 7a1 1 0 0 0-1 1v3a1 1 0 0 0 1 1h3a1 1 0 0 0 1-1V8a1 1 0 0 0-1-1zM1 8h3v3H1zM0 8a1 1 0 0 1 1-1h3a1 1 0 0 1 1 1v3a1 1 0 0 1-1 1H1a1 1 0 0 1-1-1z" clip-rule="evenodd"/></symbol></svg>