<?xml version="1.0" encoding="utf-8"?><svg xmlns="http://www.w3.org/2000/svg" xmlns:xlink="http://www.w3.org/1999/xlink"><symbol viewBox="0 0 16 16" id="0"><path fill-rule="evenodd" d="M4.188.5a.5.5 0 0 1 .5-.5h6.62a.5.5 0 0 1 .5.5v2.045a.5.5 0 0 1-.228.42h3.916a.5.5 0 0 1 0 1H.5a.5.5 0 0 1 0-1h3.916a.5.5 0 0 1-.228-.42zm6.62 2.045a.5.5 0 0 0 .228.42H4.96a.5.5 0 0 0 .229-.42V1h5.62zM2.82 4.486a.5.5 0 0 0-1 0V14.5a1.5 1.5 0 0 0 1.5 1.5h9.264a1.5 1.5 0 0 0 1.5-1.5V4.486a.5.5 0 1 0-1 0V14.5a.5.5 0 0 1-.5.5H3.32a.5.5 0 0 1-.5-.5z" clip-rule="evenodd"/></symbol></svg>