<?xml version="1.0" encoding="utf-8"?><svg xmlns="http://www.w3.org/2000/svg" xmlns:xlink="http://www.w3.org/1999/xlink"><symbol viewBox="0 0 12 12" id="0"><path fill-rule="evenodd" d="M3.072.5a.5.5 0 0 1 .5-.5h4.856a.5.5 0 0 1 .5.5V2a.5.5 0 0 1-.032.175H11.5a.5.5 0 1 1 0 1h-.969a.5.5 0 0 1 .066.248V10.5a1.5 1.5 0 0 1-1.5 1.5h-6.26a1.5 1.5 0 0 1-1.5-1.5V3.423q.002-.137.066-.248h-.9a.5.5 0 0 1 0-1h2.602A.5.5 0 0 1 3.072 2zM2.27 3.175a.5.5 0 0 1 .066.248V10.5a.5.5 0 0 0 .5.5h6.26a.5.5 0 0 0 .5-.5V3.423q.002-.137.067-.248zM7.928 2q0 .092.03.175H4.042A.5.5 0 0 0 4.072 2V1h3.856z" clip-rule="evenodd"/></symbol></svg>