<?xml version="1.0" encoding="utf-8"?><svg xmlns="http://www.w3.org/2000/svg" xmlns:xlink="http://www.w3.org/1999/xlink"><symbol viewBox="0 0 17 16" id="0"><path fill-rule="evenodd" d="M3.74.5a.5.5 0 0 1 .5-.5h6.652a.5.5 0 0 1 .374.168l4.606 5.192a.5.5 0 0 1 .126.332v9.811a.5.5 0 0 1-.5.5H4.24a.5.5 0 0 1-.5-.5V9.675H.5a.5.5 0 0 1 0-1h3.24zm6.165.5H4.74v7.675h3.365L6.439 7.137a.5.5 0 1 1 .678-.735L9.683 8.77a.5.5 0 0 1 0 .734l-2.566 2.37a.5.5 0 1 1-.678-.736l1.587-1.464H4.74v5.328h10.258V6.192h-4.093a1 1 0 0 1-1-1zm4.48 4.192h-3.48V1.268z" clip-rule="evenodd"/></symbol></svg>