<?xml version="1.0" encoding="utf-8"?><svg xmlns="http://www.w3.org/2000/svg" xmlns:xlink="http://www.w3.org/1999/xlink"><symbol viewBox="0 0 20 20" id="0"><path fill-rule="evenodd" d="M12.146 7.853a.5.5 0 0 1 .001-.707L18.314 1H13.5a.5.5 0 0 1 0-1h6a.5.5 0 0 1 .5.5v6.005a.5.5 0 0 1-1 0V1.728l-6.147 6.126a.5.5 0 0 1-.707-.001m-4.292 4.294a.5.5 0 0 1-.001.707L1.686 19H6.5a.5.5 0 0 1 0 1h-6a.5.5 0 0 1-.5-.5v-6.005a.5.5 0 0 1 1 0v4.777l6.147-6.126a.5.5 0 0 1 .707.001" clip-rule="evenodd"/></symbol></svg>