<?xml version="1.0" encoding="utf-8"?><svg xmlns="http://www.w3.org/2000/svg" xmlns:xlink="http://www.w3.org/1999/xlink"><symbol viewBox="0 0 10 8" id="0"><path fill-rule="evenodd" d="M.233 3.405C1.537 1.989 3.58.498 5 .498c1.42 0 3.464 1.491 4.767 2.907a.875.875 0 0 1 0 1.19C8.464 6.01 6.42 7.5 5 7.5 3.58 7.5 1.537 6.01.233 4.594a.875.875 0 0 1 0-1.19M5 5.555c.897 0 1.623-.697 1.623-1.556S5.897 2.443 5 2.443c-.896 0-1.622.696-1.622 1.556S4.104 5.555 5 5.555" clip-rule="evenodd"/></symbol></svg>