<?xml version="1.0" encoding="utf-8"?><svg xmlns="http://www.w3.org/2000/svg" xmlns:xlink="http://www.w3.org/1999/xlink"><symbol viewBox="0 0 16 14" id="0"><path fill-rule="evenodd" d="M1.5 0C.67 0 0 .67 0 1.5v11.45A1 1 0 0 0 1 14h12.4a1 1 0 0 0 .98-.79l1.59-7.34A1 1 0 0 0 15 4.65V2.58c0-.83-.67-1.5-1.5-1.5H5.9a.5.5 0 0 1-.3-.1L4.68.29a1.5 1.5 0 0 0-.9-.29zm12.51 4.65V2.58a.5.5 0 0 0-.5-.5h-7.6c-.33 0-.64-.1-.9-.3L4.1 1.1a.5.5 0 0 0-.3-.1H1.5a.5.5 0 0 0-.5.5v6.76l.61-2.82a1 1 0 0 1 .98-.79H14Zm-11.42 1h12.4L13.42 13H1z" clip-rule="evenodd"/></symbol></svg>