<?xml version="1.0" encoding="utf-8"?><svg xmlns="http://www.w3.org/2000/svg" xmlns:xlink="http://www.w3.org/1999/xlink"><symbol viewBox="0 0 18 16" id="0"><path fill-rule="evenodd" d="M10.9 5.4v-1a3.4 3.4 0 1 0-6.8 0v1a3.4 3.4 0 0 0 6.8 0M7.5 0C5 0 3 2 3 4.4v1c0 1 .4 2 1 2.8a90 90 0 0 0-3 1.4c-.5.3-.7.8-.9 1.3V13c0 .6.4 1 .9 1h9.5a5 5 0 0 1 .2-1H1l.1-1.8c.1-.5.3-.7.4-.8l.8-.4a44 44 0 0 1 2.6-1 4.4 4.4 0 0 0 5 0 92 92 0 0 1 2.5 1 5 5 0 0 1 1-.7 17 17 0 0 0-1.7-.7 89 89 0 0 0-.9-.4c.7-.8 1-1.8 1-2.8v-1C11.9 2 10 0 7.6 0Zm8 11c.3 0 .5.2.5.5V13h1.5a.5.5 0 1 1 0 1H16v1.5a.5.5 0 0 1-1 0V14h-1.5a.5.5 0 1 1 0-1H15v-1.5c0-.3.2-.5.5-.5" clip-rule="evenodd"/></symbol></svg>