<?xml version="1.0" encoding="utf-8"?><svg xmlns="http://www.w3.org/2000/svg" xmlns:xlink="http://www.w3.org/1999/xlink"><symbol viewBox="0 0 14 14" id="0"><path fill-rule="evenodd" d="M3.5.5A.5.5 0 0 0 3 0H.5a.5.5 0 0 0-.5.5V3a.5.5 0 0 0 1 0V1.707l3.646 3.647a.5.5 0 1 0 .708-.708L1.707 1H3a.5.5 0 0 0 .5-.5M3 14a.5.5 0 0 0 0-1H1.707l3.647-3.646a.5.5 0 1 0-.708-.708L1 12.293V11a.5.5 0 0 0-1 0v2.5a.5.5 0 0 0 .5.5zm8 0a.5.5 0 0 1 0-1h1.293L8.646 9.354a.5.5 0 1 1 .708-.708L13 12.293V11a.5.5 0 0 1 1 0v2.5a.5.5 0 0 1-.5.5zm0-14a.5.5 0 0 0 0 1h1.293L8.646 4.646a.5.5 0 1 0 .708.708L13 1.707V3a.5.5 0 0 0 1 0V.5a.5.5 0 0 0-.5-.5z" clip-rule="evenodd"/></symbol></svg>