<?xml version="1.0" encoding="utf-8"?><svg xmlns="http://www.w3.org/2000/svg" xmlns:xlink="http://www.w3.org/1999/xlink"><symbol viewBox="0 0 16 16" id="0"><path fill-rule="evenodd" d="M8 15a6.97 6.97 0 0 0 4.033-1.277 5.04 5.04 0 0 1-1.353-2.278c-.12-.435-.644-2.706.937-4.654a5.03 5.03 0 0 1 2.735-1.736 7.03 7.03 0 0 0-2.71-3.034c-.832.537-1.794 1.297-2.298 2.18a6.5 6.5 0 0 0-.494 1.126c-.167.531-.248 1.137-.248 1.852 0 2.52-.25 3.122-1.053 3.763-.448.358-1.047.536-1.64.536-.603 0-1.2-.185-1.619-.555-.736-.65-.714-1.568-.697-2.306v-.002c.01-.397.02-.848-.12-.971-.021-.018-.417-.354-2.464.722A7 7 0 0 0 8 15M1.088 6.889a7.002 7.002 0 0 1 9.23-5.496c-.775.585-1.551 1.336-2.045 2.2a7.5 7.5 0 0 0-.6 1.369c-.203.65-.302 1.376-.302 2.217 0 2.33-.223 2.508-.59 2.801-.433.345-1.293.356-1.673.02-.286-.252-.296-.68-.28-1.356.016-.669.033-1.427-.546-1.929-.642-.557-1.632-.539-3.194.174M15 8a6.98 6.98 0 0 1-2.027 4.926 3.9 3.9 0 0 1-1.105-1.809c-.057-.204-.518-2.041.707-3.551v.001c.668-.824 1.508-1.181 2.2-1.332C14.923 6.8 15 7.39 15 8m-7 8A8 8 0 1 0 8 0a8 8 0 0 0 0 16" clip-rule="evenodd"/></symbol></svg>