<?xml version="1.0" encoding="utf-8"?><svg xmlns="http://www.w3.org/2000/svg" xmlns:xlink="http://www.w3.org/1999/xlink"><symbol viewBox="0 0 48 48" id="0"><path d="M24 9.5a13 13 0 0 1 9.2 3.6l6.9-6.8a24 24 0 0 0-37.5 7l8 6.1c1.8-5.7 7.1-9.9 13.4-9.9"/><path d="M47 24.6c0-1.6-.2-3.1-.4-4.6H24v9h13c-.6 3-2.3 5.5-4.8 7.2l7.7 6c4.5-4.2 7-10.4 7-17.6z"/><path d="M10.5 28.6a14.6 14.6 0 0 1 0-9.2l-8-6.2a24 24 0 0 0 0 21.6z"/><path d="M24 48c6.5 0 12-2.1 15.9-5.8l-7.7-6c-2.2 1.4-5 2.3-8.2 2.3-6.3 0-11.6-4.2-13.5-10l-8 6.3A24 24 0 0 0 24 48"/><path d="M0 0h48v48H0z"/></symbol></svg>