<?xml version="1.0" encoding="utf-8"?><svg xmlns="http://www.w3.org/2000/svg" xmlns:xlink="http://www.w3.org/1999/xlink"><symbol viewBox="0 0 16 14" id="0"><path fill-rule="evenodd" d="M8 1.579C6.861.139 4.879-.278 3.218.175c-.967.263-1.866.828-2.47 1.697C.142 2.747-.14 3.893.07 5.266c.12.785.598 1.558 1.197 2.283.606.735 1.385 1.478 2.186 2.2q.497.447.989.88c.477.421.945.834 1.388 1.246.743.69 1.362 1.329 1.758 1.906a.5.5 0 0 0 .826 0c.396-.577 1.015-1.216 1.758-1.906.443-.412.91-.825 1.388-1.246q.491-.432.99-.88c.8-.722 1.58-1.465 2.185-2.2.599-.725 1.077-1.498 1.197-2.283.21-1.373-.072-2.52-.68-3.394-.603-.87-1.502-1.434-2.469-1.697C11.122-.278 9.14.14 8 1.579m0 1.43a.5.5 0 0 1-.449-.278C6.826 1.263 5.055.711 3.481 1.14c-.774.21-1.46.653-1.91 1.302-.447.643-.688 1.526-.513 2.673l-.494.076.494-.076c.078.513.414 1.113.979 1.798.557.674 1.29 1.377 2.085 2.094.312.281.637.568.962.856.488.43.978.863 1.426 1.28.552.512 1.07 1.027 1.49 1.532.42-.505.938-1.02 1.49-1.533a78 78 0 0 1 1.426-1.28c.325-.287.65-.574.962-.855.795-.717 1.528-1.42 2.085-2.094.565-.685.901-1.285.98-1.798l.493.076-.494-.076c.175-1.147-.066-2.03-.512-2.673-.45-.65-1.137-1.091-1.91-1.302-1.575-.429-3.346.123-4.071 1.591A.5.5 0 0 1 8 3.01" clip-rule="evenodd"/></symbol></svg>