<?xml version="1.0" encoding="utf-8"?><svg xmlns="http://www.w3.org/2000/svg" xmlns:xlink="http://www.w3.org/1999/xlink"><symbol viewBox="0 0 14 15" id="0"><path fill-rule="evenodd" d="M9 1H5a2 2 0 0 0-2 2v1h8V3a2 2 0 0 0-2-2M2 3v1a2 2 0 0 0-2 2v7a2 2 0 0 0 2 2h10a2 2 0 0 0 2-2V6a2 2 0 0 0-2-2V3a3 3 0 0 0-3-3H5a3 3 0 0 0-3 3m9 2h1a1 1 0 0 1 1 1v7a1 1 0 0 1-1 1H2a1 1 0 0 1-1-1V6a1 1 0 0 1 1-1h9M8 9.5a1 1 0 1 1-2 0 1 1 0 0 1 2 0m1 0a2 2 0 1 1-4 0 2 2 0 0 1 4 0" clip-rule="evenodd"/></symbol></svg>