<?xml version="1.0" encoding="utf-8"?><svg xmlns="http://www.w3.org/2000/svg" xmlns:xlink="http://www.w3.org/1999/xlink"><symbol viewBox="0 0 18 14" id="0"><path fill-rule="evenodd" d="M14.932 4.661a.565.565 0 0 0-.79 0l-1.978 1.95a.546.546 0 0 0 0 .779l1.977 1.949a.565.565 0 0 0 .791 0 .545.545 0 0 0 0-.78L13.91 7.551h3.532c.309 0 .559-.247.559-.551a.555.555 0 0 0-.56-.551h-3.53l1.022-1.008a.545.545 0 0 0 0-.78M3.068 9.339a.565.565 0 0 0 .79 0l1.978-1.95a.546.546 0 0 0 0-.779L3.86 4.661a.565.565 0 0 0-.791 0 .546.546 0 0 0 0 .78L4.09 6.449H.56A.555.555 0 0 0 0 7c0 .304.25.551.56.551h3.53L3.068 8.56a.546.546 0 0 0 0 .78" clip-rule="evenodd"/><path d="M8.5.5a.5.5 0 0 1 1 0v13a.5.5 0 0 1-1 0z"/><path d="M1.5 1a.5.5 0 0 1 0-1h15a.5.5 0 0 1 0 1zM1.5 14a.5.5 0 0 1 0-1h15a.5.5 0 0 1 0 1z"/></symbol></svg>