<?xml version="1.0" encoding="utf-8"?><svg xmlns="http://www.w3.org/2000/svg" xmlns:xlink="http://www.w3.org/1999/xlink"><symbol viewBox="0 0 16 16" id="0"><path fill-rule="evenodd" d="m8 1 6.5 3.526v6.948L8 15l-6.5-3.526V4.526zM7.523.121a1 1 0 0 1 .954 0l6.5 3.526a1 1 0 0 1 .523.88v6.947a1 1 0 0 1-.523.879l-6.5 3.526a1 1 0 0 1-.954 0l-6.5-3.526a1 1 0 0 1-.523-.88V4.527a1 1 0 0 1 .523-.879zm.702 2.798a.5.5 0 0 0-.496.01L4.733 4.728a.5.5 0 1 0 .515.857l2.75-1.65 3.95 2.143v4.407a.5.5 0 1 0 1 0V5.78a.5.5 0 0 0-.261-.44z" clip-rule="evenodd"/></symbol></svg>