<?xml version="1.0" encoding="utf-8"?><svg xmlns="http://www.w3.org/2000/svg" xmlns:xlink="http://www.w3.org/1999/xlink"><symbol viewBox="0 0 16 16" id="0"><path fill-rule="evenodd" d="M10.4 1.09a5.6 5.6 0 0 1 4.5 4.51h-4.5V1.1zm0-1.01A6.6 6.6 0 0 1 16 6.6H9.4V0c.34 0 .67.03 1 .08m2.74 8.19c.06.35.1.72.1 1.1v.03a6.62 6.62 0 1 1-6.62-6.63c.27 0 .5.22.5.5v5.61h5.61c.28 0 .5.22.5.49a6.7 6.7 0 0 0-.09-1.1M6.12 9.38v-5.6a5.62 5.62 0 1 0 6.1 6.1h-5.6a.5.5 0 0 1-.5-.5" clip-rule="evenodd"/></symbol></svg>