<?xml version="1.0" encoding="utf-8"?><svg xmlns="http://www.w3.org/2000/svg" xmlns:xlink="http://www.w3.org/1999/xlink"><symbol viewBox="0 0 16 16" id="0"><path d="M2.5 3.5A.5.5 0 0 1 3 3h5a.5.5 0 0 1 0 1H3a.5.5 0 0 1-.5-.5"/><path fill-rule="evenodd" d="M0 1a1 1 0 0 1 1-1h14a1 1 0 0 1 1 1v5a1 1 0 0 1-1 1H1a1 1 0 0 1-1-1zm1 0h14v5H1z" clip-rule="evenodd"/><path d="M3 12a.5.5 0 0 0 0 1h5a.5.5 0 0 0 0-1z"/><path fill-rule="evenodd" d="M0 10a1 1 0 0 1 1-1h14a1 1 0 0 1 1 1v5a1 1 0 0 1-1 1H1a1 1 0 0 1-1-1zm1 0h14v5H1z" clip-rule="evenodd"/></symbol></svg>