<?xml version="1.0" encoding="utf-8"?><svg xmlns="http://www.w3.org/2000/svg" xmlns:xlink="http://www.w3.org/1999/xlink"><symbol viewBox="0 0 18 18" id="0"><path d="M4.63 9c0 .524-.432.95-.965.95A.96.96 0 0 1 2.7 9c0-.525.432-.95.965-.95s.966.425.966.95M14.335 9.95A.96.96 0 0 0 15.3 9a.96.96 0 0 0-.965-.95.96.96 0 0 0-.966.95c0 .524.433.95.966.95M10.928 5.407c-.81-.425-1.714-.56-2.474-.381-.774.182-1.445.712-1.57 1.599a2.15 2.15 0 0 0 .503 1.765c.359.424.856.737 1.278.997.453.279.83.503 1.108.774.255.25.392.506.392.848 0 .384-.118.582-.242.696-.137.124-.357.213-.668.235-.642.045-1.423-.213-1.855-.542l-.686.873c.643.49 1.696.835 2.62.77.472-.033.967-.177 1.35-.526.396-.36.602-.875.602-1.506 0-.708-.314-1.231-.724-1.632-.388-.379-.894-.675-1.303-.927-.44-.27-.784-.499-1.011-.767-.201-.238-.31-.506-.254-.906.046-.33.279-.573.72-.677.455-.107 1.08-.037 1.688.281z"/><path fill-rule="evenodd" d="M9 17.344A8.344 8.344 0 1 0 9 .656a8.344 8.344 0 0 0 0 16.688M18 9A9 9 0 1 1 0 9a9 9 0 0 1 18 0" clip-rule="evenodd"/></symbol></svg>