<?xml version="1.0" encoding="utf-8"?><svg xmlns="http://www.w3.org/2000/svg" xmlns:xlink="http://www.w3.org/1999/xlink"><symbol viewBox="0 0 16 16" id="0"><path fill-rule="evenodd" d="M5.858 1H1v4.857h4.857zM1 0a1 1 0 0 0-1 1v4.857a1 1 0 0 0 1 1h4.857a1 1 0 0 0 1-1V1a1 1 0 0 0-1-1zm14 1h-4.857v4.857H15zm-4.857-1a1 1 0 0 0-1 1v4.857a1 1 0 0 0 1 1H15a1 1 0 0 0 1-1V1a1 1 0 0 0-1-1zM0 12.5a.5.5 0 0 1 .5-.5h15a.5.5 0 0 1 0 1H.5a.5.5 0 0 1-.5-.5M.5 9a.5.5 0 0 0 0 1h15a.5.5 0 0 0 0-1zM0 15.5a.5.5 0 0 1 .5-.5h15a.5.5 0 0 1 0 1H.5a.5.5 0 0 1-.5-.5" clip-rule="evenodd"/></symbol></svg>