<?xml version="1.0" encoding="utf-8"?><svg xmlns="http://www.w3.org/2000/svg" xmlns:xlink="http://www.w3.org/1999/xlink"><symbol viewBox="0 0 14 14" id="0"><path fill-rule="evenodd" d="M.141 13.855a.5.5 0 0 1 .001-.707l3.95-3.937H1.18a.5.5 0 0 1 0-1h4.106a.5.5 0 0 1 .5.5v4.11a.5.5 0 1 1-1 0V9.93L.848 13.857a.5.5 0 0 1-.707 0M13.854.145a.5.5 0 0 1-.001.707l-3.95 3.937h2.913a.5.5 0 0 1 0 1H8.709a.5.5 0 0 1-.5-.5v-4.11a.5.5 0 1 1 1 0v2.89L13.147.143a.5.5 0 0 1 .707 0" clip-rule="evenodd"/></symbol></svg>