<?xml version="1.0" encoding="utf-8"?><svg xmlns="http://www.w3.org/2000/svg" xmlns:xlink="http://www.w3.org/1999/xlink"><symbol viewBox="0 0 20 17" id="0"><path d="M20 2.375c-.75.375-1.5.5-2.375.625.875-.5 1.5-1.25 1.75-2.25-.75.5-1.625.75-2.625 1C16 1 14.875.5 13.75.5c-2.125 0-4 1.875-4 4.125 0 .375 0 .625.125.875-3.375-.125-6.5-1.75-8.5-4.25-.375.625-.5 1.25-.5 2.125C.875 4.75 1.625 6 2.75 6.75c-.625 0-1.25-.25-1.875-.5 0 2 1.375 3.625 3.25 4-.375.125-.75.125-1.125.125-.25 0-.5 0-.75-.125.5 1.625 2 2.875 3.875 2.875C4.75 14.25 3 14.875 1 14.875H0C1.875 16 4 16.75 6.25 16.75c7.5 0 11.625-6.25 11.625-11.625v-.5C18.75 4 19.5 3.25 20 2.375"/></symbol></svg>