<?xml version="1.0" encoding="utf-8"?><svg xmlns="http://www.w3.org/2000/svg" xmlns:xlink="http://www.w3.org/1999/xlink"><symbol fill="none" viewBox="0 0 22 20" id="0"><path d="M4.5 11a.5.5 0 000 1h13a.5.5 0 000-1h-13zm0 4a.5.5 0 000 1h13a.5.5 0 000-1h-13z" fill="var(--product-color-1, #4E5472)"/><path fill-rule="evenodd" clip-rule="evenodd" d="M0 1a1 1 0 011-1h20a1 1 0 011 1v3a1 1 0 01-1 1H1a1 1 0 01-1-1V1zm1 0h20v3H1V1zM0 8a1 1 0 011-1h20a1 1 0 011 1v11a1 1 0 01-1 1H1a1 1 0 01-1-1V8zm1 0h20v11H1V8z" fill="var(--product-color-2, #9FAAC4)"/></symbol></svg>