<svg xmlns="http://www.w3.org/2000/svg" width="166" height="166" fill="none"><g clip-path="url(#a)"><rect width="166" height="166" fill="var(--athens, #f3f4fa)" rx="83"/><path fill="var(--blue-light-2, #dae0fd)" d="M179.343 184.938c1.523 3.965-2.498 7.792-6.432 6.121L66.794 145.995c-3.195-1.357-3.961-5.505-1.457-7.888l65.033-61.89c2.504-2.383 6.654-1.454 7.891 1.767z"/><path fill="var(--blue-light-3, #a9baff)" d="M64.772 144.412a4.8 4.8 0 0 0 2.01 1.584l92.851 39.43c1.764-1.54 3.742-3.45 5.436-5.059 3.199-3.04 6.186-6.16 8.934-9.304l-5.321-13.854c-3.512 4.579-7.733 9.299-12.585 13.908a126 126 0 0 1-9.717 8.341c-4.666-2.239-9.407-4.655-14.078-7.256 5.493-3.768 11.047-8.262 16.4-13.348 5.486-5.211 10.35-10.656 14.44-16.061l-5.613-14.615c-4.189 6.779-10.23 14.235-17.799 21.426-6.615 6.284-13.388 11.403-19.673 15.175-4.784-3.177-9.338-6.58-13.472-10.225 7.026-4.304 14.281-9.884 21.2-16.458 9.795-9.305 17.619-19.351 22.567-28.604l-7.153-18.62c-.162 2.5-1.089 5.901-3.035 10.051-3.892 8.297-11.267 18.345-21.349 27.923-7.252 6.889-14.692 12.385-21.473 16.232-1.95-2.374-3.708-4.835-5.232-7.385-10.46 6.106-21.018 8.263-27.338 6.719"/><path fill="var(--blue-light-3, #a9baff)" d="M61.195 142.563c7.89 8.061 31.012-1.149 51.644-20.572 20.633-19.422 30.962-41.701 23.072-49.762s-31.012 1.15-51.644 20.572-30.962 41.702-23.072 49.762"/><path fill="var(--blue-light-4, #8099ff)" d="M96.885 105.382c-15.57 14.781-24.105 30.974-19.064 36.169a4.8 4.8 0 0 0 1.452 1.009c9.653-3.555 21.261-11.113 32.175-21.596 11.299-10.853 19.498-22.578 23.283-32.284a4.6 4.6 0 0 0-.524-.655c-5.042-5.195-21.752 2.577-37.322 17.357"/><path fill="#fff" d="M84.266 92.801c20.632-19.422 43.754-28.633 51.644-20.573 7.89 8.061-2.44 30.34-23.072 49.763-20.31 19.119-43.032 28.343-51.263 20.937l-.38-.364c-7.768-7.935 2.12-29.648 22.112-48.851zm48.144-17.278c-.736-.751-2.162-1.47-4.932-1.445-2.781.026-6.43.821-10.768 2.55-8.648 3.444-19.083 10.217-29.07 19.619-9.989 9.402-17.316 19.351-21.18 27.684-1.937 4.18-2.896 7.722-3.036 10.446-.14 2.713.534 4.14 1.27 4.891s2.162 1.471 4.932 1.446c2.782-.026 6.43-.821 10.769-2.549 8.647-3.445 19.083-10.218 29.07-19.62s17.316-19.351 21.179-27.684c1.938-4.18 2.896-7.722 3.036-10.446.14-2.713-.534-4.14-1.27-4.892"/><path fill="var(--green-light-3, #b0ebdb)" d="M62.937 81.216a3.86 3.86 0 0 1 5.432-.161 3.8 3.8 0 0 1 .17 5.396 3.86 3.86 0 0 1-5.432.161 3.8 3.8 0 0 1-.17-5.396M53.96 47.982c2.907-3.07 7.772-3.216 10.867-.325a7.6 7.6 0 0 1 .34 10.793c-2.907 3.07-7.772 3.216-10.867.325a7.6 7.6 0 0 1-.34-10.793"/><path fill="#ff8c8c" d="M26.196 86.602c7.594-5.015 17.78-.456 19.156 8.573.976 6.407 8.525 9.274 13.474 5.116l1.112-.936c6.977-5.862 17.59-3.126 20.888 5.383l1.643 4.24a2.124 2.124 0 0 1-1.194 2.741 2.09 2.09 0 0 1-2.717-1.196l-1.644-4.24c-2.256-5.822-9.517-7.693-14.29-3.682l-1.112.933c-7.46 6.268-18.84 1.949-20.311-7.709-.913-5.99-7.67-9.015-12.71-5.687l-4.84 3.197c-.971.64-2.272.369-2.907-.607a2.126 2.126 0 0 1 .609-2.927zM98.288 18.793a3.25 3.25 0 0 1 4.558-.134 3.16 3.16 0 0 1 .144 4.505 3.25 3.25 0 0 1-4.557.132 3.16 3.16 0 0 1-.145-4.503"/><path fill="var(--green-light-3, #b0ebdb)" d="M23.455 126.797c-.634-.941-.304-2.226.726-2.703 20.439-9.458 45.565-5.494 61.95 10.924.081.081.17.176.257.269a68 68 0 0 1-3.604 1.744c-15.208-14.748-38.169-18.23-56.898-9.577-.864.399-1.898.132-2.43-.657M128.938 24.337c.774.722.808 1.936.111 2.733-16.499 18.88-16.002 47.076.803 65.44a64 64 0 0 1-1.931 3.53c-18.989-19.792-19.816-50.936-1.652-71.593.694-.789 1.901-.827 2.669-.11"/><path fill="var(--yellow, #ffcb47)" d="M99.852 95.796a5.62 5.62 0 0 1 7.93-.242 5.586 5.586 0 0 1 .244 7.91 5.62 5.62 0 0 1-7.93.242 5.586 5.586 0 0 1-.244-7.91M75.976 13.604c.685-.936 2.023-1.15 2.986-.477a2.06 2.06 0 0 1 .502 2.915l-3.42 4.67c-3.557 4.86-.756 11.708 5.27 12.877 9.713 1.885 13.648 13.379 7.024 20.515l-.989 1.065c-4.239 4.566-2.623 11.865 3.18 14.361l4.227 1.818c1.083.466 1.58 1.698 1.107 2.752-.472 1.055-1.735 1.532-2.818 1.065l-4.226-1.818C80.337 69.7 77.975 59.034 84.17 52.36l.988-1.064c4.395-4.735 1.782-12.363-4.662-13.614-9.081-1.763-13.302-12.081-7.94-19.407zM22.667 52.636a5.52 5.52 0 0 1 7.887-.258c2.241 2.14 2.344 5.725.23 8.007a5.52 5.52 0 0 1-7.886.258c-2.242-2.14-2.345-5.724-.23-8.007"/></g><defs><clipPath id="a"><rect width="166" height="166" fill="#fff" rx="83"/></clipPath></defs></svg>