<svg width="360" height="338" viewBox="0 0 360 338" fill="none" xmlns="http://www.w3.org/2000/svg">
<g clip-path="url(#clip0_2203_7727)">
<path d="M171.915 167.997L179.793 171.932L210.527 220.788L225.241 244.178L241.948 270.738C241.876 280.137 241.802 289.537 241.73 298.937C212.549 311.543 181.507 323.601 152.327 336.208L86.1231 290.411V230.953C84.3 229.714 82.4748 228.476 80.6517 227.237L79.9951 199.038C110.635 188.692 141.275 178.343 171.915 167.997Z" fill="#26C953"/>
<path d="M152.742 241.942L241.714 212.149V298.447L152.742 335.432V241.942Z" fill="#1BAD44"/>
<path fill-rule="evenodd" clip-rule="evenodd" d="M171.986 166.952L180.465 171.186L242.915 270.461L242.913 270.745C242.877 275.445 242.84 280.145 242.803 284.845L242.803 284.856C242.767 289.552 242.73 294.248 242.694 298.944L242.689 299.576L242.111 299.825C227.512 306.132 212.449 312.301 197.396 318.466L197.393 318.468C182.336 324.635 167.289 330.797 152.708 337.096L152.219 337.308L85.1589 290.919V231.466C84.3887 230.943 83.618 230.42 82.8472 229.896L82.8436 229.894C81.9328 229.275 81.0216 228.657 80.1109 228.038L79.6994 227.758L79.0146 198.348L79.6877 198.121C95.0076 192.948 110.327 187.774 125.647 182.6L125.909 182.512C141.142 177.368 156.374 172.224 171.607 167.08L171.986 166.952ZM87.0875 232.716V289.903L152.436 335.107C166.88 328.874 181.774 322.774 196.658 316.679L196.664 316.676C211.522 310.591 226.371 304.51 240.77 298.297C240.805 293.808 240.84 289.319 240.875 284.829L240.875 284.815C240.911 280.215 240.947 275.614 240.982 271.014L224.853 245.374L152.225 274.333L87.0875 232.716ZM223.806 243.709L210.129 221.968L152.229 243.498L81.0001 200.768L81.6042 226.715C82.3697 227.236 83.1356 227.756 83.9017 228.276L83.9279 228.293C84.8361 228.91 85.7447 229.527 86.6528 230.144L152.429 272.17L223.806 243.709ZM82.2865 199.285L152.425 241.361L209.077 220.296L179.122 172.677L171.843 169.042C156.65 174.172 141.456 179.303 126.263 184.434L126.061 184.502C111.469 189.43 96.878 194.358 82.2865 199.285ZM152.327 245.396C152.86 245.396 153.291 245.83 153.291 246.364V268.224C153.291 268.758 152.86 269.191 152.327 269.191C151.795 269.191 151.363 268.758 151.363 268.224V246.364C151.363 245.83 151.795 245.396 152.327 245.396ZM152.327 277.421C152.86 277.421 153.291 277.854 153.291 278.388V331.398C153.291 331.933 152.86 332.366 152.327 332.366C151.795 332.366 151.363 331.933 151.363 331.398V278.388C151.363 277.854 151.795 277.421 152.327 277.421Z" fill="#1A1D2F"/>
<path d="M124.457 226.019V316.94L94.114 296.393V206.499L142.457 193.657L176.4 195.198V211.636L124.457 226.019Z" fill="#5275FF"/>
<path fill-rule="evenodd" clip-rule="evenodd" d="M142.353 192.684L177.364 194.273V212.372L125.421 226.755V318.76L93.1499 296.907V205.754L142.353 192.684ZM142.561 194.63L95.0785 207.244V295.878L123.493 315.119V225.282L175.436 210.899V196.123L142.561 194.63Z" fill="#1A1D2F"/>
<path d="M181.029 232.183V324.131L213.943 310.558V220.882L141.943 177.219L110.572 188.52L181.029 232.183Z" fill="#5275FF"/>
<path d="M181.029 231.669L212.4 220.368L213.943 310.262L181.029 324.131V231.669Z" fill="#5275FF"/>
<path fill-rule="evenodd" clip-rule="evenodd" d="M142.049 176.153L214.907 220.336V311.207L180.064 325.575V232.722L108.362 188.288L142.049 176.153ZM112.781 188.752L181.993 231.643V322.687L212.978 309.91V221.428L141.837 178.286L112.781 188.752Z" fill="#1A1D2F"/>
<path fill-rule="evenodd" clip-rule="evenodd" d="M204.042 222.587C204.234 223.086 203.987 223.646 203.491 223.839L184.976 231.03C184.48 231.223 183.921 230.976 183.729 230.477C183.537 229.979 183.784 229.419 184.28 229.226L202.795 222.034C203.291 221.841 203.85 222.089 204.042 222.587Z" fill="#1A1D2F"/>
<path fill-rule="evenodd" clip-rule="evenodd" d="M96.3748 208.566C96.6508 208.109 97.2438 207.963 97.6992 208.24L121.356 222.623C121.812 222.899 121.957 223.494 121.681 223.951C121.405 224.408 120.812 224.554 120.357 224.278L96.6998 209.895C96.2444 209.618 96.0988 209.023 96.3748 208.566Z" fill="#1A1D2F"/>
<path d="M163.379 78.5554C163.379 141.826 170.022 186.129 185.223 216.717C185.688 217.652 186.347 218.467 187.148 219.134C188.832 220.534 190.515 221.933 192.199 223.333C193.643 224.533 194.492 226.307 194.524 228.188L195.385 278.459C195.409 279.861 196.541 280.986 197.938 280.927C205.958 280.589 220.427 278.74 230.385 276.924C240.702 275.043 264.391 269.602 289.507 252.516C298.268 246.557 319.355 230.913 336.366 202.813C352.813 175.645 356.891 150.976 357.826 144.678C359.415 133.988 362.137 114.311 355.855 90.0936C347.781 58.9715 329.907 39.9134 326.075 35.9527C292.528 1.27586 248.366 0.122037 237.173 0.00665474C226.528 -0.102071 191.699 0.858709 161.409 23.0831C147.195 33.5119 148.224 38.1738 128.344 54.1476C109.101 69.6111 100.346 71.5038 75.3531 86.7653C41.29 107.565 24.2607 117.965 13.8223 134.693C1.74608 154.047 -5.25442 183.842 4.84452 212.355C16.6777 245.762 47.465 268.532 85.8637 271.925C85.8637 271.925 86.4484 244.75 85.8637 230.771C84.0397 229.513 82.2135 228.257 80.3895 226.999C80.1705 217.458 79.9515 207.917 79.7326 198.376C100.169 191.424 120.608 184.47 141.044 177.518C148.489 144.53 155.934 111.544 163.379 78.5554Z" fill="#15181F"/>
<path d="M160.714 197.766L167.167 184.897C169.286 183.862 170.857 182.892 172.928 181.901L173.571 183.836C175.5 192.221 176.528 197.382 179.742 206.412L183.6 214.798C177.86 212.822 171.604 209.048 167.823 206.027L160.714 197.766Z" fill="#5275FF"/>
<path fill-rule="evenodd" clip-rule="evenodd" d="M172.928 181.901C171.975 182.357 171.857 182.293 170.647 182.676L170.611 182.687C169.418 183.066 168.136 183.473 167.002 184.027L166.709 184.17L159.82 197.909L167.409 206.728L167.48 206.784C171.393 209.911 178.548 213.134 184.316 215.119L185.143 216.088L180.381 206.215C177.666 199.065 175.132 191.211 173.63 183.709L172.928 181.901ZM180.381 206.951L182.838 212.531C177.994 210.713 172.715 208.226 169.414 205.828C172.445 206.327 177.196 206.723 180.381 206.951ZM169.145 205.629C169.037 205.548 168.931 205.467 168.828 205.386L169.276 204.869L169.145 205.629ZM169.445 203.889L162.169 197.53L168.135 185.631C169.052 185.215 170.091 184.882 171.192 184.533C171.226 184.522 171.26 184.511 171.294 184.5C172.064 184.257 172.864 184.003 173.63 183.709L173.694 184.025C175.5 193.511 177.093 198.142 179.597 204.953C176.368 204.711 172.093 204.331 169.449 203.871L169.445 203.889Z" fill="#1A1D2F"/>
<path d="M149.037 204.171C136.972 209.791 110.861 211.831 107.592 199.668C109.726 147.679 130.24 165.05 152.979 183.914L148.162 202.75L149.037 204.171Z" fill="#5275FF"/>
<path fill-rule="evenodd" clip-rule="evenodd" d="M153.133 182.786C153.287 182.913 153.441 183.041 153.595 183.168L154.065 183.559L149.198 202.59L150.429 204.588L149.442 205.048C143.255 207.929 133.557 209.867 124.979 209.554C120.686 209.398 116.599 208.676 113.345 207.171C110.077 205.66 107.574 203.319 106.66 199.921L106.622 199.779L106.628 199.633C106.628 199.624 106.628 199.616 106.629 199.608C107.165 186.589 108.852 177.771 111.516 172.203C112.856 169.405 114.465 167.379 116.345 166.069C118.237 164.75 120.341 164.199 122.584 164.254C126.999 164.362 131.96 166.822 137.133 170.303C142.195 173.71 147.619 178.211 153.133 182.786ZM108.566 199.567C109.321 202.172 111.287 204.088 114.155 205.414C117.093 206.773 120.901 207.47 125.053 207.621C132.907 207.908 141.727 206.233 147.634 203.736L147.6 203.68C140.969 203.194 133.729 201.747 127.296 200.462C125.121 200.027 123.039 199.611 121.104 199.257C117.155 198.534 113.866 198.076 111.569 198.182C110.413 198.235 109.632 198.427 109.16 198.703C108.798 198.915 108.612 199.172 108.566 199.567ZM147.428 201.727C141.021 201.23 134.086 199.845 127.782 198.585C125.579 198.145 123.453 197.72 121.454 197.354C117.521 196.634 114.029 196.133 111.484 196.249C110.452 196.297 109.493 196.448 108.699 196.78C109.352 185.448 110.957 177.84 113.256 173.038C114.495 170.448 115.913 168.724 117.444 167.656C118.964 166.597 120.656 166.142 122.533 166.188C126.356 166.281 130.919 168.453 136.055 171.909C141.02 175.251 146.363 179.681 151.892 184.269L147.428 201.727Z" fill="#1A1D2F"/>
<path d="M149.143 202.903C129.087 201.874 106.729 192.919 108.004 199.308C108.184 210.855 140.914 211.121 149.143 202.903Z" fill="#1A1D2F"/>
<path d="M168.172 204.957L180 205.767L183.214 212.862C177.429 212.862 168.172 207.525 168.172 204.957Z" fill="#1A1D2F"/>
<path d="M173.123 195.647C173.123 203.133 167.048 209.201 159.554 209.201C152.06 209.201 145.985 203.133 145.985 195.647C145.985 188.162 152.06 182.094 159.554 182.094C167.048 182.094 173.123 188.162 173.123 195.647Z" fill="#5275FF"/>
<path fill-rule="evenodd" clip-rule="evenodd" d="M159.554 207.265C165.991 207.265 171.194 202.056 171.194 195.647C171.194 189.239 165.991 184.03 159.554 184.03C153.116 184.03 147.913 189.239 147.913 195.647C147.913 202.056 153.116 207.265 159.554 207.265ZM159.554 209.201C167.048 209.201 173.123 203.133 173.123 195.647C173.123 188.162 167.048 182.094 159.554 182.094C152.06 182.094 145.985 188.162 145.985 195.647C145.985 203.133 152.06 209.201 159.554 209.201Z" fill="#1A1D2F"/>
<path fill-rule="evenodd" clip-rule="evenodd" d="M292.617 73.9182C301.109 73.9182 307.978 67.0445 307.978 58.5841C307.978 50.1237 301.109 43.2501 292.617 43.2501C284.125 43.2501 277.256 50.1237 277.256 58.5841C277.256 67.0445 284.125 73.9182 292.617 73.9182ZM292.617 75.8533C302.166 75.8533 309.907 68.1216 309.907 58.5841C309.907 49.0466 302.166 41.3149 292.617 41.3149C283.068 41.3149 275.327 49.0466 275.327 58.5841C275.327 68.1216 283.068 75.8533 292.617 75.8533Z" fill="#FFCB47"/>
<path fill-rule="evenodd" clip-rule="evenodd" d="M74.84 149.115C81.7607 149.115 87.3559 143.513 87.3559 136.622C87.3559 129.731 81.7607 124.13 74.84 124.13C67.9193 124.13 62.3241 129.731 62.3241 136.622C62.3241 143.513 67.9193 149.115 74.84 149.115ZM74.84 151.05C82.8175 151.05 89.2845 144.59 89.2845 136.622C89.2845 128.654 82.8175 122.195 74.84 122.195C66.8625 122.195 60.3955 128.654 60.3955 136.622C60.3955 144.59 66.8625 151.05 74.84 151.05Z" fill="#FFCB47"/>
<path fill-rule="evenodd" clip-rule="evenodd" d="M354.181 82.7823C349.604 81.3729 344.74 80.6143 339.7 80.6143C312.67 80.6143 290.75 102.428 290.75 129.345C290.75 135.347 291.841 141.097 293.836 146.409L295.643 145.731C293.728 140.632 292.681 135.111 292.681 129.345C292.681 103.502 313.728 82.545 339.7 82.545C345.018 82.545 350.128 83.4234 354.893 85.0417C354.661 84.2806 354.424 83.5274 354.181 82.7823ZM350.07 175.004C346.734 175.751 343.264 176.145 339.7 176.145C329.593 176.145 320.234 172.972 312.569 167.573L311.457 169.151C319.437 174.773 329.183 178.076 339.7 178.076C342.964 178.076 346.155 177.758 349.242 177.15C349.526 176.428 349.802 175.712 350.07 175.004Z" fill="#FFCB47"/>
<path fill-rule="evenodd" clip-rule="evenodd" d="M359.855 111.444C351.687 117.109 340.243 123.931 327.245 130.689C315.127 136.99 303.732 142.156 294.675 145.612C289.066 147.753 284.387 149.224 281 149.91C279.299 150.255 277.982 150.389 277.058 150.334C276.052 150.275 275.872 150.018 275.864 150.003L275.863 150.002C275.861 149.998 275.82 149.922 275.879 149.688C275.94 149.444 276.093 149.103 276.386 148.659C276.972 147.771 277.998 146.646 279.463 145.312C282.38 142.656 286.872 139.322 292.55 135.598L291.485 133.987C285.773 137.733 281.184 141.131 278.157 143.888C276.649 145.26 275.486 146.512 274.77 147.597C274.412 148.139 274.136 148.685 274.003 149.217C273.867 149.757 273.865 150.349 274.15 150.893C274.677 151.896 275.859 152.194 276.947 152.259C278.118 152.328 279.627 152.156 281.389 151.799C284.929 151.082 289.723 149.568 295.37 147.413C304.511 143.925 315.974 138.726 328.142 132.399C340.693 125.874 351.828 119.275 360.004 113.686C359.962 112.947 359.912 112.199 359.855 111.444Z" fill="#FFCB47"/>
<path fill-rule="evenodd" clip-rule="evenodd" d="M358.672 141.352C349.539 147.594 339.046 153.883 327.624 159.822C306.192 170.965 285.608 178.731 269.671 182.292C261.695 184.074 254.938 184.79 249.843 184.378C244.69 183.961 241.545 182.423 240.292 180.035C239.191 177.938 239.459 175.023 241.327 171.296C243.182 167.596 246.518 163.302 251.15 158.634C260.404 149.307 274.664 138.648 292.002 128.449L291.016 126.788C273.591 137.039 259.182 147.794 249.773 157.277C245.074 162.014 241.581 166.474 239.597 170.431C237.627 174.362 237.047 178.006 238.579 180.926C240.318 184.24 244.377 185.87 249.69 186.299C255.061 186.734 262.033 185.975 270.098 184.173C286.241 180.567 306.984 172.729 328.521 161.531C339.391 155.88 349.44 149.904 358.296 143.941C358.417 143.127 358.544 142.263 358.672 141.352Z" fill="#FFCB47"/>
<path fill-rule="evenodd" clip-rule="evenodd" d="M1.6058 200.036C7.38949 204.513 14.6585 207.18 22.5516 207.18C41.4083 207.18 56.7047 191.961 56.7047 173.176C56.7047 154.391 41.4083 139.173 22.5516 139.173C18.0451 139.173 13.7407 140.043 9.79994 141.623C9.21777 142.795 8.65475 143.994 8.11279 145.217C12.439 143 17.3469 141.747 22.5516 141.747C39.9976 141.747 54.1303 155.824 54.1303 173.176C54.1303 190.529 39.9976 204.605 22.5516 204.605C14.1837 204.605 6.57774 201.367 0.926758 196.08C1.12094 197.397 1.3469 198.716 1.6058 200.036Z" fill="#FFCB47"/>
<path d="M169.403 16.8059C195.972 15.1207 207.199 13.1518 217.543 2.05453C220.169 1.72626 244.383 -2.03365 273.6 6.16366C262.428 25.2344 240.172 40.5804 231.466 45.9277C230.516 54.1985 229.03 58.7377 226.697 62.6608C224.111 67.0093 219.309 69.416 214.341 70.3061C199.165 73.025 192.435 75.7223 187.907 81.464C184.572 81.1118 182.216 81.331 179.9 82.004C176.081 83.1139 173.054 85.9673 169.54 87.8341C167.435 88.9521 166.312 88.4787 165.717 86.3406C163.826 79.5472 166.531 71.6045 172.099 67.2992C174.858 65.166 178.629 63.5088 184.437 62.9903L190.22 57.7304L186.365 50.931C177.792 52.5089 172.763 52.3666 162.979 49.7764C161.193 54.3343 159.339 56.091 155.655 58.885L157.939 61.4718C162.082 66.1644 165.517 71.9063 164.971 78.1517C164.322 85.586 160.393 88.6707 157.068 88.0068C149.554 72.248 145.17 68.5779 137.408 60.2962L140.749 50.2896C138.503 50.7754 137.351 51.7197 135.352 53.7534C127.514 68.7633 107.083 71.9706 105.927 59.0133C110.066 57.3648 113.525 55.0639 116.87 51.7008C113.298 50.7961 111.822 49.7201 110.81 45.7994L126.743 38.6353C128.872 35.2591 131.148 31.3879 133.682 26.9408H137.408L146.788 16.0362C156.261 18.6359 161.431 19.5809 169.403 16.8059Z" fill="#5275FF"/>
<path fill-rule="evenodd" clip-rule="evenodd" d="M273.859 5.23204L275.066 5.57054L274.431 6.65418C263.298 25.657 241.36 40.9327 232.369 46.5065C231.407 54.5654 229.906 59.1523 227.525 63.1568C224.745 67.8311 219.638 70.34 214.51 71.2588C199.334 73.9778 192.945 76.6343 188.662 82.0646L188.333 82.4822L187.805 82.4265C184.573 82.0852 182.345 82.3009 180.168 82.9335C178.399 83.4477 176.784 84.3744 175.128 85.448C174.704 85.7234 174.273 86.0114 173.835 86.3036C172.604 87.1255 171.323 87.9815 169.99 88.6894C168.883 89.2777 167.739 89.6186 166.706 89.208C165.652 88.7886 165.107 87.7474 164.788 86.6011C164.587 85.8788 164.435 85.1449 164.33 84.4041C163.87 85.3266 163.331 86.1158 162.733 86.7704C161.063 88.5961 158.923 89.364 156.879 88.956L156.406 88.8615L156.198 88.4246C152.46 80.5863 149.519 75.7916 146.566 71.9375C144.239 68.9003 141.903 66.4415 139.116 63.5084C138.349 62.7018 137.549 61.8594 136.705 60.9593L136.31 60.5377L139.221 51.8197C138.236 52.3108 137.383 53.0702 136.138 54.3318C132.065 62.0284 124.787 66.7227 118.294 67.8252C115.03 68.3797 111.876 68.0385 109.424 66.6047C106.933 65.1475 105.281 62.6261 104.966 59.0998L104.902 58.3806L105.571 58.1142C109.096 56.7099 112.111 54.8204 115.001 52.1596C113.916 51.7814 112.993 51.3032 112.225 50.5924C111.086 49.5377 110.402 48.0797 109.876 46.0422L109.672 45.2509L126.083 37.8719C128.156 34.5715 130.374 30.7945 132.844 26.4607L133.122 25.9734H136.966L146.455 14.942L147.042 15.1031C151.78 16.4035 155.354 17.2635 158.717 17.471C162.049 17.6767 165.207 17.2425 169.087 15.892L169.211 15.8488L169.342 15.8405C195.944 14.1532 206.786 12.1777 216.838 1.3938C237.214 -1.29015 259.961 1.33269 273.859 5.23204ZM137.389 27.9086H134.24C131.814 32.1578 129.619 35.8833 127.558 39.1528C124.018 44.7666 120.852 49.0673 117.552 52.3845C114.305 55.6488 110.937 57.9514 106.973 59.6294C107.372 62.19 108.642 63.9073 110.395 64.9328C112.345 66.0728 115.005 66.4212 117.973 65.9173C123.908 64.9092 130.719 60.5412 134.498 53.3045L134.564 53.1768L134.665 53.0742C136.549 51.1578 137.817 50.0617 140 49.4755L144.752 34.9861L145.265 34.8553C155.225 32.3158 160.32 30.5358 167.416 25.2653C167.844 24.9474 168.448 25.0378 168.765 25.4673C169.081 25.8968 168.991 26.5027 168.563 26.8206C161.302 32.2136 155.988 34.1003 146.254 36.5995L141.665 50.5922L141.663 50.5971L138.505 60.0544C139.184 60.7757 139.839 61.4651 140.475 62.1342C143.276 65.081 145.7 67.6319 148.095 70.7581C151.092 74.6695 154.041 79.4729 157.712 87.1187C158.881 87.1974 160.173 86.7069 161.312 85.4621C162.608 84.044 163.698 81.6375 164.01 78.0674C164.52 72.23 161.31 66.7498 157.216 62.1137L154.241 58.7439L155.073 58.1133C156.909 56.7211 158.219 55.6375 159.293 54.3668C160.355 53.109 161.216 51.6296 162.081 49.4227L162.395 48.6215L163.224 48.8411C168.084 50.1275 171.713 50.7927 175.17 50.9504C178.621 51.1079 181.943 50.7613 186.19 49.9796L186.864 49.8556L190.376 56.0512C191.386 54.7304 192.116 53.2725 192.774 51.5938C193.272 50.324 193.709 48.9889 194.194 47.5067C194.541 46.4455 194.912 45.3088 195.349 44.0667C195.526 43.5627 196.077 43.2982 196.579 43.476C197.081 43.6537 197.345 44.2063 197.168 44.7102C196.766 45.8521 196.404 46.9591 196.057 48.0184C195.551 49.5607 195.079 51.0019 194.569 52.3024C193.686 54.5538 192.629 56.5655 190.923 58.3923L190.896 58.421L184.845 63.9255L184.522 63.9542C178.871 64.4587 175.281 66.0602 172.687 68.0658C167.424 72.1351 164.862 79.6742 166.645 86.0805C166.921 87.0722 167.235 87.3367 167.417 87.4091C167.621 87.4902 168.091 87.5089 169.088 86.9792C170.328 86.3205 171.489 85.5451 172.693 84.7408C173.148 84.4374 173.608 84.1298 174.081 83.8228C175.773 82.7256 177.581 81.6705 179.631 81.0748C181.959 80.3983 184.314 80.1632 187.484 80.4506C192.254 74.6846 199.345 72.01 214.171 69.3538C218.979 68.4924 223.476 66.1878 225.869 62.1652C228.107 58.4003 229.567 54.0082 230.508 45.8171L230.562 45.3488L230.962 45.1027C239.482 39.8692 260.879 25.1078 272.118 6.75899C244.846 -0.617647 222.214 2.4074 218.096 2.9577C218.066 2.96175 218.037 2.96566 218.009 2.96944C207.454 14.137 195.84 16.0948 169.594 17.7634C165.557 19.1545 162.176 19.6233 158.599 19.4025C155.165 19.1906 151.58 18.3438 147.121 17.1302L139.452 26.0454C153.281 26.4742 158.384 25.2558 163.424 21.4232C163.848 21.1004 164.453 21.184 164.775 21.6098C165.096 22.0357 165.013 22.6426 164.589 22.9654C158.734 27.4173 152.777 28.5174 137.389 27.9086ZM188.999 57.5348L185.864 52.0048C181.847 52.7165 178.542 53.0414 175.082 52.8835C171.639 52.7264 168.081 52.093 163.552 50.9262C162.727 52.8699 161.852 54.3295 160.764 55.618C159.731 56.8407 158.528 57.8818 157.063 59.0221L158.66 60.8304C161.963 64.5709 164.934 69.0895 165.763 74.0911C167.025 71.1327 168.989 68.4823 171.51 66.533C174.381 64.3133 178.243 62.6218 184.027 62.057L188.999 57.5348ZM124.16 40.8571L111.964 46.3406C112.399 47.7409 112.899 48.5828 113.533 49.1701C114.21 49.7969 115.133 50.2218 116.575 50.6223C119.056 48.0599 121.501 44.871 124.16 40.8571Z" fill="#1A1D2F"/>
<path fill-rule="evenodd" clip-rule="evenodd" d="M176.508 88.1013C176.975 87.8455 177.561 88.0183 177.817 88.4874L181.378 95.0304C191.155 112.993 205.28 128.2 222.45 139.252C222.898 139.541 223.029 140.139 222.741 140.589C222.454 141.039 221.857 141.169 221.409 140.881C203.967 129.653 189.618 114.204 179.686 95.957L176.124 89.414C175.869 88.9449 176.041 88.3572 176.508 88.1013Z" fill="#375BE9"/>
<path fill-rule="evenodd" clip-rule="evenodd" d="M183.25 216.689C178.947 208.002 174.868 196.984 171.643 184.481L173.571 183.836C176.785 197.382 181.285 207.057 185.143 216.733L183.25 216.689Z" fill="#5275FF"/>
<path fill-rule="evenodd" clip-rule="evenodd" d="M147.128 83.9666C147.563 84.2751 147.666 84.8789 147.359 85.3152L147.149 85.6123C140.813 94.6061 131.852 101.407 121.503 105.077L120.86 103.252C130.834 99.7155 139.468 93.1621 145.574 84.4952L145.784 84.1982C146.091 83.7618 146.693 83.6582 147.128 83.9666ZM151.571 88.4897C152.062 88.6952 152.295 89.2616 152.09 89.7549L151.028 92.3114C140.15 118.516 123.858 142.109 103.227 161.534L101.908 160.122C122.339 140.885 138.474 117.519 149.248 91.5673L150.31 89.0108C150.514 88.5175 151.079 88.2842 151.571 88.4897Z" fill="#375BE9"/>
</g>
<defs>
<clipPath id="clip0_2203_7727">
<rect width="360" height="338" fill="white"/>
</clipPath>
</defs>
</svg>
