<svg width="280" height="241" viewBox="0 0 280 241" fill="none" xmlns="http://www.w3.org/2000/svg">
<g clip-path="url(#clip0_2266_9267)">
<path d="M81.8072 84.4125C44.0558 109.201 20.5345 108.418 7.02735 134.308C4.8338 138.515 -2.83113 153.203 1.10728 169.235C7.6879 196.038 42.0586 207.726 59.9964 213.829C66.0131 215.874 186.636 255.02 250.685 184.515C258.471 175.943 279.136 152.51 279.974 118.092C280.743 86.4083 264.56 51.7342 233.548 34.2053C192.883 11.2191 150.006 30.8748 140.696 35.1408C112.227 48.1885 119.587 59.6052 81.8072 84.4125Z" fill="#1C1F31"/>
<path d="M73.9054 231.004C40.0497 218.657 31.6723 188.498 34.793 168.962L70.3653 156.303L77.3863 165.68L77.5388 165.359C83.2955 153.249 86.0205 147.516 95.7114 135.128C105.487 122.631 111.424 116.436 125.758 106.487C125.758 106.487 172.686 105.876 202.359 105.51L226.802 123.477C252.73 155.759 256.258 197.781 237.224 232.946L181.296 233.196L102.981 212.8C92.0641 221.478 86.5519 225.045 73.9054 231.004Z" fill="#68DBF4"/>
<path d="M155.4 177.091L152.903 201.003L104.225 207.879L99.8325 176.391C119.61 169.513 131.652 169.882 155.4 177.091Z" fill="#26C953"/>
<path d="M127.316 165.212C132.222 147.284 132.245 135.668 159.144 130.36C162.576 148.802 149.003 163.805 127.316 165.212Z" fill="#5275FF"/>
<path d="M117.33 148.177C99.3086 143.763 92.5636 136.585 88.4443 114.497C96.2747 114.847 100.612 116.335 107.969 119.264L127.784 140.05C129.761 145.672 129.735 148.467 129.812 153.49L127.004 164.899C125.91 156.891 123.236 152.935 117.33 148.177Z" fill="#5275FF"/>
<path d="M219.99 57.0446C219.99 74.1675 212.094 89.0984 200.331 99.5545C200.175 100.805 202.516 103.305 202.516 104.868C193.312 111.865 177.785 118.309 165.382 118.309C151.07 118.309 138.37 110.567 128.093 100.649C116.097 89.0696 108.071 76.8743 107.586 56.7282C107.588 24.8577 132.802 0 163.822 0C194.843 0 219.99 25.5397 219.99 57.0446Z" fill="#1C1F31"/>
<path d="M63.1907 136.732L70.2108 155.992C64.2812 176.622 45.5594 178.929 33.2338 166.895L34.794 142.202L30.7374 138.764L28.7091 136.263L27.1489 133.763L25.9008 130.793L23.2484 120.322L20.596 108.913L18.4117 103.756L14.3552 94.3783L12.795 89.846L12.4829 86.564C12.4809 81.5628 13.5738 79.535 17.7885 81.8754L19.9728 87.3454L22.7812 92.034L24.0294 94.3783L25.5896 98.7544L29.022 102.974L28.2419 98.1292L25.5896 89.846L23.4053 82.6569L20.7529 72.4982C22.4335 68.1608 24.0733 67.6038 27.7739 69.0599L31.3624 80.4688L34.4828 87.8134L39.0074 96.7226C39.0074 96.7226 36.3762 87.5648 34.9508 80.4688L33.0786 67.965C35.0052 64.1724 36.7576 63.8929 40.5676 65.4644L44.1561 78.7488L45.7163 83.5936L46.4964 87.8134C47.5477 93.7052 48.2761 96.154 51.021 99.2223L49.1488 67.34C52.1857 64.3896 54.1 64.4389 57.73 67.0274L60.5383 100.629L63.1907 109.537L64.1268 106.412C64.6186 102.792 69.0259 94.9054 70.6797 93.9091C74.4581 92.5705 78.9489 96.8781 76.6086 100.629C74.2682 104.381 72.7333 112.252 73.9053 113.525L71.4821 117.166L63.1907 136.732Z" fill="#5275FF"/>
<path d="M146.115 231.975L179.11 235.386C185.819 225.071 189.563 210.849 176.769 194.595C167.966 198.826 161.131 200.299 148.296 202.12C142.272 196.983 134.857 196.323 119.978 195.22L105.312 206.942L101.77 208.674C100.053 213.831 100.719 215.049 102.014 217.897C99.9993 218.467 98.9526 225.337 102.348 228.197C102.172 231.647 102.885 233.116 104.845 235.386C104.318 237.158 104.656 238.249 106.093 240.231C121.517 242.412 130.344 240.045 146.115 231.975Z" fill="#5275FF"/>
<path d="M202.67 105.666L200.173 100.508C211.689 88.2893 218.566 76.6312 219.535 58.1842C200.344 82.2523 173.339 74.7212 126.063 66.438C126.063 66.438 115.417 66.5957 110.737 75.6603C113.435 85.4515 118.264 91.1338 128.091 101.759L126.063 106.76C163.855 124.238 179.389 121.192 202.67 105.666Z" fill="#26C953"/>
<path d="M105.625 111.598L111.241 107.691C116.39 106.598 135.581 127.54 134.645 136.292L128.872 140.511C119.822 136.604 105.001 119.257 105.625 111.598Z" fill="#FFCB47"/>
<path d="M63.7164 106.202C63.7476 106.826 63.8099 109.498 61.8469 111.815C59.373 114.734 55.7524 114.641 55.3037 114.622" stroke="#1C1F31" stroke-width="0.969819" stroke-miterlimit="10" stroke-linecap="round"/>
<path d="M63.0913 109.632C62.1566 106.617 61.2218 103.604 60.2871 100.589C59.3523 89.3623 58.4176 78.1359 57.4828 66.9094C57.2616 66.6568 55.8128 65.0508 53.4323 65.0383C50.7776 65.0227 49.2353 66.9998 49.0701 67.2213C49.4035 71.9613 49.7151 76.7419 50.0049 81.5662C50.357 87.4476 50.6685 93.2667 50.9396 99.0296C50.6966 99.5691 50.2323 100.414 49.3817 101.212C48.6931 101.858 48.0014 102.238 47.5122 102.46" stroke="#1C1F31" stroke-width="0.969819" stroke-miterlimit="10" stroke-linecap="round"/>
<path d="M50.6352 99.3419C48.342 95.6496 47.3636 92.5125 46.8962 90.2984C46.5722 88.7641 46.5192 87.7911 45.9615 85.3088C45.2386 82.0968 44.4409 79.7954 44.092 78.7601C43.1759 76.0408 41.8953 71.8246 40.353 65.3507C40.1878 65.2478 37.8074 63.8413 35.3677 65.0388C33.6571 65.8777 33.0183 67.4587 32.875 67.8454C33.7256 72.8973 34.4641 77.2195 35.0561 80.6311C35.8506 85.2153 35.9877 85.9419 36.3024 87.1799C37.3462 91.2869 38.2467 92.8243 38.7951 96.2234C39.197 98.7276 39.1783 100.814 39.1067 102.149" stroke="#1C1F31" stroke-width="0.969819" stroke-miterlimit="10"/>
<path d="M29.1305 104.956C29.0339 102.118 28.5821 99.8974 28.1958 98.4068C27.5165 95.7966 26.937 94.6615 25.3915 89.9869C25.3915 89.9869 24.6873 87.8602 23.8336 84.9974C22.9487 82.038 21.8083 77.8437 20.7178 72.5236C21.0044 70.5059 22.3754 68.8999 24.1452 68.4696C25.8495 68.0548 27.2579 68.8968 27.5726 69.0932C28.8937 73.7647 30.6136 78.9133 32.8695 84.3737C34.8761 89.2292 36.846 93.598 38.9429 97.4712" stroke="#1C1F31" stroke-width="0.969819" stroke-miterlimit="10"/>
<path d="M26.6396 105.892C30.0515 104.67 33.9058 103.478 38.1682 102.462C42.5522 101.417 46.4788 100.728 50.1617 100.279" stroke="#1C1F31" stroke-width="0.969819" stroke-miterlimit="10" stroke-linecap="round"/>
<path d="M53.1257 113.064C50.9695 115.615 48.5298 118.93 46.2708 123.043C44.2674 126.694 42.8808 130.109 41.9087 133.022" stroke="#1C1F31" stroke-width="0.969819" stroke-miterlimit="10" stroke-linecap="round"/>
<path d="M69.9505 155.474C68.8195 163.728 62.9492 170.58 54.9945 172.937C47.1614 175.257 38.6427 172.822 33.1838 166.7C33.7041 158.489 34.2213 150.275 34.7417 142.064C33.1183 140.973 30.8438 139.186 28.8216 136.451C26.2324 132.949 25.1917 128.664 23.2131 120.235C21.6988 113.783 21.4433 111.164 19.4741 106.202C19.418 106.059 18.7107 104.443 17.293 101.213C13.7254 93.0765 12.9278 91.3021 12.6193 88.4268C12.4822 87.1514 11.9338 82.0621 14.1772 80.9425C15.0839 80.4903 16.1184 80.8521 16.3583 80.9425C19.0566 81.9747 18.3805 86.0194 21.6552 90.6098C21.9481 91.0214 22.375 91.5765 22.9015 92.4808C24.0855 94.511 24.5654 96.2043 24.771 96.8467C25.2851 98.4433 26.41 100.682 29.1332 103.395" stroke="#1C1F31" stroke-width="0.969819" stroke-miterlimit="10"/>
<path d="M34.744 168.262C34.0959 173.133 32.6035 189.049 42.222 205.371C52.8283 223.371 69.6693 229.508 74.0035 230.943C78.9545 228.9 84.7562 226.016 90.8289 221.899C94.677 219.292 97.9891 216.626 100.8 214.103" stroke="#1C1F31" stroke-width="0.969819" stroke-miterlimit="10"/>
<path d="M69.9492 155.475C73.6913 159.922 77.9195 165.719 81.7894 172.938C84.8865 178.717 87.0769 184.143 88.6442 188.843" stroke="#1C1F31" stroke-width="0.969819" stroke-miterlimit="10" stroke-linecap="round"/>
<path d="M177.857 195.81C181.852 194.291 188.266 192.771 195.831 194.143C209.269 196.582 220.371 207.768 225.12 222.833" stroke="#1C1F31" stroke-width="0.969819" stroke-miterlimit="10" stroke-linecap="round"/>
<path d="M225.118 123.979C222.9 126.084 219.825 129.377 217.017 133.958C212.421 141.458 211.054 148.293 210.162 152.98C206.698 171.192 204.448 187.499 203.308 196.327" stroke="#1C1F31" stroke-width="0.969819" stroke-miterlimit="10" stroke-linecap="round"/>
<path d="M105.162 206.617C110.045 202.666 114.924 198.718 119.806 194.767C123.075 195.001 126.618 195.303 130.4 195.702C136.133 196.304 137.592 196.616 138.813 196.95C141.44 197.667 144.817 198.998 148.472 201.627C152.965 201.213 158.253 200.392 164.051 198.821C168.793 197.536 172.962 195.995 176.514 194.455C178.072 196.167 185.229 204.4 184.927 216.908C184.603 230.389 175.863 238.597 174.333 239.984C170.133 237.911 164.914 235.75 158.754 234.059C154.077 232.778 149.762 232.014 145.979 231.565C145.048 232.107 143.658 232.887 141.929 233.747C137.336 236.033 128.366 240.377 116.691 240.608C114.111 240.658 110.462 240.527 106.097 239.673C105.745 239.267 105.199 238.541 104.85 237.49C104.682 236.981 104.458 236.099 104.539 234.995C103.978 234.284 103.208 233.136 102.669 231.565C102.149 230.046 102.046 228.714 102.046 227.822C101.563 227.252 100.41 225.73 100.177 223.457C99.8745 220.497 101.351 218.364 101.735 217.843C101.354 216.97 100.925 215.692 100.8 214.101C100.597 211.55 101.286 209.542 101.735 208.488C104.146 207.097 106.951 205.691 110.147 204.434C116.395 201.973 122.121 200.87 126.661 200.38" stroke="#1C1F31" stroke-width="0.969819" stroke-miterlimit="10"/>
<path d="M111.077 204.122C110.607 205.052 110.052 206.433 109.831 208.176C109.451 211.179 110.274 213.568 110.766 214.725C110.333 215.458 109.557 217.005 109.519 219.091C109.467 222.019 110.903 224.065 111.389 224.704C111.32 225.827 111.345 227.336 111.701 229.07C112.015 230.604 112.501 231.867 112.947 232.812C112.875 233.589 112.838 235.135 113.57 236.866C114.48 239.018 116.038 240.178 116.686 240.608" stroke="#1C1F31" stroke-width="0.969819" stroke-miterlimit="10"/>
<path d="M101.733 217.843C104.746 216.804 107.756 215.763 110.769 214.725" stroke="#1C1F31" stroke-width="0.969819" stroke-miterlimit="10"/>
<path d="M101.733 227.821C104.952 226.783 108.174 225.742 111.392 224.703" stroke="#1C1F31" stroke-width="0.969819" stroke-miterlimit="10"/>
<path d="M104.536 234.683C107.34 234.06 110.144 233.436 112.948 232.812" stroke="#1C1F31" stroke-width="0.969819" stroke-miterlimit="10"/>
<path d="M69.951 155.475C67.6671 149.135 65.3801 142.792 63.0962 136.452C65.9004 129.903 68.7047 123.354 71.5089 116.806C72.2349 115.661 72.964 114.52 73.69 113.375C73.5716 111.935 73.5342 109.858 74.0016 107.45C75.0734 101.912 77.7375 100.1 76.8058 97.1594C76.111 94.9671 73.743 93.1709 71.8205 93.4172C70.8079 93.5482 69.9043 94.2467 68.0815 97.1594C66.776 99.2456 65.1308 102.255 63.7194 106.203C64.2615 106.658 64.975 107.369 65.5889 108.386C66.5735 110.017 66.7853 111.589 66.8352 112.44" stroke="#1C1F31" stroke-width="0.969819" stroke-miterlimit="10" stroke-linecap="round"/>
<path d="M95.6464 135.027C86.9314 146.069 81.058 156.669 77.1196 165.142" stroke="#1C1F31" stroke-width="0.969819" stroke-miterlimit="10"/>
<path d="M178.07 236.243C187.228 238.529 201.473 240.74 218.264 237.802C225.496 236.536 231.765 234.565 236.959 232.501C241.592 224.293 248.768 208.882 249.423 188.531C250.526 154.115 232.189 130.072 226.677 123.355C218.576 117.327 210.475 111.296 202.374 105.268C201.542 103.605 200.713 101.94 199.881 100.278C204.399 96.1118 212.771 87.2148 216.99 73.3096C219.199 66.028 219.511 59.7381 219.511 56.6196C219.511 25.619 194.4 0.487274 163.426 0.487274C132.451 0.487274 107.341 25.619 107.341 56.6196C107.341 64.4438 109.759 72.9666 109.862 73.3096C114.261 87.8385 123.21 97.0193 127.905 101.214C127.263 102.792 126.625 104.373 125.983 105.951C124.602 106.924 123.185 107.981 121.742 109.128C120.739 109.923 119.782 110.719 118.869 111.505" stroke="#1C1F31" stroke-width="0.969819" stroke-miterlimit="10"/>
<path d="M202.371 105.267C198.212 108.517 183.349 119.303 161.8 118.745C143.177 118.265 130.268 109.586 125.722 106.203" stroke="#1C1F31" stroke-width="0.969819" stroke-miterlimit="10"/>
<path d="M103.91 207.241C102.561 196.95 101.209 186.659 99.8599 176.368C105.83 174.248 114.984 171.784 126.344 171.691C138.836 171.588 148.81 174.4 155.01 176.68C154.284 184.788 153.555 192.896 152.829 201.004" stroke="#1C1F31" stroke-width="0.969819" stroke-miterlimit="10"/>
<path d="M195.52 109.945C203.932 116.182 212.345 122.419 220.758 128.655C222.802 132.051 225.413 136.795 227.924 142.689C233.885 156.678 235.517 168.329 236.337 174.497C239.263 196.504 236.075 215.857 233.221 227.823" stroke="#1C1F31" stroke-width="0.969819" stroke-miterlimit="10"/>
<path d="M199.26 138.324C195.319 136.908 189.794 135.38 183.058 134.893C176.627 134.429 171.171 135.059 167.167 135.829C166.647 148.926 166.13 162.024 165.609 175.122" stroke="#1C1F31" stroke-width="0.969819" stroke-miterlimit="10" stroke-linecap="round"/>
<path d="M168.097 179.486C171.93 180.683 177.382 181.927 183.988 181.98C189.366 182.024 193.93 181.263 197.386 180.421" stroke="#1C1F31" stroke-width="0.969819" stroke-miterlimit="10" stroke-linecap="round"/>
<path d="M200.813 143.625C200.399 152.045 199.981 160.465 199.567 168.885" stroke="#1C1F31" stroke-width="0.969819" stroke-miterlimit="10" stroke-linecap="round"/>
<path d="M192.895 150.662C194.233 150.662 195.317 149.577 195.317 148.238C195.317 146.899 194.233 145.813 192.895 145.813C191.557 145.813 190.473 146.899 190.473 148.238C190.473 149.577 191.557 150.662 192.895 150.662Z" stroke="#1C1F31" stroke-width="0.969819" stroke-miterlimit="10"/>
<path d="M192.391 161.253C193.729 161.253 194.814 160.168 194.814 158.829C194.814 157.49 193.729 156.404 192.391 156.404C191.054 156.404 189.969 157.49 189.969 158.829C189.969 160.168 191.054 161.253 192.391 161.253Z" stroke="#1C1F31" stroke-width="0.969819" stroke-miterlimit="10"/>
<path d="M110.808 107.328C108.795 108.825 112.385 116.478 118.828 124.424C125.269 132.366 132.12 137.593 134.133 136.096" stroke="#1C1F31" stroke-width="0.969819" stroke-miterlimit="10"/>
<path d="M129.127 139.622C127.115 141.119 120.263 135.895 113.823 127.949C107.382 120.007 103.79 112.354 105.802 110.854L110.601 107.383C112.614 105.886 119.465 111.11 125.906 119.056C132.346 126.998 135.939 134.651 133.926 136.151L129.127 139.622Z" stroke="#1C1F31" stroke-width="0.969819" stroke-miterlimit="10"/>
<path d="M112.671 126.257C114.232 125.084 115.793 123.911 117.354 122.739" stroke="#1C1F31" stroke-width="0.969819" stroke-miterlimit="10"/>
<path d="M110.601 123.348C112.162 122.176 113.723 121.003 115.284 119.83" stroke="#1C1F31" stroke-width="0.969819" stroke-miterlimit="10"/>
<path d="M124.163 97.4715C126.964 95.117 131.37 92.1077 137.249 90.9227C151.597 88.035 160.359 98.9153 179.936 101.214C187.747 102.13 194.59 101.366 199.877 100.278" stroke="#1C1F31" stroke-width="0.969819" stroke-miterlimit="10"/>
<path d="M151.275 59.739C151.546 60.2286 152.026 60.8927 152.833 61.298C154.381 62.0806 156.506 61.5942 158.13 60.0508" stroke="#1C1F31" stroke-width="0.969819" stroke-miterlimit="10"/>
<path d="M128.218 50.6951C133.159 51.8863 136.444 53.8478 138.5 55.3727C142.834 58.591 143.778 61.4226 148.159 64.7281C151.786 67.4661 155.419 68.7541 157.818 69.4058" stroke="#1C1F31" stroke-width="0.969819" stroke-miterlimit="10"/>
<path d="M163.739 69.4052C166.372 69.3709 172.092 68.9375 178.072 65.3512C185.026 61.1818 188.189 55.2318 189.289 52.8774" stroke="#1C1F31" stroke-width="0.969819" stroke-miterlimit="10"/>
<path d="M119.494 51.6315C120.588 53.7458 122.096 56.2312 124.168 58.804C126.876 62.1625 129.677 64.5949 131.957 66.2883" stroke="#1C1F31" stroke-width="0.969819" stroke-miterlimit="10" stroke-linecap="round"/>
<path d="M126.347 171.689C126.646 167.869 127.35 162.543 129.151 156.409C130.086 153.228 131.628 147.967 134.137 143.935C140.571 133.594 153.713 130.747 159.063 129.902C159.655 133.476 160.116 139.806 157.194 146.43C152.455 157.17 140.811 164.174 127.282 164.829" stroke="#1C1F31" stroke-width="0.969819" stroke-miterlimit="10"/>
<path d="M126.971 165.452C126.659 161.972 125.65 156.77 121.985 152.354C116.595 145.859 109.662 146.139 103.29 142.375C97.8346 139.151 91.2945 132.081 88.3345 114.621C90.8521 114.584 94.0582 114.764 97.682 115.557C102.004 116.501 105.475 117.992 107.964 119.299" stroke="#1C1F31" stroke-width="0.969819" stroke-miterlimit="10"/>
<path d="M127.907 139.881C128.589 142.154 129.25 145.113 129.465 148.612C129.652 151.634 129.455 154.278 129.153 156.408" stroke="#1C1F31" stroke-width="0.969819" stroke-miterlimit="10"/>
<path d="M95.6429 135.129C86.9279 146.172 81.0546 156.771 77.1162 165.244" stroke="#1C1F31" stroke-width="0.969819" stroke-miterlimit="10"/>
<path d="M178.066 236.243C187.224 238.529 201.469 240.74 218.26 237.802C225.492 236.536 231.761 234.565 236.955 232.501C241.589 224.293 248.764 208.882 249.419 188.531C250.522 154.115 232.185 130.072 226.673 123.355C218.572 117.327 210.471 111.296 202.37 105.268C201.538 103.605 200.709 101.94 199.877 100.278C204.395 96.1118 212.767 87.2148 216.986 73.3096C219.195 66.028 219.507 59.7381 219.507 56.6196C219.507 25.619 194.396 0.487274 163.422 0.487274C132.447 0.487274 107.337 25.619 107.337 56.6196C107.337 64.4438 109.755 72.9666 109.858 73.3096C114.257 87.8385 123.206 97.0193 127.901 101.214C127.26 102.792 126.621 104.373 125.979 105.951C124.599 106.924 123.181 107.981 121.738 109.128C120.735 109.923 119.778 110.719 118.865 111.505" stroke="#1C1F31" stroke-width="0.969819" stroke-miterlimit="10"/>
<path d="M128.078 133.805C128.68 134.36 129.549 135.167 130.948 135.747C132.082 136.221 133.11 136.352 133.802 136.393C132.188 137.587 130.571 138.782 128.957 139.976C128.418 139.873 127.651 139.692 126.773 139.346C125.548 138.863 124.741 138.308 123.392 137.325C119.142 134.226 118.911 133.727 118.809 133.262C118.478 131.771 119.454 130.512 119.588 130.349C120.684 128.98 122.361 128.884 122.629 128.874C124.729 130.755 126.489 132.339 128.078 133.805Z" fill="#1C1F31"/>
<path d="M68.0824 161.402C66.0354 155.748 63.4586 151.603 61.5392 148.928C58.9001 145.254 56.4947 141.986 52.1917 140.196C50.1851 139.36 46.9571 138.016 44.7138 139.26C44.3741 139.448 43.2555 140.14 41.5979 140.508C40.9 140.664 39.663 140.935 39.4168 140.508C39.1333 140.015 40.2488 138.758 41.2863 138.013C42.6324 137.046 44.0033 136.825 44.4022 136.766C48.9731 136.098 51.9487 138.634 55.3076 138.013C56.1333 137.86 58.0214 137.324 61.5392 132.4C64.8202 127.804 68.7022 118.834 73.5318 113.221C70.8303 119.77 65.7985 129.905 63.0971 136.454C65.381 142.9 67.668 149.342 69.9519 155.788C69.3288 157.659 68.7056 159.53 68.0824 161.402Z" fill="#1C1F31"/>
<path d="M119.796 57.7116C120.014 57.6181 119.244 55.9091 119.484 55.2168C120.251 52.9965 127.408 53.0745 133.198 54.7491C135.718 55.4788 139.993 57.1378 144.415 61.2978C143.611 60.2687 142.48 58.9496 140.987 57.5557C139.697 56.352 137.862 54.6618 135.067 53.1898C134.413 52.8468 131.49 51.3468 127.278 50.6951C122.838 50.009 120.398 50.7886 119.176 51.3188C118.164 51.7585 117.559 52.2075 117.307 52.878C116.64 54.6555 119.387 57.8831 119.796 57.7116Z" fill="#1C1F31"/>
<path d="M126.343 171.69C127.926 172.03 130.911 172.915 133.51 175.432C136.336 178.167 137.143 181.326 137.872 184.164C138.507 186.643 139.299 191.165 138.183 196.949C138.888 197.118 139.617 197.324 140.364 197.573C143.58 198.64 146.169 200.165 148.154 201.627C149.712 201.418 151.27 201.212 152.828 201.003C153.554 192.895 154.283 184.787 155.009 176.679C151.915 175.532 148.372 174.434 144.415 173.561C137.535 172.045 131.363 171.64 126.343 171.69Z" fill="#1C1F31"/>
<path d="M145.629 231.248C147.499 230 150.02 229.071 151.889 227.824C161.757 228.657 171.622 229.486 181.489 230.319C180.891 231.735 180.003 233.478 178.685 235.308C177.187 237.388 175.604 238.92 174.323 239.986C170.067 237.791 164.633 235.467 158.121 233.749C153.793 232.608 149.144 231.625 145.629 231.248Z" fill="#1C1F31"/>
<path d="M183.675 224.082C184.875 224.453 186.838 225.036 189.284 225.641C199.311 228.126 225.437 234.606 238.514 222.211C242.521 218.412 244.25 213.837 244.746 214.103C245.456 214.483 241.293 223.682 237.268 232.19C230.774 234.794 221.536 237.688 210.16 238.738C196.513 239.998 185.212 238.108 177.755 236.244C179.086 234.762 180.806 232.489 182.118 229.383C182.953 227.4 183.414 225.575 183.675 224.082Z" fill="#1C1F31"/>
<path d="M65.2729 226.887C69.4108 224.773 74.0565 221.866 78.671 217.843C93.1721 205.207 98.4659 189.341 100.482 181.357C101.625 189.88 102.766 198.406 103.909 206.929C102.392 207.877 101.417 208.488 101.417 208.488C101.417 208.488 101.17 210.586 100.56 214.257C97.528 216.96 93.8295 219.696 89.5764 222.521C83.9586 226.254 78.6149 228.964 73.9973 230.941C72.5983 230.389 71.1401 229.768 69.6351 229.07C68.0834 228.352 66.6314 227.617 65.2729 226.887Z" fill="#1C1F31"/>
<path d="M107.65 144.249C107.351 144.243 107.678 150.196 106.092 159.218C105.105 164.846 102.995 173.812 101.883 175.309C101.839 175.368 101.649 175.611 101.73 175.745C101.945 176.104 103.933 175.318 105.781 174.498C106.582 170.809 107.56 165.324 107.962 158.594C108.42 150.922 107.965 144.255 107.65 144.249Z" fill="#1C1F31"/>
<path d="M127.904 101.214C132.257 104.086 138.865 107.709 147.533 109.945C159.676 113.079 169.999 111.976 175.887 110.881C176.613 112.855 177.343 114.832 178.069 116.806C172.825 118.172 162.533 120.105 150.026 117.43C138.23 114.907 129.973 109.462 125.723 106.203C126.449 104.541 127.178 102.876 127.904 101.214Z" fill="#1C1F31"/>
<path d="M181.802 109.322C182.528 111.296 183.257 113.273 183.983 115.247C186.267 114.311 188.554 113.376 190.838 112.44C190.112 110.672 189.383 108.907 188.657 107.139C186.373 107.865 184.086 108.595 181.802 109.322Z" fill="#1C1F31"/>
<path d="M70.9971 119.593C68.3317 125.176 66.6355 129.06 63.5801 136.451C68.0894 147.992 70.0279 154.303 70.0279 154.303" stroke="#5275FF" stroke-width="0.969819" stroke-linecap="round"/>
<path d="M110.314 73.086C110.249 72.8707 109.273 69.4348 108.555 64.9717M212.719 28.3298C217.345 36.3338 220.054 45.5872 220.215 55.4604" stroke="#FFCB47" stroke-width="0.969819" stroke-miterlimit="10" stroke-linecap="round"/>
<path d="M99.5499 215.232C97.6122 217.171 96.6433 218.141 94.4634 219.596" stroke="#5275FF" stroke-width="0.969819" stroke-linecap="round"/>
<path d="M125.041 105.41C124.913 105.645 125 105.94 125.235 106.068C125.47 106.196 125.764 106.109 125.893 105.874L125.041 105.41ZM127.948 100.076L125.041 105.41L125.893 105.874L128.799 100.54L127.948 100.076Z" fill="#26C953"/>
<g style="mix-blend-mode:screen" opacity="0.3" filter="url(#filter0_f_2266_9267)">
<path d="M157.135 128.271C157.135 147.598 141.804 163.265 122.893 163.265C103.981 163.265 88.6504 147.598 88.6504 128.271C88.6504 108.944 103.981 93.2769 122.893 93.2769C141.804 93.2769 157.135 108.944 157.135 128.271Z" fill="#FFCB47"/>
</g>
<path d="M158.736 52.5545C154.624 52.574 153.394 52.0422 145.646 50.8273C145.646 50.8273 124.37 48.7388 120.433 53.0469C119.461 54.5106 120.49 56.0196 121.854 58.136L121.871 58.1615C125.133 63.2235 126.769 65.7614 129.418 68.4209C130.484 69.4943 135.259 74.1537 143.128 77.3006C153.323 79.9404 158.78 80.461 167.407 79.6373C170.825 82.0207 172.82 83.1719 176.608 84.2723C178.787 85.2481 188.23 86.9558 188.23 83.0526C188.23 80.1252 177.836 79.678 178.545 76.5704C180.459 75.7055 182.387 74.5833 184.261 73.0949C195.511 64.1616 199.583 46.3631 193.719 32.8532C191.322 27.3204 187.743 23.6368 185.351 21.5486C186.101 20.8216 187.055 20.1093 188.256 19.597C193.38 17.4112 197.911 20.6017 199.126 21.0896C197.242 16.1375 193.094 12.9275 188.256 12.7665C183.079 12.5908 179.636 16.1232 179.065 16.7331C173.544 13.9521 167.544 14.4692 164.406 17.6308C162.648 19.4019 162.174 21.6169 162.043 23.0025C162.474 22.7537 169.23 19.0262 175.283 22.1048C182.169 25.6102 181.531 34.5475 181.428 35.9823L181.428 35.9855C180.997 41.9866 177.186 47.2754 172.445 49.8662C168.048 52.2715 164.087 52.5252 158.736 52.5545Z" fill="#FFCB47"/>
<path d="M136.126 73.671C134.185 75.4176 132.427 76.3154 131.143 76.8033C130.083 77.2082 129.037 77.4668 128.964 78.0572C128.863 78.8524 130.606 79.6818 131.143 79.9404C135.134 81.8384 142.693 79.5111 146.712 78.0572" stroke="#1C1F31" stroke-width="0.969819" stroke-miterlimit="10"/>
<path d="M153.249 58.935C153.52 59.4277 154 60.0962 154.804 60.5011C156.353 61.2866 158.474 60.7987 160.097 59.2472" stroke="#1C1F31" stroke-width="0.969819" stroke-miterlimit="10" stroke-linecap="round"/>
<path d="M130.208 49.846C135.148 51.0413 138.426 53.0173 140.485 54.5493C144.814 57.7841 145.758 60.6285 150.136 63.956C153.758 66.7077 157.39 68.0006 159.787 68.6593" stroke="#1C1F31" stroke-width="0.969819" stroke-miterlimit="10"/>
<path d="M127.719 50.6311C129.414 53.9732 132.489 59.3791 139.555 64.5801C145.932 69.2786 152.179 71.0545 155.744 71.7912" stroke="#1C1F31" stroke-width="0.969819" stroke-miterlimit="10" stroke-linecap="round"/>
<path d="M159.783 68.655C162.611 75.9978 167.085 79.5058 169.124 80.8817C176.437 85.8094 186.872 86.551 188.117 84.0189C188.441 83.3602 188.18 82.3942 187.807 81.8233C186.945 80.506 185.182 80.8231 182.514 79.9449C181.55 79.6229 180.238 79.0765 178.776 78.0665C178.519 76.9492 177.952 75.3977 176.596 74.3048C175.589 73.4949 174.461 73.2315 172.238 72.7387C168.858 71.9873 168.558 72.5045 167.57 71.797C165.739 70.4895 166.446 68.4842 164.456 67.4108C164.068 67.201 162.926 66.6692 161.652 67.0986C160.538 67.4596 159.962 68.3476 159.783 68.655Z" stroke="#1C1F31" stroke-width="0.969819" stroke-miterlimit="10"/>
<path d="M166.945 79.6283C163.236 80.0626 143.193 82.5657 126.728 66.2211" stroke="#1C1F31" stroke-width="0.969819" stroke-miterlimit="10" stroke-linecap="round"/>
<path d="M166.191 69.3923C173.94 68.9044 183.625 66.4649 191.373 55.7312" stroke="#1C1F31" stroke-width="0.969819" stroke-miterlimit="10" stroke-linecap="round"/>
<path d="M198.395 20.3568C198.274 20.5568 196.108 18.9615 191.919 19.1371C189.154 19.2542 186.795 20.138 185.081 21.5773C185.851 22.2604 187.362 23.7289 188.471 24.9926C193.774 31.0425 194.994 37.3845 195.309 38.653C196.606 43.9223 196.263 48.4598 195.793 51.3384C193.507 37.6164 186.531 26.2122 180.72 21.8211C181.143 20.1133 183.93 17.1364 187.742 16.2094C193.388 14.8384 198.57 20.0738 198.395 20.3568Z" fill="#1C1F31"/>
<path d="M198.153 20.1136C192.584 18.1623 190.539 18.3046 185.078 21.5779C196.943 33.0433 197.669 48.8999 193.795 56.9502" stroke="#FFCB47" stroke-width="0.969819" stroke-linecap="round"/>
<path d="M123.092 51.828C124.185 53.9533 126.176 56.9396 128.247 59.5257C130.952 62.9017 133.751 65.3468 136.031 67.0489" stroke="#1C1F31" stroke-width="0.969819" stroke-miterlimit="10" stroke-linecap="round"/>
<path d="M137.9 68.6149C138.625 69.1383 139.354 69.6586 140.079 70.182" stroke="#1C1F31" stroke-width="0.969819" stroke-miterlimit="10" stroke-linecap="round"/>
<path d="M120.531 53.7163C121.297 51.4845 128.45 51.5628 134.235 53.2461C136.754 53.9797 141.025 55.6473 145.443 59.829C144.64 58.7945 143.51 57.4686 142.018 56.0674C140.73 54.8574 138.896 53.1584 136.103 51.6788C135.449 51.334 132.529 49.8262 128.319 49.1711C118.224 47.602 120.053 55.1039 120.531 53.7163Z" fill="#1C1F31"/>
<path d="M135.456 73.7834C138.984 75.2473 142.515 76.7081 146.042 78.172C143.695 79.1531 141.646 79.7174 140.127 80.0528C137.866 80.5543 136.008 80.7267 134.211 80.6797C130.575 80.5857 129.612 79.6672 129.229 79.1124C129.068 78.8773 128.843 78.545 128.918 78.172C129.102 77.2535 130.87 77.2472 132.654 76.2912C133.417 75.8837 134.451 75.1564 135.456 73.7834Z" fill="#1C1F31"/>
<path d="M121.676 56.4632C121.268 56.6356 119.142 53.1525 119.808 51.3657C120.06 50.6917 120.664 50.2403 121.676 49.7984C122.897 49.2655 125.334 48.4818 129.771 49.1714C133.981 49.8266 136.901 51.3343 137.555 51.6792C140.348 53.1587 141.33 53.912 144.477 55.8639" stroke="#FFCB47" stroke-width="0.969819"/>
</g>
<defs>
<filter id="filter0_f_2266_9267" x="70.7047" y="75.3312" width="104.376" height="105.879" filterUnits="userSpaceOnUse" color-interpolation-filters="sRGB">
<feFlood flood-opacity="0" result="BackgroundImageFix"/>
<feBlend mode="normal" in="SourceGraphic" in2="BackgroundImageFix" result="shape"/>
<feGaussianBlur stdDeviation="8.97282" result="effect1_foregroundBlur_2266_9267"/>
</filter>
<clipPath id="clip0_2266_9267">
<rect width="280" height="241" fill="white"/>
</clipPath>
</defs>
</svg>
