<svg width="220" height="226" viewBox="0 0 220 226" fill="none" xmlns="http://www.w3.org/2000/svg">
<g clip-path="url(#clip0_2228_7097)">
<path d="M38.1967 74.0798C65.5195 53.186 85.492 37.0622 108.485 23.781C119.007 17.7029 130.579 13.2964 142.727 12.9847C177.656 12.0885 228.483 28.1011 218.794 94.0265C210.497 140.047 115.79 225.266 32.0178 173.249C-12.0657 145.876 3.59647 101.921 38.1967 74.0798Z" fill="#1C1F31"/>
<path d="M193.009 61.7132L214.683 93.2794L184.788 118.308L165.917 116.067L141.627 80.765L172.27 53.4948L193.009 61.7132Z" fill="#A9BAFF"/>
<path d="M93.048 36.3109L101.082 66.9431L84.8269 130.823L14.3869 120.736L0 94.4001L17.0027 24.3568L93.048 36.3109Z" fill="#A9BAFF"/>
<path d="M172.829 54.6156L196.185 87.676L214.495 92.5324L193.008 62.0869L172.829 54.6156Z" fill="#375BE9"/>
<path d="M76.0454 106.167L0.187012 94.5868L14.0134 119.989L84.827 130.636L76.0454 106.167Z" fill="#375BE9"/>
<path d="M124.252 131.57L167.039 164.07L168.534 192.834L131.352 226.081L98.6546 197.13L85.9492 165.751L124.252 131.57Z" fill="#5275FF"/>
<path d="M151.714 194.702C189.083 181.814 206.732 136.043 193.567 100.564M165.552 58.8573C144.398 23.7055 126.036 3.33195 96.6704 0.987215C64.7014 -1.56537 45.1628 32.6251 46.7199 64.6476" stroke="#1C1F31" stroke-width="1.27925" stroke-linecap="round"/>
<path d="M166.864 163.64L168.546 192.965L131.177 226.025M166.864 163.64C166.864 163.64 140.786 186.18 124.077 200.623M166.864 163.64L124.077 131.514M124.077 200.623C126.85 210.543 131.177 226.025 131.177 226.025M124.077 200.623C109.192 186.983 85.9609 165.695 85.9609 165.695M124.077 200.623C101.282 169.804 124.077 131.514 124.077 131.514M124.077 200.623C113.24 189.79 104.085 187.548 98.8531 197.448M131.177 226.025L98.8531 197.448M124.077 131.514L85.9609 165.695M85.9609 165.695L98.8531 197.448" stroke="#1C1F31" stroke-width="1.27925" stroke-linecap="round"/>
<path d="M172.093 53.6259L196.57 88.1806M172.093 53.6259L141.638 80.7093M172.093 53.6259L192.646 61.6575M196.57 88.1806L165.927 115.824M196.57 88.1806L214.88 93.2237M196.57 88.1806C189.636 73.9477 189.008 68.2867 192.646 61.6575M196.57 88.1806C176.017 66.5138 141.638 80.7093 141.638 80.7093M165.927 115.824L141.638 80.7093M165.927 115.824L184.612 118.252L214.88 93.2237M214.88 93.2237L192.646 61.6575" stroke="#1C1F31" stroke-width="1.27925" stroke-linecap="round"/>
<path d="M85.0254 131.327L75.8701 106.298M85.0254 131.327L100.72 67.074L92.8728 35.6946M85.0254 131.327L14.5855 120.307M75.8701 106.298L92.8728 35.6946M75.8701 106.298L0.0117188 94.531M75.8701 106.298C20.4759 92.0692 7.57204 73.7165 16.6408 24.1141M75.8701 106.298C46.8396 101.327 31.3681 100.16 14.5855 120.307M92.8728 35.6946L16.6408 24.1141M16.6408 24.1141L0.0117188 94.531M0.0117188 94.531L14.5855 120.307" stroke="#1C1F31" stroke-width="1.27925" stroke-linecap="round"/>
<path d="M93.0477 36.3112L100.895 67.1302L85.2002 130.076L76.0449 106.168L93.0477 36.3112Z" fill="#1C1F31" stroke="#1C1F31" stroke-width="1.27925" stroke-linecap="round"/>
<path d="M214.87 93.4666L184.602 118.495L166.104 115.507L196.746 88.2367L214.87 93.4666Z" fill="#1C1F31"/>
<path d="M166.852 164.07L168.72 192.835L131.351 226.082L124.064 200.68L166.852 164.07Z" fill="#1C1F31"/>
<path d="M93.7742 39.2996L100.454 66.0094M85.605 128.955L100.296 68.8111" stroke="#FFCB47" stroke-width="1.27925" stroke-linecap="round"/>
<path d="M168.157 116.115L183.665 118.13M212.554 95.1475L185.907 117.181" stroke="#FFCB47" stroke-width="1.27925" stroke-linecap="round"/>
<path d="M151.713 194.703C157.493 192.709 162.8 189.929 167.596 186.523M193.566 100.564C197.221 110.414 198.501 121.057 197.643 131.57M132.282 15.9607C143.728 25.6146 153.96 39.7094 164.907 57.7911" stroke="#FFCB47" stroke-width="1.27925" stroke-linecap="round"/>
</g>
<defs>
<clipPath id="clip0_2228_7097">
<rect width="220" height="225.969" fill="white"/>
</clipPath>
</defs>
</svg>
