<svg width="148" height="20" viewBox="0 0 148 20" fill="none" xmlns="http://www.w3.org/2000/svg">
<path d="M4.60997 19.9163C3.89608 19.9163 3.24644 19.749 2.66104 19.4144C2.08993 19.0797 1.59734 18.6196 1.18328 18.034C0.783499 17.4484 0.476525 16.7651 0.262356 15.9843C0.0624658 15.1895 -0.0232016 14.346 0.00535421 13.4536C0.03391 12.617 0.140994 11.7107 0.326607 10.7346C0.526497 9.75861 0.804916 8.78257 1.16186 7.80654C1.51881 6.81656 1.94715 5.86841 2.44687 4.96209C2.96088 4.04183 3.54627 3.23312 4.20305 2.53595C4.85984 1.83878 5.58801 1.28105 6.38757 0.862745C7.18713 0.430501 8.06522 0.214379 9.02184 0.214379C9.60724 0.214379 10.0998 0.332898 10.4996 0.569935C10.9137 0.793028 11.2421 1.09281 11.4848 1.46928C11.7418 1.84575 11.9203 2.27102 12.0202 2.7451C12.1201 3.21917 12.163 3.70022 12.1487 4.18824C12.1201 4.64837 12.0488 5.09455 11.9345 5.5268C11.8346 5.95904 11.6847 6.34946 11.4848 6.69804C11.2992 7.03268 11.0636 7.30458 10.778 7.51373C10.5067 7.70893 10.1926 7.80654 9.83568 7.80654C9.66435 7.79259 9.50015 7.73682 9.3431 7.63922C9.20032 7.55556 9.0504 7.43007 8.89334 7.26275C8.75056 7.09543 8.61492 6.85142 8.48642 6.53072C8.87193 6.37734 9.17176 6.11242 9.38593 5.73595C9.61438 5.34553 9.78571 4.94118 9.89993 4.52288C10.0284 4.0488 10.1141 3.51895 10.1569 2.93333C10.1855 2.36166 10.0641 1.94336 9.79285 1.67843C9.52157 1.41351 9.21459 1.28105 8.87193 1.28105C8.20086 1.28105 7.49411 1.62266 6.75166 2.30588C6.00921 2.98911 5.31673 3.91634 4.67423 5.08758C4.046 6.24488 3.51058 7.59739 3.06796 9.1451C2.63963 10.6928 2.38976 12.3312 2.31837 14.0601C2.28982 14.841 2.33979 15.5033 2.46829 16.0471C2.61107 16.5909 2.80382 17.037 3.04655 17.3856C3.30355 17.7342 3.58911 17.9852 3.90322 18.1386C4.21733 18.2919 4.53145 18.3686 4.84556 18.3686C5.34529 18.3686 5.81646 18.2641 6.25907 18.0549C6.70169 17.8458 7.10147 17.5878 7.45841 17.281C7.82964 16.9743 8.14375 16.6536 8.40075 16.319C8.67204 15.9983 8.87906 15.7124 9.02184 15.4614C9.12179 15.2802 9.22887 15.1686 9.3431 15.1268C9.45732 15.085 9.55726 15.0989 9.64293 15.1686C9.7286 15.2244 9.78571 15.322 9.81427 15.4614C9.84282 15.5869 9.81427 15.7403 9.7286 15.9216C9.48588 16.3956 9.18604 16.8697 8.82909 17.3438C8.48642 17.8179 8.09378 18.2431 7.65117 18.6196C7.22283 19.01 6.75166 19.3237 6.23765 19.5608C5.72365 19.7978 5.18109 19.9163 4.60997 19.9163Z" fill="#14C393"/>
<path d="M23.5313 11.4248C23.6313 11.3133 23.7312 11.2575 23.8312 11.2575C23.9454 11.2436 24.031 11.2715 24.0882 11.3412C24.1595 11.3969 24.1881 11.4876 24.1738 11.6131C24.1738 11.7386 24.1167 11.878 24.0025 12.0314C23.7312 12.3939 23.4171 12.7704 23.0602 13.1608C22.7032 13.5373 22.3177 13.9068 21.9036 14.2693C21.5039 14.6318 21.0969 14.9734 20.6829 15.2941C20.2688 15.6148 19.869 15.8797 19.4835 16.0889C19.0552 16.3259 18.6911 16.4444 18.3913 16.4444C18.1057 16.4444 17.8202 16.2632 17.5346 15.9007C17.2776 15.58 17.1491 15.2383 17.1491 14.8758C17.1634 14.4993 17.2491 14.0322 17.4061 13.4745C17.5061 13.1259 17.6417 12.7146 17.813 12.2405C17.9986 11.7525 18.1414 11.2854 18.2414 10.8392C18.3556 10.393 18.3913 10.0166 18.3484 9.7098C18.3056 9.38911 18.12 9.22876 17.7916 9.22876C17.5632 9.22876 17.3133 9.30545 17.042 9.45882C16.785 9.6122 16.5209 9.81438 16.2496 10.0654C15.9926 10.3024 15.7427 10.5743 15.5 10.881C15.2573 11.1878 15.0431 11.4876 14.8575 11.7804C14.7433 12.3242 14.6291 12.861 14.5148 13.3909C14.4149 13.837 14.3078 14.3251 14.1936 14.8549C14.0936 15.3708 13.9937 15.8309 13.8937 16.2353C13.8081 16.305 13.7153 16.3538 13.6153 16.3817C13.5154 16.4096 13.4226 16.4235 13.3369 16.4235C13.237 16.4235 13.137 16.4166 13.0371 16.4026C12.9228 16.3747 12.8158 16.3329 12.7158 16.2771C12.6302 16.2214 12.5445 16.1447 12.4588 16.0471C12.3731 15.9634 12.3089 15.8449 12.2661 15.6915C12.9086 13.112 13.4154 11.0414 13.7867 9.47974C14.1579 7.91808 14.4434 6.72593 14.6433 5.90327C14.8718 4.92723 15.0288 4.25098 15.1145 3.87451C15.1573 3.60959 15.193 3.35163 15.2216 3.10065C15.2501 2.87756 15.2644 2.64749 15.2644 2.41046C15.2644 2.17342 15.243 1.9573 15.2002 1.76209C15.3144 1.69237 15.4358 1.6366 15.5643 1.59477C15.707 1.55294 15.8427 1.51808 15.9712 1.4902C16.1282 1.44837 16.2853 1.41351 16.4423 1.38562C16.5994 1.35773 16.7422 1.34379 16.8707 1.34379C16.9849 1.34379 17.092 1.35773 17.1919 1.38562C17.2919 1.39956 17.3561 1.44139 17.3847 1.51111C17.4704 1.58083 17.5061 1.72026 17.4918 1.92941C17.4918 2.13856 17.4775 2.35468 17.4489 2.57778C17.3918 2.8427 17.3276 3.12854 17.2562 3.43529C16.9564 4.56471 16.6208 5.66623 16.2496 6.73987C15.8784 7.79956 15.5357 8.93595 15.2216 10.149C15.4072 9.87015 15.6285 9.58431 15.8855 9.2915C16.1425 8.99869 16.4209 8.73377 16.7208 8.49673C17.0349 8.24575 17.3633 8.04357 17.7059 7.8902C18.0486 7.72288 18.4127 7.63922 18.7982 7.63922C18.9981 7.63922 19.1837 7.67407 19.355 7.74379C19.5407 7.79956 19.6977 7.90414 19.8262 8.05752C19.969 8.19695 20.0761 8.39216 20.1475 8.64314C20.2189 8.88017 20.2474 9.17996 20.2331 9.54248C20.2331 9.76558 20.2046 9.99564 20.1475 10.2327C20.1046 10.4697 20.0404 10.7346 19.9547 11.0275C19.869 11.3063 19.7548 11.62 19.612 11.9686C19.4835 12.3172 19.3265 12.7216 19.1409 13.1817C19.0124 13.5024 18.9124 13.7743 18.841 13.9974C18.7696 14.2205 18.7839 14.4157 18.8839 14.583C19.0124 14.8061 19.2622 14.8619 19.6335 14.7503C20.019 14.6248 20.5901 14.2623 21.3468 13.6627C21.5181 13.5233 21.7109 13.349 21.9251 13.1399C22.1392 12.9307 22.3463 12.7216 22.5461 12.5124C22.746 12.2893 22.9317 12.0802 23.103 11.885C23.2743 11.6898 23.4171 11.5364 23.5313 11.4248Z" fill="#14C393"/>
<path d="M22.3208 15.9216C22.2209 16.0749 22.1138 16.1725 21.9996 16.2144C21.8711 16.2702 21.764 16.2771 21.6783 16.2353C21.5784 16.2074 21.5141 16.1377 21.4856 16.0261C21.457 15.9146 21.4856 15.7752 21.5713 15.6078C21.6141 15.5242 21.714 15.3359 21.8711 15.0431C22.0139 14.7503 22.1923 14.4017 22.4065 13.9974C22.6064 13.5791 22.8277 13.1329 23.0704 12.6588C23.3132 12.1708 23.5416 11.7107 23.7558 11.2784C23.9842 10.8462 24.1912 10.4627 24.3769 10.1281C24.5625 9.77952 24.6981 9.52854 24.7838 9.37516C24.6267 9.23573 24.5196 9.13813 24.4625 9.08235C24.4054 9.01264 24.3626 8.8732 24.334 8.66405C24.3055 8.48279 24.3483 8.24575 24.4625 7.95294C24.5767 7.66013 24.7267 7.38126 24.9123 7.11634C25.0979 6.83747 25.3049 6.60044 25.5334 6.40523C25.7618 6.21002 25.9831 6.11242 26.1973 6.11242C26.5971 6.11242 26.8755 6.23791 27.0325 6.48889C27.2039 6.73987 27.3038 6.99782 27.3324 7.26275C27.3609 7.44401 27.3467 7.67407 27.2895 7.95294C27.2324 8.23181 27.1254 8.48279 26.9683 8.70588C27.0111 8.73377 27.0682 8.76863 27.1396 8.81046C27.211 8.83834 27.3252 8.85229 27.4823 8.85229C27.7107 8.85229 27.8678 8.83834 27.9535 8.81046C28.0534 8.78257 28.2033 8.76863 28.4032 8.76863C28.646 8.76863 28.8458 8.83137 29.0029 8.95686C29.16 9.06841 29.2885 9.21482 29.3884 9.39608C29.4883 9.5634 29.5597 9.75163 29.6026 9.96078C29.6597 10.156 29.6954 10.3373 29.7097 10.5046C29.7525 10.8532 29.6597 11.2157 29.4312 11.5922C29.2028 11.9686 28.9244 12.38 28.596 12.8261C28.3961 13.105 28.1962 13.4187 27.9963 13.7673C27.7964 14.1159 27.7107 14.4296 27.7393 14.7085C27.7679 14.8898 27.8178 15.0362 27.8892 15.1477C27.9606 15.2593 28.1605 15.315 28.4889 15.315C28.7316 15.315 28.9958 15.2314 29.2813 15.0641C29.5812 14.8828 29.881 14.6597 30.1808 14.3948C30.4949 14.1159 30.8019 13.8161 31.1017 13.4954C31.4016 13.1608 31.68 12.8401 31.937 12.5333C32.194 12.2126 32.4082 11.9268 32.5795 11.6758C32.7651 11.4248 32.9008 11.2436 32.9864 11.132C33.0578 11.0205 33.1506 10.9438 33.2648 10.902C33.3791 10.8601 33.479 10.8601 33.5647 10.902C33.6503 10.9438 33.7003 11.0275 33.7146 11.1529C33.7432 11.2784 33.6932 11.4458 33.5647 11.6549C33.479 11.7943 33.3291 12.0174 33.1149 12.3242C32.915 12.6309 32.6652 12.9725 32.3653 13.349C32.0798 13.7255 31.7585 14.1159 31.4016 14.5203C31.0446 14.9107 30.6663 15.2732 30.2665 15.6078C29.881 15.9285 29.4883 16.1935 29.0886 16.4026C28.7031 16.6118 28.3318 16.7163 27.9749 16.7163C27.6037 16.7163 27.2967 16.6466 27.054 16.5072C26.8112 16.3678 26.6113 16.2004 26.4543 16.0052C26.3115 15.7961 26.2044 15.573 26.133 15.3359C26.0759 15.085 26.0545 14.8549 26.0688 14.6458C26.0831 14.4784 26.1259 14.3041 26.1973 14.1229C26.283 13.9277 26.3758 13.7325 26.4757 13.5373C26.5899 13.3281 26.7042 13.1259 26.8184 12.9307C26.9469 12.7216 27.0611 12.5194 27.161 12.3242C27.4038 11.9198 27.5965 11.5782 27.7393 11.2993C27.8964 11.0065 27.9749 10.7625 27.9749 10.5673C27.9749 10.4418 27.9463 10.3303 27.8892 10.2327C27.8321 10.1351 27.7393 10.0863 27.6108 10.0863C27.5251 10.0863 27.4609 10.0932 27.4181 10.1072C27.3895 10.1072 27.3538 10.1072 27.311 10.1072C27.2824 10.1072 27.2324 10.1142 27.161 10.1281C27.1039 10.1281 27.0111 10.1281 26.8826 10.1281C26.697 10.1281 26.54 10.1002 26.4115 10.0444C26.283 9.98867 26.1616 9.94684 26.0474 9.91895C25.9903 10.0166 25.8618 10.2257 25.6619 10.5464C25.462 10.8671 25.2264 11.2436 24.9551 11.6758C24.6981 12.1081 24.4197 12.5612 24.1199 13.0353C23.8343 13.5094 23.563 13.9556 23.306 14.3739C23.049 14.7782 22.8348 15.1268 22.6635 15.4196C22.4779 15.6985 22.3637 15.8658 22.3208 15.9216Z" fill="#14C393"/>
<path d="M37.1944 3.70719C37.1516 3.86057 37.0659 4.01394 36.9374 4.16732C36.8232 4.30675 36.6875 4.42527 36.5305 4.52288C36.3877 4.60654 36.2378 4.66231 36.0807 4.6902C35.9237 4.71808 35.7952 4.6902 35.6952 4.60654C35.3954 4.38344 35.2383 4.14641 35.2241 3.89542C35.2098 3.6305 35.274 3.38649 35.4168 3.1634C35.5596 2.92636 35.7381 2.73115 35.9522 2.57778C36.1664 2.41046 36.352 2.31285 36.5091 2.28497C36.6661 2.25708 36.7946 2.29194 36.8946 2.38954C37.0088 2.4732 37.0945 2.59172 37.1516 2.7451C37.2087 2.88453 37.2372 3.04488 37.2372 3.22614C37.2515 3.40741 37.2372 3.56776 37.1944 3.70719ZM34.2389 8.16209C34.3103 8.07843 34.4459 8.00871 34.6458 7.95294C34.8457 7.89717 35.0527 7.85534 35.2669 7.82745C35.4811 7.78562 35.6738 7.76471 35.8451 7.76471C36.0308 7.75076 36.1378 7.75076 36.1664 7.76471C36.1807 7.77865 36.145 7.92505 36.0593 8.20392C35.9737 8.48279 35.8666 8.81046 35.7381 9.18693C35.6096 9.5634 35.4739 9.95381 35.3311 10.3582C35.1884 10.7486 35.0813 11.0693 35.0099 11.3203C34.9385 11.5712 34.8528 11.8571 34.7529 12.1778C34.6529 12.4845 34.5601 12.7913 34.4745 13.098C34.4031 13.3909 34.3531 13.6697 34.3246 13.9346C34.296 14.1996 34.3174 14.4017 34.3888 14.5412C34.4602 14.7085 34.5387 14.827 34.6244 14.8967C34.7101 14.9525 34.8029 14.9804 34.9028 14.9804C35.1884 14.9804 35.5453 14.827 35.9737 14.5203C36.4163 14.2135 36.8589 13.851 37.3015 13.4327C37.7584 13.0004 38.1796 12.5682 38.5651 12.1359C38.9506 11.6898 39.2361 11.3342 39.4218 11.0693C39.536 10.9298 39.6502 10.8392 39.7644 10.7974C39.8929 10.7556 39.9929 10.7625 40.0643 10.8183C40.1499 10.8741 40.1928 10.9647 40.1928 11.0902C40.207 11.2157 40.1642 11.3621 40.0643 11.5294C39.8358 11.9198 39.5003 12.3869 39.0577 12.9307C38.6151 13.4606 38.1439 13.9765 37.6442 14.4784C37.1444 14.9664 36.6519 15.3847 36.1664 15.7333C35.6952 16.0819 35.3097 16.2632 35.0099 16.2771C34.7672 16.2911 34.5244 16.2492 34.2817 16.1516C34.0533 16.068 33.8391 15.9495 33.6392 15.7961C33.4536 15.6288 33.2965 15.4405 33.168 15.2314C33.0395 15.0083 32.9682 14.7782 32.9539 14.5412C32.911 14.1926 32.911 13.7185 32.9539 13.119C32.9967 12.5054 33.0752 11.885 33.1895 11.2575C33.3037 10.6161 33.4465 10.0096 33.6178 9.43791C33.8034 8.86623 34.0104 8.44096 34.2389 8.16209Z" fill="#14C393"/>
<path d="M41.9592 15.315C42.0449 15.3708 42.152 15.3987 42.2805 15.3987C42.4233 15.3987 42.5589 15.3708 42.6874 15.315C42.8302 15.2593 42.9587 15.1826 43.0729 15.085C43.2014 14.9874 43.2942 14.8619 43.3513 14.7085C43.4084 14.5551 43.4084 14.339 43.3513 14.0601C43.2942 13.7673 43.2014 13.4606 43.0729 13.1399C42.9587 12.8052 42.8302 12.4706 42.6874 12.1359C42.5446 11.8013 42.4233 11.4946 42.3233 11.2157C42.2376 11.0065 42.1663 10.8113 42.1091 10.6301C42.052 10.4767 41.9949 10.3303 41.9378 10.1909C41.895 10.0375 41.8593 9.9329 41.8307 9.87712C41.7593 9.98867 41.6308 10.1699 41.4452 10.4209C41.2739 10.6719 41.0811 10.9368 40.867 11.2157C40.6671 11.4806 40.4743 11.7316 40.2887 11.9686C40.1031 12.1917 39.9746 12.3451 39.9032 12.4288C39.789 12.5542 39.6748 12.6309 39.5605 12.6588C39.4606 12.6728 39.3749 12.6519 39.3035 12.5961C39.2322 12.5264 39.1893 12.4357 39.175 12.3242C39.175 12.1987 39.2322 12.0523 39.3464 11.885C39.432 11.7734 39.5605 11.5991 39.7319 11.3621C39.9032 11.1111 40.0745 10.8601 40.2459 10.6092C40.4172 10.3442 40.5743 10.1142 40.717 9.91895C40.8598 9.7098 40.9384 9.58431 40.9526 9.54248C40.9812 9.43094 40.9384 9.28453 40.8241 9.10327C40.7242 8.922 40.7099 8.71285 40.7813 8.47582C40.8384 8.28061 40.9669 8.05752 41.1668 7.80654C41.3667 7.54161 41.6023 7.30458 41.8736 7.09543C42.1448 6.88627 42.4233 6.7329 42.7088 6.63529C42.9944 6.52375 43.2514 6.52375 43.4798 6.63529C43.6654 6.74684 43.8154 6.87233 43.9296 7.01177C44.0438 7.13726 44.0866 7.26972 44.0581 7.40915C44.0295 7.47887 43.9867 7.5695 43.9296 7.68105C43.8725 7.79259 43.7868 7.93203 43.6726 8.09935C43.5583 8.25272 43.3942 8.4549 43.18 8.70588C43.2228 9.02658 43.2799 9.31939 43.3513 9.58431C43.437 9.84924 43.5155 10.0793 43.5869 10.2745C43.6726 10.5115 43.7654 10.7277 43.8653 10.9229C43.9938 11.1739 44.1295 11.4318 44.2722 11.6967C44.415 11.9617 44.5435 12.2266 44.6577 12.4915C44.772 12.7425 44.8648 12.9795 44.9362 13.2026C45.0076 13.4257 45.029 13.6139 45.0004 13.7673C44.9576 14.0044 44.8291 14.2902 44.6149 14.6248C44.415 14.9595 44.158 15.2871 43.8439 15.6078C43.5441 15.9146 43.1943 16.1795 42.7945 16.4026C42.409 16.6257 42.0021 16.7373 41.5737 16.7373C41.2739 16.7373 40.9812 16.6466 40.6956 16.4654C40.4244 16.2841 40.1888 16.0749 39.9889 15.8379C39.8033 15.5869 39.6605 15.3429 39.5605 15.1059C39.4749 14.8688 39.4677 14.6876 39.5391 14.5621C39.6248 14.3948 39.7033 14.2623 39.7747 14.1647C39.8461 14.0671 39.9532 13.9556 40.096 13.8301C40.1531 13.7882 40.2245 13.7394 40.3101 13.6837C40.3815 13.6418 40.4815 13.6 40.61 13.5582C40.7385 13.5163 40.8884 13.4675 41.0597 13.4118C41.2025 13.844 41.331 14.1856 41.4452 14.4366C41.5594 14.6736 41.6523 14.8619 41.7236 15.0013C41.8093 15.1547 41.8878 15.2593 41.9592 15.315Z" fill="#14C393"/>
<path d="M54.9909 10.7346C55.0481 10.651 55.1194 10.6022 55.2051 10.5882C55.3051 10.5603 55.3836 10.5673 55.4407 10.6092C55.4978 10.651 55.5264 10.7207 55.5264 10.8183C55.5406 10.9159 55.505 11.0484 55.4193 11.2157C55.1337 11.7455 54.7554 12.3172 54.2842 12.9307C53.8273 13.5442 53.3419 14.1229 52.8278 14.6667C52.3138 15.1965 51.8141 15.6357 51.3287 15.9843C50.8432 16.3329 50.4363 16.5072 50.1079 16.5072C49.6367 16.5072 49.2441 16.4166 48.93 16.2353C48.6159 16.054 48.366 15.8309 48.1804 15.566C48.0091 15.3011 47.8877 15.0153 47.8163 14.7085C47.7449 14.3878 47.7235 14.095 47.7521 13.8301C47.7663 13.607 47.8163 13.2096 47.902 12.6379C47.9876 12.0523 48.1019 11.383 48.2446 10.6301C48.3874 9.86318 48.5445 9.04749 48.7158 8.18301C48.9014 7.30458 49.0942 6.461 49.2941 5.65229C49.0513 5.68017 48.8086 5.70806 48.5659 5.73595C48.3232 5.76383 48.1019 5.77778 47.902 5.77778C47.4451 5.77778 47.0167 5.72898 46.617 5.63137C46.2029 5.51983 45.8959 5.41525 45.696 5.31765C45.5818 5.26187 45.5318 5.18519 45.5461 5.08758C45.5604 4.97604 45.6032 4.87146 45.6746 4.77386C45.746 4.66231 45.8388 4.57168 45.953 4.50196C46.053 4.4183 46.1458 4.37647 46.2315 4.37647C46.5027 4.40436 46.7954 4.43224 47.1096 4.46013C47.4237 4.47407 47.7663 4.47407 48.1376 4.46013C48.4088 4.44619 48.6658 4.42527 48.9086 4.39739C49.1656 4.3695 49.4154 4.33464 49.6582 4.29281C49.8438 3.62353 50.0222 3.04488 50.1936 2.55686C50.3792 2.0549 50.5434 1.70632 50.6862 1.51111C50.729 1.44139 50.8218 1.38562 50.9646 1.34379C51.1216 1.28802 51.2858 1.25316 51.4572 1.23922C51.6285 1.21133 51.7927 1.21133 51.9498 1.23922C52.1068 1.25316 52.221 1.30196 52.2924 1.38562C52.3638 1.49717 52.3924 1.78301 52.3781 2.24314C52.3638 2.70327 52.2853 3.28889 52.1425 4C52.7422 4 53.2705 4.03486 53.7274 4.10458C54.1985 4.16035 54.5983 4.23007 54.9267 4.31373C55.2551 4.38344 55.5192 4.46013 55.7191 4.54379C55.919 4.61351 56.0689 4.66231 56.1689 4.6902C56.2688 4.71808 56.3188 4.7878 56.3188 4.89935C56.3331 5.01089 56.3117 5.12941 56.2545 5.2549C56.2117 5.36645 56.1332 5.46405 56.019 5.54771C55.9047 5.63137 55.7762 5.65926 55.6335 5.63137C55.4907 5.61743 55.3265 5.58954 55.1409 5.54771C54.9695 5.50588 54.7554 5.47102 54.4984 5.44314C54.2556 5.41525 53.9629 5.38736 53.6203 5.35948C53.2776 5.33159 52.8778 5.31765 52.4209 5.31765C52.3353 5.31765 52.2353 5.32462 52.1211 5.33856C52.0211 5.33856 51.9141 5.33856 51.7998 5.33856C51.7427 5.56166 51.6856 5.78475 51.6285 6.00784C51.5857 6.21699 51.5214 6.44009 51.4358 6.67712C51.2501 7.23486 51.036 7.84139 50.7932 8.49673C50.5791 9.06841 50.3221 9.72375 50.0222 10.4627C49.7224 11.2017 49.3869 11.9895 49.0156 12.8261C48.93 13.4257 48.9371 13.8858 49.0371 14.2065C49.1513 14.5133 49.2869 14.7364 49.444 14.8758C49.6296 15.0292 49.858 15.1129 50.1293 15.1268C50.3435 15.1547 50.6005 15.085 50.9003 14.9176C51.2144 14.7364 51.5357 14.4993 51.8641 14.2065C52.1925 13.9137 52.5209 13.593 52.8493 13.2444C53.1919 12.8959 53.506 12.5542 53.7916 12.2196C54.0772 11.885 54.327 11.5852 54.5412 11.3203C54.7554 11.0414 54.9053 10.8462 54.9909 10.7346Z" fill="#14C393"/>
<path d="M64.1248 15.0641C64.1248 14.7712 64.1534 14.4366 64.2105 14.0601C64.2819 13.6837 64.3675 13.3002 64.4675 12.9098C64.5674 12.5054 64.6674 12.115 64.7673 11.7386C64.8672 11.3621 64.9529 11.0275 65.0243 10.7346C65.11 10.3721 65.1028 10.0932 65.0029 9.89804C64.9029 9.70283 64.7316 9.60523 64.4889 9.60523C64.3747 9.60523 64.1462 9.70283 63.8035 9.89804C63.4752 10.0932 63.1111 10.4349 62.7113 10.9229C62.3258 11.3969 61.9403 12.0453 61.5548 12.868C61.1836 13.6767 60.8909 14.7085 60.6767 15.9634C60.4054 16.1028 60.1484 16.1935 59.9057 16.2353C59.7772 16.2632 59.663 16.2841 59.563 16.298C59.2775 16.312 59.0918 16.2632 59.0062 16.1516C58.9205 16.054 58.9348 15.8031 59.049 15.3987C59.1061 15.2035 59.2061 14.8898 59.3488 14.4575C59.5059 14.0253 59.6558 13.5582 59.7986 13.0562C59.9414 12.5403 60.0627 12.0314 60.1627 11.5294C60.2769 11.0135 60.334 10.5673 60.334 10.1909C60.334 9.92593 60.284 9.74466 60.1841 9.64706C60.0984 9.54946 59.9699 9.50065 59.7986 9.50065C59.6701 9.50065 59.4559 9.57037 59.1561 9.7098C58.8563 9.84924 58.5207 10.1211 58.1495 10.5255C57.7783 10.9298 57.4071 11.4946 57.0358 12.2196C56.6789 12.9307 56.3719 13.858 56.1149 15.0013V14.9595C56.0863 15.071 56.0578 15.1826 56.0292 15.2941C56.0007 15.3917 55.9793 15.4963 55.965 15.6078C55.9507 15.7194 55.9293 15.824 55.9007 15.9216L54.8299 16.3817C54.7585 16.4096 54.6657 16.4305 54.5515 16.4444C54.4515 16.4584 54.3516 16.4375 54.2516 16.3817C54.166 16.3399 54.1017 16.2423 54.0589 16.0889C54.0161 15.9355 54.0303 15.7054 54.1017 15.3987L55.451 9.93987C55.4938 9.75861 55.5295 9.58431 55.5581 9.41699C55.5866 9.26362 55.6009 9.11721 55.6009 8.97778C55.6152 8.8244 55.608 8.69891 55.5795 8.60131C55.8222 8.48976 56.0364 8.4061 56.222 8.35033C56.4076 8.29455 56.5575 8.25272 56.6717 8.22484C56.8145 8.18301 56.9359 8.16209 57.0358 8.16209C57.4927 8.16209 57.6426 8.54553 57.4856 9.31242C57.4285 9.53551 57.3428 9.86318 57.2286 10.2954C57.4999 9.96078 57.7854 9.64706 58.0853 9.35425C58.3994 9.04749 58.7135 8.7756 59.0276 8.53856C59.3417 8.30153 59.6558 8.11329 59.9699 7.97386C60.2983 7.83442 60.6196 7.76471 60.9337 7.76471C61.1764 7.76471 61.3763 7.83442 61.5334 7.97386C61.7047 8.11329 61.8332 8.30153 61.9189 8.53856C62.0188 8.76166 62.0759 9.03355 62.0902 9.35425C62.1045 9.661 62.0902 9.9817 62.0474 10.3163C62.2758 10.0235 62.5257 9.73072 62.797 9.43791C63.0825 9.13116 63.3752 8.85926 63.675 8.62222C63.9892 8.38519 64.3104 8.18998 64.6388 8.0366C64.9672 7.88322 65.2956 7.80654 65.624 7.80654C66.0095 7.80654 66.3022 7.91808 66.5021 8.14118C66.7162 8.36427 66.859 8.65011 66.9304 8.99869C67.0161 9.34728 67.0375 9.72375 66.9947 10.1281C66.9661 10.5325 66.909 10.9229 66.8233 11.2993L66.0951 14.1229C65.9381 14.82 66.088 15.1686 66.5449 15.1686C66.9018 15.1686 67.2945 15.0013 67.7228 14.6667C68.1512 14.332 68.5652 13.9346 68.965 13.4745C69.3791 13.0144 69.7646 12.5403 70.1215 12.0523C70.4785 11.5643 70.7783 11.1739 71.021 10.881C71.1067 10.7834 71.1924 10.7277 71.278 10.7137C71.378 10.6998 71.4565 10.7207 71.5136 10.7765C71.585 10.8183 71.6207 10.895 71.6207 11.0065C71.635 11.1181 71.5993 11.2575 71.5136 11.4248C71.2281 11.9129 70.8782 12.4566 70.4642 13.0562C70.0501 13.6418 69.5932 14.1926 69.0935 14.7085C68.6081 15.2244 68.0869 15.6566 67.5301 16.0052C66.9732 16.3538 66.395 16.5281 65.7953 16.5281C65.5954 16.5281 65.3955 16.5072 65.1956 16.4654C65.01 16.4235 64.8316 16.3468 64.6602 16.2353C64.5032 16.1237 64.3747 15.9773 64.2747 15.7961C64.1748 15.6009 64.1248 15.3569 64.1248 15.0641Z" fill="#14C393"/>
<path d="M81.3114 11.8641C81.1115 12.1429 80.8545 12.4915 80.5404 12.9098C80.2263 13.3142 79.8979 13.7255 79.5552 14.1438C79.2268 14.5481 78.8984 14.9246 78.57 15.2732C78.2559 15.6078 77.9918 15.8449 77.7776 15.9843C77.6348 16.068 77.4706 16.1377 77.285 16.1935C77.0994 16.2492 76.9067 16.2841 76.7068 16.298C76.5212 16.312 76.3427 16.298 76.1713 16.2562C76 16.2283 75.8501 16.1725 75.7216 16.0889C75.5931 15.9913 75.486 15.8519 75.4003 15.6706C75.3289 15.5172 75.2576 15.315 75.1862 15.0641C75.1291 14.8131 75.1076 14.4993 75.1219 14.1229C74.7793 14.6806 74.4009 15.1129 73.9868 15.4196C73.5728 15.7124 73.1801 15.9285 72.8089 16.068C72.3806 16.2214 71.9522 16.312 71.5239 16.3399C71.324 16.3399 71.1098 16.2702 70.8814 16.1307C70.6529 16.0052 70.4602 15.8031 70.3031 15.5242C70.1461 15.2314 70.0461 14.8619 70.0033 14.4157C69.9605 13.9556 70.0176 13.4118 70.1746 12.7843C70.3745 11.9338 70.6886 11.1599 71.117 10.4627C71.5596 9.76558 72.0379 9.17299 72.5519 8.68497C73.0659 8.18301 73.5728 7.80654 74.0725 7.55556C74.5722 7.30458 74.9863 7.19303 75.3147 7.22092C75.7002 7.29063 76.0143 7.40218 76.257 7.55556C76.4569 7.69499 76.5854 7.90414 76.6425 8.18301C76.7139 8.44793 76.5997 8.80349 76.2999 9.24967C76.4997 9.20784 76.6639 9.17996 76.7924 9.16601C76.9352 9.15207 77.0423 9.1451 77.1137 9.1451C77.1994 9.1451 77.2565 9.15207 77.285 9.16601C77.2993 9.1939 77.3064 9.25665 77.3064 9.35425C77.3064 9.43791 77.285 9.59826 77.2422 9.83529C77.1994 10.0723 77.1351 10.393 77.0494 10.7974C76.9638 11.2017 76.8495 11.7246 76.7068 12.366C76.6782 12.4915 76.6497 12.61 76.6211 12.7216C76.6068 12.8192 76.5854 12.9237 76.5568 13.0353C76.5426 13.1329 76.5212 13.2514 76.4926 13.3909C76.464 13.5303 76.4283 13.7046 76.3855 13.9137C76.3712 14.0392 76.3641 14.1786 76.3641 14.332C76.3784 14.4715 76.4069 14.6039 76.4498 14.7294C76.4926 14.8549 76.5568 14.9595 76.6425 15.0431C76.7425 15.1129 76.8781 15.1477 77.0494 15.1477C77.1922 15.1477 77.3778 15.0641 77.6063 14.8967C77.8347 14.7155 78.0774 14.4924 78.3344 14.2275C78.5914 13.9486 78.8556 13.6488 79.1269 13.3281C79.4124 12.9935 79.6766 12.6728 79.9193 12.366C80.162 12.0593 80.3762 11.7874 80.5618 11.5503C80.7617 11.3133 80.9045 11.139 80.9901 11.0275C81.1044 10.902 81.2186 10.8322 81.3328 10.8183C81.447 10.7904 81.5327 10.8183 81.5898 10.902C81.6469 10.9856 81.6541 11.1111 81.6112 11.2784C81.5827 11.4458 81.4827 11.641 81.3114 11.8641ZM75.0363 12.7843C75.1076 12.5054 75.1933 12.1778 75.2933 11.8013C75.3932 11.4248 75.4789 11.0623 75.5503 10.7137C75.6217 10.3651 75.6716 10.0793 75.7002 9.85621C75.743 9.61917 75.7359 9.50763 75.6788 9.52157C75.6074 9.53551 75.5288 9.55643 75.4432 9.58431C75.3718 9.6122 75.279 9.63312 75.1648 9.64706C75.0505 9.661 74.9363 9.68192 74.8221 9.7098C74.9363 9.48671 75.0006 9.30545 75.0148 9.16601C75.0434 9.01264 75.0505 8.89412 75.0363 8.81046C75.022 8.71285 74.9934 8.63617 74.9506 8.58039C74.7935 8.4549 74.5151 8.55948 74.1153 8.89412C73.7298 9.21482 73.2801 9.81438 72.7661 10.6928C72.5519 11.0553 72.3806 11.4458 72.2521 11.8641C72.1236 12.2684 72.0308 12.6519 71.9736 13.0144C71.9308 13.3769 71.9237 13.6976 71.9522 13.9765C71.9808 14.2414 72.0379 14.4157 72.1236 14.4993C72.2806 14.6527 72.4591 14.7294 72.659 14.7294C72.8589 14.7155 73.0588 14.6597 73.2587 14.5621C73.4728 14.4505 73.6799 14.3111 73.8797 14.1438C74.0939 13.9765 74.2795 13.8022 74.4366 13.6209C74.6079 13.4397 74.7436 13.2723 74.8435 13.119C74.9577 12.9656 75.022 12.854 75.0363 12.7843Z" fill="#14C393"/>
<path d="M83.3348 15.315C83.4205 15.3708 83.5276 15.3987 83.6561 15.3987C83.7989 15.3987 83.9345 15.3708 84.063 15.315C84.2058 15.2593 84.3343 15.1826 84.4485 15.085C84.577 14.9874 84.6698 14.8619 84.7269 14.7085C84.784 14.5551 84.784 14.339 84.7269 14.0601C84.6698 13.7673 84.577 13.4606 84.4485 13.1399C84.3343 12.8052 84.2058 12.4706 84.063 12.1359C83.9202 11.8013 83.7989 11.4946 83.6989 11.2157C83.6133 11.0065 83.5419 10.8113 83.4848 10.6301C83.4277 10.4767 83.3705 10.3303 83.3134 10.1909C83.2706 10.0375 83.2349 9.9329 83.2063 9.87712C83.135 9.98867 83.0065 10.1699 82.8208 10.4209C82.6495 10.6719 82.4568 10.9368 82.2426 11.2157C82.0427 11.4806 81.8499 11.7316 81.6643 11.9686C81.4787 12.1917 81.3502 12.3451 81.2788 12.4288C81.1646 12.5542 81.0504 12.6309 80.9362 12.6588C80.8362 12.6728 80.7505 12.6519 80.6792 12.5961C80.6078 12.5264 80.5649 12.4357 80.5507 12.3242C80.5507 12.1987 80.6078 12.0523 80.722 11.885C80.8077 11.7734 80.9362 11.5991 81.1075 11.3621C81.2788 11.1111 81.4502 10.8601 81.6215 10.6092C81.7928 10.3442 81.9499 10.1142 82.0927 9.91895C82.2355 9.7098 82.314 9.58431 82.3283 9.54248C82.3568 9.43094 82.314 9.28453 82.1998 9.10327C82.0998 8.922 82.0855 8.71285 82.1569 8.47582C82.214 8.28061 82.3425 8.05752 82.5424 7.80654C82.7423 7.54161 82.9779 7.30458 83.2492 7.09543C83.5205 6.88627 83.7989 6.7329 84.0844 6.63529C84.37 6.52375 84.627 6.52375 84.8554 6.63529C85.0411 6.74684 85.191 6.87233 85.3052 7.01177C85.4194 7.13726 85.4622 7.26972 85.4337 7.40915C85.4051 7.47887 85.3623 7.5695 85.3052 7.68105C85.2481 7.79259 85.1624 7.93203 85.0482 8.09935C84.934 8.25272 84.7698 8.4549 84.5556 8.70588C84.5984 9.02658 84.6555 9.31939 84.7269 9.58431C84.8126 9.84924 84.8911 10.0793 84.9625 10.2745C85.0482 10.5115 85.141 10.7277 85.2409 10.9229C85.3694 11.1739 85.5051 11.4318 85.6479 11.6967C85.7906 11.9617 85.9191 12.2266 86.0334 12.4915C86.1476 12.7425 86.2404 12.9795 86.3118 13.2026C86.3832 13.4257 86.4046 13.6139 86.376 13.7673C86.3332 14.0044 86.2047 14.2902 85.9905 14.6248C85.7906 14.9595 85.5336 15.2871 85.2195 15.6078C84.9197 15.9146 84.5699 16.1795 84.1701 16.4026C83.7846 16.6257 83.3777 16.7373 82.9493 16.7373C82.6495 16.7373 82.3568 16.6466 82.0713 16.4654C81.8 16.2841 81.5644 16.0749 81.3645 15.8379C81.1789 15.5869 81.0361 15.3429 80.9362 15.1059C80.8505 14.8688 80.8434 14.6876 80.9147 14.5621C81.0004 14.3948 81.0789 14.2623 81.1503 14.1647C81.2217 14.0671 81.3288 13.9556 81.4716 13.8301C81.5287 13.7882 81.6001 13.7394 81.6857 13.6837C81.7571 13.6418 81.8571 13.6 81.9856 13.5582C82.1141 13.5163 82.264 13.4675 82.4353 13.4118C82.5781 13.844 82.7066 14.1856 82.8208 14.4366C82.9351 14.6736 83.0279 14.8619 83.0993 15.0013C83.1849 15.1547 83.2635 15.2593 83.3348 15.315Z" fill="#14C393"/>
<path d="M106.507 14.0601C106.421 14.9943 106.136 15.8309 105.65 16.5699C105.165 17.3089 104.544 17.9294 103.787 18.4314C103.045 18.9473 102.202 19.3377 101.26 19.6026C100.318 19.8675 99.3466 20 98.3472 20C97.976 20 97.6262 19.9721 97.2978 19.9163C96.9837 19.8745 96.6981 19.8187 96.4411 19.749C96.1841 19.6793 95.9628 19.6096 95.7772 19.5399C95.6058 19.4841 95.4845 19.4353 95.4131 19.3935C95.2846 19.3237 95.1775 19.2331 95.0918 19.1216C95.0204 19.024 94.9776 18.8776 94.9633 18.6824C94.9491 18.5708 94.9419 18.4802 94.9419 18.4105C94.9419 18.3547 94.9491 18.2919 94.9633 18.2222C94.9776 18.1525 95.0062 18.0549 95.049 17.9294C95.0776 17.8179 95.1204 17.6575 95.1775 17.4484C95.2061 17.3229 95.3131 16.9255 95.4988 16.2562C95.6986 15.6009 95.9342 14.7991 96.2055 13.851C96.4768 12.8889 96.7695 11.8501 97.0836 10.7346C97.412 9.61917 97.7261 8.53856 98.0259 7.49281C98.3258 6.44706 98.5971 5.50588 98.8398 4.66928C99.0825 3.81874 99.261 3.19129 99.3752 2.78693C99.1753 2.92636 98.9754 3.07277 98.7755 3.22614C98.5899 3.37952 98.3972 3.54684 98.1973 3.7281C97.9831 3.92331 97.7689 3.99303 97.5548 3.93725C97.3549 3.86754 97.2121 3.69325 97.1264 3.41438C97.0979 3.27495 97.0765 3.12854 97.0622 2.97516C97.0479 2.84967 97.0479 2.71024 97.0622 2.55686C97.0907 2.38954 97.1479 2.22919 97.2335 2.07582C97.7047 1.79695 98.1616 1.55991 98.6042 1.36471C99.0611 1.1695 99.4966 0.995207 99.9106 0.84183C99.9963 0.604793 100.089 0.423529 100.189 0.298039C100.303 0.172549 100.417 0.0888889 100.532 0.0470588C100.646 0.00522876 100.767 -0.0087146 100.896 0.00522876C101.024 0.0191721 101.16 0.0400871 101.303 0.0679739C101.617 0.137691 101.824 0.235294 101.924 0.360784C102.124 0.332898 102.316 0.311983 102.502 0.298039C102.688 0.284096 102.88 0.277124 103.08 0.277124C103.908 0.277124 104.629 0.381699 105.243 0.59085C105.857 0.8 106.357 1.08584 106.743 1.44837C107.142 1.79695 107.428 2.20828 107.599 2.68235C107.771 3.15643 107.835 3.65839 107.792 4.18824C107.749 4.64837 107.621 5.12941 107.407 5.63137C107.207 6.11939 106.935 6.60741 106.593 7.09543C106.25 7.5695 105.85 8.0366 105.393 8.49673C104.936 8.94292 104.43 9.35425 103.873 9.73072C104.315 9.9817 104.708 10.2745 105.051 10.6092C105.393 10.9438 105.679 11.3063 105.907 11.6967C106.136 12.0871 106.3 12.4845 106.4 12.8889C106.5 13.2932 106.536 13.6837 106.507 14.0601ZM99.418 8.93595C99.3895 9.07538 99.3538 9.21482 99.311 9.35425C99.2824 9.49368 99.2467 9.64009 99.2039 9.79346C99.3752 9.6122 99.6608 9.44488 100.061 9.2915C100.475 9.13813 100.867 9.06144 101.238 9.06144C101.438 9.06144 101.631 9.07538 101.817 9.10327C102.002 9.11721 102.181 9.13813 102.352 9.16601C102.752 8.91503 103.137 8.59434 103.509 8.20392C103.88 7.79956 104.201 7.37429 104.472 6.9281C104.758 6.46797 104.986 6.00087 105.158 5.5268C105.343 5.05272 105.458 4.61351 105.5 4.20915C105.586 3.24706 105.415 2.53595 104.986 2.07582C104.572 1.60174 103.98 1.36471 103.209 1.36471C102.695 1.36471 102.159 1.45534 101.603 1.6366C101.488 1.99913 101.346 2.45229 101.174 2.99608C101.003 3.52593 100.817 4.11155 100.617 4.75294C100.432 5.39434 100.232 6.07059 100.018 6.7817C99.8035 7.49281 99.6037 8.21089 99.418 8.93595ZM99.054 10.3163C98.8541 11.0693 98.6542 11.885 98.4543 12.7634C98.2687 13.5163 98.0688 14.3948 97.8546 15.3987C97.6404 16.3887 97.412 17.4484 97.1693 18.5778C97.2549 18.6475 97.3692 18.6963 97.5119 18.7242C97.6547 18.7521 97.7975 18.78 97.9403 18.8078C98.0973 18.8357 98.2687 18.8497 98.4543 18.8497C99.0968 18.8497 99.7464 18.7172 100.403 18.4523C101.074 18.2013 101.688 17.8388 102.245 17.3647C102.802 16.8906 103.266 16.319 103.637 15.6497C104.023 14.9664 104.251 14.2065 104.322 13.3699C104.351 12.9935 104.322 12.6588 104.237 12.366C104.165 12.0593 104.051 11.7874 103.894 11.5503C103.751 11.2993 103.58 11.0832 103.38 10.902C103.195 10.7068 102.995 10.5394 102.78 10.4C102.124 10.7486 101.403 11.0414 100.617 11.2784C100.36 11.3481 100.139 11.3621 99.9535 11.3203C99.7678 11.2645 99.6108 11.1878 99.4823 11.0902C99.3538 10.9786 99.2538 10.8532 99.1825 10.7137C99.1111 10.5743 99.0682 10.4418 99.054 10.3163Z" fill="#14C393"/>
<path d="M119.796 11.8641C119.596 12.1429 119.339 12.4915 119.025 12.9098C118.711 13.3142 118.382 13.7255 118.04 14.1438C117.711 14.5481 117.383 14.9246 117.054 15.2732C116.74 15.6078 116.476 15.8449 116.262 15.9843C116.119 16.068 115.955 16.1377 115.769 16.1935C115.584 16.2492 115.391 16.2841 115.191 16.298C115.005 16.312 114.827 16.298 114.656 16.2562C114.484 16.2283 114.334 16.1725 114.206 16.0889C114.077 15.9913 113.97 15.8519 113.885 15.6706C113.813 15.5172 113.742 15.315 113.671 15.0641C113.613 14.8131 113.592 14.4993 113.606 14.1229C113.264 14.6806 112.885 15.1129 112.471 15.4196C112.057 15.7124 111.664 15.9285 111.293 16.068C110.865 16.2214 110.437 16.312 110.008 16.3399C109.808 16.3399 109.594 16.2702 109.366 16.1307C109.137 16.0052 108.945 15.8031 108.787 15.5242C108.63 15.2314 108.53 14.8619 108.488 14.4157C108.445 13.9556 108.502 13.4118 108.659 12.7843C108.859 11.9338 109.173 11.1599 109.601 10.4627C110.044 9.76558 110.522 9.17299 111.036 8.68497C111.55 8.18301 112.057 7.80654 112.557 7.55556C113.057 7.30458 113.471 7.19303 113.799 7.22092C114.185 7.29063 114.499 7.40218 114.741 7.55556C114.941 7.69499 115.07 7.90414 115.127 8.18301C115.198 8.44793 115.084 8.80349 114.784 9.24967C114.984 9.20784 115.148 9.17996 115.277 9.16601C115.42 9.15207 115.527 9.1451 115.598 9.1451C115.684 9.1451 115.741 9.15207 115.769 9.16601C115.784 9.1939 115.791 9.25665 115.791 9.35425C115.791 9.43791 115.769 9.59826 115.727 9.83529C115.684 10.0723 115.619 10.393 115.534 10.7974C115.448 11.2017 115.334 11.7246 115.191 12.366C115.163 12.4915 115.134 12.61 115.105 12.7216C115.091 12.8192 115.07 12.9237 115.041 13.0353C115.027 13.1329 115.005 13.2514 114.977 13.3909C114.948 13.5303 114.913 13.7046 114.87 13.9137C114.856 14.0392 114.848 14.1786 114.848 14.332C114.863 14.4715 114.891 14.6039 114.934 14.7294C114.977 14.8549 115.041 14.9595 115.127 15.0431C115.227 15.1129 115.362 15.1477 115.534 15.1477C115.677 15.1477 115.862 15.0641 116.091 14.8967C116.319 14.7155 116.562 14.4924 116.819 14.2275C117.076 13.9486 117.34 13.6488 117.611 13.3281C117.897 12.9935 118.161 12.6728 118.404 12.366C118.646 12.0593 118.861 11.7874 119.046 11.5503C119.246 11.3133 119.389 11.139 119.474 11.0275C119.589 10.902 119.703 10.8322 119.817 10.8183C119.931 10.7904 120.017 10.8183 120.074 10.902C120.131 10.9856 120.138 11.1111 120.096 11.2784C120.067 11.4458 119.967 11.641 119.796 11.8641ZM113.521 12.7843C113.592 12.5054 113.678 12.1778 113.778 11.8013C113.878 11.4248 113.963 11.0623 114.035 10.7137C114.106 10.3651 114.156 10.0793 114.185 9.85621C114.227 9.61917 114.22 9.50763 114.163 9.52157C114.092 9.53551 114.013 9.55643 113.928 9.58431C113.856 9.6122 113.763 9.63312 113.649 9.64706C113.535 9.661 113.421 9.68192 113.306 9.7098C113.421 9.48671 113.485 9.30545 113.499 9.16601C113.528 9.01264 113.535 8.89412 113.521 8.81046C113.506 8.71285 113.478 8.63617 113.435 8.58039C113.278 8.4549 112.999 8.55948 112.6 8.89412C112.214 9.21482 111.764 9.81438 111.25 10.6928C111.036 11.0553 110.865 11.4458 110.736 11.8641C110.608 12.2684 110.515 12.6519 110.458 13.0144C110.415 13.3769 110.408 13.6976 110.437 13.9765C110.465 14.2414 110.522 14.4157 110.608 14.4993C110.765 14.6527 110.943 14.7294 111.143 14.7294C111.343 14.7155 111.543 14.6597 111.743 14.5621C111.957 14.4505 112.164 14.3111 112.364 14.1438C112.578 13.9765 112.764 13.8022 112.921 13.6209C113.092 13.4397 113.228 13.2723 113.328 13.119C113.442 12.9656 113.506 12.854 113.521 12.7843Z" fill="#14C393"/>
<path d="M126.702 10.7346C126.759 10.651 126.831 10.6022 126.916 10.5882C127.016 10.5603 127.095 10.5673 127.152 10.6092C127.209 10.651 127.238 10.7207 127.238 10.8183C127.252 10.9159 127.216 11.0484 127.131 11.2157C126.845 11.7455 126.467 12.3172 125.995 12.9307C125.539 13.5442 125.053 14.1229 124.539 14.6667C124.025 15.1965 123.525 15.6357 123.04 15.9843C122.555 16.3329 122.148 16.5072 121.819 16.5072C121.348 16.5072 120.955 16.4166 120.641 16.2353C120.327 16.054 120.077 15.8309 119.892 15.566C119.72 15.3011 119.599 15.0153 119.528 14.7085C119.456 14.3878 119.435 14.095 119.463 13.8301C119.478 13.607 119.528 13.2096 119.613 12.6379C119.699 12.0523 119.813 11.383 119.956 10.6301C120.099 9.86318 120.256 9.04749 120.427 8.18301C120.613 7.30458 120.805 6.461 121.005 5.65229C120.763 5.68017 120.52 5.70806 120.277 5.73595C120.034 5.76383 119.813 5.77778 119.613 5.77778C119.156 5.77778 118.728 5.72898 118.328 5.63137C117.914 5.51983 117.607 5.41525 117.407 5.31765C117.293 5.26187 117.243 5.18519 117.257 5.08758C117.272 4.97604 117.315 4.87146 117.386 4.77386C117.457 4.66231 117.55 4.57168 117.664 4.50196C117.764 4.4183 117.857 4.37647 117.943 4.37647C118.214 4.40436 118.507 4.43224 118.821 4.46013C119.135 4.47407 119.478 4.47407 119.849 4.46013C120.12 4.44619 120.377 4.42527 120.62 4.39739C120.877 4.3695 121.127 4.33464 121.369 4.29281C121.555 3.62353 121.734 3.04488 121.905 2.55686C122.09 2.0549 122.255 1.70632 122.397 1.51111C122.44 1.44139 122.533 1.38562 122.676 1.34379C122.833 1.28802 122.997 1.25316 123.168 1.23922C123.34 1.21133 123.504 1.21133 123.661 1.23922C123.818 1.25316 123.932 1.30196 124.004 1.38562C124.075 1.49717 124.104 1.78301 124.089 2.24314C124.075 2.70327 123.997 3.28889 123.854 4C124.453 4 124.982 4.03486 125.439 4.10458C125.91 4.16035 126.31 4.23007 126.638 4.31373C126.966 4.38344 127.231 4.46013 127.43 4.54379C127.63 4.61351 127.78 4.66231 127.88 4.6902C127.98 4.71808 128.03 4.7878 128.03 4.89935C128.044 5.01089 128.023 5.12941 127.966 5.2549C127.923 5.36645 127.844 5.46405 127.73 5.54771C127.616 5.63137 127.488 5.65926 127.345 5.63137C127.202 5.61743 127.038 5.58954 126.852 5.54771C126.681 5.50588 126.467 5.47102 126.21 5.44314C125.967 5.41525 125.674 5.38736 125.332 5.35948C124.989 5.33159 124.589 5.31765 124.132 5.31765C124.047 5.31765 123.947 5.32462 123.832 5.33856C123.732 5.33856 123.625 5.33856 123.511 5.33856C123.454 5.56166 123.397 5.78475 123.34 6.00784C123.297 6.21699 123.233 6.44009 123.147 6.67712C122.961 7.23486 122.747 7.84139 122.505 8.49673C122.29 9.06841 122.033 9.72375 121.734 10.4627C121.434 11.2017 121.098 11.9895 120.727 12.8261C120.641 13.4257 120.648 13.8858 120.748 14.2065C120.863 14.5133 120.998 14.7364 121.155 14.8758C121.341 15.0292 121.569 15.1129 121.841 15.1268C122.055 15.1547 122.312 15.085 122.612 14.9176C122.926 14.7364 123.247 14.4993 123.575 14.2065C123.904 13.9137 124.232 13.593 124.561 13.2444C124.903 12.8959 125.217 12.5542 125.503 12.2196C125.788 11.885 126.038 11.5852 126.252 11.3203C126.467 11.0414 126.617 10.8462 126.702 10.7346Z" fill="#14C393"/>
<path d="M133.759 10.7346C133.816 10.651 133.887 10.6022 133.973 10.5882C134.073 10.5603 134.151 10.5673 134.208 10.6092C134.266 10.651 134.294 10.7207 134.294 10.8183C134.308 10.9159 134.273 11.0484 134.187 11.2157C133.901 11.7455 133.523 12.3172 133.052 12.9307C132.595 13.5442 132.11 14.1229 131.596 14.6667C131.082 15.1965 130.582 15.6357 130.096 15.9843C129.611 16.3329 129.204 16.5072 128.876 16.5072C128.404 16.5072 128.012 16.4166 127.698 16.2353C127.384 16.054 127.134 15.8309 126.948 15.566C126.777 15.3011 126.655 15.0153 126.584 14.7085C126.513 14.3878 126.491 14.095 126.52 13.8301C126.534 13.607 126.584 13.2096 126.67 12.6379C126.755 12.0523 126.87 11.383 127.012 10.6301C127.155 9.86318 127.312 9.04749 127.484 8.18301C127.669 7.30458 127.862 6.461 128.062 5.65229C127.819 5.68017 127.576 5.70806 127.334 5.73595C127.091 5.76383 126.87 5.77778 126.67 5.77778C126.213 5.77778 125.784 5.72898 125.385 5.63137C124.971 5.51983 124.664 5.41525 124.464 5.31765C124.35 5.26187 124.3 5.18519 124.314 5.08758C124.328 4.97604 124.371 4.87146 124.442 4.77386C124.514 4.66231 124.607 4.57168 124.721 4.50196C124.821 4.4183 124.913 4.37647 124.999 4.37647C125.27 4.40436 125.563 4.43224 125.877 4.46013C126.191 4.47407 126.534 4.47407 126.905 4.46013C127.177 4.44619 127.434 4.42527 127.676 4.39739C127.933 4.3695 128.183 4.33464 128.426 4.29281C128.611 3.62353 128.79 3.04488 128.961 2.55686C129.147 2.0549 129.311 1.70632 129.454 1.51111C129.497 1.44139 129.59 1.38562 129.732 1.34379C129.889 1.28802 130.054 1.25316 130.225 1.23922C130.396 1.21133 130.56 1.21133 130.717 1.23922C130.875 1.25316 130.989 1.30196 131.06 1.38562C131.132 1.49717 131.16 1.78301 131.146 2.24314C131.132 2.70327 131.053 3.28889 130.91 4C131.51 4 132.038 4.03486 132.495 4.10458C132.966 4.16035 133.366 4.23007 133.694 4.31373C134.023 4.38344 134.287 4.46013 134.487 4.54379C134.687 4.61351 134.837 4.66231 134.937 4.6902C135.037 4.71808 135.087 4.7878 135.087 4.89935C135.101 5.01089 135.079 5.12941 135.022 5.2549C134.979 5.36645 134.901 5.46405 134.787 5.54771C134.672 5.63137 134.544 5.65926 134.401 5.63137C134.258 5.61743 134.094 5.58954 133.909 5.54771C133.737 5.50588 133.523 5.47102 133.266 5.44314C133.023 5.41525 132.731 5.38736 132.388 5.35948C132.045 5.33159 131.646 5.31765 131.189 5.31765C131.103 5.31765 131.003 5.32462 130.889 5.33856C130.789 5.33856 130.682 5.33856 130.568 5.33856C130.51 5.56166 130.453 5.78475 130.396 6.00784C130.353 6.21699 130.289 6.44009 130.203 6.67712C130.018 7.23486 129.804 7.84139 129.561 8.49673C129.347 9.06841 129.09 9.72375 128.79 10.4627C128.49 11.2017 128.155 11.9895 127.783 12.8261C127.698 13.4257 127.705 13.8858 127.805 14.2065C127.919 14.5133 128.055 14.7364 128.212 14.8758C128.397 15.0292 128.626 15.1129 128.897 15.1268C129.111 15.1547 129.368 15.085 129.668 14.9176C129.982 14.7364 130.303 14.4993 130.632 14.2065C130.96 13.9137 131.289 13.593 131.617 13.2444C131.96 12.8959 132.274 12.5542 132.559 12.2196C132.845 11.885 133.095 11.5852 133.309 11.3203C133.523 11.0414 133.673 10.8462 133.759 10.7346Z" fill="#14C393"/>
<path d="M132.591 15.6915C133.219 13.112 133.719 11.0414 134.09 9.47974C134.476 7.91808 134.768 6.72593 134.968 5.90327C135.197 4.92723 135.354 4.25098 135.439 3.87451C135.482 3.60959 135.518 3.35163 135.547 3.10065C135.575 2.87756 135.589 2.64749 135.589 2.41046C135.589 2.17342 135.568 1.9573 135.525 1.76209C135.639 1.69237 135.761 1.6366 135.889 1.59477C136.032 1.55294 136.168 1.51808 136.296 1.4902C136.453 1.44837 136.61 1.41351 136.767 1.38562C136.924 1.35773 137.067 1.34379 137.196 1.34379C137.31 1.34379 137.417 1.35773 137.517 1.38562C137.617 1.39956 137.681 1.44139 137.71 1.51111C137.795 1.58083 137.831 1.72026 137.817 1.92941C137.817 2.13856 137.802 2.35468 137.774 2.57778C137.717 2.8427 137.653 3.12854 137.581 3.43529C137.41 4.03486 137.174 4.89935 136.874 6.02876C136.617 6.99085 136.268 8.30153 135.825 9.96078C135.397 11.62 134.854 13.7115 134.197 16.2353C134.126 16.305 134.04 16.3538 133.94 16.3817C133.84 16.4096 133.748 16.4235 133.662 16.4235C133.562 16.4235 133.455 16.4166 133.341 16.4026C133.241 16.3747 133.141 16.3329 133.041 16.2771C132.955 16.2214 132.869 16.1447 132.784 16.0471C132.698 15.9634 132.634 15.8449 132.591 15.6915Z" fill="#14C393"/>
<path d="M147.85 11.6758C147.422 12.2893 146.936 12.8889 146.394 13.4745C145.851 14.0462 145.273 14.5621 144.659 15.0222C144.059 15.4684 143.438 15.8309 142.796 16.1098C142.167 16.3887 141.554 16.5281 140.954 16.5281C140.64 16.5281 140.297 16.4514 139.926 16.298C139.569 16.1586 139.241 15.9355 138.941 15.6288C138.641 15.322 138.398 14.9246 138.213 14.4366C138.041 13.9486 137.991 13.356 138.063 12.6588C138.12 12.0871 138.298 11.4876 138.598 10.8601C138.912 10.2187 139.29 9.63312 139.733 9.10327C140.19 8.57342 140.697 8.1342 141.254 7.78562C141.825 7.43704 142.396 7.26275 142.967 7.26275C143.51 7.26275 143.902 7.39521 144.145 7.66013C144.388 7.92505 144.495 8.25272 144.466 8.64314C144.423 9.07538 144.295 9.47277 144.081 9.83529C143.881 10.1978 143.638 10.5255 143.353 10.8183C143.067 11.1111 142.76 11.376 142.432 11.6131C142.118 11.8501 141.818 12.0662 141.532 12.2614C141.218 12.4706 140.918 12.6728 140.633 12.868C140.347 13.0492 140.097 13.2166 139.883 13.3699C139.897 13.7185 139.962 14.0113 140.076 14.2484C140.19 14.4854 140.333 14.6806 140.504 14.834C140.675 14.9734 140.868 15.078 141.082 15.1477C141.311 15.2035 141.539 15.2314 141.768 15.2314C142.253 15.2314 142.76 15.085 143.288 14.7922C143.817 14.4854 144.331 14.1229 144.83 13.7046C145.344 13.2723 145.815 12.8261 146.244 12.366C146.686 11.9059 147.051 11.5085 147.336 11.1739C147.436 11.0623 147.536 10.9996 147.636 10.9856C147.75 10.9577 147.836 10.9717 147.893 11.0275C147.964 11.0693 148 11.1529 148 11.2784C148 11.39 147.95 11.5224 147.85 11.6758ZM142.367 8.4549C142.196 8.4549 141.989 8.53856 141.746 8.70588C141.518 8.8732 141.289 9.11721 141.061 9.43791C140.833 9.74466 140.618 10.1281 140.418 10.5882C140.219 11.0344 140.069 11.5503 139.969 12.1359C140.14 12.0105 140.326 11.885 140.526 11.7595C140.725 11.62 140.925 11.4736 141.125 11.3203C141.739 10.8601 142.167 10.4558 142.41 10.1072C142.653 9.75861 142.789 9.45882 142.817 9.20784C142.846 8.94292 142.817 8.75468 142.731 8.64314C142.646 8.51765 142.524 8.4549 142.367 8.4549Z" fill="#14C393"/>
</svg>
