<svg width="104" height="122" fill="none" xmlns="http://www.w3.org/2000/svg"><path d="M1 19.3v-.5C3.7 12.3 18.7.8 24.7 1l.4.1 21.5 11c.6.3.7 1.2.1 1.7L7 43.8a1 1 0 0 1-1.6-.6L1 19.3ZM103 19.3v-.5C100.4 12.3 85.7.8 80 1l-.4.1-21 11a1 1 0 0 0-.2 1.7l38.8 30a1 1 0 0 0 1.5-.6l4.3-23.9Z" fill="#8AFFCE"/><path d="M103 63A51 51 0 1 1 1 63a51 51 0 0 1 102 0Z" fill="#4E3995"/><path fill-rule="evenodd" clip-rule="evenodd" d="M.4 18.6V18C3 11.4 18-.1 24.1 0l.4.1 21.4 11a52.2 52.2 0 0 1 12.4.1L79.9.1l.4-.1c6-.1 21.1 11.4 23.6 18v.6l-4.3 24a52.1 52.1 0 0 1-8.5 54.3l7.9 18a1 1 0 0 1-.5 1.4l-12.8 5.6c-.5.2-1.1 0-1.3-.5l-6-13.7a51.4 51.4 0 0 1-50.1 1.6L23 121.4a1 1 0 0 1-1.3.5l-12.8-5.6a1 1 0 0 1-.5-1.3L15 99.6a52 52 0 0 1-10.6-58l-4.1-23Zm5.5 19.3L2.4 18.5c.5-1.3 1.7-2.9 3.4-4.7A51 51 0 0 1 19 3.6c2-1 3.7-1.5 4.7-1.6L36 8.3C24.4 12.1 8.7 26 5.9 38Zm96-19.4-3.3 18.6C95.3 25.4 79.9 11.8 68.4 8.3L80.6 2c1 0 2.6.6 4.7 1.6a46.7 46.7 0 0 1 16.7 15Zm-.2 44.4a50 50 0 1 1-100 .2 50 50 0 0 1 100-.2Z" fill="#3E3075"/><path d="M52 107c24.9 0 45-19.7 45-44S76.9 19 52 19 7 38.7 7 63s20.1 44 45 44Z" fill="#3E3075"/><path fill-rule="evenodd" clip-rule="evenodd" d="M17.7 48.2a2 2 0 0 1 1 2.6A32.8 32.8 0 0 0 28.5 90c1 .6 1 2 .4 2.8-.7.9-2 1-2.8.3a37.2 37.2 0 0 1-11-43.9 2 2 0 0 1 2.6-1Zm12.7 45.6A2 2 0 0 1 33 93c3.4 2 7.2 3.3 11.2 4a2 2 0 0 1 1.7 2.3 2 2 0 0 1-2.3 1.7c-4.5-.8-8.7-2.3-12.5-4.4a2 2 0 0 1-.8-2.8Z" fill="#8358FF"/><path fill-rule="evenodd" clip-rule="evenodd" d="M52.1 30a2 2 0 0 1 2.2 2v29.3l26.8 18a2 2 0 0 1 .5 2.9c-.7.9-2 1-3 .4L50 63.3V32c0-1.1 1-2 2.1-2Z" fill="#8AFFCE"/><path d="M41 32a1 1 0 1 1-2 0 1 1 0 0 1 2 0ZM83 60a1 1 0 1 1-2 0 1 1 0 0 1 2 0ZM53 85a1 1 0 1 1-2 0 1 1 0 0 1 2 0ZM70 29a2 2 0 1 1-4 0 2 2 0 0 1 4 0ZM89 54a2 2 0 1 1-4 0 2 2 0 0 1 4 0ZM41 78a2 2 0 1 1-4 0 2 2 0 0 1 4 0ZM35 45a2 2 0 1 1-4 0 2 2 0 0 1 4 0Z" fill="#FCFDFE"/><path fill-rule="evenodd" clip-rule="evenodd" d="M97.5 84.9c.7.3 1 1 .6 1.6-8.1 17-26 28.8-47.1 28.8a1.2 1.2 0 1 1 0-2.5 49.3 49.3 0 0 0 44.9-27.3c.3-.7 1-1 1.6-.6Z" fill="#8AFFCE"/></svg>
