<svg width="960" height="584" fill="none" xmlns="http://www.w3.org/2000/svg"><g clip-path="url(#a)"><path d="M209.28 140.74c-33.38-13.24-58.55-43.4-66.24-79.59-.12-.59-1.01-.59-1.14 0-7.69 36.2-32.85 66.35-66.23 79.6-.48.18-.46.85.03 1 8.02 2.26 20.17 2.66 29.3.77.33-.07.65.2.53.52-.58 1.7-3.25 3.5-5.94 4.7-.48.21-.45.93.05 1.07 5.95 1.65 11.58 2.14 19.71 1.8.55-.02.78.71.32 1.02-28.76 18.8-46.51 27.7-80.76 35.57-.41.1-.57.6-.28.9 10.79 10.84 29.07 17.64 50.96 20.88.4.06.6.53.31.83-1.5 1.57-3.8 2.82-5.96 3.76-.41.18-.45.76-.05.97 4 2.14 7.32 2.8 12.74 3.17.5.03.69.67.3.98-29.4 22.78-47.83 31.95-82.65 40.06-.46.1-.58.71-.19.98 13.43 9.12 21.79 13.41 39.58 12.88.3-.01.55.22.58.52.47 5.17 4.8 6.13 12.1 7.36.49.09.61.74.19 1-28.89 18.1-46.42 23.3-77.72 25.73-.47.04-.68.6-.34.92 5.29 4.97 9.55 6.76 16.17 9.3.52.2.44.94-.12 1.01-6.85.9-11.63.64-18.72-.04-.58-.05-.82.72-.31 1 23.08 12.75 36.76 13 59.6 14.86.55.04.68.8.17 1.01-3.62 1.55-6.16 2.36-9.54 3.51-.5.17-.49.87.01 1.02 7.95 2.4 13.18 2.97 21.67 2.8.53 0 .75.68.33 1-28.07 21.36-44.48 28.38-72.21 37.99-.51.17-.5.9.03 1.01 11.99 2.82 29.83 3.9 49.35 2.48.58-.04.82.75.3 1.03-6.08 3.32-10.25 5.33-16.5 7.4-.52.17-.49.93.04 1.06 11.54 2.73 18.88 3.85 30.96 5.35.48.06.65.65.28.95-20.5 16.4-49.82 25.37-58.67 27.81-.57.16-.44 1.42.15 1.5 10.63 1.4 50.63 5.47 81.54-2.56.67-.18.77.14.12.4-6.25 2.44-10.9 5.05-10.1 5.32 1.2.4 5.66.64 8.5.82.53.03.7.71.27 1a184.75 184.75 0 0 1-24.96 13.39c-.1.04-.2.12-.24.23-.13.28-.32.83.12.9 40.5 3.69 63.63-4.83 97.89-24.54.41-.24.9.14.77.6-3.93 13.4-14.63 24.09-25.65 35.1l-.17.17c-.39.4 0 1.05.53.9 11.05-3.19 21.32-7.13 31.89-14.61a.56.56 0 0 1 .86.34v.13c-.84 6.03 2.06 12.46 6.19 15.32l.12.1.02.02c.29.29.8.15.91-.27 2.04-7.85 5.14-10.51 13-12.34.16-.04.33 0 .46.1 14.87 12.13 33.88 15.45 55 15.57.45 0 .7-.52.42-.88-5.89-7.5-9.34-12.07-12.05-20.04a.54.54 0 0 1 .57-.7c34.26 3.1 56.77 1.83 77.9-14.59.35-.27.25-.84-.19-.95-6.2-1.64-38.28-10.67-60.23-28.24-.37-.3-.2-.89.28-.95 12.08-1.5 19.42-2.62 30.95-5.35.54-.13.57-.89.05-1.06-6.25-2.07-10.42-4.08-16.5-7.4-.52-.28-.29-1.07.3-1.03 19.52 1.42 37.36.34 49.35-2.47.52-.13.54-.85.03-1.02-27.73-9.61-44.14-16.63-72.22-38-.41-.31-.19-1 .34-.98 8.49.16 13.72-.41 21.67-2.81.5-.15.5-.85.01-1.02-3.38-1.15-5.92-1.96-9.54-3.5-.51-.23-.38-.98.17-1.02 22.84-1.86 36.52-2.11 59.6-14.86.51-.28.27-1.05-.31-1-7.1.68-11.87.94-18.73.04-.55-.07-.63-.82-.11-1.02 6.62-2.53 10.88-4.32 16.17-9.29.34-.31.13-.88-.34-.92-31.3-2.43-48.83-7.64-77.72-25.73-.42-.26-.3-.91.19-1 7.3-1.23 11.63-2.19 12.1-7.36.03-.3.28-.53.58-.52 17.79.53 26.15-3.76 39.58-12.88.39-.27.27-.88-.2-.98-34.81-8.11-53.24-17.28-82.63-40.06-.4-.3-.21-.95.29-.98 5.42-.37 8.74-1.03 12.74-3.17.4-.21.36-.8-.06-.97-2.15-.94-4.46-2.19-5.95-3.76-.29-.3-.1-.77.31-.83 21.88-3.24 40.17-10.04 50.95-20.88.3-.3.14-.8-.27-.9-34.25-7.88-52-16.77-80.76-35.57-.46-.3-.23-1.04.32-1.01 8.13.33 13.76-.16 19.7-1.81.51-.14.54-.86.06-1.07-2.7-1.2-5.36-3-5.95-4.7-.11-.32.2-.59.54-.52 9.13 1.89 21.28 1.49 29.3-.78.5-.14.5-.8.03-1Z" fill="#B0EBDB"/><path fill-rule="evenodd" clip-rule="evenodd" d="M256.05 299.86c1.42.48 2.85.94 4.3 1.36a146 146 0 0 0 21.76 4.36c4.29.51 8.83.89 13.73 1.15 1.52.08 2.15 2.18.68 2.98l-14.14 7.66h17.4c1.65 0 2.19 2.21.71 2.97-19.76 10.18-36.84 14.28-57.27 15.24l7.9 1.54c1.46.28 1.78 2.3.36 2.96a46.17 46.17 0 0 1-22.5 3.99 217.72 217.72 0 0 0 19.76 14.37c3.62 2.27 7.11 4.3 10.57 6.18 12.07 6.41 24.7 11 40.87 15.5 1.5.42 1.6 2.68-.07 3.06-17.64 4-31.5 4.77-48.72 3.6l1.87 1c3.47 1.52 6.88 2.43 10.6 3.42 1.35.36 2.75.74 4.2 1.15a1.57 1.57 0 0 1 .1 2.99c-11.18 3.97-21.54 5.13-31.4 5.3 4.29 3.78 8.35 6.9 12.34 9.57 10.34 5.97 21.2 10.47 29.88 13.59 4.1 1.3 8.46 2.58 13.2 3.97l3.8 1.12a1.58 1.58 0 0 1 .54 2.74c-12 9.69-22.98 12.6-40.23 15.4-8.59 1.41-24.9 3.19-39.38-1.9 2.71 7.98 6.16 12.54 12.05 20.05.27.34.05.83-.37.87l-.11-.01c-15.16-3.27-28.08-8.68-33.49-21.61 6.83-2.4 7.36-6.11 4.88-15.54l8.46-1.34c9.11-1.45 13.18-12.26 7.44-19.5-16.52-20.88-27.33-37.45-39.73-65.66h14.79c4.53 0 7.06-5.26 4.44-8.96-11.3-15.94-16.37-29.5-17-53.13-.07-2.2 1.24-4.36 2.56-6.5 1.25-2.07 2.51-4.13 2.57-6.24.02-1-.26-2.02-.91-2.95l-4.28-6.09h3.24c7.49 0 10.57-9.94 4.84-14.77-11.2-9.44-19.18-19.27-28.12-35 6.5-.95 11.38-6.37 7.11-15.05 5.74 3.67 9.67 5.37 13.31 4.83 4.22-.62 4.4-6.19 1.52-9.33l-31.68-34.56c13.22-10.8 5.3-30.59-14.08-70.54l7.47-23.95c.17-.54.96-.5 1.07.06a112.1 112.1 0 0 0 10.85 30.1l1.25-.64c11.28 22.1 29.15 38.02 54.18 50.13 1.18.58 1.26 2.43-.18 2.9-6.8 2.21-18.44 3.08-27.8 1.16a9.6 9.6 0 0 0 4.3 3.43c.59.25.93.8.97 1.36.04.58-.24 1.2-.88 1.5-2.58 1.22-6 1.86-9.5 2.1-2.83.18-5.78.1-8.5-.19 27.76 18.46 45.8 26.22 78.54 34.4 1.03.26 1.64 1.56.84 2.52-3.8 4.5-11.47 9.33-20.62 13.24-8.77 3.76-19.05 6.75-28.87 7.86l4.53 3.24c.82.58.92 1.82.09 2.5-3.75 3.03-8.01 3.46-11.4 3.28 20.35 18.93 46.72 30.91 80.36 38.48 1.28.28 1.7 1.96.62 2.79-12.26 9.44-24.9 13.39-39.29 13.25a6.66 6.66 0 0 1-4.48 5.43l-8.24 2.75c13.77 8.4 24.9 14.16 36.39 18.06Z" fill="#28244B"/><path d="M129.96 89.67c-11.28 22.1-29.15 38.02-54.18 50.13-1.18.58-1.26 2.43.17 2.9 6.8 2.21 18.45 3.08 27.8 1.16a9.6 9.6 0 0 1-4.3 3.43c-.58.25-.92.8-.96 1.36-.05.58.24 1.2.88 1.5 2.57 1.22 5.99 1.86 9.5 2.1 2.83.18 5.78.1 8.5-.19-27.76 18.46-45.81 26.22-78.54 34.4-1.03.26-1.65 1.56-.84 2.52 3.8 4.5 11.47 9.33 20.61 13.24 8.78 3.76 19.05 6.75 28.88 7.86l-4.54 3.24a1.57 1.57 0 0 0-.08 2.5c3.75 3.03 8 3.46 11.4 3.28C73.91 238.03 47.54 250 13.9 257.58a1.58 1.58 0 0 0-.62 2.79c12.26 9.44 24.9 13.39 39.28 13.25a6.66 6.66 0 0 0 4.49 5.43l8.23 2.75c-13.76 8.4-24.88 14.16-36.38 18.06-11.75 3.98-23.94 6.02-39.8 6.87-1.52.08-2.14 2.18-.67 2.98l14.14 7.66h-17.4c-1.65 0-2.19 2.21-.72 2.97 19.77 10.18 36.85 14.28 57.27 15.24l-7.9 1.54c-1.45.28-1.78 2.3-.35 2.96a46.17 46.17 0 0 0 22.5 3.99C32 363.4 14.23 371.92-15.24 380.1c-1.51.43-1.6 2.69.06 3.07 17.73 4.02 31.65 4.78 48.99 3.6-4.23 2.15-8.25 3.22-12.73 4.42-1.36.36-2.75.74-4.21 1.15a1.57 1.57 0 0 0-.1 2.99c11.18 3.97 21.54 5.13 31.41 5.3-18.15 15.93-32.86 20.23-55.06 26.72l-3.7 1.09c-1.69.49-1.42 2.89.26 3.08 29.61 3.35 52 2.96 79.34-2.69l-6.15 2.72c-1.49.66-1.12 2.87.5 3.02l6.16.56-22.82 12.75c-1.44.8-.83 2.87.69 2.96 18.78 1.06 33.67.3 48.6-3.41a134.17 134.17 0 0 0 15.2-4.8l-13.68 57.4c25.45 13.76 55.23 13.76 80.14 0l-10.35-47.51c-3.82 1.9-5.8 4.86-7.24 10.43a.55.55 0 0 1-.91.26l-.02-.02a.85.85 0 0 0-.12-.1c-4.13-2.86-7.03-9.3-6.2-15.32a.37.37 0 0 0 0-.13.56.56 0 0 0-.85-.34c-10.56 7.48-20.84 11.43-31.9 14.61a.52.52 0 0 1-.53-.15c4.13-3.23 8.96-7.49 13.4-12.53 5.69-6.46 10.8-14.27 12.92-22.93.34-1.43-1.2-2.36-2.31-1.73-18.71 10.6-33.4 17.16-48.06 20.81-14.17 3.53-28.36 4.36-46.16 3.45l22.7-12.69c1.36-.76.93-2.81-.62-2.95l-5.83-.53 8.76-3.88c.9-.4 1.07-1.34.85-1.97a1.58 1.58 0 0 0-1.85-1.06c-28.47 6.37-50.98 7.15-80.78 3.96l1.21-.35c22.6-6.6 37.84-11.06 56.83-28.06 1.06-.95.43-2.75-1.04-2.76-9.65-.08-19.67-1.05-30.44-4.64l2.3-.61.04-.02h.04c5.3-1.42 10.25-2.74 15.58-5.9 1.5-.9.63-3.01-.93-2.9-17.66 1.37-31.45.85-48.8-2.9 29.04-8.25 46.91-17.1 71.21-36.92 1.22-1 .4-2.98-1.16-2.83-6.5.64-13.93.11-21.47-2.97l10.43-2.04a1.58 1.58 0 0 0 1.27-1.72 1.59 1.59 0 0 0-1.54-1.47c-21.4-.55-38.72-4.2-58.7-14.16H4.66c1.64 0 2.2-2.19.75-2.97l-14.35-7.77c15.1-.91 27-2.97 38.52-6.88 11.98-4.06 23.5-10.1 37.77-18.84 1.11-.68 1-2.41-.32-2.85l-9.3-3.11a4.55 4.55 0 0 1-3.11-4.32c0-.7-.57-1.24-1.26-1.23-13.9.28-26.06-3.3-37.88-12.12 33.94-7.76 60.68-20.11 81.32-39.77 1.14-1.09.17-2.88-1.27-2.73-3.22.34-7.23.26-10.76-2.27l5.05-3.61c1.2-.87.67-2.74-.77-2.88-9.98-.95-20.59-3.97-29.6-7.84-8.57-3.66-15.57-8.03-19.25-11.99 33.07-8.32 51.34-16.35 80-35.58.76-.51.8-1.39.58-1.96a1.62 1.62 0 0 0-1.74-1.03c-3.08.47-6.64.64-10.02.42a28.14 28.14 0 0 1-7.64-1.43c2.1-1.13 3.88-2.8 4.88-5.04.6-1.3-.66-2.39-1.78-2.12-8.59 2.02-19.64 1.43-26.52-.46 24.7-12.19 42.54-28.25 53.89-50.46l-1.88-.96Z" fill="#28244B"/><path fill-rule="evenodd" clip-rule="evenodd" d="M162.82 101.73c-.6.42-.73 1.24-.31 1.83 10.91 15.43 25.67 27.39 44.87 36.96-6.92 1.97-17.55 3.19-25.8 1.3a1.83 1.83 0 0 0-1.78.56c-.44.49-.61 1.24-.28 1.94a9.63 9.63 0 0 0 4.4 4.4c-4.56 1.71-10.04 2.08-16.38 1.87-1.9-.06-2.58 2.39-1.08 3.4 28.99 19.48 45.83 25.65 78.84 33.92-3.83 3.93-11.25 8.73-19.83 12.62-9.3 4.21-19.67 7.24-27.89 7.03a1.88 1.88 0 0 0-1.82 1.27c-.23.66-.11 1.58.67 2.14l4.48 3.2a13.27 13.27 0 0 1-3.87 2.41 22.7 22.7 0 0 1-6.2 1.31 1.85 1.85 0 0 0-1.1 3.18c20.62 19.74 46.39 30.21 80.19 37.92-11.7 8.7-23.69 13.05-37.33 12.78-.8-.02-1.47.63-1.47 1.45 0 1.24-.8 2.34-1.97 2.73l-10.27 3.43c-1.53.51-1.66 2.54-.37 3.33 14.27 8.75 25.82 14.8 37.82 18.87 11.32 3.83 22.99 5.9 37.67 6.83l-13.53 7.33c-1.69.91-1.04 3.47.87 3.47h16.15c-19.26 9.56-35.43 13.48-56.03 14.14-1.16.03-1.73.99-1.8 1.73-.06.75.35 1.8 1.52 2l8 1.42c-6.28 2.61-13.45 3.82-20.11 2.77-.97-.15-1.7.45-2 1.09-.3.64-.28 1.6.5 2.24 23.89 19.44 41.64 28.28 70 36.42-16.88 3.63-30.45 4.5-47.73 3.2a1.82 1.82 0 0 0-1.06 3.38c5.01 2.93 9.74 4.06 14.64 5.24l2.5.6c-10.47 3.55-20.2 5.22-29.52 5.37-1.7.02-2.43 2.12-1.2 3.23 17.91 16 32.54 20.15 52.97 25.94l8.06 2.31c-7.78 7.34-19.64 11.94-33.57 13.8-14.5 1.94-31.08.87-47.28-3.06a1.32 1.32 0 1 0-.62 2.56c16.47 4 33.4 5.1 48.25 3.11 14.84-1.98 27.76-7.04 36.07-15.5 1.02-1.04.46-2.68-.8-3.05-3.3-.97-6.43-1.86-9.42-2.71-19.82-5.63-33.65-9.56-50.4-24.05 9.75-.38 19.92-2.38 30.84-6.33 1.66-.6 1.61-3-.13-3.48-1.9-.54-3.7-.97-5.41-1.38-3.55-.85-6.79-1.63-10.12-3.08 16.7.96 30.34-.27 47.58-4.21 1.94-.45 1.83-3.09.07-3.58-29-8.06-46.65-16.43-70.05-35.15 7.38.58 15.03-1.23 21.46-4.38 1.65-.8 1.2-3.14-.5-3.44l-4.04-.71c18.97-1.34 34.7-5.88 53.5-15.6 1.71-.89 1.09-3.48-.84-3.48h-16.36l13.23-7.16c1.71-.93.98-3.38-.8-3.47-15.83-.85-28-2.88-39.72-6.86-11.33-3.84-22.3-9.51-35.84-17.74l8.65-2.89a5.52 5.52 0 0 0 3.64-4.03c14.41.04 27.05-4.92 39.26-14.37a1.84 1.84 0 0 0-.73-3.26c-33.74-7.55-59.13-17.64-79.37-36.48 1.97-.27 3.67-.66 5.22-1.28 2-.8 3.7-1.95 5.43-3.6.85-.81.72-2.17-.2-2.83l-3.4-2.42c8.34-.33 18.09-3.34 26.72-7.25 9.42-4.28 17.8-9.76 21.65-14.3.96-1.15.2-2.66-.98-2.95-32.8-8.17-49.4-14.05-77.08-32.4 6.15.03 11.76-.61 16.53-2.87 1.6-.76 1.21-2.84-.13-3.38a9.75 9.75 0 0 1-3.58-2.25c9.32 1.58 20.58-.11 27.18-2.36 1.64-.56 1.57-2.7.19-3.38-19.77-9.57-34.73-21.52-45.69-37a1.31 1.31 0 0 0-1.83-.31Z" fill="#B0EBDB"/><path d="m74.92 264.6 22.5-22.34a.54.54 0 0 1 .88.2l10.2 30.06c.06.2 0 .41-.14.56l-22.5 22.34a.54.54 0 0 1-.89-.21L74.8 265.16a.54.54 0 0 1 .13-.56Z" fill="#8358FF"/><path fill-rule="evenodd" clip-rule="evenodd" d="m89.2 296.33-3.56.3a1.6 1.6 0 0 1-1.66-1.08l-10.2-30.05a1.6 1.6 0 0 1 .4-1.65l22.49-22.34c.24-.24.52-.38.82-.44l4.3-.42c.98-.05 1.87.55 2.18 1.47l9.61 28.36c.27.78.07 1.64-.5 2.22l-22.6 23c-.35.35-.8.57-1.28.63Zm-13.21-30.9a.53.53 0 0 1 .13-.54l20.85-20.71a.53.53 0 0 1 .87.2l9.45 27.86c.06.2.01.4-.13.55L86.3 293.5a.53.53 0 0 1-.86-.2l-9.45-27.87Z" fill="#28244B"/><path d="m131.56 397.27 8.75-18.82a.65.65 0 0 1 1.09-.15l13.32 15.91c.16.2.2.47.09.7l-8.75 18.83a.65.65 0 0 1-1.09.14l-13.32-15.9a.66.66 0 0 1-.1-.7Z" fill="#8358FF"/><path fill-rule="evenodd" clip-rule="evenodd" d="M142.14 376.36c.82-.23 1.7.04 2.25.69l12.97 15.36c.54.63.66 1.52.33 2.28l-8.4 18.93c-.25.56-.72.99-1.3 1.18l-2.4.37a1.69 1.69 0 0 1-1.43-.6l-13.32-15.92a1.71 1.71 0 0 1-.24-1.82l8.75-18.83c.58-1.25 1.4-1.25 2.79-1.64Zm-9.3 21.39a.53.53 0 0 1-.08-.56l7.89-16.98a.53.53 0 0 1 .88-.11l12 14.34c.13.16.16.38.08.56l-7.89 16.98a.53.53 0 0 1-.88.11l-12-14.34Z" fill="#28244B"/><path d="m177.04 300.8 4.9-21.97a.65.65 0 0 1 1.03-.37l17.8 13.74c.2.16.29.42.23.66l-4.89 21.98a.65.65 0 0 1-1.03.37l-17.8-13.74a.66.66 0 0 1-.24-.66Z" fill="#8358FF"/><path fill-rule="evenodd" clip-rule="evenodd" d="M183.48 280.18a.53.53 0 0 0-.84.3l-4.52 20.3 16.45 12.7c.3.24.75.08.83-.3l4.52-20.3-16.44-12.7Zm-2.57-1.58a1.7 1.7 0 0 1 2.7-.98l17.8 13.75c.52.4.76 1.08.62 1.72l-4.9 21.98a1.7 1.7 0 0 1-2.7.98l-17.8-13.75a1.71 1.71 0 0 1-.62-1.72l4.9-21.98Z" fill="#28244B"/><path d="M184.16 121.54a9.76 9.76 0 1 1-19.5.02 9.76 9.76 0 0 1 19.5-.02Z" fill="#FFCB47"/><path fill-rule="evenodd" clip-rule="evenodd" d="M174.42 129.2a7.65 7.65 0 1 0-.02-15.3 7.65 7.65 0 0 0 .02 15.3Zm0 2.1a9.76 9.76 0 1 0-.02-19.5 9.76 9.76 0 0 0 .02 19.5Z" fill="#28244B"/><path fill-rule="evenodd" clip-rule="evenodd" d="M172.61 116.56c.3 0 .52.24.52.53v.56h.84v-.54a.53.53 0 1 1 1.05 0v.56h.1c.92.02 1.74.6 2.07 1.45l.05.12c.28.74.2 1.57-.22 2.23a2.4 2.4 0 0 1-.65 4.19.65.65 0 0 1-.22.03l-1.26-.01v.45a.53.53 0 0 1-1.05 0v-.47l-.84-.01v.46a.53.53 0 1 1-1.06-.01l.01-.47h-.55a.53.53 0 0 1 .01-1.06h.56l.08-5.88-.55-.01a.53.53 0 1 1 .01-1.06l.56.01v-.55c.01-.3.25-.53.54-.52Zm.5 2.14-.04 2.38 2.9.04.06-.07c.32-.4.4-.95.22-1.43l-.04-.12a1.2 1.2 0 0 0-1.1-.77l-2-.03Zm3.02 3.47-3.07-.04-.04 2.47 3.07.04c1.1-.44 1.12-2 .04-2.47Z" fill="#28244B"/><path d="M128.94 111.23a9.21 9.21 0 1 1-18.43.02 9.21 9.21 0 0 1 18.43-.02Z" fill="#14C393"/><path fill-rule="evenodd" clip-rule="evenodd" d="M119.73 118.35a7.1 7.1 0 1 0-.01-14.22 7.1 7.1 0 0 0 .01 14.22Zm0 2.1a9.21 9.21 0 1 0-.02-18.42 9.21 9.21 0 0 0 .02 18.42Z" fill="#28244B"/><path d="M200.4 368.4a9.21 9.21 0 1 1-18.42.01 9.21 9.21 0 0 1 18.43-.01Z" fill="#14C393"/><path fill-rule="evenodd" clip-rule="evenodd" d="M191.2 375.51a7.1 7.1 0 1 0-.01-14.21 7.1 7.1 0 0 0 .01 14.21Zm0 2.11a9.21 9.21 0 1 0-.02-18.43 9.21 9.21 0 0 0 .02 18.43Z" fill="#28244B"/><path d="M45.55 298.95a9.21 9.21 0 1 1-18.43.02 9.21 9.21 0 0 1 18.43-.02Z" fill="#14C393"/><path fill-rule="evenodd" clip-rule="evenodd" d="M36.34 306.07a7.1 7.1 0 1 0-.01-14.22 7.1 7.1 0 0 0 .01 14.22Zm0 2.1a9.21 9.21 0 1 0-.02-18.42 9.21 9.21 0 0 0 .02 18.43Z" fill="#28244B"/><path d="M216.66 175.25a9.21 9.21 0 1 1-18.43.02 9.21 9.21 0 0 1 18.43-.02Z" fill="#14C393"/><path fill-rule="evenodd" clip-rule="evenodd" d="M207.45 182.36a7.1 7.1 0 1 0-.01-14.21 7.1 7.1 0 0 0 .01 14.21Zm0 2.11a9.21 9.21 0 1 0-.02-18.43 9.21 9.21 0 0 0 .02 18.43Z" fill="#28244B"/><path d="M90.56 386.06a17.1 17.1 0 0 1-17.1 17.13 17.1 17.1 0 0 1-17.09-17.13 17.1 17.1 0 0 1 17.1-17.12 17.1 17.1 0 0 1 17.09 17.12Z" fill="#FFCB47"/><path fill-rule="evenodd" clip-rule="evenodd" d="m74.25 403.17-.78.02a17.1 17.1 0 0 1-17.1-17.13 17.1 17.1 0 0 1 17.88-17.1c.26-.02.52-.02.78-.02a17.1 17.1 0 0 1 17.09 17.12 17.1 17.1 0 0 1-17.87 17.11Zm14.2-17.1a15 15 0 0 1-14.98 15.01 15 15 0 0 1-15-15.02 15 15 0 0 1 15-15.01 15 15 0 0 1 14.98 15.01Z" fill="#28244B"/><path fill-rule="evenodd" clip-rule="evenodd" d="M69.84 376.58a.8.8 0 0 1 .78.8l-.02 1.38 2.23.04v-1.37a.79.79 0 1 1 1.57 0v1.39h.47a4.23 4.23 0 0 1 3.89 2.73l.09.24a4.77 4.77 0 0 1-.55 4.44 4.53 4.53 0 0 1-1.02 8.05c-.11.04-.23.06-.35.06l-2.8-.04v1.18a.79.79 0 1 1-1.57 0v-1.2l-2.19-.04-.01 1.2a.79.79 0 1 1-1.58-.02l.01-1.2-1.37-.02a.79.79 0 0 1 .03-1.58l1.37.02.18-12.32-1.37-.02a.8.8 0 0 1 .02-1.58l1.37.02.02-1.38a.8.8 0 0 1 .8-.78Zm.74 3.76-.08 5.28 6.2.1.2-.25c.7-.88.88-2.06.48-3.11l-.1-.25a2.65 2.65 0 0 0-2.43-1.7l-1.25-.02-3.02-.05Zm6.35 6.96-6.45-.1-.08 5.46 6.45.1a2.94 2.94 0 0 0 .08-5.46Z" fill="#28244B"/><path d="M214.01 436.76a17.1 17.1 0 0 1-17.09 17.13 17.1 17.1 0 0 1-17.09-17.13 17.1 17.1 0 0 1 17.1-17.12A17.1 17.1 0 0 1 214 436.76Z" fill="#FFCB47"/><path fill-rule="evenodd" clip-rule="evenodd" d="m197.7 453.87-.78.02a17.1 17.1 0 0 1-17.09-17.13 17.1 17.1 0 0 1 17.87-17.1c.26-.02.52-.02.78-.02a17.1 17.1 0 0 1 17.1 17.12 17.1 17.1 0 0 1-17.88 17.11Zm14.2-17.1a15 15 0 0 1-14.98 15.01 15 15 0 0 1-14.98-15.02 15 15 0 0 1 14.98-15.01 15 15 0 0 1 14.99 15.01Z" fill="#28244B"/><path fill-rule="evenodd" clip-rule="evenodd" d="M193.3 427.29c.44 0 .78.36.78.8l-.02 1.37 2.22.04v-1.37a.8.8 0 1 1 1.58 0v1.39h.47a4.22 4.22 0 0 1 3.88 2.73l.1.24a4.77 4.77 0 0 1-.55 4.44 4.53 4.53 0 0 1-1.02 8.05c-.12.04-.24.06-.36.06l-2.79-.04v1.18a.79.79 0 1 1-1.57 0v-1.2l-2.2-.04v1.2a.79.79 0 1 1-1.59-.02l.02-1.2-1.37-.02a.8.8 0 0 1 .02-1.58l1.37.02.19-12.32-1.38-.02a.8.8 0 0 1 .03-1.58l1.37.02.02-1.38c0-.43.36-.78.8-.77Zm.73 3.75-.07 5.28 6.2.1.2-.25c.7-.88.87-2.06.47-3.11l-.1-.25a2.65 2.65 0 0 0-2.43-1.7l-1.24-.02-3.03-.04Zm6.36 6.96-6.46-.1-.08 5.46 6.46.1a2.94 2.94 0 0 0 .08-5.46Z" fill="#28244B"/><path d="M182 232.22c0 9.59-7.76 17.36-17.33 17.36a17.34 17.34 0 0 1-17.33-17.36c0-9.59 7.76-17.36 17.33-17.36 9.57 0 17.33 7.77 17.33 17.36Z" fill="#FFCB47"/><path fill-rule="evenodd" clip-rule="evenodd" d="M164.67 247.47c8.4 0 15.22-6.83 15.22-15.25s-6.81-15.25-15.22-15.25c-8.4 0-15.22 6.83-15.22 15.25s6.81 15.25 15.22 15.25Zm0 2.11c9.57 0 17.33-7.77 17.33-17.36s-7.76-17.36-17.33-17.36a17.34 17.34 0 0 0-17.33 17.36c0 9.59 7.76 17.36 17.33 17.36Z" fill="#28244B"/><path fill-rule="evenodd" clip-rule="evenodd" d="M160.81 221.42a.8.8 0 0 1 .78.8l-.02 1.38 2.22.03v-1.36a.8.8 0 1 1 1.58 0v1.38l.47.01a4.23 4.23 0 0 1 3.88 2.72l.1.25a4.78 4.78 0 0 1-.55 4.44 4.53 4.53 0 0 1-1.02 8.05c-.12.04-.24.06-.36.06l-2.78-.05v1.19a.79.79 0 1 1-1.58 0v-1.2l-2.19-.04-.02 1.2a.79.79 0 1 1-1.58-.03l.02-1.2-1.37-.02a.79.79 0 0 1 .02-1.58l1.38.02.18-12.31-1.38-.02a.79.79 0 0 1 .03-1.58l1.37.01.02-1.37c0-.44.37-.79.8-.78Zm.73 3.76-.07 5.28 6.2.09.2-.24c.7-.88.87-2.07.47-3.12l-.1-.24a2.65 2.65 0 0 0-2.43-1.7l-4.27-.07Zm6.36 6.95-6.46-.1-.08 5.47 6.46.1a2.94 2.94 0 0 0 .08-5.47Z" fill="#28244B"/><path d="M125.68 197.5a11.92 11.92 0 1 1-11.91-11.94c6.58 0 11.91 5.34 11.91 11.94Z" fill="#FFCB47"/><path fill-rule="evenodd" clip-rule="evenodd" d="m114.31 209.42-.54.01a11.92 11.92 0 1 1 .54-23.86h.55a11.92 11.92 0 1 1-.54 23.86Zm9.27-11.92a9.82 9.82 0 1 1-19.64.02 9.82 9.82 0 0 1 19.64-.02Z" fill="#28244B"/><path fill-rule="evenodd" clip-rule="evenodd" d="M111.5 190.84c.3 0 .53.25.52.54l-.01.95 1.55.02v-.94a.53.53 0 1 1 1.05 0v.96h.34c1.17.02 2.22.76 2.64 1.86l.07.17a3.25 3.25 0 0 1-.38 3.04 3.09 3.09 0 0 1-.69 5.5.71.71 0 0 1-.24.03l-1.92-.03v.83a.53.53 0 1 1-1.05 0v-.84l-1.53-.03-.01.84c0 .29-.24.52-.53.52a.53.53 0 0 1-.52-.54l.01-.83-.95-.02a.53.53 0 0 1 .01-1.05l.95.01.13-8.46-.95-.01a.53.53 0 0 1 .01-1.06l.95.02.02-.96c0-.3.24-.52.53-.52Zm.5 2.55-.06 3.64 4.27.06.14-.17c.48-.6.6-1.42.33-2.15l-.07-.16a1.83 1.83 0 0 0-1.68-1.18l-2.94-.04Zm4.36 4.76-4.44-.07-.05 3.77 4.43.06a2.03 2.03 0 0 0 .06-3.76Z" fill="#28244B"/><path d="M158.42 326.62a27.1 27.1 0 0 1-27.07 27.13 27.1 27.1 0 0 1-27.08-27.13 27.1 27.1 0 0 1 27.08-27.13 27.1 27.1 0 0 1 27.07 27.13Z" fill="#FFCB47"/><path fill-rule="evenodd" clip-rule="evenodd" d="M161.42 325.53c0 12.3-8.18 22.7-19.38 26.02a27.1 27.1 0 0 1-37.76-24.93c0-12.3 8.17-22.7 19.38-26.02a27.1 27.1 0 0 1 37.76 24.93Zm-5.1 1.09a25 25 0 0 1-24.97 25.02 25 25 0 0 1-24.97-25.02 25 25 0 0 1 24.97-25.02 25 25 0 0 1 24.97 25.02Z" fill="#28244B"/><path fill-rule="evenodd" clip-rule="evenodd" d="M124.88 309.47c.58 0 1.04.49 1.04 1.07l-.05 2.8 4.67.07v-2.79a1.05 1.05 0 1 1 2.1 0v2.82l1.19.02a7.17 7.17 0 0 1 6.58 4.6l.17.45a8.14 8.14 0 0 1-1.16 7.88c5.46 3.15 4.93 11.68-1.41 13.88-.17.06-.34.09-.52.09l-5.31-.08v2.46a1.05 1.05 0 1 1-2.11 0v-2.5l-4.59-.06-.04 2.48a1.05 1.05 0 1 1-2.1-.03l.03-2.48-2.79-.04a1.05 1.05 0 0 1 .03-2.11l2.8.04.33-22.62-2.8-.05a1.05 1.05 0 0 1 .04-2.1l2.79.04.04-2.8c.01-.58.49-1.05 1.07-1.04Zm.96 5.98-.15 10.1 11.58.17.44-.57a6.03 6.03 0 0 0 .9-5.89l-.16-.44a5.06 5.06 0 0 0-4.66-3.25l-7.95-.12Zm11.73 12.38-11.9-.18-.16 10.42 11.9.18c4.81-1.77 4.88-8.56.16-10.42Z" fill="#28244B"/><path d="m257.18 517.16-50.46 23.22-54.35-20.35c-.42-.16-.7-.57-.7-1.02v-55.67l-1.34-.33a1.09 1.09 0 0 1-.82-1.05v-15.62l57.03-10.1c.12-.02.24-.02.35 0l53.08 7.93v15.18c0 .48-.32.9-.77 1.04l-1.4.42v55.36c0 .43-.24.81-.62.99Z" fill="#14C393"/><path d="m22.09 507.34 43.4 17.85 46.76-15.64c.44-.15.74-.57.74-1.03V465.8l1.01-.22c.5-.1.85-.55.85-1.06V452.7l-49.2-7.78c-.1-.02-.2-.02-.3 0l-45.8 6.1v11.5c0 .49.33.92.8 1.05l1.07.28v42.49c0 .44.26.84.67 1Z" fill="#8358FF"/><path fill-rule="evenodd" clip-rule="evenodd" d="M207.05 435a2.13 2.13 0 0 0-.69.01l-57.04 10.1c-.5.09-.86.53-.86 1.04v15.62c0 .98.67 1.84 1.63 2.08l.52.13v54.84c0 .9.56 1.69 1.4 2l54.34 20.35c.26.1.55.1.8-.03l50.55-23.64c.76-.35 1.05-.74 1.05-1.58v-54.3c1.05-.58 2.27-1.03 2.27-2.46v-16.1L207.05 435Zm-54.33 83.82v-54.35l10.33 2.38c-.04.1-.06.22-.06.35v55.49l-10.25-3.84a.03.03 0 0 1-.02-.03Zm12.38 4.66v-56.16l17.89 4.11v58.74l-17.9-6.7Zm20 7.48v-59.05l20.56 4.74v62.02l-20.57-7.7Zm69.4-86.73-47.81 11.69-51.34-9.74 51.38-9.1 47.78 7.15Zm-103.94 17.54v-14.35l15.59 2.96v15.02l-14.24-3.28-1.33-.32a.03.03 0 0 1-.02-.03Zm17.66 4.1.03-15.1 18.42 3.5v15.84l-18.45-4.24Zm20.55 4.73v-15.93l16.9 3.2v16.61l-16.9-3.88ZM65.82 443.88c-.2-.03-.41-.04-.62-.01l-45.83 6.12a1 1 0 0 0-.87.99v11.54c0 .97.65 1.81 1.58 2.06l.28.08v41.68c0 .87.53 1.65 1.33 1.98l43.4 17.84c.24.1.5.11.74.03l46.75-15.64c.88-.3 1.46-1.11 1.46-2.03v-41.87l.18-.04a2.14 2.14 0 0 0 1.69-2.09V451.8l-50.1-7.92Zm-1.38 32.5-16.15-4.3v44.9l16.15 6.64v-47.25ZM46.2 516.1v-44.59l-15.78-4.19v42.3l15.78 6.48Zm-17.89-7.35v-41.99l-5.83-1.55v41.12c0 .01 0 .02.02.03l5.81 2.39Zm-6.61-45.93-1.06-.28a.03.03 0 0 1-.02-.03v-10.18l9.87 2.15v10.68l-8.79-2.34Zm10.89 2.9v-10.78l16.24 3.55v11.54l-16.24-4.31Zm18.34 4.87v-11.64l13.52 2.95v12.28l-13.52-3.59Zm14.6-10.6-39.88-8.72 39.84-5.32 42.85 6.78-42.8 7.25Z" fill="#28244B"/><path fill-rule="evenodd" clip-rule="evenodd" d="M114.85 455.93c-.6 0-1.08.49-1.08 1.09v8.78l-1 .22-42.54 8.74a1.09 1.09 0 0 0 .44 2.12l42.55-8.74 1-.22c1-.22 1.71-1.1 1.71-2.12v-8.78c0-.6-.48-1.09-1.08-1.09ZM113 471.8c-.6 0-1.08.49-1.08 1.08v35.6l-43.44 14.51a1.08 1.08 0 0 0 .69 2.06l43.43-14.51a2.17 2.17 0 0 0 1.48-2.06v-35.6c0-.6-.48-1.08-1.08-1.08Z" fill="#8358FF"/><path fill-rule="evenodd" clip-rule="evenodd" d="M256.11 461.89c.16.56-.16 1.14-.72 1.3l-46.03 13.18a1.05 1.05 0 1 1-.58-2.03l46.03-13.17c.56-.16 1.14.16 1.3.72ZM256.65 515.97V468.9c0-1.29 2.1-1.29 2.1 0v47.4c0 .62-.36 1.18-.92 1.44l-47.57 22c-.53.24-1.15.01-1.4-.52a1.05 1.05 0 0 1 .52-1.4l47.27-21.85Z" fill="#14C393"/><path d="m111.36 160.42 3.1-20.53a.65.65 0 0 1 1-.45l17.26 11.51c.21.14.32.4.28.64l-3.1 20.54a.65.65 0 0 1-1 .45l-17.26-11.51a.66.66 0 0 1-.28-.65Z" fill="#8358FF"/><path fill-rule="evenodd" clip-rule="evenodd" d="M115.63 137.37a2.16 2.16 0 0 1 2.35.02l16.77 11.08c.69.46 1.06 1.28.95 2.1l-2.73 20.53c-.08.6-.41 1.15-.91 1.5l-2.2 1.03c-.5.18-1.06.15-1.55-.18l-17.25-11.5a1.71 1.71 0 0 1-.74-1.68l3.1-20.54c.17-1.14.75-1.49 1.65-2.02l.56-.34Zm-2.91 23.15a.53.53 0 0 1-.23-.52l2.79-18.51c.06-.39.5-.58.81-.36l15.55 10.37c.18.12.26.32.23.52l-2.79 18.51a.53.53 0 0 1-.81.36l-15.56-10.37Z" fill="#28244B"/><path d="M155.3 93.33h-25.66a.54.54 0 0 1-.52-.69l4.04-15.19c.06-.23.28-.4.53-.4h17.57c.25 0 .46.17.53.4l4.04 15.2c.1.34-.17.68-.52.68Z" fill="#FD9317"/><path fill-rule="evenodd" clip-rule="evenodd" d="M133.69 76a1.6 1.6 0 0 0-1.54 1.18l-4.05 15.2c-.27 1 .5 2 1.54 2h25.67c1.04 0 1.8-1 1.54-2l-4.05-15.2a1.6 1.6 0 0 0-1.54-1.18H133.7Zm-1.44 8.95-1.94 7.32h16.56l-14.62-7.32Z" fill="#28244B"/><path d="M166.84 60.77A23.85 23.85 0 0 1 143 84.65a23.85 23.85 0 0 1-23.82-23.88A23.85 23.85 0 0 1 143 36.9a23.85 23.85 0 0 1 23.83 23.87Z" fill="#FFCB47"/><path fill-rule="evenodd" clip-rule="evenodd" d="M143.01 82.54c12 0 21.72-9.75 21.72-21.77a21.74 21.74 0 0 0-21.72-21.76c-12 0-21.72 9.75-21.72 21.76a21.74 21.74 0 0 0 21.72 21.77Zm0 2.1a23.85 23.85 0 0 0 23.83-23.87A23.85 23.85 0 0 0 143 36.9a23.85 23.85 0 0 0-23.82 23.87A23.85 23.85 0 0 0 143 84.65Z" fill="#28244B"/><path d="M131.38 60.37c0 1.4-1.17 2.53-2.61 2.53a2.57 2.57 0 0 1-2.6-2.53c0-1.4 1.16-2.54 2.6-2.54 1.44 0 2.6 1.14 2.6 2.54ZM157.57 62.9c1.44 0 2.6-1.13 2.6-2.53s-1.16-2.54-2.6-2.54a2.57 2.57 0 0 0-2.6 2.54c0 1.4 1.16 2.53 2.6 2.53ZM148.38 50.78a9.96 9.96 0 0 0-6.68-1.02c-2.1.49-3.9 1.9-4.24 4.27a5.7 5.7 0 0 0 1.36 4.71 14.12 14.12 0 0 0 3.45 2.66c1.22.75 2.24 1.34 2.99 2.07a2.99 2.99 0 0 1 1.06 2.26c0 1.03-.32 1.56-.66 1.86-.37.33-.96.57-1.8.63a8.3 8.3 0 0 1-5-1.45L137 69.1a11.36 11.36 0 0 0 7.07 2.06 6 6 0 0 0 3.65-1.4 5.2 5.2 0 0 0 1.62-4.03c0-1.89-.84-3.29-1.95-4.35-1.05-1.02-2.42-1.8-3.52-2.48a11.38 11.38 0 0 1-2.73-2.05 2.81 2.81 0 0 1-.68-2.42c.12-.87.75-1.53 1.94-1.8a6.9 6.9 0 0 1 4.56.75l1.42-2.6Z" fill="#28244B"/><g style="mix-blend-mode:color-dodge" opacity=".7" filter="url(#b)"><path d="M181.15 61.94a38.19 38.19 0 0 1-38.94 37.44 38.2 38.2 0 0 1-37.36-39.02 38.19 38.19 0 0 1 38.94-37.43 38.2 38.2 0 0 1 37.36 39.01Z" fill="#FD9317"/></g></g><g clip-path="url(#c)"><path d="M749.65 254.9c16.58-15.88 28.6-36.8 34.8-64.2.8-3.6.65-7.38-.72-10.81-6.54-16.34-20.96-34.5-38.9-43.68-.96-.5-2.07.28-2.01 1.36 2.3 45.5-5.06 69.48-24.62 102.16l31.45 15.18Z" fill="#B0EBDB"/><path fill-rule="evenodd" clip-rule="evenodd" d="m749 257 1.34-1.37c16.73-16.03 28.85-37.13 35.08-64.71.85-3.78.7-7.76-.76-11.4-6.62-16.53-21.19-34.89-39.37-44.2-1.7-.87-3.56.5-3.47 2.3 1.14 22.69-.12 39.95-4.08 55.59-3.97 15.64-10.64 29.71-20.4 46l-.56.94L749 257Zm-4.62-119.9a.35.35 0 0 0-.38.03.44.44 0 0 0-.19.38c1.16 22.82-.1 40.3-4.13 56.19-3.95 15.6-10.55 29.6-20.06 45.6l21.53 10.4c9.08-10.21 17.3-23.9 23.32-38.5 6.4-15.5 10.28-31.95 10.14-46.24-7.5-11.18-18.06-21.62-30.23-27.86Zm32.2 30.92c-.39 13.87-4.25 29.36-10.26 43.94-6 14.56-14.2 28.28-23.3 38.64l6.44 3.1c16.16-15.68 27.92-36.26 34-63.22.78-3.44.63-7-.66-10.22a80.96 80.96 0 0 0-6.22-12.24Z" fill="#28244B"/><path d="M750.12 261.23a27 27 0 1 1-54 0 27 27 0 0 1 54 0Z" fill="#B0EBDB"/><path fill-rule="evenodd" clip-rule="evenodd" d="M750.12 261.23a27 27 0 1 1-54 0 27 27 0 0 1 54 0Zm-17.7 23.21a25 25 0 1 1-5.2-47.88c10.59 7.6 5.64 24.6-.39 28.9 1.37 10.92 3.03 17.05 5.6 18.98Z" fill="#28244B"/><path d="m762.07 430.11-26.27-154.5c-1.1-6.5-3.48-12.86-8.12-17.55a38.5 38.5 0 0 0-10.56-7.82c-10.5-5.03-20.88-1.91-28.98 9.65-2.6 3.71-4.07 8.07-5.16 12.47l-45.26 183.37c-1 4.02.2 8.34 3.46 10.9 40.55 31.9 104.64 9.16 119.5-18.68 2.88-5.4 2.41-11.8 1.39-17.84Z" fill="#B0EBDB"/><path d="m762.07 430.11-26.27-154.5c-1.1-6.5-3.44-12.86-7.83-17.79-2.6-2.92-5.15-5-8.47-6.59 5 18.5 26 137.5 21.5 180.5-.9 22.04-36.19 36.4-85.49 25.59-9.32-2.05-19.6 5.61-11.85 11.17 40.63 29.11 102.46 6.74 117.01-20.54 2.89-5.4 2.42-11.8 1.4-17.84Z" fill="#14C393"/><path fill-rule="evenodd" clip-rule="evenodd" d="M717.55 249.34c-5.45-2.61-10.94-3.13-16.13-1.45-5.18 1.69-9.96 5.52-14.1 11.43-2.7 3.86-4.21 8.36-5.3 12.8L636.74 455.5c-1.07 4.34.2 9.08 3.81 11.91 20.58 16.19 47.08 18.47 70.22 13.25 23.1-5.2 43.16-17.96 50.77-32.24 3.06-5.73 2.53-12.41 1.5-18.48l-26.27-154.5c-1.12-6.6-3.55-13.19-8.38-18.08a39.51 39.51 0 0 0-10.85-8.02Zm-28.6 11.13c3.97-5.66 8.42-9.16 13.08-10.67 4.65-1.51 9.6-1.08 14.66 1.34.37.18.75.37 1.13.58 15.64 68.88 20.62 119.87 22.95 172.7.58 13.1-6.98 25.37-19.35 29.34-31.02 9.94-56.58 8.12-81.32-3.48l43.85-177.68c1.08-4.36 2.51-8.57 5-12.13ZM639.6 452.28l-.9 3.7c-.92 3.69.2 7.58 3.1 9.86 19.97 15.7 45.79 18 68.54 12.87 22.8-5.14 42.21-17.66 49.45-31.23 2.72-5.09 2.32-11.17 1.3-17.2l-26.28-154.5c-1.08-6.39-3.4-12.52-7.84-17.01a42.08 42.08 0 0 0-6.79-5.64c15.35 68.08 20.28 118.75 22.6 171.2.6 13.9-7.4 27.06-20.75 31.34-31.45 10.08-57.19 8.45-82.43-3.38Z" fill="#28244B"/><path d="M656.74 462.63c.4 5.78.1 10.9-1.12 18.1l18.5 12.5c-2.1-12.55-3.29-20.33-3.48-31.55a6.95 6.95 0 0 0-5.33-6.68c-4.66-1.1-8.89 2.85-8.57 7.63ZM632.62 484.73c2.73-8.63 4-18.8 4.92-28.35a6.49 6.49 0 0 1 10.4-4.57 6.73 6.73 0 0 1 2.53 6.37 104.41 104.41 0 0 0-.35 30.05l-17.5-3.5Z" fill="#28244B"/><path fill-rule="evenodd" clip-rule="evenodd" d="M647.33 452.61a5.49 5.49 0 0 0-8.8 3.87c-.88 9.16-2.1 18.99-4.63 27.5l15.05 3c-1.2-9.8-.93-19.23.53-28.95a5.73 5.73 0 0 0-2.15-5.42Zm-10.79 3.68a7.49 7.49 0 0 1 12-5.27 7.73 7.73 0 0 1 2.92 7.3 103.4 103.4 0 0 0-.35 29.78l.19 1.39-19.97-4 .33-1.06c2.7-8.52 3.96-18.6 4.88-28.14Zm28.55-.32c-3.95-.92-7.63 2.41-7.35 6.59.39 5.7.11 10.78-1.03 17.7l16.04 10.84c-1.86-11.25-2.93-18.8-3.11-29.4a5.95 5.95 0 0 0-4.55-5.73Zm-9.34 6.72c-.37-5.38 4.41-9.92 9.8-8.67a7.95 7.95 0 0 1 6.09 7.65c.19 11.14 1.38 18.85 3.46 31.4l.39 2.3-20.97-14.17.11-.63c1.21-7.14 1.5-12.18 1.12-17.88Z" fill="#28244B"/><path d="M751.62 438.73c9.29-2.94 10.19-.84 15.99 3.5l11-22.5-23.99-34.5c-8 19.5-6.5 34.5-3 53.5Z" fill="#14C393"/><path fill-rule="evenodd" clip-rule="evenodd" d="m754.4 383.15 25.37 36.5-11.8 24.11-.96-.72-1.92-1.48-.07-.06a59.8 59.8 0 0 0-1.64-1.25 10.12 10.12 0 0 0-2.77-1.55c-1.8-.6-4.08-.47-8.69.99a1 1 0 0 1-1.28-.77c-3.51-19.07-5.06-34.3 3.06-54.07l.7-1.7Zm.47 4.18c-6.99 18.04-5.7 32.27-2.47 50.12 4.04-1.2 6.6-1.39 8.84-.65 1.2.4 2.24 1.05 3.32 1.83.54.4 1.1.83 1.7 1.3l.06.05.92.72 10.21-20.88-22.59-32.49Z" fill="#28244B"/><path d="M684.47 465.03c.37 5.46.04 10.44-1.2 17.3l20.4 12.4c-2.33-12.31-3.68-20.03-3.99-30.92a7.62 7.62 0 0 0-6-7.3c-5.1-1.04-9.56 3.33-9.21 8.52Z" fill="#28244B"/><path fill-rule="evenodd" clip-rule="evenodd" d="M693.47 457.5c-4.36-.9-8.32 2.85-8 7.46.36 5.38.06 10.3-1.1 16.88l17.9 10.87c-2.07-11.07-3.3-18.56-3.59-28.87a6.62 6.62 0 0 0-5.2-6.34Zm-10 7.6c-.39-5.76 4.59-10.76 10.4-9.56a8.62 8.62 0 0 1 6.81 8.24c.3 10.81 1.65 18.46 3.96 30.76l.42 2.2-22.9-13.9.13-.68c1.23-6.8 1.55-11.7 1.18-17.06Z" fill="#28244B"/><path d="M716.12 458.08c.7 5.41.66 10.4-.16 17.3l21.19 11.14c-3.06-12.13-4.88-19.75-5.85-30.58a7.65 7.65 0 0 0-6.47-6.95c-5.16-.74-9.37 3.92-8.7 9.1Z" fill="#28244B"/><path fill-rule="evenodd" clip-rule="evenodd" d="M724.69 449.98c-4.43-.64-8.17 3.37-7.58 7.98.69 5.32.68 10.24-.08 16.86l18.6 9.78c-2.74-10.92-4.41-18.32-5.33-28.57a6.65 6.65 0 0 0-5.61-6.05Zm-9.56 8.23c-.74-5.75 3.94-11.06 9.84-10.21a8.65 8.65 0 0 1 7.33 7.85c.96 10.75 2.76 18.3 5.82 30.43l.55 2.17-23.8-12.5.1-.68c.81-6.85.84-11.75.16-17.06Z" fill="#28244B"/><path d="M681.88 520.17c1.16 6.66-2.44 13.05-8.75 14.28-7.04 1.37-12.35-5.56-16.16-11.67-8.24-13.22-12.93-17.66-24.85-32.04-2.33-4.5.9-13.14 8-10 17.49 12.43 28.83 21.27 37.92 32.25 1.76 2.12 3.36 4.47 3.84 7.18Z" fill="#DCF6EF"/><path fill-rule="evenodd" clip-rule="evenodd" d="M631.23 491.2c-1.34-2.6-1.06-6.26.5-8.85a6.68 6.68 0 0 1 3.5-2.96 7.1 7.1 0 0 1 5.29.43l.09.04.08.06c17.5 12.43 28.93 21.34 38.12 32.43 1.78 2.14 3.53 4.66 4.05 7.65 1.24 7.08-2.59 14.08-9.54 15.44-3.93.76-7.32-.82-10.13-3.26-2.8-2.43-5.15-5.8-7.06-8.87-6.25-10.02-10.42-14.93-17.35-23.1-2.16-2.54-4.58-5.4-7.43-8.83l-.07-.09-.05-.1Zm46.04 22.43c-8.98-10.85-20.2-19.62-37.64-32.02a5.1 5.1 0 0 0-3.75-.32 4.7 4.7 0 0 0-2.44 2.1c-1.23 2.04-1.41 4.9-.48 6.8 2.77 3.34 5.16 6.15 7.3 8.67 6.95 8.2 11.23 13.23 17.56 23.38 1.9 3.04 4.1 6.2 6.67 8.42l.55.46c3.97.13 8.57-1.33 11.2-4.3l1.5 1.32a15.19 15.19 0 0 1-9.64 4.83c1.53.62 3.13.83 4.84.5 5.67-1.1 9.05-6.89 7.96-13.13-.43-2.44-1.9-4.62-3.63-6.7Z" fill="#28244B"/><path d="M704.63 525.03c1.1 6.97-2.94 14.2-9.57 15.82-6.97 1.7-12.38-5.22-16.2-11.33-9.17-14.6-16.24-22.38-28.27-36.9-2.33-4.49 1.4-14.69 8.5-11.55 17.53 12.47 32.1 25.1 41.74 36.77 1.76 2.13 3.37 4.47 3.8 7.2Z" fill="#DCF6EF"/><path fill-rule="evenodd" clip-rule="evenodd" d="M649.7 493.08a8.72 8.72 0 0 1-.76-4.69c.15-1.67.66-3.4 1.5-4.9a8 8 0 0 1 3.6-3.49 6.53 6.53 0 0 1 5.44.15l.1.05.08.05c17.58 12.5 32.21 25.2 41.94 36.95 1.77 2.15 3.54 4.67 4.01 7.68 1.16 7.38-3.09 15.18-10.32 16.95-3.9.95-7.31-.55-10.15-2.95-2.83-2.38-5.2-5.75-7.13-8.82-7.68-12.24-13.87-19.64-22.83-30.36-1.68-2.01-3.46-4.14-5.36-6.44l-.07-.08-.05-.1Zm5.14-11.24a4.52 4.52 0 0 1 3.75.11c17.47 12.42 31.92 24.98 41.48 36.54 1.73 2.1 3.19 4.26 3.57 6.7 1.03 6.55-2.78 13.21-8.82 14.69-2.45.6-4.7 0-6.82-1.36a14.9 14.9 0 0 0 8.22-3.28c3.18-2.6 5.45-6.66 5.97-12.14l-2-.2c-.47 5.02-2.51 8.57-5.23 10.8a13.1 13.1 0 0 1-9.45 2.82 40 40 0 0 1-5.81-7.53c-7.76-12.37-14.04-19.87-23-30.6l-5.28-6.32a6.86 6.86 0 0 1-.5-3.5c.13-1.4.56-2.86 1.25-4.1a6.03 6.03 0 0 1 2.67-2.63Z" fill="#28244B"/><path d="M737.37 523.11c-.3 7.24-5.02 15.3-11.55 19.24-8.35 5.03-16.43-4.06-20.91-12.75-7.23-13.99-13.8-22.03-24.26-36.38-1.85-5.04 4.42-18.2 12.07-15.73 17.63 11.6 31.92 23.94 40.98 36.07 2.1 2.8 3.82 6.04 3.67 9.55Z" fill="#DCF6EF"/><path fill-rule="evenodd" clip-rule="evenodd" d="M679.72 493.57c-.56-1.53-.48-3.52-.01-5.51a20.2 20.2 0 0 1 2.57-6.06c2.35-3.7 6.23-6.93 10.75-5.46l.13.04.1.07c17.69 11.64 32.08 24.05 41.24 36.3 2.13 2.87 4.03 6.34 3.87 10.2-.31 7.58-5.22 15.96-12.04 20.06a10.19 10.19 0 0 1-6.8 1.49 13.56 13.56 0 0 1-6.21-2.78c-3.8-2.85-7.02-7.45-9.3-11.86-5.95-11.53-11.45-18.98-19.14-29.4-1.58-2.14-3.25-4.4-5.03-6.84l-.08-.12-.05-.13Zm53.18 20.6c-8.94-11.98-23.08-24.22-40.6-35.76a5.08 5.08 0 0 0-2.16-.17 307.32 307.32 0 0 1 14.57 10.71c8.9 6.98 19.23 15.97 24.64 23.87 4.33 6.33 2.58 14.37-1.86 20.2-3.28 4.31-7.19 7.52-11.43 8.33 1.23.71 2.48 1.18 3.74 1.36a8.2 8.2 0 0 0 5.5-1.22c6.26-3.76 10.8-11.53 11.08-18.42.13-3.16-1.42-6.16-3.48-8.9Zm-19.35 25.37c4.24.2 8.53-2.7 12.35-7.73 4.13-5.42 5.47-12.5 1.8-17.86-5.21-7.62-15.33-16.45-24.23-23.42a303.78 303.78 0 0 0-15.1-11.08l-.55-.37a12.12 12.12 0 0 0-3.86 4 18.17 18.17 0 0 0-2.3 5.44c-.42 1.75-.43 3.24-.11 4.23 1.73 2.38 3.36 4.6 4.9 6.69 7.7 10.43 13.3 18.01 19.34 29.7 2 3.88 4.7 7.77 7.76 10.4Z" fill="#28244B"/><path d="M767.64 525.63c-1.62 8.2-9 16.42-17.42 18.7-9.19 2.49-15-7.75-17.69-16.92-5.06-17.3-10.52-27.32-19.06-45.31-.98-5.74 8.15-18.26 15.75-13.96 16.54 16.3 29.33 32.65 36.52 47.58 1.49 3.1 2.57 6.52 1.9 9.9Z" fill="#DCF6EF"/><path fill-rule="evenodd" clip-rule="evenodd" d="M712.49 482.27c-.3-1.71.17-3.79 1.04-5.78a21 21 0 0 1 3.87-5.82c3.2-3.4 7.88-5.9 12.3-3.4.02 0 .22.16.22.16 16.58 16.34 29.46 32.78 36.71 47.85 1.53 3.16 2.72 6.83 1.99 10.54-1.7 8.58-9.36 17.1-18.15 19.48-5.08 1.37-9.2-.82-12.29-4.4-3.07-3.55-5.25-8.56-6.6-13.2-4.2-14.38-8.68-23.67-15.02-36.85-1.25-2.6-2.58-5.35-3.99-8.32l-.06-.13-.02-.13Zm52.35 33.88c-7.1-14.75-19.77-30.97-36.22-47.2a5.5 5.5 0 0 0-.2-.1c.6.68 1.33 1.5 2.15 2.45 2.59 2.95 6.12 7.08 9.92 11.79 7.58 9.39 16.28 21.16 20.57 30.46a17.47 17.47 0 0 1-3.9 19.98c-4.67 4.46-10.55 7.44-15.53 7.95 2.37 1.92 5.13 2.75 8.33 1.88 8.04-2.17 15.16-10.09 16.7-17.93.6-3.06-.36-6.23-1.82-9.28Zm-25.18 23.4c-2.8-3.24-4.86-7.92-6.17-12.42-4.25-14.55-8.8-24-15.15-37.19-1.23-2.55-2.53-5.25-3.9-8.15-.16-1.14.15-2.73.92-4.5a19 19 0 0 1 3.5-5.24c1.95-2.09 4.19-3.5 6.38-3.74l.77.85a395.15 395.15 0 0 1 12.93 15.18c7.57 9.4 16.13 20.99 20.3 30.05a15.47 15.47 0 0 1-3.46 17.7c-5.12 4.88-11.52 7.66-16.12 7.45Z" fill="#28244B"/><path d="m776.22 417.13-5.23-.4a7.56 7.56 0 0 0-7.49 4.55l-.54 1.22a34.02 34.02 0 0 0-2.94 13.9v28.86c0 10.44 6.2 20.74 16.04 22.53 5.38.98 10.11.69 14.73-1.58 7.38-3.62 8.58-13.6 5.9-21.9L783.4 423a8.34 8.34 0 0 0-7.17-5.87Z" fill="#DCF6EF"/><path fill-rule="evenodd" clip-rule="evenodd" d="M762.62 420.82a8.49 8.49 0 0 1 8.41-5.11l5.23.4a9.37 9.37 0 0 1 8.05 6.59L797.6 464c1.4 4.3 1.79 9.07.85 13.27-.94 4.22-3.23 7.9-7.23 9.86-4.84 2.38-9.79 2.67-15.3 1.66-10.46-1.9-16.89-12.79-16.89-23.58v-28.85c0-4.99 1.04-9.88 3.03-14.33l.55-1.22Zm8.33-3.07a6.63 6.63 0 0 0-6.56 4l-.55 1.21-.2.47 3.25 46.03c.33 4.75 2.9 9.09 7 10.6 9.98 3.65 17.33 1.3 22.6-3.24l.04.06.03-.13c.84-3.77.5-8.14-.78-12.14l-13.32-41.31a7.31 7.31 0 0 0-6.28-5.15l-5.23-.4Zm24.38 62.52c-5.54 3.68-12.8 5.1-22.02 1.72-5.05-1.86-7.99-7.09-8.37-12.44l-2.92-41.37a33.4 33.4 0 0 0-1.03 8.26v28.85c0 10.1 6 19.81 15.2 21.5 5.24.95 9.77.65 14.17-1.51a10.9 10.9 0 0 0 4.97-5Z" fill="#28244B"/><path d="M760.27 87h-19.1c-10.57 61.9 19.6 133 45.25 133l13.58-9.19L760.27 87Z" fill="#B0EBDB"/><path d="M828.13 132.5c5.03 36.8.11 69.59-11.2 84.5l-28.12 3c-14.54-11.85-27.64-41.62-32.57-77.65-6.65-48.58 4.06-90.16 23.9-92.87 19.86-2.72 41.34 34.46 47.99 83.03Z" fill="#B0EBDB"/><path fill-rule="evenodd" clip-rule="evenodd" d="M828.02 129.74c-6.66-47.12-28.17-83.19-48.07-80.61l-15.02-.1h-.07c-5.33.7-9.95 3.92-13.76 8.92-3.8 5-6.85 11.87-9.05 20.06-4.38 16.39-5.41 38.29-2.08 61.84 3.33 23.55 10.4 44.38 19.17 59.03 4.39 7.31 9.23 13.13 14.28 16.96 5.06 3.83 10.4 5.72 15.73 5.01l-.27-1.92c-4.63.61-9.44-1-14.22-4.62-4.79-3.63-9.48-9.22-13.78-16.4-8.36-13.95-15.2-33.72-18.61-56.2l13.94-.57c6.96 46.25 28.2 81.36 47.84 78.75 19.9-2.63 30.64-43 23.97-90.15Zm-3.96 61.29c4.26-16.02 5.28-37.64 1.98-61.03-3.31-23.39-10.3-43.94-18.84-58.26-4.28-7.17-8.9-12.68-13.55-16.23-3.37-2.56-6.69-4.05-9.88-4.45v.04l-3.68-.03c-4.24.6-8.17 3.2-11.64 7.78-3.5 4.63-6.42 11.14-8.55 19.15-4.25 16.02-5.28 37.64-1.97 61.03 3.3 23.39 10.29 43.94 18.84 58.26 4.27 7.17 8.89 12.68 13.54 16.23 4.65 3.54 9.2 5.01 13.47 4.45 4.27-.57 8.24-3.17 11.73-7.8 3.5-4.62 6.42-11.13 8.55-19.14Zm-68.13-51.82c-.8-5.61-1.34-11.13-1.65-16.5l-13.97.4c.3 5.36.85 10.87 1.65 16.48l.02.19 13.95-.57Zm-1.75-18.43-13.97.4c-.5-10.43-.09-20.24 1.1-29.05 1.33 6.31 7.7 7.06 13.65 1.65-.96 8.3-1.24 17.4-.78 27Z" fill="#28244B"/><path fill-rule="evenodd" clip-rule="evenodd" d="M750 258a1 1 0 0 1 1 1c0 6.2-.82 10.67-2.47 14.3-1.65 3.62-4.1 6.3-7.18 8.96a1 1 0 1 1-1.3-1.52c2.97-2.56 5.17-5.01 6.66-8.28 1.49-3.27 2.29-7.43 2.29-13.46a1 1 0 0 1 1-1Z" fill="#B0EBDB"/><path d="m829.19 499.9-3.06 96.78c-25.51 13.1-40.47 26.55-47.09 42.43a52.48 52.48 0 0 0-3.62 13.77c-.22 1.76.18 3.6 1.61 4.64 10.49 7.67 55.87 12.04 86.24 10.6.87-6.11 1.75-13.75 4.64-19.24a81.21 81.21 0 0 1 15.92-21.2 68 68 0 0 1 17.41-12c2.1-1 3.35-3.24 2.93-5.53l-12.7-76.67h-3.36c-6.72-10.38-15.27-28.09-10.38-42.74h6.71l-4.58-67.78-95.55-74.8c9.38 52.03 18.72 87.9 38.16 135.25 0 7.63 3.05 14.05 6.72 16.49Z" fill="#B0EBDB"/><path d="M878.03 533.17c14.6 42.66 8.5 60.45 5.5 95.56 7.37-3.26 11.86-5.78 21.68-14.04l-11.91-81.82h-5.2c-10.37-15.88-13.73-27.78-10.37-42.13h6.72c3.14-31.89-6.38-48.55-17.4-78.46l-57.4-44.57c27.94 34.49 34.78 62.92 48.54 112.04l-10.38 27.48c17.55 16.26 25.03 25.94 30.22 25.94Z" fill="#28244B"/><path d="M840.48 471.5c-13.06-.12-15.88 4.28-17.7 12.22 0 6.4 3.35 14.65 6.71 15.87 3.9-1 4.55-.34 8.55 1.23l10.38 6.92A23.83 23.83 0 0 0 869.76 488c-13.77-10.26-21.32-15.7-29.28-16.48Z" fill="#14C393"/><path fill-rule="evenodd" clip-rule="evenodd" d="m782.86 345.76 97.97 76.7 4.68 69.28h-7.05c-2.08 6.87-1.2 14.46 1.06 21.67 2.26 7.23 5.88 13.98 9.13 19.07h3.66l12.84 77.5a6.15 6.15 0 0 1-3.47 6.6 66.96 66.96 0 0 0-17.16 11.83 80.22 80.22 0 0 0-15.73 20.94c-2.58 4.9-3.51 11.61-4.33 17.49l-.2 1.41-.11.82-.83.04c-15.25.73-34.24 0-50.74-1.88-8.25-.94-15.9-2.17-22.15-3.64-6.2-1.47-11.19-3.21-13.99-5.26-1.85-1.35-2.25-3.63-2-5.57.6-4.9 1.82-9.56 3.68-14.03 6.7-16.1 21.75-29.61 47.03-42.67l3.02-95.66c-1.85-1.4-3.46-3.66-4.64-6.4a27.16 27.16 0 0 1-2.06-10.39c-19.42-47.34-28.76-83.26-38.15-135.26l-.46-2.59Zm43.4 251.98c-24.82 12.79-39.36 25.83-45.97 40.99 8.23 5.17 21.35 9.4 36.62 11.49 15.55 2.12 33.21 2 50.01-1.6l.04-.08.06-.13a82.82 82.82 0 0 1 14.85-20.21c-20.14-20.46-36.76-25.84-55.61-30.46Zm57.05 29.07c5-4.7 10.82-8.84 17.5-12.03a4.15 4.15 0 0 0 2.38-4.44v-.01l-12.5-75.45-3.16.37c-6.07.7-12.29-.88-16.97-4.92a273.46 273.46 0 0 1-12.54-11.72c-3.57-3.5-7.1-7.03-10.87-10.32-3.38-2.97-6.49-5.27-9.4-6.61-2.74-1.27-5.24-1.64-7.59-.94l-3 95.16c18.88 4.65 35.8 10.23 56.15 30.91Zm-5.7-112.8a83.9 83.9 0 0 0 9.2 19.3c-5.43.52-10.86-.97-14.95-4.5a294.8 294.8 0 0 1-13.54-12.7c-3.2-3.2-6.45-6.35-9.85-9.33-3.43-3-6.7-5.46-9.88-6.92-3.09-1.42-6.14-1.93-9.14-1-1.52-1.12-2.97-3.07-4.08-5.65a25.11 25.11 0 0 1-1.9-9.5c.89-4.04 2.6-6.74 4.84-8.47 2.25-1.74 5.12-2.6 8.41-2.75 4.73-.23 9.16 1.24 13.47 3.49 3.44 1.8 6.75 4.05 10.05 6.31.86.6 1.72 1.18 2.58 1.76 5.4 3.64 9.7 5.5 13.96 6.38-2.53 7.6-1.56 15.92.83 23.58Zm5.76-24.27-4.47-66.26-93.14-72.9c9.05 49.63 18.2 84.65 36.58 129.86a14.68 14.68 0 0 1 4.75-6.78c2.66-2.07 5.96-3 9.54-3.17 5.21-.25 10 1.37 14.49 3.71 7.9 4.13 23.6 15.54 32.25 15.54ZM865.9 650.87c-16.62 3.36-33.96 3.42-49.26 1.33-15.24-2.08-28.55-6.3-37.12-11.6a51.73 51.73 0 0 0-3.1 12.4c-.2 1.59.19 2.97 1.2 3.72 2.45 1.78 7.07 3.46 13.27 4.92a193.87 193.87 0 0 0 21.92 3.6c16.1 1.83 34.6 2.57 49.59 1.91l.09-.65c.68-4.93 1.5-10.78 3.41-15.63Z" fill="#28244B"/><path d="m961.68 90.8-32.97 212.8v38.77l8.25 122.11c1.46 7.32 6.8 19.04 11.32 27.07a.68.68 0 0 1-.59 1.02h-3.71c-.91 10.4 7.1 27.4 15.87 34.2l5.55-1.4c.33-.08.66.09.79.39 15.12 34.55 24.53 71.35 31.34 110.9.52 3 1.02 6 1.5 9.03a7.24 7.24 0 0 1-1.36 5.81c-4.47 5.41-11.19 8.61-16.75 10.2h-.66c-1.79 0-3.32 1.19-4.15 2.77-10.41 19.71-63.67 25.91-109.2 13.52a7.63 7.63 0 0 1-5.5-8.72c.47-2.66.99-5.17 1.56-7.57 5.49-23.02 16.05-34.63 42.24-46.1l-16.49-113.87c-7.02-5.8-8.85-15.57-5.5-24.12-4.47-7.96-12.54-16.82-16.37-23.5-10.9-19.06-19.53-35.28-27.89-61.98-15.57-3.67-45.19-24.42-54.96-44.57l-6.4-40.91c10.98-3.06 21.98-10.69 21.98-29.62l12.51-4.88c-4.98-83.61-22.54-167.31-3.05-189.9l3.36-4.27c36.94-15.87 88.05-6.98 149.28 12.83Z" fill="#B0EBDB"/><path d="m972.97 648.88 3.06 15.57c1.53-2.44 2.37-3 5.19-2.75 8.62-3 13.38-4.79 18.01-13.73-8.6-58.65-17.68-81.4-33.58-122.73l-6.1 1.52c-10.59-11.43-15.9-18.12-15.88-34.5h3.6c.55 0 .87-.6.58-1.05-7.77-11.8-9.2-18.89-10.89-27.3v-.04L928.7 303l15.26-97.7-7.02-2.13-17.1 99.83c-13.32 19.37-20.46 26.93-33.27 32.97v4.58c11.47 35.43 10.38 55.13 12.51 90.36l-16.48 49.77c-2.14 10.92.8 14.4 5.8 20.75 7.33-10.68 53.73 28.4 67.47 25.95 17.1 35.42 25.34 88.54 17.1 121.51Z" fill="#28244B"/><path d="M906.13 462.04c-13.16 0-23.82 10.53-23.82 23.51 0 6.34 2.55 11.3 6.69 15.1 8.58-1.6 17.25 3.6 23 7.74 10.23-2.39 17.63-10.95 17.63-21.92-8.54-4.77-13.77-9.9-23.5-24.43Z" fill="#14C393"/><path fill-rule="evenodd" clip-rule="evenodd" d="M878.04 70.02c25.15 2.73 53.3 9.92 83.95 19.83l.81.27-33.09 213.55v38.66l8.24 122.02c1.45 7.16 6.7 18.72 11.2 26.71a1.68 1.68 0 0 1-1.46 2.51h-2.77c-.17 4.84 1.5 11.08 4.27 17.03 2.86 6.13 6.81 11.76 10.9 15.07l5.07-1.27c.8-.2 1.62.2 1.94.96 15.17 34.65 24.6 71.54 31.42 111.14.51 3 1.01 6 1.5 9.03a8.2 8.2 0 0 1-1.58 6.6c-4.65 5.63-11.58 8.91-17.25 10.53l-.13.04h-.8c-1.32 0-2.56.89-3.27 2.23-2.75 5.22-8.26 9.42-15.53 12.62-7.28 3.22-16.44 5.47-26.66 6.71-20.43 2.48-45.26.92-68.15-5.3a8.63 8.63 0 0 1-6.23-9.87c.48-2.67 1-5.2 1.58-7.62 2.77-11.62 6.84-20.45 13.59-27.83 6.61-7.23 15.73-12.99 28.52-18.65l-16.33-112.74c-7.03-6.04-8.87-15.9-5.66-24.56-2.34-4.07-5.19-7.83-8.02-11.57l-.64-.85c-2.86-3.78-5.64-7.46-7.48-10.67-10.84-18.95-19.46-35.15-27.8-61.63-7.96-2.03-19.1-8.14-29.48-16.15-10.63-8.21-20.61-18.55-25.6-28.83l-.06-.13-6.57-41.94.86-.24c5.38-1.5 10.67-4.08 14.63-8.55 3.93-4.45 6.62-10.84 6.62-20.1v-.68l12.47-4.87c-1.25-20.64-3.25-41.27-5.27-61l-.99-9.54c-1.7-16.47-3.32-32.18-4.4-46.55-1.29-17.11-1.82-32.37-.8-44.77 1.02-12.36 3.6-22.1 8.68-28l3.5-4.46.23-.1c18.69-8.03 40.9-9.76 66.04-7.04Zm-65.82 203.15-8.58 3.35 18.33 2.23 6.47-3.55-16.22-2.03Zm18.83 2.88-7.6 4.17c4.02 9.25 8.08 17.87 12.78 25.53l6.13-4.65c-4.05-6.45-7.9-14.66-11.3-25.05Zm12.4 26.73-6.15 4.67c.57.9 1.15 1.77 1.74 2.63l5.69-5.43c-.43-.6-.86-1.23-1.29-1.87Zm2.47 3.49-5.72 5.47c.49.68.98 1.36 1.49 2.02l5.56-5.8a62.1 62.1 0 0 1-1.33-1.69Zm2.63 3.22-5.62 5.86c.55.69 1.11 1.36 1.68 2.03l5.25-6.45c-.44-.46-.87-.94-1.31-1.44Zm2.73 2.88-5.33 6.53a59.88 59.88 0 0 0 22.58 15.79c2.76 1.1 5.7 1.68 8.63 1.61.95-.02 1.87-.07 2.77-.16l-6.46-13.5.34-.16c-5.9.07-12.95-1.9-20.04-7.86-.83-.7-1.66-1.44-2.5-2.25Zm24.29 10.03 6.45 13.47c1.87-.3 3.65-.75 5.4-1.37l-8.98-12.62 1.63-1.16 9.25 13.02a35.43 35.43 0 0 0 8.32-5.25c6.39-5.27 12.85-13.44 20.97-25.28l35.55-202.97c-2.12-1-4.25-1.97-6.38-2.9l-38 199.97a3.7 3.7 0 0 1-4.53 2.9l-31.85-7.82 7.6 10.65.03.04c3.17 5.22 3.5 9.59 2.25 12.92a10.53 10.53 0 0 1-6.46 6.25c-.4.1-.83.12-1.25.15ZM945.9 96.52c-46.7-20.03-96.73-24.96-136.3-13.39-4.53 5.42-7.01 14.52-8.01 26.65-1.01 12.25-.5 27.38.8 44.46 1.07 14.34 2.7 30.01 4.4 46.49l.98 9.55c2.01 19.7 4.02 40.33 5.27 60.98l19.35 2.42.2.6c6.52 20.35 14.6 32.22 22.46 38.81 7.8 6.54 15.42 7.93 21.23 7.23a8.54 8.54 0 0 0 5.13-5.02c.97-2.61.85-6.32-2.07-11.16l-10.71-14.98 37.1 9.12a1.7 1.7 0 0 0 2.08-1.34L945.9 96.52ZM811.72 80.46C851.6 69.66 901.23 75 947.42 95c2.78 1.2 5.54 2.45 8.28 3.76l.69.32-35.89 204.9-.12.18c-8.18 11.95-14.81 20.38-21.47 25.88-6.7 5.53-13.42 8.07-21.7 8.26-3.24.08-6.44-.57-9.42-1.76-24.07-9.57-35.44-30.8-46.31-55.84l-20.92-2.54c-.2 9.08-2.97 15.62-7.1 20.3-4.08 4.6-9.41 7.3-14.74 8.9l6.25 39.9c4.81 9.83 14.48 19.89 24.95 27.97 9.75 7.54 20.05 13.25 27.55 15.47a163 163 0 0 1-.3-.98c-3.45-11.35-.86-24.17 8.6-31.63 10.51-8.27 24.4-15.23 44.6-19.15l37.34 2.36v-37.78L960.57 91.5c-30.28-9.76-58.02-16.81-82.75-19.5-24.84-2.68-46.59-.96-64.8 6.8l-1.3 1.66ZM927.77 343.3l-37.15-2.38c-19.84 3.86-33.39 10.69-43.6 18.74-8.69 6.83-11.2 18.72-7.93 29.47l.83 2.69c8.33 26.6 16.91 42.75 27.8 61.78 1.77 3.09 4.48 6.68 7.37 10.5l.16.22c3.23 4.27 6.45 8.53 9.08 13.2l-.18.45c-3.07 7.82-1.59 16.62 4.3 22.17a1 1 0 0 1 .31-.14c3.13-.85 6.38-.57 9.96.5 3.56 1.06 7.5 2.91 12.03 5.27 2.3 1.2 4.77 2.54 7.43 3.99 9.45 5.4 19.3 10.27 29.27 14.64a18.23 18.23 0 0 0 9.71 1.35c-3.76-3.62-7.23-8.83-9.78-14.32-3.02-6.47-4.87-13.5-4.4-18.96l.08-.91h4.09c-4.48-8.04-9.7-19.56-11.17-26.9l-.02-.06-8.19-121.3Zm-21.7 271.3-16.33-112.79c2.52-.58 5.24-.34 8.4.6 3.37 1 7.17 2.78 11.68 5.13 2.27 1.19 4.7 2.51 7.35 3.94 7.82 4.25 17.4 9.45 29.47 14.75 3.94 1.73 8.3 2.1 12.47 1.2l.13.11.38.3 5.76-1.44c14.94 34.21 24.29 70.66 31.07 109.85-5.98 4.8-10.66 7.72-15.35 9.44-4.67 1.72-9.42 2.27-15.56 2.19-14.9-18.95-38.37-32.9-59.47-33.28Zm90.76 23.9c-5.65 4.46-10.3 7.33-15.04 9.07-4.92 1.81-9.87 2.38-16.04 2.3-2.68 7.48-8.61 12.67-16.32 16.1-7.94 3.54-17.83 5.25-28.25 5.67-20.32.82-42.91-3.26-57.5-8.61-.46 2.04-.89 4.17-1.29 6.4a6.63 6.63 0 0 0 4.79 7.59c22.64 6.16 47.2 7.7 67.38 5.25 10.09-1.23 19.04-3.45 26.1-6.56 7.06-3.11 12.11-7.08 14.56-11.72.96-1.81 2.78-3.3 5.04-3.3h.52c5.43-1.57 11.86-4.68 16.12-9.84a6.24 6.24 0 0 0 1.15-5c-.4-2.47-.8-4.92-1.22-7.35Zm-132.68 22.57c14.32 5.3 36.78 9.38 56.95 8.57 10.28-.4 19.9-2.1 27.52-5.49 7.42-3.3 12.88-8.2 15.3-15.09-14.8-18.78-38.04-32.38-58.5-32.47-12.94 5.68-21.92 11.36-28.36 18.4-6.28 6.87-10.2 15.1-12.91 26.08Z" fill="#28244B"/><path fill-rule="evenodd" clip-rule="evenodd" d="M921.18 480.84a1 1 0 0 1 1.4-.23c6.21 4.44 10.31 7 14 8.47 3.67 1.45 6.98 1.86 11.67 1.88a1 1 0 1 1 0 2c-4.83-.02-8.42-.44-12.4-2.02-3.94-1.57-8.21-4.25-14.44-8.7a1 1 0 0 1-.23-1.4Z" fill="#28244B"/><path d="m831.44 273.81-19.54-2.44c-7.55-87.59-27.79-166.65-2.78-189.65 48.23-19.23 112.99 2.2 137.72 13.2l-37.78 203.66a2.03 2.03 0 0 1-2.46 1.61l-36.7-8.67c14.2 16.98 18.53 22.72 12.9 27.32a12 12 0 0 1-6.8 2.5c-16.53 1.15-33.2-13.13-44.56-47.53Z" fill="#14C393"/><path fill-rule="evenodd" clip-rule="evenodd" d="M886.85 76.78c25.4 4.34 47.85 12.48 60.28 18l.72.32-37.92 204.45c-.31 1.7-1.99 2.8-3.67 2.4l-33.78-7.99c6 7.22 10.07 12.33 12.07 16.18 1.12 2.14 1.68 4.03 1.48 5.77-.2 1.79-1.17 3.23-2.71 4.49a13 13 0 0 1-7.36 2.72c-17.18 1.2-34-13.57-45.39-47.61l-19.71-2.46-.07-.81c-1.89-21.88-4.56-43.22-7.13-63.31l-.49-3.81c-2.39-18.66-4.63-36.18-5.98-51.93-1.44-16.81-1.87-31.67-.36-43.8 1.52-12.1 4.98-21.64 11.5-27.63l.13-.12.17-.07c24.36-9.71 52.82-9.13 78.22-4.8Zm-77.3 6.58c-5.91 5.52-9.25 14.44-10.73 26.28-1.49 11.91-1.07 26.6.36 43.38 1.35 15.7 3.59 33.19 5.98 51.86l.48 3.8c2.54 19.84 5.19 40.94 7.07 62.58l19.36 2.42.2.6c11.35 34.32 27.76 47.94 43.55 46.84 2.3-.16 4.52-.88 6.23-2.27 1.28-1.04 1.87-2.05 2-3.16.13-1.16-.23-2.63-1.27-4.62-2.09-4.02-6.63-9.6-13.76-18.13l-1.92-2.3 39.62 9.36c.57.13 1.14-.24 1.25-.82L945.59 96.3a266.51 266.51 0 0 0-59.08-17.54c-25.17-4.3-53.13-4.84-76.97 4.61Z" fill="#28244B"/><path fill-rule="evenodd" clip-rule="evenodd" d="M938.14 243.16a1 1 0 0 1 .84 1.13L930 303.57l.5 30.43a1 1 0 0 1-2 0l-.5-30.46c0-.08 0-.15.02-.22L937 244a1 1 0 0 1 1.14-.84ZM877.47 495a1 1 0 0 1 1.03.96c.47 13.32 2.47 22.69 9.84 34a1 1 0 0 1-1.68 1.09c-7.63-11.7-9.68-21.46-10.16-35.01a1 1 0 0 1 .97-1.04ZM939.68 470.05a1 1 0 0 1 1.27.63c3.2 9.45 5.25 13.92 8.75 20.15a2 2 0 0 1-1.3 2.94l-2.29.5c.85 6.28 2.06 11.1 4.23 15.71 2.22 4.7 5.48 9.24 10.5 14.9l3.27-.9c1.42-.39 2.9.32 3.52 1.64 21.55 46.3 25.81 73.28 32.76 117.26l1.1 6.96.05.36-.18.3a22.6 22.6 0 0 1-6.6 7.38c-2.67 1.9-5.9 3.3-9.96 4.58a1 1 0 0 1-.6-1.91c3.95-1.24 6.97-2.57 9.41-4.3 2.35-1.66 4.2-3.71 5.85-6.45l-1.05-6.59c-6.94-43.96-11.16-70.7-32.6-116.75-.2-.45-.71-.68-1.17-.55l-4.47 1.22-.41-.46c-5.31-5.93-8.83-10.75-11.23-15.83-2.4-5.09-3.65-10.38-4.52-17.21l-.12-.9 4.07-.91v-.01c-3.58-6.35-5.67-10.94-8.9-20.49a1 1 0 0 1 .62-1.27Z" fill="#B0EBDB"/><path d="m975.01 59 20.4 7 1.92 1.66c11.62 30.73-40.5 181.83-61.22 168.51l-19.13-7.66C902 204.87 946.95 66 975.01 59Z" fill="#B0EBDB"/><path fill-rule="evenodd" clip-rule="evenodd" d="m935.41 236.76.14-.42a4.37 4.37 0 0 0 1.88 1.42c9.4 3.5 30-32.16 46-79.65 16-47.48 21.33-88.8 11.93-92.3a3.7 3.7 0 0 0-.62-.17l.15-.46-18.53-6.88c-1.51-.56-3.15-.3-4.8.5a19.6 19.6 0 0 0-5.15 3.97c-3.57 3.64-7.56 9.27-11.71 16.42-8.32 14.33-17.41 34.95-25.34 58.49-7.93 23.53-13.2 45.57-15.32 62.2-1.05 8.3-1.33 15.32-.72 20.5.3 2.6.82 4.8 1.62 6.5.8 1.7 1.92 2.99 3.44 3.55l17.03 6.33Zm8.57-131.35a393.81 393.81 0 0 0-9.2 23.1l18.35 6.22a404.7 404.7 0 0 1 8.54-21.55c-7.76 5.83-17.25 1.7-17.7-7.77Zm-12.66 33c.9-2.66 1.8-5.28 2.72-7.85l18.35 6.21a458.84 458.84 0 0 0-6.09 18.1l-18.3-6.2c1.04-3.38 2.15-6.8 3.32-10.27Zm-3.96 12.33c-5.7 18.71-9.54 35.91-11.26 49.43-1.05 8.22-1.3 15.03-.72 19.96.28 2.46.77 4.4 1.42 5.79.66 1.38 1.43 2.14 2.27 2.45l15.21 5.66c-4.08-10.61.35-41.23 11.38-77.1l-18.3-6.19Zm9.1 83.05c.57 1.24 1.17 1.74 1.66 1.92.5.18 1.26.2 2.45-.4 1.2-.58 2.65-1.7 4.31-3.4 3.33-3.4 7.18-8.84 11.3-15.98 8.23-14.26 17.32-34.9 25.29-58.54 7.96-23.65 13.26-45.7 15.4-62.22 1.06-8.28 1.32-15.04.78-19.89a18.3 18.3 0 0 0-1.31-5.5c-.58-1.24-1.18-1.73-1.68-1.92-.49-.18-1.25-.19-2.44.4-1.2.59-2.65 1.7-4.32 3.4-3.32 3.41-7.17 8.85-11.3 15.99-8.23 14.25-17.32 34.9-25.28 58.54-7.97 23.64-13.26 45.7-15.4 62.21-1.06 8.28-1.32 15.05-.78 19.89a18.3 18.3 0 0 0 1.31 5.5Z" fill="#28244B"/><path d="M1006 222.5c-18.2-6.82-36.12-26.17-50.12-45.32a16.89 16.89 0 0 1-3.39-9.66c-.23-14.85 4.92-33.54 15.66-46.6.65-.8-.36 3.62 0 4.58 13.47 36.28 23.58 56 49.85 75l-12 22Z" fill="#B0EBDB"/><path d="M953.5 184.3c17.53 24.52 29.77 34.54 54.51 45.5l-.5-9.5c-27.1-14.1-36.3-25.1-52.5-53.5l-1.5 17.5Z" fill="#14C393"/><path fill-rule="evenodd" clip-rule="evenodd" d="m1011.34 224.25-5.1 5.85-.65-.24c-18.4-6.9-34.9-19.24-49-38.54a17.89 17.89 0 0 1-3.58-10.22c-.24-15.05 4.97-33.98 15.88-47.26 1.18-1.44 3.37-.92 3.97.7 6.71 18.09 13.5 31.13 21.84 42 8.34 10.89 18.28 19.64 31.37 29.1l.88.65-14.24 16.38.34.15-.79 1.83-.92-.4Zm-40.9-89.14a.27.27 0 0 1 .28-.1c.11.02.21.1.26.23 6.76 18.2 13.63 31.44 22.13 42.53 8.31 10.83 18.15 19.57 30.9 28.86l-13.2 15.17c-10.5-4.94-21.49-12.87-31.08-22.25-10.2-9.97-18.75-21.51-23.44-32.72 2.11-11.17 6.81-22.8 14.15-31.72Zm-14.74 35.31a68.92 68.92 0 0 0-.7 10.65 15.9 15.9 0 0 0 3.2 9.07c13.73 18.79 29.7 30.8 47.44 37.6l3.81-4.37c-10.59-5.07-21.56-13.04-31.12-22.4-9.48-9.27-17.63-19.94-22.63-30.55Z" fill="#28244B"/><path d="M1060.59 242.54c-13.63-21.64-40.5-26.87-58.82-17.94a3.9 3.9 0 0 0-2.03 2.64c-14.15 61.4-50.84 104.57-77.45 117.26-7.93 11.91-8.04 25.52-9.15 38.17 16.79 24.42-2.05 47.6-33.28 54.64l44.57 23.82c17.74 5.27 27.8 7.86 42.72 1.97 7.07-2.8 14.4-5.44 21.9-4.15 22.93 3.94 48.78 18.15 58.41-6.07l12.83-27.78c7.78-70.94 14.37-111.62.3-182.56Z" fill="#B0EBDB"/><path fill-rule="evenodd" clip-rule="evenodd" d="M1059.65 242.91c-13.38-21.05-39.6-26.11-57.44-17.41-.75.36-1.3 1.09-1.5 1.97-7.1 30.83-19.87 57.09-34.2 77.24-14.25 20.02-30.08 34.08-43.53 40.58-6.7 10.2-7.6 21.63-8.47 32.88l-.35 4.23c4.16 6.14 6.14 12.25 6.25 18.1a28.55 28.55 0 0 1-5.07 16.56c-6.34 9.46-18.1 16.82-32.7 20.6l42.17 22.54c17.68 5.25 27.42 7.72 41.97 1.97 7.04-2.79 14.63-5.55 22.44-4.2 5.03.86 10.2 2.21 15.27 3.54l2.26.6c5.8 1.5 11.41 2.87 16.59 3.37 5.17.5 9.82.12 13.72-1.78 3.87-1.88 7.14-5.32 9.48-11.19l.01-.02 12.76-27.66 1.91-17.17c6.81-60.62 11.24-100.06-1.57-164.75Zm-58.31-19.21c18.75-9.15 46.18-3.78 60.1 18.3l.1.16.03.18c12.92 65.11 8.46 104.84 1.64 165.52l-1.93 17.35-.02.16-12.88 27.9c-2.48 6.24-6.05 10.1-10.45 12.23-4.37 2.13-9.43 2.49-14.78 1.97-5.36-.52-11.11-1.93-16.91-3.43l-2.27-.6a182.92 182.92 0 0 0-15.09-3.5c-7.18-1.24-14.27 1.28-21.37 4.09-15.27 6.03-25.62 3.33-43.36-1.95l-.1-.02-47.03-25.13 2.62-.6c15.45-3.48 27.7-10.93 34.03-20.38a26.54 26.54 0 0 0 4.74-15.41c-.1-5.5-2-11.34-6.1-17.3l-.2-.3.03-.36.37-4.54c.87-11.29 1.8-23.37 8.95-34.1l.15-.22.25-.12c13.1-6.25 28.8-20.08 43.01-40.05 14.2-19.95 26.85-45.97 33.9-76.53a4.87 4.87 0 0 1 2.57-3.32Z" fill="#28244B"/><path d="M1056.32 396.4c-60.75-12.51-108.68-28.39-144.7-51.6l.9 34.2c20.05 33.12-11.9 54.65-33.27 58l39.69 21.07c20.94 8.9 33.35 12.42 53.4 3.8 6.95-2.98 14.77-3.6 21.89-1.06 51.59 18.44 61.55 1.92 62.09-64.4Z" fill="#14C393"/><path fill-rule="evenodd" clip-rule="evenodd" d="m910.56 342.94 1.6 1.03c35.86 23.1 83.65 38.94 144.36 51.45l.81.17-.01.82c-.14 16.6-.86 30.13-2.69 40.8-1.83 10.65-4.78 18.58-9.47 23.85-4.73 5.31-11.13 7.8-19.54 7.8-8.37-.01-18.8-2.49-31.73-7.1-6.85-2.45-14.4-1.86-21.16 1.04-10.15 4.35-18.44 5.67-26.87 4.73-8.38-.93-16.84-4.09-27.31-8.54l-.04-.01-42.38-22.5 2.97-.46c10.49-1.65 23.58-7.77 31.55-17.5 3.97-4.83 6.65-10.55 7.14-17.03.5-6.49-1.2-13.84-6.12-21.97l-.14-.23-.97-36.35Zm2.1 3.73.86 32.04c5 8.34 6.79 16.02 6.27 22.93-.53 6.97-3.41 13.06-7.6 18.16-7.63 9.3-19.64 15.38-29.96 17.66l37.14 19.7c10.45 4.45 18.66 7.49 26.71 8.39 8.03.89 15.97-.34 25.86-4.6 7.15-3.06 15.23-3.72 22.63-1.08 12.86 4.6 23.03 6.98 31.05 6.98 7.98 0 13.78-2.32 18.05-7.12 4.32-4.85 7.18-12.34 8.99-22.86 1.77-10.33 2.5-23.46 2.65-39.65-59.53-12.32-106.82-27.9-142.65-50.56Z" fill="#28244B"/><path d="m860.7 450.14 4.07-9.02a8.12 8.12 0 0 1 7.78-4.77l.61.02c4.62.22 9.14 1.42 13.25 3.52l25.92 13.22c7.82 3.99 13.3 12.06 11.88 20.72-1.53 9.32-5.25 15.04-12.06 19.2-7.73 4.73-17.55 1.4-23.67-5.28l-26.37-28.78a8.12 8.12 0 0 1-1.41-8.83Z" fill="#DCF6EF"/><path fill-rule="evenodd" clip-rule="evenodd" d="M872.5 437.35a7.12 7.12 0 0 0-6.82 4.18l-4.07 9.02a7.12 7.12 0 0 0 1.24 7.74l26.36 28.78c5.94 6.49 15.25 9.5 22.42 5.11 3.3-2.01 5.8-4.38 7.68-7.35 1.89-2.97 3.16-6.6 3.91-11.16 1.34-8.12-3.8-15.82-11.34-19.67l-25.92-13.22a31.48 31.48 0 0 0-12.85-3.4l-.6-.03Zm-8.64 3.35c1.54-3.4 5-5.53 8.74-5.35l.6.02c4.77.23 9.42 1.46 13.67 3.63l25.91 13.22c8.1 4.13 13.93 12.56 12.42 21.77-.79 4.76-2.13 8.65-4.2 11.91a24.9 24.9 0 0 1-8.33 7.99c-8.3 5.07-18.63 1.42-24.93-5.47l-26.37-28.78a9.12 9.12 0 0 1-1.59-9.91l4.08-9.03Z" fill="#28244B"/><path d="M939.59 343.26c-5.7 3.48-11.84 3.55-18.21.64l-5.2 29.6s16.19 4.28 27.48 0c2.54-3.93 7.16-19.42.42-29.6-.97-1.48-2.98-1.56-4.49-.64Z" fill="#28244B"/><path fill-rule="evenodd" clip-rule="evenodd" d="M943.25 344.45c-.58-.87-1.91-1.09-3.14-.34-5.67 3.45-11.75 3.71-17.97 1.2l-4.8 27.45a70.65 70.65 0 0 0 8.45 1.36c5.3.52 11.83.5 17.2-1.43 1.16-1.98 2.78-6.49 3.37-11.76.61-5.52.07-11.67-3.11-16.48Zm-27.06 29.06-.26.97-.89-.24 5.58-31.8 1.17.55c6.11 2.8 11.9 2.7 17.28-.59 1.78-1.08 4.47-1.13 5.84.94 3.56 5.37 4.07 12.06 3.43 17.81-.64 5.74-2.46 10.76-3.84 12.9l-.17.28-.31.11c-5.87 2.22-12.92 2.2-18.43 1.67a72.57 72.57 0 0 1-9.46-1.58l-.14-.04-.04-.01h-.02l.26-.97ZM909.74 460.52l-36.21-23.28 1.08-1.68 36.22 23.28c4.3 2.77 7.28 7.7 6.12 12.95-2.7 12.1-11.18 20.62-18.07 23.53l-.78-1.84c6.29-2.66 14.34-10.64 16.9-22.12.93-4.2-1.43-8.38-5.26-10.84Z" fill="#28244B"/><path d="M896.94 420.18c-10.55 7.99-30.37 5.75-36.87-6.86-2.87-5.56.11-11.96 3.99-16.88 15.48-19.64 22.2-33.05 33.48-56.97 1.3-2.73 2.88-5.5 5.65-6.7 6.7-2.91 18.21-2.12 19.1 6.55-5.25 32.98-10.22 53.12-21.25 75.43-1.02 2.06-2.27 4.04-4.1 5.43ZM961.4 443.37c-9.6 10.3-30.98 11.6-40.17-.46-3.74-4.9-2.23-11.62.47-17.16 12.57-25.79 15.55-40.36 23.18-68 3.74-6.32 22.21-10.56 25.66 0 2.02 31.21.2 58.94-6.03 79.73a14.65 14.65 0 0 1-3.1 5.9Z" fill="#DCF6EF"/><path fill-rule="evenodd" clip-rule="evenodd" d="M902.79 331.86a20.66 20.66 0 0 1 12.37-1.13c4.08.98 7.63 3.59 8.13 8.48l.02.13c-4.17 26.15-9.56 51.96-21.37 75.85-1.04 2.1-2.38 4.26-4.4 5.79-5.53 4.19-13.42 5.65-20.71 4.48-7.3-1.17-14.22-5.02-17.65-11.68-1.58-3.07-1.53-6.34-.6-9.43a26.53 26.53 0 0 1 4.7-8.53c15.4-19.54 22.08-32.88 33.36-56.78 1.28-2.72 3-5.82 6.15-7.18Zm-2.64 82.44c10.94-22.14 15.9-42.14 21.14-75a7.34 7.34 0 0 0-.87-2.77 621.78 621.78 0 0 1-6.93 27.34c-4.41 15.85-10.37 34.42-16.47 44.84-2.6 4.46-6.98 7.74-12.17 8.49-9.73 1.41-19.32-2.6-24.88-7.8.1 1.19.41 2.35.99 3.46 3.06 5.95 9.31 9.52 16.18 10.63 6.88 1.1 14.18-.31 19.2-4.1 1.64-1.26 2.81-3.07 3.8-5.09Zm18.65-79.7a10.05 10.05 0 0 0-4.11-1.93c-3.6-.86-7.94-.36-11.1 1.02-2.4 1.04-3.85 3.47-5.14 6.2-11.3 23.95-18.05 37.44-33.6 57.17a24.58 24.58 0 0 0-4.36 7.86 13.9 13.9 0 0 0-.4 1.76c4.84 5.38 14.6 9.97 24.48 8.54 4.5-.66 8.38-3.52 10.72-7.52 5.95-10.17 11.85-28.49 16.28-44.37a621.66 621.66 0 0 0 7.23-28.72ZM944.02 357.25c1.08-1.82 3.13-3.38 5.53-4.55 2.42-1.17 5.3-2 8.18-2.27 5.66-.55 11.81 1.04 13.77 7.02l.03.12c1.72 26.54 1.65 54.49-6.06 80.2a15.63 15.63 0 0 1-3.33 6.29c-5.03 5.38-13.06 8.36-20.96 8.46-7.91.11-15.9-2.65-20.75-9-4.11-5.4-2.35-12.62.37-18.21 8.86-18.16 14.8-37.02 20.03-56.48 1.03-3.77 2.05-7.56 3.1-11.34l.1-.24Zm19.54 79.94c6.17-20.6 8-48.15 6-79.24a7.66 7.66 0 0 0-1.09-2.08v.08a545.32 545.32 0 0 1-1.05 29.8 322.46 322.46 0 0 1-2.74 26.95c-1.3 8.65-3.08 16.57-5.5 22.18-2.08 4.84-6.58 8.05-11.7 8.97a38.21 38.21 0 0 1-16.93-.96c-4.08-1.17-7.75-2.96-10.42-5.18a9.83 9.83 0 0 0 1.9 4.6c4.34 5.7 11.64 8.32 19.12 8.21 7.49-.1 14.95-2.92 19.53-7.83a13.67 13.67 0 0 0 2.88-5.5Zm-43.53-2.3a24.1 24.1 0 0 1 2.57-8.7c10.78-22.12 14.55-36.05 20.17-56.84l3.04-11.2c.82-1.3 2.45-2.6 4.61-3.65a22.46 22.46 0 0 1 7.5-2.08c3.26-.32 6.33.14 8.56 1.59v1.92a543.5 543.5 0 0 1-1.05 29.69 320.19 320.19 0 0 1-2.72 26.78c-1.3 8.61-3.05 16.32-5.36 21.68-1.8 4.16-5.69 6.99-10.22 7.8-5.4.96-11.09.5-16.03-.91-4.73-1.36-8.69-3.55-11.07-6.08Z" fill="#28244B"/><path d="M839.47 175.37c-.54-4.83-1.2-8.85-2.35-14.35l27.48-9.46 9.46 23.81c8.86 2.53 15.88 5.5 20.46 9.16-33.1 33.4-53.49 41.63-84.57 7.02a23.31 23.31 0 0 1 3.52-8.12 7.65 7.65 0 0 1 7.62-3.53c3.69.63 7.48.18 10.92-1.3l7.46-3.23Z" fill="#FFF3E4"/><path d="M767.83 170.49c-6.72-18.93-2.14-38.16 21.06-51.3l52.51 3.37-13.73 36.33c-7.03 4.58-21.07 8.24-33.59 6.1 6.41-.91 15.88-7.02 15.88-13.43-19.23 3.97-31.36 17.53-32.36 39.69-6.72-11.6-6.39-30.46 8.24-47.02-12.57 8-15.67 14.1-18.01 26.26ZM888.11 158.58c5.95 5.07 10.41 6.67 19.54 8.24-11.94-9.45-16.41-18.78-20.6-37.24l-33.74 26.86c1.22 14.66-5.2 25.82-13.74 37.86 13.74-6.1 23.55-13.14 29.61-31.75-.12 26.49-4.95 37.15-12.51 57.09 16.18-12.82 29.84-31.74 31.44-61.06Z" fill="#8358FF"/><path d="m813.36 133.1 2.4-5.05c1.18-19.14 3.65-29.22 21.37-42.43l48.84 13.74 3.06 29.6c-3.06 11-8.62 14-15.7 12.53l-1 2.18a14.16 14.16 0 0 1-5.96 6.53c-9.72 5.39-17 8.26-27.82 11.4a9.8 9.8 0 0 1-8.38-1.26c-8.76-6.14-16.74-15.32-17.14-25.66-.03-.54.1-1.08.33-1.57Z" fill="#FFF3E4"/><path d="m810.5 97.5 1.73-.84-4.86 18.03-.74.02c-7.52.2-13-.06-17.89-1.1-4.91-1.05-9.2-2.87-14.38-5.75v-.36L774 106c.21-1.44.9-1.73 2.35-2.65 1.4-.9 3.45-1.63 6.22-2.3 5.56-1.35 14.22-1.9 27.93-3.55Z" fill="#28244B"/><path d="m860.32 102.05.04.45c1.13 12.85 11.95 20.42 19.2 24.94l4.88-10.38 6.1-.91c-3.04-17.6-2.77-28.59-23.8-37.86l-7.85-3.47c-6.98-3.1-15.02-4.08-21.6-.22-12.31 7.22-23.2 20.51-40.79 40.4l9.78 1.64 9.78 1.64 11.88-13.43c-2.38 4.18-3.72 8.36-4.86 12.21 9.46-4.88 17.1-10.07 25.03-20.56-4.29 6.88-6.52 14.38-7.94 22.7 9.14-5.93 15.5-10.64 20.15-17.15Z" fill="#8358FF"/><path d="M921.7 120.73v-13.74c-21.68 10.68-116.63 11.9-146.85.91v12.83c13.13 13.73 139.52 12.2 146.85 0Z" fill="#28244B"/><path d="M921.7 120.73v-13.74c-21.68 10.68-116.63 11.9-146.85.91v12.83c13.13 13.73 139.52 12.2 146.85 0Z" fill="#28244B"/><path d="M921.7 120.73v-13.74c-21.68 10.68-116.63 11.9-146.85.91v12.83c13.13 13.73 139.52 12.2 146.85 0Z" fill="#28244B"/><path d="m875.6 115.23-14.97.61-8.24 13.74h8.24l14.96-14.35ZM857.5 115.5l-4.8.04-8.86 14.04h5.2l8.46-14.08Z" fill="#FCFDFE"/><path d="m887.3 96.84-1.32-.16 3.1 18.31.83.02c7.52.2 13.06-.06 18.03-1.1 5-1.04 9.35-2.87 14.54-5.74l.6-.34-.1-.68a5.14 5.14 0 0 0-2.25-3.51c-1.3-.94-3.2-1.72-5.82-2.43-5.27-1.43-13.89-2.72-27.6-4.37Z" fill="#28244B"/><path d="M830.41 148.42c-.13-2.18-.44-3.76-2.08-5.65 11.93-.07 18.8-1.8 30.42-7.67a.6.6 0 0 1 .54 0c-10.15 10.45-15.63 14.44-28.88 13.32Z" fill="#FCFDFE"/><path fill-rule="evenodd" clip-rule="evenodd" d="M858.65 136.83c-4.52 4.6-8.23 7.89-12.3 9.94-4.46 2.24-9.29 2.96-16 2.4-.7-.07-1.42-.14-2.16-.23a.75.75 0 1 1 .17-1.49l1.23.14a6.82 6.82 0 0 0-1.61-4.06c-1.64 0-3.37-.03-5.22-.08a.75.75 0 1 1 .04-1.5c1.97.06 3.8.08 5.52.07 5.93-.03 10.57-.48 15.15-1.63 4.59-1.16 9.16-3.03 14.94-5.95.4-.2.86-.2 1.24 0 .34.19.61.54.65 1a5.28 5.28 0 0 1-1 3.46l-.15.22-.05.07-.01.02h-.01a.75.75 0 0 1-1.16-.95m-28.1 5.24c.36.58.63 1.15.82 1.75.27.8.4 1.6.47 2.47 6.2.45 10.56-.28 14.56-2.3 3.43-1.71 6.63-4.4 10.47-8.2a65.65 65.65 0 0 1-12.3 4.62 60.38 60.38 0 0 1-14.03 1.66Z" fill="#28244B"/><path fill-rule="evenodd" clip-rule="evenodd" d="M832.2 133.89c-1.78.04-3.35.66-5.67 2.13a.75.75 0 1 1-.8-1.27c2.42-1.53 4.26-2.3 6.44-2.36 2.12-.06 4.49.58 7.93 1.66a.75.75 0 0 1-.46 1.44c-3.47-1.1-5.6-1.65-7.43-1.6Zm14.12 9.35c.2.35.1.81-.26 1.03l-3.31 1.98-1.31-.29a12.1 12.1 0 0 0-3.3-.27l-3.72.2a.75.75 0 0 1-.09-1.49l3.73-.2c1.24-.07 2.49.03 3.7.3l.73.16 2.8-1.68a.75.75 0 0 1 1.03.26Z" fill="#28244B"/><path fill-rule="evenodd" clip-rule="evenodd" d="M828.04 135.46c.29-.3.76-.3 1.06 0a5.95 5.95 0 0 0 2.37 1.61c.87.29 1.9-.02 2.85-.68l.1-.07a3.79 3.79 0 0 1 3.59-.42.75.75 0 1 1-.56 1.4 2.29 2.29 0 0 0-2.16.25l-.11.07c-1.12.79-2.66 1.37-4.18.88a7.42 7.42 0 0 1-2.96-1.98.75.75 0 0 1 0-1.06Z" fill="#28244B"/><path fill-rule="evenodd" clip-rule="evenodd" d="M864.48 76.33c-5.35-3.55-10.44-5.31-15.55-5.33-5.13-.02-10.16 1.71-15.37 4.95-7.02 4.34-14.47 11.48-23.09 20.95-10.7.83-19.6 2-25.89 3.4a37.4 37.4 0 0 0-7.56 2.36c-.9.42-1.65.9-2.2 1.42-.52.5-.92 1.14-.97 1.89v14.17c0 1.2.93 2.1 1.96 2.75.85.53 1.97 1.03 3.31 1.5-6.38 5.3-10.6 11.27-12.92 17.65-3.3 9.09-2.73 18.87.68 28.5a1 1 0 0 0 1.93-.14c1.17-6.05 2.5-10.46 5.03-14.34a31 31 0 0 1 7.05-7.43c-10.69 15.46-10.39 32.08-4.16 42.84a1 1 0 0 0 1.87-.46c.49-10.9 3.71-19.61 9.1-26.07 5.14-6.14 12.3-10.32 21.12-12.39-.52 2.33-2.4 4.7-5 6.71-3.06 2.36-6.87 4.03-9.88 4.46a1 1 0 0 0-.02 1.98c12.58 2.15 26.65-1.43 33.98-6.05.56.42 1.13.83 1.7 1.23a10.5 10.5 0 0 0 6.71 1.83c.93 4.59 1.52 8.17 1.99 12.29l-6.77 2.92a18.32 18.32 0 0 1-10.36 1.24 8.66 8.66 0 0 0-8.63 3.98 25.3 25.3 0 0 0-2.6 4.94l-10.02 19.21c-3.71 2.82-9.88 8.4-12.51 14.9-3.43 6.36-5.78 12.84-6.85 18.69-.87 4.76-.9 13.7 1.18 15.47a19.6 19.6 0 0 0 6.88 3.47 22.3 22.3 0 0 0 15.86-1.22c.5 3.5.93 5.37 1.64 7.23.4 1.02.88 2.03 1.47 3.29l.13.26c.32.67.53 1.18.8 1.83l.89 2.04 2-.5 19.5 2.5.62 1.82v.01c6.15 17.93 10.55 30.76 24.33 41.72 5.4 4.28 12.26 7.38 19.31 6.26 4.4-.7 7.94-2.5 9.96-5.67 1.62-2.52 1.75-5.38 1.16-8.11a26.42 26.42 0 0 0-3.28-7.74c-3.3-5.52-6.99-10.04-10.96-14.65a18.28 18.28 0 0 1-3.11-18.82l1.66-3.43 1.8 1.61c5.39 3.54 11.87 6.54 18.5 6.5 5.77-.04 10.13-.6 16.5-4 1.9-1 2.77-5.5 2.7-7.6-.96-29.66-2.86-44.48-10.5-72.52-.6-2.23-1.72-4.68-3.7-5.88l-.02-.02.04-.04-.87-.7a40.68 40.68 0 0 0-9.21-5.3 90.13 90.13 0 0 0 3.14-18.1 30.06 30.06 0 0 0 7.33 4.35c3.1 1.27 6.59 2.08 11.17 2.87a1 1 0 0 0 .8-1.77c-5.89-4.66-9.9-9.25-12.96-14.94-2.7-5-4.68-10.9-6.54-18.5.44-1.11.85-2.33 1.21-3.65 3.8-.33 7.34-.71 10.59-1.13 6.68-.86 12.13-1.88 15.93-3.04 1.9-.58 3.44-1.2 4.53-1.89 1.03-.65 1.96-1.54 1.96-2.75v-14.35h-.02a2.93 2.93 0 0 0-.9-1.67 7.98 7.98 0 0 0-2.12-1.4 35.21 35.21 0 0 0-7.24-2.32c-6.12-1.4-14.83-2.58-25.34-3.42a29.52 29.52 0 0 0-2.78-5.75c-3.78-6-9.95-10.56-20.12-14.9Zm20.78 104.3a78.87 78.87 0 0 1-3.79 9.81c3.16-1.9 6.45-4.1 9.94-6.59a44.69 44.69 0 0 0-6.15-3.22Zm-22.02 17.99c2.68-8.69 4.39-17.5 4.83-30.19-2.75 6.54-6.11 11.46-10.11 15.4-5.06 4.97-11.07 8.31-17.98 11.38a1 1 0 0 1-1.23-1.49c5.97-8.4 10.81-16.28 12.77-25.14-2.59 2.25-7.24 4.06-11.37 5.05a182.26 182.26 0 0 1 .93 9.54 1 1 0 1 1-1.99.17c-.19-2.33-.37-4.37-.57-6.26l-6.2 2.68a20.32 20.32 0 0 1-11.5 1.37 6.66 6.66 0 0 0-6.6 3.09c-.46.72-.9 1.43-1.33 2.21 15.99 9.22 28.04 13.9 39.78 13.7 3.5-.06 7-.56 10.57-1.51Zm-20.74-6.78c7.4-10.82 12.8-21.41 11.85-34.9 4.04-1.7 8.01-3.66 12.5-6.15a15.16 15.16 0 0 0 6.4-6.98l.67-1.48c3.43.56 6.62.1 9.36-1.9a14.83 14.83 0 0 0 4.16-4.96c1.72 6.56 3.6 11.92 6.12 16.58a46.6 46.6 0 0 0 10.5 13.08 39.82 39.82 0 0 1-6.99-2.04 29.94 29.94 0 0 1-8.31-5.27 1 1 0 0 0-1.65.7c-1.48 27.22-13.46 45.34-28.16 57.94l.2-.53c6.68-17.48 10.92-28.56 11.03-53.38a1 1 0 0 0-1.95-.31c-2.99 9.18-6.88 15.45-11.68 20.16-4 3.94-8.66 6.83-14.04 9.44Zm45.36-62.7a495.18 495.18 0 0 1-39.43 1.46c-11.64 0-22.65-.34-32.45-.96l-1.71 3.62c-.18.36-.26.74-.25 1.1.4 9.86 8.05 18.8 16.72 24.88a8.8 8.8 0 0 0 7.53 1.11c10.77-3.12 17.97-5.96 27.61-11.3a13.16 13.16 0 0 0 5.55-6.07l2.95-6.47a1 1 0 0 1 1.82.84l-1.41 3.09c2.8.36 5.24-.12 7.3-1.63 2.3-1.67 4.29-4.71 5.77-9.68Zm-74.03.36c-6.48-.45-12.4-1.01-17.56-1.68-6.06-.78-11.12-1.7-14.85-2.73-6.73 5.31-11.04 11.3-13.34 17.64-2.71 7.45-2.68 15.47-.44 23.56 1.04-4.38 2.36-8 4.52-11.32 2.75-4.21 6.8-7.83 13.14-11.86a1 1 0 0 1 1.29 1.5c-13.07 14.8-14.45 31.35-9.72 42.64 1-9.59 4.21-17.5 9.3-23.6 5.73-6.85 13.79-11.33 23.59-13.35a1 1 0 0 1 1.2.98c0 3.68-2.68 7.07-5.92 9.57a26.92 26.92 0 0 1-5.88 3.42c10.34.56 20.96-2.34 27.06-5.94-7.48-6.1-13.82-14.47-14.2-23.9-.02-.72.15-1.41.44-2.03l1.37-2.9Zm74.22-30.46c1.2 4.02 1.86 8.58 2.34 13.84 3.58-.32 6.93-.68 10-1.08 6.63-.85 11.93-1.86 15.56-2.97a17.4 17.4 0 0 0 4.03-1.67c.92-.58 1.02-.96 1.02-1.07 0-.06-.03-.24-.33-.55-.31-.3-.82-.65-1.58-1.03a33.45 33.45 0 0 0-6.82-2.16c-5.82-1.34-14.13-2.48-24.22-3.3Zm.84 15.97a1 1 0 0 0 1.34-.11c3.74-.33 7.22-.7 10.41-1.12 6.67-.85 12.1-1.88 15.9-3.04a19.4 19.4 0 0 0 4.46-1.86v11.26c0 .1-.1.47-1.02 1.06a17.5 17.5 0 0 1-4.05 1.66c-3.64 1.11-8.97 2.12-15.6 2.98-13.27 1.7-31.62 2.76-51.9 2.76-20.3 0-38.64-1.06-51.9-2.76-6.64-.86-11.96-1.87-15.6-2.98a17.5 17.5 0 0 1-4.05-1.66c-.93-.59-1.03-.96-1.03-1.06v-11.26c1.09.68 2.6 1.3 4.47 1.86 3.79 1.16 9.22 2.19 15.9 3.05 6.04.77 13.14 1.42 21 1.89a1 1 0 0 0 .45.02c1.53.1 3.08.17 4.65.25.35.33.9.35 1.29.06l3 .13c.22.1.47.1.7.03a539.26 539.26 0 0 0 21.12.39c14.96 0 28.86-.57 40.46-1.55Zm-.5-1.96c-.8-8.92-2.13-15.44-5.48-20.75-3.49-5.53-9.25-9.89-19.3-14.16l-.09-.04-.07-.05c-5.15-3.43-9.88-5.03-14.53-5.05-4.65-.02-9.31 1.55-14.31 4.65-9.82 6.08-20.68 17.92-34.86 34.55 5.23.6 11.13 1.1 17.55 1.48 3.2-1.9 6.84-5.09 9.65-8.73a55.7 55.7 0 0 1 2.24-3.32 1 1 0 1 1 1.62 1.18 54.8 54.8 0 0 0-1.86 2.7c-.03.11-.08.21-.15.3l-.2.28a53.97 53.97 0 0 0-4.02 7.96l2.36.1c6.68-2.97 14.34-9.68 19.67-16.91l1-1.98a1 1 0 0 1 1.78.92 138.55 138.55 0 0 0-1.06 2.1 67.36 67.36 0 0 0-5.83 16.25l4.04.03c8.37-5.59 15.28-12.87 19.01-23.67a1 1 0 1 1 1.9.66 45.6 45.6 0 0 1-5.48 10.92c.02.08.03.16.03.25 0 2.11.47 4.5 1.25 6.66a15.04 15.04 0 0 0 2.75 4.9c8.08-.24 15.63-.67 22.4-1.23Zm-24.88 1.31a19.38 19.38 0 0 1-2.14-4.3 23.72 23.72 0 0 1-1.23-5.11 51.67 51.67 0 0 1-10.11 9.6c4.61 0 9.12-.07 13.48-.19Zm-23.05.14c.86-3.85 1.8-7.09 3.14-10.52a57.56 57.56 0 0 1-12.58 10.31c3.07.1 6.22.17 9.44.21Zm-19.82-.64 1.81.1.09-.21.93-2.16c-.94.83-1.89 1.6-2.83 2.27Zm-23.27-1.94c3.94-4.64 7.64-8.93 11.15-12.86-9.7.81-17.76 1.91-23.5 3.2-3.15.7-5.55 1.44-7.14 2.2-.8.39-1.34.74-1.67 1.06-.33.32-.36.5-.36.57 0 .1.1.49 1.02 1.07.87.55 2.21 1.11 4.03 1.67 3.63 1.1 8.94 2.12 15.57 2.97l.9.12Z" fill="#28244B"/><path d="M791.6 207.66h43.96v26.87a21.98 21.98 0 0 1-21.98 21.98" fill="#FFCB47"/><path fill-rule="evenodd" clip-rule="evenodd" d="M833.56 209.66H793.6v24.87a19.98 19.98 0 1 0 39.96 0v-24.87Zm-41.96-2v26.87a21.98 21.98 0 0 0 43.96 0v-26.87H791.6Z" fill="#28244B"/><path d="M835.57 208.27c0 2.36-9.98 4.28-22.28 4.28-12.31 0-22.29-1.92-22.29-4.28 0-2.36 9.98-4.27 22.29-4.27 12.3 0 22.28 1.91 22.28 4.27Z" fill="#FD9317"/><path fill-rule="evenodd" clip-rule="evenodd" d="M832.62 208.27c-.92-.36-2.24-.73-3.95-1.05a86.12 86.12 0 0 0-15.38-1.22c-6.07 0-11.51.47-15.39 1.22-1.7.32-3.03.69-3.95 1.05.92.37 2.25.73 3.95 1.06 3.88.74 9.32 1.22 15.39 1.22 6.06 0 11.5-.48 15.38-1.22 1.7-.33 3.03-.7 3.95-1.06Zm-19.33 4.28c12.3 0 22.28-1.92 22.28-4.28 0-2.36-9.98-4.27-22.28-4.27-12.31 0-22.29 1.91-22.29 4.27 0 2.36 9.98 4.28 22.29 4.28Z" fill="#28244B"/><path fill-rule="evenodd" clip-rule="evenodd" d="m785.25 205.8 7.6 3.38 1.7 11.94-8.44-8.03-.86-7.3Zm2.4 3.25.36 3.09 3.75 3.57-.73-5.15-3.39-1.5Z" fill="#28244B"/><path d="m841.4 219.65 10.08 11.3c2.74 6.7-3.67 15.19-10.08 13.42l-19.23 1.76-.79.48c-1.9 1.14-4 2-6.21 2.08-3.83.14-6.57-.66-7-1.57-1.8.1-3.27-.21-3.95-1-.63-.75.1-1.75.9-2.28 3.38-2.25 8.2-5.57 8.2-5.57s5.73-2.42 8.85-4.89l-11 2.14c-6.1 6.41-17.09 5.19-14.03 1.83l5.52-3.05c-2.17.3-4.3-.92-2.17-3.36l8.25-6.41 11.6-4.88 14.34-1.23v-3.05l6.72 4.28Z" fill="#FFF3E4"/><path fill-rule="evenodd" clip-rule="evenodd" d="M834.2 214.5a1 1 0 0 1 1.02.03l6.72 4.27c.08.05.15.11.2.18l10.08 11.3c.08.08.14.18.18.28 1.54 3.76.5 7.93-1.73 10.88-2.17 2.9-5.68 4.86-9.35 3.95l-18.83 1.72-.6.36a14.12 14.12 0 0 1-6.69 2.22c-1.98.07-3.72-.1-5.04-.42a7.48 7.48 0 0 1-1.72-.62c-.25-.13-.5-.3-.73-.51a8.67 8.67 0 0 1-2.17-.21c-.8-.2-1.56-.55-2.08-1.17a2.05 2.05 0 0 1-.22-2.3c.3-.62.83-1.12 1.33-1.46a617.06 617.06 0 0 0 7.37-5c.62-.42 1.23-.75 1.9-1.06a66.85 66.85 0 0 0 3.17-1.53l-5.33 1.03a16.49 16.49 0 0 1-10.93 4.66c-1.63.04-3.18-.22-4.14-.9-.5-.35-.95-.9-1-1.64a2.6 2.6 0 0 1 .78-1.88c.79-.86 2.35-1.36 3.36-1.92a2.68 2.68 0 0 1-.52-.42c-.47-.51-.7-1.19-.6-1.95.12-.78.61-1.74 1.25-2.24l8.24-6.41c.07-.05.15-.1.23-.13l11.6-4.89a1 1 0 0 1 .3-.07l13.43-1.14v-2.14c0-.36.2-.7.52-.88Zm-31.85 18.83 5.9-3.26a.96.96 0 0 1 .19-.08l10.68-3.36a1 1 0 1 1 .6 1.9l-10.59 3.34-11.35 6.27c-.15.19-.23.28-.02.42.43.3 1.44.58 2.94.54 2.92-.07 6.92-1.3 9.75-4.27a.99.99 0 0 1 .54-.3l10.99-2.13a1 1 0 0 1 .81 1.77 35.44 35.44 0 0 1-5.77 3.48c-.92.46-1.75.84-2.35 1.11-.57.26-1.07.53-1.6.89a878.3 878.3 0 0 1-7.39 5.02c-.3.2-.54.46-.65.67a.5.5 0 0 0-.04.13c.14.18.46.38 1.02.52.56.13 1.27.18 2.1.13 3.33-.2 7.84-1.96 10.24-4.83a1 1 0 0 1 .51-.33l8.25-2.13a1 1 0 0 1 .5 1.93l-7.94 2.06c-2.03 2.3-5.1 3.9-8.01 4.7.97.15 2.14.22 3.47.17 1.99-.08 3.92-.84 5.73-1.94l.8-.47a1 1 0 0 1 .42-.14l19.23-1.76a1 1 0 0 1 .36.03c2.67.74 5.5-.64 7.4-3.17 1.87-2.49 2.66-5.84 1.54-8.77l-9.86-11.06-5.07-3.22v1.23a1 1 0 0 1-.91 1l-14.2 1.2-11.33 4.78-8.05 6.27c-.42.5-.55.83-.58 1.01-.02.15.02.22.08.29.1.1.3.22.64.3.3.07.65.1 1.02.06Z" fill="#28244B"/><path fill-rule="evenodd" clip-rule="evenodd" d="M820.64 221.44a1 1 0 0 1 1.26.65c2.34 7.4 4.62 11.03 9.59 17.07a1 1 0 1 1-1.55 1.27c-5.08-6.18-7.51-10.04-9.95-17.73a1 1 0 0 1 .65-1.26Z" fill="#28244B"/><path d="M787.38 209.98c-1.5-3-2.03-4.79-.38-6.02.88-.66 2.1-.33 2.9.42l7.12 6.65c.95.88 1.81 2.63 1.59 3.91-.49 2.73-4.58 1.38-6.62-.5l-4.03-3.69a2.65 2.65 0 0 1-.58-.77Z" fill="#FFF3E4"/><path fill-rule="evenodd" clip-rule="evenodd" d="M789.22 205.11c-.62-.58-1.29-.6-1.62-.35-.3.22-.45.43-.52.62-.08.2-.12.45-.08.81.1.78.52 1.83 1.27 3.34.1.18.22.35.37.48l4.02 3.7c.9.82 2.27 1.53 3.4 1.72.56.1.95.05 1.17-.06.16-.07.32-.21.4-.6.06-.38-.03-.93-.3-1.54a4.6 4.6 0 0 0-1-1.47l-7.12-6.65Zm-2.82-1.95c1.43-1.06 3.2-.43 4.18.49l7.12 6.64a6.6 6.6 0 0 1 1.47 2.15c.35.8.58 1.77.42 2.68a2.7 2.7 0 0 1-1.5 2.06c-.75.35-1.6.36-2.38.22a9.38 9.38 0 0 1-4.4-2.22l-4.02-3.69c-.33-.3-.6-.66-.8-1.06a13.15 13.15 0 0 1-1.47-4 3.59 3.59 0 0 1 .2-1.8c.25-.6.65-1.07 1.18-1.47Z" fill="#28244B"/><path d="M786.91 227.6c-1.28-2.57-1.7-4.13-.07-5.54a1.77 1.77 0 0 1 2.3-.04l6.22 5.03c.82.66 1.54 2.12 1.3 3.32-.48 2.56-4.05 1.95-5.8.56l-3.47-2.74c-.2-.16-.36-.36-.48-.6Z" fill="#FFF3E4"/><path fill-rule="evenodd" clip-rule="evenodd" d="M784.78 224.46a3.64 3.64 0 0 1 1.41-3.16 2.77 2.77 0 0 1 3.58-.06l6.22 5.04a4.82 4.82 0 0 1 1.66 4.28 3 3 0 0 1-1.3 2c-.64.43-1.4.57-2.12.57-1.4 0-2.95-.59-4-1.41l-3.46-2.74a2.76 2.76 0 0 1-.75-.94 10.1 10.1 0 0 1-1.24-3.58Zm2-.14c.05.67.38 1.54 1.03 2.83.05.1.12.2.2.26l3.47 2.74c.7.56 1.82.98 2.76.98.46 0 .8-.1 1.01-.24.2-.12.36-.32.44-.7.06-.36 0-.82-.2-1.3-.2-.46-.5-.85-.75-1.06l-6.22-5.03a.77.77 0 0 0-1.03.02c-.6.52-.75.96-.71 1.5Z" fill="#28244B"/><path d="M785.94 219c-1.46-2.96-1.95-4.72-.23-5.94.86-.6 2-.32 2.8.35l7.3 6.16c1.09.92 2.06 2.78 1.89 4.2-.33 2.65-4.16 1.57-6.26-.08l-4.7-3.71c-.34-.26-.6-.6-.8-.97Z" fill="#FFF3E4"/><path fill-rule="evenodd" clip-rule="evenodd" d="M787.87 214.17c-.6-.5-1.24-.53-1.58-.29-.32.22-.48.43-.56.62-.09.2-.13.44-.1.79.07.75.47 1.78 1.21 3.27.12.24.3.46.52.63l4.7 3.72a7.15 7.15 0 0 0 3.29 1.44c.52.06.85-.01 1.04-.11.13-.08.27-.2.32-.6a3.36 3.36 0 0 0-.39-1.73 4.86 4.86 0 0 0-1.16-1.58l-7.3-6.16Zm-2.74-1.92c1.37-.97 3.04-.44 4.03.4l7.29 6.15a6.85 6.85 0 0 1 1.68 2.26c.4.85.68 1.87.56 2.84a2.66 2.66 0 0 1-1.33 2.08c-.69.39-1.5.44-2.24.36a9.13 9.13 0 0 1-4.3-1.86l-4.7-3.72c-.45-.35-.82-.8-1.07-1.31a12.3 12.3 0 0 1-1.41-3.98c-.06-.6 0-1.22.26-1.8.26-.57.69-1.04 1.23-1.42Z" fill="#28244B"/><path d="M787.52 235.66c-.84-2.21-1.04-3.6.53-5.06.7-.66 1.51-.68 2-.29l4.84 3.95c.63.52 1.1 1.78.77 2.9-.7 2.4-3.72 2.22-5.08 1.14l-2.7-2.15c-.16-.12-.29-.29-.36-.49Z" fill="#FFF3E4"/><path fill-rule="evenodd" clip-rule="evenodd" d="M785.88 232.8a4.2 4.2 0 0 1 1.49-2.93c.96-.9 2.34-1.12 3.3-.33l4.85 3.95c.5.41.88 1.05 1.07 1.7a4 4 0 0 1 .03 2.25 3.56 3.56 0 0 1-3.13 2.59 4.97 4.97 0 0 1-3.54-.95l-2.7-2.14c-.3-.24-.53-.56-.67-.93a8.2 8.2 0 0 1-.7-3.22Zm2 .1c-.03.58.16 1.3.57 2.4l.04.07 2.7 2.14c.47.37 1.3.62 2.06.53.71-.08 1.24-.43 1.45-1.16.1-.35.09-.74-.02-1.11-.12-.38-.3-.63-.43-.73l-4.84-3.95c-.01-.02-.06-.05-.17-.03-.11 0-.3.07-.51.27-.63.59-.82 1.07-.85 1.57Z" fill="#28244B"/><g style="mix-blend-mode:color-dodge" opacity=".7" filter="url(#d)"><path d="M903.25 101.75a36.26 36.26 0 1 1-72.5-1.5 36.26 36.26 0 0 1 72.5 1.5Z" fill="#8358FF"/></g><path fill-rule="evenodd" clip-rule="evenodd" d="M890.15 195.16c.47.3.6.91.3 1.38-4.84 7.57-7.84 13.42-10.56 23.23a1 1 0 0 1-1.93-.53c2.79-10.05 5.88-16.08 10.81-23.78a1 1 0 0 1 1.38-.3Zm-11.41 30.08a1 1 0 0 1 1.17.8l1.52 7.93a1 1 0 1 1-1.96.38l-1.52-7.94a1 1 0 0 1 .79-1.17ZM855.07 233.3a1 1 0 0 1 1.21-.71l5.4 1.37a69.65 69.65 0 0 0 12.53 1.77c1.69.12 3.4.2 5.14.3 2.59.12 5.2.26 7.76.48 11.9 1.03 20.27 6.83 24.77 15.83a1 1 0 0 1-1.79.9c-4.16-8.33-11.89-13.76-23.15-14.74a211.7 211.7 0 0 0-7.62-.48c-1.74-.09-3.48-.17-5.25-.3a71.54 71.54 0 0 1-12.9-1.83l-5.38-1.37a1 1 0 0 1-.72-1.21ZM887.87 274.2c-9.96-1.51-17.52-9.06-24.75-16.71-3.75-3.97-7.86-7.48-13.84-11.63a1 1 0 1 0-1.14 1.64c5.9 4.09 9.89 7.51 13.53 11.36 7.14 7.57 15.16 15.69 25.9 17.31 10.3 1.55 18.67-1.03 24.75-8.03a1 1 0 0 0-1.5-1.31c-5.56 6.38-13.2 8.83-22.95 7.36Z" fill="#14C393"/></g><defs><clipPath id="a"><path fill="#fff" d="M-18 0h322v543H-18z"/></clipPath><clipPath id="c"><path fill="#fff" d="M630 48h440v638H630z"/></clipPath><filter id="b" x="58.65" y="-23.28" width="168.71" height="168.86" filterUnits="userSpaceOnUse" color-interpolation-filters="sRGB"><feFlood flood-opacity="0" result="BackgroundImageFix"/><feBlend in="SourceGraphic" in2="BackgroundImageFix" result="shape"/><feGaussianBlur stdDeviation="23.1" result="effect1_foregroundBlur_3515_14624"/></filter><filter id="d" x="784.54" y="18.54" width="164.92" height="164.92" filterUnits="userSpaceOnUse" color-interpolation-filters="sRGB"><feFlood flood-opacity="0" result="BackgroundImageFix"/><feBlend in="SourceGraphic" in2="BackgroundImageFix" result="shape"/><feGaussianBlur stdDeviation="23.1" result="effect1_foregroundBlur_3515_14624"/></filter></defs></svg>