<svg width="104" height="122" fill="none" xmlns="http://www.w3.org/2000/svg"><path d="M7.2 109.8 19.9 92h64.2l11.7 17.2c.3.5.2 1.1-.3 1.4-24.5 15.1-71 12.4-88.1.5a1 1 0 0 1-.2-1.3Z" fill="#8AFFCE"/><path d="M104 52A52 52 0 1 1 0 52a52 52 0 0 1 104 0Z" fill="#3E3075"/><path d="M94.1 23C71.3 23 51 41.5 51 64.3 51 79.8 61.1 91 73.8 98c26-11 39.1-48.1 20.3-75Z" fill="#4E3995"/><path d="M44.5 81.4C60 69.4 82.2 67.5 98 72.8a53.7 53.7 0 0 1-7.2 13c-2.9 3.7-6 6.4-9.4 8.2-27.2 18.7-63.9 6-74.4-18.2 13-4.5 24.9.4 37 5.5l.5.1Z" fill="#8358FF"/><path fill-rule="evenodd" clip-rule="evenodd" d="M104 52.1A52 52 0 0 1 85.5 92l10.8 16.4a2 2 0 0 1-.6 2.7 88.2 88.2 0 0 1-47 10.9c-16.8-.3-32.8-4-41.5-10.3a2 2 0 0 1-.5-2.8l11.7-17A52 52 0 1 1 104 52.1ZM78 95c3.9-2.3 7.4-5.2 10.5-8.5-15.7 6.3-29 1.7-41.6-3.6l-1.6-.7-2-.9c-12-5.1-23.3-9.9-35.6-5.9A50 50 0 0 0 78 95Zm-25.3 9.3a9.6 9.6 0 0 0-3.2 8.7c.2 2 .9 3.8 2 5.3.4.7 1 1.3 1.6 1.8h-4.4c-16.6-.3-32-4-40.3-10L20 93.3a51.7 51.7 0 0 0 32.7 11Zm38.8-21.4c2.2-2.8 4.1-5.9 5.6-9.1a60.3 60.3 0 0 0-49.9 7c13.6 5.8 27.6 10.6 44.3 2.1Zm-46.4-3a62 62 0 0 1 52.9-8 50 50 0 1 0-91.2 1.7C20 69.1 33 74.6 45 79.8Z" fill="#3E3075"/><path fill-rule="evenodd" clip-rule="evenodd" d="M53 21c-.2 0-.2.1-.3.2A62 62 0 0 1 45 27a11 11 0 0 1-7 14c-4 1.4-8.7.1-11.5-3.2a62.7 62.7 0 0 1-9.4 4c-1.2.3-1.9.3-2 0-.2-.3.1-1 1-1.8l.2-.2c1.6-1.5 4.4-3.6 8-6a11 11 0 0 1 5-12.8A10.8 10.8 0 0 1 42.7 23a61.8 61.8 0 0 1 9.2-3.9c1.2-.3 1.9-.3 2 0 .2.3-.1 1-1 1.8Zm-9.4 8.2a1 1 0 0 0-1.1-1.7 179 179 0 0 1-13.8 8 1 1 0 0 0 .9 1.7 184 184 0 0 0 14-8Z" fill="#4E3995"/><path d="M16 53a1 1 0 1 1-2 0 1 1 0 0 1 2 0ZM88 57a1 1 0 1 1-2 0 1 1 0 0 1 2 0ZM77 18a1 1 0 1 1-2 0 1 1 0 0 1 2 0ZM73 75a1 1 0 1 1-2 0 1 1 0 0 1 2 0ZM50 11a1 1 0 1 1-2 0 1 1 0 0 1 2 0ZM53 96a1 1 0 1 1-2 0 1 1 0 0 1 2 0ZM25 59a2 2 0 1 1-4 0 2 2 0 0 1 4 0ZM64 23a2 2 0 1 1-4 0 2 2 0 0 1 4 0ZM79 69a2 2 0 1 1-4 0 2 2 0 0 1 4 0ZM40 85a2 2 0 1 1-4 0 2 2 0 0 1 4 0Z" fill="#FCFDFE"/><path fill-rule="evenodd" clip-rule="evenodd" d="M52 2.4C28.7 2.4 9 18 3.5 39.1c-.2.6-.9 1-1.5.9-.7-.2-1.1-.9-1-1.5A52.4 52.4 0 0 1 52 0c9 0 17 1.7 24.3 5.5.6.3.9 1 .5 1.7-.3.6-1 .8-1.7.5a49.5 49.5 0 0 0-23-5.3Z" fill="#8AFFCE"/><path d="M43 61h2.2V45h-2.4v12l-8.7-12h-2.4v16H34V48.7L42.9 61ZM48.8 61h2.4v-7.1h8.2v-2.1h-8.2V47h8.3V45H48.8v16ZM66 61h2.4V47.1h5V45H61V47h5V61Z" fill="#FCFDFE"/></svg>